<?xml version="1.0" encoding="UTF-8"?>
<svg xmlns="http://www.w3.org/2000/svg" xmlns:xlink="http://www.w3.org/1999/xlink" width="542pt" height="96pt" viewBox="0 0 542 96" version="1.1">
<g id="surface2">
<path style="fill:none;stroke-width:1.5;stroke-linecap:butt;stroke-linejoin:miter;stroke:rgb(0%,0%,0%);stroke-opacity:0.266667;stroke-dasharray:10,4;stroke-dashoffset:1;stroke-miterlimit:10;" d="M 0.75 0.75 L 127.25 0.75 L 127.25 95.25 L 0.75 95.25 Z M 0.75 0.75 "/>
<path style="fill:none;stroke-width:1.5;stroke-linecap:butt;stroke-linejoin:miter;stroke:rgb(0%,0%,0%);stroke-opacity:0.2;stroke-dasharray:10,4;stroke-dashoffset:1;stroke-miterlimit:10;" d="M 10 10 L 118 10 L 118 86 L 10 86 Z M 10 10 "/>
<path style="fill:none;stroke-width:1.5;stroke-linecap:butt;stroke-linejoin:miter;stroke:rgb(0%,0%,0%);stroke-opacity:0.266667;stroke-dasharray:10,4;stroke-dashoffset:1;stroke-miterlimit:10;" d="M 138.75 0.75 L 265.25 0.75 L 265.25 95.25 L 138.75 95.25 Z M 138.75 0.75 "/>
<path style="fill:none;stroke-width:1.5;stroke-linecap:butt;stroke-linejoin:miter;stroke:rgb(0%,0%,0%);stroke-opacity:0.2;stroke-dasharray:10,4;stroke-dashoffset:1;stroke-miterlimit:10;" d="M 148 10 L 256 10 L 256 86 L 148 86 Z M 148 10 "/>
<path style="fill:none;stroke-width:1.5;stroke-linecap:butt;stroke-linejoin:miter;stroke:rgb(0%,0%,0%);stroke-opacity:0.266667;stroke-dasharray:10,4;stroke-dashoffset:1;stroke-miterlimit:10;" d="M 276.75 0.75 L 403.25 0.75 L 403.25 95.25 L 276.75 95.25 Z M 276.75 0.75 "/>
<path style="fill:none;stroke-width:1.5;stroke-linecap:butt;stroke-linejoin:miter;stroke:rgb(0%,0%,0%);stroke-opacity:0.2;stroke-dasharray:10,4;stroke-dashoffset:1;stroke-miterlimit:10;" d="M 286 10 L 394 10 L 394 86 L 286 86 Z M 286 10 "/>
<path style="fill:none;stroke-width:1.5;stroke-linecap:butt;stroke-linejoin:miter;stroke:rgb(0%,0%,0%);stroke-opacity:0.266667;stroke-dasharray:10,4;stroke-dashoffset:1;stroke-miterlimit:10;" d="M 414.75 0.75 L 541.25 0.75 L 541.25 95.25 L 414.75 95.25 Z M 414.75 0.75 "/>
<path style="fill:none;stroke-width:1.5;stroke-linecap:butt;stroke-linejoin:miter;stroke:rgb(0%,0%,0%);stroke-opacity:0.2;stroke-dasharray:10,4;stroke-dashoffset:1;stroke-miterlimit:10;" d="M 424 10 L 532 10 L 532 86 L 424 86 Z M 424 10 "/>
<path style="fill:none;stroke-width:1.5;stroke-linecap:butt;stroke-linejoin:miter;stroke:rgb(38.039216%,50.588235%,100%);stroke-opacity:1;stroke-miterlimit:10;" d="M 0 5 C 0 2.238281 2.238281 0 5 0 L 47 0 C 49.761719 0 52 2.238281 52 5 L 52 31 C 52 33.761719 49.761719 36 47 36 L 5 36 C 2.238281 36 0 33.761719 0 31 Z M 0 5 " transform="matrix(1,0,0,1,10,10)"/>
<path style=" stroke:none;fill-rule:nonzero;fill:rgb(38.039216%,50.588235%,100%);fill-opacity:0.490196;" d="M 10 15 C 10 12.238281 12.238281 10 15 10 L 57 10 C 59.761719 10 62 12.238281 62 15 L 62 41 C 62 43.761719 59.761719 46 57 46 L 15 46 C 12.238281 46 10 43.761719 10 41 Z M 10 15 "/>
<path style="fill:none;stroke-width:1.5;stroke-linecap:butt;stroke-linejoin:miter;stroke:rgb(0%,0%,0%);stroke-opacity:0.1;stroke-miterlimit:10;" d="M 45 35 L 10 10 "/>
<path style="fill:none;stroke-width:1.5;stroke-linecap:butt;stroke-linejoin:miter;stroke:rgb(0%,0%,0%);stroke-opacity:0.1;stroke-miterlimit:10;" d="M 85 35 L 50 10 M 45 65 L 10 46 "/>
<path style="fill:none;stroke-width:1.5;stroke-linecap:butt;stroke-linejoin:miter;stroke:rgb(0%,0%,0%);stroke-opacity:0.1;stroke-miterlimit:10;" d="M 85 65 L 50 46 "/>
<path style="fill:none;stroke-width:1.5;stroke-linecap:butt;stroke-linejoin:miter;stroke:rgb(38.039216%,50.588235%,100%);stroke-opacity:1;stroke-miterlimit:10;" d="M 0 5 C 0 2.238281 2.238281 0 5 0 L 47 0 C 49.761719 0 52 2.238281 52 5 L 52 31 C 52 33.761719 49.761719 36 47 36 L 5 36 C 2.238281 36 0 33.761719 0 31 Z M 0 5 " transform="matrix(1,0,0,1,10,48)"/>
<path style=" stroke:none;fill-rule:nonzero;fill:rgb(38.039216%,50.588235%,100%);fill-opacity:0.490196;" d="M 10 53 C 10 50.238281 12.238281 48 15 48 L 57 48 C 59.761719 48 62 50.238281 62 53 L 62 79 C 62 81.761719 59.761719 84 57 84 L 15 84 C 12.238281 84 10 81.761719 10 79 Z M 10 53 "/>
<path style="fill:none;stroke-width:1.5;stroke-linecap:butt;stroke-linejoin:miter;stroke:rgb(0%,0%,0%);stroke-opacity:0.1;stroke-miterlimit:10;" d="M 45 35 L 10 48 "/>
<path style="fill:none;stroke-width:1.5;stroke-linecap:butt;stroke-linejoin:miter;stroke:rgb(0%,0%,0%);stroke-opacity:0.1;stroke-miterlimit:10;" d="M 85 35 L 50 48 M 45 65 L 10 84 "/>
<path style="fill:none;stroke-width:1.5;stroke-linecap:butt;stroke-linejoin:miter;stroke:rgb(0%,0%,0%);stroke-opacity:0.1;stroke-miterlimit:10;" d="M 85 65 L 50 84 "/>
<path style="fill:none;stroke-width:1.5;stroke-linecap:butt;stroke-linejoin:miter;stroke:rgb(38.039216%,50.588235%,100%);stroke-opacity:1;stroke-miterlimit:10;" d="M 0 5 C 0 2.238281 2.238281 0 5 0 L 47 0 C 49.761719 0 52 2.238281 52 5 L 52 31 C 52 33.761719 49.761719 36 47 36 L 5 36 C 2.238281 36 0 33.761719 0 31 Z M 0 5 " transform="matrix(1,0,0,1,64,10)"/>
<path style=" stroke:none;fill-rule:nonzero;fill:rgb(38.039216%,50.588235%,100%);fill-opacity:0.490196;" d="M 64 15 C 64 12.238281 66.238281 10 69 10 L 111 10 C 113.761719 10 116 12.238281 116 15 L 116 41 C 116 43.761719 113.761719 46 111 46 L 69 46 C 66.238281 46 64 43.761719 64 41 Z M 64 15 "/>
<path style="fill:none;stroke-width:1.5;stroke-linecap:butt;stroke-linejoin:miter;stroke:rgb(0%,0%,0%);stroke-opacity:0.1;stroke-miterlimit:10;" d="M 45 35 L 64 10 "/>
<path style="fill:none;stroke-width:1.5;stroke-linecap:butt;stroke-linejoin:miter;stroke:rgb(0%,0%,0%);stroke-opacity:0.1;stroke-miterlimit:10;" d="M 85 35 L 104 10 M 45 65 L 64 46 "/>
<path style="fill:none;stroke-width:1.5;stroke-linecap:butt;stroke-linejoin:miter;stroke:rgb(0%,0%,0%);stroke-opacity:0.1;stroke-miterlimit:10;" d="M 85 65 L 104 46 "/>
<path style="fill:none;stroke-width:1.5;stroke-linecap:butt;stroke-linejoin:miter;stroke:rgb(38.039216%,50.588235%,100%);stroke-opacity:1;stroke-miterlimit:10;" d="M 0 5 C 0 2.238281 2.238281 0 5 0 L 20 0 C 22.761719 0 25 2.238281 25 5 L 25 31 C 25 33.761719 22.761719 36 20 36 L 5 36 C 2.238281 36 0 33.761719 0 31 Z M 0 5 " transform="matrix(1,0,0,1,64,48)"/>
<path style=" stroke:none;fill-rule:nonzero;fill:rgb(38.039216%,50.588235%,100%);fill-opacity:0.490196;" d="M 64 53 C 64 50.238281 66.238281 48 69 48 L 84 48 C 86.761719 48 89 50.238281 89 53 L 89 79 C 89 81.761719 86.761719 84 84 84 L 69 84 C 66.238281 84 64 81.761719 64 79 Z M 64 53 "/>
<path style="fill:none;stroke-width:1.5;stroke-linecap:butt;stroke-linejoin:miter;stroke:rgb(0%,0%,0%);stroke-opacity:0.1;stroke-miterlimit:10;" d="M 45 35 L 64 48 "/>
<path style="fill:none;stroke-width:1.5;stroke-linecap:butt;stroke-linejoin:miter;stroke:rgb(0%,0%,0%);stroke-opacity:0.1;stroke-miterlimit:10;" d="M 85 35 L 104 48 M 45 65 L 64 84 "/>
<path style="fill:none;stroke-width:1.5;stroke-linecap:butt;stroke-linejoin:miter;stroke:rgb(0%,0%,0%);stroke-opacity:0.1;stroke-miterlimit:10;" d="M 85 65 L 104 84 "/>
<path style="fill:none;stroke-width:1.5;stroke-linecap:butt;stroke-linejoin:miter;stroke:rgb(38.039216%,50.588235%,100%);stroke-opacity:1;stroke-miterlimit:10;" d="M 0 5 C 0 2.238281 2.238281 0 5 0 L 20 0 C 22.761719 0 25 2.238281 25 5 L 25 31 C 25 33.761719 22.761719 36 20 36 L 5 36 C 2.238281 36 0 33.761719 0 31 Z M 0 5 " transform="matrix(1,0,0,1,91,48)"/>
<path style=" stroke:none;fill-rule:nonzero;fill:rgb(38.039216%,50.588235%,100%);fill-opacity:0.490196;" d="M 91 53 C 91 50.238281 93.238281 48 96 48 L 111 48 C 113.761719 48 116 50.238281 116 53 L 116 79 C 116 81.761719 113.761719 84 111 84 L 96 84 C 93.238281 84 91 81.761719 91 79 Z M 91 53 "/>
<path style="fill:none;stroke-width:1.5;stroke-linecap:butt;stroke-linejoin:miter;stroke:rgb(0%,0%,0%);stroke-opacity:0.1;stroke-miterlimit:10;" d="M 45 35 L 91 48 "/>
<path style="fill:none;stroke-width:1.5;stroke-linecap:butt;stroke-linejoin:miter;stroke:rgb(0%,0%,0%);stroke-opacity:0.1;stroke-miterlimit:10;" d="M 85 35 L 131 48 M 45 65 L 91 84 "/>
<path style="fill:none;stroke-width:1.5;stroke-linecap:butt;stroke-linejoin:miter;stroke:rgb(0%,0%,0%);stroke-opacity:0.1;stroke-miterlimit:10;" d="M 85 65 L 131 84 "/>
<path style="fill:none;stroke-width:1.5;stroke-linecap:butt;stroke-linejoin:miter;stroke:rgb(38.039216%,50.588235%,100%);stroke-opacity:1;stroke-miterlimit:10;" d="M 0 5 C 0 2.238281 2.238281 0 5 0 L 47 0 C 49.761719 0 52 2.238281 52 5 L 52 31 C 52 33.761719 49.761719 36 47 36 L 5 36 C 2.238281 36 0 33.761719 0 31 Z M 0 5 " transform="matrix(1,0,0,1,148,48)"/>
<path style=" stroke:none;fill-rule:nonzero;fill:rgb(38.039216%,50.588235%,100%);fill-opacity:0.490196;" d="M 148 53 C 148 50.238281 150.238281 48 153 48 L 195 48 C 197.761719 48 200 50.238281 200 53 L 200 79 C 200 81.761719 197.761719 84 195 84 L 153 84 C 150.238281 84 148 81.761719 148 79 Z M 148 53 "/>
<path style="fill:none;stroke-width:1.5;stroke-linecap:butt;stroke-linejoin:miter;stroke:rgb(0%,0%,0%);stroke-opacity:0.1;stroke-miterlimit:10;" d="M 183 35 L 148 48 "/>
<path style="fill:none;stroke-width:1.5;stroke-linecap:butt;stroke-linejoin:miter;stroke:rgb(0%,0%,0%);stroke-opacity:0.1;stroke-miterlimit:10;" d="M 223 35 L 188 48 M 183 65 L 148 84 "/>
<path style="fill:none;stroke-width:1.5;stroke-linecap:butt;stroke-linejoin:miter;stroke:rgb(0%,0%,0%);stroke-opacity:0.1;stroke-miterlimit:10;" d="M 223 65 L 188 84 "/>
<path style="fill:none;stroke-width:1.5;stroke-linecap:butt;stroke-linejoin:miter;stroke:rgb(38.039216%,50.588235%,100%);stroke-opacity:1;stroke-miterlimit:10;" d="M 0 5 C 0 2.238281 2.238281 0 5 0 L 47 0 C 49.761719 0 52 2.238281 52 5 L 52 31 C 52 33.761719 49.761719 36 47 36 L 5 36 C 2.238281 36 0 33.761719 0 31 Z M 0 5 " transform="matrix(1,0,0,1,148,10)"/>
<path style=" stroke:none;fill-rule:nonzero;fill:rgb(38.039216%,50.588235%,100%);fill-opacity:0.490196;" d="M 148 15 C 148 12.238281 150.238281 10 153 10 L 195 10 C 197.761719 10 200 12.238281 200 15 L 200 41 C 200 43.761719 197.761719 46 195 46 L 153 46 C 150.238281 46 148 43.761719 148 41 Z M 148 15 "/>
<path style="fill:none;stroke-width:1.5;stroke-linecap:butt;stroke-linejoin:miter;stroke:rgb(0%,0%,0%);stroke-opacity:0.1;stroke-miterlimit:10;" d="M 183 35 L 148 10 "/>
<path style="fill:none;stroke-width:1.5;stroke-linecap:butt;stroke-linejoin:miter;stroke:rgb(0%,0%,0%);stroke-opacity:0.1;stroke-miterlimit:10;" d="M 223 35 L 188 10 M 183 65 L 148 46 "/>
<path style="fill:none;stroke-width:1.5;stroke-linecap:butt;stroke-linejoin:miter;stroke:rgb(0%,0%,0%);stroke-opacity:0.1;stroke-miterlimit:10;" d="M 223 65 L 188 46 "/>
<path style="fill:none;stroke-width:1.5;stroke-linecap:butt;stroke-linejoin:miter;stroke:rgb(38.039216%,50.588235%,100%);stroke-opacity:1;stroke-miterlimit:10;" d="M 0 5 C 0 2.238281 2.238281 0 5 0 L 47 0 C 49.761719 0 52 2.238281 52 5 L 52 31 C 52 33.761719 49.761719 36 47 36 L 5 36 C 2.238281 36 0 33.761719 0 31 Z M 0 5 " transform="matrix(1,0,0,1,202,48)"/>
<path style=" stroke:none;fill-rule:nonzero;fill:rgb(38.039216%,50.588235%,100%);fill-opacity:0.490196;" d="M 202 53 C 202 50.238281 204.238281 48 207 48 L 249 48 C 251.761719 48 254 50.238281 254 53 L 254 79 C 254 81.761719 251.761719 84 249 84 L 207 84 C 204.238281 84 202 81.761719 202 79 Z M 202 53 "/>
<path style="fill:none;stroke-width:1.5;stroke-linecap:butt;stroke-linejoin:miter;stroke:rgb(0%,0%,0%);stroke-opacity:0.1;stroke-miterlimit:10;" d="M 183 35 L 202 48 "/>
<path style="fill:none;stroke-width:1.5;stroke-linecap:butt;stroke-linejoin:miter;stroke:rgb(0%,0%,0%);stroke-opacity:0.1;stroke-miterlimit:10;" d="M 223 35 L 242 48 M 183 65 L 202 84 "/>
<path style="fill:none;stroke-width:1.5;stroke-linecap:butt;stroke-linejoin:miter;stroke:rgb(0%,0%,0%);stroke-opacity:0.1;stroke-miterlimit:10;" d="M 223 65 L 242 84 "/>
<path style="fill:none;stroke-width:1.5;stroke-linecap:butt;stroke-linejoin:miter;stroke:rgb(38.039216%,50.588235%,100%);stroke-opacity:1;stroke-miterlimit:10;" d="M 0 5 C 0 2.238281 2.238281 0 5 0 L 20 0 C 22.761719 0 25 2.238281 25 5 L 25 31 C 25 33.761719 22.761719 36 20 36 L 5 36 C 2.238281 36 0 33.761719 0 31 Z M 0 5 " transform="matrix(1,0,0,1,202,10)"/>
<path style=" stroke:none;fill-rule:nonzero;fill:rgb(38.039216%,50.588235%,100%);fill-opacity:0.490196;" d="M 202 15 C 202 12.238281 204.238281 10 207 10 L 222 10 C 224.761719 10 227 12.238281 227 15 L 227 41 C 227 43.761719 224.761719 46 222 46 L 207 46 C 204.238281 46 202 43.761719 202 41 Z M 202 15 "/>
<path style="fill:none;stroke-width:1.5;stroke-linecap:butt;stroke-linejoin:miter;stroke:rgb(0%,0%,0%);stroke-opacity:0.1;stroke-miterlimit:10;" d="M 183 35 L 202 10 "/>
<path style="fill:none;stroke-width:1.5;stroke-linecap:butt;stroke-linejoin:miter;stroke:rgb(0%,0%,0%);stroke-opacity:0.1;stroke-miterlimit:10;" d="M 223 35 L 242 10 M 183 65 L 202 46 "/>
<path style="fill:none;stroke-width:1.5;stroke-linecap:butt;stroke-linejoin:miter;stroke:rgb(0%,0%,0%);stroke-opacity:0.1;stroke-miterlimit:10;" d="M 223 65 L 242 46 "/>
<path style="fill:none;stroke-width:1.5;stroke-linecap:butt;stroke-linejoin:miter;stroke:rgb(38.039216%,50.588235%,100%);stroke-opacity:1;stroke-miterlimit:10;" d="M 0 5 C 0 2.238281 2.238281 0 5 0 L 20 0 C 22.761719 0 25 2.238281 25 5 L 25 31 C 25 33.761719 22.761719 36 20 36 L 5 36 C 2.238281 36 0 33.761719 0 31 Z M 0 5 " transform="matrix(1,0,0,1,229,10)"/>
<path style=" stroke:none;fill-rule:nonzero;fill:rgb(38.039216%,50.588235%,100%);fill-opacity:0.490196;" d="M 229 15 C 229 12.238281 231.238281 10 234 10 L 249 10 C 251.761719 10 254 12.238281 254 15 L 254 41 C 254 43.761719 251.761719 46 249 46 L 234 46 C 231.238281 46 229 43.761719 229 41 Z M 229 15 "/>
<path style="fill:none;stroke-width:1.5;stroke-linecap:butt;stroke-linejoin:miter;stroke:rgb(0%,0%,0%);stroke-opacity:0.1;stroke-miterlimit:10;" d="M 183 35 L 229 10 "/>
<path style="fill:none;stroke-width:1.5;stroke-linecap:butt;stroke-linejoin:miter;stroke:rgb(0%,0%,0%);stroke-opacity:0.1;stroke-miterlimit:10;" d="M 223 35 L 269 10 M 183 65 L 229 46 "/>
<path style="fill:none;stroke-width:1.5;stroke-linecap:butt;stroke-linejoin:miter;stroke:rgb(0%,0%,0%);stroke-opacity:0.1;stroke-miterlimit:10;" d="M 223 65 L 269 46 "/>
<path style="fill:none;stroke-width:1.5;stroke-linecap:butt;stroke-linejoin:miter;stroke:rgb(38.039216%,50.588235%,100%);stroke-opacity:1;stroke-miterlimit:10;" d="M 0 5 C 0 2.238281 2.238281 0 5 0 L 47 0 C 49.761719 0 52 2.238281 52 5 L 52 31 C 52 33.761719 49.761719 36 47 36 L 5 36 C 2.238281 36 0 33.761719 0 31 Z M 0 5 " transform="matrix(1,0,0,1,340,10)"/>
<path style=" stroke:none;fill-rule:nonzero;fill:rgb(38.039216%,50.588235%,100%);fill-opacity:0.490196;" d="M 340 15 C 340 12.238281 342.238281 10 345 10 L 387 10 C 389.761719 10 392 12.238281 392 15 L 392 41 C 392 43.761719 389.761719 46 387 46 L 345 46 C 342.238281 46 340 43.761719 340 41 Z M 340 15 "/>
<path style="fill:none;stroke-width:1.5;stroke-linecap:butt;stroke-linejoin:miter;stroke:rgb(0%,0%,0%);stroke-opacity:0.1;stroke-miterlimit:10;" d="M 321 35 L 340 10 "/>
<path style="fill:none;stroke-width:1.5;stroke-linecap:butt;stroke-linejoin:miter;stroke:rgb(0%,0%,0%);stroke-opacity:0.1;stroke-miterlimit:10;" d="M 361 35 L 380 10 M 321 65 L 340 46 "/>
<path style="fill:none;stroke-width:1.5;stroke-linecap:butt;stroke-linejoin:miter;stroke:rgb(0%,0%,0%);stroke-opacity:0.1;stroke-miterlimit:10;" d="M 361 65 L 380 46 "/>
<path style="fill:none;stroke-width:1.5;stroke-linecap:butt;stroke-linejoin:miter;stroke:rgb(38.039216%,50.588235%,100%);stroke-opacity:1;stroke-miterlimit:10;" d="M 0 5 C 0 2.238281 2.238281 0 5 0 L 47 0 C 49.761719 0 52 2.238281 52 5 L 52 31 C 52 33.761719 49.761719 36 47 36 L 5 36 C 2.238281 36 0 33.761719 0 31 Z M 0 5 " transform="matrix(1,0,0,1,340,48)"/>
<path style=" stroke:none;fill-rule:nonzero;fill:rgb(38.039216%,50.588235%,100%);fill-opacity:0.490196;" d="M 340 53 C 340 50.238281 342.238281 48 345 48 L 387 48 C 389.761719 48 392 50.238281 392 53 L 392 79 C 392 81.761719 389.761719 84 387 84 L 345 84 C 342.238281 84 340 81.761719 340 79 Z M 340 53 "/>
<path style="fill:none;stroke-width:1.5;stroke-linecap:butt;stroke-linejoin:miter;stroke:rgb(0%,0%,0%);stroke-opacity:0.1;stroke-miterlimit:10;" d="M 321 35 L 340 48 "/>
<path style="fill:none;stroke-width:1.5;stroke-linecap:butt;stroke-linejoin:miter;stroke:rgb(0%,0%,0%);stroke-opacity:0.1;stroke-miterlimit:10;" d="M 361 35 L 380 48 M 321 65 L 340 84 "/>
<path style="fill:none;stroke-width:1.5;stroke-linecap:butt;stroke-linejoin:miter;stroke:rgb(0%,0%,0%);stroke-opacity:0.1;stroke-miterlimit:10;" d="M 361 65 L 380 84 "/>
<path style="fill:none;stroke-width:1.5;stroke-linecap:butt;stroke-linejoin:miter;stroke:rgb(38.039216%,50.588235%,100%);stroke-opacity:1;stroke-miterlimit:10;" d="M 0 5 C 0 2.238281 2.238281 0 5 0 L 47 0 C 49.761719 0 52 2.238281 52 5 L 52 31 C 52 33.761719 49.761719 36 47 36 L 5 36 C 2.238281 36 0 33.761719 0 31 Z M 0 5 " transform="matrix(1,0,0,1,286,10)"/>
<path style=" stroke:none;fill-rule:nonzero;fill:rgb(38.039216%,50.588235%,100%);fill-opacity:0.490196;" d="M 286 15 C 286 12.238281 288.238281 10 291 10 L 333 10 C 335.761719 10 338 12.238281 338 15 L 338 41 C 338 43.761719 335.761719 46 333 46 L 291 46 C 288.238281 46 286 43.761719 286 41 Z M 286 15 "/>
<path style="fill:none;stroke-width:1.5;stroke-linecap:butt;stroke-linejoin:miter;stroke:rgb(0%,0%,0%);stroke-opacity:0.1;stroke-miterlimit:10;" d="M 321 35 L 286 10 "/>
<path style="fill:none;stroke-width:1.5;stroke-linecap:butt;stroke-linejoin:miter;stroke:rgb(0%,0%,0%);stroke-opacity:0.1;stroke-miterlimit:10;" d="M 361 35 L 326 10 M 321 65 L 286 46 "/>
<path style="fill:none;stroke-width:1.5;stroke-linecap:butt;stroke-linejoin:miter;stroke:rgb(0%,0%,0%);stroke-opacity:0.1;stroke-miterlimit:10;" d="M 361 65 L 326 46 "/>
<path style="fill:none;stroke-width:1.5;stroke-linecap:butt;stroke-linejoin:miter;stroke:rgb(38.039216%,50.588235%,100%);stroke-opacity:1;stroke-miterlimit:10;" d="M 0 5 C 0 2.238281 2.238281 0 5 0 L 20 0 C 22.761719 0 25 2.238281 25 5 L 25 31 C 25 33.761719 22.761719 36 20 36 L 5 36 C 2.238281 36 0 33.761719 0 31 Z M 0 5 " transform="matrix(1,0,0,1,313,48)"/>
<path style=" stroke:none;fill-rule:nonzero;fill:rgb(38.039216%,50.588235%,100%);fill-opacity:0.490196;" d="M 313 53 C 313 50.238281 315.238281 48 318 48 L 333 48 C 335.761719 48 338 50.238281 338 53 L 338 79 C 338 81.761719 335.761719 84 333 84 L 318 84 C 315.238281 84 313 81.761719 313 79 Z M 313 53 "/>
<path style="fill:none;stroke-width:1.5;stroke-linecap:butt;stroke-linejoin:miter;stroke:rgb(0%,0%,0%);stroke-opacity:0.1;stroke-miterlimit:10;" d="M 321 35 L 313 48 "/>
<path style="fill:none;stroke-width:1.5;stroke-linecap:butt;stroke-linejoin:miter;stroke:rgb(0%,0%,0%);stroke-opacity:0.1;stroke-miterlimit:10;" d="M 361 35 L 353 48 M 321 65 L 313 84 "/>
<path style="fill:none;stroke-width:1.5;stroke-linecap:butt;stroke-linejoin:miter;stroke:rgb(0%,0%,0%);stroke-opacity:0.1;stroke-miterlimit:10;" d="M 361 65 L 353 84 "/>
<path style="fill:none;stroke-width:1.5;stroke-linecap:butt;stroke-linejoin:miter;stroke:rgb(38.039216%,50.588235%,100%);stroke-opacity:1;stroke-miterlimit:10;" d="M 0 5 C 0 2.238281 2.238281 0 5 0 L 20 0 C 22.761719 0 25 2.238281 25 5 L 25 31 C 25 33.761719 22.761719 36 20 36 L 5 36 C 2.238281 36 0 33.761719 0 31 Z M 0 5 " transform="matrix(1,0,0,1,286,48)"/>
<path style=" stroke:none;fill-rule:nonzero;fill:rgb(38.039216%,50.588235%,100%);fill-opacity:0.490196;" d="M 286 53 C 286 50.238281 288.238281 48 291 48 L 306 48 C 308.761719 48 311 50.238281 311 53 L 311 79 C 311 81.761719 308.761719 84 306 84 L 291 84 C 288.238281 84 286 81.761719 286 79 Z M 286 53 "/>
<path style="fill:none;stroke-width:1.5;stroke-linecap:butt;stroke-linejoin:miter;stroke:rgb(0%,0%,0%);stroke-opacity:0.1;stroke-miterlimit:10;" d="M 321 35 L 286 48 "/>
<path style="fill:none;stroke-width:1.5;stroke-linecap:butt;stroke-linejoin:miter;stroke:rgb(0%,0%,0%);stroke-opacity:0.1;stroke-miterlimit:10;" d="M 361 35 L 326 48 M 321 65 L 286 84 "/>
<path style="fill:none;stroke-width:1.5;stroke-linecap:butt;stroke-linejoin:miter;stroke:rgb(0%,0%,0%);stroke-opacity:0.1;stroke-miterlimit:10;" d="M 361 65 L 326 84 "/>
<path style="fill:none;stroke-width:1.5;stroke-linecap:butt;stroke-linejoin:miter;stroke:rgb(38.039216%,50.588235%,100%);stroke-opacity:1;stroke-miterlimit:10;" d="M 0 5 C 0 2.238281 2.238281 0 5 0 L 47 0 C 49.761719 0 52 2.238281 52 5 L 52 31 C 52 33.761719 49.761719 36 47 36 L 5 36 C 2.238281 36 0 33.761719 0 31 Z M 0 5 " transform="matrix(1,0,0,1,478,48)"/>
<path style=" stroke:none;fill-rule:nonzero;fill:rgb(38.039216%,50.588235%,100%);fill-opacity:0.490196;" d="M 478 53 C 478 50.238281 480.238281 48 483 48 L 525 48 C 527.761719 48 530 50.238281 530 53 L 530 79 C 530 81.761719 527.761719 84 525 84 L 483 84 C 480.238281 84 478 81.761719 478 79 Z M 478 53 "/>
<path style="fill:none;stroke-width:1.5;stroke-linecap:butt;stroke-linejoin:miter;stroke:rgb(0%,0%,0%);stroke-opacity:0.1;stroke-miterlimit:10;" d="M 459 35 L 478 48 "/>
<path style="fill:none;stroke-width:1.5;stroke-linecap:butt;stroke-linejoin:miter;stroke:rgb(0%,0%,0%);stroke-opacity:0.1;stroke-miterlimit:10;" d="M 499 35 L 518 48 M 459 65 L 478 84 "/>
<path style="fill:none;stroke-width:1.5;stroke-linecap:butt;stroke-linejoin:miter;stroke:rgb(0%,0%,0%);stroke-opacity:0.1;stroke-miterlimit:10;" d="M 499 65 L 518 84 "/>
<path style="fill:none;stroke-width:1.5;stroke-linecap:butt;stroke-linejoin:miter;stroke:rgb(38.039216%,50.588235%,100%);stroke-opacity:1;stroke-miterlimit:10;" d="M 0 5 C 0 2.238281 2.238281 0 5 0 L 47 0 C 49.761719 0 52 2.238281 52 5 L 52 31 C 52 33.761719 49.761719 36 47 36 L 5 36 C 2.238281 36 0 33.761719 0 31 Z M 0 5 " transform="matrix(1,0,0,1,478,10)"/>
<path style=" stroke:none;fill-rule:nonzero;fill:rgb(38.039216%,50.588235%,100%);fill-opacity:0.490196;" d="M 478 15 C 478 12.238281 480.238281 10 483 10 L 525 10 C 527.761719 10 530 12.238281 530 15 L 530 41 C 530 43.761719 527.761719 46 525 46 L 483 46 C 480.238281 46 478 43.761719 478 41 Z M 478 15 "/>
<path style="fill:none;stroke-width:1.5;stroke-linecap:butt;stroke-linejoin:miter;stroke:rgb(0%,0%,0%);stroke-opacity:0.1;stroke-miterlimit:10;" d="M 459 35 L 478 10 "/>
<path style="fill:none;stroke-width:1.5;stroke-linecap:butt;stroke-linejoin:miter;stroke:rgb(0%,0%,0%);stroke-opacity:0.1;stroke-miterlimit:10;" d="M 499 35 L 518 10 M 459 65 L 478 46 "/>
<path style="fill:none;stroke-width:1.5;stroke-linecap:butt;stroke-linejoin:miter;stroke:rgb(0%,0%,0%);stroke-opacity:0.1;stroke-miterlimit:10;" d="M 499 65 L 518 46 "/>
<path style="fill:none;stroke-width:1.5;stroke-linecap:butt;stroke-linejoin:miter;stroke:rgb(38.039216%,50.588235%,100%);stroke-opacity:1;stroke-miterlimit:10;" d="M 0 5 C 0 2.238281 2.238281 0 5 0 L 47 0 C 49.761719 0 52 2.238281 52 5 L 52 31 C 52 33.761719 49.761719 36 47 36 L 5 36 C 2.238281 36 0 33.761719 0 31 Z M 0 5 " transform="matrix(1,0,0,1,424,48)"/>
<path style=" stroke:none;fill-rule:nonzero;fill:rgb(38.039216%,50.588235%,100%);fill-opacity:0.490196;" d="M 424 53 C 424 50.238281 426.238281 48 429 48 L 471 48 C 473.761719 48 476 50.238281 476 53 L 476 79 C 476 81.761719 473.761719 84 471 84 L 429 84 C 426.238281 84 424 81.761719 424 79 Z M 424 53 "/>
<path style="fill:none;stroke-width:1.5;stroke-linecap:butt;stroke-linejoin:miter;stroke:rgb(0%,0%,0%);stroke-opacity:0.1;stroke-miterlimit:10;" d="M 459 35 L 424 48 "/>
<path style="fill:none;stroke-width:1.5;stroke-linecap:butt;stroke-linejoin:miter;stroke:rgb(0%,0%,0%);stroke-opacity:0.1;stroke-miterlimit:10;" d="M 499 35 L 464 48 M 459 65 L 424 84 "/>
<path style="fill:none;stroke-width:1.5;stroke-linecap:butt;stroke-linejoin:miter;stroke:rgb(0%,0%,0%);stroke-opacity:0.1;stroke-miterlimit:10;" d="M 499 65 L 464 84 "/>
<path style="fill:none;stroke-width:1.5;stroke-linecap:butt;stroke-linejoin:miter;stroke:rgb(38.039216%,50.588235%,100%);stroke-opacity:1;stroke-miterlimit:10;" d="M 0 5 C 0 2.238281 2.238281 0 5 0 L 20 0 C 22.761719 0 25 2.238281 25 5 L 25 31 C 25 33.761719 22.761719 36 20 36 L 5 36 C 2.238281 36 0 33.761719 0 31 Z M 0 5 " transform="matrix(1,0,0,1,451,10)"/>
<path style=" stroke:none;fill-rule:nonzero;fill:rgb(38.039216%,50.588235%,100%);fill-opacity:0.490196;" d="M 451 15 C 451 12.238281 453.238281 10 456 10 L 471 10 C 473.761719 10 476 12.238281 476 15 L 476 41 C 476 43.761719 473.761719 46 471 46 L 456 46 C 453.238281 46 451 43.761719 451 41 Z M 451 15 "/>
<path style="fill:none;stroke-width:1.5;stroke-linecap:butt;stroke-linejoin:miter;stroke:rgb(0%,0%,0%);stroke-opacity:0.1;stroke-miterlimit:10;" d="M 459 35 L 451 10 "/>
<path style="fill:none;stroke-width:1.5;stroke-linecap:butt;stroke-linejoin:miter;stroke:rgb(0%,0%,0%);stroke-opacity:0.1;stroke-miterlimit:10;" d="M 499 35 L 491 10 M 459 65 L 451 46 "/>
<path style="fill:none;stroke-width:1.5;stroke-linecap:butt;stroke-linejoin:miter;stroke:rgb(0%,0%,0%);stroke-opacity:0.1;stroke-miterlimit:10;" d="M 499 65 L 491 46 "/>
<path style="fill:none;stroke-width:1.5;stroke-linecap:butt;stroke-linejoin:miter;stroke:rgb(38.039216%,50.588235%,100%);stroke-opacity:1;stroke-miterlimit:10;" d="M 0 5 C 0 2.238281 2.238281 0 5 0 L 20 0 C 22.761719 0 25 2.238281 25 5 L 25 31 C 25 33.761719 22.761719 36 20 36 L 5 36 C 2.238281 36 0 33.761719 0 31 Z M 0 5 " transform="matrix(1,0,0,1,424,10)"/>
<path style=" stroke:none;fill-rule:nonzero;fill:rgb(38.039216%,50.588235%,100%);fill-opacity:0.490196;" d="M 424 15 C 424 12.238281 426.238281 10 429 10 L 444 10 C 446.761719 10 449 12.238281 449 15 L 449 41 C 449 43.761719 446.761719 46 444 46 L 429 46 C 426.238281 46 424 43.761719 424 41 Z M 424 15 "/>
<path style="fill:none;stroke-width:1.5;stroke-linecap:butt;stroke-linejoin:miter;stroke:rgb(0%,0%,0%);stroke-opacity:0.1;stroke-miterlimit:10;" d="M 459 35 L 424 10 "/>
<path style="fill:none;stroke-width:1.5;stroke-linecap:butt;stroke-linejoin:miter;stroke:rgb(0%,0%,0%);stroke-opacity:0.1;stroke-miterlimit:10;" d="M 499 35 L 464 10 M 459 65 L 424 46 "/>
<path style="fill:none;stroke-width:1.5;stroke-linecap:butt;stroke-linejoin:miter;stroke:rgb(0%,0%,0%);stroke-opacity:0.1;stroke-miterlimit:10;" d="M 499 65 L 464 46 "/>
</g>
</svg>
