<?xml version="1.0" encoding="UTF-8"?>
<svg xmlns="http://www.w3.org/2000/svg" xmlns:xlink="http://www.w3.org/1999/xlink" width="360pt" height="48pt" viewBox="0 0 360 48" version="1.1">
<defs>
<clipPath id="clip1">
  <path d="M 17 3 L 46 3 L 46 45 L 17 45 Z M 17 3 "/>
</clipPath>
<clipPath id="clip2">
  <path d="M 19 5 L 44 5 L 44 43 L 19 43 Z M 19 5 "/>
</clipPath>
<clipPath id="clip3">
  <path d="M 19 7 C 19 5.894531 19.894531 5 21 5 L 42 5 C 43.105469 5 44 5.894531 44 7 L 44 41 C 44 42.105469 43.105469 43 42 43 L 21 43 C 19.894531 43 19 42.105469 19 41 Z M 19 7 "/>
</clipPath>
<clipPath id="clip4">
  <path d="M 91 3 L 120 3 L 120 24 L 91 24 Z M 91 3 "/>
</clipPath>
<clipPath id="clip5">
  <path d="M 93 5 L 118 5 L 118 22 L 93 22 Z M 93 5 "/>
</clipPath>
<clipPath id="clip6">
  <path d="M 93 7 C 93 5.894531 93.894531 5 95 5 L 116 5 C 117.105469 5 118 5.894531 118 7 L 118 20 C 118 21.105469 117.105469 22 116 22 L 95 22 C 93.894531 22 93 21.105469 93 20 Z M 93 7 "/>
</clipPath>
<clipPath id="clip7">
  <path d="M 91 24 L 120 24 L 120 45 L 91 45 Z M 91 24 "/>
</clipPath>
<clipPath id="clip8">
  <path d="M 93 26 L 118 26 L 118 43 L 93 43 Z M 93 26 "/>
</clipPath>
<clipPath id="clip9">
  <path d="M 93 28 C 93 26.894531 93.894531 26 95 26 L 116 26 C 117.105469 26 118 26.894531 118 28 L 118 41 C 118 42.105469 117.105469 43 116 43 L 95 43 C 93.894531 43 93 42.105469 93 41 Z M 93 28 "/>
</clipPath>
<clipPath id="clip10">
  <path d="M 151 3 L 180 3 L 180 24 L 151 24 Z M 151 3 "/>
</clipPath>
<clipPath id="clip11">
  <path d="M 153 5 L 178 5 L 178 22 L 153 22 Z M 153 5 "/>
</clipPath>
<clipPath id="clip12">
  <path d="M 153 7 C 153 5.894531 153.894531 5 155 5 L 176 5 C 177.105469 5 178 5.894531 178 7 L 178 20 C 178 21.105469 177.105469 22 176 22 L 155 22 C 153.894531 22 153 21.105469 153 20 Z M 153 7 "/>
</clipPath>
<clipPath id="clip13">
  <path d="M 151 24 L 180 24 L 180 45 L 151 45 Z M 151 24 "/>
</clipPath>
<clipPath id="clip14">
  <path d="M 153 26 L 178 26 L 178 43 L 153 43 Z M 153 26 "/>
</clipPath>
<clipPath id="clip15">
  <path d="M 153 28 C 153 26.894531 153.894531 26 155 26 L 176 26 C 177.105469 26 178 26.894531 178 28 L 178 41 C 178 42.105469 177.105469 43 176 43 L 155 43 C 153.894531 43 153 42.105469 153 41 Z M 153 28 "/>
</clipPath>
<clipPath id="clip16">
  <path d="M 180 3 L 209 3 L 209 45 L 180 45 Z M 180 3 "/>
</clipPath>
<clipPath id="clip17">
  <path d="M 182 5 L 207 5 L 207 43 L 182 43 Z M 182 5 "/>
</clipPath>
<clipPath id="clip18">
  <path d="M 182 7 C 182 5.894531 182.894531 5 184 5 L 205 5 C 206.105469 5 207 5.894531 207 7 L 207 41 C 207 42.105469 206.105469 43 205 43 L 184 43 C 182.894531 43 182 42.105469 182 41 Z M 182 7 "/>
</clipPath>
<clipPath id="clip19">
  <path d="M 225 3 L 254 3 L 254 24 L 225 24 Z M 225 3 "/>
</clipPath>
<clipPath id="clip20">
  <path d="M 227 5 L 252 5 L 252 22 L 227 22 Z M 227 5 "/>
</clipPath>
<clipPath id="clip21">
  <path d="M 227 7 C 227 5.894531 227.894531 5 229 5 L 250 5 C 251.105469 5 252 5.894531 252 7 L 252 20 C 252 21.105469 251.105469 22 250 22 L 229 22 C 227.894531 22 227 21.105469 227 20 Z M 227 7 "/>
</clipPath>
<clipPath id="clip22">
  <path d="M 225 24 L 254 24 L 254 45 L 225 45 Z M 225 24 "/>
</clipPath>
<clipPath id="clip23">
  <path d="M 227 26 L 252 26 L 252 43 L 227 43 Z M 227 26 "/>
</clipPath>
<clipPath id="clip24">
  <path d="M 227 28 C 227 26.894531 227.894531 26 229 26 L 250 26 C 251.105469 26 252 26.894531 252 28 L 252 41 C 252 42.105469 251.105469 43 250 43 L 229 43 C 227.894531 43 227 42.105469 227 41 Z M 227 28 "/>
</clipPath>
<clipPath id="clip25">
  <path d="M 254 3 L 283 3 L 283 24 L 254 24 Z M 254 3 "/>
</clipPath>
<clipPath id="clip26">
  <path d="M 256 5 L 281 5 L 281 22 L 256 22 Z M 256 5 "/>
</clipPath>
<clipPath id="clip27">
  <path d="M 256 7 C 256 5.894531 256.894531 5 258 5 L 279 5 C 280.105469 5 281 5.894531 281 7 L 281 20 C 281 21.105469 280.105469 22 279 22 L 258 22 C 256.894531 22 256 21.105469 256 20 Z M 256 7 "/>
</clipPath>
<clipPath id="clip28">
  <path d="M 254 24 L 283 24 L 283 45 L 254 45 Z M 254 24 "/>
</clipPath>
<clipPath id="clip29">
  <path d="M 256 26 L 281 26 L 281 43 L 256 43 Z M 256 26 "/>
</clipPath>
<clipPath id="clip30">
  <path d="M 256 28 C 256 26.894531 256.894531 26 258 26 L 279 26 C 280.105469 26 281 26.894531 281 28 L 281 41 C 281 42.105469 280.105469 43 279 43 L 258 43 C 256.894531 43 256 42.105469 256 41 Z M 256 28 "/>
</clipPath>
<clipPath id="clip31">
  <path d="M 299 3 L 328 3 L 328 24 L 299 24 Z M 299 3 "/>
</clipPath>
<clipPath id="clip32">
  <path d="M 301 5 L 326 5 L 326 22 L 301 22 Z M 301 5 "/>
</clipPath>
<clipPath id="clip33">
  <path d="M 301 7 C 301 5.894531 301.894531 5 303 5 L 324 5 C 325.105469 5 326 5.894531 326 7 L 326 20 C 326 21.105469 325.105469 22 324 22 L 303 22 C 301.894531 22 301 21.105469 301 20 Z M 301 7 "/>
</clipPath>
<clipPath id="clip34">
  <path d="M 299 24 L 328 24 L 328 45 L 299 45 Z M 299 24 "/>
</clipPath>
<clipPath id="clip35">
  <path d="M 301 26 L 326 26 L 326 43 L 301 43 Z M 301 26 "/>
</clipPath>
<clipPath id="clip36">
  <path d="M 301 28 C 301 26.894531 301.894531 26 303 26 L 324 26 C 325.105469 26 326 26.894531 326 28 L 326 41 C 326 42.105469 325.105469 43 324 43 L 303 43 C 301.894531 43 301 42.105469 301 41 Z M 301 28 "/>
</clipPath>
<clipPath id="clip37">
  <path d="M 328 3 L 357 3 L 357 17 L 328 17 Z M 328 3 "/>
</clipPath>
<clipPath id="clip38">
  <path d="M 330 5 L 355 5 L 355 15 L 330 15 Z M 330 5 "/>
</clipPath>
<clipPath id="clip39">
  <path d="M 330 7 C 330 5.894531 330.894531 5 332 5 L 353 5 C 354.105469 5 355 5.894531 355 7 L 355 13 C 355 14.105469 354.105469 15 353 15 L 332 15 C 330.894531 15 330 14.105469 330 13 Z M 330 7 "/>
</clipPath>
<clipPath id="clip40">
  <path d="M 328 17 L 357 17 L 357 31 L 328 31 Z M 328 17 "/>
</clipPath>
<clipPath id="clip41">
  <path d="M 330 19 L 355 19 L 355 29 L 330 29 Z M 330 19 "/>
</clipPath>
<clipPath id="clip42">
  <path d="M 330 21 C 330 19.894531 330.894531 19 332 19 L 353 19 C 354.105469 19 355 19.894531 355 21 L 355 27 C 355 28.105469 354.105469 29 353 29 L 332 29 C 330.894531 29 330 28.105469 330 27 Z M 330 21 "/>
</clipPath>
<clipPath id="clip43">
  <path d="M 328 31 L 357 31 L 357 45 L 328 45 Z M 328 31 "/>
</clipPath>
<clipPath id="clip44">
  <path d="M 330 33 L 355 33 L 355 43 L 330 43 Z M 330 33 "/>
</clipPath>
<clipPath id="clip45">
  <path d="M 330 35 C 330 33.894531 330.894531 33 332 33 L 353 33 C 354.105469 33 355 33.894531 355 35 L 355 41 C 355 42.105469 354.105469 43 353 43 L 332 43 C 330.894531 43 330 42.105469 330 41 Z M 330 35 "/>
</clipPath>
</defs>
<g id="surface2">
<path style="fill:none;stroke-width:1.5;stroke-linecap:butt;stroke-linejoin:miter;stroke:rgb(0%,0%,0%);stroke-opacity:0.266667;stroke-dasharray:10,4;stroke-dashoffset:1;stroke-miterlimit:10;" d="M 0.75 0.75 L 63.25 0.75 L 63.25 47.25 L 0.75 47.25 Z M 0.75 0.75 "/>
<path style="fill:none;stroke-width:1.5;stroke-linecap:butt;stroke-linejoin:miter;stroke:rgb(0%,0%,0%);stroke-opacity:0.2;stroke-dasharray:10,4;stroke-dashoffset:1;stroke-miterlimit:10;" d="M 3 3 L 61 3 L 61 45 L 3 45 Z M 3 3 "/>
<path style="fill:none;stroke-width:1.5;stroke-linecap:butt;stroke-linejoin:miter;stroke:rgb(0%,0%,0%);stroke-opacity:0.266667;stroke-dasharray:10,4;stroke-dashoffset:1;stroke-miterlimit:10;" d="M 74.75 0.75 L 137.25 0.75 L 137.25 47.25 L 74.75 47.25 Z M 74.75 0.75 "/>
<path style="fill:none;stroke-width:1.5;stroke-linecap:butt;stroke-linejoin:miter;stroke:rgb(0%,0%,0%);stroke-opacity:0.2;stroke-dasharray:10,4;stroke-dashoffset:1;stroke-miterlimit:10;" d="M 77 3 L 135 3 L 135 45 L 77 45 Z M 77 3 "/>
<path style="fill:none;stroke-width:1.5;stroke-linecap:butt;stroke-linejoin:miter;stroke:rgb(0%,0%,0%);stroke-opacity:0.266667;stroke-dasharray:10,4;stroke-dashoffset:1;stroke-miterlimit:10;" d="M 148.75 0.75 L 211.25 0.75 L 211.25 47.25 L 148.75 47.25 Z M 148.75 0.75 "/>
<path style="fill:none;stroke-width:1.5;stroke-linecap:butt;stroke-linejoin:miter;stroke:rgb(0%,0%,0%);stroke-opacity:0.2;stroke-dasharray:10,4;stroke-dashoffset:1;stroke-miterlimit:10;" d="M 151 3 L 209 3 L 209 45 L 151 45 Z M 151 3 "/>
<path style="fill:none;stroke-width:1.5;stroke-linecap:butt;stroke-linejoin:miter;stroke:rgb(0%,0%,0%);stroke-opacity:0.266667;stroke-dasharray:10,4;stroke-dashoffset:1;stroke-miterlimit:10;" d="M 222.75 0.75 L 285.25 0.75 L 285.25 47.25 L 222.75 47.25 Z M 222.75 0.75 "/>
<path style="fill:none;stroke-width:1.5;stroke-linecap:butt;stroke-linejoin:miter;stroke:rgb(0%,0%,0%);stroke-opacity:0.2;stroke-dasharray:10,4;stroke-dashoffset:1;stroke-miterlimit:10;" d="M 225 3 L 283 3 L 283 45 L 225 45 Z M 225 3 "/>
<path style="fill:none;stroke-width:1.5;stroke-linecap:butt;stroke-linejoin:miter;stroke:rgb(0%,0%,0%);stroke-opacity:0.266667;stroke-dasharray:10,4;stroke-dashoffset:1;stroke-miterlimit:10;" d="M 296.75 0.75 L 359.25 0.75 L 359.25 47.25 L 296.75 47.25 Z M 296.75 0.75 "/>
<path style="fill:none;stroke-width:1.5;stroke-linecap:butt;stroke-linejoin:miter;stroke:rgb(0%,0%,0%);stroke-opacity:0.2;stroke-dasharray:10,4;stroke-dashoffset:1;stroke-miterlimit:10;" d="M 299 3 L 357 3 L 357 45 L 299 45 Z M 299 3 "/>
<g clip-path="url(#clip1)" clip-rule="nonzero">
<path style="fill:none;stroke-width:2;stroke-linecap:butt;stroke-linejoin:miter;stroke:rgb(38.039216%,50.588235%,100%);stroke-opacity:1;stroke-miterlimit:10;" d="M 0 2 C 0 0.894531 0.894531 0 2 0 L 23 0 C 24.105469 0 25 0.894531 25 2 L 25 36 C 25 37.105469 24.105469 38 23 38 L 2 38 C 0.894531 38 0 37.105469 0 36 Z M 0 2 " transform="matrix(1,0,0,1,19,5)"/>
</g>
<path style=" stroke:none;fill-rule:nonzero;fill:rgb(38.039216%,50.588235%,100%);fill-opacity:0.490196;" d="M 19 7 C 19 5.894531 19.894531 5 21 5 L 42 5 C 43.105469 5 44 5.894531 44 7 L 44 41 C 44 42.105469 43.105469 43 42 43 L 21 43 C 19.894531 43 19 42.105469 19 41 Z M 19 7 "/>
<g clip-path="url(#clip2)" clip-rule="nonzero">
<g clip-path="url(#clip3)" clip-rule="nonzero">
<path style="fill:none;stroke-width:2;stroke-linecap:butt;stroke-linejoin:miter;stroke:rgb(38.039216%,50.588235%,100%);stroke-opacity:1;stroke-miterlimit:10;" d="M 0 2 C 0 0.894531 0.894531 0 2 0 L 23 0 C 24.105469 0 25 0.894531 25 2 L 25 36 C 25 37.105469 24.105469 38 23 38 L 2 38 C 0.894531 38 0 37.105469 0 36 Z M 0 2 " transform="matrix(1,0,0,1,19,5)"/>
</g>
</g>
<g clip-path="url(#clip4)" clip-rule="nonzero">
<path style="fill:none;stroke-width:2;stroke-linecap:butt;stroke-linejoin:miter;stroke:rgb(38.039216%,50.588235%,100%);stroke-opacity:1;stroke-miterlimit:10;" d="M 0 2 C 0 0.894531 0.894531 0 2 0 L 23 0 C 24.105469 0 25 0.894531 25 2 L 25 15 C 25 16.105469 24.105469 17 23 17 L 2 17 C 0.894531 17 0 16.105469 0 15 Z M 0 2 " transform="matrix(1,0,0,1,93,5)"/>
</g>
<path style=" stroke:none;fill-rule:nonzero;fill:rgb(38.039216%,50.588235%,100%);fill-opacity:0.490196;" d="M 93 7 C 93 5.894531 93.894531 5 95 5 L 116 5 C 117.105469 5 118 5.894531 118 7 L 118 20 C 118 21.105469 117.105469 22 116 22 L 95 22 C 93.894531 22 93 21.105469 93 20 Z M 93 7 "/>
<g clip-path="url(#clip5)" clip-rule="nonzero">
<g clip-path="url(#clip6)" clip-rule="nonzero">
<path style="fill:none;stroke-width:2;stroke-linecap:butt;stroke-linejoin:miter;stroke:rgb(38.039216%,50.588235%,100%);stroke-opacity:1;stroke-miterlimit:10;" d="M 0 2 C 0 0.894531 0.894531 0 2 0 L 23 0 C 24.105469 0 25 0.894531 25 2 L 25 15 C 25 16.105469 24.105469 17 23 17 L 2 17 C 0.894531 17 0 16.105469 0 15 Z M 0 2 " transform="matrix(1,0,0,1,93,5)"/>
</g>
</g>
<g clip-path="url(#clip7)" clip-rule="nonzero">
<path style="fill:none;stroke-width:2;stroke-linecap:butt;stroke-linejoin:miter;stroke:rgb(38.039216%,50.588235%,100%);stroke-opacity:1;stroke-miterlimit:10;" d="M 0 2 C 0 0.894531 0.894531 0 2 0 L 23 0 C 24.105469 0 25 0.894531 25 2 L 25 15 C 25 16.105469 24.105469 17 23 17 L 2 17 C 0.894531 17 0 16.105469 0 15 Z M 0 2 " transform="matrix(1,0,0,1,93,26)"/>
</g>
<path style=" stroke:none;fill-rule:nonzero;fill:rgb(38.039216%,50.588235%,100%);fill-opacity:0.490196;" d="M 93 28 C 93 26.894531 93.894531 26 95 26 L 116 26 C 117.105469 26 118 26.894531 118 28 L 118 41 C 118 42.105469 117.105469 43 116 43 L 95 43 C 93.894531 43 93 42.105469 93 41 Z M 93 28 "/>
<g clip-path="url(#clip8)" clip-rule="nonzero">
<g clip-path="url(#clip9)" clip-rule="nonzero">
<path style="fill:none;stroke-width:2;stroke-linecap:butt;stroke-linejoin:miter;stroke:rgb(38.039216%,50.588235%,100%);stroke-opacity:1;stroke-miterlimit:10;" d="M 0 2 C 0 0.894531 0.894531 0 2 0 L 23 0 C 24.105469 0 25 0.894531 25 2 L 25 15 C 25 16.105469 24.105469 17 23 17 L 2 17 C 0.894531 17 0 16.105469 0 15 Z M 0 2 " transform="matrix(1,0,0,1,93,26)"/>
</g>
</g>
<g clip-path="url(#clip10)" clip-rule="nonzero">
<path style="fill:none;stroke-width:2;stroke-linecap:butt;stroke-linejoin:miter;stroke:rgb(38.039216%,50.588235%,100%);stroke-opacity:1;stroke-miterlimit:10;" d="M 0 2 C 0 0.894531 0.894531 0 2 0 L 23 0 C 24.105469 0 25 0.894531 25 2 L 25 15 C 25 16.105469 24.105469 17 23 17 L 2 17 C 0.894531 17 0 16.105469 0 15 Z M 0 2 " transform="matrix(1,0,0,1,153,5)"/>
</g>
<path style=" stroke:none;fill-rule:nonzero;fill:rgb(38.039216%,50.588235%,100%);fill-opacity:0.490196;" d="M 153 7 C 153 5.894531 153.894531 5 155 5 L 176 5 C 177.105469 5 178 5.894531 178 7 L 178 20 C 178 21.105469 177.105469 22 176 22 L 155 22 C 153.894531 22 153 21.105469 153 20 Z M 153 7 "/>
<g clip-path="url(#clip11)" clip-rule="nonzero">
<g clip-path="url(#clip12)" clip-rule="nonzero">
<path style="fill:none;stroke-width:2;stroke-linecap:butt;stroke-linejoin:miter;stroke:rgb(38.039216%,50.588235%,100%);stroke-opacity:1;stroke-miterlimit:10;" d="M 0 2 C 0 0.894531 0.894531 0 2 0 L 23 0 C 24.105469 0 25 0.894531 25 2 L 25 15 C 25 16.105469 24.105469 17 23 17 L 2 17 C 0.894531 17 0 16.105469 0 15 Z M 0 2 " transform="matrix(1,0,0,1,153,5)"/>
</g>
</g>
<g clip-path="url(#clip13)" clip-rule="nonzero">
<path style="fill:none;stroke-width:2;stroke-linecap:butt;stroke-linejoin:miter;stroke:rgb(38.039216%,50.588235%,100%);stroke-opacity:1;stroke-miterlimit:10;" d="M 0 2 C 0 0.894531 0.894531 0 2 0 L 23 0 C 24.105469 0 25 0.894531 25 2 L 25 15 C 25 16.105469 24.105469 17 23 17 L 2 17 C 0.894531 17 0 16.105469 0 15 Z M 0 2 " transform="matrix(1,0,0,1,153,26)"/>
</g>
<path style=" stroke:none;fill-rule:nonzero;fill:rgb(38.039216%,50.588235%,100%);fill-opacity:0.490196;" d="M 153 28 C 153 26.894531 153.894531 26 155 26 L 176 26 C 177.105469 26 178 26.894531 178 28 L 178 41 C 178 42.105469 177.105469 43 176 43 L 155 43 C 153.894531 43 153 42.105469 153 41 Z M 153 28 "/>
<g clip-path="url(#clip14)" clip-rule="nonzero">
<g clip-path="url(#clip15)" clip-rule="nonzero">
<path style="fill:none;stroke-width:2;stroke-linecap:butt;stroke-linejoin:miter;stroke:rgb(38.039216%,50.588235%,100%);stroke-opacity:1;stroke-miterlimit:10;" d="M 0 2 C 0 0.894531 0.894531 0 2 0 L 23 0 C 24.105469 0 25 0.894531 25 2 L 25 15 C 25 16.105469 24.105469 17 23 17 L 2 17 C 0.894531 17 0 16.105469 0 15 Z M 0 2 " transform="matrix(1,0,0,1,153,26)"/>
</g>
</g>
<g clip-path="url(#clip16)" clip-rule="nonzero">
<path style="fill:none;stroke-width:2;stroke-linecap:butt;stroke-linejoin:miter;stroke:rgb(38.039216%,50.588235%,100%);stroke-opacity:1;stroke-miterlimit:10;" d="M 0 2 C 0 0.894531 0.894531 0 2 0 L 23 0 C 24.105469 0 25 0.894531 25 2 L 25 36 C 25 37.105469 24.105469 38 23 38 L 2 38 C 0.894531 38 0 37.105469 0 36 Z M 0 2 " transform="matrix(1,0,0,1,182,5)"/>
</g>
<path style=" stroke:none;fill-rule:nonzero;fill:rgb(38.039216%,50.588235%,100%);fill-opacity:0.490196;" d="M 182 7 C 182 5.894531 182.894531 5 184 5 L 205 5 C 206.105469 5 207 5.894531 207 7 L 207 41 C 207 42.105469 206.105469 43 205 43 L 184 43 C 182.894531 43 182 42.105469 182 41 Z M 182 7 "/>
<g clip-path="url(#clip17)" clip-rule="nonzero">
<g clip-path="url(#clip18)" clip-rule="nonzero">
<path style="fill:none;stroke-width:2;stroke-linecap:butt;stroke-linejoin:miter;stroke:rgb(38.039216%,50.588235%,100%);stroke-opacity:1;stroke-miterlimit:10;" d="M 0 2 C 0 0.894531 0.894531 0 2 0 L 23 0 C 24.105469 0 25 0.894531 25 2 L 25 36 C 25 37.105469 24.105469 38 23 38 L 2 38 C 0.894531 38 0 37.105469 0 36 Z M 0 2 " transform="matrix(1,0,0,1,182,5)"/>
</g>
</g>
<g clip-path="url(#clip19)" clip-rule="nonzero">
<path style="fill:none;stroke-width:2;stroke-linecap:butt;stroke-linejoin:miter;stroke:rgb(38.039216%,50.588235%,100%);stroke-opacity:1;stroke-miterlimit:10;" d="M 0 2 C 0 0.894531 0.894531 0 2 0 L 23 0 C 24.105469 0 25 0.894531 25 2 L 25 15 C 25 16.105469 24.105469 17 23 17 L 2 17 C 0.894531 17 0 16.105469 0 15 Z M 0 2 " transform="matrix(1,0,0,1,227,5)"/>
</g>
<path style=" stroke:none;fill-rule:nonzero;fill:rgb(38.039216%,50.588235%,100%);fill-opacity:0.490196;" d="M 227 7 C 227 5.894531 227.894531 5 229 5 L 250 5 C 251.105469 5 252 5.894531 252 7 L 252 20 C 252 21.105469 251.105469 22 250 22 L 229 22 C 227.894531 22 227 21.105469 227 20 Z M 227 7 "/>
<g clip-path="url(#clip20)" clip-rule="nonzero">
<g clip-path="url(#clip21)" clip-rule="nonzero">
<path style="fill:none;stroke-width:2;stroke-linecap:butt;stroke-linejoin:miter;stroke:rgb(38.039216%,50.588235%,100%);stroke-opacity:1;stroke-miterlimit:10;" d="M 0 2 C 0 0.894531 0.894531 0 2 0 L 23 0 C 24.105469 0 25 0.894531 25 2 L 25 15 C 25 16.105469 24.105469 17 23 17 L 2 17 C 0.894531 17 0 16.105469 0 15 Z M 0 2 " transform="matrix(1,0,0,1,227,5)"/>
</g>
</g>
<g clip-path="url(#clip22)" clip-rule="nonzero">
<path style="fill:none;stroke-width:2;stroke-linecap:butt;stroke-linejoin:miter;stroke:rgb(38.039216%,50.588235%,100%);stroke-opacity:1;stroke-miterlimit:10;" d="M 0 2 C 0 0.894531 0.894531 0 2 0 L 23 0 C 24.105469 0 25 0.894531 25 2 L 25 15 C 25 16.105469 24.105469 17 23 17 L 2 17 C 0.894531 17 0 16.105469 0 15 Z M 0 2 " transform="matrix(1,0,0,1,227,26)"/>
</g>
<path style=" stroke:none;fill-rule:nonzero;fill:rgb(38.039216%,50.588235%,100%);fill-opacity:0.490196;" d="M 227 28 C 227 26.894531 227.894531 26 229 26 L 250 26 C 251.105469 26 252 26.894531 252 28 L 252 41 C 252 42.105469 251.105469 43 250 43 L 229 43 C 227.894531 43 227 42.105469 227 41 Z M 227 28 "/>
<g clip-path="url(#clip23)" clip-rule="nonzero">
<g clip-path="url(#clip24)" clip-rule="nonzero">
<path style="fill:none;stroke-width:2;stroke-linecap:butt;stroke-linejoin:miter;stroke:rgb(38.039216%,50.588235%,100%);stroke-opacity:1;stroke-miterlimit:10;" d="M 0 2 C 0 0.894531 0.894531 0 2 0 L 23 0 C 24.105469 0 25 0.894531 25 2 L 25 15 C 25 16.105469 24.105469 17 23 17 L 2 17 C 0.894531 17 0 16.105469 0 15 Z M 0 2 " transform="matrix(1,0,0,1,227,26)"/>
</g>
</g>
<g clip-path="url(#clip25)" clip-rule="nonzero">
<path style="fill:none;stroke-width:2;stroke-linecap:butt;stroke-linejoin:miter;stroke:rgb(38.039216%,50.588235%,100%);stroke-opacity:1;stroke-miterlimit:10;" d="M 0 2 C 0 0.894531 0.894531 0 2 0 L 23 0 C 24.105469 0 25 0.894531 25 2 L 25 15 C 25 16.105469 24.105469 17 23 17 L 2 17 C 0.894531 17 0 16.105469 0 15 Z M 0 2 " transform="matrix(1,0,0,1,256,5)"/>
</g>
<path style=" stroke:none;fill-rule:nonzero;fill:rgb(38.039216%,50.588235%,100%);fill-opacity:0.490196;" d="M 256 7 C 256 5.894531 256.894531 5 258 5 L 279 5 C 280.105469 5 281 5.894531 281 7 L 281 20 C 281 21.105469 280.105469 22 279 22 L 258 22 C 256.894531 22 256 21.105469 256 20 Z M 256 7 "/>
<g clip-path="url(#clip26)" clip-rule="nonzero">
<g clip-path="url(#clip27)" clip-rule="nonzero">
<path style="fill:none;stroke-width:2;stroke-linecap:butt;stroke-linejoin:miter;stroke:rgb(38.039216%,50.588235%,100%);stroke-opacity:1;stroke-miterlimit:10;" d="M 0 2 C 0 0.894531 0.894531 0 2 0 L 23 0 C 24.105469 0 25 0.894531 25 2 L 25 15 C 25 16.105469 24.105469 17 23 17 L 2 17 C 0.894531 17 0 16.105469 0 15 Z M 0 2 " transform="matrix(1,0,0,1,256,5)"/>
</g>
</g>
<g clip-path="url(#clip28)" clip-rule="nonzero">
<path style="fill:none;stroke-width:2;stroke-linecap:butt;stroke-linejoin:miter;stroke:rgb(38.039216%,50.588235%,100%);stroke-opacity:1;stroke-miterlimit:10;" d="M 0 2 C 0 0.894531 0.894531 0 2 0 L 23 0 C 24.105469 0 25 0.894531 25 2 L 25 15 C 25 16.105469 24.105469 17 23 17 L 2 17 C 0.894531 17 0 16.105469 0 15 Z M 0 2 " transform="matrix(1,0,0,1,256,26)"/>
</g>
<path style=" stroke:none;fill-rule:nonzero;fill:rgb(38.039216%,50.588235%,100%);fill-opacity:0.490196;" d="M 256 28 C 256 26.894531 256.894531 26 258 26 L 279 26 C 280.105469 26 281 26.894531 281 28 L 281 41 C 281 42.105469 280.105469 43 279 43 L 258 43 C 256.894531 43 256 42.105469 256 41 Z M 256 28 "/>
<g clip-path="url(#clip29)" clip-rule="nonzero">
<g clip-path="url(#clip30)" clip-rule="nonzero">
<path style="fill:none;stroke-width:2;stroke-linecap:butt;stroke-linejoin:miter;stroke:rgb(38.039216%,50.588235%,100%);stroke-opacity:1;stroke-miterlimit:10;" d="M 0 2 C 0 0.894531 0.894531 0 2 0 L 23 0 C 24.105469 0 25 0.894531 25 2 L 25 15 C 25 16.105469 24.105469 17 23 17 L 2 17 C 0.894531 17 0 16.105469 0 15 Z M 0 2 " transform="matrix(1,0,0,1,256,26)"/>
</g>
</g>
<g clip-path="url(#clip31)" clip-rule="nonzero">
<path style="fill:none;stroke-width:2;stroke-linecap:butt;stroke-linejoin:miter;stroke:rgb(38.039216%,50.588235%,100%);stroke-opacity:1;stroke-miterlimit:10;" d="M 0 2 C 0 0.894531 0.894531 0 2 0 L 23 0 C 24.105469 0 25 0.894531 25 2 L 25 15 C 25 16.105469 24.105469 17 23 17 L 2 17 C 0.894531 17 0 16.105469 0 15 Z M 0 2 " transform="matrix(1,0,0,1,301,5)"/>
</g>
<path style=" stroke:none;fill-rule:nonzero;fill:rgb(38.039216%,50.588235%,100%);fill-opacity:0.490196;" d="M 301 7 C 301 5.894531 301.894531 5 303 5 L 324 5 C 325.105469 5 326 5.894531 326 7 L 326 20 C 326 21.105469 325.105469 22 324 22 L 303 22 C 301.894531 22 301 21.105469 301 20 Z M 301 7 "/>
<g clip-path="url(#clip32)" clip-rule="nonzero">
<g clip-path="url(#clip33)" clip-rule="nonzero">
<path style="fill:none;stroke-width:2;stroke-linecap:butt;stroke-linejoin:miter;stroke:rgb(38.039216%,50.588235%,100%);stroke-opacity:1;stroke-miterlimit:10;" d="M 0 2 C 0 0.894531 0.894531 0 2 0 L 23 0 C 24.105469 0 25 0.894531 25 2 L 25 15 C 25 16.105469 24.105469 17 23 17 L 2 17 C 0.894531 17 0 16.105469 0 15 Z M 0 2 " transform="matrix(1,0,0,1,301,5)"/>
</g>
</g>
<g clip-path="url(#clip34)" clip-rule="nonzero">
<path style="fill:none;stroke-width:2;stroke-linecap:butt;stroke-linejoin:miter;stroke:rgb(38.039216%,50.588235%,100%);stroke-opacity:1;stroke-miterlimit:10;" d="M 0 2 C 0 0.894531 0.894531 0 2 0 L 23 0 C 24.105469 0 25 0.894531 25 2 L 25 15 C 25 16.105469 24.105469 17 23 17 L 2 17 C 0.894531 17 0 16.105469 0 15 Z M 0 2 " transform="matrix(1,0,0,1,301,26)"/>
</g>
<path style=" stroke:none;fill-rule:nonzero;fill:rgb(38.039216%,50.588235%,100%);fill-opacity:0.490196;" d="M 301 28 C 301 26.894531 301.894531 26 303 26 L 324 26 C 325.105469 26 326 26.894531 326 28 L 326 41 C 326 42.105469 325.105469 43 324 43 L 303 43 C 301.894531 43 301 42.105469 301 41 Z M 301 28 "/>
<g clip-path="url(#clip35)" clip-rule="nonzero">
<g clip-path="url(#clip36)" clip-rule="nonzero">
<path style="fill:none;stroke-width:2;stroke-linecap:butt;stroke-linejoin:miter;stroke:rgb(38.039216%,50.588235%,100%);stroke-opacity:1;stroke-miterlimit:10;" d="M 0 2 C 0 0.894531 0.894531 0 2 0 L 23 0 C 24.105469 0 25 0.894531 25 2 L 25 15 C 25 16.105469 24.105469 17 23 17 L 2 17 C 0.894531 17 0 16.105469 0 15 Z M 0 2 " transform="matrix(1,0,0,1,301,26)"/>
</g>
</g>
<g clip-path="url(#clip37)" clip-rule="nonzero">
<path style="fill:none;stroke-width:2;stroke-linecap:butt;stroke-linejoin:miter;stroke:rgb(38.039216%,50.588235%,100%);stroke-opacity:1;stroke-miterlimit:10;" d="M 0 2 C 0 0.894531 0.894531 0 2 0 L 23 0 C 24.105469 0 25 0.894531 25 2 L 25 8 C 25 9.105469 24.105469 10 23 10 L 2 10 C 0.894531 10 0 9.105469 0 8 Z M 0 2 " transform="matrix(1,0,0,1,330,5)"/>
</g>
<path style=" stroke:none;fill-rule:nonzero;fill:rgb(38.039216%,50.588235%,100%);fill-opacity:0.490196;" d="M 330 7 C 330 5.894531 330.894531 5 332 5 L 353 5 C 354.105469 5 355 5.894531 355 7 L 355 13 C 355 14.105469 354.105469 15 353 15 L 332 15 C 330.894531 15 330 14.105469 330 13 Z M 330 7 "/>
<g clip-path="url(#clip38)" clip-rule="nonzero">
<g clip-path="url(#clip39)" clip-rule="nonzero">
<path style="fill:none;stroke-width:2;stroke-linecap:butt;stroke-linejoin:miter;stroke:rgb(38.039216%,50.588235%,100%);stroke-opacity:1;stroke-miterlimit:10;" d="M 0 2 C 0 0.894531 0.894531 0 2 0 L 23 0 C 24.105469 0 25 0.894531 25 2 L 25 8 C 25 9.105469 24.105469 10 23 10 L 2 10 C 0.894531 10 0 9.105469 0 8 Z M 0 2 " transform="matrix(1,0,0,1,330,5)"/>
</g>
</g>
<g clip-path="url(#clip40)" clip-rule="nonzero">
<path style="fill:none;stroke-width:2;stroke-linecap:butt;stroke-linejoin:miter;stroke:rgb(38.039216%,50.588235%,100%);stroke-opacity:1;stroke-miterlimit:10;" d="M 0 2 C 0 0.894531 0.894531 0 2 0 L 23 0 C 24.105469 0 25 0.894531 25 2 L 25 8 C 25 9.105469 24.105469 10 23 10 L 2 10 C 0.894531 10 0 9.105469 0 8 Z M 0 2 " transform="matrix(1,0,0,1,330,19)"/>
</g>
<path style=" stroke:none;fill-rule:nonzero;fill:rgb(38.039216%,50.588235%,100%);fill-opacity:0.490196;" d="M 330 21 C 330 19.894531 330.894531 19 332 19 L 353 19 C 354.105469 19 355 19.894531 355 21 L 355 27 C 355 28.105469 354.105469 29 353 29 L 332 29 C 330.894531 29 330 28.105469 330 27 Z M 330 21 "/>
<g clip-path="url(#clip41)" clip-rule="nonzero">
<g clip-path="url(#clip42)" clip-rule="nonzero">
<path style="fill:none;stroke-width:2;stroke-linecap:butt;stroke-linejoin:miter;stroke:rgb(38.039216%,50.588235%,100%);stroke-opacity:1;stroke-miterlimit:10;" d="M 0 2 C 0 0.894531 0.894531 0 2 0 L 23 0 C 24.105469 0 25 0.894531 25 2 L 25 8 C 25 9.105469 24.105469 10 23 10 L 2 10 C 0.894531 10 0 9.105469 0 8 Z M 0 2 " transform="matrix(1,0,0,1,330,19)"/>
</g>
</g>
<g clip-path="url(#clip43)" clip-rule="nonzero">
<path style="fill:none;stroke-width:2;stroke-linecap:butt;stroke-linejoin:miter;stroke:rgb(38.039216%,50.588235%,100%);stroke-opacity:1;stroke-miterlimit:10;" d="M 0 2 C 0 0.894531 0.894531 0 2 0 L 23 0 C 24.105469 0 25 0.894531 25 2 L 25 8 C 25 9.105469 24.105469 10 23 10 L 2 10 C 0.894531 10 0 9.105469 0 8 Z M 0 2 " transform="matrix(1,0,0,1,330,33)"/>
</g>
<path style=" stroke:none;fill-rule:nonzero;fill:rgb(38.039216%,50.588235%,100%);fill-opacity:0.490196;" d="M 330 35 C 330 33.894531 330.894531 33 332 33 L 353 33 C 354.105469 33 355 33.894531 355 35 L 355 41 C 355 42.105469 354.105469 43 353 43 L 332 43 C 330.894531 43 330 42.105469 330 41 Z M 330 35 "/>
<g clip-path="url(#clip44)" clip-rule="nonzero">
<g clip-path="url(#clip45)" clip-rule="nonzero">
<path style="fill:none;stroke-width:2;stroke-linecap:butt;stroke-linejoin:miter;stroke:rgb(38.039216%,50.588235%,100%);stroke-opacity:1;stroke-miterlimit:10;" d="M 0 2 C 0 0.894531 0.894531 0 2 0 L 23 0 C 24.105469 0 25 0.894531 25 2 L 25 8 C 25 9.105469 24.105469 10 23 10 L 2 10 C 0.894531 10 0 9.105469 0 8 Z M 0 2 " transform="matrix(1,0,0,1,330,33)"/>
</g>
</g>
</g>
</svg>
