<?xml version="1.0" encoding="UTF-8"?>
<svg xmlns="http://www.w3.org/2000/svg" xmlns:xlink="http://www.w3.org/1999/xlink" width="542pt" height="96pt" viewBox="0 0 542 96" version="1.1">
<g id="surface2">
<path style="fill:none;stroke-width:1.5;stroke-linecap:butt;stroke-linejoin:miter;stroke:rgb(0%,0%,0%);stroke-opacity:0.266667;stroke-dasharray:10,4;stroke-dashoffset:1;stroke-miterlimit:10;" d="M 0.75 0.75 L 127.25 0.75 L 127.25 95.25 L 0.75 95.25 Z M 0.75 0.75 "/>
<path style="fill:none;stroke-width:1.5;stroke-linecap:butt;stroke-linejoin:miter;stroke:rgb(0%,0%,0%);stroke-opacity:0.2;stroke-dasharray:10,4;stroke-dashoffset:1;stroke-miterlimit:10;" d="M 10 10 L 118 10 L 118 86 L 10 86 Z M 10 10 "/>
<path style="fill:none;stroke-width:1.5;stroke-linecap:butt;stroke-linejoin:miter;stroke:rgb(0%,0%,0%);stroke-opacity:0.266667;stroke-dasharray:10,4;stroke-dashoffset:1;stroke-miterlimit:10;" d="M 138.75 0.75 L 265.25 0.75 L 265.25 95.25 L 138.75 95.25 Z M 138.75 0.75 "/>
<path style="fill:none;stroke-width:1.5;stroke-linecap:butt;stroke-linejoin:miter;stroke:rgb(0%,0%,0%);stroke-opacity:0.2;stroke-dasharray:10,4;stroke-dashoffset:1;stroke-miterlimit:10;" d="M 148 10 L 256 10 L 256 86 L 148 86 Z M 148 10 "/>
<path style="fill:none;stroke-width:1.5;stroke-linecap:butt;stroke-linejoin:miter;stroke:rgb(0%,0%,0%);stroke-opacity:0.266667;stroke-dasharray:10,4;stroke-dashoffset:1;stroke-miterlimit:10;" d="M 276.75 0.75 L 403.25 0.75 L 403.25 95.25 L 276.75 95.25 Z M 276.75 0.75 "/>
<path style="fill:none;stroke-width:1.5;stroke-linecap:butt;stroke-linejoin:miter;stroke:rgb(0%,0%,0%);stroke-opacity:0.2;stroke-dasharray:10,4;stroke-dashoffset:1;stroke-miterlimit:10;" d="M 286 10 L 394 10 L 394 86 L 286 86 Z M 286 10 "/>
<path style="fill:none;stroke-width:1.5;stroke-linecap:butt;stroke-linejoin:miter;stroke:rgb(0%,0%,0%);stroke-opacity:0.266667;stroke-dasharray:10,4;stroke-dashoffset:1;stroke-miterlimit:10;" d="M 414.75 0.75 L 541.25 0.75 L 541.25 95.25 L 414.75 95.25 Z M 414.75 0.75 "/>
<path style="fill:none;stroke-width:1.5;stroke-linecap:butt;stroke-linejoin:miter;stroke:rgb(0%,0%,0%);stroke-opacity:0.2;stroke-dasharray:10,4;stroke-dashoffset:1;stroke-miterlimit:10;" d="M 424 10 L 532 10 L 532 86 L 424 86 Z M 424 10 "/>
<path style="fill:none;stroke-width:1.5;stroke-linecap:butt;stroke-linejoin:miter;stroke:rgb(38.039216%,50.588235%,100%);stroke-opacity:1;stroke-miterlimit:10;" d="M 0 5 C 0 2.238281 2.238281 0 5 0 L 45 0 C 47.761719 0 50 2.238281 50 5 L 50 29 C 50 31.761719 47.761719 34 45 34 L 5 34 C 2.238281 34 0 31.761719 0 29 Z M 0 5 " transform="matrix(1,0,0,1,64,48)"/>
<path style=" stroke:none;fill-rule:nonzero;fill:rgb(38.039216%,50.588235%,100%);fill-opacity:0.490196;" d="M 64 53 C 64 50.238281 66.238281 48 69 48 L 109 48 C 111.761719 48 114 50.238281 114 53 L 114 77 C 114 79.761719 111.761719 82 109 82 L 69 82 C 66.238281 82 64 79.761719 64 77 Z M 64 53 "/>
<path style="fill:none;stroke-width:1.5;stroke-linecap:butt;stroke-linejoin:miter;stroke:rgb(38.039216%,50.588235%,100%);stroke-opacity:1;stroke-miterlimit:10;" d="M 0 5 C 0 2.238281 2.238281 0 5 0 L 45 0 C 47.761719 0 50 2.238281 50 5 L 50 29 C 50 31.761719 47.761719 34 45 34 L 5 34 C 2.238281 34 0 31.761719 0 29 Z M 0 5 " transform="matrix(1,0,0,1,64,12)"/>
<path style=" stroke:none;fill-rule:nonzero;fill:rgb(38.039216%,50.588235%,100%);fill-opacity:0.490196;" d="M 64 17 C 64 14.238281 66.238281 12 69 12 L 109 12 C 111.761719 12 114 14.238281 114 17 L 114 41 C 114 43.761719 111.761719 46 109 46 L 69 46 C 66.238281 46 64 43.761719 64 41 Z M 64 17 "/>
<path style="fill:none;stroke-width:1.5;stroke-linecap:butt;stroke-linejoin:miter;stroke:rgb(38.039216%,50.588235%,100%);stroke-opacity:1;stroke-miterlimit:10;" d="M 0 5 C 0 2.238281 2.238281 0 5 0 L 45 0 C 47.761719 0 50 2.238281 50 5 L 50 65 C 50 67.761719 47.761719 70 45 70 L 5 70 C 2.238281 70 0 67.761719 0 65 Z M 0 5 " transform="matrix(1,0,0,1,12,12)"/>
<path style=" stroke:none;fill-rule:nonzero;fill:rgb(38.039216%,50.588235%,100%);fill-opacity:0.490196;" d="M 12 17 C 12 14.238281 14.238281 12 17 12 L 57 12 C 59.761719 12 62 14.238281 62 17 L 62 77 C 62 79.761719 59.761719 82 57 82 L 17 82 C 14.238281 82 12 79.761719 12 77 Z M 12 17 "/>
<path style="fill:none;stroke-width:1.5;stroke-linecap:butt;stroke-linejoin:miter;stroke:rgb(38.039216%,50.588235%,100%);stroke-opacity:1;stroke-miterlimit:10;" d="M 0 5 C 0 2.238281 2.238281 0 5 0 L 43 0 C 45.761719 0 48 2.238281 48 5 L 48 27 C 48 29.761719 45.761719 32 43 32 L 5 32 C 2.238281 32 0 29.761719 0 27 Z M 0 5 " transform="matrix(1,0,0,1,202,48)"/>
<path style=" stroke:none;fill-rule:nonzero;fill:rgb(38.039216%,50.588235%,100%);fill-opacity:0.490196;" d="M 202 53 C 202 50.238281 204.238281 48 207 48 L 245 48 C 247.761719 48 250 50.238281 250 53 L 250 75 C 250 77.761719 247.761719 80 245 80 L 207 80 C 204.238281 80 202 77.761719 202 75 Z M 202 53 "/>
<path style="fill:none;stroke-width:1.5;stroke-linecap:butt;stroke-linejoin:miter;stroke:rgb(38.039216%,50.588235%,100%);stroke-opacity:1;stroke-miterlimit:10;" d="M 0 5 C 0 2.238281 2.238281 0 5 0 L 43 0 C 45.761719 0 48 2.238281 48 5 L 48 27 C 48 29.761719 45.761719 32 43 32 L 5 32 C 2.238281 32 0 29.761719 0 27 Z M 0 5 " transform="matrix(1,0,0,1,202,14)"/>
<path style=" stroke:none;fill-rule:nonzero;fill:rgb(38.039216%,50.588235%,100%);fill-opacity:0.490196;" d="M 202 19 C 202 16.238281 204.238281 14 207 14 L 245 14 C 247.761719 14 250 16.238281 250 19 L 250 41 C 250 43.761719 247.761719 46 245 46 L 207 46 C 204.238281 46 202 43.761719 202 41 Z M 202 19 "/>
<path style="fill:none;stroke-width:1.5;stroke-linecap:butt;stroke-linejoin:miter;stroke:rgb(38.039216%,50.588235%,100%);stroke-opacity:1;stroke-miterlimit:10;" d="M 0 5 C 0 2.238281 2.238281 0 5 0 L 43 0 C 45.761719 0 48 2.238281 48 5 L 48 61 C 48 63.761719 45.761719 66 43 66 L 5 66 C 2.238281 66 0 63.761719 0 61 Z M 0 5 " transform="matrix(1,0,0,1,152,14)"/>
<path style=" stroke:none;fill-rule:nonzero;fill:rgb(38.039216%,50.588235%,100%);fill-opacity:0.490196;" d="M 152 19 C 152 16.238281 154.238281 14 157 14 L 195 14 C 197.761719 14 200 16.238281 200 19 L 200 75 C 200 77.761719 197.761719 80 195 80 L 157 80 C 154.238281 80 152 77.761719 152 75 Z M 152 19 "/>
<path style="fill:none;stroke-width:1.5;stroke-linecap:butt;stroke-linejoin:miter;stroke:rgb(38.039216%,50.588235%,100%);stroke-opacity:1;stroke-miterlimit:10;" d="M 0 5 C 0 2.238281 2.238281 0 5 0 L 41 0 C 43.761719 0 46 2.238281 46 5 L 46 25 C 46 27.761719 43.761719 30 41 30 L 5 30 C 2.238281 30 0 27.761719 0 25 Z M 0 5 " transform="matrix(1,0,0,1,340,48)"/>
<path style=" stroke:none;fill-rule:nonzero;fill:rgb(38.039216%,50.588235%,100%);fill-opacity:0.490196;" d="M 340 53 C 340 50.238281 342.238281 48 345 48 L 381 48 C 383.761719 48 386 50.238281 386 53 L 386 73 C 386 75.761719 383.761719 78 381 78 L 345 78 C 342.238281 78 340 75.761719 340 73 Z M 340 53 "/>
<path style="fill:none;stroke-width:1.5;stroke-linecap:butt;stroke-linejoin:miter;stroke:rgb(38.039216%,50.588235%,100%);stroke-opacity:1;stroke-miterlimit:10;" d="M 0 5 C 0 2.238281 2.238281 0 5 0 L 41 0 C 43.761719 0 46 2.238281 46 5 L 46 25 C 46 27.761719 43.761719 30 41 30 L 5 30 C 2.238281 30 0 27.761719 0 25 Z M 0 5 " transform="matrix(1,0,0,1,340,16)"/>
<path style=" stroke:none;fill-rule:nonzero;fill:rgb(38.039216%,50.588235%,100%);fill-opacity:0.490196;" d="M 340 21 C 340 18.238281 342.238281 16 345 16 L 381 16 C 383.761719 16 386 18.238281 386 21 L 386 41 C 386 43.761719 383.761719 46 381 46 L 345 46 C 342.238281 46 340 43.761719 340 41 Z M 340 21 "/>
<path style="fill:none;stroke-width:1.5;stroke-linecap:butt;stroke-linejoin:miter;stroke:rgb(38.039216%,50.588235%,100%);stroke-opacity:1;stroke-miterlimit:10;" d="M 0 5 C 0 2.238281 2.238281 0 5 0 L 41 0 C 43.761719 0 46 2.238281 46 5 L 46 57 C 46 59.761719 43.761719 62 41 62 L 5 62 C 2.238281 62 0 59.761719 0 57 Z M 0 5 " transform="matrix(1,0,0,1,292,16)"/>
<path style=" stroke:none;fill-rule:nonzero;fill:rgb(38.039216%,50.588235%,100%);fill-opacity:0.490196;" d="M 292 21 C 292 18.238281 294.238281 16 297 16 L 333 16 C 335.761719 16 338 18.238281 338 21 L 338 73 C 338 75.761719 335.761719 78 333 78 L 297 78 C 294.238281 78 292 75.761719 292 73 Z M 292 21 "/>
<path style="fill:none;stroke-width:1.5;stroke-linecap:butt;stroke-linejoin:miter;stroke:rgb(38.039216%,50.588235%,100%);stroke-opacity:1;stroke-miterlimit:10;" d="M 0 5 C 0 2.238281 2.238281 0 5 0 L 39 0 C 41.761719 0 44 2.238281 44 5 L 44 23 C 44 25.761719 41.761719 28 39 28 L 5 28 C 2.238281 28 0 25.761719 0 23 Z M 0 5 " transform="matrix(1,0,0,1,478,48)"/>
<path style=" stroke:none;fill-rule:nonzero;fill:rgb(38.039216%,50.588235%,100%);fill-opacity:0.490196;" d="M 478 53 C 478 50.238281 480.238281 48 483 48 L 517 48 C 519.761719 48 522 50.238281 522 53 L 522 71 C 522 73.761719 519.761719 76 517 76 L 483 76 C 480.238281 76 478 73.761719 478 71 Z M 478 53 "/>
<path style="fill:none;stroke-width:1.5;stroke-linecap:butt;stroke-linejoin:miter;stroke:rgb(38.039216%,50.588235%,100%);stroke-opacity:1;stroke-miterlimit:10;" d="M 0 5 C 0 2.238281 2.238281 0 5 0 L 39 0 C 41.761719 0 44 2.238281 44 5 L 44 23 C 44 25.761719 41.761719 28 39 28 L 5 28 C 2.238281 28 0 25.761719 0 23 Z M 0 5 " transform="matrix(1,0,0,1,478,18)"/>
<path style=" stroke:none;fill-rule:nonzero;fill:rgb(38.039216%,50.588235%,100%);fill-opacity:0.490196;" d="M 478 23 C 478 20.238281 480.238281 18 483 18 L 517 18 C 519.761719 18 522 20.238281 522 23 L 522 41 C 522 43.761719 519.761719 46 517 46 L 483 46 C 480.238281 46 478 43.761719 478 41 Z M 478 23 "/>
<path style="fill:none;stroke-width:1.5;stroke-linecap:butt;stroke-linejoin:miter;stroke:rgb(38.039216%,50.588235%,100%);stroke-opacity:1;stroke-miterlimit:10;" d="M 0 5 C 0 2.238281 2.238281 0 5 0 L 39 0 C 41.761719 0 44 2.238281 44 5 L 44 53 C 44 55.761719 41.761719 58 39 58 L 5 58 C 2.238281 58 0 55.761719 0 53 Z M 0 5 " transform="matrix(1,0,0,1,432,18)"/>
<path style=" stroke:none;fill-rule:nonzero;fill:rgb(38.039216%,50.588235%,100%);fill-opacity:0.490196;" d="M 432 23 C 432 20.238281 434.238281 18 437 18 L 471 18 C 473.761719 18 476 20.238281 476 23 L 476 71 C 476 73.761719 473.761719 76 471 76 L 437 76 C 434.238281 76 432 73.761719 432 71 Z M 432 23 "/>
</g>
</svg>
