<?xml version="1.0" encoding="UTF-8"?>
<svg xmlns="http://www.w3.org/2000/svg" xmlns:xlink="http://www.w3.org/1999/xlink" width="360pt" height="48pt" viewBox="0 0 360 48" version="1.1">
<defs>
<clipPath id="clip1">
  <path d="M 3 3 L 61 3 L 61 45 L 3 45 Z M 3 3 "/>
</clipPath>
<clipPath id="clip2">
  <path d="M 5 5 L 59 5 L 59 43 L 5 43 Z M 5 5 "/>
</clipPath>
<clipPath id="clip3">
  <path d="M 5 7 C 5 5.894531 5.894531 5 7 5 L 57 5 C 58.105469 5 59 5.894531 59 7 L 59 41 C 59 42.105469 58.105469 43 57 43 L 7 43 C 5.894531 43 5 42.105469 5 41 Z M 5 7 "/>
</clipPath>
<clipPath id="clip4">
  <path d="M 77 3 L 135 3 L 135 24 L 77 24 Z M 77 3 "/>
</clipPath>
<clipPath id="clip5">
  <path d="M 79 5 L 133 5 L 133 22 L 79 22 Z M 79 5 "/>
</clipPath>
<clipPath id="clip6">
  <path d="M 79 7 C 79 5.894531 79.894531 5 81 5 L 131 5 C 132.105469 5 133 5.894531 133 7 L 133 20 C 133 21.105469 132.105469 22 131 22 L 81 22 C 79.894531 22 79 21.105469 79 20 Z M 79 7 "/>
</clipPath>
<clipPath id="clip7">
  <path d="M 77 24 L 135 24 L 135 45 L 77 45 Z M 77 24 "/>
</clipPath>
<clipPath id="clip8">
  <path d="M 79 26 L 133 26 L 133 43 L 79 43 Z M 79 26 "/>
</clipPath>
<clipPath id="clip9">
  <path d="M 79 28 C 79 26.894531 79.894531 26 81 26 L 131 26 C 132.105469 26 133 26.894531 133 28 L 133 41 C 133 42.105469 132.105469 43 131 43 L 81 43 C 79.894531 43 79 42.105469 79 41 Z M 79 28 "/>
</clipPath>
<clipPath id="clip10">
  <path d="M 151 3 L 170 3 L 170 45 L 151 45 Z M 151 3 "/>
</clipPath>
<clipPath id="clip11">
  <path d="M 153 5 L 168 5 L 168 43 L 153 43 Z M 153 5 "/>
</clipPath>
<clipPath id="clip12">
  <path d="M 153 7 C 153 5.894531 153.894531 5 155 5 L 166 5 C 167.105469 5 168 5.894531 168 7 L 168 41 C 168 42.105469 167.105469 43 166 43 L 155 43 C 153.894531 43 153 42.105469 153 41 Z M 153 7 "/>
</clipPath>
<clipPath id="clip13">
  <path d="M 170 3 L 189 3 L 189 45 L 170 45 Z M 170 3 "/>
</clipPath>
<clipPath id="clip14">
  <path d="M 172 5 L 187 5 L 187 43 L 172 43 Z M 172 5 "/>
</clipPath>
<clipPath id="clip15">
  <path d="M 172 7 C 172 5.894531 172.894531 5 174 5 L 185 5 C 186.105469 5 187 5.894531 187 7 L 187 41 C 187 42.105469 186.105469 43 185 43 L 174 43 C 172.894531 43 172 42.105469 172 41 Z M 172 7 "/>
</clipPath>
<clipPath id="clip16">
  <path d="M 189 3 L 208 3 L 208 45 L 189 45 Z M 189 3 "/>
</clipPath>
<clipPath id="clip17">
  <path d="M 191 5 L 206 5 L 206 43 L 191 43 Z M 191 5 "/>
</clipPath>
<clipPath id="clip18">
  <path d="M 191 7 C 191 5.894531 191.894531 5 193 5 L 204 5 C 205.105469 5 206 5.894531 206 7 L 206 41 C 206 42.105469 205.105469 43 204 43 L 193 43 C 191.894531 43 191 42.105469 191 41 Z M 191 7 "/>
</clipPath>
<clipPath id="clip19">
  <path d="M 225 3 L 239 3 L 239 45 L 225 45 Z M 225 3 "/>
</clipPath>
<clipPath id="clip20">
  <path d="M 227 5 L 237 5 L 237 43 L 227 43 Z M 227 5 "/>
</clipPath>
<clipPath id="clip21">
  <path d="M 227 7 C 227 5.894531 227.894531 5 229 5 L 235 5 C 236.105469 5 237 5.894531 237 7 L 237 41 C 237 42.105469 236.105469 43 235 43 L 229 43 C 227.894531 43 227 42.105469 227 41 Z M 227 7 "/>
</clipPath>
<clipPath id="clip22">
  <path d="M 239 3 L 253 3 L 253 45 L 239 45 Z M 239 3 "/>
</clipPath>
<clipPath id="clip23">
  <path d="M 241 5 L 251 5 L 251 43 L 241 43 Z M 241 5 "/>
</clipPath>
<clipPath id="clip24">
  <path d="M 241 7 C 241 5.894531 241.894531 5 243 5 L 249 5 C 250.105469 5 251 5.894531 251 7 L 251 41 C 251 42.105469 250.105469 43 249 43 L 243 43 C 241.894531 43 241 42.105469 241 41 Z M 241 7 "/>
</clipPath>
<clipPath id="clip25">
  <path d="M 253 3 L 267 3 L 267 45 L 253 45 Z M 253 3 "/>
</clipPath>
<clipPath id="clip26">
  <path d="M 255 5 L 265 5 L 265 43 L 255 43 Z M 255 5 "/>
</clipPath>
<clipPath id="clip27">
  <path d="M 255 7 C 255 5.894531 255.894531 5 257 5 L 263 5 C 264.105469 5 265 5.894531 265 7 L 265 41 C 265 42.105469 264.105469 43 263 43 L 257 43 C 255.894531 43 255 42.105469 255 41 Z M 255 7 "/>
</clipPath>
<clipPath id="clip28">
  <path d="M 267 3 L 281 3 L 281 45 L 267 45 Z M 267 3 "/>
</clipPath>
<clipPath id="clip29">
  <path d="M 269 5 L 279 5 L 279 43 L 269 43 Z M 269 5 "/>
</clipPath>
<clipPath id="clip30">
  <path d="M 269 7 C 269 5.894531 269.894531 5 271 5 L 277 5 C 278.105469 5 279 5.894531 279 7 L 279 41 C 279 42.105469 278.105469 43 277 43 L 271 43 C 269.894531 43 269 42.105469 269 41 Z M 269 7 "/>
</clipPath>
<clipPath id="clip31">
  <path d="M 299 3 L 310 3 L 310 45 L 299 45 Z M 299 3 "/>
</clipPath>
<clipPath id="clip32">
  <path d="M 301 5 L 308 5 L 308 43 L 301 43 Z M 301 5 "/>
</clipPath>
<clipPath id="clip33">
  <path d="M 301 7 C 301 5.894531 301.894531 5 303 5 L 306 5 C 307.105469 5 308 5.894531 308 7 L 308 41 C 308 42.105469 307.105469 43 306 43 L 303 43 C 301.894531 43 301 42.105469 301 41 Z M 301 7 "/>
</clipPath>
<clipPath id="clip34">
  <path d="M 310 3 L 321 3 L 321 45 L 310 45 Z M 310 3 "/>
</clipPath>
<clipPath id="clip35">
  <path d="M 312 5 L 319 5 L 319 43 L 312 43 Z M 312 5 "/>
</clipPath>
<clipPath id="clip36">
  <path d="M 312 7 C 312 5.894531 312.894531 5 314 5 L 317 5 C 318.105469 5 319 5.894531 319 7 L 319 41 C 319 42.105469 318.105469 43 317 43 L 314 43 C 312.894531 43 312 42.105469 312 41 Z M 312 7 "/>
</clipPath>
<clipPath id="clip37">
  <path d="M 321 3 L 332 3 L 332 45 L 321 45 Z M 321 3 "/>
</clipPath>
<clipPath id="clip38">
  <path d="M 323 5 L 330 5 L 330 43 L 323 43 Z M 323 5 "/>
</clipPath>
<clipPath id="clip39">
  <path d="M 323 7 C 323 5.894531 323.894531 5 325 5 L 328 5 C 329.105469 5 330 5.894531 330 7 L 330 41 C 330 42.105469 329.105469 43 328 43 L 325 43 C 323.894531 43 323 42.105469 323 41 Z M 323 7 "/>
</clipPath>
<clipPath id="clip40">
  <path d="M 332 3 L 343 3 L 343 45 L 332 45 Z M 332 3 "/>
</clipPath>
<clipPath id="clip41">
  <path d="M 334 5 L 341 5 L 341 43 L 334 43 Z M 334 5 "/>
</clipPath>
<clipPath id="clip42">
  <path d="M 334 7 C 334 5.894531 334.894531 5 336 5 L 339 5 C 340.105469 5 341 5.894531 341 7 L 341 41 C 341 42.105469 340.105469 43 339 43 L 336 43 C 334.894531 43 334 42.105469 334 41 Z M 334 7 "/>
</clipPath>
<clipPath id="clip43">
  <path d="M 343 3 L 354 3 L 354 45 L 343 45 Z M 343 3 "/>
</clipPath>
<clipPath id="clip44">
  <path d="M 345 5 L 352 5 L 352 43 L 345 43 Z M 345 5 "/>
</clipPath>
<clipPath id="clip45">
  <path d="M 345 7 C 345 5.894531 345.894531 5 347 5 L 350 5 C 351.105469 5 352 5.894531 352 7 L 352 41 C 352 42.105469 351.105469 43 350 43 L 347 43 C 345.894531 43 345 42.105469 345 41 Z M 345 7 "/>
</clipPath>
</defs>
<g id="surface2">
<path style="fill:none;stroke-width:1.5;stroke-linecap:butt;stroke-linejoin:miter;stroke:rgb(0%,0%,0%);stroke-opacity:0.266667;stroke-dasharray:10,4;stroke-dashoffset:1;stroke-miterlimit:10;" d="M 0.75 0.75 L 63.25 0.75 L 63.25 47.25 L 0.75 47.25 Z M 0.75 0.75 "/>
<path style="fill:none;stroke-width:1.5;stroke-linecap:butt;stroke-linejoin:miter;stroke:rgb(0%,0%,0%);stroke-opacity:0.2;stroke-dasharray:10,4;stroke-dashoffset:1;stroke-miterlimit:10;" d="M 3 3 L 61 3 L 61 45 L 3 45 Z M 3 3 "/>
<path style="fill:none;stroke-width:1.5;stroke-linecap:butt;stroke-linejoin:miter;stroke:rgb(0%,0%,0%);stroke-opacity:0.266667;stroke-dasharray:10,4;stroke-dashoffset:1;stroke-miterlimit:10;" d="M 74.75 0.75 L 137.25 0.75 L 137.25 47.25 L 74.75 47.25 Z M 74.75 0.75 "/>
<path style="fill:none;stroke-width:1.5;stroke-linecap:butt;stroke-linejoin:miter;stroke:rgb(0%,0%,0%);stroke-opacity:0.2;stroke-dasharray:10,4;stroke-dashoffset:1;stroke-miterlimit:10;" d="M 77 3 L 135 3 L 135 45 L 77 45 Z M 77 3 "/>
<path style="fill:none;stroke-width:1.5;stroke-linecap:butt;stroke-linejoin:miter;stroke:rgb(0%,0%,0%);stroke-opacity:0.266667;stroke-dasharray:10,4;stroke-dashoffset:1;stroke-miterlimit:10;" d="M 148.75 0.75 L 211.25 0.75 L 211.25 47.25 L 148.75 47.25 Z M 148.75 0.75 "/>
<path style="fill:none;stroke-width:1.5;stroke-linecap:butt;stroke-linejoin:miter;stroke:rgb(0%,0%,0%);stroke-opacity:0.2;stroke-dasharray:10,4;stroke-dashoffset:1;stroke-miterlimit:10;" d="M 151 3 L 209 3 L 209 45 L 151 45 Z M 151 3 "/>
<path style="fill:none;stroke-width:1.5;stroke-linecap:butt;stroke-linejoin:miter;stroke:rgb(0%,0%,0%);stroke-opacity:0.266667;stroke-dasharray:10,4;stroke-dashoffset:1;stroke-miterlimit:10;" d="M 222.75 0.75 L 285.25 0.75 L 285.25 47.25 L 222.75 47.25 Z M 222.75 0.75 "/>
<path style="fill:none;stroke-width:1.5;stroke-linecap:butt;stroke-linejoin:miter;stroke:rgb(0%,0%,0%);stroke-opacity:0.2;stroke-dasharray:10,4;stroke-dashoffset:1;stroke-miterlimit:10;" d="M 225 3 L 283 3 L 283 45 L 225 45 Z M 225 3 "/>
<path style="fill:none;stroke-width:1.5;stroke-linecap:butt;stroke-linejoin:miter;stroke:rgb(0%,0%,0%);stroke-opacity:0.266667;stroke-dasharray:10,4;stroke-dashoffset:1;stroke-miterlimit:10;" d="M 296.75 0.75 L 359.25 0.75 L 359.25 47.25 L 296.75 47.25 Z M 296.75 0.75 "/>
<path style="fill:none;stroke-width:1.5;stroke-linecap:butt;stroke-linejoin:miter;stroke:rgb(0%,0%,0%);stroke-opacity:0.2;stroke-dasharray:10,4;stroke-dashoffset:1;stroke-miterlimit:10;" d="M 299 3 L 357 3 L 357 45 L 299 45 Z M 299 3 "/>
<g clip-path="url(#clip1)" clip-rule="nonzero">
<path style="fill:none;stroke-width:2;stroke-linecap:butt;stroke-linejoin:miter;stroke:rgb(38.039216%,50.588235%,100%);stroke-opacity:1;stroke-miterlimit:10;" d="M 0 2 C 0 0.894531 0.894531 0 2 0 L 52 0 C 53.105469 0 54 0.894531 54 2 L 54 36 C 54 37.105469 53.105469 38 52 38 L 2 38 C 0.894531 38 0 37.105469 0 36 Z M 0 2 " transform="matrix(1,0,0,1,5,5)"/>
</g>
<path style=" stroke:none;fill-rule:nonzero;fill:rgb(38.039216%,50.588235%,100%);fill-opacity:0.490196;" d="M 5 7 C 5 5.894531 5.894531 5 7 5 L 57 5 C 58.105469 5 59 5.894531 59 7 L 59 41 C 59 42.105469 58.105469 43 57 43 L 7 43 C 5.894531 43 5 42.105469 5 41 Z M 5 7 "/>
<g clip-path="url(#clip2)" clip-rule="nonzero">
<g clip-path="url(#clip3)" clip-rule="nonzero">
<path style="fill:none;stroke-width:2;stroke-linecap:butt;stroke-linejoin:miter;stroke:rgb(38.039216%,50.588235%,100%);stroke-opacity:1;stroke-miterlimit:10;" d="M 0 2 C 0 0.894531 0.894531 0 2 0 L 52 0 C 53.105469 0 54 0.894531 54 2 L 54 36 C 54 37.105469 53.105469 38 52 38 L 2 38 C 0.894531 38 0 37.105469 0 36 Z M 0 2 " transform="matrix(1,0,0,1,5,5)"/>
</g>
</g>
<g clip-path="url(#clip4)" clip-rule="nonzero">
<path style="fill:none;stroke-width:2;stroke-linecap:butt;stroke-linejoin:miter;stroke:rgb(38.039216%,50.588235%,100%);stroke-opacity:1;stroke-miterlimit:10;" d="M 0 2 C 0 0.894531 0.894531 0 2 0 L 52 0 C 53.105469 0 54 0.894531 54 2 L 54 15 C 54 16.105469 53.105469 17 52 17 L 2 17 C 0.894531 17 0 16.105469 0 15 Z M 0 2 " transform="matrix(1,0,0,1,79,5)"/>
</g>
<path style=" stroke:none;fill-rule:nonzero;fill:rgb(38.039216%,50.588235%,100%);fill-opacity:0.490196;" d="M 79 7 C 79 5.894531 79.894531 5 81 5 L 131 5 C 132.105469 5 133 5.894531 133 7 L 133 20 C 133 21.105469 132.105469 22 131 22 L 81 22 C 79.894531 22 79 21.105469 79 20 Z M 79 7 "/>
<g clip-path="url(#clip5)" clip-rule="nonzero">
<g clip-path="url(#clip6)" clip-rule="nonzero">
<path style="fill:none;stroke-width:2;stroke-linecap:butt;stroke-linejoin:miter;stroke:rgb(38.039216%,50.588235%,100%);stroke-opacity:1;stroke-miterlimit:10;" d="M 0 2 C 0 0.894531 0.894531 0 2 0 L 52 0 C 53.105469 0 54 0.894531 54 2 L 54 15 C 54 16.105469 53.105469 17 52 17 L 2 17 C 0.894531 17 0 16.105469 0 15 Z M 0 2 " transform="matrix(1,0,0,1,79,5)"/>
</g>
</g>
<g clip-path="url(#clip7)" clip-rule="nonzero">
<path style="fill:none;stroke-width:2;stroke-linecap:butt;stroke-linejoin:miter;stroke:rgb(38.039216%,50.588235%,100%);stroke-opacity:1;stroke-miterlimit:10;" d="M 0 2 C 0 0.894531 0.894531 0 2 0 L 52 0 C 53.105469 0 54 0.894531 54 2 L 54 15 C 54 16.105469 53.105469 17 52 17 L 2 17 C 0.894531 17 0 16.105469 0 15 Z M 0 2 " transform="matrix(1,0,0,1,79,26)"/>
</g>
<path style=" stroke:none;fill-rule:nonzero;fill:rgb(38.039216%,50.588235%,100%);fill-opacity:0.490196;" d="M 79 28 C 79 26.894531 79.894531 26 81 26 L 131 26 C 132.105469 26 133 26.894531 133 28 L 133 41 C 133 42.105469 132.105469 43 131 43 L 81 43 C 79.894531 43 79 42.105469 79 41 Z M 79 28 "/>
<g clip-path="url(#clip8)" clip-rule="nonzero">
<g clip-path="url(#clip9)" clip-rule="nonzero">
<path style="fill:none;stroke-width:2;stroke-linecap:butt;stroke-linejoin:miter;stroke:rgb(38.039216%,50.588235%,100%);stroke-opacity:1;stroke-miterlimit:10;" d="M 0 2 C 0 0.894531 0.894531 0 2 0 L 52 0 C 53.105469 0 54 0.894531 54 2 L 54 15 C 54 16.105469 53.105469 17 52 17 L 2 17 C 0.894531 17 0 16.105469 0 15 Z M 0 2 " transform="matrix(1,0,0,1,79,26)"/>
</g>
</g>
<g clip-path="url(#clip10)" clip-rule="nonzero">
<path style="fill:none;stroke-width:2;stroke-linecap:butt;stroke-linejoin:miter;stroke:rgb(38.039216%,50.588235%,100%);stroke-opacity:1;stroke-miterlimit:10;" d="M 0 2 C 0 0.894531 0.894531 0 2 0 L 13 0 C 14.105469 0 15 0.894531 15 2 L 15 36 C 15 37.105469 14.105469 38 13 38 L 2 38 C 0.894531 38 0 37.105469 0 36 Z M 0 2 " transform="matrix(1,0,0,1,153,5)"/>
</g>
<path style=" stroke:none;fill-rule:nonzero;fill:rgb(38.039216%,50.588235%,100%);fill-opacity:0.490196;" d="M 153 7 C 153 5.894531 153.894531 5 155 5 L 166 5 C 167.105469 5 168 5.894531 168 7 L 168 41 C 168 42.105469 167.105469 43 166 43 L 155 43 C 153.894531 43 153 42.105469 153 41 Z M 153 7 "/>
<g clip-path="url(#clip11)" clip-rule="nonzero">
<g clip-path="url(#clip12)" clip-rule="nonzero">
<path style="fill:none;stroke-width:2;stroke-linecap:butt;stroke-linejoin:miter;stroke:rgb(38.039216%,50.588235%,100%);stroke-opacity:1;stroke-miterlimit:10;" d="M 0 2 C 0 0.894531 0.894531 0 2 0 L 13 0 C 14.105469 0 15 0.894531 15 2 L 15 36 C 15 37.105469 14.105469 38 13 38 L 2 38 C 0.894531 38 0 37.105469 0 36 Z M 0 2 " transform="matrix(1,0,0,1,153,5)"/>
</g>
</g>
<g clip-path="url(#clip13)" clip-rule="nonzero">
<path style="fill:none;stroke-width:2;stroke-linecap:butt;stroke-linejoin:miter;stroke:rgb(38.039216%,50.588235%,100%);stroke-opacity:1;stroke-miterlimit:10;" d="M 0 2 C 0 0.894531 0.894531 0 2 0 L 13 0 C 14.105469 0 15 0.894531 15 2 L 15 36 C 15 37.105469 14.105469 38 13 38 L 2 38 C 0.894531 38 0 37.105469 0 36 Z M 0 2 " transform="matrix(1,0,0,1,172,5)"/>
</g>
<path style=" stroke:none;fill-rule:nonzero;fill:rgb(38.039216%,50.588235%,100%);fill-opacity:0.490196;" d="M 172 7 C 172 5.894531 172.894531 5 174 5 L 185 5 C 186.105469 5 187 5.894531 187 7 L 187 41 C 187 42.105469 186.105469 43 185 43 L 174 43 C 172.894531 43 172 42.105469 172 41 Z M 172 7 "/>
<g clip-path="url(#clip14)" clip-rule="nonzero">
<g clip-path="url(#clip15)" clip-rule="nonzero">
<path style="fill:none;stroke-width:2;stroke-linecap:butt;stroke-linejoin:miter;stroke:rgb(38.039216%,50.588235%,100%);stroke-opacity:1;stroke-miterlimit:10;" d="M 0 2 C 0 0.894531 0.894531 0 2 0 L 13 0 C 14.105469 0 15 0.894531 15 2 L 15 36 C 15 37.105469 14.105469 38 13 38 L 2 38 C 0.894531 38 0 37.105469 0 36 Z M 0 2 " transform="matrix(1,0,0,1,172,5)"/>
</g>
</g>
<g clip-path="url(#clip16)" clip-rule="nonzero">
<path style="fill:none;stroke-width:2;stroke-linecap:butt;stroke-linejoin:miter;stroke:rgb(38.039216%,50.588235%,100%);stroke-opacity:1;stroke-miterlimit:10;" d="M 0 2 C 0 0.894531 0.894531 0 2 0 L 13 0 C 14.105469 0 15 0.894531 15 2 L 15 36 C 15 37.105469 14.105469 38 13 38 L 2 38 C 0.894531 38 0 37.105469 0 36 Z M 0 2 " transform="matrix(1,0,0,1,191,5)"/>
</g>
<path style=" stroke:none;fill-rule:nonzero;fill:rgb(38.039216%,50.588235%,100%);fill-opacity:0.490196;" d="M 191 7 C 191 5.894531 191.894531 5 193 5 L 204 5 C 205.105469 5 206 5.894531 206 7 L 206 41 C 206 42.105469 205.105469 43 204 43 L 193 43 C 191.894531 43 191 42.105469 191 41 Z M 191 7 "/>
<g clip-path="url(#clip17)" clip-rule="nonzero">
<g clip-path="url(#clip18)" clip-rule="nonzero">
<path style="fill:none;stroke-width:2;stroke-linecap:butt;stroke-linejoin:miter;stroke:rgb(38.039216%,50.588235%,100%);stroke-opacity:1;stroke-miterlimit:10;" d="M 0 2 C 0 0.894531 0.894531 0 2 0 L 13 0 C 14.105469 0 15 0.894531 15 2 L 15 36 C 15 37.105469 14.105469 38 13 38 L 2 38 C 0.894531 38 0 37.105469 0 36 Z M 0 2 " transform="matrix(1,0,0,1,191,5)"/>
</g>
</g>
<g clip-path="url(#clip19)" clip-rule="nonzero">
<path style="fill:none;stroke-width:2;stroke-linecap:butt;stroke-linejoin:miter;stroke:rgb(38.039216%,50.588235%,100%);stroke-opacity:1;stroke-miterlimit:10;" d="M 0 2 C 0 0.894531 0.894531 0 2 0 L 8 0 C 9.105469 0 10 0.894531 10 2 L 10 36 C 10 37.105469 9.105469 38 8 38 L 2 38 C 0.894531 38 0 37.105469 0 36 Z M 0 2 " transform="matrix(1,0,0,1,227,5)"/>
</g>
<path style=" stroke:none;fill-rule:nonzero;fill:rgb(38.039216%,50.588235%,100%);fill-opacity:0.490196;" d="M 227 7 C 227 5.894531 227.894531 5 229 5 L 235 5 C 236.105469 5 237 5.894531 237 7 L 237 41 C 237 42.105469 236.105469 43 235 43 L 229 43 C 227.894531 43 227 42.105469 227 41 Z M 227 7 "/>
<g clip-path="url(#clip20)" clip-rule="nonzero">
<g clip-path="url(#clip21)" clip-rule="nonzero">
<path style="fill:none;stroke-width:2;stroke-linecap:butt;stroke-linejoin:miter;stroke:rgb(38.039216%,50.588235%,100%);stroke-opacity:1;stroke-miterlimit:10;" d="M 0 2 C 0 0.894531 0.894531 0 2 0 L 8 0 C 9.105469 0 10 0.894531 10 2 L 10 36 C 10 37.105469 9.105469 38 8 38 L 2 38 C 0.894531 38 0 37.105469 0 36 Z M 0 2 " transform="matrix(1,0,0,1,227,5)"/>
</g>
</g>
<g clip-path="url(#clip22)" clip-rule="nonzero">
<path style="fill:none;stroke-width:2;stroke-linecap:butt;stroke-linejoin:miter;stroke:rgb(38.039216%,50.588235%,100%);stroke-opacity:1;stroke-miterlimit:10;" d="M 0 2 C 0 0.894531 0.894531 0 2 0 L 8 0 C 9.105469 0 10 0.894531 10 2 L 10 36 C 10 37.105469 9.105469 38 8 38 L 2 38 C 0.894531 38 0 37.105469 0 36 Z M 0 2 " transform="matrix(1,0,0,1,241,5)"/>
</g>
<path style=" stroke:none;fill-rule:nonzero;fill:rgb(38.039216%,50.588235%,100%);fill-opacity:0.490196;" d="M 241 7 C 241 5.894531 241.894531 5 243 5 L 249 5 C 250.105469 5 251 5.894531 251 7 L 251 41 C 251 42.105469 250.105469 43 249 43 L 243 43 C 241.894531 43 241 42.105469 241 41 Z M 241 7 "/>
<g clip-path="url(#clip23)" clip-rule="nonzero">
<g clip-path="url(#clip24)" clip-rule="nonzero">
<path style="fill:none;stroke-width:2;stroke-linecap:butt;stroke-linejoin:miter;stroke:rgb(38.039216%,50.588235%,100%);stroke-opacity:1;stroke-miterlimit:10;" d="M 0 2 C 0 0.894531 0.894531 0 2 0 L 8 0 C 9.105469 0 10 0.894531 10 2 L 10 36 C 10 37.105469 9.105469 38 8 38 L 2 38 C 0.894531 38 0 37.105469 0 36 Z M 0 2 " transform="matrix(1,0,0,1,241,5)"/>
</g>
</g>
<g clip-path="url(#clip25)" clip-rule="nonzero">
<path style="fill:none;stroke-width:2;stroke-linecap:butt;stroke-linejoin:miter;stroke:rgb(38.039216%,50.588235%,100%);stroke-opacity:1;stroke-miterlimit:10;" d="M 0 2 C 0 0.894531 0.894531 0 2 0 L 8 0 C 9.105469 0 10 0.894531 10 2 L 10 36 C 10 37.105469 9.105469 38 8 38 L 2 38 C 0.894531 38 0 37.105469 0 36 Z M 0 2 " transform="matrix(1,0,0,1,255,5)"/>
</g>
<path style=" stroke:none;fill-rule:nonzero;fill:rgb(38.039216%,50.588235%,100%);fill-opacity:0.490196;" d="M 255 7 C 255 5.894531 255.894531 5 257 5 L 263 5 C 264.105469 5 265 5.894531 265 7 L 265 41 C 265 42.105469 264.105469 43 263 43 L 257 43 C 255.894531 43 255 42.105469 255 41 Z M 255 7 "/>
<g clip-path="url(#clip26)" clip-rule="nonzero">
<g clip-path="url(#clip27)" clip-rule="nonzero">
<path style="fill:none;stroke-width:2;stroke-linecap:butt;stroke-linejoin:miter;stroke:rgb(38.039216%,50.588235%,100%);stroke-opacity:1;stroke-miterlimit:10;" d="M 0 2 C 0 0.894531 0.894531 0 2 0 L 8 0 C 9.105469 0 10 0.894531 10 2 L 10 36 C 10 37.105469 9.105469 38 8 38 L 2 38 C 0.894531 38 0 37.105469 0 36 Z M 0 2 " transform="matrix(1,0,0,1,255,5)"/>
</g>
</g>
<g clip-path="url(#clip28)" clip-rule="nonzero">
<path style="fill:none;stroke-width:2;stroke-linecap:butt;stroke-linejoin:miter;stroke:rgb(38.039216%,50.588235%,100%);stroke-opacity:1;stroke-miterlimit:10;" d="M 0 2 C 0 0.894531 0.894531 0 2 0 L 8 0 C 9.105469 0 10 0.894531 10 2 L 10 36 C 10 37.105469 9.105469 38 8 38 L 2 38 C 0.894531 38 0 37.105469 0 36 Z M 0 2 " transform="matrix(1,0,0,1,269,5)"/>
</g>
<path style=" stroke:none;fill-rule:nonzero;fill:rgb(38.039216%,50.588235%,100%);fill-opacity:0.490196;" d="M 269 7 C 269 5.894531 269.894531 5 271 5 L 277 5 C 278.105469 5 279 5.894531 279 7 L 279 41 C 279 42.105469 278.105469 43 277 43 L 271 43 C 269.894531 43 269 42.105469 269 41 Z M 269 7 "/>
<g clip-path="url(#clip29)" clip-rule="nonzero">
<g clip-path="url(#clip30)" clip-rule="nonzero">
<path style="fill:none;stroke-width:2;stroke-linecap:butt;stroke-linejoin:miter;stroke:rgb(38.039216%,50.588235%,100%);stroke-opacity:1;stroke-miterlimit:10;" d="M 0 2 C 0 0.894531 0.894531 0 2 0 L 8 0 C 9.105469 0 10 0.894531 10 2 L 10 36 C 10 37.105469 9.105469 38 8 38 L 2 38 C 0.894531 38 0 37.105469 0 36 Z M 0 2 " transform="matrix(1,0,0,1,269,5)"/>
</g>
</g>
<g clip-path="url(#clip31)" clip-rule="nonzero">
<path style="fill:none;stroke-width:2;stroke-linecap:butt;stroke-linejoin:miter;stroke:rgb(38.039216%,50.588235%,100%);stroke-opacity:1;stroke-miterlimit:10;" d="M 0 2 C 0 0.894531 0.894531 0 2 0 L 5 0 C 6.105469 0 7 0.894531 7 2 L 7 36 C 7 37.105469 6.105469 38 5 38 L 2 38 C 0.894531 38 0 37.105469 0 36 Z M 0 2 " transform="matrix(1,0,0,1,301,5)"/>
</g>
<path style=" stroke:none;fill-rule:nonzero;fill:rgb(38.039216%,50.588235%,100%);fill-opacity:0.490196;" d="M 301 7 C 301 5.894531 301.894531 5 303 5 L 306 5 C 307.105469 5 308 5.894531 308 7 L 308 41 C 308 42.105469 307.105469 43 306 43 L 303 43 C 301.894531 43 301 42.105469 301 41 Z M 301 7 "/>
<g clip-path="url(#clip32)" clip-rule="nonzero">
<g clip-path="url(#clip33)" clip-rule="nonzero">
<path style="fill:none;stroke-width:2;stroke-linecap:butt;stroke-linejoin:miter;stroke:rgb(38.039216%,50.588235%,100%);stroke-opacity:1;stroke-miterlimit:10;" d="M 0 2 C 0 0.894531 0.894531 0 2 0 L 5 0 C 6.105469 0 7 0.894531 7 2 L 7 36 C 7 37.105469 6.105469 38 5 38 L 2 38 C 0.894531 38 0 37.105469 0 36 Z M 0 2 " transform="matrix(1,0,0,1,301,5)"/>
</g>
</g>
<g clip-path="url(#clip34)" clip-rule="nonzero">
<path style="fill:none;stroke-width:2;stroke-linecap:butt;stroke-linejoin:miter;stroke:rgb(38.039216%,50.588235%,100%);stroke-opacity:1;stroke-miterlimit:10;" d="M 0 2 C 0 0.894531 0.894531 0 2 0 L 5 0 C 6.105469 0 7 0.894531 7 2 L 7 36 C 7 37.105469 6.105469 38 5 38 L 2 38 C 0.894531 38 0 37.105469 0 36 Z M 0 2 " transform="matrix(1,0,0,1,312,5)"/>
</g>
<path style=" stroke:none;fill-rule:nonzero;fill:rgb(38.039216%,50.588235%,100%);fill-opacity:0.490196;" d="M 312 7 C 312 5.894531 312.894531 5 314 5 L 317 5 C 318.105469 5 319 5.894531 319 7 L 319 41 C 319 42.105469 318.105469 43 317 43 L 314 43 C 312.894531 43 312 42.105469 312 41 Z M 312 7 "/>
<g clip-path="url(#clip35)" clip-rule="nonzero">
<g clip-path="url(#clip36)" clip-rule="nonzero">
<path style="fill:none;stroke-width:2;stroke-linecap:butt;stroke-linejoin:miter;stroke:rgb(38.039216%,50.588235%,100%);stroke-opacity:1;stroke-miterlimit:10;" d="M 0 2 C 0 0.894531 0.894531 0 2 0 L 5 0 C 6.105469 0 7 0.894531 7 2 L 7 36 C 7 37.105469 6.105469 38 5 38 L 2 38 C 0.894531 38 0 37.105469 0 36 Z M 0 2 " transform="matrix(1,0,0,1,312,5)"/>
</g>
</g>
<g clip-path="url(#clip37)" clip-rule="nonzero">
<path style="fill:none;stroke-width:2;stroke-linecap:butt;stroke-linejoin:miter;stroke:rgb(38.039216%,50.588235%,100%);stroke-opacity:1;stroke-miterlimit:10;" d="M 0 2 C 0 0.894531 0.894531 0 2 0 L 5 0 C 6.105469 0 7 0.894531 7 2 L 7 36 C 7 37.105469 6.105469 38 5 38 L 2 38 C 0.894531 38 0 37.105469 0 36 Z M 0 2 " transform="matrix(1,0,0,1,323,5)"/>
</g>
<path style=" stroke:none;fill-rule:nonzero;fill:rgb(38.039216%,50.588235%,100%);fill-opacity:0.490196;" d="M 323 7 C 323 5.894531 323.894531 5 325 5 L 328 5 C 329.105469 5 330 5.894531 330 7 L 330 41 C 330 42.105469 329.105469 43 328 43 L 325 43 C 323.894531 43 323 42.105469 323 41 Z M 323 7 "/>
<g clip-path="url(#clip38)" clip-rule="nonzero">
<g clip-path="url(#clip39)" clip-rule="nonzero">
<path style="fill:none;stroke-width:2;stroke-linecap:butt;stroke-linejoin:miter;stroke:rgb(38.039216%,50.588235%,100%);stroke-opacity:1;stroke-miterlimit:10;" d="M 0 2 C 0 0.894531 0.894531 0 2 0 L 5 0 C 6.105469 0 7 0.894531 7 2 L 7 36 C 7 37.105469 6.105469 38 5 38 L 2 38 C 0.894531 38 0 37.105469 0 36 Z M 0 2 " transform="matrix(1,0,0,1,323,5)"/>
</g>
</g>
<g clip-path="url(#clip40)" clip-rule="nonzero">
<path style="fill:none;stroke-width:2;stroke-linecap:butt;stroke-linejoin:miter;stroke:rgb(38.039216%,50.588235%,100%);stroke-opacity:1;stroke-miterlimit:10;" d="M 0 2 C 0 0.894531 0.894531 0 2 0 L 5 0 C 6.105469 0 7 0.894531 7 2 L 7 36 C 7 37.105469 6.105469 38 5 38 L 2 38 C 0.894531 38 0 37.105469 0 36 Z M 0 2 " transform="matrix(1,0,0,1,334,5)"/>
</g>
<path style=" stroke:none;fill-rule:nonzero;fill:rgb(38.039216%,50.588235%,100%);fill-opacity:0.490196;" d="M 334 7 C 334 5.894531 334.894531 5 336 5 L 339 5 C 340.105469 5 341 5.894531 341 7 L 341 41 C 341 42.105469 340.105469 43 339 43 L 336 43 C 334.894531 43 334 42.105469 334 41 Z M 334 7 "/>
<g clip-path="url(#clip41)" clip-rule="nonzero">
<g clip-path="url(#clip42)" clip-rule="nonzero">
<path style="fill:none;stroke-width:2;stroke-linecap:butt;stroke-linejoin:miter;stroke:rgb(38.039216%,50.588235%,100%);stroke-opacity:1;stroke-miterlimit:10;" d="M 0 2 C 0 0.894531 0.894531 0 2 0 L 5 0 C 6.105469 0 7 0.894531 7 2 L 7 36 C 7 37.105469 6.105469 38 5 38 L 2 38 C 0.894531 38 0 37.105469 0 36 Z M 0 2 " transform="matrix(1,0,0,1,334,5)"/>
</g>
</g>
<g clip-path="url(#clip43)" clip-rule="nonzero">
<path style="fill:none;stroke-width:2;stroke-linecap:butt;stroke-linejoin:miter;stroke:rgb(38.039216%,50.588235%,100%);stroke-opacity:1;stroke-miterlimit:10;" d="M 0 2 C 0 0.894531 0.894531 0 2 0 L 5 0 C 6.105469 0 7 0.894531 7 2 L 7 36 C 7 37.105469 6.105469 38 5 38 L 2 38 C 0.894531 38 0 37.105469 0 36 Z M 0 2 " transform="matrix(1,0,0,1,345,5)"/>
</g>
<path style=" stroke:none;fill-rule:nonzero;fill:rgb(38.039216%,50.588235%,100%);fill-opacity:0.490196;" d="M 345 7 C 345 5.894531 345.894531 5 347 5 L 350 5 C 351.105469 5 352 5.894531 352 7 L 352 41 C 352 42.105469 351.105469 43 350 43 L 347 43 C 345.894531 43 345 42.105469 345 41 Z M 345 7 "/>
<g clip-path="url(#clip44)" clip-rule="nonzero">
<g clip-path="url(#clip45)" clip-rule="nonzero">
<path style="fill:none;stroke-width:2;stroke-linecap:butt;stroke-linejoin:miter;stroke:rgb(38.039216%,50.588235%,100%);stroke-opacity:1;stroke-miterlimit:10;" d="M 0 2 C 0 0.894531 0.894531 0 2 0 L 5 0 C 6.105469 0 7 0.894531 7 2 L 7 36 C 7 37.105469 6.105469 38 5 38 L 2 38 C 0.894531 38 0 37.105469 0 36 Z M 0 2 " transform="matrix(1,0,0,1,345,5)"/>
</g>
</g>
</g>
</svg>
