<?xml version="1.0" encoding="UTF-8"?>
<svg xmlns="http://www.w3.org/2000/svg" xmlns:xlink="http://www.w3.org/1999/xlink" width="542pt" height="96pt" viewBox="0 0 542 96" version="1.1">
<defs>
<clipPath id="clip1">
  <path d="M 13 13 L 115 13 L 115 33 L 13 33 Z M 13 13 "/>
</clipPath>
<clipPath id="clip2">
  <path d="M 13 18 C 13 15.238281 15.238281 13 18 13 L 110 13 C 112.761719 13 115 15.238281 115 18 L 115 28 C 115 30.761719 112.761719 33 110 33 L 18 33 C 15.238281 33 13 30.761719 13 28 Z M 13 18 "/>
</clipPath>
<clipPath id="clip3">
  <path d="M 13 37 L 115 37 L 115 57 L 13 57 Z M 13 37 "/>
</clipPath>
<clipPath id="clip4">
  <path d="M 13 42 C 13 39.238281 15.238281 37 18 37 L 110 37 C 112.761719 37 115 39.238281 115 42 L 115 52 C 115 54.761719 112.761719 57 110 57 L 18 57 C 15.238281 57 13 54.761719 13 52 Z M 13 42 "/>
</clipPath>
<clipPath id="clip5">
  <path d="M 13 61 L 115 61 L 115 81 L 13 81 Z M 13 61 "/>
</clipPath>
<clipPath id="clip6">
  <path d="M 13 66 C 13 63.238281 15.238281 61 18 61 L 110 61 C 112.761719 61 115 63.238281 115 66 L 115 76 C 115 78.761719 112.761719 81 110 81 L 18 81 C 15.238281 81 13 78.761719 13 76 Z M 13 66 "/>
</clipPath>
<clipPath id="clip7">
  <path d="M 31 31 L 97 31 L 97 65 L 31 65 Z M 31 31 "/>
</clipPath>
<clipPath id="clip8">
  <path d="M 31.5 36.5 C 31.5 33.738281 33.738281 31.5 36.5 31.5 L 91.5 31.5 C 94.261719 31.5 96.5 33.738281 96.5 36.5 L 96.5 59.5 C 96.5 62.261719 94.261719 64.5 91.5 64.5 L 36.5 64.5 C 33.738281 64.5 31.5 62.261719 31.5 59.5 Z M 31.5 36.5 "/>
</clipPath>
<clipPath id="clip9">
  <path d="M 153 15 L 251 15 L 251 33 L 153 33 Z M 153 15 "/>
</clipPath>
<clipPath id="clip10">
  <path d="M 153 20 C 153 17.238281 155.238281 15 158 15 L 246 15 C 248.761719 15 251 17.238281 251 20 L 251 28 C 251 30.761719 248.761719 33 246 33 L 158 33 C 155.238281 33 153 30.761719 153 28 Z M 153 20 "/>
</clipPath>
<clipPath id="clip11">
  <path d="M 153 39 L 251 39 L 251 57 L 153 57 Z M 153 39 "/>
</clipPath>
<clipPath id="clip12">
  <path d="M 153 44 C 153 41.238281 155.238281 39 158 39 L 246 39 C 248.761719 39 251 41.238281 251 44 L 251 52 C 251 54.761719 248.761719 57 246 57 L 158 57 C 155.238281 57 153 54.761719 153 52 Z M 153 44 "/>
</clipPath>
<clipPath id="clip13">
  <path d="M 153 63 L 251 63 L 251 81 L 153 81 Z M 153 63 "/>
</clipPath>
<clipPath id="clip14">
  <path d="M 153 68 C 153 65.238281 155.238281 63 158 63 L 246 63 C 248.761719 63 251 65.238281 251 68 L 251 76 C 251 78.761719 248.761719 81 246 81 L 158 81 C 155.238281 81 153 78.761719 153 76 Z M 153 68 "/>
</clipPath>
<clipPath id="clip15">
  <path d="M 171 33 L 233 33 L 233 63 L 171 63 Z M 171 33 "/>
</clipPath>
<clipPath id="clip16">
  <path d="M 171 38 C 171 35.238281 173.238281 33 176 33 L 228 33 C 230.761719 33 233 35.238281 233 38 L 233 58 C 233 60.761719 230.761719 63 228 63 L 176 63 C 173.238281 63 171 60.761719 171 58 Z M 171 38 "/>
</clipPath>
<clipPath id="clip17">
  <path d="M 293 17 L 387 17 L 387 32 L 293 32 Z M 293 17 "/>
</clipPath>
<clipPath id="clip18">
  <path d="M 293 22 C 293 19.238281 295.238281 17 298 17 L 382 17 C 384.761719 17 387 19.238281 387 22 L 387 27 C 387 29.761719 384.761719 32 382 32 L 298 32 C 295.238281 32 293 29.761719 293 27 Z M 293 22 "/>
</clipPath>
<clipPath id="clip19">
  <path d="M 293 40 L 387 40 L 387 55 L 293 55 Z M 293 40 "/>
</clipPath>
<clipPath id="clip20">
  <path d="M 293 45 C 293 42.238281 295.238281 40 298 40 L 382 40 C 384.761719 40 387 42.238281 387 45 L 387 50 C 387 52.761719 384.761719 55 382 55 L 298 55 C 295.238281 55 293 52.761719 293 50 Z M 293 45 "/>
</clipPath>
<clipPath id="clip21">
  <path d="M 293 63 L 387 63 L 387 78 L 293 78 Z M 293 63 "/>
</clipPath>
<clipPath id="clip22">
  <path d="M 293 68 C 293 65.238281 295.238281 63 298 63 L 382 63 C 384.761719 63 387 65.238281 387 68 L 387 73 C 387 75.761719 384.761719 78 382 78 L 298 78 C 295.238281 78 293 75.761719 293 73 Z M 293 68 "/>
</clipPath>
<clipPath id="clip23">
  <path d="M 310 34 L 370 34 L 370 62 L 310 62 Z M 310 34 "/>
</clipPath>
<clipPath id="clip24">
  <path d="M 310.5 39.5 C 310.5 36.738281 312.738281 34.5 315.5 34.5 L 364.5 34.5 C 367.261719 34.5 369.5 36.738281 369.5 39.5 L 369.5 56.5 C 369.5 59.261719 367.261719 61.5 364.5 61.5 L 315.5 61.5 C 312.738281 61.5 310.5 59.261719 310.5 56.5 Z M 310.5 39.5 "/>
</clipPath>
<clipPath id="clip25">
  <path d="M 433 19 L 523 19 L 523 31 L 433 31 Z M 433 19 "/>
</clipPath>
<clipPath id="clip26">
  <path d="M 433 24 C 433 21.238281 435.238281 19 438 19 L 518 19 C 520.761719 19 523 21.238281 523 24 L 523 26 C 523 28.761719 520.761719 31 518 31 L 438 31 C 435.238281 31 433 28.761719 433 26 Z M 433 24 "/>
</clipPath>
<clipPath id="clip27">
  <path d="M 433 41 L 523 41 L 523 53 L 433 53 Z M 433 41 "/>
</clipPath>
<clipPath id="clip28">
  <path d="M 433 46 C 433 43.238281 435.238281 41 438 41 L 518 41 C 520.761719 41 523 43.238281 523 46 L 523 48 C 523 50.761719 520.761719 53 518 53 L 438 53 C 435.238281 53 433 50.761719 433 48 Z M 433 46 "/>
</clipPath>
<clipPath id="clip29">
  <path d="M 433 63 L 523 63 L 523 75 L 433 75 Z M 433 63 "/>
</clipPath>
<clipPath id="clip30">
  <path d="M 433 68 C 433 65.238281 435.238281 63 438 63 L 518 63 C 520.761719 63 523 65.238281 523 68 L 523 70 C 523 72.761719 520.761719 75 518 75 L 438 75 C 435.238281 75 433 72.761719 433 70 Z M 433 68 "/>
</clipPath>
<clipPath id="clip31">
  <path d="M 450 36 L 506 36 L 506 60 L 450 60 Z M 450 36 "/>
</clipPath>
<clipPath id="clip32">
  <path d="M 450 41 C 450 38.238281 452.238281 36 455 36 L 501 36 C 503.761719 36 506 38.238281 506 41 L 506 55 C 506 57.761719 503.761719 60 501 60 L 455 60 C 452.238281 60 450 57.761719 450 55 Z M 450 41 "/>
</clipPath>
</defs>
<g id="surface2">
<path style="fill:none;stroke-width:1.5;stroke-linecap:butt;stroke-linejoin:miter;stroke:rgb(0%,0%,0%);stroke-opacity:0.266667;stroke-dasharray:10,4;stroke-dashoffset:1;stroke-miterlimit:10;" d="M 0.75 0.75 L 127.25 0.75 L 127.25 95.25 L 0.75 95.25 Z M 0.75 0.75 "/>
<path style="fill:none;stroke-width:1.5;stroke-linecap:butt;stroke-linejoin:miter;stroke:rgb(0%,0%,0%);stroke-opacity:0.2;stroke-dasharray:10,4;stroke-dashoffset:1;stroke-miterlimit:10;" d="M 10 10 L 118 10 L 118 86 L 10 86 Z M 10 10 "/>
<path style="fill:none;stroke-width:1.5;stroke-linecap:butt;stroke-linejoin:miter;stroke:rgb(0%,0%,0%);stroke-opacity:0.266667;stroke-dasharray:10,4;stroke-dashoffset:1;stroke-miterlimit:10;" d="M 138.75 0.75 L 265.25 0.75 L 265.25 95.25 L 138.75 95.25 Z M 138.75 0.75 "/>
<path style="fill:none;stroke-width:1.5;stroke-linecap:butt;stroke-linejoin:miter;stroke:rgb(0%,0%,0%);stroke-opacity:0.2;stroke-dasharray:10,4;stroke-dashoffset:1;stroke-miterlimit:10;" d="M 148 10 L 256 10 L 256 86 L 148 86 Z M 148 10 "/>
<path style="fill:none;stroke-width:1.5;stroke-linecap:butt;stroke-linejoin:miter;stroke:rgb(0%,0%,0%);stroke-opacity:0.266667;stroke-dasharray:10,4;stroke-dashoffset:1;stroke-miterlimit:10;" d="M 276.75 0.75 L 403.25 0.75 L 403.25 95.25 L 276.75 95.25 Z M 276.75 0.75 "/>
<path style="fill:none;stroke-width:1.5;stroke-linecap:butt;stroke-linejoin:miter;stroke:rgb(0%,0%,0%);stroke-opacity:0.2;stroke-dasharray:10,4;stroke-dashoffset:1;stroke-miterlimit:10;" d="M 286 10 L 394 10 L 394 86 L 286 86 Z M 286 10 "/>
<path style="fill:none;stroke-width:1.5;stroke-linecap:butt;stroke-linejoin:miter;stroke:rgb(0%,0%,0%);stroke-opacity:0.266667;stroke-dasharray:10,4;stroke-dashoffset:1;stroke-miterlimit:10;" d="M 414.75 0.75 L 541.25 0.75 L 541.25 95.25 L 414.75 95.25 Z M 414.75 0.75 "/>
<path style="fill:none;stroke-width:1.5;stroke-linecap:butt;stroke-linejoin:miter;stroke:rgb(0%,0%,0%);stroke-opacity:0.2;stroke-dasharray:10,4;stroke-dashoffset:1;stroke-miterlimit:10;" d="M 424 10 L 532 10 L 532 86 L 424 86 Z M 424 10 "/>
<g clip-path="url(#clip1)" clip-rule="nonzero">
<g clip-path="url(#clip2)" clip-rule="nonzero">
<rect x="0" y="0" width="542" height="96" style="fill:rgb(38.039216%,50.588235%,100%);fill-opacity:0.490196;stroke:none;"/>
<path style="fill:none;stroke-width:2;stroke-linecap:butt;stroke-linejoin:miter;stroke:rgb(38.039216%,50.588235%,100%);stroke-opacity:1;stroke-miterlimit:10;" d="M 1 6 C 1 3.238281 3.238281 1 6 1 L 98 1 C 100.761719 1 103 3.238281 103 6 L 103 16 C 103 18.761719 100.761719 21 98 21 L 6 21 C 3.238281 21 1 18.761719 1 16 Z M 1 6 " transform="matrix(1,0,0,1,12,12)"/>
</g>
</g>
<g clip-path="url(#clip3)" clip-rule="nonzero">
<g clip-path="url(#clip4)" clip-rule="nonzero">
<rect x="0" y="0" width="542" height="96" style="fill:rgb(38.039216%,50.588235%,100%);fill-opacity:0.490196;stroke:none;"/>
<path style="fill:none;stroke-width:2;stroke-linecap:butt;stroke-linejoin:miter;stroke:rgb(38.039216%,50.588235%,100%);stroke-opacity:1;stroke-miterlimit:10;" d="M 1 6 C 1 3.238281 3.238281 1 6 1 L 98 1 C 100.761719 1 103 3.238281 103 6 L 103 16 C 103 18.761719 100.761719 21 98 21 L 6 21 C 3.238281 21 1 18.761719 1 16 Z M 1 6 " transform="matrix(1,0,0,1,12,36)"/>
</g>
</g>
<g clip-path="url(#clip5)" clip-rule="nonzero">
<g clip-path="url(#clip6)" clip-rule="nonzero">
<rect x="0" y="0" width="542" height="96" style="fill:rgb(38.039216%,50.588235%,100%);fill-opacity:0.490196;stroke:none;"/>
<path style="fill:none;stroke-width:2;stroke-linecap:butt;stroke-linejoin:miter;stroke:rgb(38.039216%,50.588235%,100%);stroke-opacity:1;stroke-miterlimit:10;" d="M 1 6 C 1 3.238281 3.238281 1 6 1 L 98 1 C 100.761719 1 103 3.238281 103 6 L 103 16 C 103 18.761719 100.761719 21 98 21 L 6 21 C 3.238281 21 1 18.761719 1 16 Z M 1 6 " transform="matrix(1,0,0,1,12,60)"/>
</g>
</g>
<g clip-path="url(#clip7)" clip-rule="nonzero">
<g clip-path="url(#clip8)" clip-rule="nonzero">
<rect x="0" y="0" width="542" height="96" style="fill:rgb(38.039216%,50.588235%,100%);fill-opacity:0.490196;stroke:none;"/>
<path style="fill:none;stroke-width:2;stroke-linecap:butt;stroke-linejoin:miter;stroke:rgb(38.039216%,50.588235%,100%);stroke-opacity:1;stroke-miterlimit:10;" d="M 1 6 C 1 3.238281 3.238281 1 6 1 L 61 1 C 63.761719 1 66 3.238281 66 6 L 66 29 C 66 31.761719 63.761719 34 61 34 L 6 34 C 3.238281 34 1 31.761719 1 29 Z M 1 6 " transform="matrix(1,0,0,1,30.5,30.5)"/>
</g>
</g>
<g clip-path="url(#clip9)" clip-rule="nonzero">
<g clip-path="url(#clip10)" clip-rule="nonzero">
<rect x="0" y="0" width="542" height="96" style="fill:rgb(38.039216%,50.588235%,100%);fill-opacity:0.490196;stroke:none;"/>
<path style="fill:none;stroke-width:2;stroke-linecap:butt;stroke-linejoin:miter;stroke:rgb(38.039216%,50.588235%,100%);stroke-opacity:1;stroke-miterlimit:10;" d="M 1 6 C 1 3.238281 3.238281 1 6 1 L 94 1 C 96.761719 1 99 3.238281 99 6 L 99 14 C 99 16.761719 96.761719 19 94 19 L 6 19 C 3.238281 19 1 16.761719 1 14 Z M 1 6 " transform="matrix(1,0,0,1,152,14)"/>
</g>
</g>
<g clip-path="url(#clip11)" clip-rule="nonzero">
<g clip-path="url(#clip12)" clip-rule="nonzero">
<rect x="0" y="0" width="542" height="96" style="fill:rgb(38.039216%,50.588235%,100%);fill-opacity:0.490196;stroke:none;"/>
<path style="fill:none;stroke-width:2;stroke-linecap:butt;stroke-linejoin:miter;stroke:rgb(38.039216%,50.588235%,100%);stroke-opacity:1;stroke-miterlimit:10;" d="M 1 6 C 1 3.238281 3.238281 1 6 1 L 94 1 C 96.761719 1 99 3.238281 99 6 L 99 14 C 99 16.761719 96.761719 19 94 19 L 6 19 C 3.238281 19 1 16.761719 1 14 Z M 1 6 " transform="matrix(1,0,0,1,152,38)"/>
</g>
</g>
<g clip-path="url(#clip13)" clip-rule="nonzero">
<g clip-path="url(#clip14)" clip-rule="nonzero">
<rect x="0" y="0" width="542" height="96" style="fill:rgb(38.039216%,50.588235%,100%);fill-opacity:0.490196;stroke:none;"/>
<path style="fill:none;stroke-width:2;stroke-linecap:butt;stroke-linejoin:miter;stroke:rgb(38.039216%,50.588235%,100%);stroke-opacity:1;stroke-miterlimit:10;" d="M 1 6 C 1 3.238281 3.238281 1 6 1 L 94 1 C 96.761719 1 99 3.238281 99 6 L 99 14 C 99 16.761719 96.761719 19 94 19 L 6 19 C 3.238281 19 1 16.761719 1 14 Z M 1 6 " transform="matrix(1,0,0,1,152,62)"/>
</g>
</g>
<g clip-path="url(#clip15)" clip-rule="nonzero">
<g clip-path="url(#clip16)" clip-rule="nonzero">
<rect x="0" y="0" width="542" height="96" style="fill:rgb(38.039216%,50.588235%,100%);fill-opacity:0.490196;stroke:none;"/>
<path style="fill:none;stroke-width:2;stroke-linecap:butt;stroke-linejoin:miter;stroke:rgb(38.039216%,50.588235%,100%);stroke-opacity:1;stroke-miterlimit:10;" d="M 1 6 C 1 3.238281 3.238281 1 6 1 L 58 1 C 60.761719 1 63 3.238281 63 6 L 63 26 C 63 28.761719 60.761719 31 58 31 L 6 31 C 3.238281 31 1 28.761719 1 26 Z M 1 6 " transform="matrix(1,0,0,1,170,32)"/>
</g>
</g>
<g clip-path="url(#clip17)" clip-rule="nonzero">
<g clip-path="url(#clip18)" clip-rule="nonzero">
<rect x="0" y="0" width="542" height="96" style="fill:rgb(38.039216%,50.588235%,100%);fill-opacity:0.490196;stroke:none;"/>
<path style="fill:none;stroke-width:2;stroke-linecap:butt;stroke-linejoin:miter;stroke:rgb(38.039216%,50.588235%,100%);stroke-opacity:1;stroke-miterlimit:10;" d="M 1 6 C 1 3.238281 3.238281 1 6 1 L 90 1 C 92.761719 1 95 3.238281 95 6 L 95 11 C 95 13.761719 92.761719 16 90 16 L 6 16 C 3.238281 16 1 13.761719 1 11 Z M 1 6 " transform="matrix(1,0,0,1,292,16)"/>
</g>
</g>
<g clip-path="url(#clip19)" clip-rule="nonzero">
<g clip-path="url(#clip20)" clip-rule="nonzero">
<rect x="0" y="0" width="542" height="96" style="fill:rgb(38.039216%,50.588235%,100%);fill-opacity:0.490196;stroke:none;"/>
<path style="fill:none;stroke-width:2;stroke-linecap:butt;stroke-linejoin:miter;stroke:rgb(38.039216%,50.588235%,100%);stroke-opacity:1;stroke-miterlimit:10;" d="M 1 6 C 1 3.238281 3.238281 1 6 1 L 90 1 C 92.761719 1 95 3.238281 95 6 L 95 11 C 95 13.761719 92.761719 16 90 16 L 6 16 C 3.238281 16 1 13.761719 1 11 Z M 1 6 " transform="matrix(1,0,0,1,292,39)"/>
</g>
</g>
<g clip-path="url(#clip21)" clip-rule="nonzero">
<g clip-path="url(#clip22)" clip-rule="nonzero">
<rect x="0" y="0" width="542" height="96" style="fill:rgb(38.039216%,50.588235%,100%);fill-opacity:0.490196;stroke:none;"/>
<path style="fill:none;stroke-width:2;stroke-linecap:butt;stroke-linejoin:miter;stroke:rgb(38.039216%,50.588235%,100%);stroke-opacity:1;stroke-miterlimit:10;" d="M 1 6 C 1 3.238281 3.238281 1 6 1 L 90 1 C 92.761719 1 95 3.238281 95 6 L 95 11 C 95 13.761719 92.761719 16 90 16 L 6 16 C 3.238281 16 1 13.761719 1 11 Z M 1 6 " transform="matrix(1,0,0,1,292,62)"/>
</g>
</g>
<g clip-path="url(#clip23)" clip-rule="nonzero">
<g clip-path="url(#clip24)" clip-rule="nonzero">
<rect x="0" y="0" width="542" height="96" style="fill:rgb(38.039216%,50.588235%,100%);fill-opacity:0.490196;stroke:none;"/>
<path style="fill:none;stroke-width:2;stroke-linecap:butt;stroke-linejoin:miter;stroke:rgb(38.039216%,50.588235%,100%);stroke-opacity:1;stroke-miterlimit:10;" d="M 1 6 C 1 3.238281 3.238281 1 6 1 L 55 1 C 57.761719 1 60 3.238281 60 6 L 60 23 C 60 25.761719 57.761719 28 55 28 L 6 28 C 3.238281 28 1 25.761719 1 23 Z M 1 6 " transform="matrix(1,0,0,1,309.5,33.5)"/>
</g>
</g>
<g clip-path="url(#clip25)" clip-rule="nonzero">
<g clip-path="url(#clip26)" clip-rule="nonzero">
<rect x="0" y="0" width="542" height="96" style="fill:rgb(38.039216%,50.588235%,100%);fill-opacity:0.490196;stroke:none;"/>
<path style="fill:none;stroke-width:2;stroke-linecap:butt;stroke-linejoin:miter;stroke:rgb(38.039216%,50.588235%,100%);stroke-opacity:1;stroke-miterlimit:10;" d="M 1 6 C 1 3.238281 3.238281 1 6 1 L 86 1 C 88.761719 1 91 3.238281 91 6 L 91 8 C 91 10.761719 88.761719 13 86 13 L 6 13 C 3.238281 13 1 10.761719 1 8 Z M 1 6 " transform="matrix(1,0,0,1,432,18)"/>
</g>
</g>
<g clip-path="url(#clip27)" clip-rule="nonzero">
<g clip-path="url(#clip28)" clip-rule="nonzero">
<rect x="0" y="0" width="542" height="96" style="fill:rgb(38.039216%,50.588235%,100%);fill-opacity:0.490196;stroke:none;"/>
<path style="fill:none;stroke-width:2;stroke-linecap:butt;stroke-linejoin:miter;stroke:rgb(38.039216%,50.588235%,100%);stroke-opacity:1;stroke-miterlimit:10;" d="M 1 6 C 1 3.238281 3.238281 1 6 1 L 86 1 C 88.761719 1 91 3.238281 91 6 L 91 8 C 91 10.761719 88.761719 13 86 13 L 6 13 C 3.238281 13 1 10.761719 1 8 Z M 1 6 " transform="matrix(1,0,0,1,432,40)"/>
</g>
</g>
<g clip-path="url(#clip29)" clip-rule="nonzero">
<g clip-path="url(#clip30)" clip-rule="nonzero">
<rect x="0" y="0" width="542" height="96" style="fill:rgb(38.039216%,50.588235%,100%);fill-opacity:0.490196;stroke:none;"/>
<path style="fill:none;stroke-width:2;stroke-linecap:butt;stroke-linejoin:miter;stroke:rgb(38.039216%,50.588235%,100%);stroke-opacity:1;stroke-miterlimit:10;" d="M 1 6 C 1 3.238281 3.238281 1 6 1 L 86 1 C 88.761719 1 91 3.238281 91 6 L 91 8 C 91 10.761719 88.761719 13 86 13 L 6 13 C 3.238281 13 1 10.761719 1 8 Z M 1 6 " transform="matrix(1,0,0,1,432,62)"/>
</g>
</g>
<g clip-path="url(#clip31)" clip-rule="nonzero">
<g clip-path="url(#clip32)" clip-rule="nonzero">
<rect x="0" y="0" width="542" height="96" style="fill:rgb(38.039216%,50.588235%,100%);fill-opacity:0.490196;stroke:none;"/>
<path style="fill:none;stroke-width:2;stroke-linecap:butt;stroke-linejoin:miter;stroke:rgb(38.039216%,50.588235%,100%);stroke-opacity:1;stroke-miterlimit:10;" d="M 1 6 C 1 3.238281 3.238281 1 6 1 L 52 1 C 54.761719 1 57 3.238281 57 6 L 57 20 C 57 22.761719 54.761719 25 52 25 L 6 25 C 3.238281 25 1 22.761719 1 20 Z M 1 6 " transform="matrix(1,0,0,1,449,35)"/>
</g>
</g>
</g>
</svg>
