<?xml version="1.0" encoding="UTF-8"?>
<svg xmlns="http://www.w3.org/2000/svg" xmlns:xlink="http://www.w3.org/1999/xlink" width="360pt" height="48pt" viewBox="0 0 360 48" version="1.1">
<g id="surface2">
<path style="fill:none;stroke-width:1.5;stroke-linecap:butt;stroke-linejoin:miter;stroke:rgb(0%,0%,0%);stroke-opacity:0.266667;stroke-dasharray:10,4;stroke-dashoffset:1;stroke-miterlimit:10;" d="M 0.75 0.75 L 63.25 0.75 L 63.25 47.25 L 0.75 47.25 Z M 0.75 0.75 "/>
<path style="fill:none;stroke-width:1.5;stroke-linecap:butt;stroke-linejoin:miter;stroke:rgb(0%,0%,0%);stroke-opacity:0.2;stroke-dasharray:10,4;stroke-dashoffset:1;stroke-miterlimit:10;" d="M 3 3 L 61 3 L 61 45 L 3 45 Z M 3 3 "/>
<path style="fill:none;stroke-width:1.5;stroke-linecap:butt;stroke-linejoin:miter;stroke:rgb(0%,0%,0%);stroke-opacity:0.266667;stroke-dasharray:10,4;stroke-dashoffset:1;stroke-miterlimit:10;" d="M 74.75 0.75 L 137.25 0.75 L 137.25 47.25 L 74.75 47.25 Z M 74.75 0.75 "/>
<path style="fill:none;stroke-width:1.5;stroke-linecap:butt;stroke-linejoin:miter;stroke:rgb(0%,0%,0%);stroke-opacity:0.2;stroke-dasharray:10,4;stroke-dashoffset:1;stroke-miterlimit:10;" d="M 77 3 L 135 3 L 135 45 L 77 45 Z M 77 3 "/>
<path style="fill:none;stroke-width:1.5;stroke-linecap:butt;stroke-linejoin:miter;stroke:rgb(0%,0%,0%);stroke-opacity:0.266667;stroke-dasharray:10,4;stroke-dashoffset:1;stroke-miterlimit:10;" d="M 148.75 0.75 L 211.25 0.75 L 211.25 47.25 L 148.75 47.25 Z M 148.75 0.75 "/>
<path style="fill:none;stroke-width:1.5;stroke-linecap:butt;stroke-linejoin:miter;stroke:rgb(0%,0%,0%);stroke-opacity:0.2;stroke-dasharray:10,4;stroke-dashoffset:1;stroke-miterlimit:10;" d="M 151 3 L 209 3 L 209 45 L 151 45 Z M 151 3 "/>
<path style="fill:none;stroke-width:1.5;stroke-linecap:butt;stroke-linejoin:miter;stroke:rgb(0%,0%,0%);stroke-opacity:0.266667;stroke-dasharray:10,4;stroke-dashoffset:1;stroke-miterlimit:10;" d="M 222.75 0.75 L 285.25 0.75 L 285.25 47.25 L 222.75 47.25 Z M 222.75 0.75 "/>
<path style="fill:none;stroke-width:1.5;stroke-linecap:butt;stroke-linejoin:miter;stroke:rgb(0%,0%,0%);stroke-opacity:0.2;stroke-dasharray:10,4;stroke-dashoffset:1;stroke-miterlimit:10;" d="M 225 3 L 283 3 L 283 45 L 225 45 Z M 225 3 "/>
<path style="fill:none;stroke-width:1.5;stroke-linecap:butt;stroke-linejoin:miter;stroke:rgb(0%,0%,0%);stroke-opacity:0.266667;stroke-dasharray:10,4;stroke-dashoffset:1;stroke-miterlimit:10;" d="M 296.75 0.75 L 359.25 0.75 L 359.25 47.25 L 296.75 47.25 Z M 296.75 0.75 "/>
<path style="fill:none;stroke-width:1.5;stroke-linecap:butt;stroke-linejoin:miter;stroke:rgb(0%,0%,0%);stroke-opacity:0.2;stroke-dasharray:10,4;stroke-dashoffset:1;stroke-miterlimit:10;" d="M 299 3 L 357 3 L 357 45 L 299 45 Z M 299 3 "/>
<path style="fill:none;stroke-width:1.5;stroke-linecap:butt;stroke-linejoin:miter;stroke:rgb(38.039216%,50.588235%,100%);stroke-opacity:1;stroke-miterlimit:10;" d="M 0 2 C 0 0.894531 0.894531 0 2 0 L 25 0 C 26.105469 0 27 0.894531 27 2 L 27 38 C 27 39.105469 26.105469 40 25 40 L 2 40 C 0.894531 40 0 39.105469 0 38 Z M 0 2 " transform="matrix(1,0,0,1,3,3)"/>
<path style=" stroke:none;fill-rule:nonzero;fill:rgb(38.039216%,50.588235%,100%);fill-opacity:0.490196;" d="M 3 5 C 3 3.894531 3.894531 3 5 3 L 28 3 C 29.105469 3 30 3.894531 30 5 L 30 41 C 30 42.105469 29.105469 43 28 43 L 5 43 C 3.894531 43 3 42.105469 3 41 Z M 3 5 "/>
<path style="fill:none;stroke-width:1.5;stroke-linecap:butt;stroke-linejoin:miter;stroke:rgb(38.039216%,50.588235%,100%);stroke-opacity:1;stroke-miterlimit:10;" d="M 0 2 C 0 0.894531 0.894531 0 2 0 L 25 0 C 26.105469 0 27 0.894531 27 2 L 27 17 C 27 18.105469 26.105469 19 25 19 L 2 19 C 0.894531 19 0 18.105469 0 17 Z M 0 2 " transform="matrix(1,0,0,1,77,3)"/>
<path style=" stroke:none;fill-rule:nonzero;fill:rgb(38.039216%,50.588235%,100%);fill-opacity:0.490196;" d="M 77 5 C 77 3.894531 77.894531 3 79 3 L 102 3 C 103.105469 3 104 3.894531 104 5 L 104 20 C 104 21.105469 103.105469 22 102 22 L 79 22 C 77.894531 22 77 21.105469 77 20 Z M 77 5 "/>
<path style="fill:none;stroke-width:1.5;stroke-linecap:butt;stroke-linejoin:miter;stroke:rgb(38.039216%,50.588235%,100%);stroke-opacity:1;stroke-miterlimit:10;" d="M 0 2 C 0 0.894531 0.894531 0 2 0 L 25 0 C 26.105469 0 27 0.894531 27 2 L 27 17 C 27 18.105469 26.105469 19 25 19 L 2 19 C 0.894531 19 0 18.105469 0 17 Z M 0 2 " transform="matrix(1,0,0,1,77,24)"/>
<path style=" stroke:none;fill-rule:nonzero;fill:rgb(38.039216%,50.588235%,100%);fill-opacity:0.490196;" d="M 77 26 C 77 24.894531 77.894531 24 79 24 L 102 24 C 103.105469 24 104 24.894531 104 26 L 104 41 C 104 42.105469 103.105469 43 102 43 L 79 43 C 77.894531 43 77 42.105469 77 41 Z M 77 26 "/>
<path style="fill:none;stroke-width:1.5;stroke-linecap:butt;stroke-linejoin:miter;stroke:rgb(38.039216%,50.588235%,100%);stroke-opacity:1;stroke-miterlimit:10;" d="M 0 2 C 0 0.894531 0.894531 0 2 0 L 25 0 C 26.105469 0 27 0.894531 27 2 L 27 17 C 27 18.105469 26.105469 19 25 19 L 2 19 C 0.894531 19 0 18.105469 0 17 Z M 0 2 " transform="matrix(1,0,0,1,151,3)"/>
<path style=" stroke:none;fill-rule:nonzero;fill:rgb(38.039216%,50.588235%,100%);fill-opacity:0.490196;" d="M 151 5 C 151 3.894531 151.894531 3 153 3 L 176 3 C 177.105469 3 178 3.894531 178 5 L 178 20 C 178 21.105469 177.105469 22 176 22 L 153 22 C 151.894531 22 151 21.105469 151 20 Z M 151 5 "/>
<path style="fill:none;stroke-width:1.5;stroke-linecap:butt;stroke-linejoin:miter;stroke:rgb(38.039216%,50.588235%,100%);stroke-opacity:1;stroke-miterlimit:10;" d="M 0 2 C 0 0.894531 0.894531 0 2 0 L 25 0 C 26.105469 0 27 0.894531 27 2 L 27 17 C 27 18.105469 26.105469 19 25 19 L 2 19 C 0.894531 19 0 18.105469 0 17 Z M 0 2 " transform="matrix(1,0,0,1,151,24)"/>
<path style=" stroke:none;fill-rule:nonzero;fill:rgb(38.039216%,50.588235%,100%);fill-opacity:0.490196;" d="M 151 26 C 151 24.894531 151.894531 24 153 24 L 176 24 C 177.105469 24 178 24.894531 178 26 L 178 41 C 178 42.105469 177.105469 43 176 43 L 153 43 C 151.894531 43 151 42.105469 151 41 Z M 151 26 "/>
<path style="fill:none;stroke-width:1.5;stroke-linecap:butt;stroke-linejoin:miter;stroke:rgb(38.039216%,50.588235%,100%);stroke-opacity:1;stroke-miterlimit:10;" d="M 0 2 C 0 0.894531 0.894531 0 2 0 L 19 0 C 20.105469 0 21 0.894531 21 2 L 21 32 C 21 33.105469 20.105469 34 19 34 L 2 34 C 0.894531 34 0 33.105469 0 32 Z M 0 2 " transform="matrix(1,0,0,1,183,6)"/>
<path style=" stroke:none;fill-rule:nonzero;fill:rgb(38.039216%,50.588235%,100%);fill-opacity:0.490196;" d="M 183 8 C 183 6.894531 183.894531 6 185 6 L 202 6 C 203.105469 6 204 6.894531 204 8 L 204 38 C 204 39.105469 203.105469 40 202 40 L 185 40 C 183.894531 40 183 39.105469 183 38 Z M 183 8 "/>
<path style="fill:none;stroke-width:1.5;stroke-linecap:butt;stroke-linejoin:miter;stroke:rgb(38.039216%,50.588235%,100%);stroke-opacity:1;stroke-miterlimit:10;" d="M 0 2 C 0 0.894531 0.894531 0 2 0 L 25 0 C 26.105469 0 27 0.894531 27 2 L 27 17 C 27 18.105469 26.105469 19 25 19 L 2 19 C 0.894531 19 0 18.105469 0 17 Z M 0 2 " transform="matrix(1,0,0,1,225,3)"/>
<path style=" stroke:none;fill-rule:nonzero;fill:rgb(38.039216%,50.588235%,100%);fill-opacity:0.490196;" d="M 225 5 C 225 3.894531 225.894531 3 227 3 L 250 3 C 251.105469 3 252 3.894531 252 5 L 252 20 C 252 21.105469 251.105469 22 250 22 L 227 22 C 225.894531 22 225 21.105469 225 20 Z M 225 5 "/>
<path style="fill:none;stroke-width:1.5;stroke-linecap:butt;stroke-linejoin:miter;stroke:rgb(38.039216%,50.588235%,100%);stroke-opacity:1;stroke-miterlimit:10;" d="M 0 2 C 0 0.894531 0.894531 0 2 0 L 25 0 C 26.105469 0 27 0.894531 27 2 L 27 17 C 27 18.105469 26.105469 19 25 19 L 2 19 C 0.894531 19 0 18.105469 0 17 Z M 0 2 " transform="matrix(1,0,0,1,225,24)"/>
<path style=" stroke:none;fill-rule:nonzero;fill:rgb(38.039216%,50.588235%,100%);fill-opacity:0.490196;" d="M 225 26 C 225 24.894531 225.894531 24 227 24 L 250 24 C 251.105469 24 252 24.894531 252 26 L 252 41 C 252 42.105469 251.105469 43 250 43 L 227 43 C 225.894531 43 225 42.105469 225 41 Z M 225 26 "/>
<path style="fill:none;stroke-width:1.5;stroke-linecap:butt;stroke-linejoin:miter;stroke:rgb(38.039216%,50.588235%,100%);stroke-opacity:1;stroke-miterlimit:10;" d="M 0 2 C 0 0.894531 0.894531 0 2 0 L 19 0 C 20.105469 0 21 0.894531 21 2 L 21 14 C 21 15.105469 20.105469 16 19 16 L 2 16 C 0.894531 16 0 15.105469 0 14 Z M 0 2 " transform="matrix(1,0,0,1,257,6)"/>
<path style=" stroke:none;fill-rule:nonzero;fill:rgb(38.039216%,50.588235%,100%);fill-opacity:0.490196;" d="M 257 8 C 257 6.894531 257.894531 6 259 6 L 276 6 C 277.105469 6 278 6.894531 278 8 L 278 20 C 278 21.105469 277.105469 22 276 22 L 259 22 C 257.894531 22 257 21.105469 257 20 Z M 257 8 "/>
<path style="fill:none;stroke-width:1.5;stroke-linecap:butt;stroke-linejoin:miter;stroke:rgb(38.039216%,50.588235%,100%);stroke-opacity:1;stroke-miterlimit:10;" d="M 0 2 C 0 0.894531 0.894531 0 2 0 L 19 0 C 20.105469 0 21 0.894531 21 2 L 21 14 C 21 15.105469 20.105469 16 19 16 L 2 16 C 0.894531 16 0 15.105469 0 14 Z M 0 2 " transform="matrix(1,0,0,1,257,24)"/>
<path style=" stroke:none;fill-rule:nonzero;fill:rgb(38.039216%,50.588235%,100%);fill-opacity:0.490196;" d="M 257 26 C 257 24.894531 257.894531 24 259 24 L 276 24 C 277.105469 24 278 24.894531 278 26 L 278 38 C 278 39.105469 277.105469 40 276 40 L 259 40 C 257.894531 40 257 39.105469 257 38 Z M 257 26 "/>
<path style="fill:none;stroke-width:1.5;stroke-linecap:butt;stroke-linejoin:miter;stroke:rgb(38.039216%,50.588235%,100%);stroke-opacity:1;stroke-miterlimit:10;" d="M 0 2 C 0 0.894531 0.894531 0 2 0 L 25 0 C 26.105469 0 27 0.894531 27 2 L 27 17 C 27 18.105469 26.105469 19 25 19 L 2 19 C 0.894531 19 0 18.105469 0 17 Z M 0 2 " transform="matrix(1,0,0,1,299,3)"/>
<path style=" stroke:none;fill-rule:nonzero;fill:rgb(38.039216%,50.588235%,100%);fill-opacity:0.490196;" d="M 299 5 C 299 3.894531 299.894531 3 301 3 L 324 3 C 325.105469 3 326 3.894531 326 5 L 326 20 C 326 21.105469 325.105469 22 324 22 L 301 22 C 299.894531 22 299 21.105469 299 20 Z M 299 5 "/>
<path style="fill:none;stroke-width:1.5;stroke-linecap:butt;stroke-linejoin:miter;stroke:rgb(38.039216%,50.588235%,100%);stroke-opacity:1;stroke-miterlimit:10;" d="M 0 2 C 0 0.894531 0.894531 0 2 0 L 25 0 C 26.105469 0 27 0.894531 27 2 L 27 17 C 27 18.105469 26.105469 19 25 19 L 2 19 C 0.894531 19 0 18.105469 0 17 Z M 0 2 " transform="matrix(1,0,0,1,299,24)"/>
<path style=" stroke:none;fill-rule:nonzero;fill:rgb(38.039216%,50.588235%,100%);fill-opacity:0.490196;" d="M 299 26 C 299 24.894531 299.894531 24 301 24 L 324 24 C 325.105469 24 326 24.894531 326 26 L 326 41 C 326 42.105469 325.105469 43 324 43 L 301 43 C 299.894531 43 299 42.105469 299 41 Z M 299 26 "/>
<path style="fill:none;stroke-width:1.5;stroke-linecap:butt;stroke-linejoin:miter;stroke:rgb(38.039216%,50.588235%,100%);stroke-opacity:1;stroke-miterlimit:10;" d="M 0 2 C 0 0.894531 0.894531 0 2 0 L 19 0 C 20.105469 0 21 0.894531 21 2 L 21 8 C 21 9.105469 20.105469 10 19 10 L 2 10 C 0.894531 10 0 9.105469 0 8 Z M 0 2 " transform="matrix(1,0,0,1,331,6)"/>
<path style=" stroke:none;fill-rule:nonzero;fill:rgb(38.039216%,50.588235%,100%);fill-opacity:0.490196;" d="M 331 8 C 331 6.894531 331.894531 6 333 6 L 350 6 C 351.105469 6 352 6.894531 352 8 L 352 14 C 352 15.105469 351.105469 16 350 16 L 333 16 C 331.894531 16 331 15.105469 331 14 Z M 331 8 "/>
<path style="fill:none;stroke-width:1.5;stroke-linecap:butt;stroke-linejoin:miter;stroke:rgb(38.039216%,50.588235%,100%);stroke-opacity:1;stroke-miterlimit:10;" d="M 0 2 C 0 0.894531 0.894531 0 2 0 L 19 0 C 20.105469 0 21 0.894531 21 2 L 21 8 C 21 9.105469 20.105469 10 19 10 L 2 10 C 0.894531 10 0 9.105469 0 8 Z M 0 2 " transform="matrix(1,0,0,1,331,18)"/>
<path style=" stroke:none;fill-rule:nonzero;fill:rgb(38.039216%,50.588235%,100%);fill-opacity:0.490196;" d="M 331 20 C 331 18.894531 331.894531 18 333 18 L 350 18 C 351.105469 18 352 18.894531 352 20 L 352 26 C 352 27.105469 351.105469 28 350 28 L 333 28 C 331.894531 28 331 27.105469 331 26 Z M 331 20 "/>
<path style="fill:none;stroke-width:1.5;stroke-linecap:butt;stroke-linejoin:miter;stroke:rgb(38.039216%,50.588235%,100%);stroke-opacity:1;stroke-miterlimit:10;" d="M 0 2 C 0 0.894531 0.894531 0 2 0 L 19 0 C 20.105469 0 21 0.894531 21 2 L 21 8 C 21 9.105469 20.105469 10 19 10 L 2 10 C 0.894531 10 0 9.105469 0 8 Z M 0 2 " transform="matrix(1,0,0,1,331,30)"/>
<path style=" stroke:none;fill-rule:nonzero;fill:rgb(38.039216%,50.588235%,100%);fill-opacity:0.490196;" d="M 331 32 C 331 30.894531 331.894531 30 333 30 L 350 30 C 351.105469 30 352 30.894531 352 32 L 352 38 C 352 39.105469 351.105469 40 350 40 L 333 40 C 331.894531 40 331 39.105469 331 38 Z M 331 32 "/>
</g>
</svg>
