<?xml version="1.0" encoding="UTF-8"?>
<svg xmlns="http://www.w3.org/2000/svg" xmlns:xlink="http://www.w3.org/1999/xlink" width="542pt" height="96pt" viewBox="0 0 542 96" version="1.1">
<g id="surface2">
<path style="fill:none;stroke-width:1.5;stroke-linecap:butt;stroke-linejoin:miter;stroke:rgb(0%,0%,0%);stroke-opacity:0.266667;stroke-dasharray:10,4;stroke-dashoffset:1;stroke-miterlimit:10;" d="M 0.75 0.75 L 127.25 0.75 L 127.25 95.25 L 0.75 95.25 Z M 0.75 0.75 "/>
<path style="fill:none;stroke-width:1.5;stroke-linecap:butt;stroke-linejoin:miter;stroke:rgb(0%,0%,0%);stroke-opacity:0.2;stroke-dasharray:10,4;stroke-dashoffset:1;stroke-miterlimit:10;" d="M 10 10 L 118 10 L 118 86 L 10 86 Z M 10 10 "/>
<path style="fill:none;stroke-width:1.5;stroke-linecap:butt;stroke-linejoin:miter;stroke:rgb(0%,0%,0%);stroke-opacity:0.266667;stroke-dasharray:10,4;stroke-dashoffset:1;stroke-miterlimit:10;" d="M 138.75 0.75 L 265.25 0.75 L 265.25 95.25 L 138.75 95.25 Z M 138.75 0.75 "/>
<path style="fill:none;stroke-width:1.5;stroke-linecap:butt;stroke-linejoin:miter;stroke:rgb(0%,0%,0%);stroke-opacity:0.2;stroke-dasharray:10,4;stroke-dashoffset:1;stroke-miterlimit:10;" d="M 148 10 L 256 10 L 256 86 L 148 86 Z M 148 10 "/>
<path style="fill:none;stroke-width:1.5;stroke-linecap:butt;stroke-linejoin:miter;stroke:rgb(0%,0%,0%);stroke-opacity:0.266667;stroke-dasharray:10,4;stroke-dashoffset:1;stroke-miterlimit:10;" d="M 276.75 0.75 L 403.25 0.75 L 403.25 95.25 L 276.75 95.25 Z M 276.75 0.75 "/>
<path style="fill:none;stroke-width:1.5;stroke-linecap:butt;stroke-linejoin:miter;stroke:rgb(0%,0%,0%);stroke-opacity:0.2;stroke-dasharray:10,4;stroke-dashoffset:1;stroke-miterlimit:10;" d="M 286 10 L 394 10 L 394 86 L 286 86 Z M 286 10 "/>
<path style="fill:none;stroke-width:1.5;stroke-linecap:butt;stroke-linejoin:miter;stroke:rgb(0%,0%,0%);stroke-opacity:0.266667;stroke-dasharray:10,4;stroke-dashoffset:1;stroke-miterlimit:10;" d="M 414.75 0.75 L 541.25 0.75 L 541.25 95.25 L 414.75 95.25 Z M 414.75 0.75 "/>
<path style="fill:none;stroke-width:1.5;stroke-linecap:butt;stroke-linejoin:miter;stroke:rgb(0%,0%,0%);stroke-opacity:0.2;stroke-dasharray:10,4;stroke-dashoffset:1;stroke-miterlimit:10;" d="M 424 10 L 532 10 L 532 86 L 424 86 Z M 424 10 "/>
<path style="fill:none;stroke-width:1.5;stroke-linecap:butt;stroke-linejoin:miter;stroke:rgb(38.039216%,50.588235%,100%);stroke-opacity:1;stroke-miterlimit:10;" d="M 0 5 C 0 2.238281 2.238281 0 5 0 L 60 0 C 62.761719 0 65 2.238281 65 5 L 65 39 C 65 41.761719 62.761719 44 60 44 L 5 44 C 2.238281 44 0 41.761719 0 39 Z M 0 5 " transform="matrix(1,0,0,1,12,12)"/>
<path style=" stroke:none;fill-rule:nonzero;fill:rgb(38.039216%,50.588235%,100%);fill-opacity:0.490196;" d="M 12 17 C 12 14.238281 14.238281 12 17 12 L 72 12 C 74.761719 12 77 14.238281 77 17 L 77 51 C 77 53.761719 74.761719 56 72 56 L 17 56 C 14.238281 56 12 53.761719 12 51 Z M 12 17 "/>
<path style="fill:none;stroke-width:1.5;stroke-linecap:butt;stroke-linejoin:miter;stroke:rgb(38.039216%,50.588235%,100%);stroke-opacity:1;stroke-miterlimit:10;" d="M 0 5 C 0 2.238281 2.238281 0 5 0 L 60 0 C 62.761719 0 65 2.238281 65 5 L 65 16 C 65 18.761719 62.761719 21 60 21 L 5 21 C 2.238281 21 0 18.761719 0 16 Z M 0 5 " transform="matrix(1,0,0,1,12,60)"/>
<path style=" stroke:none;fill-rule:nonzero;fill:rgb(38.039216%,50.588235%,100%);fill-opacity:0.490196;" d="M 12 65 C 12 62.238281 14.238281 60 17 60 L 72 60 C 74.761719 60 77 62.238281 77 65 L 77 76 C 77 78.761719 74.761719 81 72 81 L 17 81 C 14.238281 81 12 78.761719 12 76 Z M 12 65 "/>
<path style="fill:none;stroke-width:1.5;stroke-linecap:butt;stroke-linejoin:miter;stroke:rgb(38.039216%,50.588235%,100%);stroke-opacity:1;stroke-miterlimit:10;" d="M 0 5 C 0 2.238281 2.238281 0 5 0 L 27 0 C 29.761719 0 32 2.238281 32 5 L 32 39 C 32 41.761719 29.761719 44 27 44 L 5 44 C 2.238281 44 0 41.761719 0 39 Z M 0 5 " transform="matrix(1,0,0,1,81,12)"/>
<path style=" stroke:none;fill-rule:nonzero;fill:rgb(38.039216%,50.588235%,100%);fill-opacity:0.490196;" d="M 81 17 C 81 14.238281 83.238281 12 86 12 L 108 12 C 110.761719 12 113 14.238281 113 17 L 113 51 C 113 53.761719 110.761719 56 108 56 L 86 56 C 83.238281 56 81 53.761719 81 51 Z M 81 17 "/>
<path style="fill:none;stroke-width:1.5;stroke-linecap:butt;stroke-linejoin:miter;stroke:rgb(38.039216%,50.588235%,100%);stroke-opacity:1;stroke-miterlimit:10;" d="M 0 5 C 0 2.238281 2.238281 0 5 0 L 27 0 C 29.761719 0 32 2.238281 32 5 L 32 16 C 32 18.761719 29.761719 21 27 21 L 5 21 C 2.238281 21 0 18.761719 0 16 Z M 0 5 " transform="matrix(1,0,0,1,81,60)"/>
<path style=" stroke:none;fill-rule:nonzero;fill:rgb(38.039216%,50.588235%,100%);fill-opacity:0.490196;" d="M 81 65 C 81 62.238281 83.238281 60 86 60 L 108 60 C 110.761719 60 113 62.238281 113 65 L 113 76 C 113 78.761719 110.761719 81 108 81 L 86 81 C 83.238281 81 81 78.761719 81 76 Z M 81 65 "/>
<path style="fill:none;stroke-width:1.5;stroke-linecap:butt;stroke-linejoin:miter;stroke:rgb(38.039216%,50.588235%,100%);stroke-opacity:1;stroke-miterlimit:10;" d="M 0 5 C 0 2.238281 2.238281 0 5 0 L 57 0 C 59.761719 0 62 2.238281 62 5 L 62 36 C 62 38.761719 59.761719 41 57 41 L 5 41 C 2.238281 41 0 38.761719 0 36 Z M 0 5 " transform="matrix(1,0,0,1,152,14)"/>
<path style=" stroke:none;fill-rule:nonzero;fill:rgb(38.039216%,50.588235%,100%);fill-opacity:0.490196;" d="M 152 19 C 152 16.238281 154.238281 14 157 14 L 209 14 C 211.761719 14 214 16.238281 214 19 L 214 50 C 214 52.761719 211.761719 55 209 55 L 157 55 C 154.238281 55 152 52.761719 152 50 Z M 152 19 "/>
<path style="fill:none;stroke-width:1.5;stroke-linecap:butt;stroke-linejoin:miter;stroke:rgb(38.039216%,50.588235%,100%);stroke-opacity:1;stroke-miterlimit:10;" d="M 0 5 C 0 2.238281 2.238281 0 5 0 L 57 0 C 59.761719 0 62 2.238281 62 5 L 62 13 C 62 15.761719 59.761719 18 57 18 L 5 18 C 2.238281 18 0 15.761719 0 13 Z M 0 5 " transform="matrix(1,0,0,1,152,61)"/>
<path style=" stroke:none;fill-rule:nonzero;fill:rgb(38.039216%,50.588235%,100%);fill-opacity:0.490196;" d="M 152 66 C 152 63.238281 154.238281 61 157 61 L 209 61 C 211.761719 61 214 63.238281 214 66 L 214 74 C 214 76.761719 211.761719 79 209 79 L 157 79 C 154.238281 79 152 76.761719 152 74 Z M 152 66 "/>
<path style="fill:none;stroke-width:1.5;stroke-linecap:butt;stroke-linejoin:miter;stroke:rgb(38.039216%,50.588235%,100%);stroke-opacity:1;stroke-miterlimit:10;" d="M 0 5 C 0 2.238281 2.238281 0 5 0 L 24 0 C 26.761719 0 29 2.238281 29 5 L 29 36 C 29 38.761719 26.761719 41 24 41 L 5 41 C 2.238281 41 0 38.761719 0 36 Z M 0 5 " transform="matrix(1,0,0,1,220,14)"/>
<path style=" stroke:none;fill-rule:nonzero;fill:rgb(38.039216%,50.588235%,100%);fill-opacity:0.490196;" d="M 220 19 C 220 16.238281 222.238281 14 225 14 L 244 14 C 246.761719 14 249 16.238281 249 19 L 249 50 C 249 52.761719 246.761719 55 244 55 L 225 55 C 222.238281 55 220 52.761719 220 50 Z M 220 19 "/>
<path style="fill:none;stroke-width:1.5;stroke-linecap:butt;stroke-linejoin:miter;stroke:rgb(38.039216%,50.588235%,100%);stroke-opacity:1;stroke-miterlimit:10;" d="M 0 5 C 0 2.238281 2.238281 0 5 0 L 24 0 C 26.761719 0 29 2.238281 29 5 L 29 13 C 29 15.761719 26.761719 18 24 18 L 5 18 C 2.238281 18 0 15.761719 0 13 Z M 0 5 " transform="matrix(1,0,0,1,220,61)"/>
<path style=" stroke:none;fill-rule:nonzero;fill:rgb(38.039216%,50.588235%,100%);fill-opacity:0.490196;" d="M 220 66 C 220 63.238281 222.238281 61 225 61 L 244 61 C 246.761719 61 249 63.238281 249 66 L 249 74 C 249 76.761719 246.761719 79 244 79 L 225 79 C 222.238281 79 220 76.761719 220 74 Z M 220 66 "/>
<path style="fill:none;stroke-width:1.5;stroke-linecap:butt;stroke-linejoin:miter;stroke:rgb(38.039216%,50.588235%,100%);stroke-opacity:1;stroke-miterlimit:10;" d="M 0 5 C 0 2.238281 2.238281 0 5 0 L 54 0 C 56.761719 0 59 2.238281 59 5 L 59 33 C 59 35.761719 56.761719 38 54 38 L 5 38 C 2.238281 38 0 35.761719 0 33 Z M 0 5 " transform="matrix(1,0,0,1,292,16)"/>
<path style=" stroke:none;fill-rule:nonzero;fill:rgb(38.039216%,50.588235%,100%);fill-opacity:0.490196;" d="M 292 21 C 292 18.238281 294.238281 16 297 16 L 346 16 C 348.761719 16 351 18.238281 351 21 L 351 49 C 351 51.761719 348.761719 54 346 54 L 297 54 C 294.238281 54 292 51.761719 292 49 Z M 292 21 "/>
<path style="fill:none;stroke-width:1.5;stroke-linecap:butt;stroke-linejoin:miter;stroke:rgb(38.039216%,50.588235%,100%);stroke-opacity:1;stroke-miterlimit:10;" d="M 0 5 C 0 2.238281 2.238281 0 5 0 L 54 0 C 56.761719 0 59 2.238281 59 5 L 59 10 C 59 12.761719 56.761719 15 54 15 L 5 15 C 2.238281 15 0 12.761719 0 10 Z M 0 5 " transform="matrix(1,0,0,1,292,62)"/>
<path style=" stroke:none;fill-rule:nonzero;fill:rgb(38.039216%,50.588235%,100%);fill-opacity:0.490196;" d="M 292 67 C 292 64.238281 294.238281 62 297 62 L 346 62 C 348.761719 62 351 64.238281 351 67 L 351 72 C 351 74.761719 348.761719 77 346 77 L 297 77 C 294.238281 77 292 74.761719 292 72 Z M 292 67 "/>
<path style="fill:none;stroke-width:1.5;stroke-linecap:butt;stroke-linejoin:miter;stroke:rgb(38.039216%,50.588235%,100%);stroke-opacity:1;stroke-miterlimit:10;" d="M 0 5 C 0 2.238281 2.238281 0 5 0 L 21 0 C 23.761719 0 26 2.238281 26 5 L 26 33 C 26 35.761719 23.761719 38 21 38 L 5 38 C 2.238281 38 0 35.761719 0 33 Z M 0 5 " transform="matrix(1,0,0,1,359,16)"/>
<path style=" stroke:none;fill-rule:nonzero;fill:rgb(38.039216%,50.588235%,100%);fill-opacity:0.490196;" d="M 359 21 C 359 18.238281 361.238281 16 364 16 L 380 16 C 382.761719 16 385 18.238281 385 21 L 385 49 C 385 51.761719 382.761719 54 380 54 L 364 54 C 361.238281 54 359 51.761719 359 49 Z M 359 21 "/>
<path style="fill:none;stroke-width:1.5;stroke-linecap:butt;stroke-linejoin:miter;stroke:rgb(38.039216%,50.588235%,100%);stroke-opacity:1;stroke-miterlimit:10;" d="M 0 5 C 0 2.238281 2.238281 0 5 0 L 21 0 C 23.761719 0 26 2.238281 26 5 L 26 10 C 26 12.761719 23.761719 15 21 15 L 5 15 C 2.238281 15 0 12.761719 0 10 Z M 0 5 " transform="matrix(1,0,0,1,359,62)"/>
<path style=" stroke:none;fill-rule:nonzero;fill:rgb(38.039216%,50.588235%,100%);fill-opacity:0.490196;" d="M 359 67 C 359 64.238281 361.238281 62 364 62 L 380 62 C 382.761719 62 385 64.238281 385 67 L 385 72 C 385 74.761719 382.761719 77 380 77 L 364 77 C 361.238281 77 359 74.761719 359 72 Z M 359 67 "/>
<path style="fill:none;stroke-width:1.5;stroke-linecap:butt;stroke-linejoin:miter;stroke:rgb(38.039216%,50.588235%,100%);stroke-opacity:1;stroke-miterlimit:10;" d="M 0 5 C 0 2.238281 2.238281 0 5 0 L 51 0 C 53.761719 0 56 2.238281 56 5 L 56 29 C 56 31.761719 53.761719 34 51 34 L 5 34 C 2.238281 34 0 31.761719 0 29 Z M 0 5 " transform="matrix(1,0,0,1,432,18)"/>
<path style=" stroke:none;fill-rule:nonzero;fill:rgb(38.039216%,50.588235%,100%);fill-opacity:0.490196;" d="M 432 23 C 432 20.238281 434.238281 18 437 18 L 483 18 C 485.761719 18 488 20.238281 488 23 L 488 47 C 488 49.761719 485.761719 52 483 52 L 437 52 C 434.238281 52 432 49.761719 432 47 Z M 432 23 "/>
<path style="fill:none;stroke-width:1.5;stroke-linecap:butt;stroke-linejoin:miter;stroke:rgb(38.039216%,50.588235%,100%);stroke-opacity:1;stroke-miterlimit:10;" d="M 0 5 C 0 2.238281 2.238281 0 5 0 L 51 0 C 53.761719 0 56 2.238281 56 5 L 56 8 C 56 10.761719 53.761719 13 51 13 L 5 13 C 2.238281 13 0 10.761719 0 8 Z M 0 5 " transform="matrix(1,0,0,1,432,62)"/>
<path style=" stroke:none;fill-rule:nonzero;fill:rgb(38.039216%,50.588235%,100%);fill-opacity:0.490196;" d="M 432 67 C 432 64.238281 434.238281 62 437 62 L 483 62 C 485.761719 62 488 64.238281 488 67 L 488 70 C 488 72.761719 485.761719 75 483 75 L 437 75 C 434.238281 75 432 72.761719 432 70 Z M 432 67 "/>
<path style="fill:none;stroke-width:1.5;stroke-linecap:butt;stroke-linejoin:miter;stroke:rgb(38.039216%,50.588235%,100%);stroke-opacity:1;stroke-miterlimit:10;" d="M 0 5 C 0 2.238281 2.238281 0 5 0 L 19 0 C 21.761719 0 24 2.238281 24 5 L 24 29 C 24 31.761719 21.761719 34 19 34 L 5 34 C 2.238281 34 0 31.761719 0 29 Z M 0 5 " transform="matrix(1,0,0,1,498,18)"/>
<path style=" stroke:none;fill-rule:nonzero;fill:rgb(38.039216%,50.588235%,100%);fill-opacity:0.490196;" d="M 498 23 C 498 20.238281 500.238281 18 503 18 L 517 18 C 519.761719 18 522 20.238281 522 23 L 522 47 C 522 49.761719 519.761719 52 517 52 L 503 52 C 500.238281 52 498 49.761719 498 47 Z M 498 23 "/>
<path style="fill:none;stroke-width:1.5;stroke-linecap:butt;stroke-linejoin:miter;stroke:rgb(38.039216%,50.588235%,100%);stroke-opacity:1;stroke-miterlimit:10;" d="M 0 5 C 0 2.238281 2.238281 0 5 0 L 19 0 C 21.761719 0 24 2.238281 24 5 L 24 8 C 24 10.761719 21.761719 13 19 13 L 5 13 C 2.238281 13 0 10.761719 0 8 Z M 0 5 " transform="matrix(1,0,0,1,498,62)"/>
<path style=" stroke:none;fill-rule:nonzero;fill:rgb(38.039216%,50.588235%,100%);fill-opacity:0.490196;" d="M 498 67 C 498 64.238281 500.238281 62 503 62 L 517 62 C 519.761719 62 522 64.238281 522 67 L 522 70 C 522 72.761719 519.761719 75 517 75 L 503 75 C 500.238281 75 498 72.761719 498 70 Z M 498 67 "/>
</g>
</svg>
