<?xml version="1.0" encoding="UTF-8"?>
<svg xmlns="http://www.w3.org/2000/svg" xmlns:xlink="http://www.w3.org/1999/xlink" width="360pt" height="48pt" viewBox="0 0 360 48" version="1.1">
<g id="surface2">
<path style="fill:none;stroke-width:1.5;stroke-linecap:butt;stroke-linejoin:miter;stroke:rgb(0%,0%,0%);stroke-opacity:0.266667;stroke-dasharray:10,4;stroke-dashoffset:1;stroke-miterlimit:10;" d="M 0.75 0.75 L 63.25 0.75 L 63.25 47.25 L 0.75 47.25 Z M 0.75 0.75 "/>
<path style="fill:none;stroke-width:1.5;stroke-linecap:butt;stroke-linejoin:miter;stroke:rgb(0%,0%,0%);stroke-opacity:0.2;stroke-dasharray:10,4;stroke-dashoffset:1;stroke-miterlimit:10;" d="M 3 3 L 61 3 L 61 45 L 3 45 Z M 3 3 "/>
<path style="fill:none;stroke-width:1.5;stroke-linecap:butt;stroke-linejoin:miter;stroke:rgb(0%,0%,0%);stroke-opacity:0.266667;stroke-dasharray:10,4;stroke-dashoffset:1;stroke-miterlimit:10;" d="M 74.75 0.75 L 137.25 0.75 L 137.25 47.25 L 74.75 47.25 Z M 74.75 0.75 "/>
<path style="fill:none;stroke-width:1.5;stroke-linecap:butt;stroke-linejoin:miter;stroke:rgb(0%,0%,0%);stroke-opacity:0.2;stroke-dasharray:10,4;stroke-dashoffset:1;stroke-miterlimit:10;" d="M 77 3 L 135 3 L 135 45 L 77 45 Z M 77 3 "/>
<path style="fill:none;stroke-width:1.5;stroke-linecap:butt;stroke-linejoin:miter;stroke:rgb(0%,0%,0%);stroke-opacity:0.266667;stroke-dasharray:10,4;stroke-dashoffset:1;stroke-miterlimit:10;" d="M 148.75 0.75 L 211.25 0.75 L 211.25 47.25 L 148.75 47.25 Z M 148.75 0.75 "/>
<path style="fill:none;stroke-width:1.5;stroke-linecap:butt;stroke-linejoin:miter;stroke:rgb(0%,0%,0%);stroke-opacity:0.2;stroke-dasharray:10,4;stroke-dashoffset:1;stroke-miterlimit:10;" d="M 151 3 L 209 3 L 209 45 L 151 45 Z M 151 3 "/>
<path style="fill:none;stroke-width:1.5;stroke-linecap:butt;stroke-linejoin:miter;stroke:rgb(0%,0%,0%);stroke-opacity:0.266667;stroke-dasharray:10,4;stroke-dashoffset:1;stroke-miterlimit:10;" d="M 222.75 0.75 L 285.25 0.75 L 285.25 47.25 L 222.75 47.25 Z M 222.75 0.75 "/>
<path style="fill:none;stroke-width:1.5;stroke-linecap:butt;stroke-linejoin:miter;stroke:rgb(0%,0%,0%);stroke-opacity:0.2;stroke-dasharray:10,4;stroke-dashoffset:1;stroke-miterlimit:10;" d="M 225 3 L 283 3 L 283 45 L 225 45 Z M 225 3 "/>
<path style="fill:none;stroke-width:1.5;stroke-linecap:butt;stroke-linejoin:miter;stroke:rgb(0%,0%,0%);stroke-opacity:0.266667;stroke-dasharray:10,4;stroke-dashoffset:1;stroke-miterlimit:10;" d="M 296.75 0.75 L 359.25 0.75 L 359.25 47.25 L 296.75 47.25 Z M 296.75 0.75 "/>
<path style="fill:none;stroke-width:1.5;stroke-linecap:butt;stroke-linejoin:miter;stroke:rgb(0%,0%,0%);stroke-opacity:0.2;stroke-dasharray:10,4;stroke-dashoffset:1;stroke-miterlimit:10;" d="M 299 3 L 357 3 L 357 45 L 299 45 Z M 299 3 "/>
<path style="fill:none;stroke-width:1.5;stroke-linecap:butt;stroke-linejoin:miter;stroke:rgb(38.039216%,50.588235%,100%);stroke-opacity:1;stroke-miterlimit:10;" d="M 0 2 C 0 0.894531 0.894531 0 2 0 L 53.667969 0 C 54.769531 0 55.667969 0.894531 55.667969 2 L 55.667969 38 C 55.667969 39.105469 54.769531 40 53.667969 40 L 2 40 C 0.894531 40 0 39.105469 0 38 Z M 0 2 " transform="matrix(1,0,0,1,3,3)"/>
<path style=" stroke:none;fill-rule:nonzero;fill:rgb(38.039216%,50.588235%,100%);fill-opacity:0.490196;" d="M 3 5 C 3 3.894531 3.894531 3 5 3 L 56.667969 3 C 57.769531 3 58.667969 3.894531 58.667969 5 L 58.667969 41 C 58.667969 42.105469 57.769531 43 56.667969 43 L 5 43 C 3.894531 43 3 42.105469 3 41 Z M 3 5 "/>
<path style="fill:none;stroke-width:1.5;stroke-linecap:butt;stroke-linejoin:miter;stroke:rgb(38.039216%,50.588235%,100%);stroke-opacity:1;stroke-miterlimit:10;" d="M 0 2 C 0 0.894531 0.894531 0 2 0 L 24.667969 0 C 25.769531 0 26.667969 0.894531 26.667969 2 L 26.667969 38 C 26.667969 39.105469 25.769531 40 24.667969 40 L 2 40 C 0.894531 40 0 39.105469 0 38 Z M 0 2 " transform="matrix(1,0,0,1,77,3)"/>
<path style=" stroke:none;fill-rule:nonzero;fill:rgb(38.039216%,50.588235%,100%);fill-opacity:0.490196;" d="M 77 5 C 77 3.894531 77.894531 3 79 3 L 101.667969 3 C 102.769531 3 103.667969 3.894531 103.667969 5 L 103.667969 41 C 103.667969 42.105469 102.769531 43 101.667969 43 L 79 43 C 77.894531 43 77 42.105469 77 41 Z M 77 5 "/>
<path style="fill:none;stroke-width:1.5;stroke-linecap:butt;stroke-linejoin:miter;stroke:rgb(38.039216%,50.588235%,100%);stroke-opacity:1;stroke-miterlimit:10;" d="M 0.00130208 2 C 0.00130208 0.894531 0.895833 0 2.001302 0 L 24.665365 0 C 25.770833 0 26.665365 0.894531 26.665365 2 L 26.665365 38 C 26.665365 39.105469 25.770833 40 24.665365 40 L 2.001302 40 C 0.895833 40 0.00130208 39.105469 0.00130208 38 Z M 0.00130208 2 " transform="matrix(1,0,0,1,105.666667,3)"/>
<path style=" stroke:none;fill-rule:nonzero;fill:rgb(38.039216%,50.588235%,100%);fill-opacity:0.490196;" d="M 105.667969 5 C 105.667969 3.894531 106.5625 3 107.667969 3 L 130.332031 3 C 131.4375 3 132.332031 3.894531 132.332031 5 L 132.332031 41 C 132.332031 42.105469 131.4375 43 130.332031 43 L 107.667969 43 C 106.5625 43 105.667969 42.105469 105.667969 41 Z M 105.667969 5 "/>
<path style="fill:none;stroke-width:1.5;stroke-linecap:butt;stroke-linejoin:miter;stroke:rgb(38.039216%,50.588235%,100%);stroke-opacity:1;stroke-miterlimit:10;" d="M 0 2 C 0 0.894531 0.894531 0 2 0 L 24.667969 0 C 25.769531 0 26.667969 0.894531 26.667969 2 L 26.667969 38 C 26.667969 39.105469 25.769531 40 24.667969 40 L 2 40 C 0.894531 40 0 39.105469 0 38 Z M 0 2 " transform="matrix(1,0,0,1,151,3)"/>
<path style=" stroke:none;fill-rule:nonzero;fill:rgb(38.039216%,50.588235%,100%);fill-opacity:0.490196;" d="M 151 5 C 151 3.894531 151.894531 3 153 3 L 175.667969 3 C 176.769531 3 177.667969 3.894531 177.667969 5 L 177.667969 41 C 177.667969 42.105469 176.769531 43 175.667969 43 L 153 43 C 151.894531 43 151 42.105469 151 41 Z M 151 5 "/>
<path style="fill:none;stroke-width:1.5;stroke-linecap:butt;stroke-linejoin:miter;stroke:rgb(38.039216%,50.588235%,100%);stroke-opacity:1;stroke-miterlimit:10;" d="M 0.00130208 2 C 0.00130208 0.894531 0.895833 0 2.001302 0 L 24.665365 0 C 25.770833 0 26.665365 0.894531 26.665365 2 L 26.665365 17 C 26.665365 18.105469 25.770833 19 24.665365 19 L 2.001302 19 C 0.895833 19 0.00130208 18.105469 0.00130208 17 Z M 0.00130208 2 " transform="matrix(1,0,0,1,179.666667,3)"/>
<path style=" stroke:none;fill-rule:nonzero;fill:rgb(38.039216%,50.588235%,100%);fill-opacity:0.490196;" d="M 179.667969 5 C 179.667969 3.894531 180.5625 3 181.667969 3 L 204.332031 3 C 205.4375 3 206.332031 3.894531 206.332031 5 L 206.332031 20 C 206.332031 21.105469 205.4375 22 204.332031 22 L 181.667969 22 C 180.5625 22 179.667969 21.105469 179.667969 20 Z M 179.667969 5 "/>
<path style="fill:none;stroke-width:1.5;stroke-linecap:butt;stroke-linejoin:miter;stroke:rgb(38.039216%,50.588235%,100%);stroke-opacity:1;stroke-miterlimit:10;" d="M 0.00130208 2 C 0.00130208 0.894531 0.895833 0 2.001302 0 L 24.665365 0 C 25.770833 0 26.665365 0.894531 26.665365 2 L 26.665365 17 C 26.665365 18.105469 25.770833 19 24.665365 19 L 2.001302 19 C 0.895833 19 0.00130208 18.105469 0.00130208 17 Z M 0.00130208 2 " transform="matrix(1,0,0,1,179.666667,24)"/>
<path style=" stroke:none;fill-rule:nonzero;fill:rgb(38.039216%,50.588235%,100%);fill-opacity:0.490196;" d="M 179.667969 26 C 179.667969 24.894531 180.5625 24 181.667969 24 L 204.332031 24 C 205.4375 24 206.332031 24.894531 206.332031 26 L 206.332031 41 C 206.332031 42.105469 205.4375 43 204.332031 43 L 181.667969 43 C 180.5625 43 179.667969 42.105469 179.667969 41 Z M 179.667969 26 "/>
<path style="fill:none;stroke-width:1.5;stroke-linecap:butt;stroke-linejoin:miter;stroke:rgb(38.039216%,50.588235%,100%);stroke-opacity:1;stroke-miterlimit:10;" d="M 0 2 C 0 0.894531 0.894531 0 2 0 L 15 0 C 16.105469 0 17 0.894531 17 2 L 17 38 C 17 39.105469 16.105469 40 15 40 L 2 40 C 0.894531 40 0 39.105469 0 38 Z M 0 2 " transform="matrix(1,0,0,1,225,3)"/>
<path style=" stroke:none;fill-rule:nonzero;fill:rgb(38.039216%,50.588235%,100%);fill-opacity:0.490196;" d="M 225 5 C 225 3.894531 225.894531 3 227 3 L 240 3 C 241.105469 3 242 3.894531 242 5 L 242 41 C 242 42.105469 241.105469 43 240 43 L 227 43 C 225.894531 43 225 42.105469 225 41 Z M 225 5 "/>
<path style="fill:none;stroke-width:1.5;stroke-linecap:butt;stroke-linejoin:miter;stroke:rgb(38.039216%,50.588235%,100%);stroke-opacity:1;stroke-miterlimit:10;" d="M 0 2 C 0 0.894531 0.894531 0 2 0 L 15 0 C 16.105469 0 17 0.894531 17 2 L 17 17 C 17 18.105469 16.105469 19 15 19 L 2 19 C 0.894531 19 0 18.105469 0 17 Z M 0 2 " transform="matrix(1,0,0,1,244,3)"/>
<path style=" stroke:none;fill-rule:nonzero;fill:rgb(38.039216%,50.588235%,100%);fill-opacity:0.490196;" d="M 244 5 C 244 3.894531 244.894531 3 246 3 L 259 3 C 260.105469 3 261 3.894531 261 5 L 261 20 C 261 21.105469 260.105469 22 259 22 L 246 22 C 244.894531 22 244 21.105469 244 20 Z M 244 5 "/>
<path style="fill:none;stroke-width:1.5;stroke-linecap:butt;stroke-linejoin:miter;stroke:rgb(38.039216%,50.588235%,100%);stroke-opacity:1;stroke-miterlimit:10;" d="M 0 2 C 0 0.894531 0.894531 0 2 0 L 15 0 C 16.105469 0 17 0.894531 17 2 L 17 17 C 17 18.105469 16.105469 19 15 19 L 2 19 C 0.894531 19 0 18.105469 0 17 Z M 0 2 " transform="matrix(1,0,0,1,244,24)"/>
<path style=" stroke:none;fill-rule:nonzero;fill:rgb(38.039216%,50.588235%,100%);fill-opacity:0.490196;" d="M 244 26 C 244 24.894531 244.894531 24 246 24 L 259 24 C 260.105469 24 261 24.894531 261 26 L 261 41 C 261 42.105469 260.105469 43 259 43 L 246 43 C 244.894531 43 244 42.105469 244 41 Z M 244 26 "/>
<path style="fill:none;stroke-width:1.5;stroke-linecap:butt;stroke-linejoin:miter;stroke:rgb(38.039216%,50.588235%,100%);stroke-opacity:1;stroke-miterlimit:10;" d="M 0 2 C 0 0.894531 0.894531 0 2 0 L 15 0 C 16.105469 0 17 0.894531 17 2 L 17 38 C 17 39.105469 16.105469 40 15 40 L 2 40 C 0.894531 40 0 39.105469 0 38 Z M 0 2 " transform="matrix(1,0,0,1,263,3)"/>
<path style=" stroke:none;fill-rule:nonzero;fill:rgb(38.039216%,50.588235%,100%);fill-opacity:0.490196;" d="M 263 5 C 263 3.894531 263.894531 3 265 3 L 278 3 C 279.105469 3 280 3.894531 280 5 L 280 41 C 280 42.105469 279.105469 43 278 43 L 265 43 C 263.894531 43 263 42.105469 263 41 Z M 263 5 "/>
<path style="fill:none;stroke-width:1.5;stroke-linecap:butt;stroke-linejoin:miter;stroke:rgb(38.039216%,50.588235%,100%);stroke-opacity:1;stroke-miterlimit:10;" d="M 0 2 C 0 0.894531 0.894531 0 2 0 L 15 0 C 16.105469 0 17 0.894531 17 2 L 17 38 C 17 39.105469 16.105469 40 15 40 L 2 40 C 0.894531 40 0 39.105469 0 38 Z M 0 2 " transform="matrix(1,0,0,1,299,3)"/>
<path style=" stroke:none;fill-rule:nonzero;fill:rgb(38.039216%,50.588235%,100%);fill-opacity:0.490196;" d="M 299 5 C 299 3.894531 299.894531 3 301 3 L 314 3 C 315.105469 3 316 3.894531 316 5 L 316 41 C 316 42.105469 315.105469 43 314 43 L 301 43 C 299.894531 43 299 42.105469 299 41 Z M 299 5 "/>
<path style="fill:none;stroke-width:1.5;stroke-linecap:butt;stroke-linejoin:miter;stroke:rgb(38.039216%,50.588235%,100%);stroke-opacity:1;stroke-miterlimit:10;" d="M 0 2 C 0 0.894531 0.894531 0 2 0 L 15 0 C 16.105469 0 17 0.894531 17 2 L 17 17 C 17 18.105469 16.105469 19 15 19 L 2 19 C 0.894531 19 0 18.105469 0 17 Z M 0 2 " transform="matrix(1,0,0,1,318,3)"/>
<path style=" stroke:none;fill-rule:nonzero;fill:rgb(38.039216%,50.588235%,100%);fill-opacity:0.490196;" d="M 318 5 C 318 3.894531 318.894531 3 320 3 L 333 3 C 334.105469 3 335 3.894531 335 5 L 335 20 C 335 21.105469 334.105469 22 333 22 L 320 22 C 318.894531 22 318 21.105469 318 20 Z M 318 5 "/>
<path style="fill:none;stroke-width:1.5;stroke-linecap:butt;stroke-linejoin:miter;stroke:rgb(38.039216%,50.588235%,100%);stroke-opacity:1;stroke-miterlimit:10;" d="M 0 2 C 0 0.894531 0.894531 0 2 0 L 15 0 C 16.105469 0 17 0.894531 17 2 L 17 17 C 17 18.105469 16.105469 19 15 19 L 2 19 C 0.894531 19 0 18.105469 0 17 Z M 0 2 " transform="matrix(1,0,0,1,318,24)"/>
<path style=" stroke:none;fill-rule:nonzero;fill:rgb(38.039216%,50.588235%,100%);fill-opacity:0.490196;" d="M 318 26 C 318 24.894531 318.894531 24 320 24 L 333 24 C 334.105469 24 335 24.894531 335 26 L 335 41 C 335 42.105469 334.105469 43 333 43 L 320 43 C 318.894531 43 318 42.105469 318 41 Z M 318 26 "/>
<path style="fill:none;stroke-width:1.5;stroke-linecap:butt;stroke-linejoin:miter;stroke:rgb(38.039216%,50.588235%,100%);stroke-opacity:1;stroke-miterlimit:10;" d="M 0 2 C 0 0.894531 0.894531 0 2 0 L 15 0 C 16.105469 0 17 0.894531 17 2 L 17 17 C 17 18.105469 16.105469 19 15 19 L 2 19 C 0.894531 19 0 18.105469 0 17 Z M 0 2 " transform="matrix(1,0,0,1,337,3)"/>
<path style=" stroke:none;fill-rule:nonzero;fill:rgb(38.039216%,50.588235%,100%);fill-opacity:0.490196;" d="M 337 5 C 337 3.894531 337.894531 3 339 3 L 352 3 C 353.105469 3 354 3.894531 354 5 L 354 20 C 354 21.105469 353.105469 22 352 22 L 339 22 C 337.894531 22 337 21.105469 337 20 Z M 337 5 "/>
<path style="fill:none;stroke-width:1.5;stroke-linecap:butt;stroke-linejoin:miter;stroke:rgb(38.039216%,50.588235%,100%);stroke-opacity:1;stroke-miterlimit:10;" d="M 0 2 C 0 0.894531 0.894531 0 2 0 L 15 0 C 16.105469 0 17 0.894531 17 2 L 17 17 C 17 18.105469 16.105469 19 15 19 L 2 19 C 0.894531 19 0 18.105469 0 17 Z M 0 2 " transform="matrix(1,0,0,1,337,24)"/>
<path style=" stroke:none;fill-rule:nonzero;fill:rgb(38.039216%,50.588235%,100%);fill-opacity:0.490196;" d="M 337 26 C 337 24.894531 337.894531 24 339 24 L 352 24 C 353.105469 24 354 24.894531 354 26 L 354 41 C 354 42.105469 353.105469 43 352 43 L 339 43 C 337.894531 43 337 42.105469 337 41 Z M 337 26 "/>
</g>
</svg>
