<?xml version="1.0" encoding="UTF-8"?>
<svg xmlns="http://www.w3.org/2000/svg" xmlns:xlink="http://www.w3.org/1999/xlink" width="542pt" height="96pt" viewBox="0 0 542 96" version="1.1">
<defs>
<clipPath id="clip1">
  <path d="M 45 35 L 99 35 L 99 54 L 45 54 Z M 45 35 "/>
</clipPath>
<clipPath id="clip2">
  <path d="M 47 37 L 97 37 L 97 52 L 47 52 Z M 47 37 "/>
</clipPath>
<clipPath id="clip3">
  <path d="M 47 42 C 47 39.238281 49.238281 37 52 37 L 92 37 C 94.761719 37 97 39.238281 97 42 L 97 47 C 97 49.761719 94.761719 52 92 52 L 52 52 C 49.238281 52 47 49.761719 47 47 Z M 47 42 "/>
</clipPath>
<clipPath id="clip4">
  <path d="M 64 67 L 118 67 L 118 86 L 64 86 Z M 64 67 "/>
</clipPath>
<clipPath id="clip5">
  <path d="M 66 69 L 116 69 L 116 84 L 66 84 Z M 66 69 "/>
</clipPath>
<clipPath id="clip6">
  <path d="M 66 74 C 66 71.238281 68.238281 69 71 69 L 111 69 C 113.761719 69 116 71.238281 116 74 L 116 79 C 116 81.761719 113.761719 84 111 84 L 71 84 C 68.238281 84 66 81.761719 66 79 Z M 66 74 "/>
</clipPath>
<clipPath id="clip7">
  <path d="M 45 35 L 99 35 L 99 54 L 45 54 Z M 45 35 "/>
</clipPath>
<clipPath id="clip8">
  <path d="M 47 37 L 97 37 L 97 52 L 47 52 Z M 47 37 "/>
</clipPath>
<clipPath id="clip9">
  <path d="M 47 42 C 47 39.238281 49.238281 37 52 37 L 92 37 C 94.761719 37 97 39.238281 97 42 L 97 47 C 97 49.761719 94.761719 52 92 52 L 52 52 C 49.238281 52 47 49.761719 47 47 Z M 47 42 "/>
</clipPath>
<clipPath id="clip10">
  <path d="M 64 48 L 118 48 L 118 67 L 64 67 Z M 64 48 "/>
</clipPath>
<clipPath id="clip11">
  <path d="M 66 50 L 116 50 L 116 65 L 66 65 Z M 66 50 "/>
</clipPath>
<clipPath id="clip12">
  <path d="M 66 55 C 66 52.238281 68.238281 50 71 50 L 111 50 C 113.761719 50 116 52.238281 116 55 L 116 60 C 116 62.761719 113.761719 65 111 65 L 71 65 C 68.238281 65 66 62.761719 66 60 Z M 66 55 "/>
</clipPath>
<clipPath id="clip13">
  <path d="M 45 35 L 99 35 L 99 54 L 45 54 Z M 45 35 "/>
</clipPath>
<clipPath id="clip14">
  <path d="M 47 37 L 97 37 L 97 52 L 47 52 Z M 47 37 "/>
</clipPath>
<clipPath id="clip15">
  <path d="M 47 42 C 47 39.238281 49.238281 37 52 37 L 92 37 C 94.761719 37 97 39.238281 97 42 L 97 47 C 97 49.761719 94.761719 52 92 52 L 52 52 C 49.238281 52 47 49.761719 47 47 Z M 47 42 "/>
</clipPath>
<clipPath id="clip16">
  <path d="M 64 29 L 118 29 L 118 48 L 64 48 Z M 64 29 "/>
</clipPath>
<clipPath id="clip17">
  <path d="M 66 31 L 116 31 L 116 46 L 66 46 Z M 66 31 "/>
</clipPath>
<clipPath id="clip18">
  <path d="M 66 36 C 66 33.238281 68.238281 31 71 31 L 111 31 C 113.761719 31 116 33.238281 116 36 L 116 41 C 116 43.761719 113.761719 46 111 46 L 71 46 C 68.238281 46 66 43.761719 66 41 Z M 66 36 "/>
</clipPath>
<clipPath id="clip19">
  <path d="M 45 35 L 99 35 L 99 54 L 45 54 Z M 45 35 "/>
</clipPath>
<clipPath id="clip20">
  <path d="M 47 37 L 97 37 L 97 52 L 47 52 Z M 47 37 "/>
</clipPath>
<clipPath id="clip21">
  <path d="M 47 42 C 47 39.238281 49.238281 37 52 37 L 92 37 C 94.761719 37 97 39.238281 97 42 L 97 47 C 97 49.761719 94.761719 52 92 52 L 52 52 C 49.238281 52 47 49.761719 47 47 Z M 47 42 "/>
</clipPath>
<clipPath id="clip22">
  <path d="M 64 10 L 118 10 L 118 29 L 64 29 Z M 64 10 "/>
</clipPath>
<clipPath id="clip23">
  <path d="M 66 12 L 116 12 L 116 27 L 66 27 Z M 66 12 "/>
</clipPath>
<clipPath id="clip24">
  <path d="M 66 17 C 66 14.238281 68.238281 12 71 12 L 111 12 C 113.761719 12 116 14.238281 116 17 L 116 22 C 116 24.761719 113.761719 27 111 27 L 71 27 C 68.238281 27 66 24.761719 66 22 Z M 66 17 "/>
</clipPath>
<clipPath id="clip25">
  <path d="M 45 35 L 99 35 L 99 96 L 45 96 Z M 45 35 "/>
</clipPath>
<clipPath id="clip26">
  <path d="M 47 37 L 97 37 L 97 96 L 47 96 Z M 47 37 "/>
</clipPath>
<clipPath id="clip27">
  <path d="M 47 42 C 47 39.238281 49.238281 37 52 37 L 92 37 C 94.761719 37 97 39.238281 97 42 L 97 104 C 97 106.761719 94.761719 109 92 109 L 52 109 C 49.238281 109 47 106.761719 47 104 Z M 47 42 "/>
</clipPath>
<clipPath id="clip28">
  <path d="M 10 10 L 64 10 L 64 86 L 10 86 Z M 10 10 "/>
</clipPath>
<clipPath id="clip29">
  <path d="M 12 12 L 62 12 L 62 84 L 12 84 Z M 12 12 "/>
</clipPath>
<clipPath id="clip30">
  <path d="M 12 17 C 12 14.238281 14.238281 12 17 12 L 57 12 C 59.761719 12 62 14.238281 62 17 L 62 79 C 62 81.761719 59.761719 84 57 84 L 17 84 C 14.238281 84 12 81.761719 12 79 Z M 12 17 "/>
</clipPath>
<clipPath id="clip31">
  <path d="M 183 35 L 237 35 L 237 54 L 183 54 Z M 183 35 "/>
</clipPath>
<clipPath id="clip32">
  <path d="M 185 37 L 235 37 L 235 52 L 185 52 Z M 185 37 "/>
</clipPath>
<clipPath id="clip33">
  <path d="M 185 42 C 185 39.238281 187.238281 37 190 37 L 230 37 C 232.761719 37 235 39.238281 235 42 L 235 47 C 235 49.761719 232.761719 52 230 52 L 190 52 C 187.238281 52 185 49.761719 185 47 Z M 185 42 "/>
</clipPath>
<clipPath id="clip34">
  <path d="M 148 48 L 202 48 L 202 67 L 148 67 Z M 148 48 "/>
</clipPath>
<clipPath id="clip35">
  <path d="M 150 50 L 200 50 L 200 65 L 150 65 Z M 150 50 "/>
</clipPath>
<clipPath id="clip36">
  <path d="M 150 55 C 150 52.238281 152.238281 50 155 50 L 195 50 C 197.761719 50 200 52.238281 200 55 L 200 60 C 200 62.761719 197.761719 65 195 65 L 155 65 C 152.238281 65 150 62.761719 150 60 Z M 150 55 "/>
</clipPath>
<clipPath id="clip37">
  <path d="M 183 35 L 237 35 L 237 54 L 183 54 Z M 183 35 "/>
</clipPath>
<clipPath id="clip38">
  <path d="M 185 37 L 235 37 L 235 52 L 185 52 Z M 185 37 "/>
</clipPath>
<clipPath id="clip39">
  <path d="M 185 42 C 185 39.238281 187.238281 37 190 37 L 230 37 C 232.761719 37 235 39.238281 235 42 L 235 47 C 235 49.761719 232.761719 52 230 52 L 190 52 C 187.238281 52 185 49.761719 185 47 Z M 185 42 "/>
</clipPath>
<clipPath id="clip40">
  <path d="M 148 67 L 202 67 L 202 86 L 148 86 Z M 148 67 "/>
</clipPath>
<clipPath id="clip41">
  <path d="M 150 69 L 200 69 L 200 84 L 150 84 Z M 150 69 "/>
</clipPath>
<clipPath id="clip42">
  <path d="M 150 74 C 150 71.238281 152.238281 69 155 69 L 195 69 C 197.761719 69 200 71.238281 200 74 L 200 79 C 200 81.761719 197.761719 84 195 84 L 155 84 C 152.238281 84 150 81.761719 150 79 Z M 150 74 "/>
</clipPath>
<clipPath id="clip43">
  <path d="M 183 35 L 237 35 L 237 54 L 183 54 Z M 183 35 "/>
</clipPath>
<clipPath id="clip44">
  <path d="M 185 37 L 235 37 L 235 52 L 185 52 Z M 185 37 "/>
</clipPath>
<clipPath id="clip45">
  <path d="M 185 42 C 185 39.238281 187.238281 37 190 37 L 230 37 C 232.761719 37 235 39.238281 235 42 L 235 47 C 235 49.761719 232.761719 52 230 52 L 190 52 C 187.238281 52 185 49.761719 185 47 Z M 185 42 "/>
</clipPath>
<clipPath id="clip46">
  <path d="M 148 29 L 202 29 L 202 48 L 148 48 Z M 148 29 "/>
</clipPath>
<clipPath id="clip47">
  <path d="M 150 31 L 200 31 L 200 46 L 150 46 Z M 150 31 "/>
</clipPath>
<clipPath id="clip48">
  <path d="M 150 36 C 150 33.238281 152.238281 31 155 31 L 195 31 C 197.761719 31 200 33.238281 200 36 L 200 41 C 200 43.761719 197.761719 46 195 46 L 155 46 C 152.238281 46 150 43.761719 150 41 Z M 150 36 "/>
</clipPath>
<clipPath id="clip49">
  <path d="M 183 35 L 237 35 L 237 54 L 183 54 Z M 183 35 "/>
</clipPath>
<clipPath id="clip50">
  <path d="M 185 37 L 235 37 L 235 52 L 185 52 Z M 185 37 "/>
</clipPath>
<clipPath id="clip51">
  <path d="M 185 42 C 185 39.238281 187.238281 37 190 37 L 230 37 C 232.761719 37 235 39.238281 235 42 L 235 47 C 235 49.761719 232.761719 52 230 52 L 190 52 C 187.238281 52 185 49.761719 185 47 Z M 185 42 "/>
</clipPath>
<clipPath id="clip52">
  <path d="M 148 10 L 202 10 L 202 29 L 148 29 Z M 148 10 "/>
</clipPath>
<clipPath id="clip53">
  <path d="M 150 12 L 200 12 L 200 27 L 150 27 Z M 150 12 "/>
</clipPath>
<clipPath id="clip54">
  <path d="M 150 17 C 150 14.238281 152.238281 12 155 12 L 195 12 C 197.761719 12 200 14.238281 200 17 L 200 22 C 200 24.761719 197.761719 27 195 27 L 155 27 C 152.238281 27 150 24.761719 150 22 Z M 150 17 "/>
</clipPath>
<clipPath id="clip55">
  <path d="M 183 35 L 237 35 L 237 96 L 183 96 Z M 183 35 "/>
</clipPath>
<clipPath id="clip56">
  <path d="M 185 37 L 235 37 L 235 96 L 185 96 Z M 185 37 "/>
</clipPath>
<clipPath id="clip57">
  <path d="M 185 42 C 185 39.238281 187.238281 37 190 37 L 230 37 C 232.761719 37 235 39.238281 235 42 L 235 104 C 235 106.761719 232.761719 109 230 109 L 190 109 C 187.238281 109 185 106.761719 185 104 Z M 185 42 "/>
</clipPath>
<clipPath id="clip58">
  <path d="M 202 10 L 256 10 L 256 86 L 202 86 Z M 202 10 "/>
</clipPath>
<clipPath id="clip59">
  <path d="M 204 12 L 254 12 L 254 84 L 204 84 Z M 204 12 "/>
</clipPath>
<clipPath id="clip60">
  <path d="M 204 17 C 204 14.238281 206.238281 12 209 12 L 249 12 C 251.761719 12 254 14.238281 254 17 L 254 79 C 254 81.761719 251.761719 84 249 84 L 209 84 C 206.238281 84 204 81.761719 204 79 Z M 204 17 "/>
</clipPath>
<clipPath id="clip61">
  <path d="M 321 35 L 348 35 L 348 73 L 321 73 Z M 321 35 "/>
</clipPath>
<clipPath id="clip62">
  <path d="M 323 37 L 346 37 L 346 71 L 323 71 Z M 323 37 "/>
</clipPath>
<clipPath id="clip63">
  <path d="M 323 42 C 323 39.238281 325.238281 37 328 37 L 341 37 C 343.761719 37 346 39.238281 346 42 L 346 66 C 346 68.761719 343.761719 71 341 71 L 328 71 C 325.238281 71 323 68.761719 323 66 Z M 323 42 "/>
</clipPath>
<clipPath id="clip64">
  <path d="M 340 10 L 367 10 L 367 48 L 340 48 Z M 340 10 "/>
</clipPath>
<clipPath id="clip65">
  <path d="M 342 12 L 365 12 L 365 46 L 342 46 Z M 342 12 "/>
</clipPath>
<clipPath id="clip66">
  <path d="M 342 17 C 342 14.238281 344.238281 12 347 12 L 360 12 C 362.761719 12 365 14.238281 365 17 L 365 41 C 365 43.761719 362.761719 46 360 46 L 347 46 C 344.238281 46 342 43.761719 342 41 Z M 342 17 "/>
</clipPath>
<clipPath id="clip67">
  <path d="M 321 35 L 348 35 L 348 73 L 321 73 Z M 321 35 "/>
</clipPath>
<clipPath id="clip68">
  <path d="M 323 37 L 346 37 L 346 71 L 323 71 Z M 323 37 "/>
</clipPath>
<clipPath id="clip69">
  <path d="M 323 42 C 323 39.238281 325.238281 37 328 37 L 341 37 C 343.761719 37 346 39.238281 346 42 L 346 66 C 346 68.761719 343.761719 71 341 71 L 328 71 C 325.238281 71 323 68.761719 323 66 Z M 323 42 "/>
</clipPath>
<clipPath id="clip70">
  <path d="M 367 10 L 394 10 L 394 48 L 367 48 Z M 367 10 "/>
</clipPath>
<clipPath id="clip71">
  <path d="M 369 12 L 392 12 L 392 46 L 369 46 Z M 369 12 "/>
</clipPath>
<clipPath id="clip72">
  <path d="M 369 17 C 369 14.238281 371.238281 12 374 12 L 387 12 C 389.761719 12 392 14.238281 392 17 L 392 41 C 392 43.761719 389.761719 46 387 46 L 374 46 C 371.238281 46 369 43.761719 369 41 Z M 369 17 "/>
</clipPath>
<clipPath id="clip73">
  <path d="M 321 35 L 348 35 L 348 73 L 321 73 Z M 321 35 "/>
</clipPath>
<clipPath id="clip74">
  <path d="M 323 37 L 346 37 L 346 71 L 323 71 Z M 323 37 "/>
</clipPath>
<clipPath id="clip75">
  <path d="M 323 42 C 323 39.238281 325.238281 37 328 37 L 341 37 C 343.761719 37 346 39.238281 346 42 L 346 66 C 346 68.761719 343.761719 71 341 71 L 328 71 C 325.238281 71 323 68.761719 323 66 Z M 323 42 "/>
</clipPath>
<clipPath id="clip76">
  <path d="M 313 10 L 340 10 L 340 48 L 313 48 Z M 313 10 "/>
</clipPath>
<clipPath id="clip77">
  <path d="M 315 12 L 338 12 L 338 46 L 315 46 Z M 315 12 "/>
</clipPath>
<clipPath id="clip78">
  <path d="M 315 17 C 315 14.238281 317.238281 12 320 12 L 333 12 C 335.761719 12 338 14.238281 338 17 L 338 41 C 338 43.761719 335.761719 46 333 46 L 320 46 C 317.238281 46 315 43.761719 315 41 Z M 315 17 "/>
</clipPath>
<clipPath id="clip79">
  <path d="M 321 35 L 348 35 L 348 73 L 321 73 Z M 321 35 "/>
</clipPath>
<clipPath id="clip80">
  <path d="M 323 37 L 346 37 L 346 71 L 323 71 Z M 323 37 "/>
</clipPath>
<clipPath id="clip81">
  <path d="M 323 42 C 323 39.238281 325.238281 37 328 37 L 341 37 C 343.761719 37 346 39.238281 346 42 L 346 66 C 346 68.761719 343.761719 71 341 71 L 328 71 C 325.238281 71 323 68.761719 323 66 Z M 323 42 "/>
</clipPath>
<clipPath id="clip82">
  <path d="M 286 10 L 313 10 L 313 48 L 286 48 Z M 286 10 "/>
</clipPath>
<clipPath id="clip83">
  <path d="M 288 12 L 311 12 L 311 46 L 288 46 Z M 288 12 "/>
</clipPath>
<clipPath id="clip84">
  <path d="M 288 17 C 288 14.238281 290.238281 12 293 12 L 306 12 C 308.761719 12 311 14.238281 311 17 L 311 41 C 311 43.761719 308.761719 46 306 46 L 293 46 C 290.238281 46 288 43.761719 288 41 Z M 288 17 "/>
</clipPath>
<clipPath id="clip85">
  <path d="M 321 35 L 429 35 L 429 73 L 321 73 Z M 321 35 "/>
</clipPath>
<clipPath id="clip86">
  <path d="M 323 37 L 427 37 L 427 71 L 323 71 Z M 323 37 "/>
</clipPath>
<clipPath id="clip87">
  <path d="M 323 42 C 323 39.238281 325.238281 37 328 37 L 422 37 C 424.761719 37 427 39.238281 427 42 L 427 66 C 427 68.761719 424.761719 71 422 71 L 328 71 C 325.238281 71 323 68.761719 323 66 Z M 323 42 "/>
</clipPath>
<clipPath id="clip88">
  <path d="M 286 48 L 394 48 L 394 86 L 286 86 Z M 286 48 "/>
</clipPath>
<clipPath id="clip89">
  <path d="M 288 50 L 392 50 L 392 84 L 288 84 Z M 288 50 "/>
</clipPath>
<clipPath id="clip90">
  <path d="M 288 55 C 288 52.238281 290.238281 50 293 50 L 387 50 C 389.761719 50 392 52.238281 392 55 L 392 79 C 392 81.761719 389.761719 84 387 84 L 293 84 C 290.238281 84 288 81.761719 288 79 Z M 288 55 "/>
</clipPath>
<clipPath id="clip91">
  <path d="M 459 35 L 486 35 L 486 73 L 459 73 Z M 459 35 "/>
</clipPath>
<clipPath id="clip92">
  <path d="M 461 37 L 484 37 L 484 71 L 461 71 Z M 461 37 "/>
</clipPath>
<clipPath id="clip93">
  <path d="M 461 42 C 461 39.238281 463.238281 37 466 37 L 479 37 C 481.761719 37 484 39.238281 484 42 L 484 66 C 484 68.761719 481.761719 71 479 71 L 466 71 C 463.238281 71 461 68.761719 461 66 Z M 461 42 "/>
</clipPath>
<clipPath id="clip94">
  <path d="M 505 48 L 532 48 L 532 86 L 505 86 Z M 505 48 "/>
</clipPath>
<clipPath id="clip95">
  <path d="M 507 50 L 530 50 L 530 84 L 507 84 Z M 507 50 "/>
</clipPath>
<clipPath id="clip96">
  <path d="M 507 55 C 507 52.238281 509.238281 50 512 50 L 525 50 C 527.761719 50 530 52.238281 530 55 L 530 79 C 530 81.761719 527.761719 84 525 84 L 512 84 C 509.238281 84 507 81.761719 507 79 Z M 507 55 "/>
</clipPath>
<clipPath id="clip97">
  <path d="M 459 35 L 486 35 L 486 73 L 459 73 Z M 459 35 "/>
</clipPath>
<clipPath id="clip98">
  <path d="M 461 37 L 484 37 L 484 71 L 461 71 Z M 461 37 "/>
</clipPath>
<clipPath id="clip99">
  <path d="M 461 42 C 461 39.238281 463.238281 37 466 37 L 479 37 C 481.761719 37 484 39.238281 484 42 L 484 66 C 484 68.761719 481.761719 71 479 71 L 466 71 C 463.238281 71 461 68.761719 461 66 Z M 461 42 "/>
</clipPath>
<clipPath id="clip100">
  <path d="M 478 48 L 505 48 L 505 86 L 478 86 Z M 478 48 "/>
</clipPath>
<clipPath id="clip101">
  <path d="M 480 50 L 503 50 L 503 84 L 480 84 Z M 480 50 "/>
</clipPath>
<clipPath id="clip102">
  <path d="M 480 55 C 480 52.238281 482.238281 50 485 50 L 498 50 C 500.761719 50 503 52.238281 503 55 L 503 79 C 503 81.761719 500.761719 84 498 84 L 485 84 C 482.238281 84 480 81.761719 480 79 Z M 480 55 "/>
</clipPath>
<clipPath id="clip103">
  <path d="M 459 35 L 486 35 L 486 73 L 459 73 Z M 459 35 "/>
</clipPath>
<clipPath id="clip104">
  <path d="M 461 37 L 484 37 L 484 71 L 461 71 Z M 461 37 "/>
</clipPath>
<clipPath id="clip105">
  <path d="M 461 42 C 461 39.238281 463.238281 37 466 37 L 479 37 C 481.761719 37 484 39.238281 484 42 L 484 66 C 484 68.761719 481.761719 71 479 71 L 466 71 C 463.238281 71 461 68.761719 461 66 Z M 461 42 "/>
</clipPath>
<clipPath id="clip106">
  <path d="M 451 48 L 478 48 L 478 86 L 451 86 Z M 451 48 "/>
</clipPath>
<clipPath id="clip107">
  <path d="M 453 50 L 476 50 L 476 84 L 453 84 Z M 453 50 "/>
</clipPath>
<clipPath id="clip108">
  <path d="M 453 55 C 453 52.238281 455.238281 50 458 50 L 471 50 C 473.761719 50 476 52.238281 476 55 L 476 79 C 476 81.761719 473.761719 84 471 84 L 458 84 C 455.238281 84 453 81.761719 453 79 Z M 453 55 "/>
</clipPath>
<clipPath id="clip109">
  <path d="M 459 35 L 486 35 L 486 73 L 459 73 Z M 459 35 "/>
</clipPath>
<clipPath id="clip110">
  <path d="M 461 37 L 484 37 L 484 71 L 461 71 Z M 461 37 "/>
</clipPath>
<clipPath id="clip111">
  <path d="M 461 42 C 461 39.238281 463.238281 37 466 37 L 479 37 C 481.761719 37 484 39.238281 484 42 L 484 66 C 484 68.761719 481.761719 71 479 71 L 466 71 C 463.238281 71 461 68.761719 461 66 Z M 461 42 "/>
</clipPath>
<clipPath id="clip112">
  <path d="M 424 48 L 451 48 L 451 86 L 424 86 Z M 424 48 "/>
</clipPath>
<clipPath id="clip113">
  <path d="M 426 50 L 449 50 L 449 84 L 426 84 Z M 426 50 "/>
</clipPath>
<clipPath id="clip114">
  <path d="M 426 55 C 426 52.238281 428.238281 50 431 50 L 444 50 C 446.761719 50 449 52.238281 449 55 L 449 79 C 449 81.761719 446.761719 84 444 84 L 431 84 C 428.238281 84 426 81.761719 426 79 Z M 426 55 "/>
</clipPath>
<clipPath id="clip115">
  <path d="M 459 35 L 542 35 L 542 73 L 459 73 Z M 459 35 "/>
</clipPath>
<clipPath id="clip116">
  <path d="M 461 37 L 542 37 L 542 71 L 461 71 Z M 461 37 "/>
</clipPath>
<clipPath id="clip117">
  <path d="M 461 42 C 461 39.238281 463.238281 37 466 37 L 560 37 C 562.761719 37 565 39.238281 565 42 L 565 66 C 565 68.761719 562.761719 71 560 71 L 466 71 C 463.238281 71 461 68.761719 461 66 Z M 461 42 "/>
</clipPath>
<clipPath id="clip118">
  <path d="M 424 10 L 532 10 L 532 48 L 424 48 Z M 424 10 "/>
</clipPath>
<clipPath id="clip119">
  <path d="M 426 12 L 530 12 L 530 46 L 426 46 Z M 426 12 "/>
</clipPath>
<clipPath id="clip120">
  <path d="M 426 17 C 426 14.238281 428.238281 12 431 12 L 525 12 C 527.761719 12 530 14.238281 530 17 L 530 41 C 530 43.761719 527.761719 46 525 46 L 431 46 C 428.238281 46 426 43.761719 426 41 Z M 426 17 "/>
</clipPath>
</defs>
<g id="surface2">
<path style="fill:none;stroke-width:1.5;stroke-linecap:butt;stroke-linejoin:miter;stroke:rgb(0%,0%,0%);stroke-opacity:0.266667;stroke-dasharray:10,4;stroke-dashoffset:1;stroke-miterlimit:10;" d="M 0.75 0.75 L 127.25 0.75 L 127.25 95.25 L 0.75 95.25 Z M 0.75 0.75 "/>
<path style="fill:none;stroke-width:1.5;stroke-linecap:butt;stroke-linejoin:miter;stroke:rgb(0%,0%,0%);stroke-opacity:0.2;stroke-dasharray:10,4;stroke-dashoffset:1;stroke-miterlimit:10;" d="M 10 10 L 118 10 L 118 86 L 10 86 Z M 10 10 "/>
<path style="fill:none;stroke-width:1.5;stroke-linecap:butt;stroke-linejoin:miter;stroke:rgb(0%,0%,0%);stroke-opacity:0.266667;stroke-dasharray:10,4;stroke-dashoffset:1;stroke-miterlimit:10;" d="M 138.75 0.75 L 265.25 0.75 L 265.25 95.25 L 138.75 95.25 Z M 138.75 0.75 "/>
<path style="fill:none;stroke-width:1.5;stroke-linecap:butt;stroke-linejoin:miter;stroke:rgb(0%,0%,0%);stroke-opacity:0.2;stroke-dasharray:10,4;stroke-dashoffset:1;stroke-miterlimit:10;" d="M 148 10 L 256 10 L 256 86 L 148 86 Z M 148 10 "/>
<path style="fill:none;stroke-width:1.5;stroke-linecap:butt;stroke-linejoin:miter;stroke:rgb(0%,0%,0%);stroke-opacity:0.266667;stroke-dasharray:10,4;stroke-dashoffset:1;stroke-miterlimit:10;" d="M 276.75 0.75 L 403.25 0.75 L 403.25 95.25 L 276.75 95.25 Z M 276.75 0.75 "/>
<path style="fill:none;stroke-width:1.5;stroke-linecap:butt;stroke-linejoin:miter;stroke:rgb(0%,0%,0%);stroke-opacity:0.2;stroke-dasharray:10,4;stroke-dashoffset:1;stroke-miterlimit:10;" d="M 286 10 L 394 10 L 394 86 L 286 86 Z M 286 10 "/>
<path style="fill:none;stroke-width:1.5;stroke-linecap:butt;stroke-linejoin:miter;stroke:rgb(0%,0%,0%);stroke-opacity:0.266667;stroke-dasharray:10,4;stroke-dashoffset:1;stroke-miterlimit:10;" d="M 414.75 0.75 L 541.25 0.75 L 541.25 95.25 L 414.75 95.25 Z M 414.75 0.75 "/>
<path style="fill:none;stroke-width:1.5;stroke-linecap:butt;stroke-linejoin:miter;stroke:rgb(0%,0%,0%);stroke-opacity:0.2;stroke-dasharray:10,4;stroke-dashoffset:1;stroke-miterlimit:10;" d="M 424 10 L 532 10 L 532 86 L 424 86 Z M 424 10 "/>
<g clip-path="url(#clip1)" clip-rule="nonzero">
<path style="fill:none;stroke-width:2;stroke-linecap:butt;stroke-linejoin:miter;stroke:rgb(38.039216%,50.588235%,100%);stroke-opacity:1;stroke-miterlimit:10;" d="M 0 5 C 0 2.238281 2.238281 0 5 0 L 45 0 C 47.761719 0 50 2.238281 50 5 L 50 10 C 50 12.761719 47.761719 15 45 15 L 5 15 C 2.238281 15 0 12.761719 0 10 Z M 0 5 " transform="matrix(1,0,0,1,47,37)"/>
</g>
<path style=" stroke:none;fill-rule:nonzero;fill:rgb(38.039216%,50.588235%,100%);fill-opacity:0.490196;" d="M 47 42 C 47 39.238281 49.238281 37 52 37 L 92 37 C 94.761719 37 97 39.238281 97 42 L 97 47 C 97 49.761719 94.761719 52 92 52 L 52 52 C 49.238281 52 47 49.761719 47 47 Z M 47 42 "/>
<g clip-path="url(#clip2)" clip-rule="nonzero">
<g clip-path="url(#clip3)" clip-rule="nonzero">
<path style="fill:none;stroke-width:2;stroke-linecap:butt;stroke-linejoin:miter;stroke:rgb(38.039216%,50.588235%,100%);stroke-opacity:1;stroke-miterlimit:10;" d="M 0 5 C 0 2.238281 2.238281 0 5 0 L 45 0 C 47.761719 0 50 2.238281 50 5 L 50 10 C 50 12.761719 47.761719 15 45 15 L 5 15 C 2.238281 15 0 12.761719 0 10 Z M 0 5 " transform="matrix(1,0,0,1,47,37)"/>
</g>
</g>
<g clip-path="url(#clip4)" clip-rule="nonzero">
<path style="fill:none;stroke-width:2;stroke-linecap:butt;stroke-linejoin:miter;stroke:rgb(38.039216%,50.588235%,100%);stroke-opacity:1;stroke-miterlimit:10;" d="M 0 5 C 0 2.238281 2.238281 0 5 0 L 45 0 C 47.761719 0 50 2.238281 50 5 L 50 10 C 50 12.761719 47.761719 15 45 15 L 5 15 C 2.238281 15 0 12.761719 0 10 Z M 0 5 " transform="matrix(1,0,0,1,66,69)"/>
</g>
<path style=" stroke:none;fill-rule:nonzero;fill:rgb(38.039216%,50.588235%,100%);fill-opacity:0.490196;" d="M 66 74 C 66 71.238281 68.238281 69 71 69 L 111 69 C 113.761719 69 116 71.238281 116 74 L 116 79 C 116 81.761719 113.761719 84 111 84 L 71 84 C 68.238281 84 66 81.761719 66 79 Z M 66 74 "/>
<g clip-path="url(#clip5)" clip-rule="nonzero">
<g clip-path="url(#clip6)" clip-rule="nonzero">
<path style="fill:none;stroke-width:2;stroke-linecap:butt;stroke-linejoin:miter;stroke:rgb(38.039216%,50.588235%,100%);stroke-opacity:1;stroke-miterlimit:10;" d="M 0 5 C 0 2.238281 2.238281 0 5 0 L 45 0 C 47.761719 0 50 2.238281 50 5 L 50 10 C 50 12.761719 47.761719 15 45 15 L 5 15 C 2.238281 15 0 12.761719 0 10 Z M 0 5 " transform="matrix(1,0,0,1,66,69)"/>
</g>
</g>
<g clip-path="url(#clip7)" clip-rule="nonzero">
<path style="fill:none;stroke-width:2;stroke-linecap:butt;stroke-linejoin:miter;stroke:rgb(38.039216%,50.588235%,100%);stroke-opacity:1;stroke-miterlimit:10;" d="M 0 5 C 0 2.238281 2.238281 0 5 0 L 45 0 C 47.761719 0 50 2.238281 50 5 L 50 10 C 50 12.761719 47.761719 15 45 15 L 5 15 C 2.238281 15 0 12.761719 0 10 Z M 0 5 " transform="matrix(1,0,0,1,47,37)"/>
</g>
<path style=" stroke:none;fill-rule:nonzero;fill:rgb(38.039216%,50.588235%,100%);fill-opacity:0.490196;" d="M 47 42 C 47 39.238281 49.238281 37 52 37 L 92 37 C 94.761719 37 97 39.238281 97 42 L 97 47 C 97 49.761719 94.761719 52 92 52 L 52 52 C 49.238281 52 47 49.761719 47 47 Z M 47 42 "/>
<g clip-path="url(#clip8)" clip-rule="nonzero">
<g clip-path="url(#clip9)" clip-rule="nonzero">
<path style="fill:none;stroke-width:2;stroke-linecap:butt;stroke-linejoin:miter;stroke:rgb(38.039216%,50.588235%,100%);stroke-opacity:1;stroke-miterlimit:10;" d="M 0 5 C 0 2.238281 2.238281 0 5 0 L 45 0 C 47.761719 0 50 2.238281 50 5 L 50 10 C 50 12.761719 47.761719 15 45 15 L 5 15 C 2.238281 15 0 12.761719 0 10 Z M 0 5 " transform="matrix(1,0,0,1,47,37)"/>
</g>
</g>
<g clip-path="url(#clip10)" clip-rule="nonzero">
<path style="fill:none;stroke-width:2;stroke-linecap:butt;stroke-linejoin:miter;stroke:rgb(38.039216%,50.588235%,100%);stroke-opacity:1;stroke-miterlimit:10;" d="M 0 5 C 0 2.238281 2.238281 0 5 0 L 45 0 C 47.761719 0 50 2.238281 50 5 L 50 10 C 50 12.761719 47.761719 15 45 15 L 5 15 C 2.238281 15 0 12.761719 0 10 Z M 0 5 " transform="matrix(1,0,0,1,66,50)"/>
</g>
<path style=" stroke:none;fill-rule:nonzero;fill:rgb(38.039216%,50.588235%,100%);fill-opacity:0.490196;" d="M 66 55 C 66 52.238281 68.238281 50 71 50 L 111 50 C 113.761719 50 116 52.238281 116 55 L 116 60 C 116 62.761719 113.761719 65 111 65 L 71 65 C 68.238281 65 66 62.761719 66 60 Z M 66 55 "/>
<g clip-path="url(#clip11)" clip-rule="nonzero">
<g clip-path="url(#clip12)" clip-rule="nonzero">
<path style="fill:none;stroke-width:2;stroke-linecap:butt;stroke-linejoin:miter;stroke:rgb(38.039216%,50.588235%,100%);stroke-opacity:1;stroke-miterlimit:10;" d="M 0 5 C 0 2.238281 2.238281 0 5 0 L 45 0 C 47.761719 0 50 2.238281 50 5 L 50 10 C 50 12.761719 47.761719 15 45 15 L 5 15 C 2.238281 15 0 12.761719 0 10 Z M 0 5 " transform="matrix(1,0,0,1,66,50)"/>
</g>
</g>
<g clip-path="url(#clip13)" clip-rule="nonzero">
<path style="fill:none;stroke-width:2;stroke-linecap:butt;stroke-linejoin:miter;stroke:rgb(38.039216%,50.588235%,100%);stroke-opacity:1;stroke-miterlimit:10;" d="M 0 5 C 0 2.238281 2.238281 0 5 0 L 45 0 C 47.761719 0 50 2.238281 50 5 L 50 10 C 50 12.761719 47.761719 15 45 15 L 5 15 C 2.238281 15 0 12.761719 0 10 Z M 0 5 " transform="matrix(1,0,0,1,47,37)"/>
</g>
<path style=" stroke:none;fill-rule:nonzero;fill:rgb(38.039216%,50.588235%,100%);fill-opacity:0.490196;" d="M 47 42 C 47 39.238281 49.238281 37 52 37 L 92 37 C 94.761719 37 97 39.238281 97 42 L 97 47 C 97 49.761719 94.761719 52 92 52 L 52 52 C 49.238281 52 47 49.761719 47 47 Z M 47 42 "/>
<g clip-path="url(#clip14)" clip-rule="nonzero">
<g clip-path="url(#clip15)" clip-rule="nonzero">
<path style="fill:none;stroke-width:2;stroke-linecap:butt;stroke-linejoin:miter;stroke:rgb(38.039216%,50.588235%,100%);stroke-opacity:1;stroke-miterlimit:10;" d="M 0 5 C 0 2.238281 2.238281 0 5 0 L 45 0 C 47.761719 0 50 2.238281 50 5 L 50 10 C 50 12.761719 47.761719 15 45 15 L 5 15 C 2.238281 15 0 12.761719 0 10 Z M 0 5 " transform="matrix(1,0,0,1,47,37)"/>
</g>
</g>
<g clip-path="url(#clip16)" clip-rule="nonzero">
<path style="fill:none;stroke-width:2;stroke-linecap:butt;stroke-linejoin:miter;stroke:rgb(38.039216%,50.588235%,100%);stroke-opacity:1;stroke-miterlimit:10;" d="M 0 5 C 0 2.238281 2.238281 0 5 0 L 45 0 C 47.761719 0 50 2.238281 50 5 L 50 10 C 50 12.761719 47.761719 15 45 15 L 5 15 C 2.238281 15 0 12.761719 0 10 Z M 0 5 " transform="matrix(1,0,0,1,66,31)"/>
</g>
<path style=" stroke:none;fill-rule:nonzero;fill:rgb(38.039216%,50.588235%,100%);fill-opacity:0.490196;" d="M 66 36 C 66 33.238281 68.238281 31 71 31 L 111 31 C 113.761719 31 116 33.238281 116 36 L 116 41 C 116 43.761719 113.761719 46 111 46 L 71 46 C 68.238281 46 66 43.761719 66 41 Z M 66 36 "/>
<g clip-path="url(#clip17)" clip-rule="nonzero">
<g clip-path="url(#clip18)" clip-rule="nonzero">
<path style="fill:none;stroke-width:2;stroke-linecap:butt;stroke-linejoin:miter;stroke:rgb(38.039216%,50.588235%,100%);stroke-opacity:1;stroke-miterlimit:10;" d="M 0 5 C 0 2.238281 2.238281 0 5 0 L 45 0 C 47.761719 0 50 2.238281 50 5 L 50 10 C 50 12.761719 47.761719 15 45 15 L 5 15 C 2.238281 15 0 12.761719 0 10 Z M 0 5 " transform="matrix(1,0,0,1,66,31)"/>
</g>
</g>
<g clip-path="url(#clip19)" clip-rule="nonzero">
<path style="fill:none;stroke-width:2;stroke-linecap:butt;stroke-linejoin:miter;stroke:rgb(38.039216%,50.588235%,100%);stroke-opacity:1;stroke-miterlimit:10;" d="M 0 5 C 0 2.238281 2.238281 0 5 0 L 45 0 C 47.761719 0 50 2.238281 50 5 L 50 10 C 50 12.761719 47.761719 15 45 15 L 5 15 C 2.238281 15 0 12.761719 0 10 Z M 0 5 " transform="matrix(1,0,0,1,47,37)"/>
</g>
<path style=" stroke:none;fill-rule:nonzero;fill:rgb(38.039216%,50.588235%,100%);fill-opacity:0.490196;" d="M 47 42 C 47 39.238281 49.238281 37 52 37 L 92 37 C 94.761719 37 97 39.238281 97 42 L 97 47 C 97 49.761719 94.761719 52 92 52 L 52 52 C 49.238281 52 47 49.761719 47 47 Z M 47 42 "/>
<g clip-path="url(#clip20)" clip-rule="nonzero">
<g clip-path="url(#clip21)" clip-rule="nonzero">
<path style="fill:none;stroke-width:2;stroke-linecap:butt;stroke-linejoin:miter;stroke:rgb(38.039216%,50.588235%,100%);stroke-opacity:1;stroke-miterlimit:10;" d="M 0 5 C 0 2.238281 2.238281 0 5 0 L 45 0 C 47.761719 0 50 2.238281 50 5 L 50 10 C 50 12.761719 47.761719 15 45 15 L 5 15 C 2.238281 15 0 12.761719 0 10 Z M 0 5 " transform="matrix(1,0,0,1,47,37)"/>
</g>
</g>
<g clip-path="url(#clip22)" clip-rule="nonzero">
<path style="fill:none;stroke-width:2;stroke-linecap:butt;stroke-linejoin:miter;stroke:rgb(38.039216%,50.588235%,100%);stroke-opacity:1;stroke-miterlimit:10;" d="M 0 5 C 0 2.238281 2.238281 0 5 0 L 45 0 C 47.761719 0 50 2.238281 50 5 L 50 10 C 50 12.761719 47.761719 15 45 15 L 5 15 C 2.238281 15 0 12.761719 0 10 Z M 0 5 " transform="matrix(1,0,0,1,66,12)"/>
</g>
<path style=" stroke:none;fill-rule:nonzero;fill:rgb(38.039216%,50.588235%,100%);fill-opacity:0.490196;" d="M 66 17 C 66 14.238281 68.238281 12 71 12 L 111 12 C 113.761719 12 116 14.238281 116 17 L 116 22 C 116 24.761719 113.761719 27 111 27 L 71 27 C 68.238281 27 66 24.761719 66 22 Z M 66 17 "/>
<g clip-path="url(#clip23)" clip-rule="nonzero">
<g clip-path="url(#clip24)" clip-rule="nonzero">
<path style="fill:none;stroke-width:2;stroke-linecap:butt;stroke-linejoin:miter;stroke:rgb(38.039216%,50.588235%,100%);stroke-opacity:1;stroke-miterlimit:10;" d="M 0 5 C 0 2.238281 2.238281 0 5 0 L 45 0 C 47.761719 0 50 2.238281 50 5 L 50 10 C 50 12.761719 47.761719 15 45 15 L 5 15 C 2.238281 15 0 12.761719 0 10 Z M 0 5 " transform="matrix(1,0,0,1,66,12)"/>
</g>
</g>
<g clip-path="url(#clip25)" clip-rule="nonzero">
<path style="fill:none;stroke-width:2;stroke-linecap:butt;stroke-linejoin:miter;stroke:rgb(38.039216%,50.588235%,100%);stroke-opacity:1;stroke-miterlimit:10;" d="M 0 5 C 0 2.238281 2.238281 0 5 0 L 45 0 C 47.761719 0 50 2.238281 50 5 L 50 67 C 50 69.761719 47.761719 72 45 72 L 5 72 C 2.238281 72 0 69.761719 0 67 Z M 0 5 " transform="matrix(1,0,0,1,47,37)"/>
</g>
<path style=" stroke:none;fill-rule:nonzero;fill:rgb(38.039216%,50.588235%,100%);fill-opacity:0.490196;" d="M 47 42 C 47 39.238281 49.238281 37 52 37 L 92 37 C 94.761719 37 97 39.238281 97 42 L 97 104 C 97 106.761719 94.761719 109 92 109 L 52 109 C 49.238281 109 47 106.761719 47 104 Z M 47 42 "/>
<g clip-path="url(#clip26)" clip-rule="nonzero">
<g clip-path="url(#clip27)" clip-rule="nonzero">
<path style="fill:none;stroke-width:2;stroke-linecap:butt;stroke-linejoin:miter;stroke:rgb(38.039216%,50.588235%,100%);stroke-opacity:1;stroke-miterlimit:10;" d="M 0 5 C 0 2.238281 2.238281 0 5 0 L 45 0 C 47.761719 0 50 2.238281 50 5 L 50 67 C 50 69.761719 47.761719 72 45 72 L 5 72 C 2.238281 72 0 69.761719 0 67 Z M 0 5 " transform="matrix(1,0,0,1,47,37)"/>
</g>
</g>
<g clip-path="url(#clip28)" clip-rule="nonzero">
<path style="fill:none;stroke-width:2;stroke-linecap:butt;stroke-linejoin:miter;stroke:rgb(38.039216%,50.588235%,100%);stroke-opacity:1;stroke-miterlimit:10;" d="M 0 5 C 0 2.238281 2.238281 0 5 0 L 45 0 C 47.761719 0 50 2.238281 50 5 L 50 67 C 50 69.761719 47.761719 72 45 72 L 5 72 C 2.238281 72 0 69.761719 0 67 Z M 0 5 " transform="matrix(1,0,0,1,12,12)"/>
</g>
<path style=" stroke:none;fill-rule:nonzero;fill:rgb(38.039216%,50.588235%,100%);fill-opacity:0.490196;" d="M 12 17 C 12 14.238281 14.238281 12 17 12 L 57 12 C 59.761719 12 62 14.238281 62 17 L 62 79 C 62 81.761719 59.761719 84 57 84 L 17 84 C 14.238281 84 12 81.761719 12 79 Z M 12 17 "/>
<g clip-path="url(#clip29)" clip-rule="nonzero">
<g clip-path="url(#clip30)" clip-rule="nonzero">
<path style="fill:none;stroke-width:2;stroke-linecap:butt;stroke-linejoin:miter;stroke:rgb(38.039216%,50.588235%,100%);stroke-opacity:1;stroke-miterlimit:10;" d="M 0 5 C 0 2.238281 2.238281 0 5 0 L 45 0 C 47.761719 0 50 2.238281 50 5 L 50 67 C 50 69.761719 47.761719 72 45 72 L 5 72 C 2.238281 72 0 69.761719 0 67 Z M 0 5 " transform="matrix(1,0,0,1,12,12)"/>
</g>
</g>
<g clip-path="url(#clip31)" clip-rule="nonzero">
<path style="fill:none;stroke-width:2;stroke-linecap:butt;stroke-linejoin:miter;stroke:rgb(38.039216%,50.588235%,100%);stroke-opacity:1;stroke-miterlimit:10;" d="M 0 5 C 0 2.238281 2.238281 0 5 0 L 45 0 C 47.761719 0 50 2.238281 50 5 L 50 10 C 50 12.761719 47.761719 15 45 15 L 5 15 C 2.238281 15 0 12.761719 0 10 Z M 0 5 " transform="matrix(1,0,0,1,185,37)"/>
</g>
<path style=" stroke:none;fill-rule:nonzero;fill:rgb(38.039216%,50.588235%,100%);fill-opacity:0.490196;" d="M 185 42 C 185 39.238281 187.238281 37 190 37 L 230 37 C 232.761719 37 235 39.238281 235 42 L 235 47 C 235 49.761719 232.761719 52 230 52 L 190 52 C 187.238281 52 185 49.761719 185 47 Z M 185 42 "/>
<g clip-path="url(#clip32)" clip-rule="nonzero">
<g clip-path="url(#clip33)" clip-rule="nonzero">
<path style="fill:none;stroke-width:2;stroke-linecap:butt;stroke-linejoin:miter;stroke:rgb(38.039216%,50.588235%,100%);stroke-opacity:1;stroke-miterlimit:10;" d="M 0 5 C 0 2.238281 2.238281 0 5 0 L 45 0 C 47.761719 0 50 2.238281 50 5 L 50 10 C 50 12.761719 47.761719 15 45 15 L 5 15 C 2.238281 15 0 12.761719 0 10 Z M 0 5 " transform="matrix(1,0,0,1,185,37)"/>
</g>
</g>
<g clip-path="url(#clip34)" clip-rule="nonzero">
<path style="fill:none;stroke-width:2;stroke-linecap:butt;stroke-linejoin:miter;stroke:rgb(38.039216%,50.588235%,100%);stroke-opacity:1;stroke-miterlimit:10;" d="M 0 5 C 0 2.238281 2.238281 0 5 0 L 45 0 C 47.761719 0 50 2.238281 50 5 L 50 10 C 50 12.761719 47.761719 15 45 15 L 5 15 C 2.238281 15 0 12.761719 0 10 Z M 0 5 " transform="matrix(1,0,0,1,150,50)"/>
</g>
<path style=" stroke:none;fill-rule:nonzero;fill:rgb(38.039216%,50.588235%,100%);fill-opacity:0.490196;" d="M 150 55 C 150 52.238281 152.238281 50 155 50 L 195 50 C 197.761719 50 200 52.238281 200 55 L 200 60 C 200 62.761719 197.761719 65 195 65 L 155 65 C 152.238281 65 150 62.761719 150 60 Z M 150 55 "/>
<g clip-path="url(#clip35)" clip-rule="nonzero">
<g clip-path="url(#clip36)" clip-rule="nonzero">
<path style="fill:none;stroke-width:2;stroke-linecap:butt;stroke-linejoin:miter;stroke:rgb(38.039216%,50.588235%,100%);stroke-opacity:1;stroke-miterlimit:10;" d="M 0 5 C 0 2.238281 2.238281 0 5 0 L 45 0 C 47.761719 0 50 2.238281 50 5 L 50 10 C 50 12.761719 47.761719 15 45 15 L 5 15 C 2.238281 15 0 12.761719 0 10 Z M 0 5 " transform="matrix(1,0,0,1,150,50)"/>
</g>
</g>
<g clip-path="url(#clip37)" clip-rule="nonzero">
<path style="fill:none;stroke-width:2;stroke-linecap:butt;stroke-linejoin:miter;stroke:rgb(38.039216%,50.588235%,100%);stroke-opacity:1;stroke-miterlimit:10;" d="M 0 5 C 0 2.238281 2.238281 0 5 0 L 45 0 C 47.761719 0 50 2.238281 50 5 L 50 10 C 50 12.761719 47.761719 15 45 15 L 5 15 C 2.238281 15 0 12.761719 0 10 Z M 0 5 " transform="matrix(1,0,0,1,185,37)"/>
</g>
<path style=" stroke:none;fill-rule:nonzero;fill:rgb(38.039216%,50.588235%,100%);fill-opacity:0.490196;" d="M 185 42 C 185 39.238281 187.238281 37 190 37 L 230 37 C 232.761719 37 235 39.238281 235 42 L 235 47 C 235 49.761719 232.761719 52 230 52 L 190 52 C 187.238281 52 185 49.761719 185 47 Z M 185 42 "/>
<g clip-path="url(#clip38)" clip-rule="nonzero">
<g clip-path="url(#clip39)" clip-rule="nonzero">
<path style="fill:none;stroke-width:2;stroke-linecap:butt;stroke-linejoin:miter;stroke:rgb(38.039216%,50.588235%,100%);stroke-opacity:1;stroke-miterlimit:10;" d="M 0 5 C 0 2.238281 2.238281 0 5 0 L 45 0 C 47.761719 0 50 2.238281 50 5 L 50 10 C 50 12.761719 47.761719 15 45 15 L 5 15 C 2.238281 15 0 12.761719 0 10 Z M 0 5 " transform="matrix(1,0,0,1,185,37)"/>
</g>
</g>
<g clip-path="url(#clip40)" clip-rule="nonzero">
<path style="fill:none;stroke-width:2;stroke-linecap:butt;stroke-linejoin:miter;stroke:rgb(38.039216%,50.588235%,100%);stroke-opacity:1;stroke-miterlimit:10;" d="M 0 5 C 0 2.238281 2.238281 0 5 0 L 45 0 C 47.761719 0 50 2.238281 50 5 L 50 10 C 50 12.761719 47.761719 15 45 15 L 5 15 C 2.238281 15 0 12.761719 0 10 Z M 0 5 " transform="matrix(1,0,0,1,150,69)"/>
</g>
<path style=" stroke:none;fill-rule:nonzero;fill:rgb(38.039216%,50.588235%,100%);fill-opacity:0.490196;" d="M 150 74 C 150 71.238281 152.238281 69 155 69 L 195 69 C 197.761719 69 200 71.238281 200 74 L 200 79 C 200 81.761719 197.761719 84 195 84 L 155 84 C 152.238281 84 150 81.761719 150 79 Z M 150 74 "/>
<g clip-path="url(#clip41)" clip-rule="nonzero">
<g clip-path="url(#clip42)" clip-rule="nonzero">
<path style="fill:none;stroke-width:2;stroke-linecap:butt;stroke-linejoin:miter;stroke:rgb(38.039216%,50.588235%,100%);stroke-opacity:1;stroke-miterlimit:10;" d="M 0 5 C 0 2.238281 2.238281 0 5 0 L 45 0 C 47.761719 0 50 2.238281 50 5 L 50 10 C 50 12.761719 47.761719 15 45 15 L 5 15 C 2.238281 15 0 12.761719 0 10 Z M 0 5 " transform="matrix(1,0,0,1,150,69)"/>
</g>
</g>
<g clip-path="url(#clip43)" clip-rule="nonzero">
<path style="fill:none;stroke-width:2;stroke-linecap:butt;stroke-linejoin:miter;stroke:rgb(38.039216%,50.588235%,100%);stroke-opacity:1;stroke-miterlimit:10;" d="M 0 5 C 0 2.238281 2.238281 0 5 0 L 45 0 C 47.761719 0 50 2.238281 50 5 L 50 10 C 50 12.761719 47.761719 15 45 15 L 5 15 C 2.238281 15 0 12.761719 0 10 Z M 0 5 " transform="matrix(1,0,0,1,185,37)"/>
</g>
<path style=" stroke:none;fill-rule:nonzero;fill:rgb(38.039216%,50.588235%,100%);fill-opacity:0.490196;" d="M 185 42 C 185 39.238281 187.238281 37 190 37 L 230 37 C 232.761719 37 235 39.238281 235 42 L 235 47 C 235 49.761719 232.761719 52 230 52 L 190 52 C 187.238281 52 185 49.761719 185 47 Z M 185 42 "/>
<g clip-path="url(#clip44)" clip-rule="nonzero">
<g clip-path="url(#clip45)" clip-rule="nonzero">
<path style="fill:none;stroke-width:2;stroke-linecap:butt;stroke-linejoin:miter;stroke:rgb(38.039216%,50.588235%,100%);stroke-opacity:1;stroke-miterlimit:10;" d="M 0 5 C 0 2.238281 2.238281 0 5 0 L 45 0 C 47.761719 0 50 2.238281 50 5 L 50 10 C 50 12.761719 47.761719 15 45 15 L 5 15 C 2.238281 15 0 12.761719 0 10 Z M 0 5 " transform="matrix(1,0,0,1,185,37)"/>
</g>
</g>
<g clip-path="url(#clip46)" clip-rule="nonzero">
<path style="fill:none;stroke-width:2;stroke-linecap:butt;stroke-linejoin:miter;stroke:rgb(38.039216%,50.588235%,100%);stroke-opacity:1;stroke-miterlimit:10;" d="M 0 5 C 0 2.238281 2.238281 0 5 0 L 45 0 C 47.761719 0 50 2.238281 50 5 L 50 10 C 50 12.761719 47.761719 15 45 15 L 5 15 C 2.238281 15 0 12.761719 0 10 Z M 0 5 " transform="matrix(1,0,0,1,150,31)"/>
</g>
<path style=" stroke:none;fill-rule:nonzero;fill:rgb(38.039216%,50.588235%,100%);fill-opacity:0.490196;" d="M 150 36 C 150 33.238281 152.238281 31 155 31 L 195 31 C 197.761719 31 200 33.238281 200 36 L 200 41 C 200 43.761719 197.761719 46 195 46 L 155 46 C 152.238281 46 150 43.761719 150 41 Z M 150 36 "/>
<g clip-path="url(#clip47)" clip-rule="nonzero">
<g clip-path="url(#clip48)" clip-rule="nonzero">
<path style="fill:none;stroke-width:2;stroke-linecap:butt;stroke-linejoin:miter;stroke:rgb(38.039216%,50.588235%,100%);stroke-opacity:1;stroke-miterlimit:10;" d="M 0 5 C 0 2.238281 2.238281 0 5 0 L 45 0 C 47.761719 0 50 2.238281 50 5 L 50 10 C 50 12.761719 47.761719 15 45 15 L 5 15 C 2.238281 15 0 12.761719 0 10 Z M 0 5 " transform="matrix(1,0,0,1,150,31)"/>
</g>
</g>
<g clip-path="url(#clip49)" clip-rule="nonzero">
<path style="fill:none;stroke-width:2;stroke-linecap:butt;stroke-linejoin:miter;stroke:rgb(38.039216%,50.588235%,100%);stroke-opacity:1;stroke-miterlimit:10;" d="M 0 5 C 0 2.238281 2.238281 0 5 0 L 45 0 C 47.761719 0 50 2.238281 50 5 L 50 10 C 50 12.761719 47.761719 15 45 15 L 5 15 C 2.238281 15 0 12.761719 0 10 Z M 0 5 " transform="matrix(1,0,0,1,185,37)"/>
</g>
<path style=" stroke:none;fill-rule:nonzero;fill:rgb(38.039216%,50.588235%,100%);fill-opacity:0.490196;" d="M 185 42 C 185 39.238281 187.238281 37 190 37 L 230 37 C 232.761719 37 235 39.238281 235 42 L 235 47 C 235 49.761719 232.761719 52 230 52 L 190 52 C 187.238281 52 185 49.761719 185 47 Z M 185 42 "/>
<g clip-path="url(#clip50)" clip-rule="nonzero">
<g clip-path="url(#clip51)" clip-rule="nonzero">
<path style="fill:none;stroke-width:2;stroke-linecap:butt;stroke-linejoin:miter;stroke:rgb(38.039216%,50.588235%,100%);stroke-opacity:1;stroke-miterlimit:10;" d="M 0 5 C 0 2.238281 2.238281 0 5 0 L 45 0 C 47.761719 0 50 2.238281 50 5 L 50 10 C 50 12.761719 47.761719 15 45 15 L 5 15 C 2.238281 15 0 12.761719 0 10 Z M 0 5 " transform="matrix(1,0,0,1,185,37)"/>
</g>
</g>
<g clip-path="url(#clip52)" clip-rule="nonzero">
<path style="fill:none;stroke-width:2;stroke-linecap:butt;stroke-linejoin:miter;stroke:rgb(38.039216%,50.588235%,100%);stroke-opacity:1;stroke-miterlimit:10;" d="M 0 5 C 0 2.238281 2.238281 0 5 0 L 45 0 C 47.761719 0 50 2.238281 50 5 L 50 10 C 50 12.761719 47.761719 15 45 15 L 5 15 C 2.238281 15 0 12.761719 0 10 Z M 0 5 " transform="matrix(1,0,0,1,150,12)"/>
</g>
<path style=" stroke:none;fill-rule:nonzero;fill:rgb(38.039216%,50.588235%,100%);fill-opacity:0.490196;" d="M 150 17 C 150 14.238281 152.238281 12 155 12 L 195 12 C 197.761719 12 200 14.238281 200 17 L 200 22 C 200 24.761719 197.761719 27 195 27 L 155 27 C 152.238281 27 150 24.761719 150 22 Z M 150 17 "/>
<g clip-path="url(#clip53)" clip-rule="nonzero">
<g clip-path="url(#clip54)" clip-rule="nonzero">
<path style="fill:none;stroke-width:2;stroke-linecap:butt;stroke-linejoin:miter;stroke:rgb(38.039216%,50.588235%,100%);stroke-opacity:1;stroke-miterlimit:10;" d="M 0 5 C 0 2.238281 2.238281 0 5 0 L 45 0 C 47.761719 0 50 2.238281 50 5 L 50 10 C 50 12.761719 47.761719 15 45 15 L 5 15 C 2.238281 15 0 12.761719 0 10 Z M 0 5 " transform="matrix(1,0,0,1,150,12)"/>
</g>
</g>
<g clip-path="url(#clip55)" clip-rule="nonzero">
<path style="fill:none;stroke-width:2;stroke-linecap:butt;stroke-linejoin:miter;stroke:rgb(38.039216%,50.588235%,100%);stroke-opacity:1;stroke-miterlimit:10;" d="M 0 5 C 0 2.238281 2.238281 0 5 0 L 45 0 C 47.761719 0 50 2.238281 50 5 L 50 67 C 50 69.761719 47.761719 72 45 72 L 5 72 C 2.238281 72 0 69.761719 0 67 Z M 0 5 " transform="matrix(1,0,0,1,185,37)"/>
</g>
<path style=" stroke:none;fill-rule:nonzero;fill:rgb(38.039216%,50.588235%,100%);fill-opacity:0.490196;" d="M 185 42 C 185 39.238281 187.238281 37 190 37 L 230 37 C 232.761719 37 235 39.238281 235 42 L 235 104 C 235 106.761719 232.761719 109 230 109 L 190 109 C 187.238281 109 185 106.761719 185 104 Z M 185 42 "/>
<g clip-path="url(#clip56)" clip-rule="nonzero">
<g clip-path="url(#clip57)" clip-rule="nonzero">
<path style="fill:none;stroke-width:2;stroke-linecap:butt;stroke-linejoin:miter;stroke:rgb(38.039216%,50.588235%,100%);stroke-opacity:1;stroke-miterlimit:10;" d="M 0 5 C 0 2.238281 2.238281 0 5 0 L 45 0 C 47.761719 0 50 2.238281 50 5 L 50 67 C 50 69.761719 47.761719 72 45 72 L 5 72 C 2.238281 72 0 69.761719 0 67 Z M 0 5 " transform="matrix(1,0,0,1,185,37)"/>
</g>
</g>
<g clip-path="url(#clip58)" clip-rule="nonzero">
<path style="fill:none;stroke-width:2;stroke-linecap:butt;stroke-linejoin:miter;stroke:rgb(38.039216%,50.588235%,100%);stroke-opacity:1;stroke-miterlimit:10;" d="M 0 5 C 0 2.238281 2.238281 0 5 0 L 45 0 C 47.761719 0 50 2.238281 50 5 L 50 67 C 50 69.761719 47.761719 72 45 72 L 5 72 C 2.238281 72 0 69.761719 0 67 Z M 0 5 " transform="matrix(1,0,0,1,204,12)"/>
</g>
<path style=" stroke:none;fill-rule:nonzero;fill:rgb(38.039216%,50.588235%,100%);fill-opacity:0.490196;" d="M 204 17 C 204 14.238281 206.238281 12 209 12 L 249 12 C 251.761719 12 254 14.238281 254 17 L 254 79 C 254 81.761719 251.761719 84 249 84 L 209 84 C 206.238281 84 204 81.761719 204 79 Z M 204 17 "/>
<g clip-path="url(#clip59)" clip-rule="nonzero">
<g clip-path="url(#clip60)" clip-rule="nonzero">
<path style="fill:none;stroke-width:2;stroke-linecap:butt;stroke-linejoin:miter;stroke:rgb(38.039216%,50.588235%,100%);stroke-opacity:1;stroke-miterlimit:10;" d="M 0 5 C 0 2.238281 2.238281 0 5 0 L 45 0 C 47.761719 0 50 2.238281 50 5 L 50 67 C 50 69.761719 47.761719 72 45 72 L 5 72 C 2.238281 72 0 69.761719 0 67 Z M 0 5 " transform="matrix(1,0,0,1,204,12)"/>
</g>
</g>
<g clip-path="url(#clip61)" clip-rule="nonzero">
<path style="fill:none;stroke-width:2;stroke-linecap:butt;stroke-linejoin:miter;stroke:rgb(38.039216%,50.588235%,100%);stroke-opacity:1;stroke-miterlimit:10;" d="M 0 5 C 0 2.238281 2.238281 0 5 0 L 18 0 C 20.761719 0 23 2.238281 23 5 L 23 29 C 23 31.761719 20.761719 34 18 34 L 5 34 C 2.238281 34 0 31.761719 0 29 Z M 0 5 " transform="matrix(1,0,0,1,323,37)"/>
</g>
<path style=" stroke:none;fill-rule:nonzero;fill:rgb(38.039216%,50.588235%,100%);fill-opacity:0.490196;" d="M 323 42 C 323 39.238281 325.238281 37 328 37 L 341 37 C 343.761719 37 346 39.238281 346 42 L 346 66 C 346 68.761719 343.761719 71 341 71 L 328 71 C 325.238281 71 323 68.761719 323 66 Z M 323 42 "/>
<g clip-path="url(#clip62)" clip-rule="nonzero">
<g clip-path="url(#clip63)" clip-rule="nonzero">
<path style="fill:none;stroke-width:2;stroke-linecap:butt;stroke-linejoin:miter;stroke:rgb(38.039216%,50.588235%,100%);stroke-opacity:1;stroke-miterlimit:10;" d="M 0 5 C 0 2.238281 2.238281 0 5 0 L 18 0 C 20.761719 0 23 2.238281 23 5 L 23 29 C 23 31.761719 20.761719 34 18 34 L 5 34 C 2.238281 34 0 31.761719 0 29 Z M 0 5 " transform="matrix(1,0,0,1,323,37)"/>
</g>
</g>
<g clip-path="url(#clip64)" clip-rule="nonzero">
<path style="fill:none;stroke-width:2;stroke-linecap:butt;stroke-linejoin:miter;stroke:rgb(38.039216%,50.588235%,100%);stroke-opacity:1;stroke-miterlimit:10;" d="M 0 5 C 0 2.238281 2.238281 0 5 0 L 18 0 C 20.761719 0 23 2.238281 23 5 L 23 29 C 23 31.761719 20.761719 34 18 34 L 5 34 C 2.238281 34 0 31.761719 0 29 Z M 0 5 " transform="matrix(1,0,0,1,342,12)"/>
</g>
<path style=" stroke:none;fill-rule:nonzero;fill:rgb(38.039216%,50.588235%,100%);fill-opacity:0.490196;" d="M 342 17 C 342 14.238281 344.238281 12 347 12 L 360 12 C 362.761719 12 365 14.238281 365 17 L 365 41 C 365 43.761719 362.761719 46 360 46 L 347 46 C 344.238281 46 342 43.761719 342 41 Z M 342 17 "/>
<g clip-path="url(#clip65)" clip-rule="nonzero">
<g clip-path="url(#clip66)" clip-rule="nonzero">
<path style="fill:none;stroke-width:2;stroke-linecap:butt;stroke-linejoin:miter;stroke:rgb(38.039216%,50.588235%,100%);stroke-opacity:1;stroke-miterlimit:10;" d="M 0 5 C 0 2.238281 2.238281 0 5 0 L 18 0 C 20.761719 0 23 2.238281 23 5 L 23 29 C 23 31.761719 20.761719 34 18 34 L 5 34 C 2.238281 34 0 31.761719 0 29 Z M 0 5 " transform="matrix(1,0,0,1,342,12)"/>
</g>
</g>
<g clip-path="url(#clip67)" clip-rule="nonzero">
<path style="fill:none;stroke-width:2;stroke-linecap:butt;stroke-linejoin:miter;stroke:rgb(38.039216%,50.588235%,100%);stroke-opacity:1;stroke-miterlimit:10;" d="M 0 5 C 0 2.238281 2.238281 0 5 0 L 18 0 C 20.761719 0 23 2.238281 23 5 L 23 29 C 23 31.761719 20.761719 34 18 34 L 5 34 C 2.238281 34 0 31.761719 0 29 Z M 0 5 " transform="matrix(1,0,0,1,323,37)"/>
</g>
<path style=" stroke:none;fill-rule:nonzero;fill:rgb(38.039216%,50.588235%,100%);fill-opacity:0.490196;" d="M 323 42 C 323 39.238281 325.238281 37 328 37 L 341 37 C 343.761719 37 346 39.238281 346 42 L 346 66 C 346 68.761719 343.761719 71 341 71 L 328 71 C 325.238281 71 323 68.761719 323 66 Z M 323 42 "/>
<g clip-path="url(#clip68)" clip-rule="nonzero">
<g clip-path="url(#clip69)" clip-rule="nonzero">
<path style="fill:none;stroke-width:2;stroke-linecap:butt;stroke-linejoin:miter;stroke:rgb(38.039216%,50.588235%,100%);stroke-opacity:1;stroke-miterlimit:10;" d="M 0 5 C 0 2.238281 2.238281 0 5 0 L 18 0 C 20.761719 0 23 2.238281 23 5 L 23 29 C 23 31.761719 20.761719 34 18 34 L 5 34 C 2.238281 34 0 31.761719 0 29 Z M 0 5 " transform="matrix(1,0,0,1,323,37)"/>
</g>
</g>
<g clip-path="url(#clip70)" clip-rule="nonzero">
<path style="fill:none;stroke-width:2;stroke-linecap:butt;stroke-linejoin:miter;stroke:rgb(38.039216%,50.588235%,100%);stroke-opacity:1;stroke-miterlimit:10;" d="M 0 5 C 0 2.238281 2.238281 0 5 0 L 18 0 C 20.761719 0 23 2.238281 23 5 L 23 29 C 23 31.761719 20.761719 34 18 34 L 5 34 C 2.238281 34 0 31.761719 0 29 Z M 0 5 " transform="matrix(1,0,0,1,369,12)"/>
</g>
<path style=" stroke:none;fill-rule:nonzero;fill:rgb(38.039216%,50.588235%,100%);fill-opacity:0.490196;" d="M 369 17 C 369 14.238281 371.238281 12 374 12 L 387 12 C 389.761719 12 392 14.238281 392 17 L 392 41 C 392 43.761719 389.761719 46 387 46 L 374 46 C 371.238281 46 369 43.761719 369 41 Z M 369 17 "/>
<g clip-path="url(#clip71)" clip-rule="nonzero">
<g clip-path="url(#clip72)" clip-rule="nonzero">
<path style="fill:none;stroke-width:2;stroke-linecap:butt;stroke-linejoin:miter;stroke:rgb(38.039216%,50.588235%,100%);stroke-opacity:1;stroke-miterlimit:10;" d="M 0 5 C 0 2.238281 2.238281 0 5 0 L 18 0 C 20.761719 0 23 2.238281 23 5 L 23 29 C 23 31.761719 20.761719 34 18 34 L 5 34 C 2.238281 34 0 31.761719 0 29 Z M 0 5 " transform="matrix(1,0,0,1,369,12)"/>
</g>
</g>
<g clip-path="url(#clip73)" clip-rule="nonzero">
<path style="fill:none;stroke-width:2;stroke-linecap:butt;stroke-linejoin:miter;stroke:rgb(38.039216%,50.588235%,100%);stroke-opacity:1;stroke-miterlimit:10;" d="M 0 5 C 0 2.238281 2.238281 0 5 0 L 18 0 C 20.761719 0 23 2.238281 23 5 L 23 29 C 23 31.761719 20.761719 34 18 34 L 5 34 C 2.238281 34 0 31.761719 0 29 Z M 0 5 " transform="matrix(1,0,0,1,323,37)"/>
</g>
<path style=" stroke:none;fill-rule:nonzero;fill:rgb(38.039216%,50.588235%,100%);fill-opacity:0.490196;" d="M 323 42 C 323 39.238281 325.238281 37 328 37 L 341 37 C 343.761719 37 346 39.238281 346 42 L 346 66 C 346 68.761719 343.761719 71 341 71 L 328 71 C 325.238281 71 323 68.761719 323 66 Z M 323 42 "/>
<g clip-path="url(#clip74)" clip-rule="nonzero">
<g clip-path="url(#clip75)" clip-rule="nonzero">
<path style="fill:none;stroke-width:2;stroke-linecap:butt;stroke-linejoin:miter;stroke:rgb(38.039216%,50.588235%,100%);stroke-opacity:1;stroke-miterlimit:10;" d="M 0 5 C 0 2.238281 2.238281 0 5 0 L 18 0 C 20.761719 0 23 2.238281 23 5 L 23 29 C 23 31.761719 20.761719 34 18 34 L 5 34 C 2.238281 34 0 31.761719 0 29 Z M 0 5 " transform="matrix(1,0,0,1,323,37)"/>
</g>
</g>
<g clip-path="url(#clip76)" clip-rule="nonzero">
<path style="fill:none;stroke-width:2;stroke-linecap:butt;stroke-linejoin:miter;stroke:rgb(38.039216%,50.588235%,100%);stroke-opacity:1;stroke-miterlimit:10;" d="M 0 5 C 0 2.238281 2.238281 0 5 0 L 18 0 C 20.761719 0 23 2.238281 23 5 L 23 29 C 23 31.761719 20.761719 34 18 34 L 5 34 C 2.238281 34 0 31.761719 0 29 Z M 0 5 " transform="matrix(1,0,0,1,315,12)"/>
</g>
<path style=" stroke:none;fill-rule:nonzero;fill:rgb(38.039216%,50.588235%,100%);fill-opacity:0.490196;" d="M 315 17 C 315 14.238281 317.238281 12 320 12 L 333 12 C 335.761719 12 338 14.238281 338 17 L 338 41 C 338 43.761719 335.761719 46 333 46 L 320 46 C 317.238281 46 315 43.761719 315 41 Z M 315 17 "/>
<g clip-path="url(#clip77)" clip-rule="nonzero">
<g clip-path="url(#clip78)" clip-rule="nonzero">
<path style="fill:none;stroke-width:2;stroke-linecap:butt;stroke-linejoin:miter;stroke:rgb(38.039216%,50.588235%,100%);stroke-opacity:1;stroke-miterlimit:10;" d="M 0 5 C 0 2.238281 2.238281 0 5 0 L 18 0 C 20.761719 0 23 2.238281 23 5 L 23 29 C 23 31.761719 20.761719 34 18 34 L 5 34 C 2.238281 34 0 31.761719 0 29 Z M 0 5 " transform="matrix(1,0,0,1,315,12)"/>
</g>
</g>
<g clip-path="url(#clip79)" clip-rule="nonzero">
<path style="fill:none;stroke-width:2;stroke-linecap:butt;stroke-linejoin:miter;stroke:rgb(38.039216%,50.588235%,100%);stroke-opacity:1;stroke-miterlimit:10;" d="M 0 5 C 0 2.238281 2.238281 0 5 0 L 18 0 C 20.761719 0 23 2.238281 23 5 L 23 29 C 23 31.761719 20.761719 34 18 34 L 5 34 C 2.238281 34 0 31.761719 0 29 Z M 0 5 " transform="matrix(1,0,0,1,323,37)"/>
</g>
<path style=" stroke:none;fill-rule:nonzero;fill:rgb(38.039216%,50.588235%,100%);fill-opacity:0.490196;" d="M 323 42 C 323 39.238281 325.238281 37 328 37 L 341 37 C 343.761719 37 346 39.238281 346 42 L 346 66 C 346 68.761719 343.761719 71 341 71 L 328 71 C 325.238281 71 323 68.761719 323 66 Z M 323 42 "/>
<g clip-path="url(#clip80)" clip-rule="nonzero">
<g clip-path="url(#clip81)" clip-rule="nonzero">
<path style="fill:none;stroke-width:2;stroke-linecap:butt;stroke-linejoin:miter;stroke:rgb(38.039216%,50.588235%,100%);stroke-opacity:1;stroke-miterlimit:10;" d="M 0 5 C 0 2.238281 2.238281 0 5 0 L 18 0 C 20.761719 0 23 2.238281 23 5 L 23 29 C 23 31.761719 20.761719 34 18 34 L 5 34 C 2.238281 34 0 31.761719 0 29 Z M 0 5 " transform="matrix(1,0,0,1,323,37)"/>
</g>
</g>
<g clip-path="url(#clip82)" clip-rule="nonzero">
<path style="fill:none;stroke-width:2;stroke-linecap:butt;stroke-linejoin:miter;stroke:rgb(38.039216%,50.588235%,100%);stroke-opacity:1;stroke-miterlimit:10;" d="M 0 5 C 0 2.238281 2.238281 0 5 0 L 18 0 C 20.761719 0 23 2.238281 23 5 L 23 29 C 23 31.761719 20.761719 34 18 34 L 5 34 C 2.238281 34 0 31.761719 0 29 Z M 0 5 " transform="matrix(1,0,0,1,288,12)"/>
</g>
<path style=" stroke:none;fill-rule:nonzero;fill:rgb(38.039216%,50.588235%,100%);fill-opacity:0.490196;" d="M 288 17 C 288 14.238281 290.238281 12 293 12 L 306 12 C 308.761719 12 311 14.238281 311 17 L 311 41 C 311 43.761719 308.761719 46 306 46 L 293 46 C 290.238281 46 288 43.761719 288 41 Z M 288 17 "/>
<g clip-path="url(#clip83)" clip-rule="nonzero">
<g clip-path="url(#clip84)" clip-rule="nonzero">
<path style="fill:none;stroke-width:2;stroke-linecap:butt;stroke-linejoin:miter;stroke:rgb(38.039216%,50.588235%,100%);stroke-opacity:1;stroke-miterlimit:10;" d="M 0 5 C 0 2.238281 2.238281 0 5 0 L 18 0 C 20.761719 0 23 2.238281 23 5 L 23 29 C 23 31.761719 20.761719 34 18 34 L 5 34 C 2.238281 34 0 31.761719 0 29 Z M 0 5 " transform="matrix(1,0,0,1,288,12)"/>
</g>
</g>
<g clip-path="url(#clip85)" clip-rule="nonzero">
<path style="fill:none;stroke-width:2;stroke-linecap:butt;stroke-linejoin:miter;stroke:rgb(38.039216%,50.588235%,100%);stroke-opacity:1;stroke-miterlimit:10;" d="M 0 5 C 0 2.238281 2.238281 0 5 0 L 99 0 C 101.761719 0 104 2.238281 104 5 L 104 29 C 104 31.761719 101.761719 34 99 34 L 5 34 C 2.238281 34 0 31.761719 0 29 Z M 0 5 " transform="matrix(1,0,0,1,323,37)"/>
</g>
<path style=" stroke:none;fill-rule:nonzero;fill:rgb(38.039216%,50.588235%,100%);fill-opacity:0.490196;" d="M 323 42 C 323 39.238281 325.238281 37 328 37 L 422 37 C 424.761719 37 427 39.238281 427 42 L 427 66 C 427 68.761719 424.761719 71 422 71 L 328 71 C 325.238281 71 323 68.761719 323 66 Z M 323 42 "/>
<g clip-path="url(#clip86)" clip-rule="nonzero">
<g clip-path="url(#clip87)" clip-rule="nonzero">
<path style="fill:none;stroke-width:2;stroke-linecap:butt;stroke-linejoin:miter;stroke:rgb(38.039216%,50.588235%,100%);stroke-opacity:1;stroke-miterlimit:10;" d="M 0 5 C 0 2.238281 2.238281 0 5 0 L 99 0 C 101.761719 0 104 2.238281 104 5 L 104 29 C 104 31.761719 101.761719 34 99 34 L 5 34 C 2.238281 34 0 31.761719 0 29 Z M 0 5 " transform="matrix(1,0,0,1,323,37)"/>
</g>
</g>
<g clip-path="url(#clip88)" clip-rule="nonzero">
<path style="fill:none;stroke-width:2;stroke-linecap:butt;stroke-linejoin:miter;stroke:rgb(38.039216%,50.588235%,100%);stroke-opacity:1;stroke-miterlimit:10;" d="M 0 5 C 0 2.238281 2.238281 0 5 0 L 99 0 C 101.761719 0 104 2.238281 104 5 L 104 29 C 104 31.761719 101.761719 34 99 34 L 5 34 C 2.238281 34 0 31.761719 0 29 Z M 0 5 " transform="matrix(1,0,0,1,288,50)"/>
</g>
<path style=" stroke:none;fill-rule:nonzero;fill:rgb(38.039216%,50.588235%,100%);fill-opacity:0.490196;" d="M 288 55 C 288 52.238281 290.238281 50 293 50 L 387 50 C 389.761719 50 392 52.238281 392 55 L 392 79 C 392 81.761719 389.761719 84 387 84 L 293 84 C 290.238281 84 288 81.761719 288 79 Z M 288 55 "/>
<g clip-path="url(#clip89)" clip-rule="nonzero">
<g clip-path="url(#clip90)" clip-rule="nonzero">
<path style="fill:none;stroke-width:2;stroke-linecap:butt;stroke-linejoin:miter;stroke:rgb(38.039216%,50.588235%,100%);stroke-opacity:1;stroke-miterlimit:10;" d="M 0 5 C 0 2.238281 2.238281 0 5 0 L 99 0 C 101.761719 0 104 2.238281 104 5 L 104 29 C 104 31.761719 101.761719 34 99 34 L 5 34 C 2.238281 34 0 31.761719 0 29 Z M 0 5 " transform="matrix(1,0,0,1,288,50)"/>
</g>
</g>
<g clip-path="url(#clip91)" clip-rule="nonzero">
<path style="fill:none;stroke-width:2;stroke-linecap:butt;stroke-linejoin:miter;stroke:rgb(38.039216%,50.588235%,100%);stroke-opacity:1;stroke-miterlimit:10;" d="M 0 5 C 0 2.238281 2.238281 0 5 0 L 18 0 C 20.761719 0 23 2.238281 23 5 L 23 29 C 23 31.761719 20.761719 34 18 34 L 5 34 C 2.238281 34 0 31.761719 0 29 Z M 0 5 " transform="matrix(1,0,0,1,461,37)"/>
</g>
<path style=" stroke:none;fill-rule:nonzero;fill:rgb(38.039216%,50.588235%,100%);fill-opacity:0.490196;" d="M 461 42 C 461 39.238281 463.238281 37 466 37 L 479 37 C 481.761719 37 484 39.238281 484 42 L 484 66 C 484 68.761719 481.761719 71 479 71 L 466 71 C 463.238281 71 461 68.761719 461 66 Z M 461 42 "/>
<g clip-path="url(#clip92)" clip-rule="nonzero">
<g clip-path="url(#clip93)" clip-rule="nonzero">
<path style="fill:none;stroke-width:2;stroke-linecap:butt;stroke-linejoin:miter;stroke:rgb(38.039216%,50.588235%,100%);stroke-opacity:1;stroke-miterlimit:10;" d="M 0 5 C 0 2.238281 2.238281 0 5 0 L 18 0 C 20.761719 0 23 2.238281 23 5 L 23 29 C 23 31.761719 20.761719 34 18 34 L 5 34 C 2.238281 34 0 31.761719 0 29 Z M 0 5 " transform="matrix(1,0,0,1,461,37)"/>
</g>
</g>
<g clip-path="url(#clip94)" clip-rule="nonzero">
<path style="fill:none;stroke-width:2;stroke-linecap:butt;stroke-linejoin:miter;stroke:rgb(38.039216%,50.588235%,100%);stroke-opacity:1;stroke-miterlimit:10;" d="M 0 5 C 0 2.238281 2.238281 0 5 0 L 18 0 C 20.761719 0 23 2.238281 23 5 L 23 29 C 23 31.761719 20.761719 34 18 34 L 5 34 C 2.238281 34 0 31.761719 0 29 Z M 0 5 " transform="matrix(1,0,0,1,507,50)"/>
</g>
<path style=" stroke:none;fill-rule:nonzero;fill:rgb(38.039216%,50.588235%,100%);fill-opacity:0.490196;" d="M 507 55 C 507 52.238281 509.238281 50 512 50 L 525 50 C 527.761719 50 530 52.238281 530 55 L 530 79 C 530 81.761719 527.761719 84 525 84 L 512 84 C 509.238281 84 507 81.761719 507 79 Z M 507 55 "/>
<g clip-path="url(#clip95)" clip-rule="nonzero">
<g clip-path="url(#clip96)" clip-rule="nonzero">
<path style="fill:none;stroke-width:2;stroke-linecap:butt;stroke-linejoin:miter;stroke:rgb(38.039216%,50.588235%,100%);stroke-opacity:1;stroke-miterlimit:10;" d="M 0 5 C 0 2.238281 2.238281 0 5 0 L 18 0 C 20.761719 0 23 2.238281 23 5 L 23 29 C 23 31.761719 20.761719 34 18 34 L 5 34 C 2.238281 34 0 31.761719 0 29 Z M 0 5 " transform="matrix(1,0,0,1,507,50)"/>
</g>
</g>
<g clip-path="url(#clip97)" clip-rule="nonzero">
<path style="fill:none;stroke-width:2;stroke-linecap:butt;stroke-linejoin:miter;stroke:rgb(38.039216%,50.588235%,100%);stroke-opacity:1;stroke-miterlimit:10;" d="M 0 5 C 0 2.238281 2.238281 0 5 0 L 18 0 C 20.761719 0 23 2.238281 23 5 L 23 29 C 23 31.761719 20.761719 34 18 34 L 5 34 C 2.238281 34 0 31.761719 0 29 Z M 0 5 " transform="matrix(1,0,0,1,461,37)"/>
</g>
<path style=" stroke:none;fill-rule:nonzero;fill:rgb(38.039216%,50.588235%,100%);fill-opacity:0.490196;" d="M 461 42 C 461 39.238281 463.238281 37 466 37 L 479 37 C 481.761719 37 484 39.238281 484 42 L 484 66 C 484 68.761719 481.761719 71 479 71 L 466 71 C 463.238281 71 461 68.761719 461 66 Z M 461 42 "/>
<g clip-path="url(#clip98)" clip-rule="nonzero">
<g clip-path="url(#clip99)" clip-rule="nonzero">
<path style="fill:none;stroke-width:2;stroke-linecap:butt;stroke-linejoin:miter;stroke:rgb(38.039216%,50.588235%,100%);stroke-opacity:1;stroke-miterlimit:10;" d="M 0 5 C 0 2.238281 2.238281 0 5 0 L 18 0 C 20.761719 0 23 2.238281 23 5 L 23 29 C 23 31.761719 20.761719 34 18 34 L 5 34 C 2.238281 34 0 31.761719 0 29 Z M 0 5 " transform="matrix(1,0,0,1,461,37)"/>
</g>
</g>
<g clip-path="url(#clip100)" clip-rule="nonzero">
<path style="fill:none;stroke-width:2;stroke-linecap:butt;stroke-linejoin:miter;stroke:rgb(38.039216%,50.588235%,100%);stroke-opacity:1;stroke-miterlimit:10;" d="M 0 5 C 0 2.238281 2.238281 0 5 0 L 18 0 C 20.761719 0 23 2.238281 23 5 L 23 29 C 23 31.761719 20.761719 34 18 34 L 5 34 C 2.238281 34 0 31.761719 0 29 Z M 0 5 " transform="matrix(1,0,0,1,480,50)"/>
</g>
<path style=" stroke:none;fill-rule:nonzero;fill:rgb(38.039216%,50.588235%,100%);fill-opacity:0.490196;" d="M 480 55 C 480 52.238281 482.238281 50 485 50 L 498 50 C 500.761719 50 503 52.238281 503 55 L 503 79 C 503 81.761719 500.761719 84 498 84 L 485 84 C 482.238281 84 480 81.761719 480 79 Z M 480 55 "/>
<g clip-path="url(#clip101)" clip-rule="nonzero">
<g clip-path="url(#clip102)" clip-rule="nonzero">
<path style="fill:none;stroke-width:2;stroke-linecap:butt;stroke-linejoin:miter;stroke:rgb(38.039216%,50.588235%,100%);stroke-opacity:1;stroke-miterlimit:10;" d="M 0 5 C 0 2.238281 2.238281 0 5 0 L 18 0 C 20.761719 0 23 2.238281 23 5 L 23 29 C 23 31.761719 20.761719 34 18 34 L 5 34 C 2.238281 34 0 31.761719 0 29 Z M 0 5 " transform="matrix(1,0,0,1,480,50)"/>
</g>
</g>
<g clip-path="url(#clip103)" clip-rule="nonzero">
<path style="fill:none;stroke-width:2;stroke-linecap:butt;stroke-linejoin:miter;stroke:rgb(38.039216%,50.588235%,100%);stroke-opacity:1;stroke-miterlimit:10;" d="M 0 5 C 0 2.238281 2.238281 0 5 0 L 18 0 C 20.761719 0 23 2.238281 23 5 L 23 29 C 23 31.761719 20.761719 34 18 34 L 5 34 C 2.238281 34 0 31.761719 0 29 Z M 0 5 " transform="matrix(1,0,0,1,461,37)"/>
</g>
<path style=" stroke:none;fill-rule:nonzero;fill:rgb(38.039216%,50.588235%,100%);fill-opacity:0.490196;" d="M 461 42 C 461 39.238281 463.238281 37 466 37 L 479 37 C 481.761719 37 484 39.238281 484 42 L 484 66 C 484 68.761719 481.761719 71 479 71 L 466 71 C 463.238281 71 461 68.761719 461 66 Z M 461 42 "/>
<g clip-path="url(#clip104)" clip-rule="nonzero">
<g clip-path="url(#clip105)" clip-rule="nonzero">
<path style="fill:none;stroke-width:2;stroke-linecap:butt;stroke-linejoin:miter;stroke:rgb(38.039216%,50.588235%,100%);stroke-opacity:1;stroke-miterlimit:10;" d="M 0 5 C 0 2.238281 2.238281 0 5 0 L 18 0 C 20.761719 0 23 2.238281 23 5 L 23 29 C 23 31.761719 20.761719 34 18 34 L 5 34 C 2.238281 34 0 31.761719 0 29 Z M 0 5 " transform="matrix(1,0,0,1,461,37)"/>
</g>
</g>
<g clip-path="url(#clip106)" clip-rule="nonzero">
<path style="fill:none;stroke-width:2;stroke-linecap:butt;stroke-linejoin:miter;stroke:rgb(38.039216%,50.588235%,100%);stroke-opacity:1;stroke-miterlimit:10;" d="M 0 5 C 0 2.238281 2.238281 0 5 0 L 18 0 C 20.761719 0 23 2.238281 23 5 L 23 29 C 23 31.761719 20.761719 34 18 34 L 5 34 C 2.238281 34 0 31.761719 0 29 Z M 0 5 " transform="matrix(1,0,0,1,453,50)"/>
</g>
<path style=" stroke:none;fill-rule:nonzero;fill:rgb(38.039216%,50.588235%,100%);fill-opacity:0.490196;" d="M 453 55 C 453 52.238281 455.238281 50 458 50 L 471 50 C 473.761719 50 476 52.238281 476 55 L 476 79 C 476 81.761719 473.761719 84 471 84 L 458 84 C 455.238281 84 453 81.761719 453 79 Z M 453 55 "/>
<g clip-path="url(#clip107)" clip-rule="nonzero">
<g clip-path="url(#clip108)" clip-rule="nonzero">
<path style="fill:none;stroke-width:2;stroke-linecap:butt;stroke-linejoin:miter;stroke:rgb(38.039216%,50.588235%,100%);stroke-opacity:1;stroke-miterlimit:10;" d="M 0 5 C 0 2.238281 2.238281 0 5 0 L 18 0 C 20.761719 0 23 2.238281 23 5 L 23 29 C 23 31.761719 20.761719 34 18 34 L 5 34 C 2.238281 34 0 31.761719 0 29 Z M 0 5 " transform="matrix(1,0,0,1,453,50)"/>
</g>
</g>
<g clip-path="url(#clip109)" clip-rule="nonzero">
<path style="fill:none;stroke-width:2;stroke-linecap:butt;stroke-linejoin:miter;stroke:rgb(38.039216%,50.588235%,100%);stroke-opacity:1;stroke-miterlimit:10;" d="M 0 5 C 0 2.238281 2.238281 0 5 0 L 18 0 C 20.761719 0 23 2.238281 23 5 L 23 29 C 23 31.761719 20.761719 34 18 34 L 5 34 C 2.238281 34 0 31.761719 0 29 Z M 0 5 " transform="matrix(1,0,0,1,461,37)"/>
</g>
<path style=" stroke:none;fill-rule:nonzero;fill:rgb(38.039216%,50.588235%,100%);fill-opacity:0.490196;" d="M 461 42 C 461 39.238281 463.238281 37 466 37 L 479 37 C 481.761719 37 484 39.238281 484 42 L 484 66 C 484 68.761719 481.761719 71 479 71 L 466 71 C 463.238281 71 461 68.761719 461 66 Z M 461 42 "/>
<g clip-path="url(#clip110)" clip-rule="nonzero">
<g clip-path="url(#clip111)" clip-rule="nonzero">
<path style="fill:none;stroke-width:2;stroke-linecap:butt;stroke-linejoin:miter;stroke:rgb(38.039216%,50.588235%,100%);stroke-opacity:1;stroke-miterlimit:10;" d="M 0 5 C 0 2.238281 2.238281 0 5 0 L 18 0 C 20.761719 0 23 2.238281 23 5 L 23 29 C 23 31.761719 20.761719 34 18 34 L 5 34 C 2.238281 34 0 31.761719 0 29 Z M 0 5 " transform="matrix(1,0,0,1,461,37)"/>
</g>
</g>
<g clip-path="url(#clip112)" clip-rule="nonzero">
<path style="fill:none;stroke-width:2;stroke-linecap:butt;stroke-linejoin:miter;stroke:rgb(38.039216%,50.588235%,100%);stroke-opacity:1;stroke-miterlimit:10;" d="M 0 5 C 0 2.238281 2.238281 0 5 0 L 18 0 C 20.761719 0 23 2.238281 23 5 L 23 29 C 23 31.761719 20.761719 34 18 34 L 5 34 C 2.238281 34 0 31.761719 0 29 Z M 0 5 " transform="matrix(1,0,0,1,426,50)"/>
</g>
<path style=" stroke:none;fill-rule:nonzero;fill:rgb(38.039216%,50.588235%,100%);fill-opacity:0.490196;" d="M 426 55 C 426 52.238281 428.238281 50 431 50 L 444 50 C 446.761719 50 449 52.238281 449 55 L 449 79 C 449 81.761719 446.761719 84 444 84 L 431 84 C 428.238281 84 426 81.761719 426 79 Z M 426 55 "/>
<g clip-path="url(#clip113)" clip-rule="nonzero">
<g clip-path="url(#clip114)" clip-rule="nonzero">
<path style="fill:none;stroke-width:2;stroke-linecap:butt;stroke-linejoin:miter;stroke:rgb(38.039216%,50.588235%,100%);stroke-opacity:1;stroke-miterlimit:10;" d="M 0 5 C 0 2.238281 2.238281 0 5 0 L 18 0 C 20.761719 0 23 2.238281 23 5 L 23 29 C 23 31.761719 20.761719 34 18 34 L 5 34 C 2.238281 34 0 31.761719 0 29 Z M 0 5 " transform="matrix(1,0,0,1,426,50)"/>
</g>
</g>
<g clip-path="url(#clip115)" clip-rule="nonzero">
<path style="fill:none;stroke-width:2;stroke-linecap:butt;stroke-linejoin:miter;stroke:rgb(38.039216%,50.588235%,100%);stroke-opacity:1;stroke-miterlimit:10;" d="M 0 5 C 0 2.238281 2.238281 0 5 0 L 99 0 C 101.761719 0 104 2.238281 104 5 L 104 29 C 104 31.761719 101.761719 34 99 34 L 5 34 C 2.238281 34 0 31.761719 0 29 Z M 0 5 " transform="matrix(1,0,0,1,461,37)"/>
</g>
<path style=" stroke:none;fill-rule:nonzero;fill:rgb(38.039216%,50.588235%,100%);fill-opacity:0.490196;" d="M 461 42 C 461 39.238281 463.238281 37 466 37 L 560 37 C 562.761719 37 565 39.238281 565 42 L 565 66 C 565 68.761719 562.761719 71 560 71 L 466 71 C 463.238281 71 461 68.761719 461 66 Z M 461 42 "/>
<g clip-path="url(#clip116)" clip-rule="nonzero">
<g clip-path="url(#clip117)" clip-rule="nonzero">
<path style="fill:none;stroke-width:2;stroke-linecap:butt;stroke-linejoin:miter;stroke:rgb(38.039216%,50.588235%,100%);stroke-opacity:1;stroke-miterlimit:10;" d="M 0 5 C 0 2.238281 2.238281 0 5 0 L 99 0 C 101.761719 0 104 2.238281 104 5 L 104 29 C 104 31.761719 101.761719 34 99 34 L 5 34 C 2.238281 34 0 31.761719 0 29 Z M 0 5 " transform="matrix(1,0,0,1,461,37)"/>
</g>
</g>
<g clip-path="url(#clip118)" clip-rule="nonzero">
<path style="fill:none;stroke-width:2;stroke-linecap:butt;stroke-linejoin:miter;stroke:rgb(38.039216%,50.588235%,100%);stroke-opacity:1;stroke-miterlimit:10;" d="M 0 5 C 0 2.238281 2.238281 0 5 0 L 99 0 C 101.761719 0 104 2.238281 104 5 L 104 29 C 104 31.761719 101.761719 34 99 34 L 5 34 C 2.238281 34 0 31.761719 0 29 Z M 0 5 " transform="matrix(1,0,0,1,426,12)"/>
</g>
<path style=" stroke:none;fill-rule:nonzero;fill:rgb(38.039216%,50.588235%,100%);fill-opacity:0.490196;" d="M 426 17 C 426 14.238281 428.238281 12 431 12 L 525 12 C 527.761719 12 530 14.238281 530 17 L 530 41 C 530 43.761719 527.761719 46 525 46 L 431 46 C 428.238281 46 426 43.761719 426 41 Z M 426 17 "/>
<g clip-path="url(#clip119)" clip-rule="nonzero">
<g clip-path="url(#clip120)" clip-rule="nonzero">
<path style="fill:none;stroke-width:2;stroke-linecap:butt;stroke-linejoin:miter;stroke:rgb(38.039216%,50.588235%,100%);stroke-opacity:1;stroke-miterlimit:10;" d="M 0 5 C 0 2.238281 2.238281 0 5 0 L 99 0 C 101.761719 0 104 2.238281 104 5 L 104 29 C 104 31.761719 101.761719 34 99 34 L 5 34 C 2.238281 34 0 31.761719 0 29 Z M 0 5 " transform="matrix(1,0,0,1,426,12)"/>
</g>
</g>
</g>
</svg>
