<?xml version="1.0" encoding="UTF-8"?>
<svg xmlns="http://www.w3.org/2000/svg" xmlns:xlink="http://www.w3.org/1999/xlink" width="434pt" height="106pt" viewBox="0 0 434 106" version="1.1">
<g id="surface2">
<path style="fill:none;stroke-width:1.5;stroke-linecap:butt;stroke-linejoin:miter;stroke:rgb(0%,0%,0%);stroke-opacity:0.266667;stroke-dasharray:10,4;stroke-dashoffset:1;stroke-miterlimit:10;" d="M 0.75 0.75 L 63.25 0.75 L 63.25 47.25 L 0.75 47.25 Z M 0.75 0.75 "/>
<path style="fill:none;stroke-width:1.5;stroke-linecap:butt;stroke-linejoin:miter;stroke:rgb(0%,0%,0%);stroke-opacity:0.2;stroke-dasharray:10,4;stroke-dashoffset:1;stroke-miterlimit:10;" d="M 3 3 L 61 3 L 61 45 L 3 45 Z M 3 3 "/>
<path style="fill:none;stroke-width:1.5;stroke-linecap:butt;stroke-linejoin:miter;stroke:rgb(0%,0%,0%);stroke-opacity:0.266667;stroke-dasharray:10,4;stroke-dashoffset:1;stroke-miterlimit:10;" d="M 74.75 0.75 L 137.25 0.75 L 137.25 47.25 L 74.75 47.25 Z M 74.75 0.75 "/>
<path style="fill:none;stroke-width:1.5;stroke-linecap:butt;stroke-linejoin:miter;stroke:rgb(0%,0%,0%);stroke-opacity:0.2;stroke-dasharray:10,4;stroke-dashoffset:1;stroke-miterlimit:10;" d="M 77 3 L 135 3 L 135 45 L 77 45 Z M 77 3 "/>
<path style="fill:none;stroke-width:1.5;stroke-linecap:butt;stroke-linejoin:miter;stroke:rgb(0%,0%,0%);stroke-opacity:0.266667;stroke-dasharray:10,4;stroke-dashoffset:1;stroke-miterlimit:10;" d="M 148.75 0.75 L 211.25 0.75 L 211.25 47.25 L 148.75 47.25 Z M 148.75 0.75 "/>
<path style="fill:none;stroke-width:1.5;stroke-linecap:butt;stroke-linejoin:miter;stroke:rgb(0%,0%,0%);stroke-opacity:0.2;stroke-dasharray:10,4;stroke-dashoffset:1;stroke-miterlimit:10;" d="M 151 3 L 209 3 L 209 45 L 151 45 Z M 151 3 "/>
<path style="fill:none;stroke-width:1.5;stroke-linecap:butt;stroke-linejoin:miter;stroke:rgb(0%,0%,0%);stroke-opacity:0.266667;stroke-dasharray:10,4;stroke-dashoffset:1;stroke-miterlimit:10;" d="M 222.75 0.75 L 285.25 0.75 L 285.25 47.25 L 222.75 47.25 Z M 222.75 0.75 "/>
<path style="fill:none;stroke-width:1.5;stroke-linecap:butt;stroke-linejoin:miter;stroke:rgb(0%,0%,0%);stroke-opacity:0.2;stroke-dasharray:10,4;stroke-dashoffset:1;stroke-miterlimit:10;" d="M 225 3 L 283 3 L 283 45 L 225 45 Z M 225 3 "/>
<path style="fill:none;stroke-width:1.5;stroke-linecap:butt;stroke-linejoin:miter;stroke:rgb(0%,0%,0%);stroke-opacity:0.266667;stroke-dasharray:10,4;stroke-dashoffset:1;stroke-miterlimit:10;" d="M 296.75 0.75 L 359.25 0.75 L 359.25 47.25 L 296.75 47.25 Z M 296.75 0.75 "/>
<path style="fill:none;stroke-width:1.5;stroke-linecap:butt;stroke-linejoin:miter;stroke:rgb(0%,0%,0%);stroke-opacity:0.2;stroke-dasharray:10,4;stroke-dashoffset:1;stroke-miterlimit:10;" d="M 299 3 L 357 3 L 357 45 L 299 45 Z M 299 3 "/>
<path style="fill:none;stroke-width:1.5;stroke-linecap:butt;stroke-linejoin:miter;stroke:rgb(0%,0%,0%);stroke-opacity:0.266667;stroke-dasharray:10,4;stroke-dashoffset:1;stroke-miterlimit:10;" d="M 370.75 0.75 L 433.25 0.75 L 433.25 47.25 L 370.75 47.25 Z M 370.75 0.75 "/>
<path style="fill:none;stroke-width:1.5;stroke-linecap:butt;stroke-linejoin:miter;stroke:rgb(0%,0%,0%);stroke-opacity:0.2;stroke-dasharray:10,4;stroke-dashoffset:1;stroke-miterlimit:10;" d="M 373 3 L 431 3 L 431 45 L 373 45 Z M 373 3 "/>
<path style="fill:none;stroke-width:1.5;stroke-linecap:butt;stroke-linejoin:miter;stroke:rgb(0%,0%,0%);stroke-opacity:0.266667;stroke-dasharray:10,4;stroke-dashoffset:1;stroke-miterlimit:10;" d="M 0.75 58.75 L 63.25 58.75 L 63.25 105.25 L 0.75 105.25 Z M 0.75 58.75 "/>
<path style="fill:none;stroke-width:1.5;stroke-linecap:butt;stroke-linejoin:miter;stroke:rgb(0%,0%,0%);stroke-opacity:0.2;stroke-dasharray:10,4;stroke-dashoffset:1;stroke-miterlimit:10;" d="M 3 61 L 61 61 L 61 103 L 3 103 Z M 3 61 "/>
<path style="fill:none;stroke-width:1.5;stroke-linecap:butt;stroke-linejoin:miter;stroke:rgb(0%,0%,0%);stroke-opacity:0.266667;stroke-dasharray:10,4;stroke-dashoffset:1;stroke-miterlimit:10;" d="M 74.75 58.75 L 137.25 58.75 L 137.25 105.25 L 74.75 105.25 Z M 74.75 58.75 "/>
<path style="fill:none;stroke-width:1.5;stroke-linecap:butt;stroke-linejoin:miter;stroke:rgb(0%,0%,0%);stroke-opacity:0.2;stroke-dasharray:10,4;stroke-dashoffset:1;stroke-miterlimit:10;" d="M 77 61 L 135 61 L 135 103 L 77 103 Z M 77 61 "/>
<path style="fill:none;stroke-width:1.5;stroke-linecap:butt;stroke-linejoin:miter;stroke:rgb(0%,0%,0%);stroke-opacity:0.266667;stroke-dasharray:10,4;stroke-dashoffset:1;stroke-miterlimit:10;" d="M 148.75 58.75 L 211.25 58.75 L 211.25 105.25 L 148.75 105.25 Z M 148.75 58.75 "/>
<path style="fill:none;stroke-width:1.5;stroke-linecap:butt;stroke-linejoin:miter;stroke:rgb(0%,0%,0%);stroke-opacity:0.2;stroke-dasharray:10,4;stroke-dashoffset:1;stroke-miterlimit:10;" d="M 151 61 L 209 61 L 209 103 L 151 103 Z M 151 61 "/>
<path style="fill:none;stroke-width:1.5;stroke-linecap:butt;stroke-linejoin:miter;stroke:rgb(0%,0%,0%);stroke-opacity:0.266667;stroke-dasharray:10,4;stroke-dashoffset:1;stroke-miterlimit:10;" d="M 222.75 58.75 L 285.25 58.75 L 285.25 105.25 L 222.75 105.25 Z M 222.75 58.75 "/>
<path style="fill:none;stroke-width:1.5;stroke-linecap:butt;stroke-linejoin:miter;stroke:rgb(0%,0%,0%);stroke-opacity:0.2;stroke-dasharray:10,4;stroke-dashoffset:1;stroke-miterlimit:10;" d="M 225 61 L 283 61 L 283 103 L 225 103 Z M 225 61 "/>
<path style="fill:none;stroke-width:1.5;stroke-linecap:butt;stroke-linejoin:miter;stroke:rgb(0%,0%,0%);stroke-opacity:0.266667;stroke-dasharray:10,4;stroke-dashoffset:1;stroke-miterlimit:10;" d="M 296.75 58.75 L 359.25 58.75 L 359.25 105.25 L 296.75 105.25 Z M 296.75 58.75 "/>
<path style="fill:none;stroke-width:1.5;stroke-linecap:butt;stroke-linejoin:miter;stroke:rgb(0%,0%,0%);stroke-opacity:0.2;stroke-dasharray:10,4;stroke-dashoffset:1;stroke-miterlimit:10;" d="M 299 61 L 357 61 L 357 103 L 299 103 Z M 299 61 "/>
<path style="fill:none;stroke-width:1.5;stroke-linecap:butt;stroke-linejoin:miter;stroke:rgb(0%,0%,0%);stroke-opacity:0.266667;stroke-dasharray:10,4;stroke-dashoffset:1;stroke-miterlimit:10;" d="M 370.75 58.75 L 433.25 58.75 L 433.25 105.25 L 370.75 105.25 Z M 370.75 58.75 "/>
<path style="fill:none;stroke-width:1.5;stroke-linecap:butt;stroke-linejoin:miter;stroke:rgb(0%,0%,0%);stroke-opacity:0.2;stroke-dasharray:10,4;stroke-dashoffset:1;stroke-miterlimit:10;" d="M 373 61 L 431 61 L 431 103 L 373 103 Z M 373 61 "/>
<path style="fill:none;stroke-width:1.5;stroke-linecap:butt;stroke-linejoin:miter;stroke:rgb(38.039216%,50.588235%,100%);stroke-opacity:1;stroke-miterlimit:10;" d="M 0 2 C 0 0.894531 0.894531 0 2 0 L 54 0 C 55.105469 0 56 0.894531 56 2 L 56 38 C 56 39.105469 55.105469 40 54 40 L 2 40 C 0.894531 40 0 39.105469 0 38 Z M 0 2 " transform="matrix(1,0,0,1,3,3)"/>
<path style=" stroke:none;fill-rule:nonzero;fill:rgb(38.039216%,50.588235%,100%);fill-opacity:0.490196;" d="M 3 5 C 3 3.894531 3.894531 3 5 3 L 57 3 C 58.105469 3 59 3.894531 59 5 L 59 41 C 59 42.105469 58.105469 43 57 43 L 5 43 C 3.894531 43 3 42.105469 3 41 Z M 3 5 "/>
<path style="fill:none;stroke-width:1.5;stroke-linecap:butt;stroke-linejoin:miter;stroke:rgb(38.039216%,50.588235%,100%);stroke-opacity:1;stroke-miterlimit:10;" d="M 0 2 C 0 0.894531 0.894531 0 2 0 L 54 0 C 55.105469 0 56 0.894531 56 2 L 56 17 C 56 18.105469 55.105469 19 54 19 L 2 19 C 0.894531 19 0 18.105469 0 17 Z M 0 2 " transform="matrix(1,0,0,1,77,3)"/>
<path style=" stroke:none;fill-rule:nonzero;fill:rgb(38.039216%,50.588235%,100%);fill-opacity:0.490196;" d="M 77 5 C 77 3.894531 77.894531 3 79 3 L 131 3 C 132.105469 3 133 3.894531 133 5 L 133 20 C 133 21.105469 132.105469 22 131 22 L 79 22 C 77.894531 22 77 21.105469 77 20 Z M 77 5 "/>
<path style="fill:none;stroke-width:1.5;stroke-linecap:butt;stroke-linejoin:miter;stroke:rgb(38.039216%,50.588235%,100%);stroke-opacity:1;stroke-miterlimit:10;" d="M 0 2 C 0 0.894531 0.894531 0 2 0 L 54 0 C 55.105469 0 56 0.894531 56 2 L 56 17 C 56 18.105469 55.105469 19 54 19 L 2 19 C 0.894531 19 0 18.105469 0 17 Z M 0 2 " transform="matrix(1,0,0,1,77,24)"/>
<path style=" stroke:none;fill-rule:nonzero;fill:rgb(38.039216%,50.588235%,100%);fill-opacity:0.490196;" d="M 77 26 C 77 24.894531 77.894531 24 79 24 L 131 24 C 132.105469 24 133 24.894531 133 26 L 133 41 C 133 42.105469 132.105469 43 131 43 L 79 43 C 77.894531 43 77 42.105469 77 41 Z M 77 26 "/>
<path style="fill:none;stroke-width:1.5;stroke-linecap:butt;stroke-linejoin:miter;stroke:rgb(38.039216%,50.588235%,100%);stroke-opacity:1;stroke-miterlimit:10;" d="M 0 2 C 0 0.894531 0.894531 0 2 0 L 25 0 C 26.105469 0 27 0.894531 27 2 L 27 17 C 27 18.105469 26.105469 19 25 19 L 2 19 C 0.894531 19 0 18.105469 0 17 Z M 0 2 " transform="matrix(1,0,0,1,151,3)"/>
<path style=" stroke:none;fill-rule:nonzero;fill:rgb(38.039216%,50.588235%,100%);fill-opacity:0.490196;" d="M 151 5 C 151 3.894531 151.894531 3 153 3 L 176 3 C 177.105469 3 178 3.894531 178 5 L 178 20 C 178 21.105469 177.105469 22 176 22 L 153 22 C 151.894531 22 151 21.105469 151 20 Z M 151 5 "/>
<path style="fill:none;stroke-width:1.5;stroke-linecap:butt;stroke-linejoin:miter;stroke:rgb(38.039216%,50.588235%,100%);stroke-opacity:1;stroke-miterlimit:10;" d="M 0 2 C 0 0.894531 0.894531 0 2 0 L 25 0 C 26.105469 0 27 0.894531 27 2 L 27 17 C 27 18.105469 26.105469 19 25 19 L 2 19 C 0.894531 19 0 18.105469 0 17 Z M 0 2 " transform="matrix(1,0,0,1,151,24)"/>
<path style=" stroke:none;fill-rule:nonzero;fill:rgb(38.039216%,50.588235%,100%);fill-opacity:0.490196;" d="M 151 26 C 151 24.894531 151.894531 24 153 24 L 176 24 C 177.105469 24 178 24.894531 178 26 L 178 41 C 178 42.105469 177.105469 43 176 43 L 153 43 C 151.894531 43 151 42.105469 151 41 Z M 151 26 "/>
<path style="fill:none;stroke-width:1.5;stroke-linecap:butt;stroke-linejoin:miter;stroke:rgb(38.039216%,50.588235%,100%);stroke-opacity:1;stroke-miterlimit:10;" d="M 0 2 C 0 0.894531 0.894531 0 2 0 L 25 0 C 26.105469 0 27 0.894531 27 2 L 27 38 C 27 39.105469 26.105469 40 25 40 L 2 40 C 0.894531 40 0 39.105469 0 38 Z M 0 2 " transform="matrix(1,0,0,1,180,3)"/>
<path style=" stroke:none;fill-rule:nonzero;fill:rgb(38.039216%,50.588235%,100%);fill-opacity:0.490196;" d="M 180 5 C 180 3.894531 180.894531 3 182 3 L 205 3 C 206.105469 3 207 3.894531 207 5 L 207 41 C 207 42.105469 206.105469 43 205 43 L 182 43 C 180.894531 43 180 42.105469 180 41 Z M 180 5 "/>
<path style="fill:none;stroke-width:1.5;stroke-linecap:butt;stroke-linejoin:miter;stroke:rgb(38.039216%,50.588235%,100%);stroke-opacity:1;stroke-miterlimit:10;" d="M 0 2 C 0 0.894531 0.894531 0 2 0 L 25 0 C 26.105469 0 27 0.894531 27 2 L 27 17 C 27 18.105469 26.105469 19 25 19 L 2 19 C 0.894531 19 0 18.105469 0 17 Z M 0 2 " transform="matrix(1,0,0,1,225,3)"/>
<path style=" stroke:none;fill-rule:nonzero;fill:rgb(38.039216%,50.588235%,100%);fill-opacity:0.490196;" d="M 225 5 C 225 3.894531 225.894531 3 227 3 L 250 3 C 251.105469 3 252 3.894531 252 5 L 252 20 C 252 21.105469 251.105469 22 250 22 L 227 22 C 225.894531 22 225 21.105469 225 20 Z M 225 5 "/>
<path style="fill:none;stroke-width:1.5;stroke-linecap:butt;stroke-linejoin:miter;stroke:rgb(38.039216%,50.588235%,100%);stroke-opacity:1;stroke-miterlimit:10;" d="M 0 2 C 0 0.894531 0.894531 0 2 0 L 25 0 C 26.105469 0 27 0.894531 27 2 L 27 17 C 27 18.105469 26.105469 19 25 19 L 2 19 C 0.894531 19 0 18.105469 0 17 Z M 0 2 " transform="matrix(1,0,0,1,225,24)"/>
<path style=" stroke:none;fill-rule:nonzero;fill:rgb(38.039216%,50.588235%,100%);fill-opacity:0.490196;" d="M 225 26 C 225 24.894531 225.894531 24 227 24 L 250 24 C 251.105469 24 252 24.894531 252 26 L 252 41 C 252 42.105469 251.105469 43 250 43 L 227 43 C 225.894531 43 225 42.105469 225 41 Z M 225 26 "/>
<path style="fill:none;stroke-width:1.5;stroke-linecap:butt;stroke-linejoin:miter;stroke:rgb(38.039216%,50.588235%,100%);stroke-opacity:1;stroke-miterlimit:10;" d="M 0 2 C 0 0.894531 0.894531 0 2 0 L 25 0 C 26.105469 0 27 0.894531 27 2 L 27 17 C 27 18.105469 26.105469 19 25 19 L 2 19 C 0.894531 19 0 18.105469 0 17 Z M 0 2 " transform="matrix(1,0,0,1,254,3)"/>
<path style=" stroke:none;fill-rule:nonzero;fill:rgb(38.039216%,50.588235%,100%);fill-opacity:0.490196;" d="M 254 5 C 254 3.894531 254.894531 3 256 3 L 279 3 C 280.105469 3 281 3.894531 281 5 L 281 20 C 281 21.105469 280.105469 22 279 22 L 256 22 C 254.894531 22 254 21.105469 254 20 Z M 254 5 "/>
<path style="fill:none;stroke-width:1.5;stroke-linecap:butt;stroke-linejoin:miter;stroke:rgb(38.039216%,50.588235%,100%);stroke-opacity:1;stroke-miterlimit:10;" d="M 0 2 C 0 0.894531 0.894531 0 2 0 L 25 0 C 26.105469 0 27 0.894531 27 2 L 27 17 C 27 18.105469 26.105469 19 25 19 L 2 19 C 0.894531 19 0 18.105469 0 17 Z M 0 2 " transform="matrix(1,0,0,1,254,24)"/>
<path style=" stroke:none;fill-rule:nonzero;fill:rgb(38.039216%,50.588235%,100%);fill-opacity:0.490196;" d="M 254 26 C 254 24.894531 254.894531 24 256 24 L 279 24 C 280.105469 24 281 24.894531 281 26 L 281 41 C 281 42.105469 280.105469 43 279 43 L 256 43 C 254.894531 43 254 42.105469 254 41 Z M 254 26 "/>
<path style="fill:none;stroke-width:1.5;stroke-linecap:butt;stroke-linejoin:miter;stroke:rgb(38.039216%,50.588235%,100%);stroke-opacity:1;stroke-miterlimit:10;" d="M 0 2 C 0 0.894531 0.894531 0 2 0 L 25 0 C 26.105469 0 27 0.894531 27 2 L 27 17 C 27 18.105469 26.105469 19 25 19 L 2 19 C 0.894531 19 0 18.105469 0 17 Z M 0 2 " transform="matrix(1,0,0,1,299,3)"/>
<path style=" stroke:none;fill-rule:nonzero;fill:rgb(38.039216%,50.588235%,100%);fill-opacity:0.490196;" d="M 299 5 C 299 3.894531 299.894531 3 301 3 L 324 3 C 325.105469 3 326 3.894531 326 5 L 326 20 C 326 21.105469 325.105469 22 324 22 L 301 22 C 299.894531 22 299 21.105469 299 20 Z M 299 5 "/>
<path style="fill:none;stroke-width:1.5;stroke-linecap:butt;stroke-linejoin:miter;stroke:rgb(38.039216%,50.588235%,100%);stroke-opacity:1;stroke-miterlimit:10;" d="M 0 2 C 0 0.894531 0.894531 0 2 0 L 25 0 C 26.105469 0 27 0.894531 27 2 L 27 17 C 27 18.105469 26.105469 19 25 19 L 2 19 C 0.894531 19 0 18.105469 0 17 Z M 0 2 " transform="matrix(1,0,0,1,299,24)"/>
<path style=" stroke:none;fill-rule:nonzero;fill:rgb(38.039216%,50.588235%,100%);fill-opacity:0.490196;" d="M 299 26 C 299 24.894531 299.894531 24 301 24 L 324 24 C 325.105469 24 326 24.894531 326 26 L 326 41 C 326 42.105469 325.105469 43 324 43 L 301 43 C 299.894531 43 299 42.105469 299 41 Z M 299 26 "/>
<path style="fill:none;stroke-width:1.5;stroke-linecap:butt;stroke-linejoin:miter;stroke:rgb(38.039216%,50.588235%,100%);stroke-opacity:1;stroke-miterlimit:10;" d="M 0 2 C 0 0.894531 0.894531 0 2 0 L 25 0 C 26.105469 0 27 0.894531 27 2 L 27 10 C 27 11.105469 26.105469 12 25 12 L 2 12 C 0.894531 12 0 11.105469 0 10 Z M 0 2 " transform="matrix(1,0,0,1,328,3)"/>
<path style=" stroke:none;fill-rule:nonzero;fill:rgb(38.039216%,50.588235%,100%);fill-opacity:0.490196;" d="M 328 5 C 328 3.894531 328.894531 3 330 3 L 353 3 C 354.105469 3 355 3.894531 355 5 L 355 13 C 355 14.105469 354.105469 15 353 15 L 330 15 C 328.894531 15 328 14.105469 328 13 Z M 328 5 "/>
<path style="fill:none;stroke-width:1.5;stroke-linecap:butt;stroke-linejoin:miter;stroke:rgb(38.039216%,50.588235%,100%);stroke-opacity:1;stroke-miterlimit:10;" d="M 0 2 C 0 0.894531 0.894531 0 2 0 L 25 0 C 26.105469 0 27 0.894531 27 2 L 27 10 C 27 11.105469 26.105469 12 25 12 L 2 12 C 0.894531 12 0 11.105469 0 10 Z M 0 2 " transform="matrix(1,0,0,1,328,17)"/>
<path style=" stroke:none;fill-rule:nonzero;fill:rgb(38.039216%,50.588235%,100%);fill-opacity:0.490196;" d="M 328 19 C 328 17.894531 328.894531 17 330 17 L 353 17 C 354.105469 17 355 17.894531 355 19 L 355 27 C 355 28.105469 354.105469 29 353 29 L 330 29 C 328.894531 29 328 28.105469 328 27 Z M 328 19 "/>
<path style="fill:none;stroke-width:1.5;stroke-linecap:butt;stroke-linejoin:miter;stroke:rgb(38.039216%,50.588235%,100%);stroke-opacity:1;stroke-miterlimit:10;" d="M 0 2 C 0 0.894531 0.894531 0 2 0 L 25 0 C 26.105469 0 27 0.894531 27 2 L 27 10 C 27 11.105469 26.105469 12 25 12 L 2 12 C 0.894531 12 0 11.105469 0 10 Z M 0 2 " transform="matrix(1,0,0,1,328,31)"/>
<path style=" stroke:none;fill-rule:nonzero;fill:rgb(38.039216%,50.588235%,100%);fill-opacity:0.490196;" d="M 328 33 C 328 31.894531 328.894531 31 330 31 L 353 31 C 354.105469 31 355 31.894531 355 33 L 355 41 C 355 42.105469 354.105469 43 353 43 L 330 43 C 328.894531 43 328 42.105469 328 41 Z M 328 33 "/>
<path style="fill:none;stroke-width:1.5;stroke-linecap:butt;stroke-linejoin:miter;stroke:rgb(38.039216%,50.588235%,100%);stroke-opacity:1;stroke-miterlimit:10;" d="M 0 2 C 0 0.894531 0.894531 0 2 0 L 25 0 C 26.105469 0 27 0.894531 27 2 L 27 10 C 27 11.105469 26.105469 12 25 12 L 2 12 C 0.894531 12 0 11.105469 0 10 Z M 0 2 " transform="matrix(1,0,0,1,373,3)"/>
<path style=" stroke:none;fill-rule:nonzero;fill:rgb(38.039216%,50.588235%,100%);fill-opacity:0.490196;" d="M 373 5 C 373 3.894531 373.894531 3 375 3 L 398 3 C 399.105469 3 400 3.894531 400 5 L 400 13 C 400 14.105469 399.105469 15 398 15 L 375 15 C 373.894531 15 373 14.105469 373 13 Z M 373 5 "/>
<path style="fill:none;stroke-width:1.5;stroke-linecap:butt;stroke-linejoin:miter;stroke:rgb(38.039216%,50.588235%,100%);stroke-opacity:1;stroke-miterlimit:10;" d="M 0 2 C 0 0.894531 0.894531 0 2 0 L 25 0 C 26.105469 0 27 0.894531 27 2 L 27 10 C 27 11.105469 26.105469 12 25 12 L 2 12 C 0.894531 12 0 11.105469 0 10 Z M 0 2 " transform="matrix(1,0,0,1,373,17)"/>
<path style=" stroke:none;fill-rule:nonzero;fill:rgb(38.039216%,50.588235%,100%);fill-opacity:0.490196;" d="M 373 19 C 373 17.894531 373.894531 17 375 17 L 398 17 C 399.105469 17 400 17.894531 400 19 L 400 27 C 400 28.105469 399.105469 29 398 29 L 375 29 C 373.894531 29 373 28.105469 373 27 Z M 373 19 "/>
<path style="fill:none;stroke-width:1.5;stroke-linecap:butt;stroke-linejoin:miter;stroke:rgb(38.039216%,50.588235%,100%);stroke-opacity:1;stroke-miterlimit:10;" d="M 0 2 C 0 0.894531 0.894531 0 2 0 L 25 0 C 26.105469 0 27 0.894531 27 2 L 27 10 C 27 11.105469 26.105469 12 25 12 L 2 12 C 0.894531 12 0 11.105469 0 10 Z M 0 2 " transform="matrix(1,0,0,1,402,3)"/>
<path style=" stroke:none;fill-rule:nonzero;fill:rgb(38.039216%,50.588235%,100%);fill-opacity:0.490196;" d="M 402 5 C 402 3.894531 402.894531 3 404 3 L 427 3 C 428.105469 3 429 3.894531 429 5 L 429 13 C 429 14.105469 428.105469 15 427 15 L 404 15 C 402.894531 15 402 14.105469 402 13 Z M 402 5 "/>
<path style="fill:none;stroke-width:1.5;stroke-linecap:butt;stroke-linejoin:miter;stroke:rgb(38.039216%,50.588235%,100%);stroke-opacity:1;stroke-miterlimit:10;" d="M 0 2 C 0 0.894531 0.894531 0 2 0 L 25 0 C 26.105469 0 27 0.894531 27 2 L 27 10 C 27 11.105469 26.105469 12 25 12 L 2 12 C 0.894531 12 0 11.105469 0 10 Z M 0 2 " transform="matrix(1,0,0,1,402,17)"/>
<path style=" stroke:none;fill-rule:nonzero;fill:rgb(38.039216%,50.588235%,100%);fill-opacity:0.490196;" d="M 402 19 C 402 17.894531 402.894531 17 404 17 L 427 17 C 428.105469 17 429 17.894531 429 19 L 429 27 C 429 28.105469 428.105469 29 427 29 L 404 29 C 402.894531 29 402 28.105469 402 27 Z M 402 19 "/>
<path style="fill:none;stroke-width:1.5;stroke-linecap:butt;stroke-linejoin:miter;stroke:rgb(38.039216%,50.588235%,100%);stroke-opacity:1;stroke-miterlimit:10;" d="M 0 2 C 0 0.894531 0.894531 0 2 0 L 25 0 C 26.105469 0 27 0.894531 27 2 L 27 10 C 27 11.105469 26.105469 12 25 12 L 2 12 C 0.894531 12 0 11.105469 0 10 Z M 0 2 " transform="matrix(1,0,0,1,402,31)"/>
<path style=" stroke:none;fill-rule:nonzero;fill:rgb(38.039216%,50.588235%,100%);fill-opacity:0.490196;" d="M 402 33 C 402 31.894531 402.894531 31 404 31 L 427 31 C 428.105469 31 429 31.894531 429 33 L 429 41 C 429 42.105469 428.105469 43 427 43 L 404 43 C 402.894531 43 402 42.105469 402 41 Z M 402 33 "/>
<path style="fill:none;stroke-width:1.5;stroke-linecap:butt;stroke-linejoin:miter;stroke:rgb(38.039216%,50.588235%,100%);stroke-opacity:1;stroke-miterlimit:10;" d="M 0 2 C 0 0.894531 0.894531 0 2 0 L 25 0 C 26.105469 0 27 0.894531 27 2 L 27 10 C 27 11.105469 26.105469 12 25 12 L 2 12 C 0.894531 12 0 11.105469 0 10 Z M 0 2 " transform="matrix(1,0,0,1,373,31)"/>
<path style=" stroke:none;fill-rule:nonzero;fill:rgb(38.039216%,50.588235%,100%);fill-opacity:0.490196;" d="M 373 33 C 373 31.894531 373.894531 31 375 31 L 398 31 C 399.105469 31 400 31.894531 400 33 L 400 41 C 400 42.105469 399.105469 43 398 43 L 375 43 C 373.894531 43 373 42.105469 373 41 Z M 373 33 "/>
<path style="fill:none;stroke-width:1.5;stroke-linecap:butt;stroke-linejoin:miter;stroke:rgb(38.039216%,50.588235%,100%);stroke-opacity:1;stroke-miterlimit:10;" d="M 0 2 C 0 0.894531 0.894531 0 2 0 L 54 0 C 55.105469 0 56 0.894531 56 2 L 56 38 C 56 39.105469 55.105469 40 54 40 L 2 40 C 0.894531 40 0 39.105469 0 38 Z M 0 2 " transform="matrix(1,0,0,1,3,61)"/>
<path style=" stroke:none;fill-rule:nonzero;fill:rgb(38.039216%,50.588235%,100%);fill-opacity:0.490196;" d="M 3 63 C 3 61.894531 3.894531 61 5 61 L 57 61 C 58.105469 61 59 61.894531 59 63 L 59 99 C 59 100.105469 58.105469 101 57 101 L 5 101 C 3.894531 101 3 100.105469 3 99 Z M 3 63 "/>
<path style="fill:none;stroke-width:1.5;stroke-linecap:butt;stroke-linejoin:miter;stroke:rgb(38.039216%,50.588235%,100%);stroke-opacity:1;stroke-miterlimit:10;" d="M 0 2 C 0 0.894531 0.894531 0 2 0 L 25 0 C 26.105469 0 27 0.894531 27 2 L 27 38 C 27 39.105469 26.105469 40 25 40 L 2 40 C 0.894531 40 0 39.105469 0 38 Z M 0 2 " transform="matrix(1,0,0,1,77,61)"/>
<path style=" stroke:none;fill-rule:nonzero;fill:rgb(38.039216%,50.588235%,100%);fill-opacity:0.490196;" d="M 77 63 C 77 61.894531 77.894531 61 79 61 L 102 61 C 103.105469 61 104 61.894531 104 63 L 104 99 C 104 100.105469 103.105469 101 102 101 L 79 101 C 77.894531 101 77 100.105469 77 99 Z M 77 63 "/>
<path style="fill:none;stroke-width:1.5;stroke-linecap:butt;stroke-linejoin:miter;stroke:rgb(38.039216%,50.588235%,100%);stroke-opacity:1;stroke-miterlimit:10;" d="M 0 2 C 0 0.894531 0.894531 0 2 0 L 25 0 C 26.105469 0 27 0.894531 27 2 L 27 38 C 27 39.105469 26.105469 40 25 40 L 2 40 C 0.894531 40 0 39.105469 0 38 Z M 0 2 " transform="matrix(1,0,0,1,106,61)"/>
<path style=" stroke:none;fill-rule:nonzero;fill:rgb(38.039216%,50.588235%,100%);fill-opacity:0.490196;" d="M 106 63 C 106 61.894531 106.894531 61 108 61 L 131 61 C 132.105469 61 133 61.894531 133 63 L 133 99 C 133 100.105469 132.105469 101 131 101 L 108 101 C 106.894531 101 106 100.105469 106 99 Z M 106 63 "/>
<path style="fill:none;stroke-width:1.5;stroke-linecap:butt;stroke-linejoin:miter;stroke:rgb(38.039216%,50.588235%,100%);stroke-opacity:1;stroke-miterlimit:10;" d="M 0 2 C 0 0.894531 0.894531 0 2 0 L 25 0 C 26.105469 0 27 0.894531 27 2 L 27 17 C 27 18.105469 26.105469 19 25 19 L 2 19 C 0.894531 19 0 18.105469 0 17 Z M 0 2 " transform="matrix(1,0,0,1,151,61)"/>
<path style=" stroke:none;fill-rule:nonzero;fill:rgb(38.039216%,50.588235%,100%);fill-opacity:0.490196;" d="M 151 63 C 151 61.894531 151.894531 61 153 61 L 176 61 C 177.105469 61 178 61.894531 178 63 L 178 78 C 178 79.105469 177.105469 80 176 80 L 153 80 C 151.894531 80 151 79.105469 151 78 Z M 151 63 "/>
<path style="fill:none;stroke-width:1.5;stroke-linecap:butt;stroke-linejoin:miter;stroke:rgb(38.039216%,50.588235%,100%);stroke-opacity:1;stroke-miterlimit:10;" d="M 0 2 C 0 0.894531 0.894531 0 2 0 L 25 0 C 26.105469 0 27 0.894531 27 2 L 27 17 C 27 18.105469 26.105469 19 25 19 L 2 19 C 0.894531 19 0 18.105469 0 17 Z M 0 2 " transform="matrix(1,0,0,1,180,61)"/>
<path style=" stroke:none;fill-rule:nonzero;fill:rgb(38.039216%,50.588235%,100%);fill-opacity:0.490196;" d="M 180 63 C 180 61.894531 180.894531 61 182 61 L 205 61 C 206.105469 61 207 61.894531 207 63 L 207 78 C 207 79.105469 206.105469 80 205 80 L 182 80 C 180.894531 80 180 79.105469 180 78 Z M 180 63 "/>
<path style="fill:none;stroke-width:1.5;stroke-linecap:butt;stroke-linejoin:miter;stroke:rgb(38.039216%,50.588235%,100%);stroke-opacity:1;stroke-miterlimit:10;" d="M 0 2 C 0 0.894531 0.894531 0 2 0 L 54 0 C 55.105469 0 56 0.894531 56 2 L 56 17 C 56 18.105469 55.105469 19 54 19 L 2 19 C 0.894531 19 0 18.105469 0 17 Z M 0 2 " transform="matrix(1,0,0,1,151,82)"/>
<path style=" stroke:none;fill-rule:nonzero;fill:rgb(38.039216%,50.588235%,100%);fill-opacity:0.490196;" d="M 151 84 C 151 82.894531 151.894531 82 153 82 L 205 82 C 206.105469 82 207 82.894531 207 84 L 207 99 C 207 100.105469 206.105469 101 205 101 L 153 101 C 151.894531 101 151 100.105469 151 99 Z M 151 84 "/>
<path style="fill:none;stroke-width:1.5;stroke-linecap:butt;stroke-linejoin:miter;stroke:rgb(38.039216%,50.588235%,100%);stroke-opacity:1;stroke-miterlimit:10;" d="M 0 2 C 0 0.894531 0.894531 0 2 0 L 25 0 C 26.105469 0 27 0.894531 27 2 L 27 17 C 27 18.105469 26.105469 19 25 19 L 2 19 C 0.894531 19 0 18.105469 0 17 Z M 0 2 " transform="matrix(1,0,0,1,225,61)"/>
<path style=" stroke:none;fill-rule:nonzero;fill:rgb(38.039216%,50.588235%,100%);fill-opacity:0.490196;" d="M 225 63 C 225 61.894531 225.894531 61 227 61 L 250 61 C 251.105469 61 252 61.894531 252 63 L 252 78 C 252 79.105469 251.105469 80 250 80 L 227 80 C 225.894531 80 225 79.105469 225 78 Z M 225 63 "/>
<path style="fill:none;stroke-width:1.5;stroke-linecap:butt;stroke-linejoin:miter;stroke:rgb(38.039216%,50.588235%,100%);stroke-opacity:1;stroke-miterlimit:10;" d="M 0 2 C 0 0.894531 0.894531 0 2 0 L 25 0 C 26.105469 0 27 0.894531 27 2 L 27 17 C 27 18.105469 26.105469 19 25 19 L 2 19 C 0.894531 19 0 18.105469 0 17 Z M 0 2 " transform="matrix(1,0,0,1,254,61)"/>
<path style=" stroke:none;fill-rule:nonzero;fill:rgb(38.039216%,50.588235%,100%);fill-opacity:0.490196;" d="M 254 63 C 254 61.894531 254.894531 61 256 61 L 279 61 C 280.105469 61 281 61.894531 281 63 L 281 78 C 281 79.105469 280.105469 80 279 80 L 256 80 C 254.894531 80 254 79.105469 254 78 Z M 254 63 "/>
<path style="fill:none;stroke-width:1.5;stroke-linecap:butt;stroke-linejoin:miter;stroke:rgb(38.039216%,50.588235%,100%);stroke-opacity:1;stroke-miterlimit:10;" d="M 0 2 C 0 0.894531 0.894531 0 2 0 L 25 0 C 26.105469 0 27 0.894531 27 2 L 27 17 C 27 18.105469 26.105469 19 25 19 L 2 19 C 0.894531 19 0 18.105469 0 17 Z M 0 2 " transform="matrix(1,0,0,1,225,82)"/>
<path style=" stroke:none;fill-rule:nonzero;fill:rgb(38.039216%,50.588235%,100%);fill-opacity:0.490196;" d="M 225 84 C 225 82.894531 225.894531 82 227 82 L 250 82 C 251.105469 82 252 82.894531 252 84 L 252 99 C 252 100.105469 251.105469 101 250 101 L 227 101 C 225.894531 101 225 100.105469 225 99 Z M 225 84 "/>
<path style="fill:none;stroke-width:1.5;stroke-linecap:butt;stroke-linejoin:miter;stroke:rgb(38.039216%,50.588235%,100%);stroke-opacity:1;stroke-miterlimit:10;" d="M 0 2 C 0 0.894531 0.894531 0 2 0 L 25 0 C 26.105469 0 27 0.894531 27 2 L 27 17 C 27 18.105469 26.105469 19 25 19 L 2 19 C 0.894531 19 0 18.105469 0 17 Z M 0 2 " transform="matrix(1,0,0,1,254,82)"/>
<path style=" stroke:none;fill-rule:nonzero;fill:rgb(38.039216%,50.588235%,100%);fill-opacity:0.490196;" d="M 254 84 C 254 82.894531 254.894531 82 256 82 L 279 82 C 280.105469 82 281 82.894531 281 84 L 281 99 C 281 100.105469 280.105469 101 279 101 L 256 101 C 254.894531 101 254 100.105469 254 99 Z M 254 84 "/>
<path style="fill:none;stroke-width:1.5;stroke-linecap:butt;stroke-linejoin:miter;stroke:rgb(38.039216%,50.588235%,100%);stroke-opacity:1;stroke-miterlimit:10;" d="M 0 2 C 0 0.894531 0.894531 0 2 0 L 25 0 C 26.105469 0 27 0.894531 27 2 L 27 17 C 27 18.105469 26.105469 19 25 19 L 2 19 C 0.894531 19 0 18.105469 0 17 Z M 0 2 " transform="matrix(1,0,0,1,299,61)"/>
<path style=" stroke:none;fill-rule:nonzero;fill:rgb(38.039216%,50.588235%,100%);fill-opacity:0.490196;" d="M 299 63 C 299 61.894531 299.894531 61 301 61 L 324 61 C 325.105469 61 326 61.894531 326 63 L 326 78 C 326 79.105469 325.105469 80 324 80 L 301 80 C 299.894531 80 299 79.105469 299 78 Z M 299 63 "/>
<path style="fill:none;stroke-width:1.5;stroke-linecap:butt;stroke-linejoin:miter;stroke:rgb(38.039216%,50.588235%,100%);stroke-opacity:1;stroke-miterlimit:10;" d="M 0 2 C 0 0.894531 0.894531 0 2 0 L 25 0 C 26.105469 0 27 0.894531 27 2 L 27 17 C 27 18.105469 26.105469 19 25 19 L 2 19 C 0.894531 19 0 18.105469 0 17 Z M 0 2 " transform="matrix(1,0,0,1,328,61)"/>
<path style=" stroke:none;fill-rule:nonzero;fill:rgb(38.039216%,50.588235%,100%);fill-opacity:0.490196;" d="M 328 63 C 328 61.894531 328.894531 61 330 61 L 353 61 C 354.105469 61 355 61.894531 355 63 L 355 78 C 355 79.105469 354.105469 80 353 80 L 330 80 C 328.894531 80 328 79.105469 328 78 Z M 328 63 "/>
<path style="fill:none;stroke-width:1.5;stroke-linecap:butt;stroke-linejoin:miter;stroke:rgb(38.039216%,50.588235%,100%);stroke-opacity:1;stroke-miterlimit:10;" d="M 0 2 C 0 0.894531 0.894531 0 2 0 L 15 0 C 16.105469 0 17 0.894531 17 2 L 17 17 C 17 18.105469 16.105469 19 15 19 L 2 19 C 0.894531 19 0 18.105469 0 17 Z M 0 2 " transform="matrix(1,0,0,1,299,82)"/>
<path style=" stroke:none;fill-rule:nonzero;fill:rgb(38.039216%,50.588235%,100%);fill-opacity:0.490196;" d="M 299 84 C 299 82.894531 299.894531 82 301 82 L 314 82 C 315.105469 82 316 82.894531 316 84 L 316 99 C 316 100.105469 315.105469 101 314 101 L 301 101 C 299.894531 101 299 100.105469 299 99 Z M 299 84 "/>
<path style="fill:none;stroke-width:1.5;stroke-linecap:butt;stroke-linejoin:miter;stroke:rgb(38.039216%,50.588235%,100%);stroke-opacity:1;stroke-miterlimit:10;" d="M 0 2 C 0 0.894531 0.894531 0 2 0 L 15 0 C 16.105469 0 17 0.894531 17 2 L 17 17 C 17 18.105469 16.105469 19 15 19 L 2 19 C 0.894531 19 0 18.105469 0 17 Z M 0 2 " transform="matrix(1,0,0,1,318,82)"/>
<path style=" stroke:none;fill-rule:nonzero;fill:rgb(38.039216%,50.588235%,100%);fill-opacity:0.490196;" d="M 318 84 C 318 82.894531 318.894531 82 320 82 L 333 82 C 334.105469 82 335 82.894531 335 84 L 335 99 C 335 100.105469 334.105469 101 333 101 L 320 101 C 318.894531 101 318 100.105469 318 99 Z M 318 84 "/>
<path style="fill:none;stroke-width:1.5;stroke-linecap:butt;stroke-linejoin:miter;stroke:rgb(38.039216%,50.588235%,100%);stroke-opacity:1;stroke-miterlimit:10;" d="M 0 2 C 0 0.894531 0.894531 0 2 0 L 15 0 C 16.105469 0 17 0.894531 17 2 L 17 17 C 17 18.105469 16.105469 19 15 19 L 2 19 C 0.894531 19 0 18.105469 0 17 Z M 0 2 " transform="matrix(1,0,0,1,337,82)"/>
<path style=" stroke:none;fill-rule:nonzero;fill:rgb(38.039216%,50.588235%,100%);fill-opacity:0.490196;" d="M 337 84 C 337 82.894531 337.894531 82 339 82 L 352 82 C 353.105469 82 354 82.894531 354 84 L 354 99 C 354 100.105469 353.105469 101 352 101 L 339 101 C 337.894531 101 337 100.105469 337 99 Z M 337 84 "/>
<path style="fill:none;stroke-width:1.5;stroke-linecap:butt;stroke-linejoin:miter;stroke:rgb(38.039216%,50.588235%,100%);stroke-opacity:1;stroke-miterlimit:10;" d="M 0 2 C 0 0.894531 0.894531 0 2 0 L 15 0 C 16.105469 0 17 0.894531 17 2 L 17 17 C 17 18.105469 16.105469 19 15 19 L 2 19 C 0.894531 19 0 18.105469 0 17 Z M 0 2 " transform="matrix(1,0,0,1,373,61)"/>
<path style=" stroke:none;fill-rule:nonzero;fill:rgb(38.039216%,50.588235%,100%);fill-opacity:0.490196;" d="M 373 63 C 373 61.894531 373.894531 61 375 61 L 388 61 C 389.105469 61 390 61.894531 390 63 L 390 78 C 390 79.105469 389.105469 80 388 80 L 375 80 C 373.894531 80 373 79.105469 373 78 Z M 373 63 "/>
<path style="fill:none;stroke-width:1.5;stroke-linecap:butt;stroke-linejoin:miter;stroke:rgb(38.039216%,50.588235%,100%);stroke-opacity:1;stroke-miterlimit:10;" d="M 0 2 C 0 0.894531 0.894531 0 2 0 L 15 0 C 16.105469 0 17 0.894531 17 2 L 17 17 C 17 18.105469 16.105469 19 15 19 L 2 19 C 0.894531 19 0 18.105469 0 17 Z M 0 2 " transform="matrix(1,0,0,1,392,61)"/>
<path style=" stroke:none;fill-rule:nonzero;fill:rgb(38.039216%,50.588235%,100%);fill-opacity:0.490196;" d="M 392 63 C 392 61.894531 392.894531 61 394 61 L 407 61 C 408.105469 61 409 61.894531 409 63 L 409 78 C 409 79.105469 408.105469 80 407 80 L 394 80 C 392.894531 80 392 79.105469 392 78 Z M 392 63 "/>
<path style="fill:none;stroke-width:1.5;stroke-linecap:butt;stroke-linejoin:miter;stroke:rgb(38.039216%,50.588235%,100%);stroke-opacity:1;stroke-miterlimit:10;" d="M 0 2 C 0 0.894531 0.894531 0 2 0 L 15 0 C 16.105469 0 17 0.894531 17 2 L 17 17 C 17 18.105469 16.105469 19 15 19 L 2 19 C 0.894531 19 0 18.105469 0 17 Z M 0 2 " transform="matrix(1,0,0,1,373,82)"/>
<path style=" stroke:none;fill-rule:nonzero;fill:rgb(38.039216%,50.588235%,100%);fill-opacity:0.490196;" d="M 373 84 C 373 82.894531 373.894531 82 375 82 L 388 82 C 389.105469 82 390 82.894531 390 84 L 390 99 C 390 100.105469 389.105469 101 388 101 L 375 101 C 373.894531 101 373 100.105469 373 99 Z M 373 84 "/>
<path style="fill:none;stroke-width:1.5;stroke-linecap:butt;stroke-linejoin:miter;stroke:rgb(38.039216%,50.588235%,100%);stroke-opacity:1;stroke-miterlimit:10;" d="M 0 2 C 0 0.894531 0.894531 0 2 0 L 15 0 C 16.105469 0 17 0.894531 17 2 L 17 17 C 17 18.105469 16.105469 19 15 19 L 2 19 C 0.894531 19 0 18.105469 0 17 Z M 0 2 " transform="matrix(1,0,0,1,392,82)"/>
<path style=" stroke:none;fill-rule:nonzero;fill:rgb(38.039216%,50.588235%,100%);fill-opacity:0.490196;" d="M 392 84 C 392 82.894531 392.894531 82 394 82 L 407 82 C 408.105469 82 409 82.894531 409 84 L 409 99 C 409 100.105469 408.105469 101 407 101 L 394 101 C 392.894531 101 392 100.105469 392 99 Z M 392 84 "/>
<path style="fill:none;stroke-width:1.5;stroke-linecap:butt;stroke-linejoin:miter;stroke:rgb(38.039216%,50.588235%,100%);stroke-opacity:1;stroke-miterlimit:10;" d="M 0 2 C 0 0.894531 0.894531 0 2 0 L 15 0 C 16.105469 0 17 0.894531 17 2 L 17 17 C 17 18.105469 16.105469 19 15 19 L 2 19 C 0.894531 19 0 18.105469 0 17 Z M 0 2 " transform="matrix(1,0,0,1,411,82)"/>
<path style=" stroke:none;fill-rule:nonzero;fill:rgb(38.039216%,50.588235%,100%);fill-opacity:0.490196;" d="M 411 84 C 411 82.894531 411.894531 82 413 82 L 426 82 C 427.105469 82 428 82.894531 428 84 L 428 99 C 428 100.105469 427.105469 101 426 101 L 413 101 C 411.894531 101 411 100.105469 411 99 Z M 411 84 "/>
<path style="fill:none;stroke-width:1.5;stroke-linecap:butt;stroke-linejoin:miter;stroke:rgb(38.039216%,50.588235%,100%);stroke-opacity:1;stroke-miterlimit:10;" d="M 0 2 C 0 0.894531 0.894531 0 2 0 L 15 0 C 16.105469 0 17 0.894531 17 2 L 17 17 C 17 18.105469 16.105469 19 15 19 L 2 19 C 0.894531 19 0 18.105469 0 17 Z M 0 2 " transform="matrix(1,0,0,1,411,61)"/>
<path style=" stroke:none;fill-rule:nonzero;fill:rgb(38.039216%,50.588235%,100%);fill-opacity:0.490196;" d="M 411 63 C 411 61.894531 411.894531 61 413 61 L 426 61 C 427.105469 61 428 61.894531 428 63 L 428 78 C 428 79.105469 427.105469 80 426 80 L 413 80 C 411.894531 80 411 79.105469 411 78 Z M 411 63 "/>
</g>
</svg>
