<?xml version="1.0" encoding="UTF-8"?>
<svg xmlns="http://www.w3.org/2000/svg" xmlns:xlink="http://www.w3.org/1999/xlink" width="266pt" height="96pt" viewBox="0 0 266 96" version="1.1">
<g id="surface2">
<path style="fill:none;stroke-width:1.5;stroke-linecap:butt;stroke-linejoin:miter;stroke:rgb(0%,0%,0%);stroke-opacity:0.266667;stroke-dasharray:10,4;stroke-dashoffset:1;stroke-miterlimit:10;" d="M 0.75 0.75 L 127.25 0.75 L 127.25 95.25 L 0.75 95.25 Z M 0.75 0.75 "/>
<path style="fill:none;stroke-width:1.5;stroke-linecap:butt;stroke-linejoin:miter;stroke:rgb(0%,0%,0%);stroke-opacity:0.2;stroke-dasharray:10,4;stroke-dashoffset:1;stroke-miterlimit:10;" d="M 10 10 L 118 10 L 118 86 L 10 86 Z M 10 10 "/>
<path style="fill:none;stroke-width:1.5;stroke-linecap:butt;stroke-linejoin:miter;stroke:rgb(0%,0%,0%);stroke-opacity:0.266667;stroke-dasharray:10,4;stroke-dashoffset:1;stroke-miterlimit:10;" d="M 138.75 0.75 L 265.25 0.75 L 265.25 95.25 L 138.75 95.25 Z M 138.75 0.75 "/>
<path style="fill:none;stroke-width:1.5;stroke-linecap:butt;stroke-linejoin:miter;stroke:rgb(0%,0%,0%);stroke-opacity:0.2;stroke-dasharray:10,4;stroke-dashoffset:1;stroke-miterlimit:10;" d="M 148 10 L 256 10 L 256 86 L 148 86 Z M 148 10 "/>
<path style="fill:none;stroke-width:1.5;stroke-linecap:butt;stroke-linejoin:miter;stroke:rgb(38.039216%,50.588235%,100%);stroke-opacity:1;stroke-miterlimit:10;" d="M 0 5 C 0 2.238281 2.238281 0 5 0 L 47 0 C 49.761719 0 52 2.238281 52 5 L 52 31 C 52 33.761719 49.761719 36 47 36 L 5 36 C 2.238281 36 0 33.761719 0 31 Z M 0 5 " transform="matrix(1,0,0,1,10,10)"/>
<path style=" stroke:none;fill-rule:nonzero;fill:rgb(38.039216%,50.588235%,100%);fill-opacity:0.490196;" d="M 10 15 C 10 12.238281 12.238281 10 15 10 L 57 10 C 59.761719 10 62 12.238281 62 15 L 62 41 C 62 43.761719 59.761719 46 57 46 L 15 46 C 12.238281 46 10 43.761719 10 41 Z M 10 15 "/>
<path style="fill:none;stroke-width:1.5;stroke-linecap:butt;stroke-linejoin:miter;stroke:rgb(38.039216%,50.588235%,100%);stroke-opacity:1;stroke-miterlimit:10;" d="M 0 5 C 0 2.238281 2.238281 0 5 0 L 47 0 C 49.761719 0 52 2.238281 52 5 L 52 31 C 52 33.761719 49.761719 36 47 36 L 5 36 C 2.238281 36 0 33.761719 0 31 Z M 0 5 " transform="matrix(1,0,0,1,10,48)"/>
<path style=" stroke:none;fill-rule:nonzero;fill:rgb(38.039216%,50.588235%,100%);fill-opacity:0.490196;" d="M 10 53 C 10 50.238281 12.238281 48 15 48 L 57 48 C 59.761719 48 62 50.238281 62 53 L 62 79 C 62 81.761719 59.761719 84 57 84 L 15 84 C 12.238281 84 10 81.761719 10 79 Z M 10 53 "/>
<path style="fill:none;stroke-width:1.5;stroke-linecap:butt;stroke-linejoin:miter;stroke:rgb(38.039216%,50.588235%,100%);stroke-opacity:1;stroke-miterlimit:10;" d="M 0 5 C 0 2.238281 2.238281 0 5 0 L 47 0 C 49.761719 0 52 2.238281 52 5 L 52 18 C 52 20.761719 49.761719 23 47 23 L 5 23 C 2.238281 23 0 20.761719 0 18 Z M 0 5 " transform="matrix(1,0,0,1,64,10)"/>
<path style=" stroke:none;fill-rule:nonzero;fill:rgb(38.039216%,50.588235%,100%);fill-opacity:0.490196;" d="M 64 15 C 64 12.238281 66.238281 10 69 10 L 111 10 C 113.761719 10 116 12.238281 116 15 L 116 28 C 116 30.761719 113.761719 33 111 33 L 69 33 C 66.238281 33 64 30.761719 64 28 Z M 64 15 "/>
<path style="fill:none;stroke-width:1.5;stroke-linecap:butt;stroke-linejoin:miter;stroke:rgb(38.039216%,50.588235%,100%);stroke-opacity:1;stroke-miterlimit:10;" d="M 0 5 C 0 2.238281 2.238281 0 5 0 L 47 0 C 49.761719 0 52 2.238281 52 5 L 52 18 C 52 20.761719 49.761719 23 47 23 L 5 23 C 2.238281 23 0 20.761719 0 18 Z M 0 5 " transform="matrix(1,0,0,1,64,35)"/>
<path style=" stroke:none;fill-rule:nonzero;fill:rgb(38.039216%,50.588235%,100%);fill-opacity:0.490196;" d="M 64 40 C 64 37.238281 66.238281 35 69 35 L 111 35 C 113.761719 35 116 37.238281 116 40 L 116 53 C 116 55.761719 113.761719 58 111 58 L 69 58 C 66.238281 58 64 55.761719 64 53 Z M 64 40 "/>
<path style="fill:none;stroke-width:1.5;stroke-linecap:butt;stroke-linejoin:miter;stroke:rgb(38.039216%,50.588235%,100%);stroke-opacity:1;stroke-miterlimit:10;" d="M 0 5 C 0 2.238281 2.238281 0 5 0 L 47 0 C 49.761719 0 52 2.238281 52 5 L 52 18 C 52 20.761719 49.761719 23 47 23 L 5 23 C 2.238281 23 0 20.761719 0 18 Z M 0 5 " transform="matrix(1,0,0,1,64,60)"/>
<path style=" stroke:none;fill-rule:nonzero;fill:rgb(38.039216%,50.588235%,100%);fill-opacity:0.490196;" d="M 64 65 C 64 62.238281 66.238281 60 69 60 L 111 60 C 113.761719 60 116 62.238281 116 65 L 116 78 C 116 80.761719 113.761719 83 111 83 L 69 83 C 66.238281 83 64 80.761719 64 78 Z M 64 65 "/>
<path style="fill:none;stroke-width:1.5;stroke-linecap:butt;stroke-linejoin:miter;stroke:rgb(38.039216%,50.588235%,100%);stroke-opacity:1;stroke-miterlimit:10;" d="M 0 5 C 0 2.238281 2.238281 0 5 0 L 47 0 C 49.761719 0 52 2.238281 52 5 L 52 31 C 52 33.761719 49.761719 36 47 36 L 5 36 C 2.238281 36 0 33.761719 0 31 Z M 0 5 " transform="matrix(1,0,0,1,148,10)"/>
<path style=" stroke:none;fill-rule:nonzero;fill:rgb(38.039216%,50.588235%,100%);fill-opacity:0.490196;" d="M 148 15 C 148 12.238281 150.238281 10 153 10 L 195 10 C 197.761719 10 200 12.238281 200 15 L 200 41 C 200 43.761719 197.761719 46 195 46 L 153 46 C 150.238281 46 148 43.761719 148 41 Z M 148 15 "/>
<path style="fill:none;stroke-width:1.5;stroke-linecap:butt;stroke-linejoin:miter;stroke:rgb(38.039216%,50.588235%,100%);stroke-opacity:1;stroke-miterlimit:10;" d="M 0 5 C 0 2.238281 2.238281 0 5 0 L 47 0 C 49.761719 0 52 2.238281 52 5 L 52 31 C 52 33.761719 49.761719 36 47 36 L 5 36 C 2.238281 36 0 33.761719 0 31 Z M 0 5 " transform="matrix(1,0,0,1,202,10)"/>
<path style=" stroke:none;fill-rule:nonzero;fill:rgb(38.039216%,50.588235%,100%);fill-opacity:0.490196;" d="M 202 15 C 202 12.238281 204.238281 10 207 10 L 249 10 C 251.761719 10 254 12.238281 254 15 L 254 41 C 254 43.761719 251.761719 46 249 46 L 207 46 C 204.238281 46 202 43.761719 202 41 Z M 202 15 "/>
<path style="fill:none;stroke-width:1.5;stroke-linecap:butt;stroke-linejoin:miter;stroke:rgb(38.039216%,50.588235%,100%);stroke-opacity:1;stroke-miterlimit:10;" d="M 0 5 C 0 2.238281 2.238281 0 5 0 L 29 0 C 31.761719 0 34 2.238281 34 5 L 34 31 C 34 33.761719 31.761719 36 29 36 L 5 36 C 2.238281 36 0 33.761719 0 31 Z M 0 5 " transform="matrix(1,0,0,1,148,48)"/>
<path style=" stroke:none;fill-rule:nonzero;fill:rgb(38.039216%,50.588235%,100%);fill-opacity:0.490196;" d="M 148 53 C 148 50.238281 150.238281 48 153 48 L 177 48 C 179.761719 48 182 50.238281 182 53 L 182 79 C 182 81.761719 179.761719 84 177 84 L 153 84 C 150.238281 84 148 81.761719 148 79 Z M 148 53 "/>
<path style="fill:none;stroke-width:1.5;stroke-linecap:butt;stroke-linejoin:miter;stroke:rgb(38.039216%,50.588235%,100%);stroke-opacity:1;stroke-miterlimit:10;" d="M 0 5 C 0 2.238281 2.238281 0 5 0 L 29 0 C 31.761719 0 34 2.238281 34 5 L 34 31 C 34 33.761719 31.761719 36 29 36 L 5 36 C 2.238281 36 0 33.761719 0 31 Z M 0 5 " transform="matrix(1,0,0,1,184,48)"/>
<path style=" stroke:none;fill-rule:nonzero;fill:rgb(38.039216%,50.588235%,100%);fill-opacity:0.490196;" d="M 184 53 C 184 50.238281 186.238281 48 189 48 L 213 48 C 215.761719 48 218 50.238281 218 53 L 218 79 C 218 81.761719 215.761719 84 213 84 L 189 84 C 186.238281 84 184 81.761719 184 79 Z M 184 53 "/>
<path style="fill:none;stroke-width:1.5;stroke-linecap:butt;stroke-linejoin:miter;stroke:rgb(38.039216%,50.588235%,100%);stroke-opacity:1;stroke-miterlimit:10;" d="M 0 5 C 0 2.238281 2.238281 0 5 0 L 29 0 C 31.761719 0 34 2.238281 34 5 L 34 31 C 34 33.761719 31.761719 36 29 36 L 5 36 C 2.238281 36 0 33.761719 0 31 Z M 0 5 " transform="matrix(1,0,0,1,220,48)"/>
<path style=" stroke:none;fill-rule:nonzero;fill:rgb(38.039216%,50.588235%,100%);fill-opacity:0.490196;" d="M 220 53 C 220 50.238281 222.238281 48 225 48 L 249 48 C 251.761719 48 254 50.238281 254 53 L 254 79 C 254 81.761719 251.761719 84 249 84 L 225 84 C 222.238281 84 220 81.761719 220 79 Z M 220 53 "/>
</g>
</svg>
