<?xml version="1.0" encoding="UTF-8"?>
<svg xmlns="http://www.w3.org/2000/svg" xmlns:xlink="http://www.w3.org/1999/xlink" width="128pt" height="96pt" viewBox="0 0 128 96" version="1.1">
<defs>
<clipPath id="clip1">
  <path d="M 45 35 L 89 35 L 89 69 L 45 69 Z M 45 35 "/>
</clipPath>
<clipPath id="clip2">
  <path d="M 46 36 L 88 36 L 88 68 L 46 68 Z M 46 36 "/>
</clipPath>
<clipPath id="clip3">
  <path d="M 46 41 C 46 38.238281 48.238281 36 51 36 L 83 36 C 85.761719 36 88 38.238281 88 41 L 88 63 C 88 65.761719 85.761719 68 83 68 L 51 68 C 48.238281 68 46 65.761719 46 63 Z M 46 41 "/>
</clipPath>
<clipPath id="clip4">
  <path d="M 86 32 L 128 32 L 128 66 L 86 66 Z M 86 32 "/>
</clipPath>
<clipPath id="clip5">
  <path d="M 87 33 L 128 33 L 128 65 L 87 65 Z M 87 33 "/>
</clipPath>
<clipPath id="clip6">
  <path d="M 87 38 C 87 35.238281 89.238281 33 92 33 L 124 33 C 126.761719 33 129 35.238281 129 38 L 129 60 C 129 62.761719 126.761719 65 124 65 L 92 65 C 89.238281 65 87 62.761719 87 60 Z M 87 38 "/>
</clipPath>
</defs>
<g id="surface2">
<path style="fill:none;stroke-width:1.5;stroke-linecap:butt;stroke-linejoin:miter;stroke:rgb(0%,0%,0%);stroke-opacity:0.266667;stroke-dasharray:10,4;stroke-dashoffset:1;stroke-miterlimit:10;" d="M 0.75 0.75 L 127.25 0.75 L 127.25 95.25 L 0.75 95.25 Z M 0.75 0.75 "/>
<path style="fill:none;stroke-width:1.5;stroke-linecap:butt;stroke-linejoin:miter;stroke:rgb(0%,0%,0%);stroke-opacity:0.2;stroke-dasharray:10,4;stroke-dashoffset:1;stroke-miterlimit:10;" d="M 10 10 L 118 10 L 118 86 L 10 86 Z M 10 10 "/>
<path style="fill:none;stroke-width:1.5;stroke-linecap:butt;stroke-linejoin:miter;stroke:rgb(0%,0%,0%);stroke-opacity:0.1;stroke-miterlimit:10;" d="M 45 35 L 86 32 "/>
<path style="fill:none;stroke-width:1.5;stroke-linecap:butt;stroke-linejoin:miter;stroke:rgb(0%,0%,0%);stroke-opacity:0.1;stroke-miterlimit:10;" d="M 85 35 L 126 32 M 45 65 L 86 62 "/>
<path style="fill:none;stroke-width:1.5;stroke-linecap:butt;stroke-linejoin:miter;stroke:rgb(0%,0%,0%);stroke-opacity:0.1;stroke-miterlimit:10;" d="M 85 65 L 126 62 "/>
<g clip-path="url(#clip1)" clip-rule="nonzero">
<path style="fill:none;stroke-width:1;stroke-linecap:butt;stroke-linejoin:miter;stroke:rgb(38.039216%,50.588235%,100%);stroke-opacity:1;stroke-miterlimit:10;" d="M 0 5 C 0 2.238281 2.238281 0 5 0 L 37 0 C 39.761719 0 42 2.238281 42 5 L 42 27 C 42 29.761719 39.761719 32 37 32 L 5 32 C 2.238281 32 0 29.761719 0 27 Z M 0 5 " transform="matrix(1,0,0,1,46,36)"/>
</g>
<path style=" stroke:none;fill-rule:nonzero;fill:rgb(38.039216%,50.588235%,100%);fill-opacity:0.490196;" d="M 46 41 C 46 38.238281 48.238281 36 51 36 L 83 36 C 85.761719 36 88 38.238281 88 41 L 88 63 C 88 65.761719 85.761719 68 83 68 L 51 68 C 48.238281 68 46 65.761719 46 63 Z M 46 41 "/>
<g clip-path="url(#clip2)" clip-rule="nonzero">
<g clip-path="url(#clip3)" clip-rule="nonzero">
<path style="fill:none;stroke-width:1;stroke-linecap:butt;stroke-linejoin:miter;stroke:rgb(38.039216%,50.588235%,100%);stroke-opacity:1;stroke-miterlimit:10;" d="M 0 5 C 0 2.238281 2.238281 0 5 0 L 37 0 C 39.761719 0 42 2.238281 42 5 L 42 27 C 42 29.761719 39.761719 32 37 32 L 5 32 C 2.238281 32 0 29.761719 0 27 Z M 0 5 " transform="matrix(1,0,0,1,46,36)"/>
</g>
</g>
<g clip-path="url(#clip4)" clip-rule="nonzero">
<path style="fill:none;stroke-width:1;stroke-linecap:butt;stroke-linejoin:miter;stroke:rgb(38.039216%,50.588235%,100%);stroke-opacity:1;stroke-miterlimit:10;" d="M 0 5 C 0 2.238281 2.238281 0 5 0 L 37 0 C 39.761719 0 42 2.238281 42 5 L 42 27 C 42 29.761719 39.761719 32 37 32 L 5 32 C 2.238281 32 0 29.761719 0 27 Z M 0 5 " transform="matrix(1,0,0,1,87,33)"/>
</g>
<path style=" stroke:none;fill-rule:nonzero;fill:rgb(38.039216%,50.588235%,100%);fill-opacity:0.490196;" d="M 87 38 C 87 35.238281 89.238281 33 92 33 L 124 33 C 126.761719 33 129 35.238281 129 38 L 129 60 C 129 62.761719 126.761719 65 124 65 L 92 65 C 89.238281 65 87 62.761719 87 60 Z M 87 38 "/>
<g clip-path="url(#clip5)" clip-rule="nonzero">
<g clip-path="url(#clip6)" clip-rule="nonzero">
<path style="fill:none;stroke-width:1;stroke-linecap:butt;stroke-linejoin:miter;stroke:rgb(38.039216%,50.588235%,100%);stroke-opacity:1;stroke-miterlimit:10;" d="M 0 5 C 0 2.238281 2.238281 0 5 0 L 37 0 C 39.761719 0 42 2.238281 42 5 L 42 27 C 42 29.761719 39.761719 32 37 32 L 5 32 C 2.238281 32 0 29.761719 0 27 Z M 0 5 " transform="matrix(1,0,0,1,87,33)"/>
</g>
</g>
</g>
</svg>
