<?xml version="1.0" encoding="UTF-8"?>
<svg xmlns="http://www.w3.org/2000/svg" xmlns:xlink="http://www.w3.org/1999/xlink" width="268pt" height="206pt" viewBox="0 0 268 206" version="1.1">
<defs>
<clipPath id="clip1">
  <path d="M 20 20 L 99 20 L 99 76 L 20 76 Z M 20 20 "/>
</clipPath>
<clipPath id="clip2">
  <path d="M 21 21 L 98 21 L 98 75 L 21 75 Z M 21 21 "/>
</clipPath>
<clipPath id="clip3">
  <path d="M 21 26 C 21 23.238281 23.238281 21 26 21 L 93 21 C 95.761719 21 98 23.238281 98 26 L 98 70 C 98 72.761719 95.761719 75 93 75 L 26 75 C 23.238281 75 21 72.761719 21 70 Z M 21 26 "/>
</clipPath>
<clipPath id="clip4">
  <path d="M 0 0 L 79 0 L 79 56 L 0 56 Z M 0 0 "/>
</clipPath>
<clipPath id="clip5">
  <path d="M 1 1 L 78 1 L 78 55 L 1 55 Z M 1 1 "/>
</clipPath>
<clipPath id="clip6">
  <path d="M 1 6 C 1 3.238281 3.238281 1 6 1 L 73 1 C 75.761719 1 78 3.238281 78 6 L 78 50 C 78 52.761719 75.761719 55 73 55 L 6 55 C 3.238281 55 1 52.761719 1 50 Z M 1 6 "/>
</clipPath>
<clipPath id="clip7">
  <path d="M 0 0 L 79 0 L 79 56 L 0 56 Z M 0 0 "/>
</clipPath>
<clipPath id="clip8">
  <path d="M 1 1 L 78 1 L 78 55 L 1 55 Z M 1 1 "/>
</clipPath>
<clipPath id="clip9">
  <path d="M 1 6 C 1 3.238281 3.238281 1 6 1 L 73 1 C 75.761719 1 78 3.238281 78 6 L 78 50 C 78 52.761719 75.761719 55 73 55 L 6 55 C 3.238281 55 1 52.761719 1 50 Z M 1 6 "/>
</clipPath>
<clipPath id="clip10">
  <path d="M 160 20 L 239 20 L 239 118 L 160 118 Z M 160 20 "/>
</clipPath>
<clipPath id="clip11">
  <path d="M 161 21 L 238 21 L 238 117 L 161 117 Z M 161 21 "/>
</clipPath>
<clipPath id="clip12">
  <path d="M 161 26 C 161 23.238281 163.238281 21 166 21 L 233 21 C 235.761719 21 238 23.238281 238 26 L 238 112 C 238 114.761719 235.761719 117 233 117 L 166 117 C 163.238281 117 161 114.761719 161 112 Z M 161 26 "/>
</clipPath>
<clipPath id="clip13">
  <path d="M 140 0 L 219 0 L 219 98 L 140 98 Z M 140 0 "/>
</clipPath>
<clipPath id="clip14">
  <path d="M 141 1 L 218 1 L 218 97 L 141 97 Z M 141 1 "/>
</clipPath>
<clipPath id="clip15">
  <path d="M 141 6 C 141 3.238281 143.238281 1 146 1 L 213 1 C 215.761719 1 218 3.238281 218 6 L 218 92 C 218 94.761719 215.761719 97 213 97 L 146 97 C 143.238281 97 141 94.761719 141 92 Z M 141 6 "/>
</clipPath>
<clipPath id="clip16">
  <path d="M 140 0 L 219 0 L 219 98 L 140 98 Z M 140 0 "/>
</clipPath>
<clipPath id="clip17">
  <path d="M 141 1 L 218 1 L 218 97 L 141 97 Z M 141 1 "/>
</clipPath>
<clipPath id="clip18">
  <path d="M 141 6 C 141 3.238281 143.238281 1 146 1 L 213 1 C 215.761719 1 218 3.238281 218 6 L 218 92 C 218 94.761719 215.761719 97 213 97 L 146 97 C 143.238281 97 141 94.761719 141 92 Z M 141 6 "/>
</clipPath>
<clipPath id="clip19">
  <path d="M 20 130 L 101 130 L 101 184 L 20 184 Z M 20 130 "/>
</clipPath>
<clipPath id="clip20">
  <path d="M 21 131 L 100 131 L 100 183 L 21 183 Z M 21 131 "/>
</clipPath>
<clipPath id="clip21">
  <path d="M 21 136 C 21 133.238281 23.238281 131 26 131 L 95 131 C 97.761719 131 100 133.238281 100 136 L 100 178 C 100 180.761719 97.761719 183 95 183 L 26 183 C 23.238281 183 21 180.761719 21 178 Z M 21 136 "/>
</clipPath>
<clipPath id="clip22">
  <path d="M 0 110 L 81 110 L 81 164 L 0 164 Z M 0 110 "/>
</clipPath>
<clipPath id="clip23">
  <path d="M 1 111 L 80 111 L 80 163 L 1 163 Z M 1 111 "/>
</clipPath>
<clipPath id="clip24">
  <path d="M 1 116 C 1 113.238281 3.238281 111 6 111 L 75 111 C 77.761719 111 80 113.238281 80 116 L 80 158 C 80 160.761719 77.761719 163 75 163 L 6 163 C 3.238281 163 1 160.761719 1 158 Z M 1 116 "/>
</clipPath>
<clipPath id="clip25">
  <path d="M 0 110 L 81 110 L 81 164 L 0 164 Z M 0 110 "/>
</clipPath>
<clipPath id="clip26">
  <path d="M 1 111 L 80 111 L 80 163 L 1 163 Z M 1 111 "/>
</clipPath>
<clipPath id="clip27">
  <path d="M 1 116 C 1 113.238281 3.238281 111 6 111 L 75 111 C 77.761719 111 80 113.238281 80 116 L 80 158 C 80 160.761719 77.761719 163 75 163 L 6 163 C 3.238281 163 1 160.761719 1 158 Z M 1 116 "/>
</clipPath>
<clipPath id="clip28">
  <path d="M 160 130 L 165 130 L 165 184 L 160 184 Z M 160 130 "/>
</clipPath>
<clipPath id="clip29">
  <path d="M 161 131 L 164 131 L 164 183 L 161 183 Z M 161 131 "/>
</clipPath>
<clipPath id="clip30">
  <path d="M 161 132.5 C 161 131.671875 161.671875 131 162.5 131 C 163.328125 131 164 131.671875 164 132.5 L 164 181.5 C 164 182.328125 163.328125 183 162.5 183 C 161.671875 183 161 182.328125 161 181.5 Z M 161 132.5 "/>
</clipPath>
<clipPath id="clip31">
  <path d="M 140 110 L 145 110 L 145 164 L 140 164 Z M 140 110 "/>
</clipPath>
<clipPath id="clip32">
  <path d="M 141 111 L 144 111 L 144 163 L 141 163 Z M 141 111 "/>
</clipPath>
<clipPath id="clip33">
  <path d="M 141 112.5 C 141 111.671875 141.671875 111 142.5 111 C 143.328125 111 144 111.671875 144 112.5 L 144 161.5 C 144 162.328125 143.328125 163 142.5 163 C 141.671875 163 141 162.328125 141 161.5 Z M 141 112.5 "/>
</clipPath>
<clipPath id="clip34">
  <path d="M 140 110 L 145 110 L 145 164 L 140 164 Z M 140 110 "/>
</clipPath>
<clipPath id="clip35">
  <path d="M 141 111 L 144 111 L 144 163 L 141 163 Z M 141 111 "/>
</clipPath>
<clipPath id="clip36">
  <path d="M 141 112.5 C 141 111.671875 141.671875 111 142.5 111 C 143.328125 111 144 111.671875 144 112.5 L 144 161.5 C 144 162.328125 143.328125 163 142.5 163 C 141.671875 163 141 162.328125 141 161.5 Z M 141 112.5 "/>
</clipPath>
</defs>
<g id="surface2">
<path style="fill:none;stroke-width:1.5;stroke-linecap:butt;stroke-linejoin:miter;stroke:rgb(0%,0%,0%);stroke-opacity:0.266667;stroke-dasharray:10,4;stroke-dashoffset:1;stroke-miterlimit:10;" d="M 0.75 0.75 L 127.25 0.75 L 127.25 95.25 L 0.75 95.25 Z M 0.75 0.75 "/>
<path style="fill:none;stroke-width:1.5;stroke-linecap:butt;stroke-linejoin:miter;stroke:rgb(0%,0%,0%);stroke-opacity:0.2;stroke-dasharray:10,4;stroke-dashoffset:1;stroke-miterlimit:10;" d="M 10 10 L 118 10 L 118 86 L 10 86 Z M 10 10 "/>
<path style="fill:none;stroke-width:1.5;stroke-linecap:butt;stroke-linejoin:miter;stroke:rgb(0%,0%,0%);stroke-opacity:0.266667;stroke-dasharray:10,4;stroke-dashoffset:1;stroke-miterlimit:10;" d="M 140.75 0.75 L 267.25 0.75 L 267.25 95.25 L 140.75 95.25 Z M 140.75 0.75 "/>
<path style="fill:none;stroke-width:1.5;stroke-linecap:butt;stroke-linejoin:miter;stroke:rgb(0%,0%,0%);stroke-opacity:0.2;stroke-dasharray:10,4;stroke-dashoffset:1;stroke-miterlimit:10;" d="M 150 10 L 258 10 L 258 86 L 150 86 Z M 150 10 "/>
<path style="fill:none;stroke-width:1.5;stroke-linecap:butt;stroke-linejoin:miter;stroke:rgb(0%,0%,0%);stroke-opacity:0.266667;stroke-dasharray:10,4;stroke-dashoffset:1;stroke-miterlimit:10;" d="M 0.75 110.75 L 127.25 110.75 L 127.25 205.25 L 0.75 205.25 Z M 0.75 110.75 "/>
<path style="fill:none;stroke-width:1.5;stroke-linecap:butt;stroke-linejoin:miter;stroke:rgb(0%,0%,0%);stroke-opacity:0.2;stroke-dasharray:10,4;stroke-dashoffset:1;stroke-miterlimit:10;" d="M 10 120 L 118 120 L 118 196 L 10 196 Z M 10 120 "/>
<path style="fill:none;stroke-width:1.5;stroke-linecap:butt;stroke-linejoin:miter;stroke:rgb(0%,0%,0%);stroke-opacity:0.266667;stroke-dasharray:10,4;stroke-dashoffset:1;stroke-miterlimit:10;" d="M 140.75 110.75 L 267.25 110.75 L 267.25 205.25 L 140.75 205.25 Z M 140.75 110.75 "/>
<path style="fill:none;stroke-width:1.5;stroke-linecap:butt;stroke-linejoin:miter;stroke:rgb(0%,0%,0%);stroke-opacity:0.2;stroke-dasharray:10,4;stroke-dashoffset:1;stroke-miterlimit:10;" d="M 150 120 L 258 120 L 258 196 L 150 196 Z M 150 120 "/>
<path style="fill:none;stroke-width:1.5;stroke-linecap:butt;stroke-linejoin:miter;stroke:rgb(0%,0%,0%);stroke-opacity:0.1;stroke-miterlimit:10;" d="M 20 20 L 0 0 "/>
<path style="fill:none;stroke-width:1.5;stroke-linecap:butt;stroke-linejoin:miter;stroke:rgb(0%,0%,0%);stroke-opacity:0.1;stroke-miterlimit:10;" d="M 95 20 L 75 0 M 20 70 L 0 50 "/>
<path style="fill:none;stroke-width:1.5;stroke-linecap:butt;stroke-linejoin:miter;stroke:rgb(0%,0%,0%);stroke-opacity:0.1;stroke-miterlimit:10;" d="M 95 70 L 75 50 "/>
<path style="fill:none;stroke-width:1.5;stroke-linecap:butt;stroke-linejoin:miter;stroke:rgb(0%,0%,0%);stroke-opacity:0.1;stroke-miterlimit:10;" d="M 0 0 L 0 0 "/>
<path style="fill:none;stroke-width:1.5;stroke-linecap:butt;stroke-linejoin:miter;stroke:rgb(0%,0%,0%);stroke-opacity:0.1;stroke-miterlimit:10;" d="M 75 0 L 75 0 M 0 50 L 0 52 "/>
<path style="fill:none;stroke-width:1.5;stroke-linecap:butt;stroke-linejoin:miter;stroke:rgb(0%,0%,0%);stroke-opacity:0.1;stroke-miterlimit:10;" d="M 75 50 L 75 52 "/>
<path style="fill:none;stroke-width:1.5;stroke-linecap:butt;stroke-linejoin:miter;stroke:rgb(0%,0%,0%);stroke-opacity:0.1;stroke-miterlimit:10;" d="M 160 20 L 140 0 "/>
<path style="fill:none;stroke-width:1.5;stroke-linecap:butt;stroke-linejoin:miter;stroke:rgb(0%,0%,0%);stroke-opacity:0.1;stroke-miterlimit:10;" d="M 235 20 L 215 0 M 160 70 L 140 50 "/>
<path style="fill:none;stroke-width:1.5;stroke-linecap:butt;stroke-linejoin:miter;stroke:rgb(0%,0%,0%);stroke-opacity:0.1;stroke-miterlimit:10;" d="M 235 70 L 215 50 "/>
<path style="fill:none;stroke-width:1.5;stroke-linecap:butt;stroke-linejoin:miter;stroke:rgb(0%,0%,0%);stroke-opacity:0.1;stroke-miterlimit:10;" d="M 140 0 L 140 0 "/>
<path style="fill:none;stroke-width:1.5;stroke-linecap:butt;stroke-linejoin:miter;stroke:rgb(0%,0%,0%);stroke-opacity:0.1;stroke-miterlimit:10;" d="M 215 0 L 215 0 M 140 50 L 140 94 "/>
<path style="fill:none;stroke-width:1.5;stroke-linecap:butt;stroke-linejoin:miter;stroke:rgb(0%,0%,0%);stroke-opacity:0.1;stroke-miterlimit:10;" d="M 215 50 L 215 94 "/>
<path style="fill:none;stroke-width:1.5;stroke-linecap:butt;stroke-linejoin:miter;stroke:rgb(0%,0%,0%);stroke-opacity:0.1;stroke-miterlimit:10;" d="M 20 130 L 0 110 "/>
<path style="fill:none;stroke-width:1.5;stroke-linecap:butt;stroke-linejoin:miter;stroke:rgb(0%,0%,0%);stroke-opacity:0.1;stroke-miterlimit:10;" d="M 95 130 L 75 110 M 20 180 L 0 160 "/>
<path style="fill:none;stroke-width:1.5;stroke-linecap:butt;stroke-linejoin:miter;stroke:rgb(0%,0%,0%);stroke-opacity:0.1;stroke-miterlimit:10;" d="M 95 180 L 75 160 "/>
<path style="fill:none;stroke-width:1.5;stroke-linecap:butt;stroke-linejoin:miter;stroke:rgb(0%,0%,0%);stroke-opacity:0.1;stroke-miterlimit:10;" d="M 0 110 L 0 110 "/>
<path style="fill:none;stroke-width:1.5;stroke-linecap:butt;stroke-linejoin:miter;stroke:rgb(0%,0%,0%);stroke-opacity:0.1;stroke-miterlimit:10;" d="M 75 110 L 75 110 M 0 160 L 0 160 "/>
<path style="fill:none;stroke-width:1.5;stroke-linecap:butt;stroke-linejoin:miter;stroke:rgb(0%,0%,0%);stroke-opacity:0.1;stroke-miterlimit:10;" d="M 75 160 L 75 160 "/>
<path style="fill:none;stroke-width:1.5;stroke-linecap:butt;stroke-linejoin:miter;stroke:rgb(0%,0%,0%);stroke-opacity:0.1;stroke-miterlimit:10;" d="M 160 130 L 140 110 "/>
<path style="fill:none;stroke-width:1.5;stroke-linecap:butt;stroke-linejoin:miter;stroke:rgb(0%,0%,0%);stroke-opacity:0.1;stroke-miterlimit:10;" d="M 235 130 L 215 110 M 160 180 L 140 160 "/>
<path style="fill:none;stroke-width:1.5;stroke-linecap:butt;stroke-linejoin:miter;stroke:rgb(0%,0%,0%);stroke-opacity:0.1;stroke-miterlimit:10;" d="M 235 180 L 215 160 "/>
<path style="fill:none;stroke-width:1.5;stroke-linecap:butt;stroke-linejoin:miter;stroke:rgb(0%,0%,0%);stroke-opacity:0.1;stroke-miterlimit:10;" d="M 140 110 L 140 110 "/>
<path style="fill:none;stroke-width:1.5;stroke-linecap:butt;stroke-linejoin:miter;stroke:rgb(0%,0%,0%);stroke-opacity:0.1;stroke-miterlimit:10;" d="M 215 110 L 215 110 M 140 160 L 140 160 "/>
<path style="fill:none;stroke-width:1.5;stroke-linecap:butt;stroke-linejoin:miter;stroke:rgb(0%,0%,0%);stroke-opacity:0.1;stroke-miterlimit:10;" d="M 215 160 L 215 160 "/>
<g clip-path="url(#clip1)" clip-rule="nonzero">
<path style="fill:none;stroke-width:1;stroke-linecap:butt;stroke-linejoin:miter;stroke:rgb(38.039216%,50.588235%,100%);stroke-opacity:1;stroke-miterlimit:10;" d="M 0 5 C 0 2.238281 2.238281 0 5 0 L 72 0 C 74.761719 0 77 2.238281 77 5 L 77 49 C 77 51.761719 74.761719 54 72 54 L 5 54 C 2.238281 54 0 51.761719 0 49 Z M 0 5 " transform="matrix(1,0,0,1,21,21)"/>
</g>
<path style=" stroke:none;fill-rule:nonzero;fill:rgb(38.039216%,50.588235%,100%);fill-opacity:0.490196;" d="M 21 26 C 21 23.238281 23.238281 21 26 21 L 93 21 C 95.761719 21 98 23.238281 98 26 L 98 70 C 98 72.761719 95.761719 75 93 75 L 26 75 C 23.238281 75 21 72.761719 21 70 Z M 21 26 "/>
<g clip-path="url(#clip2)" clip-rule="nonzero">
<g clip-path="url(#clip3)" clip-rule="nonzero">
<path style="fill:none;stroke-width:1;stroke-linecap:butt;stroke-linejoin:miter;stroke:rgb(38.039216%,50.588235%,100%);stroke-opacity:1;stroke-miterlimit:10;" d="M 0 5 C 0 2.238281 2.238281 0 5 0 L 72 0 C 74.761719 0 77 2.238281 77 5 L 77 49 C 77 51.761719 74.761719 54 72 54 L 5 54 C 2.238281 54 0 51.761719 0 49 Z M 0 5 " transform="matrix(1,0,0,1,21,21)"/>
</g>
</g>
<g clip-path="url(#clip4)" clip-rule="nonzero">
<path style="fill:none;stroke-width:1;stroke-linecap:butt;stroke-linejoin:miter;stroke:rgb(38.039216%,50.588235%,100%);stroke-opacity:1;stroke-miterlimit:10;" d="M 0 5 C 0 2.238281 2.238281 0 5 0 L 72 0 C 74.761719 0 77 2.238281 77 5 L 77 49 C 77 51.761719 74.761719 54 72 54 L 5 54 C 2.238281 54 0 51.761719 0 49 Z M 0 5 " transform="matrix(1,0,0,1,1,1)"/>
</g>
<path style=" stroke:none;fill-rule:nonzero;fill:rgb(38.039216%,50.588235%,100%);fill-opacity:0.490196;" d="M 1 6 C 1 3.238281 3.238281 1 6 1 L 73 1 C 75.761719 1 78 3.238281 78 6 L 78 50 C 78 52.761719 75.761719 55 73 55 L 6 55 C 3.238281 55 1 52.761719 1 50 Z M 1 6 "/>
<g clip-path="url(#clip5)" clip-rule="nonzero">
<g clip-path="url(#clip6)" clip-rule="nonzero">
<path style="fill:none;stroke-width:1;stroke-linecap:butt;stroke-linejoin:miter;stroke:rgb(38.039216%,50.588235%,100%);stroke-opacity:1;stroke-miterlimit:10;" d="M 0 5 C 0 2.238281 2.238281 0 5 0 L 72 0 C 74.761719 0 77 2.238281 77 5 L 77 49 C 77 51.761719 74.761719 54 72 54 L 5 54 C 2.238281 54 0 51.761719 0 49 Z M 0 5 " transform="matrix(1,0,0,1,1,1)"/>
</g>
</g>
<g clip-path="url(#clip7)" clip-rule="nonzero">
<path style="fill:none;stroke-width:1;stroke-linecap:butt;stroke-linejoin:miter;stroke:rgb(38.039216%,50.588235%,100%);stroke-opacity:1;stroke-miterlimit:10;" d="M 0 5 C 0 2.238281 2.238281 0 5 0 L 72 0 C 74.761719 0 77 2.238281 77 5 L 77 49 C 77 51.761719 74.761719 54 72 54 L 5 54 C 2.238281 54 0 51.761719 0 49 Z M 0 5 " transform="matrix(1,0,0,1,1,1)"/>
</g>
<path style=" stroke:none;fill-rule:nonzero;fill:rgb(38.039216%,50.588235%,100%);fill-opacity:0.490196;" d="M 1 6 C 1 3.238281 3.238281 1 6 1 L 73 1 C 75.761719 1 78 3.238281 78 6 L 78 50 C 78 52.761719 75.761719 55 73 55 L 6 55 C 3.238281 55 1 52.761719 1 50 Z M 1 6 "/>
<g clip-path="url(#clip8)" clip-rule="nonzero">
<g clip-path="url(#clip9)" clip-rule="nonzero">
<path style="fill:none;stroke-width:1;stroke-linecap:butt;stroke-linejoin:miter;stroke:rgb(38.039216%,50.588235%,100%);stroke-opacity:1;stroke-miterlimit:10;" d="M 0 5 C 0 2.238281 2.238281 0 5 0 L 72 0 C 74.761719 0 77 2.238281 77 5 L 77 49 C 77 51.761719 74.761719 54 72 54 L 5 54 C 2.238281 54 0 51.761719 0 49 Z M 0 5 " transform="matrix(1,0,0,1,1,1)"/>
</g>
</g>
<g clip-path="url(#clip10)" clip-rule="nonzero">
<path style="fill:none;stroke-width:1;stroke-linecap:butt;stroke-linejoin:miter;stroke:rgb(38.039216%,50.588235%,100%);stroke-opacity:1;stroke-miterlimit:10;" d="M 0 5 C 0 2.238281 2.238281 0 5 0 L 72 0 C 74.761719 0 77 2.238281 77 5 L 77 91 C 77 93.761719 74.761719 96 72 96 L 5 96 C 2.238281 96 0 93.761719 0 91 Z M 0 5 " transform="matrix(1,0,0,1,161,21)"/>
</g>
<path style=" stroke:none;fill-rule:nonzero;fill:rgb(38.039216%,50.588235%,100%);fill-opacity:0.490196;" d="M 161 26 C 161 23.238281 163.238281 21 166 21 L 233 21 C 235.761719 21 238 23.238281 238 26 L 238 112 C 238 114.761719 235.761719 117 233 117 L 166 117 C 163.238281 117 161 114.761719 161 112 Z M 161 26 "/>
<g clip-path="url(#clip11)" clip-rule="nonzero">
<g clip-path="url(#clip12)" clip-rule="nonzero">
<path style="fill:none;stroke-width:1;stroke-linecap:butt;stroke-linejoin:miter;stroke:rgb(38.039216%,50.588235%,100%);stroke-opacity:1;stroke-miterlimit:10;" d="M 0 5 C 0 2.238281 2.238281 0 5 0 L 72 0 C 74.761719 0 77 2.238281 77 5 L 77 91 C 77 93.761719 74.761719 96 72 96 L 5 96 C 2.238281 96 0 93.761719 0 91 Z M 0 5 " transform="matrix(1,0,0,1,161,21)"/>
</g>
</g>
<g clip-path="url(#clip13)" clip-rule="nonzero">
<path style="fill:none;stroke-width:1;stroke-linecap:butt;stroke-linejoin:miter;stroke:rgb(38.039216%,50.588235%,100%);stroke-opacity:1;stroke-miterlimit:10;" d="M 0 5 C 0 2.238281 2.238281 0 5 0 L 72 0 C 74.761719 0 77 2.238281 77 5 L 77 91 C 77 93.761719 74.761719 96 72 96 L 5 96 C 2.238281 96 0 93.761719 0 91 Z M 0 5 " transform="matrix(1,0,0,1,141,1)"/>
</g>
<path style=" stroke:none;fill-rule:nonzero;fill:rgb(38.039216%,50.588235%,100%);fill-opacity:0.490196;" d="M 141 6 C 141 3.238281 143.238281 1 146 1 L 213 1 C 215.761719 1 218 3.238281 218 6 L 218 92 C 218 94.761719 215.761719 97 213 97 L 146 97 C 143.238281 97 141 94.761719 141 92 Z M 141 6 "/>
<g clip-path="url(#clip14)" clip-rule="nonzero">
<g clip-path="url(#clip15)" clip-rule="nonzero">
<path style="fill:none;stroke-width:1;stroke-linecap:butt;stroke-linejoin:miter;stroke:rgb(38.039216%,50.588235%,100%);stroke-opacity:1;stroke-miterlimit:10;" d="M 0 5 C 0 2.238281 2.238281 0 5 0 L 72 0 C 74.761719 0 77 2.238281 77 5 L 77 91 C 77 93.761719 74.761719 96 72 96 L 5 96 C 2.238281 96 0 93.761719 0 91 Z M 0 5 " transform="matrix(1,0,0,1,141,1)"/>
</g>
</g>
<g clip-path="url(#clip16)" clip-rule="nonzero">
<path style="fill:none;stroke-width:1;stroke-linecap:butt;stroke-linejoin:miter;stroke:rgb(38.039216%,50.588235%,100%);stroke-opacity:1;stroke-miterlimit:10;" d="M 0 5 C 0 2.238281 2.238281 0 5 0 L 72 0 C 74.761719 0 77 2.238281 77 5 L 77 91 C 77 93.761719 74.761719 96 72 96 L 5 96 C 2.238281 96 0 93.761719 0 91 Z M 0 5 " transform="matrix(1,0,0,1,141,1)"/>
</g>
<path style=" stroke:none;fill-rule:nonzero;fill:rgb(38.039216%,50.588235%,100%);fill-opacity:0.490196;" d="M 141 6 C 141 3.238281 143.238281 1 146 1 L 213 1 C 215.761719 1 218 3.238281 218 6 L 218 92 C 218 94.761719 215.761719 97 213 97 L 146 97 C 143.238281 97 141 94.761719 141 92 Z M 141 6 "/>
<g clip-path="url(#clip17)" clip-rule="nonzero">
<g clip-path="url(#clip18)" clip-rule="nonzero">
<path style="fill:none;stroke-width:1;stroke-linecap:butt;stroke-linejoin:miter;stroke:rgb(38.039216%,50.588235%,100%);stroke-opacity:1;stroke-miterlimit:10;" d="M 0 5 C 0 2.238281 2.238281 0 5 0 L 72 0 C 74.761719 0 77 2.238281 77 5 L 77 91 C 77 93.761719 74.761719 96 72 96 L 5 96 C 2.238281 96 0 93.761719 0 91 Z M 0 5 " transform="matrix(1,0,0,1,141,1)"/>
</g>
</g>
<g clip-path="url(#clip19)" clip-rule="nonzero">
<path style="fill:none;stroke-width:1;stroke-linecap:butt;stroke-linejoin:miter;stroke:rgb(38.039216%,50.588235%,100%);stroke-opacity:1;stroke-miterlimit:10;" d="M 0 5 C 0 2.238281 2.238281 0 5 0 L 74 0 C 76.761719 0 79 2.238281 79 5 L 79 47 C 79 49.761719 76.761719 52 74 52 L 5 52 C 2.238281 52 0 49.761719 0 47 Z M 0 5 " transform="matrix(1,0,0,1,21,131)"/>
</g>
<path style=" stroke:none;fill-rule:nonzero;fill:rgb(38.039216%,50.588235%,100%);fill-opacity:0.490196;" d="M 21 136 C 21 133.238281 23.238281 131 26 131 L 95 131 C 97.761719 131 100 133.238281 100 136 L 100 178 C 100 180.761719 97.761719 183 95 183 L 26 183 C 23.238281 183 21 180.761719 21 178 Z M 21 136 "/>
<g clip-path="url(#clip20)" clip-rule="nonzero">
<g clip-path="url(#clip21)" clip-rule="nonzero">
<path style="fill:none;stroke-width:1;stroke-linecap:butt;stroke-linejoin:miter;stroke:rgb(38.039216%,50.588235%,100%);stroke-opacity:1;stroke-miterlimit:10;" d="M 0 5 C 0 2.238281 2.238281 0 5 0 L 74 0 C 76.761719 0 79 2.238281 79 5 L 79 47 C 79 49.761719 76.761719 52 74 52 L 5 52 C 2.238281 52 0 49.761719 0 47 Z M 0 5 " transform="matrix(1,0,0,1,21,131)"/>
</g>
</g>
<g clip-path="url(#clip22)" clip-rule="nonzero">
<path style="fill:none;stroke-width:1;stroke-linecap:butt;stroke-linejoin:miter;stroke:rgb(38.039216%,50.588235%,100%);stroke-opacity:1;stroke-miterlimit:10;" d="M 0 5 C 0 2.238281 2.238281 0 5 0 L 74 0 C 76.761719 0 79 2.238281 79 5 L 79 47 C 79 49.761719 76.761719 52 74 52 L 5 52 C 2.238281 52 0 49.761719 0 47 Z M 0 5 " transform="matrix(1,0,0,1,1,111)"/>
</g>
<path style=" stroke:none;fill-rule:nonzero;fill:rgb(38.039216%,50.588235%,100%);fill-opacity:0.490196;" d="M 1 116 C 1 113.238281 3.238281 111 6 111 L 75 111 C 77.761719 111 80 113.238281 80 116 L 80 158 C 80 160.761719 77.761719 163 75 163 L 6 163 C 3.238281 163 1 160.761719 1 158 Z M 1 116 "/>
<g clip-path="url(#clip23)" clip-rule="nonzero">
<g clip-path="url(#clip24)" clip-rule="nonzero">
<path style="fill:none;stroke-width:1;stroke-linecap:butt;stroke-linejoin:miter;stroke:rgb(38.039216%,50.588235%,100%);stroke-opacity:1;stroke-miterlimit:10;" d="M 0 5 C 0 2.238281 2.238281 0 5 0 L 74 0 C 76.761719 0 79 2.238281 79 5 L 79 47 C 79 49.761719 76.761719 52 74 52 L 5 52 C 2.238281 52 0 49.761719 0 47 Z M 0 5 " transform="matrix(1,0,0,1,1,111)"/>
</g>
</g>
<g clip-path="url(#clip25)" clip-rule="nonzero">
<path style="fill:none;stroke-width:1;stroke-linecap:butt;stroke-linejoin:miter;stroke:rgb(38.039216%,50.588235%,100%);stroke-opacity:1;stroke-miterlimit:10;" d="M 0 5 C 0 2.238281 2.238281 0 5 0 L 74 0 C 76.761719 0 79 2.238281 79 5 L 79 47 C 79 49.761719 76.761719 52 74 52 L 5 52 C 2.238281 52 0 49.761719 0 47 Z M 0 5 " transform="matrix(1,0,0,1,1,111)"/>
</g>
<path style=" stroke:none;fill-rule:nonzero;fill:rgb(38.039216%,50.588235%,100%);fill-opacity:0.490196;" d="M 1 116 C 1 113.238281 3.238281 111 6 111 L 75 111 C 77.761719 111 80 113.238281 80 116 L 80 158 C 80 160.761719 77.761719 163 75 163 L 6 163 C 3.238281 163 1 160.761719 1 158 Z M 1 116 "/>
<g clip-path="url(#clip26)" clip-rule="nonzero">
<g clip-path="url(#clip27)" clip-rule="nonzero">
<path style="fill:none;stroke-width:1;stroke-linecap:butt;stroke-linejoin:miter;stroke:rgb(38.039216%,50.588235%,100%);stroke-opacity:1;stroke-miterlimit:10;" d="M 0 5 C 0 2.238281 2.238281 0 5 0 L 74 0 C 76.761719 0 79 2.238281 79 5 L 79 47 C 79 49.761719 76.761719 52 74 52 L 5 52 C 2.238281 52 0 49.761719 0 47 Z M 0 5 " transform="matrix(1,0,0,1,1,111)"/>
</g>
</g>
<g clip-path="url(#clip28)" clip-rule="nonzero">
<path style="fill:none;stroke-width:1;stroke-linecap:butt;stroke-linejoin:miter;stroke:rgb(38.039216%,50.588235%,100%);stroke-opacity:1;stroke-miterlimit:10;" d="M 0 1.5 C 0 0.671875 0.671875 0 1.5 0 C 2.328125 0 3 0.671875 3 1.5 L 3 50.5 C 3 51.328125 2.328125 52 1.5 52 C 0.671875 52 0 51.328125 0 50.5 Z M 0 1.5 " transform="matrix(1,0,0,1,161,131)"/>
</g>
<path style=" stroke:none;fill-rule:nonzero;fill:rgb(38.039216%,50.588235%,100%);fill-opacity:0.490196;" d="M 161 132.5 C 161 131.671875 161.671875 131 162.5 131 C 163.328125 131 164 131.671875 164 132.5 L 164 181.5 C 164 182.328125 163.328125 183 162.5 183 C 161.671875 183 161 182.328125 161 181.5 Z M 161 132.5 "/>
<g clip-path="url(#clip29)" clip-rule="nonzero">
<g clip-path="url(#clip30)" clip-rule="nonzero">
<path style="fill:none;stroke-width:1;stroke-linecap:butt;stroke-linejoin:miter;stroke:rgb(38.039216%,50.588235%,100%);stroke-opacity:1;stroke-miterlimit:10;" d="M 0 1.5 C 0 0.671875 0.671875 0 1.5 0 C 2.328125 0 3 0.671875 3 1.5 L 3 50.5 C 3 51.328125 2.328125 52 1.5 52 C 0.671875 52 0 51.328125 0 50.5 Z M 0 1.5 " transform="matrix(1,0,0,1,161,131)"/>
</g>
</g>
<g clip-path="url(#clip31)" clip-rule="nonzero">
<path style="fill:none;stroke-width:1;stroke-linecap:butt;stroke-linejoin:miter;stroke:rgb(38.039216%,50.588235%,100%);stroke-opacity:1;stroke-miterlimit:10;" d="M 0 1.5 C 0 0.671875 0.671875 0 1.5 0 C 2.328125 0 3 0.671875 3 1.5 L 3 50.5 C 3 51.328125 2.328125 52 1.5 52 C 0.671875 52 0 51.328125 0 50.5 Z M 0 1.5 " transform="matrix(1,0,0,1,141,111)"/>
</g>
<path style=" stroke:none;fill-rule:nonzero;fill:rgb(38.039216%,50.588235%,100%);fill-opacity:0.490196;" d="M 141 112.5 C 141 111.671875 141.671875 111 142.5 111 C 143.328125 111 144 111.671875 144 112.5 L 144 161.5 C 144 162.328125 143.328125 163 142.5 163 C 141.671875 163 141 162.328125 141 161.5 Z M 141 112.5 "/>
<g clip-path="url(#clip32)" clip-rule="nonzero">
<g clip-path="url(#clip33)" clip-rule="nonzero">
<path style="fill:none;stroke-width:1;stroke-linecap:butt;stroke-linejoin:miter;stroke:rgb(38.039216%,50.588235%,100%);stroke-opacity:1;stroke-miterlimit:10;" d="M 0 1.5 C 0 0.671875 0.671875 0 1.5 0 C 2.328125 0 3 0.671875 3 1.5 L 3 50.5 C 3 51.328125 2.328125 52 1.5 52 C 0.671875 52 0 51.328125 0 50.5 Z M 0 1.5 " transform="matrix(1,0,0,1,141,111)"/>
</g>
</g>
<g clip-path="url(#clip34)" clip-rule="nonzero">
<path style="fill:none;stroke-width:1;stroke-linecap:butt;stroke-linejoin:miter;stroke:rgb(38.039216%,50.588235%,100%);stroke-opacity:1;stroke-miterlimit:10;" d="M 0 1.5 C 0 0.671875 0.671875 0 1.5 0 C 2.328125 0 3 0.671875 3 1.5 L 3 50.5 C 3 51.328125 2.328125 52 1.5 52 C 0.671875 52 0 51.328125 0 50.5 Z M 0 1.5 " transform="matrix(1,0,0,1,141,111)"/>
</g>
<path style=" stroke:none;fill-rule:nonzero;fill:rgb(38.039216%,50.588235%,100%);fill-opacity:0.490196;" d="M 141 112.5 C 141 111.671875 141.671875 111 142.5 111 C 143.328125 111 144 111.671875 144 112.5 L 144 161.5 C 144 162.328125 143.328125 163 142.5 163 C 141.671875 163 141 162.328125 141 161.5 Z M 141 112.5 "/>
<g clip-path="url(#clip35)" clip-rule="nonzero">
<g clip-path="url(#clip36)" clip-rule="nonzero">
<path style="fill:none;stroke-width:1;stroke-linecap:butt;stroke-linejoin:miter;stroke:rgb(38.039216%,50.588235%,100%);stroke-opacity:1;stroke-miterlimit:10;" d="M 0 1.5 C 0 0.671875 0.671875 0 1.5 0 C 2.328125 0 3 0.671875 3 1.5 L 3 50.5 C 3 51.328125 2.328125 52 1.5 52 C 0.671875 52 0 51.328125 0 50.5 Z M 0 1.5 " transform="matrix(1,0,0,1,141,111)"/>
</g>
</g>
</g>
</svg>
