<?xml version="1.0" encoding="UTF-8"?>
<svg xmlns="http://www.w3.org/2000/svg" xmlns:xlink="http://www.w3.org/1999/xlink" width="128pt" height="96pt" viewBox="0 0 128 96" version="1.1">
<defs>
<clipPath id="clip1">
  <path d="M 45 35 L 89 35 L 89 69 L 45 69 Z M 45 35 "/>
</clipPath>
<clipPath id="clip2">
  <path d="M 46 36 L 88 36 L 88 68 L 46 68 Z M 46 36 "/>
</clipPath>
<clipPath id="clip3">
  <path d="M 46 41 C 46 38.238281 48.238281 36 51 36 L 83 36 C 85.761719 36 88 38.238281 88 41 L 88 63 C 88 65.761719 85.761719 68 83 68 L 51 68 C 48.238281 68 46 65.761719 46 63 Z M 46 41 "/>
</clipPath>
<clipPath id="clip4">
  <path d="M 0 0 L 44 0 L 44 34 L 0 34 Z M 0 0 "/>
</clipPath>
<clipPath id="clip5">
  <path d="M 1 1 L 43 1 L 43 33 L 1 33 Z M 1 1 "/>
</clipPath>
<clipPath id="clip6">
  <path d="M 1 6 C 1 3.238281 3.238281 1 6 1 L 38 1 C 40.761719 1 43 3.238281 43 6 L 43 28 C 43 30.761719 40.761719 33 38 33 L 6 33 C 3.238281 33 1 30.761719 1 28 Z M 1 6 "/>
</clipPath>
<clipPath id="clip7">
  <path d="M 43 64 L 87 64 L 87 96 L 43 96 Z M 43 64 "/>
</clipPath>
<clipPath id="clip8">
  <path d="M 44 65 L 86 65 L 86 96 L 44 96 Z M 44 65 "/>
</clipPath>
<clipPath id="clip9">
  <path d="M 44 70 C 44 67.238281 46.238281 65 49 65 L 81 65 C 83.761719 65 86 67.238281 86 70 L 86 92 C 86 94.761719 83.761719 97 81 97 L 49 97 C 46.238281 97 44 94.761719 44 92 Z M 44 70 "/>
</clipPath>
</defs>
<g id="surface2">
<path style="fill:none;stroke-width:1.5;stroke-linecap:butt;stroke-linejoin:miter;stroke:rgb(0%,0%,0%);stroke-opacity:0.266667;stroke-dasharray:10,4;stroke-dashoffset:1;stroke-miterlimit:10;" d="M 0.75 0.75 L 127.25 0.75 L 127.25 95.25 L 0.75 95.25 Z M 0.75 0.75 "/>
<path style="fill:none;stroke-width:1.5;stroke-linecap:butt;stroke-linejoin:miter;stroke:rgb(0%,0%,0%);stroke-opacity:0.2;stroke-dasharray:10,4;stroke-dashoffset:1;stroke-miterlimit:10;" d="M 10 10 L 118 10 L 118 86 L 10 86 Z M 10 10 "/>
<path style="fill:none;stroke-width:1.5;stroke-linecap:butt;stroke-linejoin:miter;stroke:rgb(0%,0%,0%);stroke-opacity:0.1;stroke-miterlimit:10;" d="M 45 35 L 0 0 "/>
<path style="fill:none;stroke-width:1.5;stroke-linecap:butt;stroke-linejoin:miter;stroke:rgb(0%,0%,0%);stroke-opacity:0.1;stroke-miterlimit:10;" d="M 85 35 L 40 0 M 45 65 L 0 30 "/>
<path style="fill:none;stroke-width:1.5;stroke-linecap:butt;stroke-linejoin:miter;stroke:rgb(0%,0%,0%);stroke-opacity:0.1;stroke-miterlimit:10;" d="M 85 65 L 40 30 "/>
<path style="fill:none;stroke-width:1.5;stroke-linecap:butt;stroke-linejoin:miter;stroke:rgb(0%,0%,0%);stroke-opacity:0.1;stroke-miterlimit:10;" d="M 0 0 L 43 64 "/>
<path style="fill:none;stroke-width:1.5;stroke-linecap:butt;stroke-linejoin:miter;stroke:rgb(0%,0%,0%);stroke-opacity:0.1;stroke-miterlimit:10;" d="M 40 0 L 83 64 M 0 30 L 43 94 "/>
<path style="fill:none;stroke-width:1.5;stroke-linecap:butt;stroke-linejoin:miter;stroke:rgb(0%,0%,0%);stroke-opacity:0.1;stroke-miterlimit:10;" d="M 40 30 L 83 94 "/>
<g clip-path="url(#clip1)" clip-rule="nonzero">
<path style="fill:none;stroke-width:1;stroke-linecap:butt;stroke-linejoin:miter;stroke:rgb(38.039216%,50.588235%,100%);stroke-opacity:1;stroke-miterlimit:10;" d="M 0 5 C 0 2.238281 2.238281 0 5 0 L 37 0 C 39.761719 0 42 2.238281 42 5 L 42 27 C 42 29.761719 39.761719 32 37 32 L 5 32 C 2.238281 32 0 29.761719 0 27 Z M 0 5 " transform="matrix(1,0,0,1,46,36)"/>
</g>
<path style=" stroke:none;fill-rule:nonzero;fill:rgb(38.039216%,50.588235%,100%);fill-opacity:0.490196;" d="M 46 41 C 46 38.238281 48.238281 36 51 36 L 83 36 C 85.761719 36 88 38.238281 88 41 L 88 63 C 88 65.761719 85.761719 68 83 68 L 51 68 C 48.238281 68 46 65.761719 46 63 Z M 46 41 "/>
<g clip-path="url(#clip2)" clip-rule="nonzero">
<g clip-path="url(#clip3)" clip-rule="nonzero">
<path style="fill:none;stroke-width:1;stroke-linecap:butt;stroke-linejoin:miter;stroke:rgb(38.039216%,50.588235%,100%);stroke-opacity:1;stroke-miterlimit:10;" d="M 0 5 C 0 2.238281 2.238281 0 5 0 L 37 0 C 39.761719 0 42 2.238281 42 5 L 42 27 C 42 29.761719 39.761719 32 37 32 L 5 32 C 2.238281 32 0 29.761719 0 27 Z M 0 5 " transform="matrix(1,0,0,1,46,36)"/>
</g>
</g>
<g clip-path="url(#clip4)" clip-rule="nonzero">
<path style="fill:none;stroke-width:1;stroke-linecap:butt;stroke-linejoin:miter;stroke:rgb(38.039216%,50.588235%,100%);stroke-opacity:1;stroke-miterlimit:10;" d="M 0 5 C 0 2.238281 2.238281 0 5 0 L 37 0 C 39.761719 0 42 2.238281 42 5 L 42 27 C 42 29.761719 39.761719 32 37 32 L 5 32 C 2.238281 32 0 29.761719 0 27 Z M 0 5 " transform="matrix(1,0,0,1,1,1)"/>
</g>
<path style=" stroke:none;fill-rule:nonzero;fill:rgb(38.039216%,50.588235%,100%);fill-opacity:0.490196;" d="M 1 6 C 1 3.238281 3.238281 1 6 1 L 38 1 C 40.761719 1 43 3.238281 43 6 L 43 28 C 43 30.761719 40.761719 33 38 33 L 6 33 C 3.238281 33 1 30.761719 1 28 Z M 1 6 "/>
<g clip-path="url(#clip5)" clip-rule="nonzero">
<g clip-path="url(#clip6)" clip-rule="nonzero">
<path style="fill:none;stroke-width:1;stroke-linecap:butt;stroke-linejoin:miter;stroke:rgb(38.039216%,50.588235%,100%);stroke-opacity:1;stroke-miterlimit:10;" d="M 0 5 C 0 2.238281 2.238281 0 5 0 L 37 0 C 39.761719 0 42 2.238281 42 5 L 42 27 C 42 29.761719 39.761719 32 37 32 L 5 32 C 2.238281 32 0 29.761719 0 27 Z M 0 5 " transform="matrix(1,0,0,1,1,1)"/>
</g>
</g>
<g clip-path="url(#clip7)" clip-rule="nonzero">
<path style="fill:none;stroke-width:1;stroke-linecap:butt;stroke-linejoin:miter;stroke:rgb(38.039216%,50.588235%,100%);stroke-opacity:1;stroke-miterlimit:10;" d="M 0 5 C 0 2.238281 2.238281 0 5 0 L 37 0 C 39.761719 0 42 2.238281 42 5 L 42 27 C 42 29.761719 39.761719 32 37 32 L 5 32 C 2.238281 32 0 29.761719 0 27 Z M 0 5 " transform="matrix(1,0,0,1,44,65)"/>
</g>
<path style=" stroke:none;fill-rule:nonzero;fill:rgb(38.039216%,50.588235%,100%);fill-opacity:0.490196;" d="M 44 70 C 44 67.238281 46.238281 65 49 65 L 81 65 C 83.761719 65 86 67.238281 86 70 L 86 92 C 86 94.761719 83.761719 97 81 97 L 49 97 C 46.238281 97 44 94.761719 44 92 Z M 44 70 "/>
<g clip-path="url(#clip8)" clip-rule="nonzero">
<g clip-path="url(#clip9)" clip-rule="nonzero">
<path style="fill:none;stroke-width:1;stroke-linecap:butt;stroke-linejoin:miter;stroke:rgb(38.039216%,50.588235%,100%);stroke-opacity:1;stroke-miterlimit:10;" d="M 0 5 C 0 2.238281 2.238281 0 5 0 L 37 0 C 39.761719 0 42 2.238281 42 5 L 42 27 C 42 29.761719 39.761719 32 37 32 L 5 32 C 2.238281 32 0 29.761719 0 27 Z M 0 5 " transform="matrix(1,0,0,1,44,65)"/>
</g>
</g>
</g>
</svg>
