<?xml version="1.0" encoding="UTF-8"?>
<svg xmlns="http://www.w3.org/2000/svg" xmlns:xlink="http://www.w3.org/1999/xlink" width="542pt" height="96pt" viewBox="0 0 542 96" version="1.1">
<g id="surface2">
<path style="fill:none;stroke-width:1.5;stroke-linecap:butt;stroke-linejoin:miter;stroke:rgb(0%,0%,0%);stroke-opacity:0.266667;stroke-dasharray:10,4;stroke-dashoffset:1;stroke-miterlimit:10;" d="M 0.75 0.75 L 127.25 0.75 L 127.25 95.25 L 0.75 95.25 Z M 0.75 0.75 "/>
<path style="fill:none;stroke-width:1.5;stroke-linecap:butt;stroke-linejoin:miter;stroke:rgb(0%,0%,0%);stroke-opacity:0.2;stroke-dasharray:10,4;stroke-dashoffset:1;stroke-miterlimit:10;" d="M 10 10 L 118 10 L 118 86 L 10 86 Z M 10 10 "/>
<path style="fill:none;stroke-width:1.5;stroke-linecap:butt;stroke-linejoin:miter;stroke:rgb(0%,0%,0%);stroke-opacity:0.266667;stroke-dasharray:10,4;stroke-dashoffset:1;stroke-miterlimit:10;" d="M 138.75 0.75 L 265.25 0.75 L 265.25 95.25 L 138.75 95.25 Z M 138.75 0.75 "/>
<path style="fill:none;stroke-width:1.5;stroke-linecap:butt;stroke-linejoin:miter;stroke:rgb(0%,0%,0%);stroke-opacity:0.2;stroke-dasharray:10,4;stroke-dashoffset:1;stroke-miterlimit:10;" d="M 148 10 L 256 10 L 256 86 L 148 86 Z M 148 10 "/>
<path style="fill:none;stroke-width:1.5;stroke-linecap:butt;stroke-linejoin:miter;stroke:rgb(0%,0%,0%);stroke-opacity:0.266667;stroke-dasharray:10,4;stroke-dashoffset:1;stroke-miterlimit:10;" d="M 276.75 0.75 L 403.25 0.75 L 403.25 95.25 L 276.75 95.25 Z M 276.75 0.75 "/>
<path style="fill:none;stroke-width:1.5;stroke-linecap:butt;stroke-linejoin:miter;stroke:rgb(0%,0%,0%);stroke-opacity:0.2;stroke-dasharray:10,4;stroke-dashoffset:1;stroke-miterlimit:10;" d="M 286 10 L 394 10 L 394 86 L 286 86 Z M 286 10 "/>
<path style="fill:none;stroke-width:1.5;stroke-linecap:butt;stroke-linejoin:miter;stroke:rgb(0%,0%,0%);stroke-opacity:0.266667;stroke-dasharray:10,4;stroke-dashoffset:1;stroke-miterlimit:10;" d="M 414.75 0.75 L 541.25 0.75 L 541.25 95.25 L 414.75 95.25 Z M 414.75 0.75 "/>
<path style="fill:none;stroke-width:1.5;stroke-linecap:butt;stroke-linejoin:miter;stroke:rgb(0%,0%,0%);stroke-opacity:0.2;stroke-dasharray:10,4;stroke-dashoffset:1;stroke-miterlimit:10;" d="M 424 10 L 532 10 L 532 86 L 424 86 Z M 424 10 "/>
<path style="fill:none;stroke-width:1.5;stroke-linecap:butt;stroke-linejoin:miter;stroke:rgb(38.039216%,50.588235%,100%);stroke-opacity:1;stroke-miterlimit:10;" d="M 0 5 C 0 2.238281 2.238281 0 5 0 L 61 0 C 63.761719 0 66 2.238281 66 5 L 66 40 C 66 42.761719 63.761719 45 61 45 L 5 45 C 2.238281 45 0 42.761719 0 40 Z M 0 5 " transform="matrix(1,0,0,1,12,12)"/>
<path style=" stroke:none;fill-rule:nonzero;fill:rgb(38.039216%,50.588235%,100%);fill-opacity:0.490196;" d="M 12 17 C 12 14.238281 14.238281 12 17 12 L 73 12 C 75.761719 12 78 14.238281 78 17 L 78 52 C 78 54.761719 75.761719 57 73 57 L 17 57 C 14.238281 57 12 54.761719 12 52 Z M 12 17 "/>
<path style="fill:none;stroke-width:1.5;stroke-linecap:butt;stroke-linejoin:miter;stroke:rgb(38.039216%,50.588235%,100%);stroke-opacity:1;stroke-miterlimit:10;" d="M 0 5 C 0 2.238281 2.238281 0 5 0 L 61 0 C 63.761719 0 66 2.238281 66 5 L 66 17 C 66 19.761719 63.761719 22 61 22 L 5 22 C 2.238281 22 0 19.761719 0 17 Z M 0 5 " transform="matrix(1,0,0,1,12,59)"/>
<path style=" stroke:none;fill-rule:nonzero;fill:rgb(38.039216%,50.588235%,100%);fill-opacity:0.490196;" d="M 12 64 C 12 61.238281 14.238281 59 17 59 L 73 59 C 75.761719 59 78 61.238281 78 64 L 78 76 C 78 78.761719 75.761719 81 73 81 L 17 81 C 14.238281 81 12 78.761719 12 76 Z M 12 64 "/>
<path style="fill:none;stroke-width:1.5;stroke-linecap:butt;stroke-linejoin:miter;stroke:rgb(38.039216%,50.588235%,100%);stroke-opacity:1;stroke-miterlimit:10;" d="M 0 5 C 0 2.238281 2.238281 0 5 0 L 28 0 C 30.761719 0 33 2.238281 33 5 L 33 40 C 33 42.761719 30.761719 45 28 45 L 5 45 C 2.238281 45 0 42.761719 0 40 Z M 0 5 " transform="matrix(1,0,0,1,80,12)"/>
<path style=" stroke:none;fill-rule:nonzero;fill:rgb(38.039216%,50.588235%,100%);fill-opacity:0.490196;" d="M 80 17 C 80 14.238281 82.238281 12 85 12 L 108 12 C 110.761719 12 113 14.238281 113 17 L 113 52 C 113 54.761719 110.761719 57 108 57 L 85 57 C 82.238281 57 80 54.761719 80 52 Z M 80 17 "/>
<path style="fill:none;stroke-width:1.5;stroke-linecap:butt;stroke-linejoin:miter;stroke:rgb(38.039216%,50.588235%,100%);stroke-opacity:1;stroke-miterlimit:10;" d="M 0 5 C 0 2.238281 2.238281 0 5 0 L 28 0 C 30.761719 0 33 2.238281 33 5 L 33 17 C 33 19.761719 30.761719 22 28 22 L 5 22 C 2.238281 22 0 19.761719 0 17 Z M 0 5 " transform="matrix(1,0,0,1,80,59)"/>
<path style=" stroke:none;fill-rule:nonzero;fill:rgb(38.039216%,50.588235%,100%);fill-opacity:0.490196;" d="M 80 64 C 80 61.238281 82.238281 59 85 59 L 108 59 C 110.761719 59 113 61.238281 113 64 L 113 76 C 113 78.761719 110.761719 81 108 81 L 85 81 C 82.238281 81 80 78.761719 80 76 Z M 80 64 "/>
<path style="fill:none;stroke-width:1.5;stroke-linecap:butt;stroke-linejoin:miter;stroke:rgb(38.039216%,50.588235%,100%);stroke-opacity:1;stroke-miterlimit:10;" d="M 0 5 C 0 2.238281 2.238281 0 5 0 L 59 0 C 61.761719 0 64 2.238281 64 5 L 64 37 C 64 39.761719 61.761719 42 59 42 L 5 42 C 2.238281 42 0 39.761719 0 37 Z M 0 5 " transform="matrix(1,0,0,1,152,14)"/>
<path style=" stroke:none;fill-rule:nonzero;fill:rgb(38.039216%,50.588235%,100%);fill-opacity:0.490196;" d="M 152 19 C 152 16.238281 154.238281 14 157 14 L 211 14 C 213.761719 14 216 16.238281 216 19 L 216 51 C 216 53.761719 213.761719 56 211 56 L 157 56 C 154.238281 56 152 53.761719 152 51 Z M 152 19 "/>
<path style="fill:none;stroke-width:1.5;stroke-linecap:butt;stroke-linejoin:miter;stroke:rgb(38.039216%,50.588235%,100%);stroke-opacity:1;stroke-miterlimit:10;" d="M 0 5 C 0 2.238281 2.238281 0 5 0 L 59 0 C 61.761719 0 64 2.238281 64 5 L 64 16 C 64 18.761719 61.761719 21 59 21 L 5 21 C 2.238281 21 0 18.761719 0 16 Z M 0 5 " transform="matrix(1,0,0,1,152,58)"/>
<path style=" stroke:none;fill-rule:nonzero;fill:rgb(38.039216%,50.588235%,100%);fill-opacity:0.490196;" d="M 152 63 C 152 60.238281 154.238281 58 157 58 L 211 58 C 213.761719 58 216 60.238281 216 63 L 216 74 C 216 76.761719 213.761719 79 211 79 L 157 79 C 154.238281 79 152 76.761719 152 74 Z M 152 63 "/>
<path style="fill:none;stroke-width:1.5;stroke-linecap:butt;stroke-linejoin:miter;stroke:rgb(38.039216%,50.588235%,100%);stroke-opacity:1;stroke-miterlimit:10;" d="M 0 5 C 0 2.238281 2.238281 0 5 0 L 27 0 C 29.761719 0 32 2.238281 32 5 L 32 37 C 32 39.761719 29.761719 42 27 42 L 5 42 C 2.238281 42 0 39.761719 0 37 Z M 0 5 " transform="matrix(1,0,0,1,218,14)"/>
<path style=" stroke:none;fill-rule:nonzero;fill:rgb(38.039216%,50.588235%,100%);fill-opacity:0.490196;" d="M 218 19 C 218 16.238281 220.238281 14 223 14 L 245 14 C 247.761719 14 250 16.238281 250 19 L 250 51 C 250 53.761719 247.761719 56 245 56 L 223 56 C 220.238281 56 218 53.761719 218 51 Z M 218 19 "/>
<path style="fill:none;stroke-width:1.5;stroke-linecap:butt;stroke-linejoin:miter;stroke:rgb(38.039216%,50.588235%,100%);stroke-opacity:1;stroke-miterlimit:10;" d="M 0 5 C 0 2.238281 2.238281 0 5 0 L 27 0 C 29.761719 0 32 2.238281 32 5 L 32 16 C 32 18.761719 29.761719 21 27 21 L 5 21 C 2.238281 21 0 18.761719 0 16 Z M 0 5 " transform="matrix(1,0,0,1,218,58)"/>
<path style=" stroke:none;fill-rule:nonzero;fill:rgb(38.039216%,50.588235%,100%);fill-opacity:0.490196;" d="M 218 63 C 218 60.238281 220.238281 58 223 58 L 245 58 C 247.761719 58 250 60.238281 250 63 L 250 74 C 250 76.761719 247.761719 79 245 79 L 223 79 C 220.238281 79 218 76.761719 218 74 Z M 218 63 "/>
<path style="fill:none;stroke-width:1.5;stroke-linecap:butt;stroke-linejoin:miter;stroke:rgb(38.039216%,50.588235%,100%);stroke-opacity:1;stroke-miterlimit:10;" d="M 0 5 C 0 2.238281 2.238281 0 5 0 L 56 0 C 58.761719 0 61 2.238281 61 5 L 61 35 C 61 37.761719 58.761719 40 56 40 L 5 40 C 2.238281 40 0 37.761719 0 35 Z M 0 5 " transform="matrix(1,0,0,1,292,16)"/>
<path style=" stroke:none;fill-rule:nonzero;fill:rgb(38.039216%,50.588235%,100%);fill-opacity:0.490196;" d="M 292 21 C 292 18.238281 294.238281 16 297 16 L 348 16 C 350.761719 16 353 18.238281 353 21 L 353 51 C 353 53.761719 350.761719 56 348 56 L 297 56 C 294.238281 56 292 53.761719 292 51 Z M 292 21 "/>
<path style="fill:none;stroke-width:1.5;stroke-linecap:butt;stroke-linejoin:miter;stroke:rgb(38.039216%,50.588235%,100%);stroke-opacity:1;stroke-miterlimit:10;" d="M 0 5 C 0 2.238281 2.238281 0 5 0 L 56 0 C 58.761719 0 61 2.238281 61 5 L 61 14 C 61 16.761719 58.761719 19 56 19 L 5 19 C 2.238281 19 0 16.761719 0 14 Z M 0 5 " transform="matrix(1,0,0,1,292,58)"/>
<path style=" stroke:none;fill-rule:nonzero;fill:rgb(38.039216%,50.588235%,100%);fill-opacity:0.490196;" d="M 292 63 C 292 60.238281 294.238281 58 297 58 L 348 58 C 350.761719 58 353 60.238281 353 63 L 353 72 C 353 74.761719 350.761719 77 348 77 L 297 77 C 294.238281 77 292 74.761719 292 72 Z M 292 63 "/>
<path style="fill:none;stroke-width:1.5;stroke-linecap:butt;stroke-linejoin:miter;stroke:rgb(38.039216%,50.588235%,100%);stroke-opacity:1;stroke-miterlimit:10;" d="M 0 5 C 0 2.238281 2.238281 0 5 0 L 25 0 C 27.761719 0 30 2.238281 30 5 L 30 35 C 30 37.761719 27.761719 40 25 40 L 5 40 C 2.238281 40 0 37.761719 0 35 Z M 0 5 " transform="matrix(1,0,0,1,355,16)"/>
<path style=" stroke:none;fill-rule:nonzero;fill:rgb(38.039216%,50.588235%,100%);fill-opacity:0.490196;" d="M 355 21 C 355 18.238281 357.238281 16 360 16 L 380 16 C 382.761719 16 385 18.238281 385 21 L 385 51 C 385 53.761719 382.761719 56 380 56 L 360 56 C 357.238281 56 355 53.761719 355 51 Z M 355 21 "/>
<path style="fill:none;stroke-width:1.5;stroke-linecap:butt;stroke-linejoin:miter;stroke:rgb(38.039216%,50.588235%,100%);stroke-opacity:1;stroke-miterlimit:10;" d="M 0 5 C 0 2.238281 2.238281 0 5 0 L 25 0 C 27.761719 0 30 2.238281 30 5 L 30 14 C 30 16.761719 27.761719 19 25 19 L 5 19 C 2.238281 19 0 16.761719 0 14 Z M 0 5 " transform="matrix(1,0,0,1,355,58)"/>
<path style=" stroke:none;fill-rule:nonzero;fill:rgb(38.039216%,50.588235%,100%);fill-opacity:0.490196;" d="M 355 63 C 355 60.238281 357.238281 58 360 58 L 380 58 C 382.761719 58 385 60.238281 385 63 L 385 72 C 385 74.761719 382.761719 77 380 77 L 360 77 C 357.238281 77 355 74.761719 355 72 Z M 355 63 "/>
<path style="fill:none;stroke-width:1.5;stroke-linecap:butt;stroke-linejoin:miter;stroke:rgb(38.039216%,50.588235%,100%);stroke-opacity:1;stroke-miterlimit:10;" d="M 0 5 C 0 2.238281 2.238281 0 5 0 L 53 0 C 55.761719 0 58 2.238281 58 5 L 58 32 C 58 34.761719 55.761719 37 53 37 L 5 37 C 2.238281 37 0 34.761719 0 32 Z M 0 5 " transform="matrix(1,0,0,1,432,18)"/>
<path style=" stroke:none;fill-rule:nonzero;fill:rgb(38.039216%,50.588235%,100%);fill-opacity:0.490196;" d="M 432 23 C 432 20.238281 434.238281 18 437 18 L 485 18 C 487.761719 18 490 20.238281 490 23 L 490 50 C 490 52.761719 487.761719 55 485 55 L 437 55 C 434.238281 55 432 52.761719 432 50 Z M 432 23 "/>
<path style="fill:none;stroke-width:1.5;stroke-linecap:butt;stroke-linejoin:miter;stroke:rgb(38.039216%,50.588235%,100%);stroke-opacity:1;stroke-miterlimit:10;" d="M 0 5 C 0 2.238281 2.238281 0 5 0 L 53 0 C 55.761719 0 58 2.238281 58 5 L 58 13 C 58 15.761719 55.761719 18 53 18 L 5 18 C 2.238281 18 0 15.761719 0 13 Z M 0 5 " transform="matrix(1,0,0,1,432,57)"/>
<path style=" stroke:none;fill-rule:nonzero;fill:rgb(38.039216%,50.588235%,100%);fill-opacity:0.490196;" d="M 432 62 C 432 59.238281 434.238281 57 437 57 L 485 57 C 487.761719 57 490 59.238281 490 62 L 490 70 C 490 72.761719 487.761719 75 485 75 L 437 75 C 434.238281 75 432 72.761719 432 70 Z M 432 62 "/>
<path style="fill:none;stroke-width:1.5;stroke-linecap:butt;stroke-linejoin:miter;stroke:rgb(38.039216%,50.588235%,100%);stroke-opacity:1;stroke-miterlimit:10;" d="M 0 5 C 0 2.238281 2.238281 0 5 0 L 24 0 C 26.761719 0 29 2.238281 29 5 L 29 32 C 29 34.761719 26.761719 37 24 37 L 5 37 C 2.238281 37 0 34.761719 0 32 Z M 0 5 " transform="matrix(1,0,0,1,492,18)"/>
<path style=" stroke:none;fill-rule:nonzero;fill:rgb(38.039216%,50.588235%,100%);fill-opacity:0.490196;" d="M 492 23 C 492 20.238281 494.238281 18 497 18 L 516 18 C 518.761719 18 521 20.238281 521 23 L 521 50 C 521 52.761719 518.761719 55 516 55 L 497 55 C 494.238281 55 492 52.761719 492 50 Z M 492 23 "/>
<path style="fill:none;stroke-width:1.5;stroke-linecap:butt;stroke-linejoin:miter;stroke:rgb(38.039216%,50.588235%,100%);stroke-opacity:1;stroke-miterlimit:10;" d="M 0 5 C 0 2.238281 2.238281 0 5 0 L 24 0 C 26.761719 0 29 2.238281 29 5 L 29 13 C 29 15.761719 26.761719 18 24 18 L 5 18 C 2.238281 18 0 15.761719 0 13 Z M 0 5 " transform="matrix(1,0,0,1,492,57)"/>
<path style=" stroke:none;fill-rule:nonzero;fill:rgb(38.039216%,50.588235%,100%);fill-opacity:0.490196;" d="M 492 62 C 492 59.238281 494.238281 57 497 57 L 516 57 C 518.761719 57 521 59.238281 521 62 L 521 70 C 521 72.761719 518.761719 75 516 75 L 497 75 C 494.238281 75 492 72.761719 492 70 Z M 492 62 "/>
</g>
</svg>
