<?xml version="1.0" encoding="UTF-8"?>
<svg xmlns="http://www.w3.org/2000/svg" xmlns:xlink="http://www.w3.org/1999/xlink" width="268pt" height="206pt" viewBox="0 0 268 206" version="1.1">
<defs>
<clipPath id="clip1">
  <path d="M 10 10 L 54 10 L 54 44 L 10 44 Z M 10 10 "/>
</clipPath>
<clipPath id="clip2">
  <path d="M 11 11 L 53 11 L 53 43 L 11 43 Z M 11 11 "/>
</clipPath>
<clipPath id="clip3">
  <path d="M 11 16 C 11 13.238281 13.238281 11 16 11 L 48 11 C 50.761719 11 53 13.238281 53 16 L 53 38 C 53 40.761719 50.761719 43 48 43 L 16 43 C 13.238281 43 11 40.761719 11 38 Z M 11 16 "/>
</clipPath>
<clipPath id="clip4">
  <path d="M 80 55 L 124 55 L 124 89 L 80 89 Z M 80 55 "/>
</clipPath>
<clipPath id="clip5">
  <path d="M 81 56 L 123 56 L 123 88 L 81 88 Z M 81 56 "/>
</clipPath>
<clipPath id="clip6">
  <path d="M 81 61 C 81 58.238281 83.238281 56 86 56 L 118 56 C 120.761719 56 123 58.238281 123 61 L 123 83 C 123 85.761719 120.761719 88 118 88 L 86 88 C 83.238281 88 81 85.761719 81 83 Z M 81 61 "/>
</clipPath>
<clipPath id="clip7">
  <path d="M 10 42 L 54 42 L 54 96 L 10 96 Z M 10 42 "/>
</clipPath>
<clipPath id="clip8">
  <path d="M 11 43 L 53 43 L 53 95 L 11 95 Z M 11 43 "/>
</clipPath>
<clipPath id="clip9">
  <path d="M 11 48 C 11 45.238281 13.238281 43 16 43 L 48 43 C 50.761719 43 53 45.238281 53 48 L 53 90 C 53 92.761719 50.761719 95 48 95 L 16 95 C 13.238281 95 11 92.761719 11 90 Z M 11 48 "/>
</clipPath>
<clipPath id="clip10">
  <path d="M 150 120 L 194 120 L 194 154 L 150 154 Z M 150 120 "/>
</clipPath>
<clipPath id="clip11">
  <path d="M 151 121 L 193 121 L 193 153 L 151 153 Z M 151 121 "/>
</clipPath>
<clipPath id="clip12">
  <path d="M 151 126 C 151 123.238281 153.238281 121 156 121 L 188 121 C 190.761719 121 193 123.238281 193 126 L 193 148 C 193 150.761719 190.761719 153 188 153 L 156 153 C 153.238281 153 151 150.761719 151 148 Z M 151 126 "/>
</clipPath>
<clipPath id="clip13">
  <path d="M 220 120 L 264 120 L 264 154 L 220 154 Z M 220 120 "/>
</clipPath>
<clipPath id="clip14">
  <path d="M 221 121 L 263 121 L 263 153 L 221 153 Z M 221 121 "/>
</clipPath>
<clipPath id="clip15">
  <path d="M 221 126 C 221 123.238281 223.238281 121 226 121 L 258 121 C 260.761719 121 263 123.238281 263 126 L 263 148 C 263 150.761719 260.761719 153 258 153 L 226 153 C 223.238281 153 221 150.761719 221 148 Z M 221 126 "/>
</clipPath>
<clipPath id="clip16">
  <path d="M 150 165 L 194 165 L 194 199 L 150 199 Z M 150 165 "/>
</clipPath>
<clipPath id="clip17">
  <path d="M 151 166 L 193 166 L 193 198 L 151 198 Z M 151 166 "/>
</clipPath>
<clipPath id="clip18">
  <path d="M 151 171 C 151 168.238281 153.238281 166 156 166 L 188 166 C 190.761719 166 193 168.238281 193 171 L 193 193 C 193 195.761719 190.761719 198 188 198 L 156 198 C 153.238281 198 151 195.761719 151 193 Z M 151 171 "/>
</clipPath>
<clipPath id="clip19">
  <path d="M 220 165 L 264 165 L 264 199 L 220 199 Z M 220 165 "/>
</clipPath>
<clipPath id="clip20">
  <path d="M 221 166 L 263 166 L 263 198 L 221 198 Z M 221 166 "/>
</clipPath>
<clipPath id="clip21">
  <path d="M 221 171 C 221 168.238281 223.238281 166 226 166 L 258 166 C 260.761719 166 263 168.238281 263 171 L 263 193 C 263 195.761719 260.761719 198 258 198 L 226 198 C 223.238281 198 221 195.761719 221 193 Z M 221 171 "/>
</clipPath>
<clipPath id="clip22">
  <path d="M 52 10 L 96 10 L 96 64 L 52 64 Z M 52 10 "/>
</clipPath>
<clipPath id="clip23">
  <path d="M 53 11 L 95 11 L 95 63 L 53 63 Z M 53 11 "/>
</clipPath>
<clipPath id="clip24">
  <path d="M 53 16 C 53 13.238281 55.238281 11 58 11 L 90 11 C 92.761719 11 95 13.238281 95 16 L 95 58 C 95 60.761719 92.761719 63 90 63 L 58 63 C 55.238281 63 53 60.761719 53 58 Z M 53 16 "/>
</clipPath>
</defs>
<g id="surface2">
<path style="fill:none;stroke-width:1.5;stroke-linecap:butt;stroke-linejoin:miter;stroke:rgb(0%,0%,0%);stroke-opacity:0.266667;stroke-dasharray:10,4;stroke-dashoffset:1;stroke-miterlimit:10;" d="M 0.75 0.75 L 127.25 0.75 L 127.25 95.25 L 0.75 95.25 Z M 0.75 0.75 "/>
<path style="fill:none;stroke-width:1.5;stroke-linecap:butt;stroke-linejoin:miter;stroke:rgb(0%,0%,0%);stroke-opacity:0.2;stroke-dasharray:10,4;stroke-dashoffset:1;stroke-miterlimit:10;" d="M 10 10 L 118 10 L 118 86 L 10 86 Z M 10 10 "/>
<path style="fill:none;stroke-width:1.5;stroke-linecap:butt;stroke-linejoin:miter;stroke:rgb(0%,0%,0%);stroke-opacity:0.266667;stroke-dasharray:10,4;stroke-dashoffset:1;stroke-miterlimit:10;" d="M 140.75 0.75 L 267.25 0.75 L 267.25 95.25 L 140.75 95.25 Z M 140.75 0.75 "/>
<path style="fill:none;stroke-width:1.5;stroke-linecap:butt;stroke-linejoin:miter;stroke:rgb(0%,0%,0%);stroke-opacity:0.2;stroke-dasharray:10,4;stroke-dashoffset:1;stroke-miterlimit:10;" d="M 150 10 L 258 10 L 258 86 L 150 86 Z M 150 10 "/>
<path style="fill:none;stroke-width:1.5;stroke-linecap:butt;stroke-linejoin:miter;stroke:rgb(0%,0%,0%);stroke-opacity:0.266667;stroke-dasharray:10,4;stroke-dashoffset:1;stroke-miterlimit:10;" d="M 0.75 110.75 L 127.25 110.75 L 127.25 205.25 L 0.75 205.25 Z M 0.75 110.75 "/>
<path style="fill:none;stroke-width:1.5;stroke-linecap:butt;stroke-linejoin:miter;stroke:rgb(0%,0%,0%);stroke-opacity:0.2;stroke-dasharray:10,4;stroke-dashoffset:1;stroke-miterlimit:10;" d="M 10 120 L 118 120 L 118 196 L 10 196 Z M 10 120 "/>
<path style="fill:none;stroke-width:1.5;stroke-linecap:butt;stroke-linejoin:miter;stroke:rgb(0%,0%,0%);stroke-opacity:0.266667;stroke-dasharray:10,4;stroke-dashoffset:1;stroke-miterlimit:10;" d="M 140.75 110.75 L 267.25 110.75 L 267.25 205.25 L 140.75 205.25 Z M 140.75 110.75 "/>
<path style="fill:none;stroke-width:1.5;stroke-linecap:butt;stroke-linejoin:miter;stroke:rgb(0%,0%,0%);stroke-opacity:0.2;stroke-dasharray:10,4;stroke-dashoffset:1;stroke-miterlimit:10;" d="M 150 120 L 258 120 L 258 196 L 150 196 Z M 150 120 "/>
<path style="fill:none;stroke-width:1.5;stroke-linecap:butt;stroke-linejoin:miter;stroke:rgb(0%,0%,0%);stroke-opacity:0.1;stroke-miterlimit:10;" d="M 0 0 L 10 42 "/>
<path style="fill:none;stroke-width:1.5;stroke-linecap:butt;stroke-linejoin:miter;stroke:rgb(0%,0%,0%);stroke-opacity:0.1;stroke-miterlimit:10;" d="M 40 0 L 50 42 M 0 50 L 10 92 "/>
<path style="fill:none;stroke-width:1.5;stroke-linecap:butt;stroke-linejoin:miter;stroke:rgb(0%,0%,0%);stroke-opacity:0.1;stroke-miterlimit:10;" d="M 40 50 L 50 92 "/>
<path style="fill:none;stroke-width:1.5;stroke-linecap:butt;stroke-linejoin:miter;stroke:rgb(0%,0%,0%);stroke-opacity:0.1;stroke-miterlimit:10;" d="M 140 110 L 52 10 "/>
<path style="fill:none;stroke-width:1.5;stroke-linecap:butt;stroke-linejoin:miter;stroke:rgb(0%,0%,0%);stroke-opacity:0.1;stroke-miterlimit:10;" d="M 180 110 L 92 10 M 140 160 L 52 60 "/>
<path style="fill:none;stroke-width:1.5;stroke-linecap:butt;stroke-linejoin:miter;stroke:rgb(0%,0%,0%);stroke-opacity:0.1;stroke-miterlimit:10;" d="M 180 160 L 92 60 "/>
<g clip-path="url(#clip1)" clip-rule="nonzero">
<path style="fill:none;stroke-width:1;stroke-linecap:butt;stroke-linejoin:miter;stroke:rgb(38.039216%,50.588235%,100%);stroke-opacity:1;stroke-miterlimit:10;" d="M 0 5 C 0 2.238281 2.238281 0 5 0 L 37 0 C 39.761719 0 42 2.238281 42 5 L 42 27 C 42 29.761719 39.761719 32 37 32 L 5 32 C 2.238281 32 0 29.761719 0 27 Z M 0 5 " transform="matrix(1,0,0,1,11,11)"/>
</g>
<path style=" stroke:none;fill-rule:nonzero;fill:rgb(38.039216%,50.588235%,100%);fill-opacity:0.490196;" d="M 11 16 C 11 13.238281 13.238281 11 16 11 L 48 11 C 50.761719 11 53 13.238281 53 16 L 53 38 C 53 40.761719 50.761719 43 48 43 L 16 43 C 13.238281 43 11 40.761719 11 38 Z M 11 16 "/>
<g clip-path="url(#clip2)" clip-rule="nonzero">
<g clip-path="url(#clip3)" clip-rule="nonzero">
<path style="fill:none;stroke-width:1;stroke-linecap:butt;stroke-linejoin:miter;stroke:rgb(38.039216%,50.588235%,100%);stroke-opacity:1;stroke-miterlimit:10;" d="M 0 5 C 0 2.238281 2.238281 0 5 0 L 37 0 C 39.761719 0 42 2.238281 42 5 L 42 27 C 42 29.761719 39.761719 32 37 32 L 5 32 C 2.238281 32 0 29.761719 0 27 Z M 0 5 " transform="matrix(1,0,0,1,11,11)"/>
</g>
</g>
<g clip-path="url(#clip4)" clip-rule="nonzero">
<path style="fill:none;stroke-width:1;stroke-linecap:butt;stroke-linejoin:miter;stroke:rgb(38.039216%,50.588235%,100%);stroke-opacity:1;stroke-miterlimit:10;" d="M 0 5 C 0 2.238281 2.238281 0 5 0 L 37 0 C 39.761719 0 42 2.238281 42 5 L 42 27 C 42 29.761719 39.761719 32 37 32 L 5 32 C 2.238281 32 0 29.761719 0 27 Z M 0 5 " transform="matrix(1,0,0,1,81,56)"/>
</g>
<path style=" stroke:none;fill-rule:nonzero;fill:rgb(38.039216%,50.588235%,100%);fill-opacity:0.490196;" d="M 81 61 C 81 58.238281 83.238281 56 86 56 L 118 56 C 120.761719 56 123 58.238281 123 61 L 123 83 C 123 85.761719 120.761719 88 118 88 L 86 88 C 83.238281 88 81 85.761719 81 83 Z M 81 61 "/>
<g clip-path="url(#clip5)" clip-rule="nonzero">
<g clip-path="url(#clip6)" clip-rule="nonzero">
<path style="fill:none;stroke-width:1;stroke-linecap:butt;stroke-linejoin:miter;stroke:rgb(38.039216%,50.588235%,100%);stroke-opacity:1;stroke-miterlimit:10;" d="M 0 5 C 0 2.238281 2.238281 0 5 0 L 37 0 C 39.761719 0 42 2.238281 42 5 L 42 27 C 42 29.761719 39.761719 32 37 32 L 5 32 C 2.238281 32 0 29.761719 0 27 Z M 0 5 " transform="matrix(1,0,0,1,81,56)"/>
</g>
</g>
<g clip-path="url(#clip7)" clip-rule="nonzero">
<path style="fill:none;stroke-width:1;stroke-linecap:butt;stroke-linejoin:miter;stroke:rgb(38.039216%,50.588235%,100%);stroke-opacity:1;stroke-miterlimit:10;" d="M 0 5 C 0 2.238281 2.238281 0 5 0 L 37 0 C 39.761719 0 42 2.238281 42 5 L 42 47 C 42 49.761719 39.761719 52 37 52 L 5 52 C 2.238281 52 0 49.761719 0 47 Z M 0 5 " transform="matrix(1,0,0,1,11,43)"/>
</g>
<path style=" stroke:none;fill-rule:nonzero;fill:rgb(66.666667%,0%,100%);fill-opacity:0.490196;" d="M 11 48 C 11 45.238281 13.238281 43 16 43 L 48 43 C 50.761719 43 53 45.238281 53 48 L 53 90 C 53 92.761719 50.761719 95 48 95 L 16 95 C 13.238281 95 11 92.761719 11 90 Z M 11 48 "/>
<g clip-path="url(#clip8)" clip-rule="nonzero">
<g clip-path="url(#clip9)" clip-rule="nonzero">
<path style="fill:none;stroke-width:1;stroke-linecap:butt;stroke-linejoin:miter;stroke:rgb(38.039216%,50.588235%,100%);stroke-opacity:1;stroke-miterlimit:10;" d="M 0 5 C 0 2.238281 2.238281 0 5 0 L 37 0 C 39.761719 0 42 2.238281 42 5 L 42 47 C 42 49.761719 39.761719 52 37 52 L 5 52 C 2.238281 52 0 49.761719 0 47 Z M 0 5 " transform="matrix(1,0,0,1,11,43)"/>
</g>
</g>
<g clip-path="url(#clip10)" clip-rule="nonzero">
<path style="fill:none;stroke-width:1;stroke-linecap:butt;stroke-linejoin:miter;stroke:rgb(38.039216%,50.588235%,100%);stroke-opacity:1;stroke-miterlimit:10;" d="M 0 5 C 0 2.238281 2.238281 0 5 0 L 37 0 C 39.761719 0 42 2.238281 42 5 L 42 27 C 42 29.761719 39.761719 32 37 32 L 5 32 C 2.238281 32 0 29.761719 0 27 Z M 0 5 " transform="matrix(1,0,0,1,151,121)"/>
</g>
<path style=" stroke:none;fill-rule:nonzero;fill:rgb(38.039216%,50.588235%,100%);fill-opacity:0.490196;" d="M 151 126 C 151 123.238281 153.238281 121 156 121 L 188 121 C 190.761719 121 193 123.238281 193 126 L 193 148 C 193 150.761719 190.761719 153 188 153 L 156 153 C 153.238281 153 151 150.761719 151 148 Z M 151 126 "/>
<g clip-path="url(#clip11)" clip-rule="nonzero">
<g clip-path="url(#clip12)" clip-rule="nonzero">
<path style="fill:none;stroke-width:1;stroke-linecap:butt;stroke-linejoin:miter;stroke:rgb(38.039216%,50.588235%,100%);stroke-opacity:1;stroke-miterlimit:10;" d="M 0 5 C 0 2.238281 2.238281 0 5 0 L 37 0 C 39.761719 0 42 2.238281 42 5 L 42 27 C 42 29.761719 39.761719 32 37 32 L 5 32 C 2.238281 32 0 29.761719 0 27 Z M 0 5 " transform="matrix(1,0,0,1,151,121)"/>
</g>
</g>
<g clip-path="url(#clip13)" clip-rule="nonzero">
<path style="fill:none;stroke-width:1;stroke-linecap:butt;stroke-linejoin:miter;stroke:rgb(38.039216%,50.588235%,100%);stroke-opacity:1;stroke-miterlimit:10;" d="M 0 5 C 0 2.238281 2.238281 0 5 0 L 37 0 C 39.761719 0 42 2.238281 42 5 L 42 27 C 42 29.761719 39.761719 32 37 32 L 5 32 C 2.238281 32 0 29.761719 0 27 Z M 0 5 " transform="matrix(1,0,0,1,221,121)"/>
</g>
<path style=" stroke:none;fill-rule:nonzero;fill:rgb(38.039216%,50.588235%,100%);fill-opacity:0.490196;" d="M 221 126 C 221 123.238281 223.238281 121 226 121 L 258 121 C 260.761719 121 263 123.238281 263 126 L 263 148 C 263 150.761719 260.761719 153 258 153 L 226 153 C 223.238281 153 221 150.761719 221 148 Z M 221 126 "/>
<g clip-path="url(#clip14)" clip-rule="nonzero">
<g clip-path="url(#clip15)" clip-rule="nonzero">
<path style="fill:none;stroke-width:1;stroke-linecap:butt;stroke-linejoin:miter;stroke:rgb(38.039216%,50.588235%,100%);stroke-opacity:1;stroke-miterlimit:10;" d="M 0 5 C 0 2.238281 2.238281 0 5 0 L 37 0 C 39.761719 0 42 2.238281 42 5 L 42 27 C 42 29.761719 39.761719 32 37 32 L 5 32 C 2.238281 32 0 29.761719 0 27 Z M 0 5 " transform="matrix(1,0,0,1,221,121)"/>
</g>
</g>
<g clip-path="url(#clip16)" clip-rule="nonzero">
<path style="fill:none;stroke-width:1;stroke-linecap:butt;stroke-linejoin:miter;stroke:rgb(38.039216%,50.588235%,100%);stroke-opacity:1;stroke-miterlimit:10;" d="M 0 5 C 0 2.238281 2.238281 0 5 0 L 37 0 C 39.761719 0 42 2.238281 42 5 L 42 27 C 42 29.761719 39.761719 32 37 32 L 5 32 C 2.238281 32 0 29.761719 0 27 Z M 0 5 " transform="matrix(1,0,0,1,151,166)"/>
</g>
<path style=" stroke:none;fill-rule:nonzero;fill:rgb(38.039216%,50.588235%,100%);fill-opacity:0.490196;" d="M 151 171 C 151 168.238281 153.238281 166 156 166 L 188 166 C 190.761719 166 193 168.238281 193 171 L 193 193 C 193 195.761719 190.761719 198 188 198 L 156 198 C 153.238281 198 151 195.761719 151 193 Z M 151 171 "/>
<g clip-path="url(#clip17)" clip-rule="nonzero">
<g clip-path="url(#clip18)" clip-rule="nonzero">
<path style="fill:none;stroke-width:1;stroke-linecap:butt;stroke-linejoin:miter;stroke:rgb(38.039216%,50.588235%,100%);stroke-opacity:1;stroke-miterlimit:10;" d="M 0 5 C 0 2.238281 2.238281 0 5 0 L 37 0 C 39.761719 0 42 2.238281 42 5 L 42 27 C 42 29.761719 39.761719 32 37 32 L 5 32 C 2.238281 32 0 29.761719 0 27 Z M 0 5 " transform="matrix(1,0,0,1,151,166)"/>
</g>
</g>
<g clip-path="url(#clip19)" clip-rule="nonzero">
<path style="fill:none;stroke-width:1;stroke-linecap:butt;stroke-linejoin:miter;stroke:rgb(38.039216%,50.588235%,100%);stroke-opacity:1;stroke-miterlimit:10;" d="M 0 5 C 0 2.238281 2.238281 0 5 0 L 37 0 C 39.761719 0 42 2.238281 42 5 L 42 27 C 42 29.761719 39.761719 32 37 32 L 5 32 C 2.238281 32 0 29.761719 0 27 Z M 0 5 " transform="matrix(1,0,0,1,221,166)"/>
</g>
<path style=" stroke:none;fill-rule:nonzero;fill:rgb(38.039216%,50.588235%,100%);fill-opacity:0.490196;" d="M 221 171 C 221 168.238281 223.238281 166 226 166 L 258 166 C 260.761719 166 263 168.238281 263 171 L 263 193 C 263 195.761719 260.761719 198 258 198 L 226 198 C 223.238281 198 221 195.761719 221 193 Z M 221 171 "/>
<g clip-path="url(#clip20)" clip-rule="nonzero">
<g clip-path="url(#clip21)" clip-rule="nonzero">
<path style="fill:none;stroke-width:1;stroke-linecap:butt;stroke-linejoin:miter;stroke:rgb(38.039216%,50.588235%,100%);stroke-opacity:1;stroke-miterlimit:10;" d="M 0 5 C 0 2.238281 2.238281 0 5 0 L 37 0 C 39.761719 0 42 2.238281 42 5 L 42 27 C 42 29.761719 39.761719 32 37 32 L 5 32 C 2.238281 32 0 29.761719 0 27 Z M 0 5 " transform="matrix(1,0,0,1,221,166)"/>
</g>
</g>
<g clip-path="url(#clip22)" clip-rule="nonzero">
<path style="fill:none;stroke-width:1;stroke-linecap:butt;stroke-linejoin:miter;stroke:rgb(38.039216%,50.588235%,100%);stroke-opacity:1;stroke-miterlimit:10;" d="M 0 5 C 0 2.238281 2.238281 0 5 0 L 37 0 C 39.761719 0 42 2.238281 42 5 L 42 47 C 42 49.761719 39.761719 52 37 52 L 5 52 C 2.238281 52 0 49.761719 0 47 Z M 0 5 " transform="matrix(1,0,0,1,53,11)"/>
</g>
<path style=" stroke:none;fill-rule:nonzero;fill:rgb(66.666667%,0%,100%);fill-opacity:0.490196;" d="M 53 16 C 53 13.238281 55.238281 11 58 11 L 90 11 C 92.761719 11 95 13.238281 95 16 L 95 58 C 95 60.761719 92.761719 63 90 63 L 58 63 C 55.238281 63 53 60.761719 53 58 Z M 53 16 "/>
<g clip-path="url(#clip23)" clip-rule="nonzero">
<g clip-path="url(#clip24)" clip-rule="nonzero">
<path style="fill:none;stroke-width:1;stroke-linecap:butt;stroke-linejoin:miter;stroke:rgb(38.039216%,50.588235%,100%);stroke-opacity:1;stroke-miterlimit:10;" d="M 0 5 C 0 2.238281 2.238281 0 5 0 L 37 0 C 39.761719 0 42 2.238281 42 5 L 42 47 C 42 49.761719 39.761719 52 37 52 L 5 52 C 2.238281 52 0 49.761719 0 47 Z M 0 5 " transform="matrix(1,0,0,1,53,11)"/>
</g>
</g>
</g>
</svg>
