<?xml version="1.0" encoding="UTF-8"?>
<svg xmlns="http://www.w3.org/2000/svg" xmlns:xlink="http://www.w3.org/1999/xlink" width="542pt" height="96pt" viewBox="0 0 542 96" version="1.1">
<defs>
<clipPath id="clip1">
  <path d="M 13 13 L 78 13 L 78 57 L 13 57 Z M 13 13 "/>
</clipPath>
<clipPath id="clip2">
  <path d="M 13 18 C 13 15.238281 15.238281 13 18 13 L 73 13 C 75.761719 13 78 15.238281 78 18 L 78 52 C 78 54.761719 75.761719 57 73 57 L 18 57 C 15.238281 57 13 54.761719 13 52 Z M 13 18 "/>
</clipPath>
<clipPath id="clip3">
  <path d="M 13 61 L 78 61 L 78 82 L 13 82 Z M 13 61 "/>
</clipPath>
<clipPath id="clip4">
  <path d="M 13 66 C 13 63.238281 15.238281 61 18 61 L 73 61 C 75.761719 61 78 63.238281 78 66 L 78 77 C 78 79.761719 75.761719 82 73 82 L 18 82 C 15.238281 82 13 79.761719 13 77 Z M 13 66 "/>
</clipPath>
<clipPath id="clip5">
  <path d="M 82 13 L 114 13 L 114 57 L 82 57 Z M 82 13 "/>
</clipPath>
<clipPath id="clip6">
  <path d="M 82 18 C 82 15.238281 84.238281 13 87 13 L 109 13 C 111.761719 13 114 15.238281 114 18 L 114 52 C 114 54.761719 111.761719 57 109 57 L 87 57 C 84.238281 57 82 54.761719 82 52 Z M 82 18 "/>
</clipPath>
<clipPath id="clip7">
  <path d="M 82 61 L 114 61 L 114 82 L 82 82 Z M 82 61 "/>
</clipPath>
<clipPath id="clip8">
  <path d="M 82 66 C 82 63.238281 84.238281 61 87 61 L 109 61 C 111.761719 61 114 63.238281 114 66 L 114 77 C 114 79.761719 111.761719 82 109 82 L 87 82 C 84.238281 82 82 79.761719 82 77 Z M 82 66 "/>
</clipPath>
<clipPath id="clip9">
  <path d="M 153 15 L 215 15 L 215 56 L 153 56 Z M 153 15 "/>
</clipPath>
<clipPath id="clip10">
  <path d="M 153 20 C 153 17.238281 155.238281 15 158 15 L 210 15 C 212.761719 15 215 17.238281 215 20 L 215 51 C 215 53.761719 212.761719 56 210 56 L 158 56 C 155.238281 56 153 53.761719 153 51 Z M 153 20 "/>
</clipPath>
<clipPath id="clip11">
  <path d="M 153 62 L 215 62 L 215 80 L 153 80 Z M 153 62 "/>
</clipPath>
<clipPath id="clip12">
  <path d="M 153 67 C 153 64.238281 155.238281 62 158 62 L 210 62 C 212.761719 62 215 64.238281 215 67 L 215 75 C 215 77.761719 212.761719 80 210 80 L 158 80 C 155.238281 80 153 77.761719 153 75 Z M 153 67 "/>
</clipPath>
<clipPath id="clip13">
  <path d="M 221 15 L 250 15 L 250 56 L 221 56 Z M 221 15 "/>
</clipPath>
<clipPath id="clip14">
  <path d="M 221 20 C 221 17.238281 223.238281 15 226 15 L 245 15 C 247.761719 15 250 17.238281 250 20 L 250 51 C 250 53.761719 247.761719 56 245 56 L 226 56 C 223.238281 56 221 53.761719 221 51 Z M 221 20 "/>
</clipPath>
<clipPath id="clip15">
  <path d="M 221 62 L 250 62 L 250 80 L 221 80 Z M 221 62 "/>
</clipPath>
<clipPath id="clip16">
  <path d="M 221 67 C 221 64.238281 223.238281 62 226 62 L 245 62 C 247.761719 62 250 64.238281 250 67 L 250 75 C 250 77.761719 247.761719 80 245 80 L 226 80 C 223.238281 80 221 77.761719 221 75 Z M 221 67 "/>
</clipPath>
<clipPath id="clip17">
  <path d="M 293 17 L 352 17 L 352 55 L 293 55 Z M 293 17 "/>
</clipPath>
<clipPath id="clip18">
  <path d="M 293 22 C 293 19.238281 295.238281 17 298 17 L 347 17 C 349.761719 17 352 19.238281 352 22 L 352 50 C 352 52.761719 349.761719 55 347 55 L 298 55 C 295.238281 55 293 52.761719 293 50 Z M 293 22 "/>
</clipPath>
<clipPath id="clip19">
  <path d="M 293 63 L 352 63 L 352 78 L 293 78 Z M 293 63 "/>
</clipPath>
<clipPath id="clip20">
  <path d="M 293 68 C 293 65.238281 295.238281 63 298 63 L 347 63 C 349.761719 63 352 65.238281 352 68 L 352 73 C 352 75.761719 349.761719 78 347 78 L 298 78 C 295.238281 78 293 75.761719 293 73 Z M 293 68 "/>
</clipPath>
<clipPath id="clip21">
  <path d="M 360 17 L 386 17 L 386 55 L 360 55 Z M 360 17 "/>
</clipPath>
<clipPath id="clip22">
  <path d="M 360 22 C 360 19.238281 362.238281 17 365 17 L 381 17 C 383.761719 17 386 19.238281 386 22 L 386 50 C 386 52.761719 383.761719 55 381 55 L 365 55 C 362.238281 55 360 52.761719 360 50 Z M 360 22 "/>
</clipPath>
<clipPath id="clip23">
  <path d="M 360 63 L 386 63 L 386 78 L 360 78 Z M 360 63 "/>
</clipPath>
<clipPath id="clip24">
  <path d="M 360 68 C 360 65.238281 362.238281 63 365 63 L 381 63 C 383.761719 63 386 65.238281 386 68 L 386 73 C 386 75.761719 383.761719 78 381 78 L 365 78 C 362.238281 78 360 75.761719 360 73 Z M 360 68 "/>
</clipPath>
<clipPath id="clip25">
  <path d="M 433 19 L 489 19 L 489 53 L 433 53 Z M 433 19 "/>
</clipPath>
<clipPath id="clip26">
  <path d="M 433 24 C 433 21.238281 435.238281 19 438 19 L 484 19 C 486.761719 19 489 21.238281 489 24 L 489 48 C 489 50.761719 486.761719 53 484 53 L 438 53 C 435.238281 53 433 50.761719 433 48 Z M 433 24 "/>
</clipPath>
<clipPath id="clip27">
  <path d="M 433 63 L 489 63 L 489 76 L 433 76 Z M 433 63 "/>
</clipPath>
<clipPath id="clip28">
  <path d="M 433 68 C 433 65.238281 435.238281 63 438 63 L 484 63 C 486.761719 63 489 65.238281 489 68 L 489 71 C 489 73.761719 486.761719 76 484 76 L 438 76 C 435.238281 76 433 73.761719 433 71 Z M 433 68 "/>
</clipPath>
<clipPath id="clip29">
  <path d="M 499 19 L 523 19 L 523 53 L 499 53 Z M 499 19 "/>
</clipPath>
<clipPath id="clip30">
  <path d="M 499 24 C 499 21.238281 501.238281 19 504 19 L 518 19 C 520.761719 19 523 21.238281 523 24 L 523 48 C 523 50.761719 520.761719 53 518 53 L 504 53 C 501.238281 53 499 50.761719 499 48 Z M 499 24 "/>
</clipPath>
<clipPath id="clip31">
  <path d="M 499 63 L 523 63 L 523 76 L 499 76 Z M 499 63 "/>
</clipPath>
<clipPath id="clip32">
  <path d="M 499 68 C 499 65.238281 501.238281 63 504 63 L 518 63 C 520.761719 63 523 65.238281 523 68 L 523 71 C 523 73.761719 520.761719 76 518 76 L 504 76 C 501.238281 76 499 73.761719 499 71 Z M 499 68 "/>
</clipPath>
</defs>
<g id="surface2">
<path style="fill:none;stroke-width:1.5;stroke-linecap:butt;stroke-linejoin:miter;stroke:rgb(0%,0%,0%);stroke-opacity:0.266667;stroke-dasharray:10,4;stroke-dashoffset:1;stroke-miterlimit:10;" d="M 0.75 0.75 L 127.25 0.75 L 127.25 95.25 L 0.75 95.25 Z M 0.75 0.75 "/>
<path style="fill:none;stroke-width:1.5;stroke-linecap:butt;stroke-linejoin:miter;stroke:rgb(0%,0%,0%);stroke-opacity:0.2;stroke-dasharray:10,4;stroke-dashoffset:1;stroke-miterlimit:10;" d="M 10 10 L 118 10 L 118 86 L 10 86 Z M 10 10 "/>
<path style="fill:none;stroke-width:1.5;stroke-linecap:butt;stroke-linejoin:miter;stroke:rgb(0%,0%,0%);stroke-opacity:0.266667;stroke-dasharray:10,4;stroke-dashoffset:1;stroke-miterlimit:10;" d="M 138.75 0.75 L 265.25 0.75 L 265.25 95.25 L 138.75 95.25 Z M 138.75 0.75 "/>
<path style="fill:none;stroke-width:1.5;stroke-linecap:butt;stroke-linejoin:miter;stroke:rgb(0%,0%,0%);stroke-opacity:0.2;stroke-dasharray:10,4;stroke-dashoffset:1;stroke-miterlimit:10;" d="M 148 10 L 256 10 L 256 86 L 148 86 Z M 148 10 "/>
<path style="fill:none;stroke-width:1.5;stroke-linecap:butt;stroke-linejoin:miter;stroke:rgb(0%,0%,0%);stroke-opacity:0.266667;stroke-dasharray:10,4;stroke-dashoffset:1;stroke-miterlimit:10;" d="M 276.75 0.75 L 403.25 0.75 L 403.25 95.25 L 276.75 95.25 Z M 276.75 0.75 "/>
<path style="fill:none;stroke-width:1.5;stroke-linecap:butt;stroke-linejoin:miter;stroke:rgb(0%,0%,0%);stroke-opacity:0.2;stroke-dasharray:10,4;stroke-dashoffset:1;stroke-miterlimit:10;" d="M 286 10 L 394 10 L 394 86 L 286 86 Z M 286 10 "/>
<path style="fill:none;stroke-width:1.5;stroke-linecap:butt;stroke-linejoin:miter;stroke:rgb(0%,0%,0%);stroke-opacity:0.266667;stroke-dasharray:10,4;stroke-dashoffset:1;stroke-miterlimit:10;" d="M 414.75 0.75 L 541.25 0.75 L 541.25 95.25 L 414.75 95.25 Z M 414.75 0.75 "/>
<path style="fill:none;stroke-width:1.5;stroke-linecap:butt;stroke-linejoin:miter;stroke:rgb(0%,0%,0%);stroke-opacity:0.2;stroke-dasharray:10,4;stroke-dashoffset:1;stroke-miterlimit:10;" d="M 424 10 L 532 10 L 532 86 L 424 86 Z M 424 10 "/>
<g clip-path="url(#clip1)" clip-rule="nonzero">
<g clip-path="url(#clip2)" clip-rule="nonzero">
<rect x="0" y="0" width="542" height="96" style="fill:rgb(38.039216%,50.588235%,100%);fill-opacity:0.490196;stroke:none;"/>
<path style="fill:none;stroke-width:2;stroke-linecap:butt;stroke-linejoin:miter;stroke:rgb(38.039216%,50.588235%,100%);stroke-opacity:1;stroke-miterlimit:10;" d="M 1 6 C 1 3.238281 3.238281 1 6 1 L 61 1 C 63.761719 1 66 3.238281 66 6 L 66 40 C 66 42.761719 63.761719 45 61 45 L 6 45 C 3.238281 45 1 42.761719 1 40 Z M 1 6 " transform="matrix(1,0,0,1,12,12)"/>
</g>
</g>
<g clip-path="url(#clip3)" clip-rule="nonzero">
<g clip-path="url(#clip4)" clip-rule="nonzero">
<rect x="0" y="0" width="542" height="96" style="fill:rgb(38.039216%,50.588235%,100%);fill-opacity:0.490196;stroke:none;"/>
<path style="fill:none;stroke-width:2;stroke-linecap:butt;stroke-linejoin:miter;stroke:rgb(38.039216%,50.588235%,100%);stroke-opacity:1;stroke-miterlimit:10;" d="M 1 6 C 1 3.238281 3.238281 1 6 1 L 61 1 C 63.761719 1 66 3.238281 66 6 L 66 17 C 66 19.761719 63.761719 22 61 22 L 6 22 C 3.238281 22 1 19.761719 1 17 Z M 1 6 " transform="matrix(1,0,0,1,12,60)"/>
</g>
</g>
<g clip-path="url(#clip5)" clip-rule="nonzero">
<g clip-path="url(#clip6)" clip-rule="nonzero">
<rect x="0" y="0" width="542" height="96" style="fill:rgb(38.039216%,50.588235%,100%);fill-opacity:0.490196;stroke:none;"/>
<path style="fill:none;stroke-width:2;stroke-linecap:butt;stroke-linejoin:miter;stroke:rgb(38.039216%,50.588235%,100%);stroke-opacity:1;stroke-miterlimit:10;" d="M 1 6 C 1 3.238281 3.238281 1 6 1 L 28 1 C 30.761719 1 33 3.238281 33 6 L 33 40 C 33 42.761719 30.761719 45 28 45 L 6 45 C 3.238281 45 1 42.761719 1 40 Z M 1 6 " transform="matrix(1,0,0,1,81,12)"/>
</g>
</g>
<g clip-path="url(#clip7)" clip-rule="nonzero">
<g clip-path="url(#clip8)" clip-rule="nonzero">
<rect x="0" y="0" width="542" height="96" style="fill:rgb(38.039216%,50.588235%,100%);fill-opacity:0.490196;stroke:none;"/>
<path style="fill:none;stroke-width:2;stroke-linecap:butt;stroke-linejoin:miter;stroke:rgb(38.039216%,50.588235%,100%);stroke-opacity:1;stroke-miterlimit:10;" d="M 1 6 C 1 3.238281 3.238281 1 6 1 L 28 1 C 30.761719 1 33 3.238281 33 6 L 33 17 C 33 19.761719 30.761719 22 28 22 L 6 22 C 3.238281 22 1 19.761719 1 17 Z M 1 6 " transform="matrix(1,0,0,1,81,60)"/>
</g>
</g>
<g clip-path="url(#clip9)" clip-rule="nonzero">
<g clip-path="url(#clip10)" clip-rule="nonzero">
<rect x="0" y="0" width="542" height="96" style="fill:rgb(38.039216%,50.588235%,100%);fill-opacity:0.490196;stroke:none;"/>
<path style="fill:none;stroke-width:2;stroke-linecap:butt;stroke-linejoin:miter;stroke:rgb(38.039216%,50.588235%,100%);stroke-opacity:1;stroke-miterlimit:10;" d="M 1 6 C 1 3.238281 3.238281 1 6 1 L 58 1 C 60.761719 1 63 3.238281 63 6 L 63 37 C 63 39.761719 60.761719 42 58 42 L 6 42 C 3.238281 42 1 39.761719 1 37 Z M 1 6 " transform="matrix(1,0,0,1,152,14)"/>
</g>
</g>
<g clip-path="url(#clip11)" clip-rule="nonzero">
<g clip-path="url(#clip12)" clip-rule="nonzero">
<rect x="0" y="0" width="542" height="96" style="fill:rgb(38.039216%,50.588235%,100%);fill-opacity:0.490196;stroke:none;"/>
<path style="fill:none;stroke-width:2;stroke-linecap:butt;stroke-linejoin:miter;stroke:rgb(38.039216%,50.588235%,100%);stroke-opacity:1;stroke-miterlimit:10;" d="M 1 6 C 1 3.238281 3.238281 1 6 1 L 58 1 C 60.761719 1 63 3.238281 63 6 L 63 14 C 63 16.761719 60.761719 19 58 19 L 6 19 C 3.238281 19 1 16.761719 1 14 Z M 1 6 " transform="matrix(1,0,0,1,152,61)"/>
</g>
</g>
<g clip-path="url(#clip13)" clip-rule="nonzero">
<g clip-path="url(#clip14)" clip-rule="nonzero">
<rect x="0" y="0" width="542" height="96" style="fill:rgb(38.039216%,50.588235%,100%);fill-opacity:0.490196;stroke:none;"/>
<path style="fill:none;stroke-width:2;stroke-linecap:butt;stroke-linejoin:miter;stroke:rgb(38.039216%,50.588235%,100%);stroke-opacity:1;stroke-miterlimit:10;" d="M 1 6 C 1 3.238281 3.238281 1 6 1 L 25 1 C 27.761719 1 30 3.238281 30 6 L 30 37 C 30 39.761719 27.761719 42 25 42 L 6 42 C 3.238281 42 1 39.761719 1 37 Z M 1 6 " transform="matrix(1,0,0,1,220,14)"/>
</g>
</g>
<g clip-path="url(#clip15)" clip-rule="nonzero">
<g clip-path="url(#clip16)" clip-rule="nonzero">
<rect x="0" y="0" width="542" height="96" style="fill:rgb(38.039216%,50.588235%,100%);fill-opacity:0.490196;stroke:none;"/>
<path style="fill:none;stroke-width:2;stroke-linecap:butt;stroke-linejoin:miter;stroke:rgb(38.039216%,50.588235%,100%);stroke-opacity:1;stroke-miterlimit:10;" d="M 1 6 C 1 3.238281 3.238281 1 6 1 L 25 1 C 27.761719 1 30 3.238281 30 6 L 30 14 C 30 16.761719 27.761719 19 25 19 L 6 19 C 3.238281 19 1 16.761719 1 14 Z M 1 6 " transform="matrix(1,0,0,1,220,61)"/>
</g>
</g>
<g clip-path="url(#clip17)" clip-rule="nonzero">
<g clip-path="url(#clip18)" clip-rule="nonzero">
<rect x="0" y="0" width="542" height="96" style="fill:rgb(38.039216%,50.588235%,100%);fill-opacity:0.490196;stroke:none;"/>
<path style="fill:none;stroke-width:2;stroke-linecap:butt;stroke-linejoin:miter;stroke:rgb(38.039216%,50.588235%,100%);stroke-opacity:1;stroke-miterlimit:10;" d="M 1 6 C 1 3.238281 3.238281 1 6 1 L 55 1 C 57.761719 1 60 3.238281 60 6 L 60 34 C 60 36.761719 57.761719 39 55 39 L 6 39 C 3.238281 39 1 36.761719 1 34 Z M 1 6 " transform="matrix(1,0,0,1,292,16)"/>
</g>
</g>
<g clip-path="url(#clip19)" clip-rule="nonzero">
<g clip-path="url(#clip20)" clip-rule="nonzero">
<rect x="0" y="0" width="542" height="96" style="fill:rgb(38.039216%,50.588235%,100%);fill-opacity:0.490196;stroke:none;"/>
<path style="fill:none;stroke-width:2;stroke-linecap:butt;stroke-linejoin:miter;stroke:rgb(38.039216%,50.588235%,100%);stroke-opacity:1;stroke-miterlimit:10;" d="M 1 6 C 1 3.238281 3.238281 1 6 1 L 55 1 C 57.761719 1 60 3.238281 60 6 L 60 11 C 60 13.761719 57.761719 16 55 16 L 6 16 C 3.238281 16 1 13.761719 1 11 Z M 1 6 " transform="matrix(1,0,0,1,292,62)"/>
</g>
</g>
<g clip-path="url(#clip21)" clip-rule="nonzero">
<g clip-path="url(#clip22)" clip-rule="nonzero">
<rect x="0" y="0" width="542" height="96" style="fill:rgb(38.039216%,50.588235%,100%);fill-opacity:0.490196;stroke:none;"/>
<path style="fill:none;stroke-width:2;stroke-linecap:butt;stroke-linejoin:miter;stroke:rgb(38.039216%,50.588235%,100%);stroke-opacity:1;stroke-miterlimit:10;" d="M 1 6 C 1 3.238281 3.238281 1 6 1 L 22 1 C 24.761719 1 27 3.238281 27 6 L 27 34 C 27 36.761719 24.761719 39 22 39 L 6 39 C 3.238281 39 1 36.761719 1 34 Z M 1 6 " transform="matrix(1,0,0,1,359,16)"/>
</g>
</g>
<g clip-path="url(#clip23)" clip-rule="nonzero">
<g clip-path="url(#clip24)" clip-rule="nonzero">
<rect x="0" y="0" width="542" height="96" style="fill:rgb(38.039216%,50.588235%,100%);fill-opacity:0.490196;stroke:none;"/>
<path style="fill:none;stroke-width:2;stroke-linecap:butt;stroke-linejoin:miter;stroke:rgb(38.039216%,50.588235%,100%);stroke-opacity:1;stroke-miterlimit:10;" d="M 1 6 C 1 3.238281 3.238281 1 6 1 L 22 1 C 24.761719 1 27 3.238281 27 6 L 27 11 C 27 13.761719 24.761719 16 22 16 L 6 16 C 3.238281 16 1 13.761719 1 11 Z M 1 6 " transform="matrix(1,0,0,1,359,62)"/>
</g>
</g>
<g clip-path="url(#clip25)" clip-rule="nonzero">
<g clip-path="url(#clip26)" clip-rule="nonzero">
<rect x="0" y="0" width="542" height="96" style="fill:rgb(38.039216%,50.588235%,100%);fill-opacity:0.490196;stroke:none;"/>
<path style="fill:none;stroke-width:2;stroke-linecap:butt;stroke-linejoin:miter;stroke:rgb(38.039216%,50.588235%,100%);stroke-opacity:1;stroke-miterlimit:10;" d="M 1 6 C 1 3.238281 3.238281 1 6 1 L 52 1 C 54.761719 1 57 3.238281 57 6 L 57 30 C 57 32.761719 54.761719 35 52 35 L 6 35 C 3.238281 35 1 32.761719 1 30 Z M 1 6 " transform="matrix(1,0,0,1,432,18)"/>
</g>
</g>
<g clip-path="url(#clip27)" clip-rule="nonzero">
<g clip-path="url(#clip28)" clip-rule="nonzero">
<rect x="0" y="0" width="542" height="96" style="fill:rgb(38.039216%,50.588235%,100%);fill-opacity:0.490196;stroke:none;"/>
<path style="fill:none;stroke-width:2;stroke-linecap:butt;stroke-linejoin:miter;stroke:rgb(38.039216%,50.588235%,100%);stroke-opacity:1;stroke-miterlimit:10;" d="M 1 6 C 1 3.238281 3.238281 1 6 1 L 52 1 C 54.761719 1 57 3.238281 57 6 L 57 9 C 57 11.761719 54.761719 14 52 14 L 6 14 C 3.238281 14 1 11.761719 1 9 Z M 1 6 " transform="matrix(1,0,0,1,432,62)"/>
</g>
</g>
<g clip-path="url(#clip29)" clip-rule="nonzero">
<g clip-path="url(#clip30)" clip-rule="nonzero">
<rect x="0" y="0" width="542" height="96" style="fill:rgb(38.039216%,50.588235%,100%);fill-opacity:0.490196;stroke:none;"/>
<path style="fill:none;stroke-width:2;stroke-linecap:butt;stroke-linejoin:miter;stroke:rgb(38.039216%,50.588235%,100%);stroke-opacity:1;stroke-miterlimit:10;" d="M 1 6 C 1 3.238281 3.238281 1 6 1 L 20 1 C 22.761719 1 25 3.238281 25 6 L 25 30 C 25 32.761719 22.761719 35 20 35 L 6 35 C 3.238281 35 1 32.761719 1 30 Z M 1 6 " transform="matrix(1,0,0,1,498,18)"/>
</g>
</g>
<g clip-path="url(#clip31)" clip-rule="nonzero">
<g clip-path="url(#clip32)" clip-rule="nonzero">
<rect x="0" y="0" width="542" height="96" style="fill:rgb(38.039216%,50.588235%,100%);fill-opacity:0.490196;stroke:none;"/>
<path style="fill:none;stroke-width:2;stroke-linecap:butt;stroke-linejoin:miter;stroke:rgb(38.039216%,50.588235%,100%);stroke-opacity:1;stroke-miterlimit:10;" d="M 1 6 C 1 3.238281 3.238281 1 6 1 L 20 1 C 22.761719 1 25 3.238281 25 6 L 25 9 C 25 11.761719 22.761719 14 20 14 L 6 14 C 3.238281 14 1 11.761719 1 9 Z M 1 6 " transform="matrix(1,0,0,1,498,62)"/>
</g>
</g>
</g>
</svg>
