<?xml version="1.0" encoding="UTF-8"?>
<svg xmlns="http://www.w3.org/2000/svg" xmlns:xlink="http://www.w3.org/1999/xlink" width="542pt" height="96pt" viewBox="0 0 542 96" version="1.1">
<defs>
<clipPath id="clip1">
  <path d="M 65 61 L 117 61 L 117 84 L 65 84 Z M 65 61 "/>
</clipPath>
<clipPath id="clip2">
  <path d="M 65 66 C 65 63.238281 67.238281 61 70 61 L 112 61 C 114.761719 61 117 63.238281 117 66 L 117 79 C 117 81.761719 114.761719 84 112 84 L 70 84 C 67.238281 84 65 81.761719 65 79 Z M 65 66 "/>
</clipPath>
<clipPath id="clip3">
  <path d="M 65 36 L 117 36 L 117 59 L 65 59 Z M 65 36 "/>
</clipPath>
<clipPath id="clip4">
  <path d="M 65 41 C 65 38.238281 67.238281 36 70 36 L 112 36 C 114.761719 36 117 38.238281 117 41 L 117 54 C 117 56.761719 114.761719 59 112 59 L 70 59 C 67.238281 59 65 56.761719 65 54 Z M 65 41 "/>
</clipPath>
<clipPath id="clip5">
  <path d="M 65 11 L 117 11 L 117 34 L 65 34 Z M 65 11 "/>
</clipPath>
<clipPath id="clip6">
  <path d="M 65 16 C 65 13.238281 67.238281 11 70 11 L 112 11 C 114.761719 11 117 13.238281 117 16 L 117 29 C 117 31.761719 114.761719 34 112 34 L 70 34 C 67.238281 34 65 31.761719 65 29 Z M 65 16 "/>
</clipPath>
<clipPath id="clip7">
  <path d="M 11 11 L 63 11 L 63 85 L 11 85 Z M 11 11 "/>
</clipPath>
<clipPath id="clip8">
  <path d="M 11 16 C 11 13.238281 13.238281 11 16 11 L 58 11 C 60.761719 11 63 13.238281 63 16 L 63 80 C 63 82.761719 60.761719 85 58 85 L 16 85 C 13.238281 85 11 82.761719 11 80 Z M 11 16 "/>
</clipPath>
<clipPath id="clip9">
  <path d="M 181 61 L 254 61 L 254 84 L 181 84 Z M 181 61 "/>
</clipPath>
<clipPath id="clip10">
  <path d="M 181 66 C 181 63.238281 183.238281 61 186 61 L 249 61 C 251.761719 61 254 63.238281 254 66 L 254 79 C 254 81.761719 251.761719 84 249 84 L 186 84 C 183.238281 84 181 81.761719 181 79 Z M 181 66 "/>
</clipPath>
<clipPath id="clip11">
  <path d="M 181 36 L 254 36 L 254 59 L 181 59 Z M 181 36 "/>
</clipPath>
<clipPath id="clip12">
  <path d="M 181 41 C 181 38.238281 183.238281 36 186 36 L 249 36 C 251.761719 36 254 38.238281 254 41 L 254 54 C 254 56.761719 251.761719 59 249 59 L 186 59 C 183.238281 59 181 56.761719 181 54 Z M 181 41 "/>
</clipPath>
<clipPath id="clip13">
  <path d="M 181 11 L 254 11 L 254 34 L 181 34 Z M 181 11 "/>
</clipPath>
<clipPath id="clip14">
  <path d="M 181 16 C 181 13.238281 183.238281 11 186 11 L 249 11 C 251.761719 11 254 13.238281 254 16 L 254 29 C 254 31.761719 251.761719 34 249 34 L 186 34 C 183.238281 34 181 31.761719 181 29 Z M 181 16 "/>
</clipPath>
<clipPath id="clip15">
  <path d="M 149 11 L 179 11 L 179 85 L 149 85 Z M 149 11 "/>
</clipPath>
<clipPath id="clip16">
  <path d="M 149 16 C 149 13.238281 151.238281 11 154 11 L 174 11 C 176.761719 11 179 13.238281 179 16 L 179 80 C 179 82.761719 176.761719 85 174 85 L 154 85 C 151.238281 85 149 82.761719 149 80 Z M 149 16 "/>
</clipPath>
<clipPath id="clip17">
  <path d="M 362 61 L 392 61 L 392 84 L 362 84 Z M 362 61 "/>
</clipPath>
<clipPath id="clip18">
  <path d="M 362 66 C 362 63.238281 364.238281 61 367 61 L 387 61 C 389.761719 61 392 63.238281 392 66 L 392 79 C 392 81.761719 389.761719 84 387 84 L 367 84 C 364.238281 84 362 81.761719 362 79 Z M 362 66 "/>
</clipPath>
<clipPath id="clip19">
  <path d="M 362 36 L 392 36 L 392 59 L 362 59 Z M 362 36 "/>
</clipPath>
<clipPath id="clip20">
  <path d="M 362 41 C 362 38.238281 364.238281 36 367 36 L 387 36 C 389.761719 36 392 38.238281 392 41 L 392 54 C 392 56.761719 389.761719 59 387 59 L 367 59 C 364.238281 59 362 56.761719 362 54 Z M 362 41 "/>
</clipPath>
<clipPath id="clip21">
  <path d="M 362 11 L 392 11 L 392 34 L 362 34 Z M 362 11 "/>
</clipPath>
<clipPath id="clip22">
  <path d="M 362 16 C 362 13.238281 364.238281 11 367 11 L 387 11 C 389.761719 11 392 13.238281 392 16 L 392 29 C 392 31.761719 389.761719 34 387 34 L 367 34 C 364.238281 34 362 31.761719 362 29 Z M 362 16 "/>
</clipPath>
<clipPath id="clip23">
  <path d="M 287 11 L 360 11 L 360 85 L 287 85 Z M 287 11 "/>
</clipPath>
<clipPath id="clip24">
  <path d="M 287 16 C 287 13.238281 289.238281 11 292 11 L 355 11 C 357.761719 11 360 13.238281 360 16 L 360 80 C 360 82.761719 357.761719 85 355 85 L 292 85 C 289.238281 85 287 82.761719 287 80 Z M 287 16 "/>
</clipPath>
<clipPath id="clip25">
  <path d="M 479 61 L 531 61 L 531 84 L 479 84 Z M 479 61 "/>
</clipPath>
<clipPath id="clip26">
  <path d="M 479 66 C 479 63.238281 481.238281 61 484 61 L 526 61 C 528.761719 61 531 63.238281 531 66 L 531 79 C 531 81.761719 528.761719 84 526 84 L 484 84 C 481.238281 84 479 81.761719 479 79 Z M 479 66 "/>
</clipPath>
<clipPath id="clip27">
  <path d="M 479 36 L 531 36 L 531 59 L 479 59 Z M 479 36 "/>
</clipPath>
<clipPath id="clip28">
  <path d="M 479 41 C 479 38.238281 481.238281 36 484 36 L 526 36 C 528.761719 36 531 38.238281 531 41 L 531 54 C 531 56.761719 528.761719 59 526 59 L 484 59 C 481.238281 59 479 56.761719 479 54 Z M 479 41 "/>
</clipPath>
<clipPath id="clip29">
  <path d="M 479 11 L 531 11 L 531 34 L 479 34 Z M 479 11 "/>
</clipPath>
<clipPath id="clip30">
  <path d="M 479 16 C 479 13.238281 481.238281 11 484 11 L 526 11 C 528.761719 11 531 13.238281 531 16 L 531 29 C 531 31.761719 528.761719 34 526 34 L 484 34 C 481.238281 34 479 31.761719 479 29 Z M 479 16 "/>
</clipPath>
<clipPath id="clip31">
  <path d="M 425 11 L 477 11 L 477 85 L 425 85 Z M 425 11 "/>
</clipPath>
<clipPath id="clip32">
  <path d="M 425 16 C 425 13.238281 427.238281 11 430 11 L 472 11 C 474.761719 11 477 13.238281 477 16 L 477 80 C 477 82.761719 474.761719 85 472 85 L 430 85 C 427.238281 85 425 82.761719 425 80 Z M 425 16 "/>
</clipPath>
</defs>
<g id="surface2">
<path style="fill:none;stroke-width:1.5;stroke-linecap:butt;stroke-linejoin:miter;stroke:rgb(0%,0%,0%);stroke-opacity:0.266667;stroke-dasharray:10,4;stroke-dashoffset:1;stroke-miterlimit:10;" d="M 0.75 0.75 L 127.25 0.75 L 127.25 95.25 L 0.75 95.25 Z M 0.75 0.75 "/>
<path style="fill:none;stroke-width:1.5;stroke-linecap:butt;stroke-linejoin:miter;stroke:rgb(0%,0%,0%);stroke-opacity:0.2;stroke-dasharray:10,4;stroke-dashoffset:1;stroke-miterlimit:10;" d="M 10 10 L 118 10 L 118 86 L 10 86 Z M 10 10 "/>
<path style="fill:none;stroke-width:1.5;stroke-linecap:butt;stroke-linejoin:miter;stroke:rgb(0%,0%,0%);stroke-opacity:0.266667;stroke-dasharray:10,4;stroke-dashoffset:1;stroke-miterlimit:10;" d="M 138.75 0.75 L 265.25 0.75 L 265.25 95.25 L 138.75 95.25 Z M 138.75 0.75 "/>
<path style="fill:none;stroke-width:1.5;stroke-linecap:butt;stroke-linejoin:miter;stroke:rgb(0%,0%,0%);stroke-opacity:0.2;stroke-dasharray:10,4;stroke-dashoffset:1;stroke-miterlimit:10;" d="M 148 10 L 256 10 L 256 86 L 148 86 Z M 148 10 "/>
<path style="fill:none;stroke-width:1.5;stroke-linecap:butt;stroke-linejoin:miter;stroke:rgb(0%,0%,0%);stroke-opacity:0.266667;stroke-dasharray:10,4;stroke-dashoffset:1;stroke-miterlimit:10;" d="M 276.75 0.75 L 403.25 0.75 L 403.25 95.25 L 276.75 95.25 Z M 276.75 0.75 "/>
<path style="fill:none;stroke-width:1.5;stroke-linecap:butt;stroke-linejoin:miter;stroke:rgb(0%,0%,0%);stroke-opacity:0.2;stroke-dasharray:10,4;stroke-dashoffset:1;stroke-miterlimit:10;" d="M 286 10 L 394 10 L 394 86 L 286 86 Z M 286 10 "/>
<path style="fill:none;stroke-width:1.5;stroke-linecap:butt;stroke-linejoin:miter;stroke:rgb(0%,0%,0%);stroke-opacity:0.266667;stroke-dasharray:10,4;stroke-dashoffset:1;stroke-miterlimit:10;" d="M 414.75 0.75 L 541.25 0.75 L 541.25 95.25 L 414.75 95.25 Z M 414.75 0.75 "/>
<path style="fill:none;stroke-width:1.5;stroke-linecap:butt;stroke-linejoin:miter;stroke:rgb(0%,0%,0%);stroke-opacity:0.2;stroke-dasharray:10,4;stroke-dashoffset:1;stroke-miterlimit:10;" d="M 424 10 L 532 10 L 532 86 L 424 86 Z M 424 10 "/>
<g clip-path="url(#clip1)" clip-rule="nonzero">
<g clip-path="url(#clip2)" clip-rule="nonzero">
<rect x="0" y="0" width="542" height="96" style="fill:rgb(38.039216%,50.588235%,100%);fill-opacity:0.490196;stroke:none;"/>
<path style="fill:none;stroke-width:2;stroke-linecap:butt;stroke-linejoin:miter;stroke:rgb(38.039216%,50.588235%,100%);stroke-opacity:1;stroke-miterlimit:10;" d="M 1 6 C 1 3.238281 3.238281 1 6 1 L 48 1 C 50.761719 1 53 3.238281 53 6 L 53 19 C 53 21.761719 50.761719 24 48 24 L 6 24 C 3.238281 24 1 21.761719 1 19 Z M 1 6 " transform="matrix(1,0,0,1,64,60)"/>
</g>
</g>
<g clip-path="url(#clip3)" clip-rule="nonzero">
<g clip-path="url(#clip4)" clip-rule="nonzero">
<rect x="0" y="0" width="542" height="96" style="fill:rgb(38.039216%,50.588235%,100%);fill-opacity:0.490196;stroke:none;"/>
<path style="fill:none;stroke-width:2;stroke-linecap:butt;stroke-linejoin:miter;stroke:rgb(38.039216%,50.588235%,100%);stroke-opacity:1;stroke-miterlimit:10;" d="M 1 6 C 1 3.238281 3.238281 1 6 1 L 48 1 C 50.761719 1 53 3.238281 53 6 L 53 19 C 53 21.761719 50.761719 24 48 24 L 6 24 C 3.238281 24 1 21.761719 1 19 Z M 1 6 " transform="matrix(1,0,0,1,64,35)"/>
</g>
</g>
<g clip-path="url(#clip5)" clip-rule="nonzero">
<g clip-path="url(#clip6)" clip-rule="nonzero">
<rect x="0" y="0" width="542" height="96" style="fill:rgb(38.039216%,50.588235%,100%);fill-opacity:0.490196;stroke:none;"/>
<path style="fill:none;stroke-width:2;stroke-linecap:butt;stroke-linejoin:miter;stroke:rgb(38.039216%,50.588235%,100%);stroke-opacity:1;stroke-miterlimit:10;" d="M 1 6 C 1 3.238281 3.238281 1 6 1 L 48 1 C 50.761719 1 53 3.238281 53 6 L 53 19 C 53 21.761719 50.761719 24 48 24 L 6 24 C 3.238281 24 1 21.761719 1 19 Z M 1 6 " transform="matrix(1,0,0,1,64,10)"/>
</g>
</g>
<g clip-path="url(#clip7)" clip-rule="nonzero">
<g clip-path="url(#clip8)" clip-rule="nonzero">
<rect x="0" y="0" width="542" height="96" style="fill:rgb(38.039216%,50.588235%,100%);fill-opacity:0.490196;stroke:none;"/>
<path style="fill:none;stroke-width:2;stroke-linecap:butt;stroke-linejoin:miter;stroke:rgb(38.039216%,50.588235%,100%);stroke-opacity:1;stroke-miterlimit:10;" d="M 1 6 C 1 3.238281 3.238281 1 6 1 L 48 1 C 50.761719 1 53 3.238281 53 6 L 53 70 C 53 72.761719 50.761719 75 48 75 L 6 75 C 3.238281 75 1 72.761719 1 70 Z M 1 6 " transform="matrix(1,0,0,1,10,10)"/>
</g>
</g>
<g clip-path="url(#clip9)" clip-rule="nonzero">
<g clip-path="url(#clip10)" clip-rule="nonzero">
<rect x="0" y="0" width="542" height="96" style="fill:rgb(38.039216%,50.588235%,100%);fill-opacity:0.490196;stroke:none;"/>
<path style="fill:none;stroke-width:2;stroke-linecap:butt;stroke-linejoin:miter;stroke:rgb(38.039216%,50.588235%,100%);stroke-opacity:1;stroke-miterlimit:10;" d="M 1 6 C 1 3.238281 3.238281 1 6 1 L 69 1 C 71.761719 1 74 3.238281 74 6 L 74 19 C 74 21.761719 71.761719 24 69 24 L 6 24 C 3.238281 24 1 21.761719 1 19 Z M 1 6 " transform="matrix(1,0,0,1,180,60)"/>
</g>
</g>
<g clip-path="url(#clip11)" clip-rule="nonzero">
<g clip-path="url(#clip12)" clip-rule="nonzero">
<rect x="0" y="0" width="542" height="96" style="fill:rgb(38.039216%,50.588235%,100%);fill-opacity:0.490196;stroke:none;"/>
<path style="fill:none;stroke-width:2;stroke-linecap:butt;stroke-linejoin:miter;stroke:rgb(38.039216%,50.588235%,100%);stroke-opacity:1;stroke-miterlimit:10;" d="M 1 6 C 1 3.238281 3.238281 1 6 1 L 69 1 C 71.761719 1 74 3.238281 74 6 L 74 19 C 74 21.761719 71.761719 24 69 24 L 6 24 C 3.238281 24 1 21.761719 1 19 Z M 1 6 " transform="matrix(1,0,0,1,180,35)"/>
</g>
</g>
<g clip-path="url(#clip13)" clip-rule="nonzero">
<g clip-path="url(#clip14)" clip-rule="nonzero">
<rect x="0" y="0" width="542" height="96" style="fill:rgb(38.039216%,50.588235%,100%);fill-opacity:0.490196;stroke:none;"/>
<path style="fill:none;stroke-width:2;stroke-linecap:butt;stroke-linejoin:miter;stroke:rgb(38.039216%,50.588235%,100%);stroke-opacity:1;stroke-miterlimit:10;" d="M 1 6 C 1 3.238281 3.238281 1 6 1 L 69 1 C 71.761719 1 74 3.238281 74 6 L 74 19 C 74 21.761719 71.761719 24 69 24 L 6 24 C 3.238281 24 1 21.761719 1 19 Z M 1 6 " transform="matrix(1,0,0,1,180,10)"/>
</g>
</g>
<g clip-path="url(#clip15)" clip-rule="nonzero">
<g clip-path="url(#clip16)" clip-rule="nonzero">
<rect x="0" y="0" width="542" height="96" style="fill:rgb(38.039216%,50.588235%,100%);fill-opacity:0.490196;stroke:none;"/>
<path style="fill:none;stroke-width:2;stroke-linecap:butt;stroke-linejoin:miter;stroke:rgb(38.039216%,50.588235%,100%);stroke-opacity:1;stroke-miterlimit:10;" d="M 1 6 C 1 3.238281 3.238281 1 6 1 L 26 1 C 28.761719 1 31 3.238281 31 6 L 31 70 C 31 72.761719 28.761719 75 26 75 L 6 75 C 3.238281 75 1 72.761719 1 70 Z M 1 6 " transform="matrix(1,0,0,1,148,10)"/>
</g>
</g>
<g clip-path="url(#clip17)" clip-rule="nonzero">
<g clip-path="url(#clip18)" clip-rule="nonzero">
<rect x="0" y="0" width="542" height="96" style="fill:rgb(38.039216%,50.588235%,100%);fill-opacity:0.490196;stroke:none;"/>
<path style="fill:none;stroke-width:2;stroke-linecap:butt;stroke-linejoin:miter;stroke:rgb(38.039216%,50.588235%,100%);stroke-opacity:1;stroke-miterlimit:10;" d="M 1 6 C 1 3.238281 3.238281 1 6 1 L 26 1 C 28.761719 1 31 3.238281 31 6 L 31 19 C 31 21.761719 28.761719 24 26 24 L 6 24 C 3.238281 24 1 21.761719 1 19 Z M 1 6 " transform="matrix(1,0,0,1,361,60)"/>
</g>
</g>
<g clip-path="url(#clip19)" clip-rule="nonzero">
<g clip-path="url(#clip20)" clip-rule="nonzero">
<rect x="0" y="0" width="542" height="96" style="fill:rgb(38.039216%,50.588235%,100%);fill-opacity:0.490196;stroke:none;"/>
<path style="fill:none;stroke-width:2;stroke-linecap:butt;stroke-linejoin:miter;stroke:rgb(38.039216%,50.588235%,100%);stroke-opacity:1;stroke-miterlimit:10;" d="M 1 6 C 1 3.238281 3.238281 1 6 1 L 26 1 C 28.761719 1 31 3.238281 31 6 L 31 19 C 31 21.761719 28.761719 24 26 24 L 6 24 C 3.238281 24 1 21.761719 1 19 Z M 1 6 " transform="matrix(1,0,0,1,361,35)"/>
</g>
</g>
<g clip-path="url(#clip21)" clip-rule="nonzero">
<g clip-path="url(#clip22)" clip-rule="nonzero">
<rect x="0" y="0" width="542" height="96" style="fill:rgb(38.039216%,50.588235%,100%);fill-opacity:0.490196;stroke:none;"/>
<path style="fill:none;stroke-width:2;stroke-linecap:butt;stroke-linejoin:miter;stroke:rgb(38.039216%,50.588235%,100%);stroke-opacity:1;stroke-miterlimit:10;" d="M 1 6 C 1 3.238281 3.238281 1 6 1 L 26 1 C 28.761719 1 31 3.238281 31 6 L 31 19 C 31 21.761719 28.761719 24 26 24 L 6 24 C 3.238281 24 1 21.761719 1 19 Z M 1 6 " transform="matrix(1,0,0,1,361,10)"/>
</g>
</g>
<g clip-path="url(#clip23)" clip-rule="nonzero">
<g clip-path="url(#clip24)" clip-rule="nonzero">
<rect x="0" y="0" width="542" height="96" style="fill:rgb(38.039216%,50.588235%,100%);fill-opacity:0.490196;stroke:none;"/>
<path style="fill:none;stroke-width:2;stroke-linecap:butt;stroke-linejoin:miter;stroke:rgb(38.039216%,50.588235%,100%);stroke-opacity:1;stroke-miterlimit:10;" d="M 1 6 C 1 3.238281 3.238281 1 6 1 L 69 1 C 71.761719 1 74 3.238281 74 6 L 74 70 C 74 72.761719 71.761719 75 69 75 L 6 75 C 3.238281 75 1 72.761719 1 70 Z M 1 6 " transform="matrix(1,0,0,1,286,10)"/>
</g>
</g>
<g clip-path="url(#clip25)" clip-rule="nonzero">
<g clip-path="url(#clip26)" clip-rule="nonzero">
<rect x="0" y="0" width="542" height="96" style="fill:rgb(38.039216%,50.588235%,100%);fill-opacity:0.490196;stroke:none;"/>
<path style="fill:none;stroke-width:2;stroke-linecap:butt;stroke-linejoin:miter;stroke:rgb(38.039216%,50.588235%,100%);stroke-opacity:1;stroke-miterlimit:10;" d="M 1 6 C 1 3.238281 3.238281 1 6 1 L 48 1 C 50.761719 1 53 3.238281 53 6 L 53 19 C 53 21.761719 50.761719 24 48 24 L 6 24 C 3.238281 24 1 21.761719 1 19 Z M 1 6 " transform="matrix(1,0,0,1,478,60)"/>
</g>
</g>
<g clip-path="url(#clip27)" clip-rule="nonzero">
<g clip-path="url(#clip28)" clip-rule="nonzero">
<rect x="0" y="0" width="542" height="96" style="fill:rgb(38.039216%,50.588235%,100%);fill-opacity:0.490196;stroke:none;"/>
<path style="fill:none;stroke-width:2;stroke-linecap:butt;stroke-linejoin:miter;stroke:rgb(38.039216%,50.588235%,100%);stroke-opacity:1;stroke-miterlimit:10;" d="M 1 6 C 1 3.238281 3.238281 1 6 1 L 48 1 C 50.761719 1 53 3.238281 53 6 L 53 19 C 53 21.761719 50.761719 24 48 24 L 6 24 C 3.238281 24 1 21.761719 1 19 Z M 1 6 " transform="matrix(1,0,0,1,478,35)"/>
</g>
</g>
<g clip-path="url(#clip29)" clip-rule="nonzero">
<g clip-path="url(#clip30)" clip-rule="nonzero">
<rect x="0" y="0" width="542" height="96" style="fill:rgb(38.039216%,50.588235%,100%);fill-opacity:0.490196;stroke:none;"/>
<path style="fill:none;stroke-width:2;stroke-linecap:butt;stroke-linejoin:miter;stroke:rgb(38.039216%,50.588235%,100%);stroke-opacity:1;stroke-miterlimit:10;" d="M 1 6 C 1 3.238281 3.238281 1 6 1 L 48 1 C 50.761719 1 53 3.238281 53 6 L 53 19 C 53 21.761719 50.761719 24 48 24 L 6 24 C 3.238281 24 1 21.761719 1 19 Z M 1 6 " transform="matrix(1,0,0,1,478,10)"/>
</g>
</g>
<g clip-path="url(#clip31)" clip-rule="nonzero">
<g clip-path="url(#clip32)" clip-rule="nonzero">
<rect x="0" y="0" width="542" height="96" style="fill:rgb(38.039216%,50.588235%,100%);fill-opacity:0.490196;stroke:none;"/>
<path style="fill:none;stroke-width:2;stroke-linecap:butt;stroke-linejoin:miter;stroke:rgb(38.039216%,50.588235%,100%);stroke-opacity:1;stroke-miterlimit:10;" d="M 1 6 C 1 3.238281 3.238281 1 6 1 L 48 1 C 50.761719 1 53 3.238281 53 6 L 53 70 C 53 72.761719 50.761719 75 48 75 L 6 75 C 3.238281 75 1 72.761719 1 70 Z M 1 6 " transform="matrix(1,0,0,1,424,10)"/>
</g>
</g>
</g>
</svg>
