<?xml version="1.0" encoding="UTF-8"?>
<svg xmlns="http://www.w3.org/2000/svg" xmlns:xlink="http://www.w3.org/1999/xlink" width="542pt" height="96pt" viewBox="0 0 542 96" version="1.1">
<defs>
<clipPath id="clip1">
  <path d="M 0 0 L 70 0 L 70 38 L 0 38 Z M 0 0 "/>
</clipPath>
<clipPath id="clip2">
  <path d="M 2 2 L 68 2 L 68 36 L 2 36 Z M 2 2 "/>
</clipPath>
<clipPath id="clip3">
  <path d="M 2 7 C 2 4.238281 4.238281 2 7 2 L 63 2 C 65.761719 2 68 4.238281 68 7 L 68 31 C 68 33.761719 65.761719 36 63 36 L 7 36 C 4.238281 36 2 33.761719 2 31 Z M 2 7 "/>
</clipPath>
<clipPath id="clip4">
  <path d="M 29 29 L 99 29 L 99 67 L 29 67 Z M 29 29 "/>
</clipPath>
<clipPath id="clip5">
  <path d="M 31 31 L 97 31 L 97 65 L 31 65 Z M 31 31 "/>
</clipPath>
<clipPath id="clip6">
  <path d="M 31 36 C 31 33.238281 33.238281 31 36 31 L 92 31 C 94.761719 31 97 33.238281 97 36 L 97 60 C 97 62.761719 94.761719 65 92 65 L 36 65 C 33.238281 65 31 62.761719 31 60 Z M 31 36 "/>
</clipPath>
<clipPath id="clip7">
  <path d="M 138 0 L 246 0 L 246 76 L 138 76 Z M 138 0 "/>
</clipPath>
<clipPath id="clip8">
  <path d="M 140 2 L 244 2 L 244 74 L 140 74 Z M 140 2 "/>
</clipPath>
<clipPath id="clip9">
  <path d="M 140 7 C 140 4.238281 142.238281 2 145 2 L 239 2 C 241.761719 2 244 4.238281 244 7 L 244 69 C 244 71.761719 241.761719 74 239 74 L 145 74 C 142.238281 74 140 71.761719 140 69 Z M 140 7 "/>
</clipPath>
<clipPath id="clip10">
  <path d="M 148 10 L 256 10 L 256 86 L 148 86 Z M 148 10 "/>
</clipPath>
<clipPath id="clip11">
  <path d="M 150 12 L 254 12 L 254 84 L 150 84 Z M 150 12 "/>
</clipPath>
<clipPath id="clip12">
  <path d="M 150 17 C 150 14.238281 152.238281 12 155 12 L 249 12 C 251.761719 12 254 14.238281 254 17 L 254 79 C 254 81.761719 251.761719 84 249 84 L 155 84 C 152.238281 84 150 81.761719 150 79 Z M 150 17 "/>
</clipPath>
<clipPath id="clip13">
  <path d="M 138 0 L 208 0 L 208 38 L 138 38 Z M 138 0 "/>
</clipPath>
<clipPath id="clip14">
  <path d="M 140 2 L 206 2 L 206 36 L 140 36 Z M 140 2 "/>
</clipPath>
<clipPath id="clip15">
  <path d="M 140 7 C 140 4.238281 142.238281 2 145 2 L 201 2 C 203.761719 2 206 4.238281 206 7 L 206 31 C 206 33.761719 203.761719 36 201 36 L 145 36 C 142.238281 36 140 33.761719 140 31 Z M 140 7 "/>
</clipPath>
<clipPath id="clip16">
  <path d="M 167 29 L 237 29 L 237 67 L 167 67 Z M 167 29 "/>
</clipPath>
<clipPath id="clip17">
  <path d="M 169 31 L 235 31 L 235 65 L 169 65 Z M 169 31 "/>
</clipPath>
<clipPath id="clip18">
  <path d="M 169 36 C 169 33.238281 171.238281 31 174 31 L 230 31 C 232.761719 31 235 33.238281 235 36 L 235 60 C 235 62.761719 232.761719 65 230 65 L 174 65 C 171.238281 65 169 62.761719 169 60 Z M 169 36 "/>
</clipPath>
<clipPath id="clip19">
  <path d="M 276 0 L 384 0 L 384 38 L 276 38 Z M 276 0 "/>
</clipPath>
<clipPath id="clip20">
  <path d="M 278 2 L 382 2 L 382 36 L 278 36 Z M 278 2 "/>
</clipPath>
<clipPath id="clip21">
  <path d="M 278 7 C 278 4.238281 280.238281 2 283 2 L 377 2 C 379.761719 2 382 4.238281 382 7 L 382 31 C 382 33.761719 379.761719 36 377 36 L 283 36 C 280.238281 36 278 33.761719 278 31 Z M 278 7 "/>
</clipPath>
<clipPath id="clip22">
  <path d="M 286 10 L 394 10 L 394 48 L 286 48 Z M 286 10 "/>
</clipPath>
<clipPath id="clip23">
  <path d="M 288 12 L 392 12 L 392 46 L 288 46 Z M 288 12 "/>
</clipPath>
<clipPath id="clip24">
  <path d="M 288 17 C 288 14.238281 290.238281 12 293 12 L 387 12 C 389.761719 12 392 14.238281 392 17 L 392 41 C 392 43.761719 389.761719 46 387 46 L 293 46 C 290.238281 46 288 43.761719 288 41 Z M 288 17 "/>
</clipPath>
<clipPath id="clip25">
  <path d="M 276 0 L 384 0 L 384 38 L 276 38 Z M 276 0 "/>
</clipPath>
<clipPath id="clip26">
  <path d="M 278 2 L 382 2 L 382 36 L 278 36 Z M 278 2 "/>
</clipPath>
<clipPath id="clip27">
  <path d="M 278 7 C 278 4.238281 280.238281 2 283 2 L 377 2 C 379.761719 2 382 4.238281 382 7 L 382 31 C 382 33.761719 379.761719 36 377 36 L 283 36 C 280.238281 36 278 33.761719 278 31 Z M 278 7 "/>
</clipPath>
<clipPath id="clip28">
  <path d="M 286 48 L 394 48 L 394 86 L 286 86 Z M 286 48 "/>
</clipPath>
<clipPath id="clip29">
  <path d="M 288 50 L 392 50 L 392 84 L 288 84 Z M 288 50 "/>
</clipPath>
<clipPath id="clip30">
  <path d="M 288 55 C 288 52.238281 290.238281 50 293 50 L 387 50 C 389.761719 50 392 52.238281 392 55 L 392 79 C 392 81.761719 389.761719 84 387 84 L 293 84 C 290.238281 84 288 81.761719 288 79 Z M 288 55 "/>
</clipPath>
<clipPath id="clip31">
  <path d="M 276 0 L 346 0 L 346 38 L 276 38 Z M 276 0 "/>
</clipPath>
<clipPath id="clip32">
  <path d="M 278 2 L 344 2 L 344 36 L 278 36 Z M 278 2 "/>
</clipPath>
<clipPath id="clip33">
  <path d="M 278 7 C 278 4.238281 280.238281 2 283 2 L 339 2 C 341.761719 2 344 4.238281 344 7 L 344 31 C 344 33.761719 341.761719 36 339 36 L 283 36 C 280.238281 36 278 33.761719 278 31 Z M 278 7 "/>
</clipPath>
<clipPath id="clip34">
  <path d="M 305 29 L 375 29 L 375 67 L 305 67 Z M 305 29 "/>
</clipPath>
<clipPath id="clip35">
  <path d="M 307 31 L 373 31 L 373 65 L 307 65 Z M 307 31 "/>
</clipPath>
<clipPath id="clip36">
  <path d="M 307 36 C 307 33.238281 309.238281 31 312 31 L 368 31 C 370.761719 31 373 33.238281 373 36 L 373 60 C 373 62.761719 370.761719 65 368 65 L 312 65 C 309.238281 65 307 62.761719 307 60 Z M 307 36 "/>
</clipPath>
<clipPath id="clip37">
  <path d="M 414 0 L 522 0 L 522 25 L 414 25 Z M 414 0 "/>
</clipPath>
<clipPath id="clip38">
  <path d="M 416 2 L 520 2 L 520 23 L 416 23 Z M 416 2 "/>
</clipPath>
<clipPath id="clip39">
  <path d="M 416 7 C 416 4.238281 418.238281 2 421 2 L 515 2 C 517.761719 2 520 4.238281 520 7 L 520 18 C 520 20.761719 517.761719 23 515 23 L 421 23 C 418.238281 23 416 20.761719 416 18 Z M 416 7 "/>
</clipPath>
<clipPath id="clip40">
  <path d="M 424 10 L 532 10 L 532 35 L 424 35 Z M 424 10 "/>
</clipPath>
<clipPath id="clip41">
  <path d="M 426 12 L 530 12 L 530 33 L 426 33 Z M 426 12 "/>
</clipPath>
<clipPath id="clip42">
  <path d="M 426 17 C 426 14.238281 428.238281 12 431 12 L 525 12 C 527.761719 12 530 14.238281 530 17 L 530 28 C 530 30.761719 527.761719 33 525 33 L 431 33 C 428.238281 33 426 30.761719 426 28 Z M 426 17 "/>
</clipPath>
<clipPath id="clip43">
  <path d="M 414 0 L 522 0 L 522 25 L 414 25 Z M 414 0 "/>
</clipPath>
<clipPath id="clip44">
  <path d="M 416 2 L 520 2 L 520 23 L 416 23 Z M 416 2 "/>
</clipPath>
<clipPath id="clip45">
  <path d="M 416 7 C 416 4.238281 418.238281 2 421 2 L 515 2 C 517.761719 2 520 4.238281 520 7 L 520 18 C 520 20.761719 517.761719 23 515 23 L 421 23 C 418.238281 23 416 20.761719 416 18 Z M 416 7 "/>
</clipPath>
<clipPath id="clip46">
  <path d="M 424 35 L 532 35 L 532 60 L 424 60 Z M 424 35 "/>
</clipPath>
<clipPath id="clip47">
  <path d="M 426 37 L 530 37 L 530 58 L 426 58 Z M 426 37 "/>
</clipPath>
<clipPath id="clip48">
  <path d="M 426 42 C 426 39.238281 428.238281 37 431 37 L 525 37 C 527.761719 37 530 39.238281 530 42 L 530 53 C 530 55.761719 527.761719 58 525 58 L 431 58 C 428.238281 58 426 55.761719 426 53 Z M 426 42 "/>
</clipPath>
<clipPath id="clip49">
  <path d="M 414 0 L 522 0 L 522 25 L 414 25 Z M 414 0 "/>
</clipPath>
<clipPath id="clip50">
  <path d="M 416 2 L 520 2 L 520 23 L 416 23 Z M 416 2 "/>
</clipPath>
<clipPath id="clip51">
  <path d="M 416 7 C 416 4.238281 418.238281 2 421 2 L 515 2 C 517.761719 2 520 4.238281 520 7 L 520 18 C 520 20.761719 517.761719 23 515 23 L 421 23 C 418.238281 23 416 20.761719 416 18 Z M 416 7 "/>
</clipPath>
<clipPath id="clip52">
  <path d="M 424 60 L 532 60 L 532 85 L 424 85 Z M 424 60 "/>
</clipPath>
<clipPath id="clip53">
  <path d="M 426 62 L 530 62 L 530 83 L 426 83 Z M 426 62 "/>
</clipPath>
<clipPath id="clip54">
  <path d="M 426 67 C 426 64.238281 428.238281 62 431 62 L 525 62 C 527.761719 62 530 64.238281 530 67 L 530 78 C 530 80.761719 527.761719 83 525 83 L 431 83 C 428.238281 83 426 80.761719 426 78 Z M 426 67 "/>
</clipPath>
<clipPath id="clip55">
  <path d="M 414 0 L 484 0 L 484 38 L 414 38 Z M 414 0 "/>
</clipPath>
<clipPath id="clip56">
  <path d="M 416 2 L 482 2 L 482 36 L 416 36 Z M 416 2 "/>
</clipPath>
<clipPath id="clip57">
  <path d="M 416 7 C 416 4.238281 418.238281 2 421 2 L 477 2 C 479.761719 2 482 4.238281 482 7 L 482 31 C 482 33.761719 479.761719 36 477 36 L 421 36 C 418.238281 36 416 33.761719 416 31 Z M 416 7 "/>
</clipPath>
<clipPath id="clip58">
  <path d="M 443 29 L 513 29 L 513 67 L 443 67 Z M 443 29 "/>
</clipPath>
<clipPath id="clip59">
  <path d="M 445 31 L 511 31 L 511 65 L 445 65 Z M 445 31 "/>
</clipPath>
<clipPath id="clip60">
  <path d="M 445 36 C 445 33.238281 447.238281 31 450 31 L 506 31 C 508.761719 31 511 33.238281 511 36 L 511 60 C 511 62.761719 508.761719 65 506 65 L 450 65 C 447.238281 65 445 62.761719 445 60 Z M 445 36 "/>
</clipPath>
</defs>
<g id="surface2">
<path style="fill:none;stroke-width:1.5;stroke-linecap:butt;stroke-linejoin:miter;stroke:rgb(0%,0%,0%);stroke-opacity:0.266667;stroke-dasharray:10,4;stroke-dashoffset:1;stroke-miterlimit:10;" d="M 0.75 0.75 L 127.25 0.75 L 127.25 95.25 L 0.75 95.25 Z M 0.75 0.75 "/>
<path style="fill:none;stroke-width:1.5;stroke-linecap:butt;stroke-linejoin:miter;stroke:rgb(0%,0%,0%);stroke-opacity:0.2;stroke-dasharray:10,4;stroke-dashoffset:1;stroke-miterlimit:10;" d="M 10 10 L 118 10 L 118 86 L 10 86 Z M 10 10 "/>
<path style="fill:none;stroke-width:1.5;stroke-linecap:butt;stroke-linejoin:miter;stroke:rgb(0%,0%,0%);stroke-opacity:0.266667;stroke-dasharray:10,4;stroke-dashoffset:1;stroke-miterlimit:10;" d="M 138.75 0.75 L 265.25 0.75 L 265.25 95.25 L 138.75 95.25 Z M 138.75 0.75 "/>
<path style="fill:none;stroke-width:1.5;stroke-linecap:butt;stroke-linejoin:miter;stroke:rgb(0%,0%,0%);stroke-opacity:0.2;stroke-dasharray:10,4;stroke-dashoffset:1;stroke-miterlimit:10;" d="M 148 10 L 256 10 L 256 86 L 148 86 Z M 148 10 "/>
<path style="fill:none;stroke-width:1.5;stroke-linecap:butt;stroke-linejoin:miter;stroke:rgb(0%,0%,0%);stroke-opacity:0.266667;stroke-dasharray:10,4;stroke-dashoffset:1;stroke-miterlimit:10;" d="M 276.75 0.75 L 403.25 0.75 L 403.25 95.25 L 276.75 95.25 Z M 276.75 0.75 "/>
<path style="fill:none;stroke-width:1.5;stroke-linecap:butt;stroke-linejoin:miter;stroke:rgb(0%,0%,0%);stroke-opacity:0.2;stroke-dasharray:10,4;stroke-dashoffset:1;stroke-miterlimit:10;" d="M 286 10 L 394 10 L 394 86 L 286 86 Z M 286 10 "/>
<path style="fill:none;stroke-width:1.5;stroke-linecap:butt;stroke-linejoin:miter;stroke:rgb(0%,0%,0%);stroke-opacity:0.266667;stroke-dasharray:10,4;stroke-dashoffset:1;stroke-miterlimit:10;" d="M 414.75 0.75 L 541.25 0.75 L 541.25 95.25 L 414.75 95.25 Z M 414.75 0.75 "/>
<path style="fill:none;stroke-width:1.5;stroke-linecap:butt;stroke-linejoin:miter;stroke:rgb(0%,0%,0%);stroke-opacity:0.2;stroke-dasharray:10,4;stroke-dashoffset:1;stroke-miterlimit:10;" d="M 424 10 L 532 10 L 532 86 L 424 86 Z M 424 10 "/>
<g clip-path="url(#clip1)" clip-rule="nonzero">
<path style="fill:none;stroke-width:2;stroke-linecap:butt;stroke-linejoin:miter;stroke:rgb(38.039216%,50.588235%,100%);stroke-opacity:1;stroke-miterlimit:10;" d="M 0 5 C 0 2.238281 2.238281 0 5 0 L 61 0 C 63.761719 0 66 2.238281 66 5 L 66 29 C 66 31.761719 63.761719 34 61 34 L 5 34 C 2.238281 34 0 31.761719 0 29 Z M 0 5 " transform="matrix(1,0,0,1,2,2)"/>
</g>
<path style=" stroke:none;fill-rule:nonzero;fill:rgb(38.039216%,50.588235%,100%);fill-opacity:0.490196;" d="M 2 7 C 2 4.238281 4.238281 2 7 2 L 63 2 C 65.761719 2 68 4.238281 68 7 L 68 31 C 68 33.761719 65.761719 36 63 36 L 7 36 C 4.238281 36 2 33.761719 2 31 Z M 2 7 "/>
<g clip-path="url(#clip2)" clip-rule="nonzero">
<g clip-path="url(#clip3)" clip-rule="nonzero">
<path style="fill:none;stroke-width:2;stroke-linecap:butt;stroke-linejoin:miter;stroke:rgb(38.039216%,50.588235%,100%);stroke-opacity:1;stroke-miterlimit:10;" d="M 0 5 C 0 2.238281 2.238281 0 5 0 L 61 0 C 63.761719 0 66 2.238281 66 5 L 66 29 C 66 31.761719 63.761719 34 61 34 L 5 34 C 2.238281 34 0 31.761719 0 29 Z M 0 5 " transform="matrix(1,0,0,1,2,2)"/>
</g>
</g>
<g clip-path="url(#clip4)" clip-rule="nonzero">
<path style="fill:none;stroke-width:2;stroke-linecap:butt;stroke-linejoin:miter;stroke:rgb(38.039216%,50.588235%,100%);stroke-opacity:1;stroke-miterlimit:10;" d="M 0 5 C 0 2.238281 2.238281 0 5 0 L 61 0 C 63.761719 0 66 2.238281 66 5 L 66 29 C 66 31.761719 63.761719 34 61 34 L 5 34 C 2.238281 34 0 31.761719 0 29 Z M 0 5 " transform="matrix(1,0,0,1,31,31)"/>
</g>
<path style=" stroke:none;fill-rule:nonzero;fill:rgb(38.039216%,50.588235%,100%);fill-opacity:0.490196;" d="M 31 36 C 31 33.238281 33.238281 31 36 31 L 92 31 C 94.761719 31 97 33.238281 97 36 L 97 60 C 97 62.761719 94.761719 65 92 65 L 36 65 C 33.238281 65 31 62.761719 31 60 Z M 31 36 "/>
<g clip-path="url(#clip5)" clip-rule="nonzero">
<g clip-path="url(#clip6)" clip-rule="nonzero">
<path style="fill:none;stroke-width:2;stroke-linecap:butt;stroke-linejoin:miter;stroke:rgb(38.039216%,50.588235%,100%);stroke-opacity:1;stroke-miterlimit:10;" d="M 0 5 C 0 2.238281 2.238281 0 5 0 L 61 0 C 63.761719 0 66 2.238281 66 5 L 66 29 C 66 31.761719 63.761719 34 61 34 L 5 34 C 2.238281 34 0 31.761719 0 29 Z M 0 5 " transform="matrix(1,0,0,1,31,31)"/>
</g>
</g>
<g clip-path="url(#clip7)" clip-rule="nonzero">
<path style="fill:none;stroke-width:2;stroke-linecap:butt;stroke-linejoin:miter;stroke:rgb(38.039216%,50.588235%,100%);stroke-opacity:1;stroke-miterlimit:10;" d="M 0 5 C 0 2.238281 2.238281 0 5 0 L 99 0 C 101.761719 0 104 2.238281 104 5 L 104 67 C 104 69.761719 101.761719 72 99 72 L 5 72 C 2.238281 72 0 69.761719 0 67 Z M 0 5 " transform="matrix(1,0,0,1,140,2)"/>
</g>
<path style=" stroke:none;fill-rule:nonzero;fill:rgb(38.039216%,50.588235%,100%);fill-opacity:0.490196;" d="M 140 7 C 140 4.238281 142.238281 2 145 2 L 239 2 C 241.761719 2 244 4.238281 244 7 L 244 69 C 244 71.761719 241.761719 74 239 74 L 145 74 C 142.238281 74 140 71.761719 140 69 Z M 140 7 "/>
<g clip-path="url(#clip8)" clip-rule="nonzero">
<g clip-path="url(#clip9)" clip-rule="nonzero">
<path style="fill:none;stroke-width:2;stroke-linecap:butt;stroke-linejoin:miter;stroke:rgb(38.039216%,50.588235%,100%);stroke-opacity:1;stroke-miterlimit:10;" d="M 0 5 C 0 2.238281 2.238281 0 5 0 L 99 0 C 101.761719 0 104 2.238281 104 5 L 104 67 C 104 69.761719 101.761719 72 99 72 L 5 72 C 2.238281 72 0 69.761719 0 67 Z M 0 5 " transform="matrix(1,0,0,1,140,2)"/>
</g>
</g>
<g clip-path="url(#clip10)" clip-rule="nonzero">
<path style="fill:none;stroke-width:2;stroke-linecap:butt;stroke-linejoin:miter;stroke:rgb(38.039216%,50.588235%,100%);stroke-opacity:1;stroke-miterlimit:10;" d="M 0 5 C 0 2.238281 2.238281 0 5 0 L 99 0 C 101.761719 0 104 2.238281 104 5 L 104 67 C 104 69.761719 101.761719 72 99 72 L 5 72 C 2.238281 72 0 69.761719 0 67 Z M 0 5 " transform="matrix(1,0,0,1,150,12)"/>
</g>
<path style=" stroke:none;fill-rule:nonzero;fill:rgb(38.039216%,50.588235%,100%);fill-opacity:0.490196;" d="M 150 17 C 150 14.238281 152.238281 12 155 12 L 249 12 C 251.761719 12 254 14.238281 254 17 L 254 79 C 254 81.761719 251.761719 84 249 84 L 155 84 C 152.238281 84 150 81.761719 150 79 Z M 150 17 "/>
<g clip-path="url(#clip11)" clip-rule="nonzero">
<g clip-path="url(#clip12)" clip-rule="nonzero">
<path style="fill:none;stroke-width:2;stroke-linecap:butt;stroke-linejoin:miter;stroke:rgb(38.039216%,50.588235%,100%);stroke-opacity:1;stroke-miterlimit:10;" d="M 0 5 C 0 2.238281 2.238281 0 5 0 L 99 0 C 101.761719 0 104 2.238281 104 5 L 104 67 C 104 69.761719 101.761719 72 99 72 L 5 72 C 2.238281 72 0 69.761719 0 67 Z M 0 5 " transform="matrix(1,0,0,1,150,12)"/>
</g>
</g>
<g clip-path="url(#clip13)" clip-rule="nonzero">
<path style="fill:none;stroke-width:2;stroke-linecap:butt;stroke-linejoin:miter;stroke:rgb(38.039216%,50.588235%,100%);stroke-opacity:1;stroke-miterlimit:10;" d="M 0 5 C 0 2.238281 2.238281 0 5 0 L 61 0 C 63.761719 0 66 2.238281 66 5 L 66 29 C 66 31.761719 63.761719 34 61 34 L 5 34 C 2.238281 34 0 31.761719 0 29 Z M 0 5 " transform="matrix(1,0,0,1,140,2)"/>
</g>
<path style=" stroke:none;fill-rule:nonzero;fill:rgb(38.039216%,50.588235%,100%);fill-opacity:0.490196;" d="M 140 7 C 140 4.238281 142.238281 2 145 2 L 201 2 C 203.761719 2 206 4.238281 206 7 L 206 31 C 206 33.761719 203.761719 36 201 36 L 145 36 C 142.238281 36 140 33.761719 140 31 Z M 140 7 "/>
<g clip-path="url(#clip14)" clip-rule="nonzero">
<g clip-path="url(#clip15)" clip-rule="nonzero">
<path style="fill:none;stroke-width:2;stroke-linecap:butt;stroke-linejoin:miter;stroke:rgb(38.039216%,50.588235%,100%);stroke-opacity:1;stroke-miterlimit:10;" d="M 0 5 C 0 2.238281 2.238281 0 5 0 L 61 0 C 63.761719 0 66 2.238281 66 5 L 66 29 C 66 31.761719 63.761719 34 61 34 L 5 34 C 2.238281 34 0 31.761719 0 29 Z M 0 5 " transform="matrix(1,0,0,1,140,2)"/>
</g>
</g>
<g clip-path="url(#clip16)" clip-rule="nonzero">
<path style="fill:none;stroke-width:2;stroke-linecap:butt;stroke-linejoin:miter;stroke:rgb(38.039216%,50.588235%,100%);stroke-opacity:1;stroke-miterlimit:10;" d="M 0 5 C 0 2.238281 2.238281 0 5 0 L 61 0 C 63.761719 0 66 2.238281 66 5 L 66 29 C 66 31.761719 63.761719 34 61 34 L 5 34 C 2.238281 34 0 31.761719 0 29 Z M 0 5 " transform="matrix(1,0,0,1,169,31)"/>
</g>
<path style=" stroke:none;fill-rule:nonzero;fill:rgb(38.039216%,50.588235%,100%);fill-opacity:0.490196;" d="M 169 36 C 169 33.238281 171.238281 31 174 31 L 230 31 C 232.761719 31 235 33.238281 235 36 L 235 60 C 235 62.761719 232.761719 65 230 65 L 174 65 C 171.238281 65 169 62.761719 169 60 Z M 169 36 "/>
<g clip-path="url(#clip17)" clip-rule="nonzero">
<g clip-path="url(#clip18)" clip-rule="nonzero">
<path style="fill:none;stroke-width:2;stroke-linecap:butt;stroke-linejoin:miter;stroke:rgb(38.039216%,50.588235%,100%);stroke-opacity:1;stroke-miterlimit:10;" d="M 0 5 C 0 2.238281 2.238281 0 5 0 L 61 0 C 63.761719 0 66 2.238281 66 5 L 66 29 C 66 31.761719 63.761719 34 61 34 L 5 34 C 2.238281 34 0 31.761719 0 29 Z M 0 5 " transform="matrix(1,0,0,1,169,31)"/>
</g>
</g>
<g clip-path="url(#clip19)" clip-rule="nonzero">
<path style="fill:none;stroke-width:2;stroke-linecap:butt;stroke-linejoin:miter;stroke:rgb(38.039216%,50.588235%,100%);stroke-opacity:1;stroke-miterlimit:10;" d="M 0 5 C 0 2.238281 2.238281 0 5 0 L 99 0 C 101.761719 0 104 2.238281 104 5 L 104 29 C 104 31.761719 101.761719 34 99 34 L 5 34 C 2.238281 34 0 31.761719 0 29 Z M 0 5 " transform="matrix(1,0,0,1,278,2)"/>
</g>
<path style=" stroke:none;fill-rule:nonzero;fill:rgb(38.039216%,50.588235%,100%);fill-opacity:0.490196;" d="M 278 7 C 278 4.238281 280.238281 2 283 2 L 377 2 C 379.761719 2 382 4.238281 382 7 L 382 31 C 382 33.761719 379.761719 36 377 36 L 283 36 C 280.238281 36 278 33.761719 278 31 Z M 278 7 "/>
<g clip-path="url(#clip20)" clip-rule="nonzero">
<g clip-path="url(#clip21)" clip-rule="nonzero">
<path style="fill:none;stroke-width:2;stroke-linecap:butt;stroke-linejoin:miter;stroke:rgb(38.039216%,50.588235%,100%);stroke-opacity:1;stroke-miterlimit:10;" d="M 0 5 C 0 2.238281 2.238281 0 5 0 L 99 0 C 101.761719 0 104 2.238281 104 5 L 104 29 C 104 31.761719 101.761719 34 99 34 L 5 34 C 2.238281 34 0 31.761719 0 29 Z M 0 5 " transform="matrix(1,0,0,1,278,2)"/>
</g>
</g>
<g clip-path="url(#clip22)" clip-rule="nonzero">
<path style="fill:none;stroke-width:2;stroke-linecap:butt;stroke-linejoin:miter;stroke:rgb(38.039216%,50.588235%,100%);stroke-opacity:1;stroke-miterlimit:10;" d="M 0 5 C 0 2.238281 2.238281 0 5 0 L 99 0 C 101.761719 0 104 2.238281 104 5 L 104 29 C 104 31.761719 101.761719 34 99 34 L 5 34 C 2.238281 34 0 31.761719 0 29 Z M 0 5 " transform="matrix(1,0,0,1,288,12)"/>
</g>
<path style=" stroke:none;fill-rule:nonzero;fill:rgb(38.039216%,50.588235%,100%);fill-opacity:0.490196;" d="M 288 17 C 288 14.238281 290.238281 12 293 12 L 387 12 C 389.761719 12 392 14.238281 392 17 L 392 41 C 392 43.761719 389.761719 46 387 46 L 293 46 C 290.238281 46 288 43.761719 288 41 Z M 288 17 "/>
<g clip-path="url(#clip23)" clip-rule="nonzero">
<g clip-path="url(#clip24)" clip-rule="nonzero">
<path style="fill:none;stroke-width:2;stroke-linecap:butt;stroke-linejoin:miter;stroke:rgb(38.039216%,50.588235%,100%);stroke-opacity:1;stroke-miterlimit:10;" d="M 0 5 C 0 2.238281 2.238281 0 5 0 L 99 0 C 101.761719 0 104 2.238281 104 5 L 104 29 C 104 31.761719 101.761719 34 99 34 L 5 34 C 2.238281 34 0 31.761719 0 29 Z M 0 5 " transform="matrix(1,0,0,1,288,12)"/>
</g>
</g>
<g clip-path="url(#clip25)" clip-rule="nonzero">
<path style="fill:none;stroke-width:2;stroke-linecap:butt;stroke-linejoin:miter;stroke:rgb(38.039216%,50.588235%,100%);stroke-opacity:1;stroke-miterlimit:10;" d="M 0 5 C 0 2.238281 2.238281 0 5 0 L 99 0 C 101.761719 0 104 2.238281 104 5 L 104 29 C 104 31.761719 101.761719 34 99 34 L 5 34 C 2.238281 34 0 31.761719 0 29 Z M 0 5 " transform="matrix(1,0,0,1,278,2)"/>
</g>
<path style=" stroke:none;fill-rule:nonzero;fill:rgb(38.039216%,50.588235%,100%);fill-opacity:0.490196;" d="M 278 7 C 278 4.238281 280.238281 2 283 2 L 377 2 C 379.761719 2 382 4.238281 382 7 L 382 31 C 382 33.761719 379.761719 36 377 36 L 283 36 C 280.238281 36 278 33.761719 278 31 Z M 278 7 "/>
<g clip-path="url(#clip26)" clip-rule="nonzero">
<g clip-path="url(#clip27)" clip-rule="nonzero">
<path style="fill:none;stroke-width:2;stroke-linecap:butt;stroke-linejoin:miter;stroke:rgb(38.039216%,50.588235%,100%);stroke-opacity:1;stroke-miterlimit:10;" d="M 0 5 C 0 2.238281 2.238281 0 5 0 L 99 0 C 101.761719 0 104 2.238281 104 5 L 104 29 C 104 31.761719 101.761719 34 99 34 L 5 34 C 2.238281 34 0 31.761719 0 29 Z M 0 5 " transform="matrix(1,0,0,1,278,2)"/>
</g>
</g>
<g clip-path="url(#clip28)" clip-rule="nonzero">
<path style="fill:none;stroke-width:2;stroke-linecap:butt;stroke-linejoin:miter;stroke:rgb(38.039216%,50.588235%,100%);stroke-opacity:1;stroke-miterlimit:10;" d="M 0 5 C 0 2.238281 2.238281 0 5 0 L 99 0 C 101.761719 0 104 2.238281 104 5 L 104 29 C 104 31.761719 101.761719 34 99 34 L 5 34 C 2.238281 34 0 31.761719 0 29 Z M 0 5 " transform="matrix(1,0,0,1,288,50)"/>
</g>
<path style=" stroke:none;fill-rule:nonzero;fill:rgb(38.039216%,50.588235%,100%);fill-opacity:0.490196;" d="M 288 55 C 288 52.238281 290.238281 50 293 50 L 387 50 C 389.761719 50 392 52.238281 392 55 L 392 79 C 392 81.761719 389.761719 84 387 84 L 293 84 C 290.238281 84 288 81.761719 288 79 Z M 288 55 "/>
<g clip-path="url(#clip29)" clip-rule="nonzero">
<g clip-path="url(#clip30)" clip-rule="nonzero">
<path style="fill:none;stroke-width:2;stroke-linecap:butt;stroke-linejoin:miter;stroke:rgb(38.039216%,50.588235%,100%);stroke-opacity:1;stroke-miterlimit:10;" d="M 0 5 C 0 2.238281 2.238281 0 5 0 L 99 0 C 101.761719 0 104 2.238281 104 5 L 104 29 C 104 31.761719 101.761719 34 99 34 L 5 34 C 2.238281 34 0 31.761719 0 29 Z M 0 5 " transform="matrix(1,0,0,1,288,50)"/>
</g>
</g>
<g clip-path="url(#clip31)" clip-rule="nonzero">
<path style="fill:none;stroke-width:2;stroke-linecap:butt;stroke-linejoin:miter;stroke:rgb(38.039216%,50.588235%,100%);stroke-opacity:1;stroke-miterlimit:10;" d="M 0 5 C 0 2.238281 2.238281 0 5 0 L 61 0 C 63.761719 0 66 2.238281 66 5 L 66 29 C 66 31.761719 63.761719 34 61 34 L 5 34 C 2.238281 34 0 31.761719 0 29 Z M 0 5 " transform="matrix(1,0,0,1,278,2)"/>
</g>
<path style=" stroke:none;fill-rule:nonzero;fill:rgb(38.039216%,50.588235%,100%);fill-opacity:0.490196;" d="M 278 7 C 278 4.238281 280.238281 2 283 2 L 339 2 C 341.761719 2 344 4.238281 344 7 L 344 31 C 344 33.761719 341.761719 36 339 36 L 283 36 C 280.238281 36 278 33.761719 278 31 Z M 278 7 "/>
<g clip-path="url(#clip32)" clip-rule="nonzero">
<g clip-path="url(#clip33)" clip-rule="nonzero">
<path style="fill:none;stroke-width:2;stroke-linecap:butt;stroke-linejoin:miter;stroke:rgb(38.039216%,50.588235%,100%);stroke-opacity:1;stroke-miterlimit:10;" d="M 0 5 C 0 2.238281 2.238281 0 5 0 L 61 0 C 63.761719 0 66 2.238281 66 5 L 66 29 C 66 31.761719 63.761719 34 61 34 L 5 34 C 2.238281 34 0 31.761719 0 29 Z M 0 5 " transform="matrix(1,0,0,1,278,2)"/>
</g>
</g>
<g clip-path="url(#clip34)" clip-rule="nonzero">
<path style="fill:none;stroke-width:2;stroke-linecap:butt;stroke-linejoin:miter;stroke:rgb(38.039216%,50.588235%,100%);stroke-opacity:1;stroke-miterlimit:10;" d="M 0 5 C 0 2.238281 2.238281 0 5 0 L 61 0 C 63.761719 0 66 2.238281 66 5 L 66 29 C 66 31.761719 63.761719 34 61 34 L 5 34 C 2.238281 34 0 31.761719 0 29 Z M 0 5 " transform="matrix(1,0,0,1,307,31)"/>
</g>
<path style=" stroke:none;fill-rule:nonzero;fill:rgb(38.039216%,50.588235%,100%);fill-opacity:0.490196;" d="M 307 36 C 307 33.238281 309.238281 31 312 31 L 368 31 C 370.761719 31 373 33.238281 373 36 L 373 60 C 373 62.761719 370.761719 65 368 65 L 312 65 C 309.238281 65 307 62.761719 307 60 Z M 307 36 "/>
<g clip-path="url(#clip35)" clip-rule="nonzero">
<g clip-path="url(#clip36)" clip-rule="nonzero">
<path style="fill:none;stroke-width:2;stroke-linecap:butt;stroke-linejoin:miter;stroke:rgb(38.039216%,50.588235%,100%);stroke-opacity:1;stroke-miterlimit:10;" d="M 0 5 C 0 2.238281 2.238281 0 5 0 L 61 0 C 63.761719 0 66 2.238281 66 5 L 66 29 C 66 31.761719 63.761719 34 61 34 L 5 34 C 2.238281 34 0 31.761719 0 29 Z M 0 5 " transform="matrix(1,0,0,1,307,31)"/>
</g>
</g>
<g clip-path="url(#clip37)" clip-rule="nonzero">
<path style="fill:none;stroke-width:2;stroke-linecap:butt;stroke-linejoin:miter;stroke:rgb(38.039216%,50.588235%,100%);stroke-opacity:1;stroke-miterlimit:10;" d="M 0 5 C 0 2.238281 2.238281 0 5 0 L 99 0 C 101.761719 0 104 2.238281 104 5 L 104 16 C 104 18.761719 101.761719 21 99 21 L 5 21 C 2.238281 21 0 18.761719 0 16 Z M 0 5 " transform="matrix(1,0,0,1,416,2)"/>
</g>
<path style=" stroke:none;fill-rule:nonzero;fill:rgb(38.039216%,50.588235%,100%);fill-opacity:0.490196;" d="M 416 7 C 416 4.238281 418.238281 2 421 2 L 515 2 C 517.761719 2 520 4.238281 520 7 L 520 18 C 520 20.761719 517.761719 23 515 23 L 421 23 C 418.238281 23 416 20.761719 416 18 Z M 416 7 "/>
<g clip-path="url(#clip38)" clip-rule="nonzero">
<g clip-path="url(#clip39)" clip-rule="nonzero">
<path style="fill:none;stroke-width:2;stroke-linecap:butt;stroke-linejoin:miter;stroke:rgb(38.039216%,50.588235%,100%);stroke-opacity:1;stroke-miterlimit:10;" d="M 0 5 C 0 2.238281 2.238281 0 5 0 L 99 0 C 101.761719 0 104 2.238281 104 5 L 104 16 C 104 18.761719 101.761719 21 99 21 L 5 21 C 2.238281 21 0 18.761719 0 16 Z M 0 5 " transform="matrix(1,0,0,1,416,2)"/>
</g>
</g>
<g clip-path="url(#clip40)" clip-rule="nonzero">
<path style="fill:none;stroke-width:2;stroke-linecap:butt;stroke-linejoin:miter;stroke:rgb(38.039216%,50.588235%,100%);stroke-opacity:1;stroke-miterlimit:10;" d="M 0 5 C 0 2.238281 2.238281 0 5 0 L 99 0 C 101.761719 0 104 2.238281 104 5 L 104 16 C 104 18.761719 101.761719 21 99 21 L 5 21 C 2.238281 21 0 18.761719 0 16 Z M 0 5 " transform="matrix(1,0,0,1,426,12)"/>
</g>
<path style=" stroke:none;fill-rule:nonzero;fill:rgb(38.039216%,50.588235%,100%);fill-opacity:0.490196;" d="M 426 17 C 426 14.238281 428.238281 12 431 12 L 525 12 C 527.761719 12 530 14.238281 530 17 L 530 28 C 530 30.761719 527.761719 33 525 33 L 431 33 C 428.238281 33 426 30.761719 426 28 Z M 426 17 "/>
<g clip-path="url(#clip41)" clip-rule="nonzero">
<g clip-path="url(#clip42)" clip-rule="nonzero">
<path style="fill:none;stroke-width:2;stroke-linecap:butt;stroke-linejoin:miter;stroke:rgb(38.039216%,50.588235%,100%);stroke-opacity:1;stroke-miterlimit:10;" d="M 0 5 C 0 2.238281 2.238281 0 5 0 L 99 0 C 101.761719 0 104 2.238281 104 5 L 104 16 C 104 18.761719 101.761719 21 99 21 L 5 21 C 2.238281 21 0 18.761719 0 16 Z M 0 5 " transform="matrix(1,0,0,1,426,12)"/>
</g>
</g>
<g clip-path="url(#clip43)" clip-rule="nonzero">
<path style="fill:none;stroke-width:2;stroke-linecap:butt;stroke-linejoin:miter;stroke:rgb(38.039216%,50.588235%,100%);stroke-opacity:1;stroke-miterlimit:10;" d="M 0 5 C 0 2.238281 2.238281 0 5 0 L 99 0 C 101.761719 0 104 2.238281 104 5 L 104 16 C 104 18.761719 101.761719 21 99 21 L 5 21 C 2.238281 21 0 18.761719 0 16 Z M 0 5 " transform="matrix(1,0,0,1,416,2)"/>
</g>
<path style=" stroke:none;fill-rule:nonzero;fill:rgb(38.039216%,50.588235%,100%);fill-opacity:0.490196;" d="M 416 7 C 416 4.238281 418.238281 2 421 2 L 515 2 C 517.761719 2 520 4.238281 520 7 L 520 18 C 520 20.761719 517.761719 23 515 23 L 421 23 C 418.238281 23 416 20.761719 416 18 Z M 416 7 "/>
<g clip-path="url(#clip44)" clip-rule="nonzero">
<g clip-path="url(#clip45)" clip-rule="nonzero">
<path style="fill:none;stroke-width:2;stroke-linecap:butt;stroke-linejoin:miter;stroke:rgb(38.039216%,50.588235%,100%);stroke-opacity:1;stroke-miterlimit:10;" d="M 0 5 C 0 2.238281 2.238281 0 5 0 L 99 0 C 101.761719 0 104 2.238281 104 5 L 104 16 C 104 18.761719 101.761719 21 99 21 L 5 21 C 2.238281 21 0 18.761719 0 16 Z M 0 5 " transform="matrix(1,0,0,1,416,2)"/>
</g>
</g>
<g clip-path="url(#clip46)" clip-rule="nonzero">
<path style="fill:none;stroke-width:2;stroke-linecap:butt;stroke-linejoin:miter;stroke:rgb(38.039216%,50.588235%,100%);stroke-opacity:1;stroke-miterlimit:10;" d="M 0 5 C 0 2.238281 2.238281 0 5 0 L 99 0 C 101.761719 0 104 2.238281 104 5 L 104 16 C 104 18.761719 101.761719 21 99 21 L 5 21 C 2.238281 21 0 18.761719 0 16 Z M 0 5 " transform="matrix(1,0,0,1,426,37)"/>
</g>
<path style=" stroke:none;fill-rule:nonzero;fill:rgb(38.039216%,50.588235%,100%);fill-opacity:0.490196;" d="M 426 42 C 426 39.238281 428.238281 37 431 37 L 525 37 C 527.761719 37 530 39.238281 530 42 L 530 53 C 530 55.761719 527.761719 58 525 58 L 431 58 C 428.238281 58 426 55.761719 426 53 Z M 426 42 "/>
<g clip-path="url(#clip47)" clip-rule="nonzero">
<g clip-path="url(#clip48)" clip-rule="nonzero">
<path style="fill:none;stroke-width:2;stroke-linecap:butt;stroke-linejoin:miter;stroke:rgb(38.039216%,50.588235%,100%);stroke-opacity:1;stroke-miterlimit:10;" d="M 0 5 C 0 2.238281 2.238281 0 5 0 L 99 0 C 101.761719 0 104 2.238281 104 5 L 104 16 C 104 18.761719 101.761719 21 99 21 L 5 21 C 2.238281 21 0 18.761719 0 16 Z M 0 5 " transform="matrix(1,0,0,1,426,37)"/>
</g>
</g>
<g clip-path="url(#clip49)" clip-rule="nonzero">
<path style="fill:none;stroke-width:2;stroke-linecap:butt;stroke-linejoin:miter;stroke:rgb(38.039216%,50.588235%,100%);stroke-opacity:1;stroke-miterlimit:10;" d="M 0 5 C 0 2.238281 2.238281 0 5 0 L 99 0 C 101.761719 0 104 2.238281 104 5 L 104 16 C 104 18.761719 101.761719 21 99 21 L 5 21 C 2.238281 21 0 18.761719 0 16 Z M 0 5 " transform="matrix(1,0,0,1,416,2)"/>
</g>
<path style=" stroke:none;fill-rule:nonzero;fill:rgb(38.039216%,50.588235%,100%);fill-opacity:0.490196;" d="M 416 7 C 416 4.238281 418.238281 2 421 2 L 515 2 C 517.761719 2 520 4.238281 520 7 L 520 18 C 520 20.761719 517.761719 23 515 23 L 421 23 C 418.238281 23 416 20.761719 416 18 Z M 416 7 "/>
<g clip-path="url(#clip50)" clip-rule="nonzero">
<g clip-path="url(#clip51)" clip-rule="nonzero">
<path style="fill:none;stroke-width:2;stroke-linecap:butt;stroke-linejoin:miter;stroke:rgb(38.039216%,50.588235%,100%);stroke-opacity:1;stroke-miterlimit:10;" d="M 0 5 C 0 2.238281 2.238281 0 5 0 L 99 0 C 101.761719 0 104 2.238281 104 5 L 104 16 C 104 18.761719 101.761719 21 99 21 L 5 21 C 2.238281 21 0 18.761719 0 16 Z M 0 5 " transform="matrix(1,0,0,1,416,2)"/>
</g>
</g>
<g clip-path="url(#clip52)" clip-rule="nonzero">
<path style="fill:none;stroke-width:2;stroke-linecap:butt;stroke-linejoin:miter;stroke:rgb(38.039216%,50.588235%,100%);stroke-opacity:1;stroke-miterlimit:10;" d="M 0 5 C 0 2.238281 2.238281 0 5 0 L 99 0 C 101.761719 0 104 2.238281 104 5 L 104 16 C 104 18.761719 101.761719 21 99 21 L 5 21 C 2.238281 21 0 18.761719 0 16 Z M 0 5 " transform="matrix(1,0,0,1,426,62)"/>
</g>
<path style=" stroke:none;fill-rule:nonzero;fill:rgb(38.039216%,50.588235%,100%);fill-opacity:0.490196;" d="M 426 67 C 426 64.238281 428.238281 62 431 62 L 525 62 C 527.761719 62 530 64.238281 530 67 L 530 78 C 530 80.761719 527.761719 83 525 83 L 431 83 C 428.238281 83 426 80.761719 426 78 Z M 426 67 "/>
<g clip-path="url(#clip53)" clip-rule="nonzero">
<g clip-path="url(#clip54)" clip-rule="nonzero">
<path style="fill:none;stroke-width:2;stroke-linecap:butt;stroke-linejoin:miter;stroke:rgb(38.039216%,50.588235%,100%);stroke-opacity:1;stroke-miterlimit:10;" d="M 0 5 C 0 2.238281 2.238281 0 5 0 L 99 0 C 101.761719 0 104 2.238281 104 5 L 104 16 C 104 18.761719 101.761719 21 99 21 L 5 21 C 2.238281 21 0 18.761719 0 16 Z M 0 5 " transform="matrix(1,0,0,1,426,62)"/>
</g>
</g>
<g clip-path="url(#clip55)" clip-rule="nonzero">
<path style="fill:none;stroke-width:2;stroke-linecap:butt;stroke-linejoin:miter;stroke:rgb(38.039216%,50.588235%,100%);stroke-opacity:1;stroke-miterlimit:10;" d="M 0 5 C 0 2.238281 2.238281 0 5 0 L 61 0 C 63.761719 0 66 2.238281 66 5 L 66 29 C 66 31.761719 63.761719 34 61 34 L 5 34 C 2.238281 34 0 31.761719 0 29 Z M 0 5 " transform="matrix(1,0,0,1,416,2)"/>
</g>
<path style=" stroke:none;fill-rule:nonzero;fill:rgb(38.039216%,50.588235%,100%);fill-opacity:0.490196;" d="M 416 7 C 416 4.238281 418.238281 2 421 2 L 477 2 C 479.761719 2 482 4.238281 482 7 L 482 31 C 482 33.761719 479.761719 36 477 36 L 421 36 C 418.238281 36 416 33.761719 416 31 Z M 416 7 "/>
<g clip-path="url(#clip56)" clip-rule="nonzero">
<g clip-path="url(#clip57)" clip-rule="nonzero">
<path style="fill:none;stroke-width:2;stroke-linecap:butt;stroke-linejoin:miter;stroke:rgb(38.039216%,50.588235%,100%);stroke-opacity:1;stroke-miterlimit:10;" d="M 0 5 C 0 2.238281 2.238281 0 5 0 L 61 0 C 63.761719 0 66 2.238281 66 5 L 66 29 C 66 31.761719 63.761719 34 61 34 L 5 34 C 2.238281 34 0 31.761719 0 29 Z M 0 5 " transform="matrix(1,0,0,1,416,2)"/>
</g>
</g>
<g clip-path="url(#clip58)" clip-rule="nonzero">
<path style="fill:none;stroke-width:2;stroke-linecap:butt;stroke-linejoin:miter;stroke:rgb(38.039216%,50.588235%,100%);stroke-opacity:1;stroke-miterlimit:10;" d="M 0 5 C 0 2.238281 2.238281 0 5 0 L 61 0 C 63.761719 0 66 2.238281 66 5 L 66 29 C 66 31.761719 63.761719 34 61 34 L 5 34 C 2.238281 34 0 31.761719 0 29 Z M 0 5 " transform="matrix(1,0,0,1,445,31)"/>
</g>
<path style=" stroke:none;fill-rule:nonzero;fill:rgb(38.039216%,50.588235%,100%);fill-opacity:0.490196;" d="M 445 36 C 445 33.238281 447.238281 31 450 31 L 506 31 C 508.761719 31 511 33.238281 511 36 L 511 60 C 511 62.761719 508.761719 65 506 65 L 450 65 C 447.238281 65 445 62.761719 445 60 Z M 445 36 "/>
<g clip-path="url(#clip59)" clip-rule="nonzero">
<g clip-path="url(#clip60)" clip-rule="nonzero">
<path style="fill:none;stroke-width:2;stroke-linecap:butt;stroke-linejoin:miter;stroke:rgb(38.039216%,50.588235%,100%);stroke-opacity:1;stroke-miterlimit:10;" d="M 0 5 C 0 2.238281 2.238281 0 5 0 L 61 0 C 63.761719 0 66 2.238281 66 5 L 66 29 C 66 31.761719 63.761719 34 61 34 L 5 34 C 2.238281 34 0 31.761719 0 29 Z M 0 5 " transform="matrix(1,0,0,1,445,31)"/>
</g>
</g>
</g>
</svg>
