<?xml version="1.0" encoding="UTF-8"?>
<svg xmlns="http://www.w3.org/2000/svg" xmlns:xlink="http://www.w3.org/1999/xlink" width="320pt" height="240pt" viewBox="0 0 320 240" version="1.1">
<defs>
<clipPath id="clip1">
  <path d="M 0 0 L 74 0 L 74 74 L 0 74 Z M 0 0 "/>
</clipPath>
<clipPath id="clip2">
  <path d="M 0 0 L 73 0 L 73 73 L 0 73 Z M 0 0 "/>
</clipPath>
<clipPath id="clip3">
  <path d="M -29 -24 C -29 -26.761719 -26.761719 -29 -24 -29 L 68 -29 C 70.761719 -29 73 -26.761719 73 -24 L 73 68 C 73 70.761719 70.761719 73 68 73 L -24 73 C -26.761719 73 -29 70.761719 -29 68 Z M -29 -24 "/>
</clipPath>
<clipPath id="clip4">
  <path d="M 0 0 L 104 0 L 104 104 L 0 104 Z M 0 0 "/>
</clipPath>
<clipPath id="clip5">
  <path d="M 1 1 L 103 1 L 103 103 L 1 103 Z M 1 1 "/>
</clipPath>
<clipPath id="clip6">
  <path d="M 1 6 C 1 3.238281 3.238281 1 6 1 L 98 1 C 100.761719 1 103 3.238281 103 6 L 103 98 C 103 100.761719 100.761719 103 98 103 L 6 103 C 3.238281 103 1 100.761719 1 98 Z M 1 6 "/>
</clipPath>
<clipPath id="clip7">
  <path d="M 50 50 L 154 50 L 154 154 L 50 154 Z M 50 50 "/>
</clipPath>
<clipPath id="clip8">
  <path d="M 51 51 L 153 51 L 153 153 L 51 153 Z M 51 51 "/>
</clipPath>
<clipPath id="clip9">
  <path d="M 51 56 C 51 53.238281 53.238281 51 56 51 L 148 51 C 150.761719 51 153 53.238281 153 56 L 153 148 C 153 150.761719 150.761719 153 148 153 L 56 153 C 53.238281 153 51 150.761719 51 148 Z M 51 56 "/>
</clipPath>
</defs>
<g id="surface2">
<path style="fill:none;stroke-width:1.5;stroke-linecap:butt;stroke-linejoin:miter;stroke:rgb(0%,0%,0%);stroke-opacity:0.266667;stroke-dasharray:10,4;stroke-dashoffset:1;stroke-miterlimit:10;" d="M 0.75 0.75 L 319.25 0.75 L 319.25 239.25 L 0.75 239.25 Z M 0.75 0.75 "/>
<path style="fill:none;stroke-width:1.5;stroke-linecap:butt;stroke-linejoin:miter;stroke:rgb(0%,0%,0%);stroke-opacity:0.2;stroke-dasharray:10,4;stroke-dashoffset:1;stroke-miterlimit:10;" d="M 10 10 L 310 10 L 310 230 L 10 230 Z M 10 10 "/>
<path style="fill:none;stroke-width:1.5;stroke-linecap:butt;stroke-linejoin:miter;stroke:rgb(0%,0%,0%);stroke-opacity:0.1;stroke-miterlimit:10;" d="M -30 -30 L 0 0 "/>
<path style="fill:none;stroke-width:1.5;stroke-linecap:butt;stroke-linejoin:miter;stroke:rgb(0%,0%,0%);stroke-opacity:0.1;stroke-miterlimit:10;" d="M 70 -30 L 100 0 M -30 70 L 0 100 "/>
<path style="fill:none;stroke-width:1.5;stroke-linecap:butt;stroke-linejoin:miter;stroke:rgb(0%,0%,0%);stroke-opacity:0.1;stroke-miterlimit:10;" d="M 70 70 L 100 100 "/>
<path style="fill:none;stroke-width:1.5;stroke-linecap:butt;stroke-linejoin:miter;stroke:rgb(0%,0%,0%);stroke-opacity:0.1;stroke-miterlimit:10;" d="M 0 0 L 50 50 "/>
<path style="fill:none;stroke-width:1.5;stroke-linecap:butt;stroke-linejoin:miter;stroke:rgb(0%,0%,0%);stroke-opacity:0.1;stroke-miterlimit:10;" d="M 100 0 L 150 50 M 0 100 L 50 150 "/>
<path style="fill:none;stroke-width:1.5;stroke-linecap:butt;stroke-linejoin:miter;stroke:rgb(0%,0%,0%);stroke-opacity:0.1;stroke-miterlimit:10;" d="M 100 100 L 150 150 "/>
<g clip-path="url(#clip1)" clip-rule="nonzero">
<path style="fill:none;stroke-width:1;stroke-linecap:butt;stroke-linejoin:miter;stroke:rgb(38.039216%,50.588235%,100%);stroke-opacity:1;stroke-miterlimit:10;" d="M 0 5 C 0 2.238281 2.238281 0 5 0 L 97 0 C 99.761719 0 102 2.238281 102 5 L 102 97 C 102 99.761719 99.761719 102 97 102 L 5 102 C 2.238281 102 0 99.761719 0 97 Z M 0 5 " transform="matrix(1,0,0,1,-29,-29)"/>
</g>
<path style=" stroke:none;fill-rule:nonzero;fill:rgb(38.039216%,50.588235%,100%);fill-opacity:0.490196;" d="M -29 -24 C -29 -26.761719 -26.761719 -29 -24 -29 L 68 -29 C 70.761719 -29 73 -26.761719 73 -24 L 73 68 C 73 70.761719 70.761719 73 68 73 L -24 73 C -26.761719 73 -29 70.761719 -29 68 Z M -29 -24 "/>
<g clip-path="url(#clip2)" clip-rule="nonzero">
<g clip-path="url(#clip3)" clip-rule="nonzero">
<path style="fill:none;stroke-width:1;stroke-linecap:butt;stroke-linejoin:miter;stroke:rgb(38.039216%,50.588235%,100%);stroke-opacity:1;stroke-miterlimit:10;" d="M 0 5 C 0 2.238281 2.238281 0 5 0 L 97 0 C 99.761719 0 102 2.238281 102 5 L 102 97 C 102 99.761719 99.761719 102 97 102 L 5 102 C 2.238281 102 0 99.761719 0 97 Z M 0 5 " transform="matrix(1,0,0,1,-29,-29)"/>
</g>
</g>
<g clip-path="url(#clip4)" clip-rule="nonzero">
<path style="fill:none;stroke-width:1;stroke-linecap:butt;stroke-linejoin:miter;stroke:rgb(38.039216%,50.588235%,100%);stroke-opacity:1;stroke-miterlimit:10;" d="M 0 5 C 0 2.238281 2.238281 0 5 0 L 97 0 C 99.761719 0 102 2.238281 102 5 L 102 97 C 102 99.761719 99.761719 102 97 102 L 5 102 C 2.238281 102 0 99.761719 0 97 Z M 0 5 " transform="matrix(1,0,0,1,1,1)"/>
</g>
<path style=" stroke:none;fill-rule:nonzero;fill:rgb(38.039216%,50.588235%,100%);fill-opacity:0.490196;" d="M 1 6 C 1 3.238281 3.238281 1 6 1 L 98 1 C 100.761719 1 103 3.238281 103 6 L 103 98 C 103 100.761719 100.761719 103 98 103 L 6 103 C 3.238281 103 1 100.761719 1 98 Z M 1 6 "/>
<g clip-path="url(#clip5)" clip-rule="nonzero">
<g clip-path="url(#clip6)" clip-rule="nonzero">
<path style="fill:none;stroke-width:1;stroke-linecap:butt;stroke-linejoin:miter;stroke:rgb(38.039216%,50.588235%,100%);stroke-opacity:1;stroke-miterlimit:10;" d="M 0 5 C 0 2.238281 2.238281 0 5 0 L 97 0 C 99.761719 0 102 2.238281 102 5 L 102 97 C 102 99.761719 99.761719 102 97 102 L 5 102 C 2.238281 102 0 99.761719 0 97 Z M 0 5 " transform="matrix(1,0,0,1,1,1)"/>
</g>
</g>
<g clip-path="url(#clip7)" clip-rule="nonzero">
<path style="fill:none;stroke-width:1;stroke-linecap:butt;stroke-linejoin:miter;stroke:rgb(38.039216%,50.588235%,100%);stroke-opacity:1;stroke-miterlimit:10;" d="M 0 5 C 0 2.238281 2.238281 0 5 0 L 97 0 C 99.761719 0 102 2.238281 102 5 L 102 97 C 102 99.761719 99.761719 102 97 102 L 5 102 C 2.238281 102 0 99.761719 0 97 Z M 0 5 " transform="matrix(1,0,0,1,51,51)"/>
</g>
<path style=" stroke:none;fill-rule:nonzero;fill:rgb(38.039216%,50.588235%,100%);fill-opacity:0.490196;" d="M 51 56 C 51 53.238281 53.238281 51 56 51 L 148 51 C 150.761719 51 153 53.238281 153 56 L 153 148 C 153 150.761719 150.761719 153 148 153 L 56 153 C 53.238281 153 51 150.761719 51 148 Z M 51 56 "/>
<g clip-path="url(#clip8)" clip-rule="nonzero">
<g clip-path="url(#clip9)" clip-rule="nonzero">
<path style="fill:none;stroke-width:1;stroke-linecap:butt;stroke-linejoin:miter;stroke:rgb(38.039216%,50.588235%,100%);stroke-opacity:1;stroke-miterlimit:10;" d="M 0 5 C 0 2.238281 2.238281 0 5 0 L 97 0 C 99.761719 0 102 2.238281 102 5 L 102 97 C 102 99.761719 99.761719 102 97 102 L 5 102 C 2.238281 102 0 99.761719 0 97 Z M 0 5 " transform="matrix(1,0,0,1,51,51)"/>
</g>
</g>
</g>
</svg>
