<?xml version="1.0" encoding="UTF-8"?>
<svg xmlns="http://www.w3.org/2000/svg" xmlns:xlink="http://www.w3.org/1999/xlink" width="268pt" height="206pt" viewBox="0 0 268 206" version="1.1">
<defs>
<clipPath id="clip1">
  <path d="M 20 20 L 99 20 L 99 96 L 20 96 Z M 20 20 "/>
</clipPath>
<clipPath id="clip2">
  <path d="M 21 21 L 98 21 L 98 95 L 21 95 Z M 21 21 "/>
</clipPath>
<clipPath id="clip3">
  <path d="M 21 26 C 21 23.238281 23.238281 21 26 21 L 93 21 C 95.761719 21 98 23.238281 98 26 L 98 90 C 98 92.761719 95.761719 95 93 95 L 26 95 C 23.238281 95 21 92.761719 21 90 Z M 21 26 "/>
</clipPath>
<clipPath id="clip4">
  <path d="M 20 0 L 99 0 L 99 76 L 20 76 Z M 20 0 "/>
</clipPath>
<clipPath id="clip5">
  <path d="M 21 1 L 98 1 L 98 75 L 21 75 Z M 21 1 "/>
</clipPath>
<clipPath id="clip6">
  <path d="M 21 6 C 21 3.238281 23.238281 1 26 1 L 93 1 C 95.761719 1 98 3.238281 98 6 L 98 70 C 98 72.761719 95.761719 75 93 75 L 26 75 C 23.238281 75 21 72.761719 21 70 Z M 21 6 "/>
</clipPath>
<clipPath id="clip7">
  <path d="M 160 20 L 239 20 L 239 98 L 160 98 Z M 160 20 "/>
</clipPath>
<clipPath id="clip8">
  <path d="M 161 21 L 238 21 L 238 97 L 161 97 Z M 161 21 "/>
</clipPath>
<clipPath id="clip9">
  <path d="M 161 26 C 161 23.238281 163.238281 21 166 21 L 233 21 C 235.761719 21 238 23.238281 238 26 L 238 92 C 238 94.761719 235.761719 97 233 97 L 166 97 C 163.238281 97 161 94.761719 161 92 Z M 161 26 "/>
</clipPath>
<clipPath id="clip10">
  <path d="M 160 20 L 239 20 L 239 98 L 160 98 Z M 160 20 "/>
</clipPath>
<clipPath id="clip11">
  <path d="M 161 21 L 238 21 L 238 97 L 161 97 Z M 161 21 "/>
</clipPath>
<clipPath id="clip12">
  <path d="M 161 26 C 161 23.238281 163.238281 21 166 21 L 233 21 C 235.761719 21 238 23.238281 238 26 L 238 92 C 238 94.761719 235.761719 97 233 97 L 166 97 C 163.238281 97 161 94.761719 161 92 Z M 161 26 "/>
</clipPath>
<clipPath id="clip13">
  <path d="M 20 130 L 121 130 L 121 184 L 20 184 Z M 20 130 "/>
</clipPath>
<clipPath id="clip14">
  <path d="M 21 131 L 120 131 L 120 183 L 21 183 Z M 21 131 "/>
</clipPath>
<clipPath id="clip15">
  <path d="M 21 136 C 21 133.238281 23.238281 131 26 131 L 115 131 C 117.761719 131 120 133.238281 120 136 L 120 178 C 120 180.761719 117.761719 183 115 183 L 26 183 C 23.238281 183 21 180.761719 21 178 Z M 21 136 "/>
</clipPath>
<clipPath id="clip16">
  <path d="M 0 130 L 101 130 L 101 184 L 0 184 Z M 0 130 "/>
</clipPath>
<clipPath id="clip17">
  <path d="M 1 131 L 100 131 L 100 183 L 1 183 Z M 1 131 "/>
</clipPath>
<clipPath id="clip18">
  <path d="M 1 136 C 1 133.238281 3.238281 131 6 131 L 95 131 C 97.761719 131 100 133.238281 100 136 L 100 178 C 100 180.761719 97.761719 183 95 183 L 6 183 C 3.238281 183 1 180.761719 1 178 Z M 1 136 "/>
</clipPath>
<clipPath id="clip19">
  <path d="M 160 130 L 165 130 L 165 184 L 160 184 Z M 160 130 "/>
</clipPath>
<clipPath id="clip20">
  <path d="M 161 131 L 164 131 L 164 183 L 161 183 Z M 161 131 "/>
</clipPath>
<clipPath id="clip21">
  <path d="M 161 132.5 C 161 131.671875 161.671875 131 162.5 131 C 163.328125 131 164 131.671875 164 132.5 L 164 181.5 C 164 182.328125 163.328125 183 162.5 183 C 161.671875 183 161 182.328125 161 181.5 Z M 161 132.5 "/>
</clipPath>
<clipPath id="clip22">
  <path d="M 160 130 L 165 130 L 165 184 L 160 184 Z M 160 130 "/>
</clipPath>
<clipPath id="clip23">
  <path d="M 161 131 L 164 131 L 164 183 L 161 183 Z M 161 131 "/>
</clipPath>
<clipPath id="clip24">
  <path d="M 161 132.5 C 161 131.671875 161.671875 131 162.5 131 C 163.328125 131 164 131.671875 164 132.5 L 164 181.5 C 164 182.328125 163.328125 183 162.5 183 C 161.671875 183 161 182.328125 161 181.5 Z M 161 132.5 "/>
</clipPath>
</defs>
<g id="surface2">
<path style="fill:none;stroke-width:1.5;stroke-linecap:butt;stroke-linejoin:miter;stroke:rgb(0%,0%,0%);stroke-opacity:0.266667;stroke-dasharray:10,4;stroke-dashoffset:1;stroke-miterlimit:10;" d="M 0.75 0.75 L 127.25 0.75 L 127.25 95.25 L 0.75 95.25 Z M 0.75 0.75 "/>
<path style="fill:none;stroke-width:1.5;stroke-linecap:butt;stroke-linejoin:miter;stroke:rgb(0%,0%,0%);stroke-opacity:0.2;stroke-dasharray:10,4;stroke-dashoffset:1;stroke-miterlimit:10;" d="M 10 10 L 118 10 L 118 86 L 10 86 Z M 10 10 "/>
<path style="fill:none;stroke-width:1.5;stroke-linecap:butt;stroke-linejoin:miter;stroke:rgb(0%,0%,0%);stroke-opacity:0.266667;stroke-dasharray:10,4;stroke-dashoffset:1;stroke-miterlimit:10;" d="M 140.75 0.75 L 267.25 0.75 L 267.25 95.25 L 140.75 95.25 Z M 140.75 0.75 "/>
<path style="fill:none;stroke-width:1.5;stroke-linecap:butt;stroke-linejoin:miter;stroke:rgb(0%,0%,0%);stroke-opacity:0.2;stroke-dasharray:10,4;stroke-dashoffset:1;stroke-miterlimit:10;" d="M 150 10 L 258 10 L 258 86 L 150 86 Z M 150 10 "/>
<path style="fill:none;stroke-width:1.5;stroke-linecap:butt;stroke-linejoin:miter;stroke:rgb(0%,0%,0%);stroke-opacity:0.266667;stroke-dasharray:10,4;stroke-dashoffset:1;stroke-miterlimit:10;" d="M 0.75 110.75 L 127.25 110.75 L 127.25 205.25 L 0.75 205.25 Z M 0.75 110.75 "/>
<path style="fill:none;stroke-width:1.5;stroke-linecap:butt;stroke-linejoin:miter;stroke:rgb(0%,0%,0%);stroke-opacity:0.2;stroke-dasharray:10,4;stroke-dashoffset:1;stroke-miterlimit:10;" d="M 10 120 L 118 120 L 118 196 L 10 196 Z M 10 120 "/>
<path style="fill:none;stroke-width:1.5;stroke-linecap:butt;stroke-linejoin:miter;stroke:rgb(0%,0%,0%);stroke-opacity:0.266667;stroke-dasharray:10,4;stroke-dashoffset:1;stroke-miterlimit:10;" d="M 140.75 110.75 L 267.25 110.75 L 267.25 205.25 L 140.75 205.25 Z M 140.75 110.75 "/>
<path style="fill:none;stroke-width:1.5;stroke-linecap:butt;stroke-linejoin:miter;stroke:rgb(0%,0%,0%);stroke-opacity:0.2;stroke-dasharray:10,4;stroke-dashoffset:1;stroke-miterlimit:10;" d="M 150 120 L 258 120 L 258 196 L 150 196 Z M 150 120 "/>
<path style="fill:none;stroke-width:1.5;stroke-linecap:butt;stroke-linejoin:miter;stroke:rgb(0%,0%,0%);stroke-opacity:0.1;stroke-miterlimit:10;" d="M 20 20 L 20 0 "/>
<path style="fill:none;stroke-width:1.5;stroke-linecap:butt;stroke-linejoin:miter;stroke:rgb(0%,0%,0%);stroke-opacity:0.1;stroke-miterlimit:10;" d="M 95 20 L 95 0 M 20 70 L 20 72 "/>
<path style="fill:none;stroke-width:1.5;stroke-linecap:butt;stroke-linejoin:miter;stroke:rgb(0%,0%,0%);stroke-opacity:0.1;stroke-miterlimit:10;" d="M 95 70 L 95 72 "/>
<path style="fill:none;stroke-width:1.5;stroke-linecap:butt;stroke-linejoin:miter;stroke:rgb(0%,0%,0%);stroke-opacity:0.1;stroke-miterlimit:10;" d="M 160 20 L 160 20 "/>
<path style="fill:none;stroke-width:1.5;stroke-linecap:butt;stroke-linejoin:miter;stroke:rgb(0%,0%,0%);stroke-opacity:0.1;stroke-miterlimit:10;" d="M 235 20 L 235 20 M 160 70 L 160 94 "/>
<path style="fill:none;stroke-width:1.5;stroke-linecap:butt;stroke-linejoin:miter;stroke:rgb(0%,0%,0%);stroke-opacity:0.1;stroke-miterlimit:10;" d="M 235 70 L 235 94 "/>
<path style="fill:none;stroke-width:1.5;stroke-linecap:butt;stroke-linejoin:miter;stroke:rgb(0%,0%,0%);stroke-opacity:0.1;stroke-miterlimit:10;" d="M 20 130 L 0 130 "/>
<path style="fill:none;stroke-width:1.5;stroke-linecap:butt;stroke-linejoin:miter;stroke:rgb(0%,0%,0%);stroke-opacity:0.1;stroke-miterlimit:10;" d="M 95 130 L 75 130 M 20 180 L 0 180 "/>
<path style="fill:none;stroke-width:1.5;stroke-linecap:butt;stroke-linejoin:miter;stroke:rgb(0%,0%,0%);stroke-opacity:0.1;stroke-miterlimit:10;" d="M 95 180 L 75 180 "/>
<path style="fill:none;stroke-width:1.5;stroke-linecap:butt;stroke-linejoin:miter;stroke:rgb(0%,0%,0%);stroke-opacity:0.1;stroke-miterlimit:10;" d="M 160 130 L 160 130 "/>
<path style="fill:none;stroke-width:1.5;stroke-linecap:butt;stroke-linejoin:miter;stroke:rgb(0%,0%,0%);stroke-opacity:0.1;stroke-miterlimit:10;" d="M 235 130 L 235 130 M 160 180 L 160 180 "/>
<path style="fill:none;stroke-width:1.5;stroke-linecap:butt;stroke-linejoin:miter;stroke:rgb(0%,0%,0%);stroke-opacity:0.1;stroke-miterlimit:10;" d="M 235 180 L 235 180 "/>
<g clip-path="url(#clip1)" clip-rule="nonzero">
<path style="fill:none;stroke-width:1;stroke-linecap:butt;stroke-linejoin:miter;stroke:rgb(38.039216%,50.588235%,100%);stroke-opacity:1;stroke-miterlimit:10;" d="M 0 5 C 0 2.238281 2.238281 0 5 0 L 72 0 C 74.761719 0 77 2.238281 77 5 L 77 69 C 77 71.761719 74.761719 74 72 74 L 5 74 C 2.238281 74 0 71.761719 0 69 Z M 0 5 " transform="matrix(1,0,0,1,21,21)"/>
</g>
<path style=" stroke:none;fill-rule:nonzero;fill:rgb(38.039216%,50.588235%,100%);fill-opacity:0.490196;" d="M 21 26 C 21 23.238281 23.238281 21 26 21 L 93 21 C 95.761719 21 98 23.238281 98 26 L 98 90 C 98 92.761719 95.761719 95 93 95 L 26 95 C 23.238281 95 21 92.761719 21 90 Z M 21 26 "/>
<g clip-path="url(#clip2)" clip-rule="nonzero">
<g clip-path="url(#clip3)" clip-rule="nonzero">
<path style="fill:none;stroke-width:1;stroke-linecap:butt;stroke-linejoin:miter;stroke:rgb(38.039216%,50.588235%,100%);stroke-opacity:1;stroke-miterlimit:10;" d="M 0 5 C 0 2.238281 2.238281 0 5 0 L 72 0 C 74.761719 0 77 2.238281 77 5 L 77 69 C 77 71.761719 74.761719 74 72 74 L 5 74 C 2.238281 74 0 71.761719 0 69 Z M 0 5 " transform="matrix(1,0,0,1,21,21)"/>
</g>
</g>
<g clip-path="url(#clip4)" clip-rule="nonzero">
<path style="fill:none;stroke-width:1;stroke-linecap:butt;stroke-linejoin:miter;stroke:rgb(38.039216%,50.588235%,100%);stroke-opacity:1;stroke-miterlimit:10;" d="M 0 5 C 0 2.238281 2.238281 0 5 0 L 72 0 C 74.761719 0 77 2.238281 77 5 L 77 69 C 77 71.761719 74.761719 74 72 74 L 5 74 C 2.238281 74 0 71.761719 0 69 Z M 0 5 " transform="matrix(1,0,0,1,21,1)"/>
</g>
<path style=" stroke:none;fill-rule:nonzero;fill:rgb(38.039216%,50.588235%,100%);fill-opacity:0.490196;" d="M 21 6 C 21 3.238281 23.238281 1 26 1 L 93 1 C 95.761719 1 98 3.238281 98 6 L 98 70 C 98 72.761719 95.761719 75 93 75 L 26 75 C 23.238281 75 21 72.761719 21 70 Z M 21 6 "/>
<g clip-path="url(#clip5)" clip-rule="nonzero">
<g clip-path="url(#clip6)" clip-rule="nonzero">
<path style="fill:none;stroke-width:1;stroke-linecap:butt;stroke-linejoin:miter;stroke:rgb(38.039216%,50.588235%,100%);stroke-opacity:1;stroke-miterlimit:10;" d="M 0 5 C 0 2.238281 2.238281 0 5 0 L 72 0 C 74.761719 0 77 2.238281 77 5 L 77 69 C 77 71.761719 74.761719 74 72 74 L 5 74 C 2.238281 74 0 71.761719 0 69 Z M 0 5 " transform="matrix(1,0,0,1,21,1)"/>
</g>
</g>
<g clip-path="url(#clip7)" clip-rule="nonzero">
<path style="fill:none;stroke-width:1;stroke-linecap:butt;stroke-linejoin:miter;stroke:rgb(38.039216%,50.588235%,100%);stroke-opacity:1;stroke-miterlimit:10;" d="M 0 5 C 0 2.238281 2.238281 0 5 0 L 72 0 C 74.761719 0 77 2.238281 77 5 L 77 71 C 77 73.761719 74.761719 76 72 76 L 5 76 C 2.238281 76 0 73.761719 0 71 Z M 0 5 " transform="matrix(1,0,0,1,161,21)"/>
</g>
<path style=" stroke:none;fill-rule:nonzero;fill:rgb(38.039216%,50.588235%,100%);fill-opacity:0.490196;" d="M 161 26 C 161 23.238281 163.238281 21 166 21 L 233 21 C 235.761719 21 238 23.238281 238 26 L 238 92 C 238 94.761719 235.761719 97 233 97 L 166 97 C 163.238281 97 161 94.761719 161 92 Z M 161 26 "/>
<g clip-path="url(#clip8)" clip-rule="nonzero">
<g clip-path="url(#clip9)" clip-rule="nonzero">
<path style="fill:none;stroke-width:1;stroke-linecap:butt;stroke-linejoin:miter;stroke:rgb(38.039216%,50.588235%,100%);stroke-opacity:1;stroke-miterlimit:10;" d="M 0 5 C 0 2.238281 2.238281 0 5 0 L 72 0 C 74.761719 0 77 2.238281 77 5 L 77 71 C 77 73.761719 74.761719 76 72 76 L 5 76 C 2.238281 76 0 73.761719 0 71 Z M 0 5 " transform="matrix(1,0,0,1,161,21)"/>
</g>
</g>
<g clip-path="url(#clip10)" clip-rule="nonzero">
<path style="fill:none;stroke-width:1;stroke-linecap:butt;stroke-linejoin:miter;stroke:rgb(38.039216%,50.588235%,100%);stroke-opacity:1;stroke-miterlimit:10;" d="M 0 5 C 0 2.238281 2.238281 0 5 0 L 72 0 C 74.761719 0 77 2.238281 77 5 L 77 71 C 77 73.761719 74.761719 76 72 76 L 5 76 C 2.238281 76 0 73.761719 0 71 Z M 0 5 " transform="matrix(1,0,0,1,161,21)"/>
</g>
<path style=" stroke:none;fill-rule:nonzero;fill:rgb(38.039216%,50.588235%,100%);fill-opacity:0.490196;" d="M 161 26 C 161 23.238281 163.238281 21 166 21 L 233 21 C 235.761719 21 238 23.238281 238 26 L 238 92 C 238 94.761719 235.761719 97 233 97 L 166 97 C 163.238281 97 161 94.761719 161 92 Z M 161 26 "/>
<g clip-path="url(#clip11)" clip-rule="nonzero">
<g clip-path="url(#clip12)" clip-rule="nonzero">
<path style="fill:none;stroke-width:1;stroke-linecap:butt;stroke-linejoin:miter;stroke:rgb(38.039216%,50.588235%,100%);stroke-opacity:1;stroke-miterlimit:10;" d="M 0 5 C 0 2.238281 2.238281 0 5 0 L 72 0 C 74.761719 0 77 2.238281 77 5 L 77 71 C 77 73.761719 74.761719 76 72 76 L 5 76 C 2.238281 76 0 73.761719 0 71 Z M 0 5 " transform="matrix(1,0,0,1,161,21)"/>
</g>
</g>
<g clip-path="url(#clip13)" clip-rule="nonzero">
<path style="fill:none;stroke-width:1;stroke-linecap:butt;stroke-linejoin:miter;stroke:rgb(38.039216%,50.588235%,100%);stroke-opacity:1;stroke-miterlimit:10;" d="M 0 5 C 0 2.238281 2.238281 0 5 0 L 94 0 C 96.761719 0 99 2.238281 99 5 L 99 47 C 99 49.761719 96.761719 52 94 52 L 5 52 C 2.238281 52 0 49.761719 0 47 Z M 0 5 " transform="matrix(1,0,0,1,21,131)"/>
</g>
<path style=" stroke:none;fill-rule:nonzero;fill:rgb(38.039216%,50.588235%,100%);fill-opacity:0.490196;" d="M 21 136 C 21 133.238281 23.238281 131 26 131 L 115 131 C 117.761719 131 120 133.238281 120 136 L 120 178 C 120 180.761719 117.761719 183 115 183 L 26 183 C 23.238281 183 21 180.761719 21 178 Z M 21 136 "/>
<g clip-path="url(#clip14)" clip-rule="nonzero">
<g clip-path="url(#clip15)" clip-rule="nonzero">
<path style="fill:none;stroke-width:1;stroke-linecap:butt;stroke-linejoin:miter;stroke:rgb(38.039216%,50.588235%,100%);stroke-opacity:1;stroke-miterlimit:10;" d="M 0 5 C 0 2.238281 2.238281 0 5 0 L 94 0 C 96.761719 0 99 2.238281 99 5 L 99 47 C 99 49.761719 96.761719 52 94 52 L 5 52 C 2.238281 52 0 49.761719 0 47 Z M 0 5 " transform="matrix(1,0,0,1,21,131)"/>
</g>
</g>
<g clip-path="url(#clip16)" clip-rule="nonzero">
<path style="fill:none;stroke-width:1;stroke-linecap:butt;stroke-linejoin:miter;stroke:rgb(38.039216%,50.588235%,100%);stroke-opacity:1;stroke-miterlimit:10;" d="M 0 5 C 0 2.238281 2.238281 0 5 0 L 94 0 C 96.761719 0 99 2.238281 99 5 L 99 47 C 99 49.761719 96.761719 52 94 52 L 5 52 C 2.238281 52 0 49.761719 0 47 Z M 0 5 " transform="matrix(1,0,0,1,1,131)"/>
</g>
<path style=" stroke:none;fill-rule:nonzero;fill:rgb(38.039216%,50.588235%,100%);fill-opacity:0.490196;" d="M 1 136 C 1 133.238281 3.238281 131 6 131 L 95 131 C 97.761719 131 100 133.238281 100 136 L 100 178 C 100 180.761719 97.761719 183 95 183 L 6 183 C 3.238281 183 1 180.761719 1 178 Z M 1 136 "/>
<g clip-path="url(#clip17)" clip-rule="nonzero">
<g clip-path="url(#clip18)" clip-rule="nonzero">
<path style="fill:none;stroke-width:1;stroke-linecap:butt;stroke-linejoin:miter;stroke:rgb(38.039216%,50.588235%,100%);stroke-opacity:1;stroke-miterlimit:10;" d="M 0 5 C 0 2.238281 2.238281 0 5 0 L 94 0 C 96.761719 0 99 2.238281 99 5 L 99 47 C 99 49.761719 96.761719 52 94 52 L 5 52 C 2.238281 52 0 49.761719 0 47 Z M 0 5 " transform="matrix(1,0,0,1,1,131)"/>
</g>
</g>
<g clip-path="url(#clip19)" clip-rule="nonzero">
<path style="fill:none;stroke-width:1;stroke-linecap:butt;stroke-linejoin:miter;stroke:rgb(38.039216%,50.588235%,100%);stroke-opacity:1;stroke-miterlimit:10;" d="M 0 1.5 C 0 0.671875 0.671875 0 1.5 0 C 2.328125 0 3 0.671875 3 1.5 L 3 50.5 C 3 51.328125 2.328125 52 1.5 52 C 0.671875 52 0 51.328125 0 50.5 Z M 0 1.5 " transform="matrix(1,0,0,1,161,131)"/>
</g>
<path style=" stroke:none;fill-rule:nonzero;fill:rgb(38.039216%,50.588235%,100%);fill-opacity:0.490196;" d="M 161 132.5 C 161 131.671875 161.671875 131 162.5 131 C 163.328125 131 164 131.671875 164 132.5 L 164 181.5 C 164 182.328125 163.328125 183 162.5 183 C 161.671875 183 161 182.328125 161 181.5 Z M 161 132.5 "/>
<g clip-path="url(#clip20)" clip-rule="nonzero">
<g clip-path="url(#clip21)" clip-rule="nonzero">
<path style="fill:none;stroke-width:1;stroke-linecap:butt;stroke-linejoin:miter;stroke:rgb(38.039216%,50.588235%,100%);stroke-opacity:1;stroke-miterlimit:10;" d="M 0 1.5 C 0 0.671875 0.671875 0 1.5 0 C 2.328125 0 3 0.671875 3 1.5 L 3 50.5 C 3 51.328125 2.328125 52 1.5 52 C 0.671875 52 0 51.328125 0 50.5 Z M 0 1.5 " transform="matrix(1,0,0,1,161,131)"/>
</g>
</g>
<g clip-path="url(#clip22)" clip-rule="nonzero">
<path style="fill:none;stroke-width:1;stroke-linecap:butt;stroke-linejoin:miter;stroke:rgb(38.039216%,50.588235%,100%);stroke-opacity:1;stroke-miterlimit:10;" d="M 0 1.5 C 0 0.671875 0.671875 0 1.5 0 C 2.328125 0 3 0.671875 3 1.5 L 3 50.5 C 3 51.328125 2.328125 52 1.5 52 C 0.671875 52 0 51.328125 0 50.5 Z M 0 1.5 " transform="matrix(1,0,0,1,161,131)"/>
</g>
<path style=" stroke:none;fill-rule:nonzero;fill:rgb(38.039216%,50.588235%,100%);fill-opacity:0.490196;" d="M 161 132.5 C 161 131.671875 161.671875 131 162.5 131 C 163.328125 131 164 131.671875 164 132.5 L 164 181.5 C 164 182.328125 163.328125 183 162.5 183 C 161.671875 183 161 182.328125 161 181.5 Z M 161 132.5 "/>
<g clip-path="url(#clip23)" clip-rule="nonzero">
<g clip-path="url(#clip24)" clip-rule="nonzero">
<path style="fill:none;stroke-width:1;stroke-linecap:butt;stroke-linejoin:miter;stroke:rgb(38.039216%,50.588235%,100%);stroke-opacity:1;stroke-miterlimit:10;" d="M 0 1.5 C 0 0.671875 0.671875 0 1.5 0 C 2.328125 0 3 0.671875 3 1.5 L 3 50.5 C 3 51.328125 2.328125 52 1.5 52 C 0.671875 52 0 51.328125 0 50.5 Z M 0 1.5 " transform="matrix(1,0,0,1,161,131)"/>
</g>
</g>
</g>
</svg>
