<?xml version="1.0" encoding="UTF-8"?>
<svg xmlns="http://www.w3.org/2000/svg" xmlns:xlink="http://www.w3.org/1999/xlink" width="542pt" height="96pt" viewBox="0 0 542 96" version="1.1">
<g id="surface2">
<path style="fill:none;stroke-width:1.5;stroke-linecap:butt;stroke-linejoin:miter;stroke:rgb(0%,0%,0%);stroke-opacity:0.266667;stroke-dasharray:10,4;stroke-dashoffset:1;stroke-miterlimit:10;" d="M 0.75 0.75 L 127.25 0.75 L 127.25 95.25 L 0.75 95.25 Z M 0.75 0.75 "/>
<path style="fill:none;stroke-width:1.5;stroke-linecap:butt;stroke-linejoin:miter;stroke:rgb(0%,0%,0%);stroke-opacity:0.2;stroke-dasharray:10,4;stroke-dashoffset:1;stroke-miterlimit:10;" d="M 10 10 L 118 10 L 118 86 L 10 86 Z M 10 10 "/>
<path style="fill:none;stroke-width:1.5;stroke-linecap:butt;stroke-linejoin:miter;stroke:rgb(0%,0%,0%);stroke-opacity:0.266667;stroke-dasharray:10,4;stroke-dashoffset:1;stroke-miterlimit:10;" d="M 138.75 0.75 L 265.25 0.75 L 265.25 95.25 L 138.75 95.25 Z M 138.75 0.75 "/>
<path style="fill:none;stroke-width:1.5;stroke-linecap:butt;stroke-linejoin:miter;stroke:rgb(0%,0%,0%);stroke-opacity:0.2;stroke-dasharray:10,4;stroke-dashoffset:1;stroke-miterlimit:10;" d="M 148 10 L 256 10 L 256 86 L 148 86 Z M 148 10 "/>
<path style="fill:none;stroke-width:1.5;stroke-linecap:butt;stroke-linejoin:miter;stroke:rgb(0%,0%,0%);stroke-opacity:0.266667;stroke-dasharray:10,4;stroke-dashoffset:1;stroke-miterlimit:10;" d="M 276.75 0.75 L 403.25 0.75 L 403.25 95.25 L 276.75 95.25 Z M 276.75 0.75 "/>
<path style="fill:none;stroke-width:1.5;stroke-linecap:butt;stroke-linejoin:miter;stroke:rgb(0%,0%,0%);stroke-opacity:0.2;stroke-dasharray:10,4;stroke-dashoffset:1;stroke-miterlimit:10;" d="M 286 10 L 394 10 L 394 86 L 286 86 Z M 286 10 "/>
<path style="fill:none;stroke-width:1.5;stroke-linecap:butt;stroke-linejoin:miter;stroke:rgb(0%,0%,0%);stroke-opacity:0.266667;stroke-dasharray:10,4;stroke-dashoffset:1;stroke-miterlimit:10;" d="M 414.75 0.75 L 541.25 0.75 L 541.25 95.25 L 414.75 95.25 Z M 414.75 0.75 "/>
<path style="fill:none;stroke-width:1.5;stroke-linecap:butt;stroke-linejoin:miter;stroke:rgb(0%,0%,0%);stroke-opacity:0.2;stroke-dasharray:10,4;stroke-dashoffset:1;stroke-miterlimit:10;" d="M 424 10 L 532 10 L 532 86 L 424 86 Z M 424 10 "/>
<path style="fill:none;stroke-width:1.5;stroke-linecap:butt;stroke-linejoin:miter;stroke:rgb(38.039216%,50.588235%,100%);stroke-opacity:1;stroke-miterlimit:10;" d="M 0 5 C 0 2.238281 2.238281 0 5 0 L 97 0 C 99.761719 0 102 2.238281 102 5 L 102 15 C 102 17.761719 99.761719 20 97 20 L 5 20 C 2.238281 20 0 17.761719 0 15 Z M 0 5 " transform="matrix(1,0,0,1,12,12)"/>
<path style=" stroke:none;fill-rule:nonzero;fill:rgb(38.039216%,50.588235%,100%);fill-opacity:0.490196;" d="M 12 17 C 12 14.238281 14.238281 12 17 12 L 109 12 C 111.761719 12 114 14.238281 114 17 L 114 27 C 114 29.761719 111.761719 32 109 32 L 17 32 C 14.238281 32 12 29.761719 12 27 Z M 12 17 "/>
<path style="fill:none;stroke-width:1.5;stroke-linecap:butt;stroke-linejoin:miter;stroke:rgb(38.039216%,50.588235%,100%);stroke-opacity:1;stroke-miterlimit:10;" d="M 0 5 C 0 2.238281 2.238281 0 5 0 L 97 0 C 99.761719 0 102 2.238281 102 5 L 102 15 C 102 17.761719 99.761719 20 97 20 L 5 20 C 2.238281 20 0 17.761719 0 15 Z M 0 5 " transform="matrix(1,0,0,1,12,36)"/>
<path style=" stroke:none;fill-rule:nonzero;fill:rgb(38.039216%,50.588235%,100%);fill-opacity:0.490196;" d="M 12 41 C 12 38.238281 14.238281 36 17 36 L 109 36 C 111.761719 36 114 38.238281 114 41 L 114 51 C 114 53.761719 111.761719 56 109 56 L 17 56 C 14.238281 56 12 53.761719 12 51 Z M 12 41 "/>
<path style="fill:none;stroke-width:1.5;stroke-linecap:butt;stroke-linejoin:miter;stroke:rgb(38.039216%,50.588235%,100%);stroke-opacity:1;stroke-miterlimit:10;" d="M 0 5 C 0 2.238281 2.238281 0 5 0 L 97 0 C 99.761719 0 102 2.238281 102 5 L 102 15 C 102 17.761719 99.761719 20 97 20 L 5 20 C 2.238281 20 0 17.761719 0 15 Z M 0 5 " transform="matrix(1,0,0,1,12,60)"/>
<path style=" stroke:none;fill-rule:nonzero;fill:rgb(38.039216%,50.588235%,100%);fill-opacity:0.490196;" d="M 12 65 C 12 62.238281 14.238281 60 17 60 L 109 60 C 111.761719 60 114 62.238281 114 65 L 114 75 C 114 77.761719 111.761719 80 109 80 L 17 80 C 14.238281 80 12 77.761719 12 75 Z M 12 65 "/>
<path style="fill:none;stroke-width:1.5;stroke-linecap:butt;stroke-linejoin:miter;stroke:rgb(38.039216%,50.588235%,100%);stroke-opacity:1;stroke-miterlimit:10;" d="M 0 5 C 0 2.238281 2.238281 0 5 0 L 60 0 C 62.761719 0 65 2.238281 65 5 L 65 28 C 65 30.761719 62.761719 33 60 33 L 5 33 C 2.238281 33 0 30.761719 0 28 Z M 0 5 " transform="matrix(1,0,0,1,30.5,30.5)"/>
<path style=" stroke:none;fill-rule:nonzero;fill:rgb(38.039216%,50.588235%,100%);fill-opacity:0.490196;" d="M 30.5 35.5 C 30.5 32.738281 32.738281 30.5 35.5 30.5 L 90.5 30.5 C 93.261719 30.5 95.5 32.738281 95.5 35.5 L 95.5 58.5 C 95.5 61.261719 93.261719 63.5 90.5 63.5 L 35.5 63.5 C 32.738281 63.5 30.5 61.261719 30.5 58.5 Z M 30.5 35.5 "/>
<path style="fill:none;stroke-width:1.5;stroke-linecap:butt;stroke-linejoin:miter;stroke:rgb(38.039216%,50.588235%,100%);stroke-opacity:1;stroke-miterlimit:10;" d="M 0 5 C 0 2.238281 2.238281 0 5 0 L 93 0 C 95.761719 0 98 2.238281 98 5 L 98 13 C 98 15.761719 95.761719 18 93 18 L 5 18 C 2.238281 18 0 15.761719 0 13 Z M 0 5 " transform="matrix(1,0,0,1,152,14)"/>
<path style=" stroke:none;fill-rule:nonzero;fill:rgb(38.039216%,50.588235%,100%);fill-opacity:0.490196;" d="M 152 19 C 152 16.238281 154.238281 14 157 14 L 245 14 C 247.761719 14 250 16.238281 250 19 L 250 27 C 250 29.761719 247.761719 32 245 32 L 157 32 C 154.238281 32 152 29.761719 152 27 Z M 152 19 "/>
<path style="fill:none;stroke-width:1.5;stroke-linecap:butt;stroke-linejoin:miter;stroke:rgb(38.039216%,50.588235%,100%);stroke-opacity:1;stroke-miterlimit:10;" d="M 0 5 C 0 2.238281 2.238281 0 5 0 L 93 0 C 95.761719 0 98 2.238281 98 5 L 98 13 C 98 15.761719 95.761719 18 93 18 L 5 18 C 2.238281 18 0 15.761719 0 13 Z M 0 5 " transform="matrix(1,0,0,1,152,38)"/>
<path style=" stroke:none;fill-rule:nonzero;fill:rgb(38.039216%,50.588235%,100%);fill-opacity:0.490196;" d="M 152 43 C 152 40.238281 154.238281 38 157 38 L 245 38 C 247.761719 38 250 40.238281 250 43 L 250 51 C 250 53.761719 247.761719 56 245 56 L 157 56 C 154.238281 56 152 53.761719 152 51 Z M 152 43 "/>
<path style="fill:none;stroke-width:1.5;stroke-linecap:butt;stroke-linejoin:miter;stroke:rgb(38.039216%,50.588235%,100%);stroke-opacity:1;stroke-miterlimit:10;" d="M 0 5 C 0 2.238281 2.238281 0 5 0 L 93 0 C 95.761719 0 98 2.238281 98 5 L 98 13 C 98 15.761719 95.761719 18 93 18 L 5 18 C 2.238281 18 0 15.761719 0 13 Z M 0 5 " transform="matrix(1,0,0,1,152,62)"/>
<path style=" stroke:none;fill-rule:nonzero;fill:rgb(38.039216%,50.588235%,100%);fill-opacity:0.490196;" d="M 152 67 C 152 64.238281 154.238281 62 157 62 L 245 62 C 247.761719 62 250 64.238281 250 67 L 250 75 C 250 77.761719 247.761719 80 245 80 L 157 80 C 154.238281 80 152 77.761719 152 75 Z M 152 67 "/>
<path style="fill:none;stroke-width:1.5;stroke-linecap:butt;stroke-linejoin:miter;stroke:rgb(38.039216%,50.588235%,100%);stroke-opacity:1;stroke-miterlimit:10;" d="M 0 5 C 0 2.238281 2.238281 0 5 0 L 57 0 C 59.761719 0 62 2.238281 62 5 L 62 25 C 62 27.761719 59.761719 30 57 30 L 5 30 C 2.238281 30 0 27.761719 0 25 Z M 0 5 " transform="matrix(1,0,0,1,170,32)"/>
<path style=" stroke:none;fill-rule:nonzero;fill:rgb(38.039216%,50.588235%,100%);fill-opacity:0.490196;" d="M 170 37 C 170 34.238281 172.238281 32 175 32 L 227 32 C 229.761719 32 232 34.238281 232 37 L 232 57 C 232 59.761719 229.761719 62 227 62 L 175 62 C 172.238281 62 170 59.761719 170 57 Z M 170 37 "/>
<path style="fill:none;stroke-width:1.5;stroke-linecap:butt;stroke-linejoin:miter;stroke:rgb(38.039216%,50.588235%,100%);stroke-opacity:1;stroke-miterlimit:10;" d="M 0 5 C 0 2.238281 2.238281 0 5 0 L 89 0 C 91.761719 0 94 2.238281 94 5 L 94 10 C 94 12.761719 91.761719 15 89 15 L 5 15 C 2.238281 15 0 12.761719 0 10 Z M 0 5 " transform="matrix(1,0,0,1,292,16)"/>
<path style=" stroke:none;fill-rule:nonzero;fill:rgb(38.039216%,50.588235%,100%);fill-opacity:0.490196;" d="M 292 21 C 292 18.238281 294.238281 16 297 16 L 381 16 C 383.761719 16 386 18.238281 386 21 L 386 26 C 386 28.761719 383.761719 31 381 31 L 297 31 C 294.238281 31 292 28.761719 292 26 Z M 292 21 "/>
<path style="fill:none;stroke-width:1.5;stroke-linecap:butt;stroke-linejoin:miter;stroke:rgb(38.039216%,50.588235%,100%);stroke-opacity:1;stroke-miterlimit:10;" d="M 0 5 C 0 2.238281 2.238281 0 5 0 L 89 0 C 91.761719 0 94 2.238281 94 5 L 94 10 C 94 12.761719 91.761719 15 89 15 L 5 15 C 2.238281 15 0 12.761719 0 10 Z M 0 5 " transform="matrix(1,0,0,1,292,39)"/>
<path style=" stroke:none;fill-rule:nonzero;fill:rgb(38.039216%,50.588235%,100%);fill-opacity:0.490196;" d="M 292 44 C 292 41.238281 294.238281 39 297 39 L 381 39 C 383.761719 39 386 41.238281 386 44 L 386 49 C 386 51.761719 383.761719 54 381 54 L 297 54 C 294.238281 54 292 51.761719 292 49 Z M 292 44 "/>
<path style="fill:none;stroke-width:1.5;stroke-linecap:butt;stroke-linejoin:miter;stroke:rgb(38.039216%,50.588235%,100%);stroke-opacity:1;stroke-miterlimit:10;" d="M 0 5 C 0 2.238281 2.238281 0 5 0 L 89 0 C 91.761719 0 94 2.238281 94 5 L 94 10 C 94 12.761719 91.761719 15 89 15 L 5 15 C 2.238281 15 0 12.761719 0 10 Z M 0 5 " transform="matrix(1,0,0,1,292,62)"/>
<path style=" stroke:none;fill-rule:nonzero;fill:rgb(38.039216%,50.588235%,100%);fill-opacity:0.490196;" d="M 292 67 C 292 64.238281 294.238281 62 297 62 L 381 62 C 383.761719 62 386 64.238281 386 67 L 386 72 C 386 74.761719 383.761719 77 381 77 L 297 77 C 294.238281 77 292 74.761719 292 72 Z M 292 67 "/>
<path style="fill:none;stroke-width:1.5;stroke-linecap:butt;stroke-linejoin:miter;stroke:rgb(38.039216%,50.588235%,100%);stroke-opacity:1;stroke-miterlimit:10;" d="M 0 5 C 0 2.238281 2.238281 0 5 0 L 54 0 C 56.761719 0 59 2.238281 59 5 L 59 22 C 59 24.761719 56.761719 27 54 27 L 5 27 C 2.238281 27 0 24.761719 0 22 Z M 0 5 " transform="matrix(1,0,0,1,309.5,33.5)"/>
<path style=" stroke:none;fill-rule:nonzero;fill:rgb(38.039216%,50.588235%,100%);fill-opacity:0.490196;" d="M 309.5 38.5 C 309.5 35.738281 311.738281 33.5 314.5 33.5 L 363.5 33.5 C 366.261719 33.5 368.5 35.738281 368.5 38.5 L 368.5 55.5 C 368.5 58.261719 366.261719 60.5 363.5 60.5 L 314.5 60.5 C 311.738281 60.5 309.5 58.261719 309.5 55.5 Z M 309.5 38.5 "/>
<path style="fill:none;stroke-width:1.5;stroke-linecap:butt;stroke-linejoin:miter;stroke:rgb(38.039216%,50.588235%,100%);stroke-opacity:1;stroke-miterlimit:10;" d="M 0 5 C 0 2.238281 2.238281 0 5 0 L 85 0 C 87.761719 0 90 2.238281 90 5 L 90 7 C 90 9.761719 87.761719 12 85 12 L 5 12 C 2.238281 12 0 9.761719 0 7 Z M 0 5 " transform="matrix(1,0,0,1,432,18)"/>
<path style=" stroke:none;fill-rule:nonzero;fill:rgb(38.039216%,50.588235%,100%);fill-opacity:0.490196;" d="M 432 23 C 432 20.238281 434.238281 18 437 18 L 517 18 C 519.761719 18 522 20.238281 522 23 L 522 25 C 522 27.761719 519.761719 30 517 30 L 437 30 C 434.238281 30 432 27.761719 432 25 Z M 432 23 "/>
<path style="fill:none;stroke-width:1.5;stroke-linecap:butt;stroke-linejoin:miter;stroke:rgb(38.039216%,50.588235%,100%);stroke-opacity:1;stroke-miterlimit:10;" d="M 0 5 C 0 2.238281 2.238281 0 5 0 L 85 0 C 87.761719 0 90 2.238281 90 5 L 90 7 C 90 9.761719 87.761719 12 85 12 L 5 12 C 2.238281 12 0 9.761719 0 7 Z M 0 5 " transform="matrix(1,0,0,1,432,40)"/>
<path style=" stroke:none;fill-rule:nonzero;fill:rgb(38.039216%,50.588235%,100%);fill-opacity:0.490196;" d="M 432 45 C 432 42.238281 434.238281 40 437 40 L 517 40 C 519.761719 40 522 42.238281 522 45 L 522 47 C 522 49.761719 519.761719 52 517 52 L 437 52 C 434.238281 52 432 49.761719 432 47 Z M 432 45 "/>
<path style="fill:none;stroke-width:1.5;stroke-linecap:butt;stroke-linejoin:miter;stroke:rgb(38.039216%,50.588235%,100%);stroke-opacity:1;stroke-miterlimit:10;" d="M 0 5 C 0 2.238281 2.238281 0 5 0 L 85 0 C 87.761719 0 90 2.238281 90 5 L 90 7 C 90 9.761719 87.761719 12 85 12 L 5 12 C 2.238281 12 0 9.761719 0 7 Z M 0 5 " transform="matrix(1,0,0,1,432,62)"/>
<path style=" stroke:none;fill-rule:nonzero;fill:rgb(38.039216%,50.588235%,100%);fill-opacity:0.490196;" d="M 432 67 C 432 64.238281 434.238281 62 437 62 L 517 62 C 519.761719 62 522 64.238281 522 67 L 522 69 C 522 71.761719 519.761719 74 517 74 L 437 74 C 434.238281 74 432 71.761719 432 69 Z M 432 67 "/>
<path style="fill:none;stroke-width:1.5;stroke-linecap:butt;stroke-linejoin:miter;stroke:rgb(38.039216%,50.588235%,100%);stroke-opacity:1;stroke-miterlimit:10;" d="M 0 5 C 0 2.238281 2.238281 0 5 0 L 51 0 C 53.761719 0 56 2.238281 56 5 L 56 19 C 56 21.761719 53.761719 24 51 24 L 5 24 C 2.238281 24 0 21.761719 0 19 Z M 0 5 " transform="matrix(1,0,0,1,449,35)"/>
<path style=" stroke:none;fill-rule:nonzero;fill:rgb(38.039216%,50.588235%,100%);fill-opacity:0.490196;" d="M 449 40 C 449 37.238281 451.238281 35 454 35 L 500 35 C 502.761719 35 505 37.238281 505 40 L 505 54 C 505 56.761719 502.761719 59 500 59 L 454 59 C 451.238281 59 449 56.761719 449 54 Z M 449 40 "/>
</g>
</svg>
