<?xml version="1.0" encoding="UTF-8"?>
<svg xmlns="http://www.w3.org/2000/svg" xmlns:xlink="http://www.w3.org/1999/xlink" width="542pt" height="96pt" viewBox="0 0 542 96" version="1.1">
<defs>
<clipPath id="clip1">
  <path d="M 13 13 L 62 13 L 62 46 L 13 46 Z M 13 13 "/>
</clipPath>
<clipPath id="clip2">
  <path d="M 13 18 C 13 15.238281 15.238281 13 18 13 L 57 13 C 59.761719 13 62 15.238281 62 18 L 62 41 C 62 43.761719 59.761719 46 57 46 L 18 46 C 15.238281 46 13 43.761719 13 41 Z M 13 18 "/>
</clipPath>
<clipPath id="clip3">
  <path d="M 13 50 L 62 50 L 62 83 L 13 83 Z M 13 50 "/>
</clipPath>
<clipPath id="clip4">
  <path d="M 13 55 C 13 52.238281 15.238281 50 18 50 L 57 50 C 59.761719 50 62 52.238281 62 55 L 62 78 C 62 80.761719 59.761719 83 57 83 L 18 83 C 15.238281 83 13 80.761719 13 78 Z M 13 55 "/>
</clipPath>
<clipPath id="clip5">
  <path d="M 66 13 L 115 13 L 115 46 L 66 46 Z M 66 13 "/>
</clipPath>
<clipPath id="clip6">
  <path d="M 66 18 C 66 15.238281 68.238281 13 71 13 L 110 13 C 112.761719 13 115 15.238281 115 18 L 115 41 C 115 43.761719 112.761719 46 110 46 L 71 46 C 68.238281 46 66 43.761719 66 41 Z M 66 18 "/>
</clipPath>
<clipPath id="clip7">
  <path d="M 66 50 L 115 50 L 115 83 L 66 83 Z M 66 50 "/>
</clipPath>
<clipPath id="clip8">
  <path d="M 66 55 C 66 52.238281 68.238281 50 71 50 L 110 50 C 112.761719 50 115 52.238281 115 55 L 115 78 C 115 80.761719 112.761719 83 110 83 L 71 83 C 68.238281 83 66 80.761719 66 78 Z M 66 55 "/>
</clipPath>
<clipPath id="clip9">
  <path d="M 153 15 L 199 15 L 199 45 L 153 45 Z M 153 15 "/>
</clipPath>
<clipPath id="clip10">
  <path d="M 153 20 C 153 17.238281 155.238281 15 158 15 L 194 15 C 196.761719 15 199 17.238281 199 20 L 199 40 C 199 42.761719 196.761719 45 194 45 L 158 45 C 155.238281 45 153 42.761719 153 40 Z M 153 20 "/>
</clipPath>
<clipPath id="clip11">
  <path d="M 153 51 L 199 51 L 199 81 L 153 81 Z M 153 51 "/>
</clipPath>
<clipPath id="clip12">
  <path d="M 153 56 C 153 53.238281 155.238281 51 158 51 L 194 51 C 196.761719 51 199 53.238281 199 56 L 199 76 C 199 78.761719 196.761719 81 194 81 L 158 81 C 155.238281 81 153 78.761719 153 76 Z M 153 56 "/>
</clipPath>
<clipPath id="clip13">
  <path d="M 205 15 L 251 15 L 251 45 L 205 45 Z M 205 15 "/>
</clipPath>
<clipPath id="clip14">
  <path d="M 205 20 C 205 17.238281 207.238281 15 210 15 L 246 15 C 248.761719 15 251 17.238281 251 20 L 251 40 C 251 42.761719 248.761719 45 246 45 L 210 45 C 207.238281 45 205 42.761719 205 40 Z M 205 20 "/>
</clipPath>
<clipPath id="clip15">
  <path d="M 205 51 L 251 51 L 251 81 L 205 81 Z M 205 51 "/>
</clipPath>
<clipPath id="clip16">
  <path d="M 205 56 C 205 53.238281 207.238281 51 210 51 L 246 51 C 248.761719 51 251 53.238281 251 56 L 251 76 C 251 78.761719 248.761719 81 246 81 L 210 81 C 207.238281 81 205 78.761719 205 76 Z M 205 56 "/>
</clipPath>
<clipPath id="clip17">
  <path d="M 293 17 L 336 17 L 336 44 L 293 44 Z M 293 17 "/>
</clipPath>
<clipPath id="clip18">
  <path d="M 293 22 C 293 19.238281 295.238281 17 298 17 L 331 17 C 333.761719 17 336 19.238281 336 22 L 336 39 C 336 41.761719 333.761719 44 331 44 L 298 44 C 295.238281 44 293 41.761719 293 39 Z M 293 22 "/>
</clipPath>
<clipPath id="clip19">
  <path d="M 293 52 L 336 52 L 336 79 L 293 79 Z M 293 52 "/>
</clipPath>
<clipPath id="clip20">
  <path d="M 293 57 C 293 54.238281 295.238281 52 298 52 L 331 52 C 333.761719 52 336 54.238281 336 57 L 336 74 C 336 76.761719 333.761719 79 331 79 L 298 79 C 295.238281 79 293 76.761719 293 74 Z M 293 57 "/>
</clipPath>
<clipPath id="clip21">
  <path d="M 344 17 L 387 17 L 387 44 L 344 44 Z M 344 17 "/>
</clipPath>
<clipPath id="clip22">
  <path d="M 344 22 C 344 19.238281 346.238281 17 349 17 L 382 17 C 384.761719 17 387 19.238281 387 22 L 387 39 C 387 41.761719 384.761719 44 382 44 L 349 44 C 346.238281 44 344 41.761719 344 39 Z M 344 22 "/>
</clipPath>
<clipPath id="clip23">
  <path d="M 344 52 L 387 52 L 387 79 L 344 79 Z M 344 52 "/>
</clipPath>
<clipPath id="clip24">
  <path d="M 344 57 C 344 54.238281 346.238281 52 349 52 L 382 52 C 384.761719 52 387 54.238281 387 57 L 387 74 C 387 76.761719 384.761719 79 382 79 L 349 79 C 346.238281 79 344 76.761719 344 74 Z M 344 57 "/>
</clipPath>
<clipPath id="clip25">
  <path d="M 433 19 L 473 19 L 473 43 L 433 43 Z M 433 19 "/>
</clipPath>
<clipPath id="clip26">
  <path d="M 433 24 C 433 21.238281 435.238281 19 438 19 L 468 19 C 470.761719 19 473 21.238281 473 24 L 473 38 C 473 40.761719 470.761719 43 468 43 L 438 43 C 435.238281 43 433 40.761719 433 38 Z M 433 24 "/>
</clipPath>
<clipPath id="clip27">
  <path d="M 433 53 L 473 53 L 473 77 L 433 77 Z M 433 53 "/>
</clipPath>
<clipPath id="clip28">
  <path d="M 433 58 C 433 55.238281 435.238281 53 438 53 L 468 53 C 470.761719 53 473 55.238281 473 58 L 473 72 C 473 74.761719 470.761719 77 468 77 L 438 77 C 435.238281 77 433 74.761719 433 72 Z M 433 58 "/>
</clipPath>
<clipPath id="clip29">
  <path d="M 483 19 L 523 19 L 523 43 L 483 43 Z M 483 19 "/>
</clipPath>
<clipPath id="clip30">
  <path d="M 483 24 C 483 21.238281 485.238281 19 488 19 L 518 19 C 520.761719 19 523 21.238281 523 24 L 523 38 C 523 40.761719 520.761719 43 518 43 L 488 43 C 485.238281 43 483 40.761719 483 38 Z M 483 24 "/>
</clipPath>
<clipPath id="clip31">
  <path d="M 483 53 L 523 53 L 523 77 L 483 77 Z M 483 53 "/>
</clipPath>
<clipPath id="clip32">
  <path d="M 483 58 C 483 55.238281 485.238281 53 488 53 L 518 53 C 520.761719 53 523 55.238281 523 58 L 523 72 C 523 74.761719 520.761719 77 518 77 L 488 77 C 485.238281 77 483 74.761719 483 72 Z M 483 58 "/>
</clipPath>
</defs>
<g id="surface2">
<path style="fill:none;stroke-width:1.5;stroke-linecap:butt;stroke-linejoin:miter;stroke:rgb(0%,0%,0%);stroke-opacity:0.266667;stroke-dasharray:10,4;stroke-dashoffset:1;stroke-miterlimit:10;" d="M 0.75 0.75 L 127.25 0.75 L 127.25 95.25 L 0.75 95.25 Z M 0.75 0.75 "/>
<path style="fill:none;stroke-width:1.5;stroke-linecap:butt;stroke-linejoin:miter;stroke:rgb(0%,0%,0%);stroke-opacity:0.2;stroke-dasharray:10,4;stroke-dashoffset:1;stroke-miterlimit:10;" d="M 10 10 L 118 10 L 118 86 L 10 86 Z M 10 10 "/>
<path style="fill:none;stroke-width:1.5;stroke-linecap:butt;stroke-linejoin:miter;stroke:rgb(0%,0%,0%);stroke-opacity:0.266667;stroke-dasharray:10,4;stroke-dashoffset:1;stroke-miterlimit:10;" d="M 138.75 0.75 L 265.25 0.75 L 265.25 95.25 L 138.75 95.25 Z M 138.75 0.75 "/>
<path style="fill:none;stroke-width:1.5;stroke-linecap:butt;stroke-linejoin:miter;stroke:rgb(0%,0%,0%);stroke-opacity:0.2;stroke-dasharray:10,4;stroke-dashoffset:1;stroke-miterlimit:10;" d="M 148 10 L 256 10 L 256 86 L 148 86 Z M 148 10 "/>
<path style="fill:none;stroke-width:1.5;stroke-linecap:butt;stroke-linejoin:miter;stroke:rgb(0%,0%,0%);stroke-opacity:0.266667;stroke-dasharray:10,4;stroke-dashoffset:1;stroke-miterlimit:10;" d="M 276.75 0.75 L 403.25 0.75 L 403.25 95.25 L 276.75 95.25 Z M 276.75 0.75 "/>
<path style="fill:none;stroke-width:1.5;stroke-linecap:butt;stroke-linejoin:miter;stroke:rgb(0%,0%,0%);stroke-opacity:0.2;stroke-dasharray:10,4;stroke-dashoffset:1;stroke-miterlimit:10;" d="M 286 10 L 394 10 L 394 86 L 286 86 Z M 286 10 "/>
<path style="fill:none;stroke-width:1.5;stroke-linecap:butt;stroke-linejoin:miter;stroke:rgb(0%,0%,0%);stroke-opacity:0.266667;stroke-dasharray:10,4;stroke-dashoffset:1;stroke-miterlimit:10;" d="M 414.75 0.75 L 541.25 0.75 L 541.25 95.25 L 414.75 95.25 Z M 414.75 0.75 "/>
<path style="fill:none;stroke-width:1.5;stroke-linecap:butt;stroke-linejoin:miter;stroke:rgb(0%,0%,0%);stroke-opacity:0.2;stroke-dasharray:10,4;stroke-dashoffset:1;stroke-miterlimit:10;" d="M 424 10 L 532 10 L 532 86 L 424 86 Z M 424 10 "/>
<g clip-path="url(#clip1)" clip-rule="nonzero">
<g clip-path="url(#clip2)" clip-rule="nonzero">
<rect x="0" y="0" width="542" height="96" style="fill:rgb(38.039216%,50.588235%,100%);fill-opacity:0.490196;stroke:none;"/>
<path style="fill:none;stroke-width:2;stroke-linecap:butt;stroke-linejoin:miter;stroke:rgb(38.039216%,50.588235%,100%);stroke-opacity:1;stroke-miterlimit:10;" d="M 1 6 C 1 3.238281 3.238281 1 6 1 L 45 1 C 47.761719 1 50 3.238281 50 6 L 50 29 C 50 31.761719 47.761719 34 45 34 L 6 34 C 3.238281 34 1 31.761719 1 29 Z M 1 6 " transform="matrix(1,0,0,1,12,12)"/>
</g>
</g>
<g clip-path="url(#clip3)" clip-rule="nonzero">
<g clip-path="url(#clip4)" clip-rule="nonzero">
<rect x="0" y="0" width="542" height="96" style="fill:rgb(38.039216%,50.588235%,100%);fill-opacity:0.490196;stroke:none;"/>
<path style="fill:none;stroke-width:2;stroke-linecap:butt;stroke-linejoin:miter;stroke:rgb(38.039216%,50.588235%,100%);stroke-opacity:1;stroke-miterlimit:10;" d="M 1 6 C 1 3.238281 3.238281 1 6 1 L 45 1 C 47.761719 1 50 3.238281 50 6 L 50 29 C 50 31.761719 47.761719 34 45 34 L 6 34 C 3.238281 34 1 31.761719 1 29 Z M 1 6 " transform="matrix(1,0,0,1,12,49)"/>
</g>
</g>
<g clip-path="url(#clip5)" clip-rule="nonzero">
<g clip-path="url(#clip6)" clip-rule="nonzero">
<rect x="0" y="0" width="542" height="96" style="fill:rgb(38.039216%,50.588235%,100%);fill-opacity:0.490196;stroke:none;"/>
<path style="fill:none;stroke-width:2;stroke-linecap:butt;stroke-linejoin:miter;stroke:rgb(38.039216%,50.588235%,100%);stroke-opacity:1;stroke-miterlimit:10;" d="M 1 6 C 1 3.238281 3.238281 1 6 1 L 45 1 C 47.761719 1 50 3.238281 50 6 L 50 29 C 50 31.761719 47.761719 34 45 34 L 6 34 C 3.238281 34 1 31.761719 1 29 Z M 1 6 " transform="matrix(1,0,0,1,65,12)"/>
</g>
</g>
<g clip-path="url(#clip7)" clip-rule="nonzero">
<g clip-path="url(#clip8)" clip-rule="nonzero">
<rect x="0" y="0" width="542" height="96" style="fill:rgb(38.039216%,50.588235%,100%);fill-opacity:0.490196;stroke:none;"/>
<path style="fill:none;stroke-width:2;stroke-linecap:butt;stroke-linejoin:miter;stroke:rgb(38.039216%,50.588235%,100%);stroke-opacity:1;stroke-miterlimit:10;" d="M 1 6 C 1 3.238281 3.238281 1 6 1 L 45 1 C 47.761719 1 50 3.238281 50 6 L 50 29 C 50 31.761719 47.761719 34 45 34 L 6 34 C 3.238281 34 1 31.761719 1 29 Z M 1 6 " transform="matrix(1,0,0,1,65,49)"/>
</g>
</g>
<g clip-path="url(#clip9)" clip-rule="nonzero">
<g clip-path="url(#clip10)" clip-rule="nonzero">
<rect x="0" y="0" width="542" height="96" style="fill:rgb(38.039216%,50.588235%,100%);fill-opacity:0.490196;stroke:none;"/>
<path style="fill:none;stroke-width:2;stroke-linecap:butt;stroke-linejoin:miter;stroke:rgb(38.039216%,50.588235%,100%);stroke-opacity:1;stroke-miterlimit:10;" d="M 1 6 C 1 3.238281 3.238281 1 6 1 L 42 1 C 44.761719 1 47 3.238281 47 6 L 47 26 C 47 28.761719 44.761719 31 42 31 L 6 31 C 3.238281 31 1 28.761719 1 26 Z M 1 6 " transform="matrix(1,0,0,1,152,14)"/>
</g>
</g>
<g clip-path="url(#clip11)" clip-rule="nonzero">
<g clip-path="url(#clip12)" clip-rule="nonzero">
<rect x="0" y="0" width="542" height="96" style="fill:rgb(38.039216%,50.588235%,100%);fill-opacity:0.490196;stroke:none;"/>
<path style="fill:none;stroke-width:2;stroke-linecap:butt;stroke-linejoin:miter;stroke:rgb(38.039216%,50.588235%,100%);stroke-opacity:1;stroke-miterlimit:10;" d="M 1 6 C 1 3.238281 3.238281 1 6 1 L 42 1 C 44.761719 1 47 3.238281 47 6 L 47 26 C 47 28.761719 44.761719 31 42 31 L 6 31 C 3.238281 31 1 28.761719 1 26 Z M 1 6 " transform="matrix(1,0,0,1,152,50)"/>
</g>
</g>
<g clip-path="url(#clip13)" clip-rule="nonzero">
<g clip-path="url(#clip14)" clip-rule="nonzero">
<rect x="0" y="0" width="542" height="96" style="fill:rgb(38.039216%,50.588235%,100%);fill-opacity:0.490196;stroke:none;"/>
<path style="fill:none;stroke-width:2;stroke-linecap:butt;stroke-linejoin:miter;stroke:rgb(38.039216%,50.588235%,100%);stroke-opacity:1;stroke-miterlimit:10;" d="M 1 6 C 1 3.238281 3.238281 1 6 1 L 42 1 C 44.761719 1 47 3.238281 47 6 L 47 26 C 47 28.761719 44.761719 31 42 31 L 6 31 C 3.238281 31 1 28.761719 1 26 Z M 1 6 " transform="matrix(1,0,0,1,204,14)"/>
</g>
</g>
<g clip-path="url(#clip15)" clip-rule="nonzero">
<g clip-path="url(#clip16)" clip-rule="nonzero">
<rect x="0" y="0" width="542" height="96" style="fill:rgb(38.039216%,50.588235%,100%);fill-opacity:0.490196;stroke:none;"/>
<path style="fill:none;stroke-width:2;stroke-linecap:butt;stroke-linejoin:miter;stroke:rgb(38.039216%,50.588235%,100%);stroke-opacity:1;stroke-miterlimit:10;" d="M 1 6 C 1 3.238281 3.238281 1 6 1 L 42 1 C 44.761719 1 47 3.238281 47 6 L 47 26 C 47 28.761719 44.761719 31 42 31 L 6 31 C 3.238281 31 1 28.761719 1 26 Z M 1 6 " transform="matrix(1,0,0,1,204,50)"/>
</g>
</g>
<g clip-path="url(#clip17)" clip-rule="nonzero">
<g clip-path="url(#clip18)" clip-rule="nonzero">
<rect x="0" y="0" width="542" height="96" style="fill:rgb(38.039216%,50.588235%,100%);fill-opacity:0.490196;stroke:none;"/>
<path style="fill:none;stroke-width:2;stroke-linecap:butt;stroke-linejoin:miter;stroke:rgb(38.039216%,50.588235%,100%);stroke-opacity:1;stroke-miterlimit:10;" d="M 1 6 C 1 3.238281 3.238281 1 6 1 L 39 1 C 41.761719 1 44 3.238281 44 6 L 44 23 C 44 25.761719 41.761719 28 39 28 L 6 28 C 3.238281 28 1 25.761719 1 23 Z M 1 6 " transform="matrix(1,0,0,1,292,16)"/>
</g>
</g>
<g clip-path="url(#clip19)" clip-rule="nonzero">
<g clip-path="url(#clip20)" clip-rule="nonzero">
<rect x="0" y="0" width="542" height="96" style="fill:rgb(38.039216%,50.588235%,100%);fill-opacity:0.490196;stroke:none;"/>
<path style="fill:none;stroke-width:2;stroke-linecap:butt;stroke-linejoin:miter;stroke:rgb(38.039216%,50.588235%,100%);stroke-opacity:1;stroke-miterlimit:10;" d="M 1 6 C 1 3.238281 3.238281 1 6 1 L 39 1 C 41.761719 1 44 3.238281 44 6 L 44 23 C 44 25.761719 41.761719 28 39 28 L 6 28 C 3.238281 28 1 25.761719 1 23 Z M 1 6 " transform="matrix(1,0,0,1,292,51)"/>
</g>
</g>
<g clip-path="url(#clip21)" clip-rule="nonzero">
<g clip-path="url(#clip22)" clip-rule="nonzero">
<rect x="0" y="0" width="542" height="96" style="fill:rgb(38.039216%,50.588235%,100%);fill-opacity:0.490196;stroke:none;"/>
<path style="fill:none;stroke-width:2;stroke-linecap:butt;stroke-linejoin:miter;stroke:rgb(38.039216%,50.588235%,100%);stroke-opacity:1;stroke-miterlimit:10;" d="M 1 6 C 1 3.238281 3.238281 1 6 1 L 39 1 C 41.761719 1 44 3.238281 44 6 L 44 23 C 44 25.761719 41.761719 28 39 28 L 6 28 C 3.238281 28 1 25.761719 1 23 Z M 1 6 " transform="matrix(1,0,0,1,343,16)"/>
</g>
</g>
<g clip-path="url(#clip23)" clip-rule="nonzero">
<g clip-path="url(#clip24)" clip-rule="nonzero">
<rect x="0" y="0" width="542" height="96" style="fill:rgb(38.039216%,50.588235%,100%);fill-opacity:0.490196;stroke:none;"/>
<path style="fill:none;stroke-width:2;stroke-linecap:butt;stroke-linejoin:miter;stroke:rgb(38.039216%,50.588235%,100%);stroke-opacity:1;stroke-miterlimit:10;" d="M 1 6 C 1 3.238281 3.238281 1 6 1 L 39 1 C 41.761719 1 44 3.238281 44 6 L 44 23 C 44 25.761719 41.761719 28 39 28 L 6 28 C 3.238281 28 1 25.761719 1 23 Z M 1 6 " transform="matrix(1,0,0,1,343,51)"/>
</g>
</g>
<g clip-path="url(#clip25)" clip-rule="nonzero">
<g clip-path="url(#clip26)" clip-rule="nonzero">
<rect x="0" y="0" width="542" height="96" style="fill:rgb(38.039216%,50.588235%,100%);fill-opacity:0.490196;stroke:none;"/>
<path style="fill:none;stroke-width:2;stroke-linecap:butt;stroke-linejoin:miter;stroke:rgb(38.039216%,50.588235%,100%);stroke-opacity:1;stroke-miterlimit:10;" d="M 1 6 C 1 3.238281 3.238281 1 6 1 L 36 1 C 38.761719 1 41 3.238281 41 6 L 41 20 C 41 22.761719 38.761719 25 36 25 L 6 25 C 3.238281 25 1 22.761719 1 20 Z M 1 6 " transform="matrix(1,0,0,1,432,18)"/>
</g>
</g>
<g clip-path="url(#clip27)" clip-rule="nonzero">
<g clip-path="url(#clip28)" clip-rule="nonzero">
<rect x="0" y="0" width="542" height="96" style="fill:rgb(38.039216%,50.588235%,100%);fill-opacity:0.490196;stroke:none;"/>
<path style="fill:none;stroke-width:2;stroke-linecap:butt;stroke-linejoin:miter;stroke:rgb(38.039216%,50.588235%,100%);stroke-opacity:1;stroke-miterlimit:10;" d="M 1 6 C 1 3.238281 3.238281 1 6 1 L 36 1 C 38.761719 1 41 3.238281 41 6 L 41 20 C 41 22.761719 38.761719 25 36 25 L 6 25 C 3.238281 25 1 22.761719 1 20 Z M 1 6 " transform="matrix(1,0,0,1,432,52)"/>
</g>
</g>
<g clip-path="url(#clip29)" clip-rule="nonzero">
<g clip-path="url(#clip30)" clip-rule="nonzero">
<rect x="0" y="0" width="542" height="96" style="fill:rgb(38.039216%,50.588235%,100%);fill-opacity:0.490196;stroke:none;"/>
<path style="fill:none;stroke-width:2;stroke-linecap:butt;stroke-linejoin:miter;stroke:rgb(38.039216%,50.588235%,100%);stroke-opacity:1;stroke-miterlimit:10;" d="M 1 6 C 1 3.238281 3.238281 1 6 1 L 36 1 C 38.761719 1 41 3.238281 41 6 L 41 20 C 41 22.761719 38.761719 25 36 25 L 6 25 C 3.238281 25 1 22.761719 1 20 Z M 1 6 " transform="matrix(1,0,0,1,482,18)"/>
</g>
</g>
<g clip-path="url(#clip31)" clip-rule="nonzero">
<g clip-path="url(#clip32)" clip-rule="nonzero">
<rect x="0" y="0" width="542" height="96" style="fill:rgb(38.039216%,50.588235%,100%);fill-opacity:0.490196;stroke:none;"/>
<path style="fill:none;stroke-width:2;stroke-linecap:butt;stroke-linejoin:miter;stroke:rgb(38.039216%,50.588235%,100%);stroke-opacity:1;stroke-miterlimit:10;" d="M 1 6 C 1 3.238281 3.238281 1 6 1 L 36 1 C 38.761719 1 41 3.238281 41 6 L 41 20 C 41 22.761719 38.761719 25 36 25 L 6 25 C 3.238281 25 1 22.761719 1 20 Z M 1 6 " transform="matrix(1,0,0,1,482,52)"/>
</g>
</g>
</g>
</svg>
