<?xml version="1.0" encoding="UTF-8"?>
<svg xmlns="http://www.w3.org/2000/svg" xmlns:xlink="http://www.w3.org/1999/xlink" width="542pt" height="96pt" viewBox="0 0 542 96" version="1.1">
<g id="surface2">
<path style="fill:none;stroke-width:1.5;stroke-linecap:butt;stroke-linejoin:miter;stroke:rgb(0%,0%,0%);stroke-opacity:0.266667;stroke-dasharray:10,4;stroke-dashoffset:1;stroke-miterlimit:10;" d="M 0.75 0.75 L 127.25 0.75 L 127.25 95.25 L 0.75 95.25 Z M 0.75 0.75 "/>
<path style="fill:none;stroke-width:1.5;stroke-linecap:butt;stroke-linejoin:miter;stroke:rgb(0%,0%,0%);stroke-opacity:0.2;stroke-dasharray:10,4;stroke-dashoffset:1;stroke-miterlimit:10;" d="M 10 10 L 118 10 L 118 86 L 10 86 Z M 10 10 "/>
<path style="fill:none;stroke-width:1.5;stroke-linecap:butt;stroke-linejoin:miter;stroke:rgb(0%,0%,0%);stroke-opacity:0.266667;stroke-dasharray:10,4;stroke-dashoffset:1;stroke-miterlimit:10;" d="M 138.75 0.75 L 265.25 0.75 L 265.25 95.25 L 138.75 95.25 Z M 138.75 0.75 "/>
<path style="fill:none;stroke-width:1.5;stroke-linecap:butt;stroke-linejoin:miter;stroke:rgb(0%,0%,0%);stroke-opacity:0.2;stroke-dasharray:10,4;stroke-dashoffset:1;stroke-miterlimit:10;" d="M 148 10 L 256 10 L 256 86 L 148 86 Z M 148 10 "/>
<path style="fill:none;stroke-width:1.5;stroke-linecap:butt;stroke-linejoin:miter;stroke:rgb(0%,0%,0%);stroke-opacity:0.266667;stroke-dasharray:10,4;stroke-dashoffset:1;stroke-miterlimit:10;" d="M 276.75 0.75 L 403.25 0.75 L 403.25 95.25 L 276.75 95.25 Z M 276.75 0.75 "/>
<path style="fill:none;stroke-width:1.5;stroke-linecap:butt;stroke-linejoin:miter;stroke:rgb(0%,0%,0%);stroke-opacity:0.2;stroke-dasharray:10,4;stroke-dashoffset:1;stroke-miterlimit:10;" d="M 286 10 L 394 10 L 394 86 L 286 86 Z M 286 10 "/>
<path style="fill:none;stroke-width:1.5;stroke-linecap:butt;stroke-linejoin:miter;stroke:rgb(0%,0%,0%);stroke-opacity:0.266667;stroke-dasharray:10,4;stroke-dashoffset:1;stroke-miterlimit:10;" d="M 414.75 0.75 L 541.25 0.75 L 541.25 95.25 L 414.75 95.25 Z M 414.75 0.75 "/>
<path style="fill:none;stroke-width:1.5;stroke-linecap:butt;stroke-linejoin:miter;stroke:rgb(0%,0%,0%);stroke-opacity:0.2;stroke-dasharray:10,4;stroke-dashoffset:1;stroke-miterlimit:10;" d="M 424 10 L 532 10 L 532 86 L 424 86 Z M 424 10 "/>
<path style="fill:none;stroke-width:1.5;stroke-linecap:butt;stroke-linejoin:miter;stroke:rgb(38.039216%,50.588235%,100%);stroke-opacity:1;stroke-miterlimit:10;" d="M 0 5 C 0 2.238281 2.238281 0 5 0 L 44 0 C 46.761719 0 49 2.238281 49 5 L 49 28 C 49 30.761719 46.761719 33 44 33 L 5 33 C 2.238281 33 0 30.761719 0 28 Z M 0 5 " transform="matrix(1,0,0,1,65,49)"/>
<path style=" stroke:none;fill-rule:nonzero;fill:rgb(38.039216%,50.588235%,100%);fill-opacity:0.490196;" d="M 65 54 C 65 51.238281 67.238281 49 70 49 L 109 49 C 111.761719 49 114 51.238281 114 54 L 114 77 C 114 79.761719 111.761719 82 109 82 L 70 82 C 67.238281 82 65 79.761719 65 77 Z M 65 54 "/>
<path style="fill:none;stroke-width:1.5;stroke-linecap:butt;stroke-linejoin:miter;stroke:rgb(38.039216%,50.588235%,100%);stroke-opacity:1;stroke-miterlimit:10;" d="M 0 5 C 0 2.238281 2.238281 0 5 0 L 44 0 C 46.761719 0 49 2.238281 49 5 L 49 28 C 49 30.761719 46.761719 33 44 33 L 5 33 C 2.238281 33 0 30.761719 0 28 Z M 0 5 " transform="matrix(1,0,0,1,65,12)"/>
<path style=" stroke:none;fill-rule:nonzero;fill:rgb(38.039216%,50.588235%,100%);fill-opacity:0.490196;" d="M 65 17 C 65 14.238281 67.238281 12 70 12 L 109 12 C 111.761719 12 114 14.238281 114 17 L 114 40 C 114 42.761719 111.761719 45 109 45 L 70 45 C 67.238281 45 65 42.761719 65 40 Z M 65 17 "/>
<path style="fill:none;stroke-width:1.5;stroke-linecap:butt;stroke-linejoin:miter;stroke:rgb(38.039216%,50.588235%,100%);stroke-opacity:1;stroke-miterlimit:10;" d="M 0 5 C 0 2.238281 2.238281 0 5 0 L 44 0 C 46.761719 0 49 2.238281 49 5 L 49 65 C 49 67.761719 46.761719 70 44 70 L 5 70 C 2.238281 70 0 67.761719 0 65 Z M 0 5 " transform="matrix(1,0,0,1,12,12)"/>
<path style=" stroke:none;fill-rule:nonzero;fill:rgb(38.039216%,50.588235%,100%);fill-opacity:0.490196;" d="M 12 17 C 12 14.238281 14.238281 12 17 12 L 56 12 C 58.761719 12 61 14.238281 61 17 L 61 77 C 61 79.761719 58.761719 82 56 82 L 17 82 C 14.238281 82 12 79.761719 12 77 Z M 12 17 "/>
<path style="fill:none;stroke-width:1.5;stroke-linecap:butt;stroke-linejoin:miter;stroke:rgb(38.039216%,50.588235%,100%);stroke-opacity:1;stroke-miterlimit:10;" d="M 0 5 C 0 2.238281 2.238281 0 5 0 L 41 0 C 43.761719 0 46 2.238281 46 5 L 46 25 C 46 27.761719 43.761719 30 41 30 L 5 30 C 2.238281 30 0 27.761719 0 25 Z M 0 5 " transform="matrix(1,0,0,1,204,50)"/>
<path style=" stroke:none;fill-rule:nonzero;fill:rgb(38.039216%,50.588235%,100%);fill-opacity:0.490196;" d="M 204 55 C 204 52.238281 206.238281 50 209 50 L 245 50 C 247.761719 50 250 52.238281 250 55 L 250 75 C 250 77.761719 247.761719 80 245 80 L 209 80 C 206.238281 80 204 77.761719 204 75 Z M 204 55 "/>
<path style="fill:none;stroke-width:1.5;stroke-linecap:butt;stroke-linejoin:miter;stroke:rgb(38.039216%,50.588235%,100%);stroke-opacity:1;stroke-miterlimit:10;" d="M 0 5 C 0 2.238281 2.238281 0 5 0 L 41 0 C 43.761719 0 46 2.238281 46 5 L 46 25 C 46 27.761719 43.761719 30 41 30 L 5 30 C 2.238281 30 0 27.761719 0 25 Z M 0 5 " transform="matrix(1,0,0,1,204,14)"/>
<path style=" stroke:none;fill-rule:nonzero;fill:rgb(38.039216%,50.588235%,100%);fill-opacity:0.490196;" d="M 204 19 C 204 16.238281 206.238281 14 209 14 L 245 14 C 247.761719 14 250 16.238281 250 19 L 250 39 C 250 41.761719 247.761719 44 245 44 L 209 44 C 206.238281 44 204 41.761719 204 39 Z M 204 19 "/>
<path style="fill:none;stroke-width:1.5;stroke-linecap:butt;stroke-linejoin:miter;stroke:rgb(38.039216%,50.588235%,100%);stroke-opacity:1;stroke-miterlimit:10;" d="M 0 5 C 0 2.238281 2.238281 0 5 0 L 41 0 C 43.761719 0 46 2.238281 46 5 L 46 61 C 46 63.761719 43.761719 66 41 66 L 5 66 C 2.238281 66 0 63.761719 0 61 Z M 0 5 " transform="matrix(1,0,0,1,152,14)"/>
<path style=" stroke:none;fill-rule:nonzero;fill:rgb(38.039216%,50.588235%,100%);fill-opacity:0.490196;" d="M 152 19 C 152 16.238281 154.238281 14 157 14 L 193 14 C 195.761719 14 198 16.238281 198 19 L 198 75 C 198 77.761719 195.761719 80 193 80 L 157 80 C 154.238281 80 152 77.761719 152 75 Z M 152 19 "/>
<path style="fill:none;stroke-width:1.5;stroke-linecap:butt;stroke-linejoin:miter;stroke:rgb(38.039216%,50.588235%,100%);stroke-opacity:1;stroke-miterlimit:10;" d="M 0 5 C 0 2.238281 2.238281 0 5 0 L 38 0 C 40.761719 0 43 2.238281 43 5 L 43 22 C 43 24.761719 40.761719 27 38 27 L 5 27 C 2.238281 27 0 24.761719 0 22 Z M 0 5 " transform="matrix(1,0,0,1,343,51)"/>
<path style=" stroke:none;fill-rule:nonzero;fill:rgb(38.039216%,50.588235%,100%);fill-opacity:0.490196;" d="M 343 56 C 343 53.238281 345.238281 51 348 51 L 381 51 C 383.761719 51 386 53.238281 386 56 L 386 73 C 386 75.761719 383.761719 78 381 78 L 348 78 C 345.238281 78 343 75.761719 343 73 Z M 343 56 "/>
<path style="fill:none;stroke-width:1.5;stroke-linecap:butt;stroke-linejoin:miter;stroke:rgb(38.039216%,50.588235%,100%);stroke-opacity:1;stroke-miterlimit:10;" d="M 0 5 C 0 2.238281 2.238281 0 5 0 L 38 0 C 40.761719 0 43 2.238281 43 5 L 43 22 C 43 24.761719 40.761719 27 38 27 L 5 27 C 2.238281 27 0 24.761719 0 22 Z M 0 5 " transform="matrix(1,0,0,1,343,16)"/>
<path style=" stroke:none;fill-rule:nonzero;fill:rgb(38.039216%,50.588235%,100%);fill-opacity:0.490196;" d="M 343 21 C 343 18.238281 345.238281 16 348 16 L 381 16 C 383.761719 16 386 18.238281 386 21 L 386 38 C 386 40.761719 383.761719 43 381 43 L 348 43 C 345.238281 43 343 40.761719 343 38 Z M 343 21 "/>
<path style="fill:none;stroke-width:1.5;stroke-linecap:butt;stroke-linejoin:miter;stroke:rgb(38.039216%,50.588235%,100%);stroke-opacity:1;stroke-miterlimit:10;" d="M 0 5 C 0 2.238281 2.238281 0 5 0 L 38 0 C 40.761719 0 43 2.238281 43 5 L 43 57 C 43 59.761719 40.761719 62 38 62 L 5 62 C 2.238281 62 0 59.761719 0 57 Z M 0 5 " transform="matrix(1,0,0,1,292,16)"/>
<path style=" stroke:none;fill-rule:nonzero;fill:rgb(38.039216%,50.588235%,100%);fill-opacity:0.490196;" d="M 292 21 C 292 18.238281 294.238281 16 297 16 L 330 16 C 332.761719 16 335 18.238281 335 21 L 335 73 C 335 75.761719 332.761719 78 330 78 L 297 78 C 294.238281 78 292 75.761719 292 73 Z M 292 21 "/>
<path style="fill:none;stroke-width:1.5;stroke-linecap:butt;stroke-linejoin:miter;stroke:rgb(38.039216%,50.588235%,100%);stroke-opacity:1;stroke-miterlimit:10;" d="M 0 5 C 0 2.238281 2.238281 0 5 0 L 35 0 C 37.761719 0 40 2.238281 40 5 L 40 19 C 40 21.761719 37.761719 24 35 24 L 5 24 C 2.238281 24 0 21.761719 0 19 Z M 0 5 " transform="matrix(1,0,0,1,482,52)"/>
<path style=" stroke:none;fill-rule:nonzero;fill:rgb(38.039216%,50.588235%,100%);fill-opacity:0.490196;" d="M 482 57 C 482 54.238281 484.238281 52 487 52 L 517 52 C 519.761719 52 522 54.238281 522 57 L 522 71 C 522 73.761719 519.761719 76 517 76 L 487 76 C 484.238281 76 482 73.761719 482 71 Z M 482 57 "/>
<path style="fill:none;stroke-width:1.5;stroke-linecap:butt;stroke-linejoin:miter;stroke:rgb(38.039216%,50.588235%,100%);stroke-opacity:1;stroke-miterlimit:10;" d="M 0 5 C 0 2.238281 2.238281 0 5 0 L 35 0 C 37.761719 0 40 2.238281 40 5 L 40 19 C 40 21.761719 37.761719 24 35 24 L 5 24 C 2.238281 24 0 21.761719 0 19 Z M 0 5 " transform="matrix(1,0,0,1,482,18)"/>
<path style=" stroke:none;fill-rule:nonzero;fill:rgb(38.039216%,50.588235%,100%);fill-opacity:0.490196;" d="M 482 23 C 482 20.238281 484.238281 18 487 18 L 517 18 C 519.761719 18 522 20.238281 522 23 L 522 37 C 522 39.761719 519.761719 42 517 42 L 487 42 C 484.238281 42 482 39.761719 482 37 Z M 482 23 "/>
<path style="fill:none;stroke-width:1.5;stroke-linecap:butt;stroke-linejoin:miter;stroke:rgb(38.039216%,50.588235%,100%);stroke-opacity:1;stroke-miterlimit:10;" d="M 0 5 C 0 2.238281 2.238281 0 5 0 L 35 0 C 37.761719 0 40 2.238281 40 5 L 40 53 C 40 55.761719 37.761719 58 35 58 L 5 58 C 2.238281 58 0 55.761719 0 53 Z M 0 5 " transform="matrix(1,0,0,1,432,18)"/>
<path style=" stroke:none;fill-rule:nonzero;fill:rgb(38.039216%,50.588235%,100%);fill-opacity:0.490196;" d="M 432 23 C 432 20.238281 434.238281 18 437 18 L 467 18 C 469.761719 18 472 20.238281 472 23 L 472 71 C 472 73.761719 469.761719 76 467 76 L 437 76 C 434.238281 76 432 73.761719 432 71 Z M 432 23 "/>
</g>
</svg>
