<?xml version="1.0" encoding="UTF-8"?>
<svg xmlns="http://www.w3.org/2000/svg" xmlns:xlink="http://www.w3.org/1999/xlink" width="266pt" height="96pt" viewBox="0 0 266 96" version="1.1">
<defs>
<clipPath id="clip1">
  <path d="M 0 0 L 54 0 L 54 38 L 0 38 Z M 0 0 "/>
</clipPath>
<clipPath id="clip2">
  <path d="M 2 2 L 52 2 L 52 36 L 2 36 Z M 2 2 "/>
</clipPath>
<clipPath id="clip3">
  <path d="M 2 7 C 2 4.238281 4.238281 2 7 2 L 47 2 C 49.761719 2 52 4.238281 52 7 L 52 31 C 52 33.761719 49.761719 36 47 36 L 7 36 C 4.238281 36 2 33.761719 2 31 Z M 2 7 "/>
</clipPath>
<clipPath id="clip4">
  <path d="M 10 10 L 64 10 L 64 48 L 10 48 Z M 10 10 "/>
</clipPath>
<clipPath id="clip5">
  <path d="M 12 12 L 62 12 L 62 46 L 12 46 Z M 12 12 "/>
</clipPath>
<clipPath id="clip6">
  <path d="M 12 17 C 12 14.238281 14.238281 12 17 12 L 57 12 C 59.761719 12 62 14.238281 62 17 L 62 41 C 62 43.761719 59.761719 46 57 46 L 17 46 C 14.238281 46 12 43.761719 12 41 Z M 12 17 "/>
</clipPath>
<clipPath id="clip7">
  <path d="M 0 0 L 54 0 L 54 38 L 0 38 Z M 0 0 "/>
</clipPath>
<clipPath id="clip8">
  <path d="M 2 2 L 52 2 L 52 36 L 2 36 Z M 2 2 "/>
</clipPath>
<clipPath id="clip9">
  <path d="M 2 7 C 2 4.238281 4.238281 2 7 2 L 47 2 C 49.761719 2 52 4.238281 52 7 L 52 31 C 52 33.761719 49.761719 36 47 36 L 7 36 C 4.238281 36 2 33.761719 2 31 Z M 2 7 "/>
</clipPath>
<clipPath id="clip10">
  <path d="M 10 48 L 64 48 L 64 86 L 10 86 Z M 10 48 "/>
</clipPath>
<clipPath id="clip11">
  <path d="M 12 50 L 62 50 L 62 84 L 12 84 Z M 12 50 "/>
</clipPath>
<clipPath id="clip12">
  <path d="M 12 55 C 12 52.238281 14.238281 50 17 50 L 57 50 C 59.761719 50 62 52.238281 62 55 L 62 79 C 62 81.761719 59.761719 84 57 84 L 17 84 C 14.238281 84 12 81.761719 12 79 Z M 12 55 "/>
</clipPath>
<clipPath id="clip13">
  <path d="M 0 0 L 54 0 L 54 25 L 0 25 Z M 0 0 "/>
</clipPath>
<clipPath id="clip14">
  <path d="M 2 2 L 52 2 L 52 23 L 2 23 Z M 2 2 "/>
</clipPath>
<clipPath id="clip15">
  <path d="M 2 7 C 2 4.238281 4.238281 2 7 2 L 47 2 C 49.761719 2 52 4.238281 52 7 L 52 18 C 52 20.761719 49.761719 23 47 23 L 7 23 C 4.238281 23 2 20.761719 2 18 Z M 2 7 "/>
</clipPath>
<clipPath id="clip16">
  <path d="M 64 10 L 118 10 L 118 35 L 64 35 Z M 64 10 "/>
</clipPath>
<clipPath id="clip17">
  <path d="M 66 12 L 116 12 L 116 33 L 66 33 Z M 66 12 "/>
</clipPath>
<clipPath id="clip18">
  <path d="M 66 17 C 66 14.238281 68.238281 12 71 12 L 111 12 C 113.761719 12 116 14.238281 116 17 L 116 28 C 116 30.761719 113.761719 33 111 33 L 71 33 C 68.238281 33 66 30.761719 66 28 Z M 66 17 "/>
</clipPath>
<clipPath id="clip19">
  <path d="M 0 0 L 54 0 L 54 25 L 0 25 Z M 0 0 "/>
</clipPath>
<clipPath id="clip20">
  <path d="M 2 2 L 52 2 L 52 23 L 2 23 Z M 2 2 "/>
</clipPath>
<clipPath id="clip21">
  <path d="M 2 7 C 2 4.238281 4.238281 2 7 2 L 47 2 C 49.761719 2 52 4.238281 52 7 L 52 18 C 52 20.761719 49.761719 23 47 23 L 7 23 C 4.238281 23 2 20.761719 2 18 Z M 2 7 "/>
</clipPath>
<clipPath id="clip22">
  <path d="M 64 35 L 118 35 L 118 60 L 64 60 Z M 64 35 "/>
</clipPath>
<clipPath id="clip23">
  <path d="M 66 37 L 116 37 L 116 58 L 66 58 Z M 66 37 "/>
</clipPath>
<clipPath id="clip24">
  <path d="M 66 42 C 66 39.238281 68.238281 37 71 37 L 111 37 C 113.761719 37 116 39.238281 116 42 L 116 53 C 116 55.761719 113.761719 58 111 58 L 71 58 C 68.238281 58 66 55.761719 66 53 Z M 66 42 "/>
</clipPath>
<clipPath id="clip25">
  <path d="M 0 0 L 54 0 L 54 25 L 0 25 Z M 0 0 "/>
</clipPath>
<clipPath id="clip26">
  <path d="M 2 2 L 52 2 L 52 23 L 2 23 Z M 2 2 "/>
</clipPath>
<clipPath id="clip27">
  <path d="M 2 7 C 2 4.238281 4.238281 2 7 2 L 47 2 C 49.761719 2 52 4.238281 52 7 L 52 18 C 52 20.761719 49.761719 23 47 23 L 7 23 C 4.238281 23 2 20.761719 2 18 Z M 2 7 "/>
</clipPath>
<clipPath id="clip28">
  <path d="M 64 60 L 118 60 L 118 85 L 64 85 Z M 64 60 "/>
</clipPath>
<clipPath id="clip29">
  <path d="M 66 62 L 116 62 L 116 83 L 66 83 Z M 66 62 "/>
</clipPath>
<clipPath id="clip30">
  <path d="M 66 67 C 66 64.238281 68.238281 62 71 62 L 111 62 C 113.761719 62 116 64.238281 116 67 L 116 78 C 116 80.761719 113.761719 83 111 83 L 71 83 C 68.238281 83 66 80.761719 66 78 Z M 66 67 "/>
</clipPath>
<clipPath id="clip31">
  <path d="M 138 0 L 192 0 L 192 38 L 138 38 Z M 138 0 "/>
</clipPath>
<clipPath id="clip32">
  <path d="M 140 2 L 190 2 L 190 36 L 140 36 Z M 140 2 "/>
</clipPath>
<clipPath id="clip33">
  <path d="M 140 7 C 140 4.238281 142.238281 2 145 2 L 185 2 C 187.761719 2 190 4.238281 190 7 L 190 31 C 190 33.761719 187.761719 36 185 36 L 145 36 C 142.238281 36 140 33.761719 140 31 Z M 140 7 "/>
</clipPath>
<clipPath id="clip34">
  <path d="M 148 10 L 202 10 L 202 48 L 148 48 Z M 148 10 "/>
</clipPath>
<clipPath id="clip35">
  <path d="M 150 12 L 200 12 L 200 46 L 150 46 Z M 150 12 "/>
</clipPath>
<clipPath id="clip36">
  <path d="M 150 17 C 150 14.238281 152.238281 12 155 12 L 195 12 C 197.761719 12 200 14.238281 200 17 L 200 41 C 200 43.761719 197.761719 46 195 46 L 155 46 C 152.238281 46 150 43.761719 150 41 Z M 150 17 "/>
</clipPath>
<clipPath id="clip37">
  <path d="M 138 0 L 192 0 L 192 38 L 138 38 Z M 138 0 "/>
</clipPath>
<clipPath id="clip38">
  <path d="M 140 2 L 190 2 L 190 36 L 140 36 Z M 140 2 "/>
</clipPath>
<clipPath id="clip39">
  <path d="M 140 7 C 140 4.238281 142.238281 2 145 2 L 185 2 C 187.761719 2 190 4.238281 190 7 L 190 31 C 190 33.761719 187.761719 36 185 36 L 145 36 C 142.238281 36 140 33.761719 140 31 Z M 140 7 "/>
</clipPath>
<clipPath id="clip40">
  <path d="M 202 10 L 256 10 L 256 48 L 202 48 Z M 202 10 "/>
</clipPath>
<clipPath id="clip41">
  <path d="M 204 12 L 254 12 L 254 46 L 204 46 Z M 204 12 "/>
</clipPath>
<clipPath id="clip42">
  <path d="M 204 17 C 204 14.238281 206.238281 12 209 12 L 249 12 C 251.761719 12 254 14.238281 254 17 L 254 41 C 254 43.761719 251.761719 46 249 46 L 209 46 C 206.238281 46 204 43.761719 204 41 Z M 204 17 "/>
</clipPath>
<clipPath id="clip43">
  <path d="M 138 0 L 174 0 L 174 38 L 138 38 Z M 138 0 "/>
</clipPath>
<clipPath id="clip44">
  <path d="M 140 2 L 172 2 L 172 36 L 140 36 Z M 140 2 "/>
</clipPath>
<clipPath id="clip45">
  <path d="M 140 7 C 140 4.238281 142.238281 2 145 2 L 167 2 C 169.761719 2 172 4.238281 172 7 L 172 31 C 172 33.761719 169.761719 36 167 36 L 145 36 C 142.238281 36 140 33.761719 140 31 Z M 140 7 "/>
</clipPath>
<clipPath id="clip46">
  <path d="M 148 48 L 184 48 L 184 86 L 148 86 Z M 148 48 "/>
</clipPath>
<clipPath id="clip47">
  <path d="M 150 50 L 182 50 L 182 84 L 150 84 Z M 150 50 "/>
</clipPath>
<clipPath id="clip48">
  <path d="M 150 55 C 150 52.238281 152.238281 50 155 50 L 177 50 C 179.761719 50 182 52.238281 182 55 L 182 79 C 182 81.761719 179.761719 84 177 84 L 155 84 C 152.238281 84 150 81.761719 150 79 Z M 150 55 "/>
</clipPath>
<clipPath id="clip49">
  <path d="M 138 0 L 174 0 L 174 38 L 138 38 Z M 138 0 "/>
</clipPath>
<clipPath id="clip50">
  <path d="M 140 2 L 172 2 L 172 36 L 140 36 Z M 140 2 "/>
</clipPath>
<clipPath id="clip51">
  <path d="M 140 7 C 140 4.238281 142.238281 2 145 2 L 167 2 C 169.761719 2 172 4.238281 172 7 L 172 31 C 172 33.761719 169.761719 36 167 36 L 145 36 C 142.238281 36 140 33.761719 140 31 Z M 140 7 "/>
</clipPath>
<clipPath id="clip52">
  <path d="M 184 48 L 220 48 L 220 86 L 184 86 Z M 184 48 "/>
</clipPath>
<clipPath id="clip53">
  <path d="M 186 50 L 218 50 L 218 84 L 186 84 Z M 186 50 "/>
</clipPath>
<clipPath id="clip54">
  <path d="M 186 55 C 186 52.238281 188.238281 50 191 50 L 213 50 C 215.761719 50 218 52.238281 218 55 L 218 79 C 218 81.761719 215.761719 84 213 84 L 191 84 C 188.238281 84 186 81.761719 186 79 Z M 186 55 "/>
</clipPath>
<clipPath id="clip55">
  <path d="M 138 0 L 174 0 L 174 38 L 138 38 Z M 138 0 "/>
</clipPath>
<clipPath id="clip56">
  <path d="M 140 2 L 172 2 L 172 36 L 140 36 Z M 140 2 "/>
</clipPath>
<clipPath id="clip57">
  <path d="M 140 7 C 140 4.238281 142.238281 2 145 2 L 167 2 C 169.761719 2 172 4.238281 172 7 L 172 31 C 172 33.761719 169.761719 36 167 36 L 145 36 C 142.238281 36 140 33.761719 140 31 Z M 140 7 "/>
</clipPath>
<clipPath id="clip58">
  <path d="M 220 48 L 256 48 L 256 86 L 220 86 Z M 220 48 "/>
</clipPath>
<clipPath id="clip59">
  <path d="M 222 50 L 254 50 L 254 84 L 222 84 Z M 222 50 "/>
</clipPath>
<clipPath id="clip60">
  <path d="M 222 55 C 222 52.238281 224.238281 50 227 50 L 249 50 C 251.761719 50 254 52.238281 254 55 L 254 79 C 254 81.761719 251.761719 84 249 84 L 227 84 C 224.238281 84 222 81.761719 222 79 Z M 222 55 "/>
</clipPath>
</defs>
<g id="surface2">
<path style="fill:none;stroke-width:1.5;stroke-linecap:butt;stroke-linejoin:miter;stroke:rgb(0%,0%,0%);stroke-opacity:0.266667;stroke-dasharray:10,4;stroke-dashoffset:1;stroke-miterlimit:10;" d="M 0.75 0.75 L 127.25 0.75 L 127.25 95.25 L 0.75 95.25 Z M 0.75 0.75 "/>
<path style="fill:none;stroke-width:1.5;stroke-linecap:butt;stroke-linejoin:miter;stroke:rgb(0%,0%,0%);stroke-opacity:0.2;stroke-dasharray:10,4;stroke-dashoffset:1;stroke-miterlimit:10;" d="M 10 10 L 118 10 L 118 86 L 10 86 Z M 10 10 "/>
<path style="fill:none;stroke-width:1.5;stroke-linecap:butt;stroke-linejoin:miter;stroke:rgb(0%,0%,0%);stroke-opacity:0.266667;stroke-dasharray:10,4;stroke-dashoffset:1;stroke-miterlimit:10;" d="M 138.75 0.75 L 265.25 0.75 L 265.25 95.25 L 138.75 95.25 Z M 138.75 0.75 "/>
<path style="fill:none;stroke-width:1.5;stroke-linecap:butt;stroke-linejoin:miter;stroke:rgb(0%,0%,0%);stroke-opacity:0.2;stroke-dasharray:10,4;stroke-dashoffset:1;stroke-miterlimit:10;" d="M 148 10 L 256 10 L 256 86 L 148 86 Z M 148 10 "/>
<g clip-path="url(#clip1)" clip-rule="nonzero">
<path style="fill:none;stroke-width:2;stroke-linecap:butt;stroke-linejoin:miter;stroke:rgb(38.039216%,50.588235%,100%);stroke-opacity:1;stroke-miterlimit:10;" d="M 0 5 C 0 2.238281 2.238281 0 5 0 L 45 0 C 47.761719 0 50 2.238281 50 5 L 50 29 C 50 31.761719 47.761719 34 45 34 L 5 34 C 2.238281 34 0 31.761719 0 29 Z M 0 5 " transform="matrix(1,0,0,1,2,2)"/>
</g>
<path style=" stroke:none;fill-rule:nonzero;fill:rgb(38.039216%,50.588235%,100%);fill-opacity:0.490196;" d="M 2 7 C 2 4.238281 4.238281 2 7 2 L 47 2 C 49.761719 2 52 4.238281 52 7 L 52 31 C 52 33.761719 49.761719 36 47 36 L 7 36 C 4.238281 36 2 33.761719 2 31 Z M 2 7 "/>
<g clip-path="url(#clip2)" clip-rule="nonzero">
<g clip-path="url(#clip3)" clip-rule="nonzero">
<path style="fill:none;stroke-width:2;stroke-linecap:butt;stroke-linejoin:miter;stroke:rgb(38.039216%,50.588235%,100%);stroke-opacity:1;stroke-miterlimit:10;" d="M 0 5 C 0 2.238281 2.238281 0 5 0 L 45 0 C 47.761719 0 50 2.238281 50 5 L 50 29 C 50 31.761719 47.761719 34 45 34 L 5 34 C 2.238281 34 0 31.761719 0 29 Z M 0 5 " transform="matrix(1,0,0,1,2,2)"/>
</g>
</g>
<g clip-path="url(#clip4)" clip-rule="nonzero">
<path style="fill:none;stroke-width:2;stroke-linecap:butt;stroke-linejoin:miter;stroke:rgb(38.039216%,50.588235%,100%);stroke-opacity:1;stroke-miterlimit:10;" d="M 0 5 C 0 2.238281 2.238281 0 5 0 L 45 0 C 47.761719 0 50 2.238281 50 5 L 50 29 C 50 31.761719 47.761719 34 45 34 L 5 34 C 2.238281 34 0 31.761719 0 29 Z M 0 5 " transform="matrix(1,0,0,1,12,12)"/>
</g>
<path style=" stroke:none;fill-rule:nonzero;fill:rgb(38.039216%,50.588235%,100%);fill-opacity:0.490196;" d="M 12 17 C 12 14.238281 14.238281 12 17 12 L 57 12 C 59.761719 12 62 14.238281 62 17 L 62 41 C 62 43.761719 59.761719 46 57 46 L 17 46 C 14.238281 46 12 43.761719 12 41 Z M 12 17 "/>
<g clip-path="url(#clip5)" clip-rule="nonzero">
<g clip-path="url(#clip6)" clip-rule="nonzero">
<path style="fill:none;stroke-width:2;stroke-linecap:butt;stroke-linejoin:miter;stroke:rgb(38.039216%,50.588235%,100%);stroke-opacity:1;stroke-miterlimit:10;" d="M 0 5 C 0 2.238281 2.238281 0 5 0 L 45 0 C 47.761719 0 50 2.238281 50 5 L 50 29 C 50 31.761719 47.761719 34 45 34 L 5 34 C 2.238281 34 0 31.761719 0 29 Z M 0 5 " transform="matrix(1,0,0,1,12,12)"/>
</g>
</g>
<g clip-path="url(#clip7)" clip-rule="nonzero">
<path style="fill:none;stroke-width:2;stroke-linecap:butt;stroke-linejoin:miter;stroke:rgb(38.039216%,50.588235%,100%);stroke-opacity:1;stroke-miterlimit:10;" d="M 0 5 C 0 2.238281 2.238281 0 5 0 L 45 0 C 47.761719 0 50 2.238281 50 5 L 50 29 C 50 31.761719 47.761719 34 45 34 L 5 34 C 2.238281 34 0 31.761719 0 29 Z M 0 5 " transform="matrix(1,0,0,1,2,2)"/>
</g>
<path style=" stroke:none;fill-rule:nonzero;fill:rgb(38.039216%,50.588235%,100%);fill-opacity:0.490196;" d="M 2 7 C 2 4.238281 4.238281 2 7 2 L 47 2 C 49.761719 2 52 4.238281 52 7 L 52 31 C 52 33.761719 49.761719 36 47 36 L 7 36 C 4.238281 36 2 33.761719 2 31 Z M 2 7 "/>
<g clip-path="url(#clip8)" clip-rule="nonzero">
<g clip-path="url(#clip9)" clip-rule="nonzero">
<path style="fill:none;stroke-width:2;stroke-linecap:butt;stroke-linejoin:miter;stroke:rgb(38.039216%,50.588235%,100%);stroke-opacity:1;stroke-miterlimit:10;" d="M 0 5 C 0 2.238281 2.238281 0 5 0 L 45 0 C 47.761719 0 50 2.238281 50 5 L 50 29 C 50 31.761719 47.761719 34 45 34 L 5 34 C 2.238281 34 0 31.761719 0 29 Z M 0 5 " transform="matrix(1,0,0,1,2,2)"/>
</g>
</g>
<g clip-path="url(#clip10)" clip-rule="nonzero">
<path style="fill:none;stroke-width:2;stroke-linecap:butt;stroke-linejoin:miter;stroke:rgb(38.039216%,50.588235%,100%);stroke-opacity:1;stroke-miterlimit:10;" d="M 0 5 C 0 2.238281 2.238281 0 5 0 L 45 0 C 47.761719 0 50 2.238281 50 5 L 50 29 C 50 31.761719 47.761719 34 45 34 L 5 34 C 2.238281 34 0 31.761719 0 29 Z M 0 5 " transform="matrix(1,0,0,1,12,50)"/>
</g>
<path style=" stroke:none;fill-rule:nonzero;fill:rgb(38.039216%,50.588235%,100%);fill-opacity:0.490196;" d="M 12 55 C 12 52.238281 14.238281 50 17 50 L 57 50 C 59.761719 50 62 52.238281 62 55 L 62 79 C 62 81.761719 59.761719 84 57 84 L 17 84 C 14.238281 84 12 81.761719 12 79 Z M 12 55 "/>
<g clip-path="url(#clip11)" clip-rule="nonzero">
<g clip-path="url(#clip12)" clip-rule="nonzero">
<path style="fill:none;stroke-width:2;stroke-linecap:butt;stroke-linejoin:miter;stroke:rgb(38.039216%,50.588235%,100%);stroke-opacity:1;stroke-miterlimit:10;" d="M 0 5 C 0 2.238281 2.238281 0 5 0 L 45 0 C 47.761719 0 50 2.238281 50 5 L 50 29 C 50 31.761719 47.761719 34 45 34 L 5 34 C 2.238281 34 0 31.761719 0 29 Z M 0 5 " transform="matrix(1,0,0,1,12,50)"/>
</g>
</g>
<g clip-path="url(#clip13)" clip-rule="nonzero">
<path style="fill:none;stroke-width:2;stroke-linecap:butt;stroke-linejoin:miter;stroke:rgb(38.039216%,50.588235%,100%);stroke-opacity:1;stroke-miterlimit:10;" d="M 0 5 C 0 2.238281 2.238281 0 5 0 L 45 0 C 47.761719 0 50 2.238281 50 5 L 50 16 C 50 18.761719 47.761719 21 45 21 L 5 21 C 2.238281 21 0 18.761719 0 16 Z M 0 5 " transform="matrix(1,0,0,1,2,2)"/>
</g>
<path style=" stroke:none;fill-rule:nonzero;fill:rgb(38.039216%,50.588235%,100%);fill-opacity:0.490196;" d="M 2 7 C 2 4.238281 4.238281 2 7 2 L 47 2 C 49.761719 2 52 4.238281 52 7 L 52 18 C 52 20.761719 49.761719 23 47 23 L 7 23 C 4.238281 23 2 20.761719 2 18 Z M 2 7 "/>
<g clip-path="url(#clip14)" clip-rule="nonzero">
<g clip-path="url(#clip15)" clip-rule="nonzero">
<path style="fill:none;stroke-width:2;stroke-linecap:butt;stroke-linejoin:miter;stroke:rgb(38.039216%,50.588235%,100%);stroke-opacity:1;stroke-miterlimit:10;" d="M 0 5 C 0 2.238281 2.238281 0 5 0 L 45 0 C 47.761719 0 50 2.238281 50 5 L 50 16 C 50 18.761719 47.761719 21 45 21 L 5 21 C 2.238281 21 0 18.761719 0 16 Z M 0 5 " transform="matrix(1,0,0,1,2,2)"/>
</g>
</g>
<g clip-path="url(#clip16)" clip-rule="nonzero">
<path style="fill:none;stroke-width:2;stroke-linecap:butt;stroke-linejoin:miter;stroke:rgb(38.039216%,50.588235%,100%);stroke-opacity:1;stroke-miterlimit:10;" d="M 0 5 C 0 2.238281 2.238281 0 5 0 L 45 0 C 47.761719 0 50 2.238281 50 5 L 50 16 C 50 18.761719 47.761719 21 45 21 L 5 21 C 2.238281 21 0 18.761719 0 16 Z M 0 5 " transform="matrix(1,0,0,1,66,12)"/>
</g>
<path style=" stroke:none;fill-rule:nonzero;fill:rgb(38.039216%,50.588235%,100%);fill-opacity:0.490196;" d="M 66 17 C 66 14.238281 68.238281 12 71 12 L 111 12 C 113.761719 12 116 14.238281 116 17 L 116 28 C 116 30.761719 113.761719 33 111 33 L 71 33 C 68.238281 33 66 30.761719 66 28 Z M 66 17 "/>
<g clip-path="url(#clip17)" clip-rule="nonzero">
<g clip-path="url(#clip18)" clip-rule="nonzero">
<path style="fill:none;stroke-width:2;stroke-linecap:butt;stroke-linejoin:miter;stroke:rgb(38.039216%,50.588235%,100%);stroke-opacity:1;stroke-miterlimit:10;" d="M 0 5 C 0 2.238281 2.238281 0 5 0 L 45 0 C 47.761719 0 50 2.238281 50 5 L 50 16 C 50 18.761719 47.761719 21 45 21 L 5 21 C 2.238281 21 0 18.761719 0 16 Z M 0 5 " transform="matrix(1,0,0,1,66,12)"/>
</g>
</g>
<g clip-path="url(#clip19)" clip-rule="nonzero">
<path style="fill:none;stroke-width:2;stroke-linecap:butt;stroke-linejoin:miter;stroke:rgb(38.039216%,50.588235%,100%);stroke-opacity:1;stroke-miterlimit:10;" d="M 0 5 C 0 2.238281 2.238281 0 5 0 L 45 0 C 47.761719 0 50 2.238281 50 5 L 50 16 C 50 18.761719 47.761719 21 45 21 L 5 21 C 2.238281 21 0 18.761719 0 16 Z M 0 5 " transform="matrix(1,0,0,1,2,2)"/>
</g>
<path style=" stroke:none;fill-rule:nonzero;fill:rgb(38.039216%,50.588235%,100%);fill-opacity:0.490196;" d="M 2 7 C 2 4.238281 4.238281 2 7 2 L 47 2 C 49.761719 2 52 4.238281 52 7 L 52 18 C 52 20.761719 49.761719 23 47 23 L 7 23 C 4.238281 23 2 20.761719 2 18 Z M 2 7 "/>
<g clip-path="url(#clip20)" clip-rule="nonzero">
<g clip-path="url(#clip21)" clip-rule="nonzero">
<path style="fill:none;stroke-width:2;stroke-linecap:butt;stroke-linejoin:miter;stroke:rgb(38.039216%,50.588235%,100%);stroke-opacity:1;stroke-miterlimit:10;" d="M 0 5 C 0 2.238281 2.238281 0 5 0 L 45 0 C 47.761719 0 50 2.238281 50 5 L 50 16 C 50 18.761719 47.761719 21 45 21 L 5 21 C 2.238281 21 0 18.761719 0 16 Z M 0 5 " transform="matrix(1,0,0,1,2,2)"/>
</g>
</g>
<g clip-path="url(#clip22)" clip-rule="nonzero">
<path style="fill:none;stroke-width:2;stroke-linecap:butt;stroke-linejoin:miter;stroke:rgb(38.039216%,50.588235%,100%);stroke-opacity:1;stroke-miterlimit:10;" d="M 0 5 C 0 2.238281 2.238281 0 5 0 L 45 0 C 47.761719 0 50 2.238281 50 5 L 50 16 C 50 18.761719 47.761719 21 45 21 L 5 21 C 2.238281 21 0 18.761719 0 16 Z M 0 5 " transform="matrix(1,0,0,1,66,37)"/>
</g>
<path style=" stroke:none;fill-rule:nonzero;fill:rgb(38.039216%,50.588235%,100%);fill-opacity:0.490196;" d="M 66 42 C 66 39.238281 68.238281 37 71 37 L 111 37 C 113.761719 37 116 39.238281 116 42 L 116 53 C 116 55.761719 113.761719 58 111 58 L 71 58 C 68.238281 58 66 55.761719 66 53 Z M 66 42 "/>
<g clip-path="url(#clip23)" clip-rule="nonzero">
<g clip-path="url(#clip24)" clip-rule="nonzero">
<path style="fill:none;stroke-width:2;stroke-linecap:butt;stroke-linejoin:miter;stroke:rgb(38.039216%,50.588235%,100%);stroke-opacity:1;stroke-miterlimit:10;" d="M 0 5 C 0 2.238281 2.238281 0 5 0 L 45 0 C 47.761719 0 50 2.238281 50 5 L 50 16 C 50 18.761719 47.761719 21 45 21 L 5 21 C 2.238281 21 0 18.761719 0 16 Z M 0 5 " transform="matrix(1,0,0,1,66,37)"/>
</g>
</g>
<g clip-path="url(#clip25)" clip-rule="nonzero">
<path style="fill:none;stroke-width:2;stroke-linecap:butt;stroke-linejoin:miter;stroke:rgb(38.039216%,50.588235%,100%);stroke-opacity:1;stroke-miterlimit:10;" d="M 0 5 C 0 2.238281 2.238281 0 5 0 L 45 0 C 47.761719 0 50 2.238281 50 5 L 50 16 C 50 18.761719 47.761719 21 45 21 L 5 21 C 2.238281 21 0 18.761719 0 16 Z M 0 5 " transform="matrix(1,0,0,1,2,2)"/>
</g>
<path style=" stroke:none;fill-rule:nonzero;fill:rgb(38.039216%,50.588235%,100%);fill-opacity:0.490196;" d="M 2 7 C 2 4.238281 4.238281 2 7 2 L 47 2 C 49.761719 2 52 4.238281 52 7 L 52 18 C 52 20.761719 49.761719 23 47 23 L 7 23 C 4.238281 23 2 20.761719 2 18 Z M 2 7 "/>
<g clip-path="url(#clip26)" clip-rule="nonzero">
<g clip-path="url(#clip27)" clip-rule="nonzero">
<path style="fill:none;stroke-width:2;stroke-linecap:butt;stroke-linejoin:miter;stroke:rgb(38.039216%,50.588235%,100%);stroke-opacity:1;stroke-miterlimit:10;" d="M 0 5 C 0 2.238281 2.238281 0 5 0 L 45 0 C 47.761719 0 50 2.238281 50 5 L 50 16 C 50 18.761719 47.761719 21 45 21 L 5 21 C 2.238281 21 0 18.761719 0 16 Z M 0 5 " transform="matrix(1,0,0,1,2,2)"/>
</g>
</g>
<g clip-path="url(#clip28)" clip-rule="nonzero">
<path style="fill:none;stroke-width:2;stroke-linecap:butt;stroke-linejoin:miter;stroke:rgb(38.039216%,50.588235%,100%);stroke-opacity:1;stroke-miterlimit:10;" d="M 0 5 C 0 2.238281 2.238281 0 5 0 L 45 0 C 47.761719 0 50 2.238281 50 5 L 50 16 C 50 18.761719 47.761719 21 45 21 L 5 21 C 2.238281 21 0 18.761719 0 16 Z M 0 5 " transform="matrix(1,0,0,1,66,62)"/>
</g>
<path style=" stroke:none;fill-rule:nonzero;fill:rgb(38.039216%,50.588235%,100%);fill-opacity:0.490196;" d="M 66 67 C 66 64.238281 68.238281 62 71 62 L 111 62 C 113.761719 62 116 64.238281 116 67 L 116 78 C 116 80.761719 113.761719 83 111 83 L 71 83 C 68.238281 83 66 80.761719 66 78 Z M 66 67 "/>
<g clip-path="url(#clip29)" clip-rule="nonzero">
<g clip-path="url(#clip30)" clip-rule="nonzero">
<path style="fill:none;stroke-width:2;stroke-linecap:butt;stroke-linejoin:miter;stroke:rgb(38.039216%,50.588235%,100%);stroke-opacity:1;stroke-miterlimit:10;" d="M 0 5 C 0 2.238281 2.238281 0 5 0 L 45 0 C 47.761719 0 50 2.238281 50 5 L 50 16 C 50 18.761719 47.761719 21 45 21 L 5 21 C 2.238281 21 0 18.761719 0 16 Z M 0 5 " transform="matrix(1,0,0,1,66,62)"/>
</g>
</g>
<g clip-path="url(#clip31)" clip-rule="nonzero">
<path style="fill:none;stroke-width:2;stroke-linecap:butt;stroke-linejoin:miter;stroke:rgb(38.039216%,50.588235%,100%);stroke-opacity:1;stroke-miterlimit:10;" d="M 0 5 C 0 2.238281 2.238281 0 5 0 L 45 0 C 47.761719 0 50 2.238281 50 5 L 50 29 C 50 31.761719 47.761719 34 45 34 L 5 34 C 2.238281 34 0 31.761719 0 29 Z M 0 5 " transform="matrix(1,0,0,1,140,2)"/>
</g>
<path style=" stroke:none;fill-rule:nonzero;fill:rgb(38.039216%,50.588235%,100%);fill-opacity:0.490196;" d="M 140 7 C 140 4.238281 142.238281 2 145 2 L 185 2 C 187.761719 2 190 4.238281 190 7 L 190 31 C 190 33.761719 187.761719 36 185 36 L 145 36 C 142.238281 36 140 33.761719 140 31 Z M 140 7 "/>
<g clip-path="url(#clip32)" clip-rule="nonzero">
<g clip-path="url(#clip33)" clip-rule="nonzero">
<path style="fill:none;stroke-width:2;stroke-linecap:butt;stroke-linejoin:miter;stroke:rgb(38.039216%,50.588235%,100%);stroke-opacity:1;stroke-miterlimit:10;" d="M 0 5 C 0 2.238281 2.238281 0 5 0 L 45 0 C 47.761719 0 50 2.238281 50 5 L 50 29 C 50 31.761719 47.761719 34 45 34 L 5 34 C 2.238281 34 0 31.761719 0 29 Z M 0 5 " transform="matrix(1,0,0,1,140,2)"/>
</g>
</g>
<g clip-path="url(#clip34)" clip-rule="nonzero">
<path style="fill:none;stroke-width:2;stroke-linecap:butt;stroke-linejoin:miter;stroke:rgb(38.039216%,50.588235%,100%);stroke-opacity:1;stroke-miterlimit:10;" d="M 0 5 C 0 2.238281 2.238281 0 5 0 L 45 0 C 47.761719 0 50 2.238281 50 5 L 50 29 C 50 31.761719 47.761719 34 45 34 L 5 34 C 2.238281 34 0 31.761719 0 29 Z M 0 5 " transform="matrix(1,0,0,1,150,12)"/>
</g>
<path style=" stroke:none;fill-rule:nonzero;fill:rgb(38.039216%,50.588235%,100%);fill-opacity:0.490196;" d="M 150 17 C 150 14.238281 152.238281 12 155 12 L 195 12 C 197.761719 12 200 14.238281 200 17 L 200 41 C 200 43.761719 197.761719 46 195 46 L 155 46 C 152.238281 46 150 43.761719 150 41 Z M 150 17 "/>
<g clip-path="url(#clip35)" clip-rule="nonzero">
<g clip-path="url(#clip36)" clip-rule="nonzero">
<path style="fill:none;stroke-width:2;stroke-linecap:butt;stroke-linejoin:miter;stroke:rgb(38.039216%,50.588235%,100%);stroke-opacity:1;stroke-miterlimit:10;" d="M 0 5 C 0 2.238281 2.238281 0 5 0 L 45 0 C 47.761719 0 50 2.238281 50 5 L 50 29 C 50 31.761719 47.761719 34 45 34 L 5 34 C 2.238281 34 0 31.761719 0 29 Z M 0 5 " transform="matrix(1,0,0,1,150,12)"/>
</g>
</g>
<g clip-path="url(#clip37)" clip-rule="nonzero">
<path style="fill:none;stroke-width:2;stroke-linecap:butt;stroke-linejoin:miter;stroke:rgb(38.039216%,50.588235%,100%);stroke-opacity:1;stroke-miterlimit:10;" d="M 0 5 C 0 2.238281 2.238281 0 5 0 L 45 0 C 47.761719 0 50 2.238281 50 5 L 50 29 C 50 31.761719 47.761719 34 45 34 L 5 34 C 2.238281 34 0 31.761719 0 29 Z M 0 5 " transform="matrix(1,0,0,1,140,2)"/>
</g>
<path style=" stroke:none;fill-rule:nonzero;fill:rgb(38.039216%,50.588235%,100%);fill-opacity:0.490196;" d="M 140 7 C 140 4.238281 142.238281 2 145 2 L 185 2 C 187.761719 2 190 4.238281 190 7 L 190 31 C 190 33.761719 187.761719 36 185 36 L 145 36 C 142.238281 36 140 33.761719 140 31 Z M 140 7 "/>
<g clip-path="url(#clip38)" clip-rule="nonzero">
<g clip-path="url(#clip39)" clip-rule="nonzero">
<path style="fill:none;stroke-width:2;stroke-linecap:butt;stroke-linejoin:miter;stroke:rgb(38.039216%,50.588235%,100%);stroke-opacity:1;stroke-miterlimit:10;" d="M 0 5 C 0 2.238281 2.238281 0 5 0 L 45 0 C 47.761719 0 50 2.238281 50 5 L 50 29 C 50 31.761719 47.761719 34 45 34 L 5 34 C 2.238281 34 0 31.761719 0 29 Z M 0 5 " transform="matrix(1,0,0,1,140,2)"/>
</g>
</g>
<g clip-path="url(#clip40)" clip-rule="nonzero">
<path style="fill:none;stroke-width:2;stroke-linecap:butt;stroke-linejoin:miter;stroke:rgb(38.039216%,50.588235%,100%);stroke-opacity:1;stroke-miterlimit:10;" d="M 0 5 C 0 2.238281 2.238281 0 5 0 L 45 0 C 47.761719 0 50 2.238281 50 5 L 50 29 C 50 31.761719 47.761719 34 45 34 L 5 34 C 2.238281 34 0 31.761719 0 29 Z M 0 5 " transform="matrix(1,0,0,1,204,12)"/>
</g>
<path style=" stroke:none;fill-rule:nonzero;fill:rgb(38.039216%,50.588235%,100%);fill-opacity:0.490196;" d="M 204 17 C 204 14.238281 206.238281 12 209 12 L 249 12 C 251.761719 12 254 14.238281 254 17 L 254 41 C 254 43.761719 251.761719 46 249 46 L 209 46 C 206.238281 46 204 43.761719 204 41 Z M 204 17 "/>
<g clip-path="url(#clip41)" clip-rule="nonzero">
<g clip-path="url(#clip42)" clip-rule="nonzero">
<path style="fill:none;stroke-width:2;stroke-linecap:butt;stroke-linejoin:miter;stroke:rgb(38.039216%,50.588235%,100%);stroke-opacity:1;stroke-miterlimit:10;" d="M 0 5 C 0 2.238281 2.238281 0 5 0 L 45 0 C 47.761719 0 50 2.238281 50 5 L 50 29 C 50 31.761719 47.761719 34 45 34 L 5 34 C 2.238281 34 0 31.761719 0 29 Z M 0 5 " transform="matrix(1,0,0,1,204,12)"/>
</g>
</g>
<g clip-path="url(#clip43)" clip-rule="nonzero">
<path style="fill:none;stroke-width:2;stroke-linecap:butt;stroke-linejoin:miter;stroke:rgb(38.039216%,50.588235%,100%);stroke-opacity:1;stroke-miterlimit:10;" d="M 0 5 C 0 2.238281 2.238281 0 5 0 L 27 0 C 29.761719 0 32 2.238281 32 5 L 32 29 C 32 31.761719 29.761719 34 27 34 L 5 34 C 2.238281 34 0 31.761719 0 29 Z M 0 5 " transform="matrix(1,0,0,1,140,2)"/>
</g>
<path style=" stroke:none;fill-rule:nonzero;fill:rgb(38.039216%,50.588235%,100%);fill-opacity:0.490196;" d="M 140 7 C 140 4.238281 142.238281 2 145 2 L 167 2 C 169.761719 2 172 4.238281 172 7 L 172 31 C 172 33.761719 169.761719 36 167 36 L 145 36 C 142.238281 36 140 33.761719 140 31 Z M 140 7 "/>
<g clip-path="url(#clip44)" clip-rule="nonzero">
<g clip-path="url(#clip45)" clip-rule="nonzero">
<path style="fill:none;stroke-width:2;stroke-linecap:butt;stroke-linejoin:miter;stroke:rgb(38.039216%,50.588235%,100%);stroke-opacity:1;stroke-miterlimit:10;" d="M 0 5 C 0 2.238281 2.238281 0 5 0 L 27 0 C 29.761719 0 32 2.238281 32 5 L 32 29 C 32 31.761719 29.761719 34 27 34 L 5 34 C 2.238281 34 0 31.761719 0 29 Z M 0 5 " transform="matrix(1,0,0,1,140,2)"/>
</g>
</g>
<g clip-path="url(#clip46)" clip-rule="nonzero">
<path style="fill:none;stroke-width:2;stroke-linecap:butt;stroke-linejoin:miter;stroke:rgb(38.039216%,50.588235%,100%);stroke-opacity:1;stroke-miterlimit:10;" d="M 0 5 C 0 2.238281 2.238281 0 5 0 L 27 0 C 29.761719 0 32 2.238281 32 5 L 32 29 C 32 31.761719 29.761719 34 27 34 L 5 34 C 2.238281 34 0 31.761719 0 29 Z M 0 5 " transform="matrix(1,0,0,1,150,50)"/>
</g>
<path style=" stroke:none;fill-rule:nonzero;fill:rgb(38.039216%,50.588235%,100%);fill-opacity:0.490196;" d="M 150 55 C 150 52.238281 152.238281 50 155 50 L 177 50 C 179.761719 50 182 52.238281 182 55 L 182 79 C 182 81.761719 179.761719 84 177 84 L 155 84 C 152.238281 84 150 81.761719 150 79 Z M 150 55 "/>
<g clip-path="url(#clip47)" clip-rule="nonzero">
<g clip-path="url(#clip48)" clip-rule="nonzero">
<path style="fill:none;stroke-width:2;stroke-linecap:butt;stroke-linejoin:miter;stroke:rgb(38.039216%,50.588235%,100%);stroke-opacity:1;stroke-miterlimit:10;" d="M 0 5 C 0 2.238281 2.238281 0 5 0 L 27 0 C 29.761719 0 32 2.238281 32 5 L 32 29 C 32 31.761719 29.761719 34 27 34 L 5 34 C 2.238281 34 0 31.761719 0 29 Z M 0 5 " transform="matrix(1,0,0,1,150,50)"/>
</g>
</g>
<g clip-path="url(#clip49)" clip-rule="nonzero">
<path style="fill:none;stroke-width:2;stroke-linecap:butt;stroke-linejoin:miter;stroke:rgb(38.039216%,50.588235%,100%);stroke-opacity:1;stroke-miterlimit:10;" d="M 0 5 C 0 2.238281 2.238281 0 5 0 L 27 0 C 29.761719 0 32 2.238281 32 5 L 32 29 C 32 31.761719 29.761719 34 27 34 L 5 34 C 2.238281 34 0 31.761719 0 29 Z M 0 5 " transform="matrix(1,0,0,1,140,2)"/>
</g>
<path style=" stroke:none;fill-rule:nonzero;fill:rgb(38.039216%,50.588235%,100%);fill-opacity:0.490196;" d="M 140 7 C 140 4.238281 142.238281 2 145 2 L 167 2 C 169.761719 2 172 4.238281 172 7 L 172 31 C 172 33.761719 169.761719 36 167 36 L 145 36 C 142.238281 36 140 33.761719 140 31 Z M 140 7 "/>
<g clip-path="url(#clip50)" clip-rule="nonzero">
<g clip-path="url(#clip51)" clip-rule="nonzero">
<path style="fill:none;stroke-width:2;stroke-linecap:butt;stroke-linejoin:miter;stroke:rgb(38.039216%,50.588235%,100%);stroke-opacity:1;stroke-miterlimit:10;" d="M 0 5 C 0 2.238281 2.238281 0 5 0 L 27 0 C 29.761719 0 32 2.238281 32 5 L 32 29 C 32 31.761719 29.761719 34 27 34 L 5 34 C 2.238281 34 0 31.761719 0 29 Z M 0 5 " transform="matrix(1,0,0,1,140,2)"/>
</g>
</g>
<g clip-path="url(#clip52)" clip-rule="nonzero">
<path style="fill:none;stroke-width:2;stroke-linecap:butt;stroke-linejoin:miter;stroke:rgb(38.039216%,50.588235%,100%);stroke-opacity:1;stroke-miterlimit:10;" d="M 0 5 C 0 2.238281 2.238281 0 5 0 L 27 0 C 29.761719 0 32 2.238281 32 5 L 32 29 C 32 31.761719 29.761719 34 27 34 L 5 34 C 2.238281 34 0 31.761719 0 29 Z M 0 5 " transform="matrix(1,0,0,1,186,50)"/>
</g>
<path style=" stroke:none;fill-rule:nonzero;fill:rgb(38.039216%,50.588235%,100%);fill-opacity:0.490196;" d="M 186 55 C 186 52.238281 188.238281 50 191 50 L 213 50 C 215.761719 50 218 52.238281 218 55 L 218 79 C 218 81.761719 215.761719 84 213 84 L 191 84 C 188.238281 84 186 81.761719 186 79 Z M 186 55 "/>
<g clip-path="url(#clip53)" clip-rule="nonzero">
<g clip-path="url(#clip54)" clip-rule="nonzero">
<path style="fill:none;stroke-width:2;stroke-linecap:butt;stroke-linejoin:miter;stroke:rgb(38.039216%,50.588235%,100%);stroke-opacity:1;stroke-miterlimit:10;" d="M 0 5 C 0 2.238281 2.238281 0 5 0 L 27 0 C 29.761719 0 32 2.238281 32 5 L 32 29 C 32 31.761719 29.761719 34 27 34 L 5 34 C 2.238281 34 0 31.761719 0 29 Z M 0 5 " transform="matrix(1,0,0,1,186,50)"/>
</g>
</g>
<g clip-path="url(#clip55)" clip-rule="nonzero">
<path style="fill:none;stroke-width:2;stroke-linecap:butt;stroke-linejoin:miter;stroke:rgb(38.039216%,50.588235%,100%);stroke-opacity:1;stroke-miterlimit:10;" d="M 0 5 C 0 2.238281 2.238281 0 5 0 L 27 0 C 29.761719 0 32 2.238281 32 5 L 32 29 C 32 31.761719 29.761719 34 27 34 L 5 34 C 2.238281 34 0 31.761719 0 29 Z M 0 5 " transform="matrix(1,0,0,1,140,2)"/>
</g>
<path style=" stroke:none;fill-rule:nonzero;fill:rgb(38.039216%,50.588235%,100%);fill-opacity:0.490196;" d="M 140 7 C 140 4.238281 142.238281 2 145 2 L 167 2 C 169.761719 2 172 4.238281 172 7 L 172 31 C 172 33.761719 169.761719 36 167 36 L 145 36 C 142.238281 36 140 33.761719 140 31 Z M 140 7 "/>
<g clip-path="url(#clip56)" clip-rule="nonzero">
<g clip-path="url(#clip57)" clip-rule="nonzero">
<path style="fill:none;stroke-width:2;stroke-linecap:butt;stroke-linejoin:miter;stroke:rgb(38.039216%,50.588235%,100%);stroke-opacity:1;stroke-miterlimit:10;" d="M 0 5 C 0 2.238281 2.238281 0 5 0 L 27 0 C 29.761719 0 32 2.238281 32 5 L 32 29 C 32 31.761719 29.761719 34 27 34 L 5 34 C 2.238281 34 0 31.761719 0 29 Z M 0 5 " transform="matrix(1,0,0,1,140,2)"/>
</g>
</g>
<g clip-path="url(#clip58)" clip-rule="nonzero">
<path style="fill:none;stroke-width:2;stroke-linecap:butt;stroke-linejoin:miter;stroke:rgb(38.039216%,50.588235%,100%);stroke-opacity:1;stroke-miterlimit:10;" d="M 0 5 C 0 2.238281 2.238281 0 5 0 L 27 0 C 29.761719 0 32 2.238281 32 5 L 32 29 C 32 31.761719 29.761719 34 27 34 L 5 34 C 2.238281 34 0 31.761719 0 29 Z M 0 5 " transform="matrix(1,0,0,1,222,50)"/>
</g>
<path style=" stroke:none;fill-rule:nonzero;fill:rgb(38.039216%,50.588235%,100%);fill-opacity:0.490196;" d="M 222 55 C 222 52.238281 224.238281 50 227 50 L 249 50 C 251.761719 50 254 52.238281 254 55 L 254 79 C 254 81.761719 251.761719 84 249 84 L 227 84 C 224.238281 84 222 81.761719 222 79 Z M 222 55 "/>
<g clip-path="url(#clip59)" clip-rule="nonzero">
<g clip-path="url(#clip60)" clip-rule="nonzero">
<path style="fill:none;stroke-width:2;stroke-linecap:butt;stroke-linejoin:miter;stroke:rgb(38.039216%,50.588235%,100%);stroke-opacity:1;stroke-miterlimit:10;" d="M 0 5 C 0 2.238281 2.238281 0 5 0 L 27 0 C 29.761719 0 32 2.238281 32 5 L 32 29 C 32 31.761719 29.761719 34 27 34 L 5 34 C 2.238281 34 0 31.761719 0 29 Z M 0 5 " transform="matrix(1,0,0,1,222,50)"/>
</g>
</g>
</g>
</svg>
