<?xml version="1.0" encoding="UTF-8"?>
<svg xmlns="http://www.w3.org/2000/svg" xmlns:xlink="http://www.w3.org/1999/xlink" width="542pt" height="96pt" viewBox="0 0 542 96" version="1.1">
<g id="surface2">
<path style="fill:none;stroke-width:1.5;stroke-linecap:butt;stroke-linejoin:miter;stroke:rgb(0%,0%,0%);stroke-opacity:0.266667;stroke-dasharray:10,4;stroke-dashoffset:1;stroke-miterlimit:10;" d="M 0.75 0.75 L 127.25 0.75 L 127.25 95.25 L 0.75 95.25 Z M 0.75 0.75 "/>
<path style="fill:none;stroke-width:1.5;stroke-linecap:butt;stroke-linejoin:miter;stroke:rgb(0%,0%,0%);stroke-opacity:0.2;stroke-dasharray:10,4;stroke-dashoffset:1;stroke-miterlimit:10;" d="M 10 10 L 118 10 L 118 86 L 10 86 Z M 10 10 "/>
<path style="fill:none;stroke-width:1.5;stroke-linecap:butt;stroke-linejoin:miter;stroke:rgb(0%,0%,0%);stroke-opacity:0.266667;stroke-dasharray:10,4;stroke-dashoffset:1;stroke-miterlimit:10;" d="M 138.75 0.75 L 265.25 0.75 L 265.25 95.25 L 138.75 95.25 Z M 138.75 0.75 "/>
<path style="fill:none;stroke-width:1.5;stroke-linecap:butt;stroke-linejoin:miter;stroke:rgb(0%,0%,0%);stroke-opacity:0.2;stroke-dasharray:10,4;stroke-dashoffset:1;stroke-miterlimit:10;" d="M 148 10 L 256 10 L 256 86 L 148 86 Z M 148 10 "/>
<path style="fill:none;stroke-width:1.5;stroke-linecap:butt;stroke-linejoin:miter;stroke:rgb(0%,0%,0%);stroke-opacity:0.266667;stroke-dasharray:10,4;stroke-dashoffset:1;stroke-miterlimit:10;" d="M 276.75 0.75 L 403.25 0.75 L 403.25 95.25 L 276.75 95.25 Z M 276.75 0.75 "/>
<path style="fill:none;stroke-width:1.5;stroke-linecap:butt;stroke-linejoin:miter;stroke:rgb(0%,0%,0%);stroke-opacity:0.2;stroke-dasharray:10,4;stroke-dashoffset:1;stroke-miterlimit:10;" d="M 286 10 L 394 10 L 394 86 L 286 86 Z M 286 10 "/>
<path style="fill:none;stroke-width:1.5;stroke-linecap:butt;stroke-linejoin:miter;stroke:rgb(0%,0%,0%);stroke-opacity:0.266667;stroke-dasharray:10,4;stroke-dashoffset:1;stroke-miterlimit:10;" d="M 414.75 0.75 L 541.25 0.75 L 541.25 95.25 L 414.75 95.25 Z M 414.75 0.75 "/>
<path style="fill:none;stroke-width:1.5;stroke-linecap:butt;stroke-linejoin:miter;stroke:rgb(0%,0%,0%);stroke-opacity:0.2;stroke-dasharray:10,4;stroke-dashoffset:1;stroke-miterlimit:10;" d="M 424 10 L 532 10 L 532 86 L 424 86 Z M 424 10 "/>
<path style="fill:none;stroke-width:1.5;stroke-linecap:butt;stroke-linejoin:miter;stroke:rgb(38.039216%,50.588235%,100%);stroke-opacity:1;stroke-miterlimit:10;" d="M 0 4 C 0 1.789062 1.789062 0 4 0 L 48 0 C 50.210938 0 52 1.789062 52 4 C 52 6.210938 50.210938 8 48 8 L 4 8 C 1.789062 8 0 6.210938 0 4 Z M 0 4 " transform="matrix(1,0,0,1,64,70)"/>
<path style=" stroke:none;fill-rule:nonzero;fill:rgb(38.039216%,50.588235%,100%);fill-opacity:0.490196;" d="M 64 74 C 64 71.789062 65.789062 70 68 70 L 112 70 C 114.210938 70 116 71.789062 116 74 C 116 76.210938 114.210938 78 112 78 L 68 78 C 65.789062 78 64 76.210938 64 74 Z M 64 74 "/>
<path style="fill:none;stroke-width:1.5;stroke-linecap:butt;stroke-linejoin:miter;stroke:rgb(38.039216%,50.588235%,100%);stroke-opacity:1;stroke-miterlimit:10;" d="M 0 4 C 0 1.789062 1.789062 0 4 0 L 48 0 C 50.210938 0 52 1.789062 52 4 C 52 6.210938 50.210938 8 48 8 L 4 8 C 1.789062 8 0 6.210938 0 4 Z M 0 4 " transform="matrix(1,0,0,1,64,60)"/>
<path style=" stroke:none;fill-rule:nonzero;fill:rgb(38.039216%,50.588235%,100%);fill-opacity:0.490196;" d="M 64 64 C 64 61.789062 65.789062 60 68 60 L 112 60 C 114.210938 60 116 61.789062 116 64 C 116 66.210938 114.210938 68 112 68 L 68 68 C 65.789062 68 64 66.210938 64 64 Z M 64 64 "/>
<path style="fill:none;stroke-width:1.5;stroke-linecap:butt;stroke-linejoin:miter;stroke:rgb(38.039216%,50.588235%,100%);stroke-opacity:1;stroke-miterlimit:10;" d="M 0 4 C 0 1.789062 1.789062 0 4 0 L 48 0 C 50.210938 0 52 1.789062 52 4 C 52 6.210938 50.210938 8 48 8 L 4 8 C 1.789062 8 0 6.210938 0 4 Z M 0 4 " transform="matrix(1,0,0,1,64,50)"/>
<path style=" stroke:none;fill-rule:nonzero;fill:rgb(38.039216%,50.588235%,100%);fill-opacity:0.490196;" d="M 64 54 C 64 51.789062 65.789062 50 68 50 L 112 50 C 114.210938 50 116 51.789062 116 54 C 116 56.210938 114.210938 58 112 58 L 68 58 C 65.789062 58 64 56.210938 64 54 Z M 64 54 "/>
<path style="fill:none;stroke-width:1.5;stroke-linecap:butt;stroke-linejoin:miter;stroke:rgb(38.039216%,50.588235%,100%);stroke-opacity:1;stroke-miterlimit:10;" d="M 0 4 C 0 1.789062 1.789062 0 4 0 L 48 0 C 50.210938 0 52 1.789062 52 4 C 52 6.210938 50.210938 8 48 8 L 4 8 C 1.789062 8 0 6.210938 0 4 Z M 0 4 " transform="matrix(1,0,0,1,64,40)"/>
<path style=" stroke:none;fill-rule:nonzero;fill:rgb(38.039216%,50.588235%,100%);fill-opacity:0.490196;" d="M 64 44 C 64 41.789062 65.789062 40 68 40 L 112 40 C 114.210938 40 116 41.789062 116 44 C 116 46.210938 114.210938 48 112 48 L 68 48 C 65.789062 48 64 46.210938 64 44 Z M 64 44 "/>
<path style="fill:none;stroke-width:1.5;stroke-linecap:butt;stroke-linejoin:miter;stroke:rgb(38.039216%,50.588235%,100%);stroke-opacity:1;stroke-miterlimit:10;" d="M 0 4 C 0 1.789062 1.789062 0 4 0 L 48 0 C 50.210938 0 52 1.789062 52 4 C 52 6.210938 50.210938 8 48 8 L 4 8 C 1.789062 8 0 6.210938 0 4 Z M 0 4 " transform="matrix(1,0,0,1,64,30)"/>
<path style=" stroke:none;fill-rule:nonzero;fill:rgb(38.039216%,50.588235%,100%);fill-opacity:0.490196;" d="M 64 34 C 64 31.789062 65.789062 30 68 30 L 112 30 C 114.210938 30 116 31.789062 116 34 C 116 36.210938 114.210938 38 112 38 L 68 38 C 65.789062 38 64 36.210938 64 34 Z M 64 34 "/>
<path style="fill:none;stroke-width:1.5;stroke-linecap:butt;stroke-linejoin:miter;stroke:rgb(38.039216%,50.588235%,100%);stroke-opacity:1;stroke-miterlimit:10;" d="M 0 4 C 0 1.789062 1.789062 0 4 0 L 48 0 C 50.210938 0 52 1.789062 52 4 C 52 6.210938 50.210938 8 48 8 L 4 8 C 1.789062 8 0 6.210938 0 4 Z M 0 4 " transform="matrix(1,0,0,1,64,20)"/>
<path style=" stroke:none;fill-rule:nonzero;fill:rgb(38.039216%,50.588235%,100%);fill-opacity:0.490196;" d="M 64 24 C 64 21.789062 65.789062 20 68 20 L 112 20 C 114.210938 20 116 21.789062 116 24 C 116 26.210938 114.210938 28 112 28 L 68 28 C 65.789062 28 64 26.210938 64 24 Z M 64 24 "/>
<path style="fill:none;stroke-width:1.5;stroke-linecap:butt;stroke-linejoin:miter;stroke:rgb(38.039216%,50.588235%,100%);stroke-opacity:1;stroke-miterlimit:10;" d="M 0 4 C 0 1.789062 1.789062 0 4 0 L 48 0 C 50.210938 0 52 1.789062 52 4 C 52 6.210938 50.210938 8 48 8 L 4 8 C 1.789062 8 0 6.210938 0 4 Z M 0 4 " transform="matrix(1,0,0,1,64,10)"/>
<path style=" stroke:none;fill-rule:nonzero;fill:rgb(38.039216%,50.588235%,100%);fill-opacity:0.490196;" d="M 64 14 C 64 11.789062 65.789062 10 68 10 L 112 10 C 114.210938 10 116 11.789062 116 14 C 116 16.210938 114.210938 18 112 18 L 68 18 C 65.789062 18 64 16.210938 64 14 Z M 64 14 "/>
<path style="fill:none;stroke-width:1.5;stroke-linecap:butt;stroke-linejoin:miter;stroke:rgb(38.039216%,50.588235%,100%);stroke-opacity:1;stroke-miterlimit:10;" d="M 0 5 C 0 2.238281 2.238281 0 5 0 L 47 0 C 49.761719 0 52 2.238281 52 5 L 52 69 C 52 71.761719 49.761719 74 47 74 L 5 74 C 2.238281 74 0 71.761719 0 69 Z M 0 5 " transform="matrix(1,0,0,1,10,10)"/>
<path style=" stroke:none;fill-rule:nonzero;fill:rgb(38.039216%,50.588235%,100%);fill-opacity:0.490196;" d="M 10 15 C 10 12.238281 12.238281 10 15 10 L 57 10 C 59.761719 10 62 12.238281 62 15 L 62 79 C 62 81.761719 59.761719 84 57 84 L 15 84 C 12.238281 84 10 81.761719 10 79 Z M 10 15 "/>
<path style="fill:none;stroke-width:1.5;stroke-linecap:butt;stroke-linejoin:miter;stroke:rgb(38.039216%,50.588235%,100%);stroke-opacity:1;stroke-miterlimit:10;" d="M 0 5 C 0 2.238281 2.238281 0 5 0 L 29 0 C 31.761719 0 34 2.238281 34 5 L 34 12 C 34 14.761719 31.761719 17 29 17 L 5 17 C 2.238281 17 0 14.761719 0 12 Z M 0 5 " transform="matrix(1,0,0,1,220,67)"/>
<path style=" stroke:none;fill-rule:nonzero;fill:rgb(38.039216%,50.588235%,100%);fill-opacity:0.490196;" d="M 220 72 C 220 69.238281 222.238281 67 225 67 L 249 67 C 251.761719 67 254 69.238281 254 72 L 254 79 C 254 81.761719 251.761719 84 249 84 L 225 84 C 222.238281 84 220 81.761719 220 79 Z M 220 72 "/>
<path style="fill:none;stroke-width:1.5;stroke-linecap:butt;stroke-linejoin:miter;stroke:rgb(38.039216%,50.588235%,100%);stroke-opacity:1;stroke-miterlimit:10;" d="M 0 5 C 0 2.238281 2.238281 0 5 0 L 29 0 C 31.761719 0 34 2.238281 34 5 L 34 12 C 34 14.761719 31.761719 17 29 17 L 5 17 C 2.238281 17 0 14.761719 0 12 Z M 0 5 " transform="matrix(1,0,0,1,220,48)"/>
<path style=" stroke:none;fill-rule:nonzero;fill:rgb(38.039216%,50.588235%,100%);fill-opacity:0.490196;" d="M 220 53 C 220 50.238281 222.238281 48 225 48 L 249 48 C 251.761719 48 254 50.238281 254 53 L 254 60 C 254 62.761719 251.761719 65 249 65 L 225 65 C 222.238281 65 220 62.761719 220 60 Z M 220 53 "/>
<path style="fill:none;stroke-width:1.5;stroke-linecap:butt;stroke-linejoin:miter;stroke:rgb(38.039216%,50.588235%,100%);stroke-opacity:1;stroke-miterlimit:10;" d="M 0 5 C 0 2.238281 2.238281 0 5 0 L 29 0 C 31.761719 0 34 2.238281 34 5 L 34 12 C 34 14.761719 31.761719 17 29 17 L 5 17 C 2.238281 17 0 14.761719 0 12 Z M 0 5 " transform="matrix(1,0,0,1,220,29)"/>
<path style=" stroke:none;fill-rule:nonzero;fill:rgb(38.039216%,50.588235%,100%);fill-opacity:0.490196;" d="M 220 34 C 220 31.238281 222.238281 29 225 29 L 249 29 C 251.761719 29 254 31.238281 254 34 L 254 41 C 254 43.761719 251.761719 46 249 46 L 225 46 C 222.238281 46 220 43.761719 220 41 Z M 220 34 "/>
<path style="fill:none;stroke-width:1.5;stroke-linecap:butt;stroke-linejoin:miter;stroke:rgb(38.039216%,50.588235%,100%);stroke-opacity:1;stroke-miterlimit:10;" d="M 0 5 C 0 2.238281 2.238281 0 5 0 L 29 0 C 31.761719 0 34 2.238281 34 5 L 34 12 C 34 14.761719 31.761719 17 29 17 L 5 17 C 2.238281 17 0 14.761719 0 12 Z M 0 5 " transform="matrix(1,0,0,1,220,10)"/>
<path style=" stroke:none;fill-rule:nonzero;fill:rgb(38.039216%,50.588235%,100%);fill-opacity:0.490196;" d="M 220 15 C 220 12.238281 222.238281 10 225 10 L 249 10 C 251.761719 10 254 12.238281 254 15 L 254 22 C 254 24.761719 251.761719 27 249 27 L 225 27 C 222.238281 27 220 24.761719 220 22 Z M 220 15 "/>
<path style="fill:none;stroke-width:1.5;stroke-linecap:butt;stroke-linejoin:miter;stroke:rgb(38.039216%,50.588235%,100%);stroke-opacity:1;stroke-miterlimit:10;" d="M 0 5 C 0 2.238281 2.238281 0 5 0 L 29 0 C 31.761719 0 34 2.238281 34 5 L 34 18 C 34 20.761719 31.761719 23 29 23 L 5 23 C 2.238281 23 0 20.761719 0 18 Z M 0 5 " transform="matrix(1,0,0,1,184,60)"/>
<path style=" stroke:none;fill-rule:nonzero;fill:rgb(38.039216%,50.588235%,100%);fill-opacity:0.490196;" d="M 184 65 C 184 62.238281 186.238281 60 189 60 L 213 60 C 215.761719 60 218 62.238281 218 65 L 218 78 C 218 80.761719 215.761719 83 213 83 L 189 83 C 186.238281 83 184 80.761719 184 78 Z M 184 65 "/>
<path style="fill:none;stroke-width:1.5;stroke-linecap:butt;stroke-linejoin:miter;stroke:rgb(38.039216%,50.588235%,100%);stroke-opacity:1;stroke-miterlimit:10;" d="M 0 5 C 0 2.238281 2.238281 0 5 0 L 29 0 C 31.761719 0 34 2.238281 34 5 L 34 18 C 34 20.761719 31.761719 23 29 23 L 5 23 C 2.238281 23 0 20.761719 0 18 Z M 0 5 " transform="matrix(1,0,0,1,184,35)"/>
<path style=" stroke:none;fill-rule:nonzero;fill:rgb(38.039216%,50.588235%,100%);fill-opacity:0.490196;" d="M 184 40 C 184 37.238281 186.238281 35 189 35 L 213 35 C 215.761719 35 218 37.238281 218 40 L 218 53 C 218 55.761719 215.761719 58 213 58 L 189 58 C 186.238281 58 184 55.761719 184 53 Z M 184 40 "/>
<path style="fill:none;stroke-width:1.5;stroke-linecap:butt;stroke-linejoin:miter;stroke:rgb(38.039216%,50.588235%,100%);stroke-opacity:1;stroke-miterlimit:10;" d="M 0 5 C 0 2.238281 2.238281 0 5 0 L 29 0 C 31.761719 0 34 2.238281 34 5 L 34 18 C 34 20.761719 31.761719 23 29 23 L 5 23 C 2.238281 23 0 20.761719 0 18 Z M 0 5 " transform="matrix(1,0,0,1,184,10)"/>
<path style=" stroke:none;fill-rule:nonzero;fill:rgb(38.039216%,50.588235%,100%);fill-opacity:0.490196;" d="M 184 15 C 184 12.238281 186.238281 10 189 10 L 213 10 C 215.761719 10 218 12.238281 218 15 L 218 28 C 218 30.761719 215.761719 33 213 33 L 189 33 C 186.238281 33 184 30.761719 184 28 Z M 184 15 "/>
<path style="fill:none;stroke-width:1.5;stroke-linecap:butt;stroke-linejoin:miter;stroke:rgb(38.039216%,50.588235%,100%);stroke-opacity:1;stroke-miterlimit:10;" d="M 0 5 C 0 2.238281 2.238281 0 5 0 L 29 0 C 31.761719 0 34 2.238281 34 5 L 34 69 C 34 71.761719 31.761719 74 29 74 L 5 74 C 2.238281 74 0 71.761719 0 69 Z M 0 5 " transform="matrix(1,0,0,1,148,10)"/>
<path style=" stroke:none;fill-rule:nonzero;fill:rgb(38.039216%,50.588235%,100%);fill-opacity:0.490196;" d="M 148 15 C 148 12.238281 150.238281 10 153 10 L 177 10 C 179.761719 10 182 12.238281 182 15 L 182 79 C 182 81.761719 179.761719 84 177 84 L 153 84 C 150.238281 84 148 81.761719 148 79 Z M 148 15 "/>
<path style="fill:none;stroke-width:1.5;stroke-linecap:butt;stroke-linejoin:miter;stroke:rgb(38.039216%,50.588235%,100%);stroke-opacity:1;stroke-miterlimit:10;" d="M 0 5 C 0 2.238281 2.238281 0 5 0 L 20 0 C 22.761719 0 25 2.238281 25 5 L 25 18 C 25 20.761719 22.761719 23 20 23 L 5 23 C 2.238281 23 0 20.761719 0 18 Z M 0 5 " transform="matrix(1,0,0,1,367,60)"/>
<path style=" stroke:none;fill-rule:nonzero;fill:rgb(38.039216%,50.588235%,100%);fill-opacity:0.490196;" d="M 367 65 C 367 62.238281 369.238281 60 372 60 L 387 60 C 389.761719 60 392 62.238281 392 65 L 392 78 C 392 80.761719 389.761719 83 387 83 L 372 83 C 369.238281 83 367 80.761719 367 78 Z M 367 65 "/>
<path style="fill:none;stroke-width:1.5;stroke-linecap:butt;stroke-linejoin:miter;stroke:rgb(38.039216%,50.588235%,100%);stroke-opacity:1;stroke-miterlimit:10;" d="M 0 5 C 0 2.238281 2.238281 0 5 0 L 20 0 C 22.761719 0 25 2.238281 25 5 L 25 18 C 25 20.761719 22.761719 23 20 23 L 5 23 C 2.238281 23 0 20.761719 0 18 Z M 0 5 " transform="matrix(1,0,0,1,367,35)"/>
<path style=" stroke:none;fill-rule:nonzero;fill:rgb(38.039216%,50.588235%,100%);fill-opacity:0.490196;" d="M 367 40 C 367 37.238281 369.238281 35 372 35 L 387 35 C 389.761719 35 392 37.238281 392 40 L 392 53 C 392 55.761719 389.761719 58 387 58 L 372 58 C 369.238281 58 367 55.761719 367 53 Z M 367 40 "/>
<path style="fill:none;stroke-width:1.5;stroke-linecap:butt;stroke-linejoin:miter;stroke:rgb(38.039216%,50.588235%,100%);stroke-opacity:1;stroke-miterlimit:10;" d="M 0 5 C 0 2.238281 2.238281 0 5 0 L 20 0 C 22.761719 0 25 2.238281 25 5 L 25 18 C 25 20.761719 22.761719 23 20 23 L 5 23 C 2.238281 23 0 20.761719 0 18 Z M 0 5 " transform="matrix(1,0,0,1,367,10)"/>
<path style=" stroke:none;fill-rule:nonzero;fill:rgb(38.039216%,50.588235%,100%);fill-opacity:0.490196;" d="M 367 15 C 367 12.238281 369.238281 10 372 10 L 387 10 C 389.761719 10 392 12.238281 392 15 L 392 28 C 392 30.761719 389.761719 33 387 33 L 372 33 C 369.238281 33 367 30.761719 367 28 Z M 367 15 "/>
<path style="fill:none;stroke-width:1.5;stroke-linecap:butt;stroke-linejoin:miter;stroke:rgb(38.039216%,50.588235%,100%);stroke-opacity:1;stroke-miterlimit:10;" d="M 0 5 C 0 2.238281 2.238281 0 5 0 L 20 0 C 22.761719 0 25 2.238281 25 5 L 25 31 C 25 33.761719 22.761719 36 20 36 L 5 36 C 2.238281 36 0 33.761719 0 31 Z M 0 5 " transform="matrix(1,0,0,1,340,48)"/>
<path style=" stroke:none;fill-rule:nonzero;fill:rgb(38.039216%,50.588235%,100%);fill-opacity:0.490196;" d="M 340 53 C 340 50.238281 342.238281 48 345 48 L 360 48 C 362.761719 48 365 50.238281 365 53 L 365 79 C 365 81.761719 362.761719 84 360 84 L 345 84 C 342.238281 84 340 81.761719 340 79 Z M 340 53 "/>
<path style="fill:none;stroke-width:1.5;stroke-linecap:butt;stroke-linejoin:miter;stroke:rgb(38.039216%,50.588235%,100%);stroke-opacity:1;stroke-miterlimit:10;" d="M 0 5 C 0 2.238281 2.238281 0 5 0 L 20 0 C 22.761719 0 25 2.238281 25 5 L 25 31 C 25 33.761719 22.761719 36 20 36 L 5 36 C 2.238281 36 0 33.761719 0 31 Z M 0 5 " transform="matrix(1,0,0,1,340,10)"/>
<path style=" stroke:none;fill-rule:nonzero;fill:rgb(38.039216%,50.588235%,100%);fill-opacity:0.490196;" d="M 340 15 C 340 12.238281 342.238281 10 345 10 L 360 10 C 362.761719 10 365 12.238281 365 15 L 365 41 C 365 43.761719 362.761719 46 360 46 L 345 46 C 342.238281 46 340 43.761719 340 41 Z M 340 15 "/>
<path style="fill:none;stroke-width:1.5;stroke-linecap:butt;stroke-linejoin:miter;stroke:rgb(38.039216%,50.588235%,100%);stroke-opacity:1;stroke-miterlimit:10;" d="M 0 5 C 0 2.238281 2.238281 0 5 0 L 20 0 C 22.761719 0 25 2.238281 25 5 L 25 31 C 25 33.761719 22.761719 36 20 36 L 5 36 C 2.238281 36 0 33.761719 0 31 Z M 0 5 " transform="matrix(1,0,0,1,313,48)"/>
<path style=" stroke:none;fill-rule:nonzero;fill:rgb(38.039216%,50.588235%,100%);fill-opacity:0.490196;" d="M 313 53 C 313 50.238281 315.238281 48 318 48 L 333 48 C 335.761719 48 338 50.238281 338 53 L 338 79 C 338 81.761719 335.761719 84 333 84 L 318 84 C 315.238281 84 313 81.761719 313 79 Z M 313 53 "/>
<path style="fill:none;stroke-width:1.5;stroke-linecap:butt;stroke-linejoin:miter;stroke:rgb(38.039216%,50.588235%,100%);stroke-opacity:1;stroke-miterlimit:10;" d="M 0 5 C 0 2.238281 2.238281 0 5 0 L 20 0 C 22.761719 0 25 2.238281 25 5 L 25 31 C 25 33.761719 22.761719 36 20 36 L 5 36 C 2.238281 36 0 33.761719 0 31 Z M 0 5 " transform="matrix(1,0,0,1,313,10)"/>
<path style=" stroke:none;fill-rule:nonzero;fill:rgb(38.039216%,50.588235%,100%);fill-opacity:0.490196;" d="M 313 15 C 313 12.238281 315.238281 10 318 10 L 333 10 C 335.761719 10 338 12.238281 338 15 L 338 41 C 338 43.761719 335.761719 46 333 46 L 318 46 C 315.238281 46 313 43.761719 313 41 Z M 313 15 "/>
<path style="fill:none;stroke-width:1.5;stroke-linecap:butt;stroke-linejoin:miter;stroke:rgb(38.039216%,50.588235%,100%);stroke-opacity:1;stroke-miterlimit:10;" d="M 0 5 C 0 2.238281 2.238281 0 5 0 L 20 0 C 22.761719 0 25 2.238281 25 5 L 25 69 C 25 71.761719 22.761719 74 20 74 L 5 74 C 2.238281 74 0 71.761719 0 69 Z M 0 5 " transform="matrix(1,0,0,1,286,10)"/>
<path style=" stroke:none;fill-rule:nonzero;fill:rgb(38.039216%,50.588235%,100%);fill-opacity:0.490196;" d="M 286 15 C 286 12.238281 288.238281 10 291 10 L 306 10 C 308.761719 10 311 12.238281 311 15 L 311 79 C 311 81.761719 308.761719 84 306 84 L 291 84 C 288.238281 84 286 81.761719 286 79 Z M 286 15 "/>
<path style="fill:none;stroke-width:1.5;stroke-linecap:butt;stroke-linejoin:miter;stroke:rgb(38.039216%,50.588235%,100%);stroke-opacity:1;stroke-miterlimit:10;" d="M 0 5 C 0 2.238281 2.238281 0 5 0 L 14 0 C 16.761719 0 19 2.238281 19 5 L 19 31 C 19 33.761719 16.761719 36 14 36 L 5 36 C 2.238281 36 0 33.761719 0 31 Z M 0 5 " transform="matrix(1,0,0,1,508,48)"/>
<path style=" stroke:none;fill-rule:nonzero;fill:rgb(38.039216%,50.588235%,100%);fill-opacity:0.490196;" d="M 508 53 C 508 50.238281 510.238281 48 513 48 L 522 48 C 524.761719 48 527 50.238281 527 53 L 527 79 C 527 81.761719 524.761719 84 522 84 L 513 84 C 510.238281 84 508 81.761719 508 79 Z M 508 53 "/>
<path style="fill:none;stroke-width:1.5;stroke-linecap:butt;stroke-linejoin:miter;stroke:rgb(38.039216%,50.588235%,100%);stroke-opacity:1;stroke-miterlimit:10;" d="M 0 5 C 0 2.238281 2.238281 0 5 0 L 14 0 C 16.761719 0 19 2.238281 19 5 L 19 31 C 19 33.761719 16.761719 36 14 36 L 5 36 C 2.238281 36 0 33.761719 0 31 Z M 0 5 " transform="matrix(1,0,0,1,508,10)"/>
<path style=" stroke:none;fill-rule:nonzero;fill:rgb(38.039216%,50.588235%,100%);fill-opacity:0.490196;" d="M 508 15 C 508 12.238281 510.238281 10 513 10 L 522 10 C 524.761719 10 527 12.238281 527 15 L 527 41 C 527 43.761719 524.761719 46 522 46 L 513 46 C 510.238281 46 508 43.761719 508 41 Z M 508 15 "/>
<path style="fill:none;stroke-width:1.5;stroke-linecap:butt;stroke-linejoin:miter;stroke:rgb(38.039216%,50.588235%,100%);stroke-opacity:1;stroke-miterlimit:10;" d="M 0 5 C 0 2.238281 2.238281 0 5 0 L 14 0 C 16.761719 0 19 2.238281 19 5 L 19 31 C 19 33.761719 16.761719 36 14 36 L 5 36 C 2.238281 36 0 33.761719 0 31 Z M 0 5 " transform="matrix(1,0,0,1,487,48)"/>
<path style=" stroke:none;fill-rule:nonzero;fill:rgb(38.039216%,50.588235%,100%);fill-opacity:0.490196;" d="M 487 53 C 487 50.238281 489.238281 48 492 48 L 501 48 C 503.761719 48 506 50.238281 506 53 L 506 79 C 506 81.761719 503.761719 84 501 84 L 492 84 C 489.238281 84 487 81.761719 487 79 Z M 487 53 "/>
<path style="fill:none;stroke-width:1.5;stroke-linecap:butt;stroke-linejoin:miter;stroke:rgb(38.039216%,50.588235%,100%);stroke-opacity:1;stroke-miterlimit:10;" d="M 0 5 C 0 2.238281 2.238281 0 5 0 L 14 0 C 16.761719 0 19 2.238281 19 5 L 19 31 C 19 33.761719 16.761719 36 14 36 L 5 36 C 2.238281 36 0 33.761719 0 31 Z M 0 5 " transform="matrix(1,0,0,1,487,10)"/>
<path style=" stroke:none;fill-rule:nonzero;fill:rgb(38.039216%,50.588235%,100%);fill-opacity:0.490196;" d="M 487 15 C 487 12.238281 489.238281 10 492 10 L 501 10 C 503.761719 10 506 12.238281 506 15 L 506 41 C 506 43.761719 503.761719 46 501 46 L 492 46 C 489.238281 46 487 43.761719 487 41 Z M 487 15 "/>
<path style="fill:none;stroke-width:1.5;stroke-linecap:butt;stroke-linejoin:miter;stroke:rgb(38.039216%,50.588235%,100%);stroke-opacity:1;stroke-miterlimit:10;" d="M 0 5 C 0 2.238281 2.238281 0 5 0 L 14 0 C 16.761719 0 19 2.238281 19 5 L 19 31 C 19 33.761719 16.761719 36 14 36 L 5 36 C 2.238281 36 0 33.761719 0 31 Z M 0 5 " transform="matrix(1,0,0,1,466,48)"/>
<path style=" stroke:none;fill-rule:nonzero;fill:rgb(38.039216%,50.588235%,100%);fill-opacity:0.490196;" d="M 466 53 C 466 50.238281 468.238281 48 471 48 L 480 48 C 482.761719 48 485 50.238281 485 53 L 485 79 C 485 81.761719 482.761719 84 480 84 L 471 84 C 468.238281 84 466 81.761719 466 79 Z M 466 53 "/>
<path style="fill:none;stroke-width:1.5;stroke-linecap:butt;stroke-linejoin:miter;stroke:rgb(38.039216%,50.588235%,100%);stroke-opacity:1;stroke-miterlimit:10;" d="M 0 5 C 0 2.238281 2.238281 0 5 0 L 14 0 C 16.761719 0 19 2.238281 19 5 L 19 31 C 19 33.761719 16.761719 36 14 36 L 5 36 C 2.238281 36 0 33.761719 0 31 Z M 0 5 " transform="matrix(1,0,0,1,466,10)"/>
<path style=" stroke:none;fill-rule:nonzero;fill:rgb(38.039216%,50.588235%,100%);fill-opacity:0.490196;" d="M 466 15 C 466 12.238281 468.238281 10 471 10 L 480 10 C 482.761719 10 485 12.238281 485 15 L 485 41 C 485 43.761719 482.761719 46 480 46 L 471 46 C 468.238281 46 466 43.761719 466 41 Z M 466 15 "/>
<path style="fill:none;stroke-width:1.5;stroke-linecap:butt;stroke-linejoin:miter;stroke:rgb(38.039216%,50.588235%,100%);stroke-opacity:1;stroke-miterlimit:10;" d="M 0 5 C 0 2.238281 2.238281 0 5 0 L 14 0 C 16.761719 0 19 2.238281 19 5 L 19 69 C 19 71.761719 16.761719 74 14 74 L 5 74 C 2.238281 74 0 71.761719 0 69 Z M 0 5 " transform="matrix(1,0,0,1,445,10)"/>
<path style=" stroke:none;fill-rule:nonzero;fill:rgb(38.039216%,50.588235%,100%);fill-opacity:0.490196;" d="M 445 15 C 445 12.238281 447.238281 10 450 10 L 459 10 C 461.761719 10 464 12.238281 464 15 L 464 79 C 464 81.761719 461.761719 84 459 84 L 450 84 C 447.238281 84 445 81.761719 445 79 Z M 445 15 "/>
<path style="fill:none;stroke-width:1.5;stroke-linecap:butt;stroke-linejoin:miter;stroke:rgb(38.039216%,50.588235%,100%);stroke-opacity:1;stroke-miterlimit:10;" d="M 0 5 C 0 2.238281 2.238281 0 5 0 L 14 0 C 16.761719 0 19 2.238281 19 5 L 19 69 C 19 71.761719 16.761719 74 14 74 L 5 74 C 2.238281 74 0 71.761719 0 69 Z M 0 5 " transform="matrix(1,0,0,1,424,10)"/>
<path style=" stroke:none;fill-rule:nonzero;fill:rgb(38.039216%,50.588235%,100%);fill-opacity:0.490196;" d="M 424 15 C 424 12.238281 426.238281 10 429 10 L 438 10 C 440.761719 10 443 12.238281 443 15 L 443 79 C 443 81.761719 440.761719 84 438 84 L 429 84 C 426.238281 84 424 81.761719 424 79 Z M 424 15 "/>
</g>
</svg>
