<?xml version="1.0" encoding="UTF-8"?>
<svg xmlns="http://www.w3.org/2000/svg" xmlns:xlink="http://www.w3.org/1999/xlink" width="360pt" height="48pt" viewBox="0 0 360 48" version="1.1">
<defs>
<clipPath id="clip1">
  <path d="M 4 4 L 60 4 L 60 44 L 4 44 Z M 4 4 "/>
</clipPath>
<clipPath id="clip2">
  <path d="M 4 6 C 4 4.894531 4.894531 4 6 4 L 58 4 C 59.105469 4 60 4.894531 60 6 L 60 42 C 60 43.105469 59.105469 44 58 44 L 6 44 C 4.894531 44 4 43.105469 4 42 Z M 4 6 "/>
</clipPath>
<clipPath id="clip3">
  <path d="M 78 4 L 134 4 L 134 23 L 78 23 Z M 78 4 "/>
</clipPath>
<clipPath id="clip4">
  <path d="M 78 6 C 78 4.894531 78.894531 4 80 4 L 132 4 C 133.105469 4 134 4.894531 134 6 L 134 21 C 134 22.105469 133.105469 23 132 23 L 80 23 C 78.894531 23 78 22.105469 78 21 Z M 78 6 "/>
</clipPath>
<clipPath id="clip5">
  <path d="M 78 25 L 134 25 L 134 44 L 78 44 Z M 78 25 "/>
</clipPath>
<clipPath id="clip6">
  <path d="M 78 27 C 78 25.894531 78.894531 25 80 25 L 132 25 C 133.105469 25 134 25.894531 134 27 L 134 42 C 134 43.105469 133.105469 44 132 44 L 80 44 C 78.894531 44 78 43.105469 78 42 Z M 78 27 "/>
</clipPath>
<clipPath id="clip7">
  <path d="M 152 4 L 169 4 L 169 44 L 152 44 Z M 152 4 "/>
</clipPath>
<clipPath id="clip8">
  <path d="M 152 6 C 152 4.894531 152.894531 4 154 4 L 167 4 C 168.105469 4 169 4.894531 169 6 L 169 42 C 169 43.105469 168.105469 44 167 44 L 154 44 C 152.894531 44 152 43.105469 152 42 Z M 152 6 "/>
</clipPath>
<clipPath id="clip9">
  <path d="M 171 4 L 188 4 L 188 44 L 171 44 Z M 171 4 "/>
</clipPath>
<clipPath id="clip10">
  <path d="M 171 6 C 171 4.894531 171.894531 4 173 4 L 186 4 C 187.105469 4 188 4.894531 188 6 L 188 42 C 188 43.105469 187.105469 44 186 44 L 173 44 C 171.894531 44 171 43.105469 171 42 Z M 171 6 "/>
</clipPath>
<clipPath id="clip11">
  <path d="M 190 4 L 207 4 L 207 44 L 190 44 Z M 190 4 "/>
</clipPath>
<clipPath id="clip12">
  <path d="M 190 6 C 190 4.894531 190.894531 4 192 4 L 205 4 C 206.105469 4 207 4.894531 207 6 L 207 42 C 207 43.105469 206.105469 44 205 44 L 192 44 C 190.894531 44 190 43.105469 190 42 Z M 190 6 "/>
</clipPath>
<clipPath id="clip13">
  <path d="M 226 4 L 238 4 L 238 44 L 226 44 Z M 226 4 "/>
</clipPath>
<clipPath id="clip14">
  <path d="M 226 6 C 226 4.894531 226.894531 4 228 4 L 236 4 C 237.105469 4 238 4.894531 238 6 L 238 42 C 238 43.105469 237.105469 44 236 44 L 228 44 C 226.894531 44 226 43.105469 226 42 Z M 226 6 "/>
</clipPath>
<clipPath id="clip15">
  <path d="M 240 4 L 252 4 L 252 44 L 240 44 Z M 240 4 "/>
</clipPath>
<clipPath id="clip16">
  <path d="M 240 6 C 240 4.894531 240.894531 4 242 4 L 250 4 C 251.105469 4 252 4.894531 252 6 L 252 42 C 252 43.105469 251.105469 44 250 44 L 242 44 C 240.894531 44 240 43.105469 240 42 Z M 240 6 "/>
</clipPath>
<clipPath id="clip17">
  <path d="M 254 4 L 266 4 L 266 44 L 254 44 Z M 254 4 "/>
</clipPath>
<clipPath id="clip18">
  <path d="M 254 6 C 254 4.894531 254.894531 4 256 4 L 264 4 C 265.105469 4 266 4.894531 266 6 L 266 42 C 266 43.105469 265.105469 44 264 44 L 256 44 C 254.894531 44 254 43.105469 254 42 Z M 254 6 "/>
</clipPath>
<clipPath id="clip19">
  <path d="M 268 4 L 280 4 L 280 44 L 268 44 Z M 268 4 "/>
</clipPath>
<clipPath id="clip20">
  <path d="M 268 6 C 268 4.894531 268.894531 4 270 4 L 278 4 C 279.105469 4 280 4.894531 280 6 L 280 42 C 280 43.105469 279.105469 44 278 44 L 270 44 C 268.894531 44 268 43.105469 268 42 Z M 268 6 "/>
</clipPath>
<clipPath id="clip21">
  <path d="M 300 4 L 309 4 L 309 44 L 300 44 Z M 300 4 "/>
</clipPath>
<clipPath id="clip22">
  <path d="M 300 6 C 300 4.894531 300.894531 4 302 4 L 307 4 C 308.105469 4 309 4.894531 309 6 L 309 42 C 309 43.105469 308.105469 44 307 44 L 302 44 C 300.894531 44 300 43.105469 300 42 Z M 300 6 "/>
</clipPath>
<clipPath id="clip23">
  <path d="M 311 4 L 320 4 L 320 44 L 311 44 Z M 311 4 "/>
</clipPath>
<clipPath id="clip24">
  <path d="M 311 6 C 311 4.894531 311.894531 4 313 4 L 318 4 C 319.105469 4 320 4.894531 320 6 L 320 42 C 320 43.105469 319.105469 44 318 44 L 313 44 C 311.894531 44 311 43.105469 311 42 Z M 311 6 "/>
</clipPath>
<clipPath id="clip25">
  <path d="M 322 4 L 331 4 L 331 44 L 322 44 Z M 322 4 "/>
</clipPath>
<clipPath id="clip26">
  <path d="M 322 6 C 322 4.894531 322.894531 4 324 4 L 329 4 C 330.105469 4 331 4.894531 331 6 L 331 42 C 331 43.105469 330.105469 44 329 44 L 324 44 C 322.894531 44 322 43.105469 322 42 Z M 322 6 "/>
</clipPath>
<clipPath id="clip27">
  <path d="M 333 4 L 342 4 L 342 44 L 333 44 Z M 333 4 "/>
</clipPath>
<clipPath id="clip28">
  <path d="M 333 6 C 333 4.894531 333.894531 4 335 4 L 340 4 C 341.105469 4 342 4.894531 342 6 L 342 42 C 342 43.105469 341.105469 44 340 44 L 335 44 C 333.894531 44 333 43.105469 333 42 Z M 333 6 "/>
</clipPath>
<clipPath id="clip29">
  <path d="M 344 4 L 353 4 L 353 44 L 344 44 Z M 344 4 "/>
</clipPath>
<clipPath id="clip30">
  <path d="M 344 6 C 344 4.894531 344.894531 4 346 4 L 351 4 C 352.105469 4 353 4.894531 353 6 L 353 42 C 353 43.105469 352.105469 44 351 44 L 346 44 C 344.894531 44 344 43.105469 344 42 Z M 344 6 "/>
</clipPath>
</defs>
<g id="surface2">
<path style="fill:none;stroke-width:1.5;stroke-linecap:butt;stroke-linejoin:miter;stroke:rgb(0%,0%,0%);stroke-opacity:0.266667;stroke-dasharray:10,4;stroke-dashoffset:1;stroke-miterlimit:10;" d="M 0.75 0.75 L 63.25 0.75 L 63.25 47.25 L 0.75 47.25 Z M 0.75 0.75 "/>
<path style="fill:none;stroke-width:1.5;stroke-linecap:butt;stroke-linejoin:miter;stroke:rgb(0%,0%,0%);stroke-opacity:0.2;stroke-dasharray:10,4;stroke-dashoffset:1;stroke-miterlimit:10;" d="M 3 3 L 61 3 L 61 45 L 3 45 Z M 3 3 "/>
<path style="fill:none;stroke-width:1.5;stroke-linecap:butt;stroke-linejoin:miter;stroke:rgb(0%,0%,0%);stroke-opacity:0.266667;stroke-dasharray:10,4;stroke-dashoffset:1;stroke-miterlimit:10;" d="M 74.75 0.75 L 137.25 0.75 L 137.25 47.25 L 74.75 47.25 Z M 74.75 0.75 "/>
<path style="fill:none;stroke-width:1.5;stroke-linecap:butt;stroke-linejoin:miter;stroke:rgb(0%,0%,0%);stroke-opacity:0.2;stroke-dasharray:10,4;stroke-dashoffset:1;stroke-miterlimit:10;" d="M 77 3 L 135 3 L 135 45 L 77 45 Z M 77 3 "/>
<path style="fill:none;stroke-width:1.5;stroke-linecap:butt;stroke-linejoin:miter;stroke:rgb(0%,0%,0%);stroke-opacity:0.266667;stroke-dasharray:10,4;stroke-dashoffset:1;stroke-miterlimit:10;" d="M 148.75 0.75 L 211.25 0.75 L 211.25 47.25 L 148.75 47.25 Z M 148.75 0.75 "/>
<path style="fill:none;stroke-width:1.5;stroke-linecap:butt;stroke-linejoin:miter;stroke:rgb(0%,0%,0%);stroke-opacity:0.2;stroke-dasharray:10,4;stroke-dashoffset:1;stroke-miterlimit:10;" d="M 151 3 L 209 3 L 209 45 L 151 45 Z M 151 3 "/>
<path style="fill:none;stroke-width:1.5;stroke-linecap:butt;stroke-linejoin:miter;stroke:rgb(0%,0%,0%);stroke-opacity:0.266667;stroke-dasharray:10,4;stroke-dashoffset:1;stroke-miterlimit:10;" d="M 222.75 0.75 L 285.25 0.75 L 285.25 47.25 L 222.75 47.25 Z M 222.75 0.75 "/>
<path style="fill:none;stroke-width:1.5;stroke-linecap:butt;stroke-linejoin:miter;stroke:rgb(0%,0%,0%);stroke-opacity:0.2;stroke-dasharray:10,4;stroke-dashoffset:1;stroke-miterlimit:10;" d="M 225 3 L 283 3 L 283 45 L 225 45 Z M 225 3 "/>
<path style="fill:none;stroke-width:1.5;stroke-linecap:butt;stroke-linejoin:miter;stroke:rgb(0%,0%,0%);stroke-opacity:0.266667;stroke-dasharray:10,4;stroke-dashoffset:1;stroke-miterlimit:10;" d="M 296.75 0.75 L 359.25 0.75 L 359.25 47.25 L 296.75 47.25 Z M 296.75 0.75 "/>
<path style="fill:none;stroke-width:1.5;stroke-linecap:butt;stroke-linejoin:miter;stroke:rgb(0%,0%,0%);stroke-opacity:0.2;stroke-dasharray:10,4;stroke-dashoffset:1;stroke-miterlimit:10;" d="M 299 3 L 357 3 L 357 45 L 299 45 Z M 299 3 "/>
<g clip-path="url(#clip1)" clip-rule="nonzero">
<g clip-path="url(#clip2)" clip-rule="nonzero">
<rect x="0" y="0" width="360" height="48" style="fill:rgb(38.039216%,50.588235%,100%);fill-opacity:0.490196;stroke:none;"/>
<path style="fill:none;stroke-width:2;stroke-linecap:butt;stroke-linejoin:miter;stroke:rgb(38.039216%,50.588235%,100%);stroke-opacity:1;stroke-miterlimit:10;" d="M 1 3 C 1 1.894531 1.894531 1 3 1 L 55 1 C 56.105469 1 57 1.894531 57 3 L 57 39 C 57 40.105469 56.105469 41 55 41 L 3 41 C 1.894531 41 1 40.105469 1 39 Z M 1 3 " transform="matrix(1,0,0,1,3,3)"/>
</g>
</g>
<g clip-path="url(#clip3)" clip-rule="nonzero">
<g clip-path="url(#clip4)" clip-rule="nonzero">
<rect x="0" y="0" width="360" height="48" style="fill:rgb(38.039216%,50.588235%,100%);fill-opacity:0.490196;stroke:none;"/>
<path style="fill:none;stroke-width:2;stroke-linecap:butt;stroke-linejoin:miter;stroke:rgb(38.039216%,50.588235%,100%);stroke-opacity:1;stroke-miterlimit:10;" d="M 1 3 C 1 1.894531 1.894531 1 3 1 L 55 1 C 56.105469 1 57 1.894531 57 3 L 57 18 C 57 19.105469 56.105469 20 55 20 L 3 20 C 1.894531 20 1 19.105469 1 18 Z M 1 3 " transform="matrix(1,0,0,1,77,3)"/>
</g>
</g>
<g clip-path="url(#clip5)" clip-rule="nonzero">
<g clip-path="url(#clip6)" clip-rule="nonzero">
<rect x="0" y="0" width="360" height="48" style="fill:rgb(38.039216%,50.588235%,100%);fill-opacity:0.490196;stroke:none;"/>
<path style="fill:none;stroke-width:2;stroke-linecap:butt;stroke-linejoin:miter;stroke:rgb(38.039216%,50.588235%,100%);stroke-opacity:1;stroke-miterlimit:10;" d="M 1 3 C 1 1.894531 1.894531 1 3 1 L 55 1 C 56.105469 1 57 1.894531 57 3 L 57 18 C 57 19.105469 56.105469 20 55 20 L 3 20 C 1.894531 20 1 19.105469 1 18 Z M 1 3 " transform="matrix(1,0,0,1,77,24)"/>
</g>
</g>
<g clip-path="url(#clip7)" clip-rule="nonzero">
<g clip-path="url(#clip8)" clip-rule="nonzero">
<rect x="0" y="0" width="360" height="48" style="fill:rgb(38.039216%,50.588235%,100%);fill-opacity:0.490196;stroke:none;"/>
<path style="fill:none;stroke-width:2;stroke-linecap:butt;stroke-linejoin:miter;stroke:rgb(38.039216%,50.588235%,100%);stroke-opacity:1;stroke-miterlimit:10;" d="M 1 3 C 1 1.894531 1.894531 1 3 1 L 16 1 C 17.105469 1 18 1.894531 18 3 L 18 39 C 18 40.105469 17.105469 41 16 41 L 3 41 C 1.894531 41 1 40.105469 1 39 Z M 1 3 " transform="matrix(1,0,0,1,151,3)"/>
</g>
</g>
<g clip-path="url(#clip9)" clip-rule="nonzero">
<g clip-path="url(#clip10)" clip-rule="nonzero">
<rect x="0" y="0" width="360" height="48" style="fill:rgb(38.039216%,50.588235%,100%);fill-opacity:0.490196;stroke:none;"/>
<path style="fill:none;stroke-width:2;stroke-linecap:butt;stroke-linejoin:miter;stroke:rgb(38.039216%,50.588235%,100%);stroke-opacity:1;stroke-miterlimit:10;" d="M 1 3 C 1 1.894531 1.894531 1 3 1 L 16 1 C 17.105469 1 18 1.894531 18 3 L 18 39 C 18 40.105469 17.105469 41 16 41 L 3 41 C 1.894531 41 1 40.105469 1 39 Z M 1 3 " transform="matrix(1,0,0,1,170,3)"/>
</g>
</g>
<g clip-path="url(#clip11)" clip-rule="nonzero">
<g clip-path="url(#clip12)" clip-rule="nonzero">
<rect x="0" y="0" width="360" height="48" style="fill:rgb(38.039216%,50.588235%,100%);fill-opacity:0.490196;stroke:none;"/>
<path style="fill:none;stroke-width:2;stroke-linecap:butt;stroke-linejoin:miter;stroke:rgb(38.039216%,50.588235%,100%);stroke-opacity:1;stroke-miterlimit:10;" d="M 1 3 C 1 1.894531 1.894531 1 3 1 L 16 1 C 17.105469 1 18 1.894531 18 3 L 18 39 C 18 40.105469 17.105469 41 16 41 L 3 41 C 1.894531 41 1 40.105469 1 39 Z M 1 3 " transform="matrix(1,0,0,1,189,3)"/>
</g>
</g>
<g clip-path="url(#clip13)" clip-rule="nonzero">
<g clip-path="url(#clip14)" clip-rule="nonzero">
<rect x="0" y="0" width="360" height="48" style="fill:rgb(38.039216%,50.588235%,100%);fill-opacity:0.490196;stroke:none;"/>
<path style="fill:none;stroke-width:2;stroke-linecap:butt;stroke-linejoin:miter;stroke:rgb(38.039216%,50.588235%,100%);stroke-opacity:1;stroke-miterlimit:10;" d="M 1 3 C 1 1.894531 1.894531 1 3 1 L 11 1 C 12.105469 1 13 1.894531 13 3 L 13 39 C 13 40.105469 12.105469 41 11 41 L 3 41 C 1.894531 41 1 40.105469 1 39 Z M 1 3 " transform="matrix(1,0,0,1,225,3)"/>
</g>
</g>
<g clip-path="url(#clip15)" clip-rule="nonzero">
<g clip-path="url(#clip16)" clip-rule="nonzero">
<rect x="0" y="0" width="360" height="48" style="fill:rgb(38.039216%,50.588235%,100%);fill-opacity:0.490196;stroke:none;"/>
<path style="fill:none;stroke-width:2;stroke-linecap:butt;stroke-linejoin:miter;stroke:rgb(38.039216%,50.588235%,100%);stroke-opacity:1;stroke-miterlimit:10;" d="M 1 3 C 1 1.894531 1.894531 1 3 1 L 11 1 C 12.105469 1 13 1.894531 13 3 L 13 39 C 13 40.105469 12.105469 41 11 41 L 3 41 C 1.894531 41 1 40.105469 1 39 Z M 1 3 " transform="matrix(1,0,0,1,239,3)"/>
</g>
</g>
<g clip-path="url(#clip17)" clip-rule="nonzero">
<g clip-path="url(#clip18)" clip-rule="nonzero">
<rect x="0" y="0" width="360" height="48" style="fill:rgb(38.039216%,50.588235%,100%);fill-opacity:0.490196;stroke:none;"/>
<path style="fill:none;stroke-width:2;stroke-linecap:butt;stroke-linejoin:miter;stroke:rgb(38.039216%,50.588235%,100%);stroke-opacity:1;stroke-miterlimit:10;" d="M 1 3 C 1 1.894531 1.894531 1 3 1 L 11 1 C 12.105469 1 13 1.894531 13 3 L 13 39 C 13 40.105469 12.105469 41 11 41 L 3 41 C 1.894531 41 1 40.105469 1 39 Z M 1 3 " transform="matrix(1,0,0,1,253,3)"/>
</g>
</g>
<g clip-path="url(#clip19)" clip-rule="nonzero">
<g clip-path="url(#clip20)" clip-rule="nonzero">
<rect x="0" y="0" width="360" height="48" style="fill:rgb(38.039216%,50.588235%,100%);fill-opacity:0.490196;stroke:none;"/>
<path style="fill:none;stroke-width:2;stroke-linecap:butt;stroke-linejoin:miter;stroke:rgb(38.039216%,50.588235%,100%);stroke-opacity:1;stroke-miterlimit:10;" d="M 1 3 C 1 1.894531 1.894531 1 3 1 L 11 1 C 12.105469 1 13 1.894531 13 3 L 13 39 C 13 40.105469 12.105469 41 11 41 L 3 41 C 1.894531 41 1 40.105469 1 39 Z M 1 3 " transform="matrix(1,0,0,1,267,3)"/>
</g>
</g>
<g clip-path="url(#clip21)" clip-rule="nonzero">
<g clip-path="url(#clip22)" clip-rule="nonzero">
<rect x="0" y="0" width="360" height="48" style="fill:rgb(38.039216%,50.588235%,100%);fill-opacity:0.490196;stroke:none;"/>
<path style="fill:none;stroke-width:2;stroke-linecap:butt;stroke-linejoin:miter;stroke:rgb(38.039216%,50.588235%,100%);stroke-opacity:1;stroke-miterlimit:10;" d="M 1 3 C 1 1.894531 1.894531 1 3 1 L 8 1 C 9.105469 1 10 1.894531 10 3 L 10 39 C 10 40.105469 9.105469 41 8 41 L 3 41 C 1.894531 41 1 40.105469 1 39 Z M 1 3 " transform="matrix(1,0,0,1,299,3)"/>
</g>
</g>
<g clip-path="url(#clip23)" clip-rule="nonzero">
<g clip-path="url(#clip24)" clip-rule="nonzero">
<rect x="0" y="0" width="360" height="48" style="fill:rgb(38.039216%,50.588235%,100%);fill-opacity:0.490196;stroke:none;"/>
<path style="fill:none;stroke-width:2;stroke-linecap:butt;stroke-linejoin:miter;stroke:rgb(38.039216%,50.588235%,100%);stroke-opacity:1;stroke-miterlimit:10;" d="M 1 3 C 1 1.894531 1.894531 1 3 1 L 8 1 C 9.105469 1 10 1.894531 10 3 L 10 39 C 10 40.105469 9.105469 41 8 41 L 3 41 C 1.894531 41 1 40.105469 1 39 Z M 1 3 " transform="matrix(1,0,0,1,310,3)"/>
</g>
</g>
<g clip-path="url(#clip25)" clip-rule="nonzero">
<g clip-path="url(#clip26)" clip-rule="nonzero">
<rect x="0" y="0" width="360" height="48" style="fill:rgb(38.039216%,50.588235%,100%);fill-opacity:0.490196;stroke:none;"/>
<path style="fill:none;stroke-width:2;stroke-linecap:butt;stroke-linejoin:miter;stroke:rgb(38.039216%,50.588235%,100%);stroke-opacity:1;stroke-miterlimit:10;" d="M 1 3 C 1 1.894531 1.894531 1 3 1 L 8 1 C 9.105469 1 10 1.894531 10 3 L 10 39 C 10 40.105469 9.105469 41 8 41 L 3 41 C 1.894531 41 1 40.105469 1 39 Z M 1 3 " transform="matrix(1,0,0,1,321,3)"/>
</g>
</g>
<g clip-path="url(#clip27)" clip-rule="nonzero">
<g clip-path="url(#clip28)" clip-rule="nonzero">
<rect x="0" y="0" width="360" height="48" style="fill:rgb(38.039216%,50.588235%,100%);fill-opacity:0.490196;stroke:none;"/>
<path style="fill:none;stroke-width:2;stroke-linecap:butt;stroke-linejoin:miter;stroke:rgb(38.039216%,50.588235%,100%);stroke-opacity:1;stroke-miterlimit:10;" d="M 1 3 C 1 1.894531 1.894531 1 3 1 L 8 1 C 9.105469 1 10 1.894531 10 3 L 10 39 C 10 40.105469 9.105469 41 8 41 L 3 41 C 1.894531 41 1 40.105469 1 39 Z M 1 3 " transform="matrix(1,0,0,1,332,3)"/>
</g>
</g>
<g clip-path="url(#clip29)" clip-rule="nonzero">
<g clip-path="url(#clip30)" clip-rule="nonzero">
<rect x="0" y="0" width="360" height="48" style="fill:rgb(38.039216%,50.588235%,100%);fill-opacity:0.490196;stroke:none;"/>
<path style="fill:none;stroke-width:2;stroke-linecap:butt;stroke-linejoin:miter;stroke:rgb(38.039216%,50.588235%,100%);stroke-opacity:1;stroke-miterlimit:10;" d="M 1 3 C 1 1.894531 1.894531 1 3 1 L 8 1 C 9.105469 1 10 1.894531 10 3 L 10 39 C 10 40.105469 9.105469 41 8 41 L 3 41 C 1.894531 41 1 40.105469 1 39 Z M 1 3 " transform="matrix(1,0,0,1,343,3)"/>
</g>
</g>
</g>
</svg>
