<?xml version="1.0" encoding="UTF-8"?>
<svg xmlns="http://www.w3.org/2000/svg" xmlns:xlink="http://www.w3.org/1999/xlink" width="320pt" height="240pt" viewBox="0 0 320 240" version="1.1">
<g id="surface2">
<path style="fill:none;stroke-width:1.5;stroke-linecap:butt;stroke-linejoin:miter;stroke:rgb(0%,0%,0%);stroke-opacity:0.266667;stroke-dasharray:10,4;stroke-dashoffset:1;stroke-miterlimit:10;" d="M 0.75 0.75 L 319.25 0.75 L 319.25 239.25 L 0.75 239.25 Z M 0.75 0.75 "/>
<path style="fill:none;stroke-width:1.5;stroke-linecap:butt;stroke-linejoin:miter;stroke:rgb(0%,0%,0%);stroke-opacity:0.2;stroke-dasharray:10,4;stroke-dashoffset:1;stroke-miterlimit:10;" d="M 10 10 L 310 10 L 310 230 L 10 230 Z M 10 10 "/>
<path style="fill:none;stroke-width:1.5;stroke-linecap:butt;stroke-linejoin:miter;stroke:rgb(38.039216%,50.588235%,100%);stroke-opacity:1;stroke-miterlimit:10;" d="M 0 5 C 0 2.238281 2.238281 0 5 0 L 293 0 C 295.761719 0 298 2.238281 298 5 L 298 48 C 298 50.761719 295.761719 53 293 53 L 5 53 C 2.238281 53 0 50.761719 0 48 Z M 0 5 " transform="matrix(1,0,0,1,10,10)"/>
<path style=" stroke:none;fill-rule:nonzero;fill:rgb(38.039216%,50.588235%,100%);fill-opacity:0.490196;" d="M 10 15 C 10 12.238281 12.238281 10 15 10 L 303 10 C 305.761719 10 308 12.238281 308 15 L 308 58 C 308 60.761719 305.761719 63 303 63 L 15 63 C 12.238281 63 10 60.761719 10 58 Z M 10 15 "/>
<path style="fill:none;stroke-width:1.5;stroke-linecap:butt;stroke-linejoin:miter;stroke:rgb(38.039216%,50.588235%,100%);stroke-opacity:1;stroke-miterlimit:10;" d="M 0 5 C 0 2.238281 2.238281 0 5 0 L 293 0 C 295.761719 0 298 2.238281 298 5 L 298 48 C 298 50.761719 295.761719 53 293 53 L 5 53 C 2.238281 53 0 50.761719 0 48 Z M 0 5 " transform="matrix(1,0,0,1,10,65)"/>
<path style=" stroke:none;fill-rule:nonzero;fill:rgb(38.039216%,50.588235%,100%);fill-opacity:0.490196;" d="M 10 70 C 10 67.238281 12.238281 65 15 65 L 303 65 C 305.761719 65 308 67.238281 308 70 L 308 113 C 308 115.761719 305.761719 118 303 118 L 15 118 C 12.238281 118 10 115.761719 10 113 Z M 10 70 "/>
<path style="fill:none;stroke-width:1.5;stroke-linecap:butt;stroke-linejoin:miter;stroke:rgb(38.039216%,50.588235%,100%);stroke-opacity:1;stroke-miterlimit:10;" d="M 0 5 C 0 2.238281 2.238281 0 5 0 L 293 0 C 295.761719 0 298 2.238281 298 5 L 298 48 C 298 50.761719 295.761719 53 293 53 L 5 53 C 2.238281 53 0 50.761719 0 48 Z M 0 5 " transform="matrix(1,0,0,1,10,120)"/>
<path style=" stroke:none;fill-rule:nonzero;fill:rgb(38.039216%,50.588235%,100%);fill-opacity:0.490196;" d="M 10 125 C 10 122.238281 12.238281 120 15 120 L 303 120 C 305.761719 120 308 122.238281 308 125 L 308 168 C 308 170.761719 305.761719 173 303 173 L 15 173 C 12.238281 173 10 170.761719 10 168 Z M 10 125 "/>
<path style="fill:none;stroke-width:1.5;stroke-linecap:butt;stroke-linejoin:miter;stroke:rgb(38.039216%,50.588235%,100%);stroke-opacity:1;stroke-miterlimit:10;" d="M 0 5 C 0 2.238281 2.238281 0 5 0 L 293 0 C 295.761719 0 298 2.238281 298 5 L 298 48 C 298 50.761719 295.761719 53 293 53 L 5 53 C 2.238281 53 0 50.761719 0 48 Z M 0 5 " transform="matrix(1,0,0,1,10,175)"/>
<path style=" stroke:none;fill-rule:nonzero;fill:rgb(38.039216%,50.588235%,100%);fill-opacity:0.490196;" d="M 10 180 C 10 177.238281 12.238281 175 15 175 L 303 175 C 305.761719 175 308 177.238281 308 180 L 308 223 C 308 225.761719 305.761719 228 303 228 L 15 228 C 12.238281 228 10 225.761719 10 223 Z M 10 180 "/>
<path style="fill:none;stroke-width:1.5;stroke-linecap:butt;stroke-linejoin:miter;stroke:rgb(38.039216%,50.588235%,100%);stroke-opacity:1;stroke-miterlimit:10;" d="M 0 5 C 0 2.238281 2.238281 0 5 0 L 183 0 C 185.761719 0 188 2.238281 188 5 L 188 103 C 188 105.761719 185.761719 108 183 108 L 5 108 C 2.238281 108 0 105.761719 0 103 Z M 0 5 " transform="matrix(1,0,0,1,65,65)"/>
<path style=" stroke:none;fill-rule:nonzero;fill:rgb(38.039216%,50.588235%,100%);fill-opacity:0.490196;" d="M 65 70 C 65 67.238281 67.238281 65 70 65 L 248 65 C 250.761719 65 253 67.238281 253 70 L 253 168 C 253 170.761719 250.761719 173 248 173 L 70 173 C 67.238281 173 65 170.761719 65 168 Z M 65 70 "/>
</g>
</svg>
