<?xml version="1.0" encoding="UTF-8"?>
<svg xmlns="http://www.w3.org/2000/svg" xmlns:xlink="http://www.w3.org/1999/xlink" width="542pt" height="96pt" viewBox="0 0 542 96" version="1.1">
<defs>
<clipPath id="clip1">
  <path d="M 11 11 L 117 11 L 117 34 L 11 34 Z M 11 11 "/>
</clipPath>
<clipPath id="clip2">
  <path d="M 11 16 C 11 13.238281 13.238281 11 16 11 L 112 11 C 114.761719 11 117 13.238281 117 16 L 117 29 C 117 31.761719 114.761719 34 112 34 L 16 34 C 13.238281 34 11 31.761719 11 29 Z M 11 16 "/>
</clipPath>
<clipPath id="clip3">
  <path d="M 11 36 L 117 36 L 117 59 L 11 59 Z M 11 36 "/>
</clipPath>
<clipPath id="clip4">
  <path d="M 11 41 C 11 38.238281 13.238281 36 16 36 L 112 36 C 114.761719 36 117 38.238281 117 41 L 117 54 C 117 56.761719 114.761719 59 112 59 L 16 59 C 13.238281 59 11 56.761719 11 54 Z M 11 41 "/>
</clipPath>
<clipPath id="clip5">
  <path d="M 11 61 L 117 61 L 117 84 L 11 84 Z M 11 61 "/>
</clipPath>
<clipPath id="clip6">
  <path d="M 11 66 C 11 63.238281 13.238281 61 16 61 L 112 61 C 114.761719 61 117 63.238281 117 66 L 117 79 C 117 81.761719 114.761719 84 112 84 L 16 84 C 13.238281 84 11 81.761719 11 79 Z M 11 66 "/>
</clipPath>
<clipPath id="clip7">
  <path d="M 18 18 L 110 18 L 110 78 L 18 78 Z M 18 18 "/>
</clipPath>
<clipPath id="clip8">
  <path d="M 18.601562 23.601562 C 18.601562 20.839844 20.839844 18.601562 23.601562 18.601562 L 104.398438 18.601562 C 107.160156 18.601562 109.398438 20.839844 109.398438 23.601562 L 109.398438 72.398438 C 109.398438 75.160156 107.160156 77.398438 104.398438 77.398438 L 23.601562 77.398438 C 20.839844 77.398438 18.601562 75.160156 18.601562 72.398438 Z M 18.601562 23.601562 "/>
</clipPath>
<clipPath id="clip9">
  <path d="M 149 11 L 255 11 L 255 34 L 149 34 Z M 149 11 "/>
</clipPath>
<clipPath id="clip10">
  <path d="M 149 16 C 149 13.238281 151.238281 11 154 11 L 250 11 C 252.761719 11 255 13.238281 255 16 L 255 29 C 255 31.761719 252.761719 34 250 34 L 154 34 C 151.238281 34 149 31.761719 149 29 Z M 149 16 "/>
</clipPath>
<clipPath id="clip11">
  <path d="M 149 36 L 255 36 L 255 59 L 149 59 Z M 149 36 "/>
</clipPath>
<clipPath id="clip12">
  <path d="M 149 41 C 149 38.238281 151.238281 36 154 36 L 250 36 C 252.761719 36 255 38.238281 255 41 L 255 54 C 255 56.761719 252.761719 59 250 59 L 154 59 C 151.238281 59 149 56.761719 149 54 Z M 149 41 "/>
</clipPath>
<clipPath id="clip13">
  <path d="M 149 61 L 255 61 L 255 84 L 149 84 Z M 149 61 "/>
</clipPath>
<clipPath id="clip14">
  <path d="M 149 66 C 149 63.238281 151.238281 61 154 61 L 250 61 C 252.761719 61 255 63.238281 255 66 L 255 79 C 255 81.761719 252.761719 84 250 84 L 154 84 C 151.238281 84 149 81.761719 149 79 Z M 149 66 "/>
</clipPath>
<clipPath id="clip15">
  <path d="M 164 26 L 240 26 L 240 70 L 164 70 Z M 164 26 "/>
</clipPath>
<clipPath id="clip16">
  <path d="M 164.199219 31.199219 C 164.199219 28.4375 166.4375 26.199219 169.199219 26.199219 L 234.800781 26.199219 C 237.5625 26.199219 239.800781 28.4375 239.800781 31.199219 L 239.800781 64.800781 C 239.800781 67.5625 237.5625 69.800781 234.800781 69.800781 L 169.199219 69.800781 C 166.4375 69.800781 164.199219 67.5625 164.199219 64.800781 Z M 164.199219 31.199219 "/>
</clipPath>
<clipPath id="clip17">
  <path d="M 287 11 L 393 11 L 393 34 L 287 34 Z M 287 11 "/>
</clipPath>
<clipPath id="clip18">
  <path d="M 287 16 C 287 13.238281 289.238281 11 292 11 L 388 11 C 390.761719 11 393 13.238281 393 16 L 393 29 C 393 31.761719 390.761719 34 388 34 L 292 34 C 289.238281 34 287 31.761719 287 29 Z M 287 16 "/>
</clipPath>
<clipPath id="clip19">
  <path d="M 287 36 L 393 36 L 393 59 L 287 59 Z M 287 36 "/>
</clipPath>
<clipPath id="clip20">
  <path d="M 287 41 C 287 38.238281 289.238281 36 292 36 L 388 36 C 390.761719 36 393 38.238281 393 41 L 393 54 C 393 56.761719 390.761719 59 388 59 L 292 59 C 289.238281 59 287 56.761719 287 54 Z M 287 41 "/>
</clipPath>
<clipPath id="clip21">
  <path d="M 287 61 L 393 61 L 393 84 L 287 84 Z M 287 61 "/>
</clipPath>
<clipPath id="clip22">
  <path d="M 287 66 C 287 63.238281 289.238281 61 292 61 L 388 61 C 390.761719 61 393 63.238281 393 66 L 393 79 C 393 81.761719 390.761719 84 388 84 L 292 84 C 289.238281 84 287 81.761719 287 79 Z M 287 66 "/>
</clipPath>
<clipPath id="clip23">
  <path d="M 309 33 L 371 33 L 371 63 L 309 63 Z M 309 33 "/>
</clipPath>
<clipPath id="clip24">
  <path d="M 309.800781 38.800781 C 309.800781 36.039062 312.039062 33.800781 314.800781 33.800781 L 365.199219 33.800781 C 367.960938 33.800781 370.199219 36.039062 370.199219 38.800781 L 370.199219 57.199219 C 370.199219 59.960938 367.960938 62.199219 365.199219 62.199219 L 314.800781 62.199219 C 312.039062 62.199219 309.800781 59.960938 309.800781 57.199219 Z M 309.800781 38.800781 "/>
</clipPath>
<clipPath id="clip25">
  <path d="M 425 11 L 531 11 L 531 34 L 425 34 Z M 425 11 "/>
</clipPath>
<clipPath id="clip26">
  <path d="M 425 16 C 425 13.238281 427.238281 11 430 11 L 526 11 C 528.761719 11 531 13.238281 531 16 L 531 29 C 531 31.761719 528.761719 34 526 34 L 430 34 C 427.238281 34 425 31.761719 425 29 Z M 425 16 "/>
</clipPath>
<clipPath id="clip27">
  <path d="M 425 36 L 531 36 L 531 59 L 425 59 Z M 425 36 "/>
</clipPath>
<clipPath id="clip28">
  <path d="M 425 41 C 425 38.238281 427.238281 36 430 36 L 526 36 C 528.761719 36 531 38.238281 531 41 L 531 54 C 531 56.761719 528.761719 59 526 59 L 430 59 C 427.238281 59 425 56.761719 425 54 Z M 425 41 "/>
</clipPath>
<clipPath id="clip29">
  <path d="M 425 61 L 531 61 L 531 84 L 425 84 Z M 425 61 "/>
</clipPath>
<clipPath id="clip30">
  <path d="M 425 66 C 425 63.238281 427.238281 61 430 61 L 526 61 C 528.761719 61 531 63.238281 531 66 L 531 79 C 531 81.761719 528.761719 84 526 84 L 430 84 C 427.238281 84 425 81.761719 425 79 Z M 425 66 "/>
</clipPath>
<clipPath id="clip31">
  <path d="M 455 41 L 501 41 L 501 55 L 455 55 Z M 455 41 "/>
</clipPath>
<clipPath id="clip32">
  <path d="M 455.398438 46.398438 C 455.398438 43.636719 457.636719 41.398438 460.398438 41.398438 L 495.601562 41.398438 C 498.363281 41.398438 500.601562 43.636719 500.601562 46.398438 L 500.601562 49.601562 C 500.601562 52.363281 498.363281 54.601562 495.601562 54.601562 L 460.398438 54.601562 C 457.636719 54.601562 455.398438 52.363281 455.398438 49.601562 Z M 455.398438 46.398438 "/>
</clipPath>
</defs>
<g id="surface2">
<path style="fill:none;stroke-width:1.5;stroke-linecap:butt;stroke-linejoin:miter;stroke:rgb(0%,0%,0%);stroke-opacity:0.266667;stroke-dasharray:10,4;stroke-dashoffset:1;stroke-miterlimit:10;" d="M 0.75 0.75 L 127.25 0.75 L 127.25 95.25 L 0.75 95.25 Z M 0.75 0.75 "/>
<path style="fill:none;stroke-width:1.5;stroke-linecap:butt;stroke-linejoin:miter;stroke:rgb(0%,0%,0%);stroke-opacity:0.2;stroke-dasharray:10,4;stroke-dashoffset:1;stroke-miterlimit:10;" d="M 10 10 L 118 10 L 118 86 L 10 86 Z M 10 10 "/>
<path style="fill:none;stroke-width:1.5;stroke-linecap:butt;stroke-linejoin:miter;stroke:rgb(0%,0%,0%);stroke-opacity:0.266667;stroke-dasharray:10,4;stroke-dashoffset:1;stroke-miterlimit:10;" d="M 138.75 0.75 L 265.25 0.75 L 265.25 95.25 L 138.75 95.25 Z M 138.75 0.75 "/>
<path style="fill:none;stroke-width:1.5;stroke-linecap:butt;stroke-linejoin:miter;stroke:rgb(0%,0%,0%);stroke-opacity:0.2;stroke-dasharray:10,4;stroke-dashoffset:1;stroke-miterlimit:10;" d="M 148 10 L 256 10 L 256 86 L 148 86 Z M 148 10 "/>
<path style="fill:none;stroke-width:1.5;stroke-linecap:butt;stroke-linejoin:miter;stroke:rgb(0%,0%,0%);stroke-opacity:0.266667;stroke-dasharray:10,4;stroke-dashoffset:1;stroke-miterlimit:10;" d="M 276.75 0.75 L 403.25 0.75 L 403.25 95.25 L 276.75 95.25 Z M 276.75 0.75 "/>
<path style="fill:none;stroke-width:1.5;stroke-linecap:butt;stroke-linejoin:miter;stroke:rgb(0%,0%,0%);stroke-opacity:0.2;stroke-dasharray:10,4;stroke-dashoffset:1;stroke-miterlimit:10;" d="M 286 10 L 394 10 L 394 86 L 286 86 Z M 286 10 "/>
<path style="fill:none;stroke-width:1.5;stroke-linecap:butt;stroke-linejoin:miter;stroke:rgb(0%,0%,0%);stroke-opacity:0.266667;stroke-dasharray:10,4;stroke-dashoffset:1;stroke-miterlimit:10;" d="M 414.75 0.75 L 541.25 0.75 L 541.25 95.25 L 414.75 95.25 Z M 414.75 0.75 "/>
<path style="fill:none;stroke-width:1.5;stroke-linecap:butt;stroke-linejoin:miter;stroke:rgb(0%,0%,0%);stroke-opacity:0.2;stroke-dasharray:10,4;stroke-dashoffset:1;stroke-miterlimit:10;" d="M 424 10 L 532 10 L 532 86 L 424 86 Z M 424 10 "/>
<g clip-path="url(#clip1)" clip-rule="nonzero">
<g clip-path="url(#clip2)" clip-rule="nonzero">
<rect x="0" y="0" width="542" height="96" style="fill:rgb(38.039216%,50.588235%,100%);fill-opacity:0.490196;stroke:none;"/>
<path style="fill:none;stroke-width:2;stroke-linecap:butt;stroke-linejoin:miter;stroke:rgb(38.039216%,50.588235%,100%);stroke-opacity:1;stroke-miterlimit:10;" d="M 1 6 C 1 3.238281 3.238281 1 6 1 L 102 1 C 104.761719 1 107 3.238281 107 6 L 107 19 C 107 21.761719 104.761719 24 102 24 L 6 24 C 3.238281 24 1 21.761719 1 19 Z M 1 6 " transform="matrix(1,0,0,1,10,10)"/>
</g>
</g>
<g clip-path="url(#clip3)" clip-rule="nonzero">
<g clip-path="url(#clip4)" clip-rule="nonzero">
<rect x="0" y="0" width="542" height="96" style="fill:rgb(38.039216%,50.588235%,100%);fill-opacity:0.490196;stroke:none;"/>
<path style="fill:none;stroke-width:2;stroke-linecap:butt;stroke-linejoin:miter;stroke:rgb(38.039216%,50.588235%,100%);stroke-opacity:1;stroke-miterlimit:10;" d="M 1 6 C 1 3.238281 3.238281 1 6 1 L 102 1 C 104.761719 1 107 3.238281 107 6 L 107 19 C 107 21.761719 104.761719 24 102 24 L 6 24 C 3.238281 24 1 21.761719 1 19 Z M 1 6 " transform="matrix(1,0,0,1,10,35)"/>
</g>
</g>
<g clip-path="url(#clip5)" clip-rule="nonzero">
<g clip-path="url(#clip6)" clip-rule="nonzero">
<rect x="0" y="0" width="542" height="96" style="fill:rgb(38.039216%,50.588235%,100%);fill-opacity:0.490196;stroke:none;"/>
<path style="fill:none;stroke-width:2;stroke-linecap:butt;stroke-linejoin:miter;stroke:rgb(38.039216%,50.588235%,100%);stroke-opacity:1;stroke-miterlimit:10;" d="M 1 6 C 1 3.238281 3.238281 1 6 1 L 102 1 C 104.761719 1 107 3.238281 107 6 L 107 19 C 107 21.761719 104.761719 24 102 24 L 6 24 C 3.238281 24 1 21.761719 1 19 Z M 1 6 " transform="matrix(1,0,0,1,10,60)"/>
</g>
</g>
<g clip-path="url(#clip7)" clip-rule="nonzero">
<g clip-path="url(#clip8)" clip-rule="nonzero">
<rect x="0" y="0" width="542" height="96" style="fill:rgb(38.039216%,50.588235%,100%);fill-opacity:0.490196;stroke:none;"/>
<path style="fill:none;stroke-width:2;stroke-linecap:butt;stroke-linejoin:miter;stroke:rgb(38.039216%,50.588235%,100%);stroke-opacity:1;stroke-miterlimit:10;" d="M 1.001562 6.001562 C 1.001562 3.239844 3.239844 1.001562 6.001562 1.001562 L 86.798438 1.001562 C 89.560156 1.001562 91.798438 3.239844 91.798438 6.001562 L 91.798438 54.798437 C 91.798438 57.560156 89.560156 59.798437 86.798438 59.798437 L 6.001562 59.798437 C 3.239844 59.798437 1.001562 57.560156 1.001562 54.798437 Z M 1.001562 6.001562 " transform="matrix(1,0,0,1,17.6,17.6)"/>
</g>
</g>
<g clip-path="url(#clip9)" clip-rule="nonzero">
<g clip-path="url(#clip10)" clip-rule="nonzero">
<rect x="0" y="0" width="542" height="96" style="fill:rgb(38.039216%,50.588235%,100%);fill-opacity:0.490196;stroke:none;"/>
<path style="fill:none;stroke-width:2;stroke-linecap:butt;stroke-linejoin:miter;stroke:rgb(38.039216%,50.588235%,100%);stroke-opacity:1;stroke-miterlimit:10;" d="M 1 6 C 1 3.238281 3.238281 1 6 1 L 102 1 C 104.761719 1 107 3.238281 107 6 L 107 19 C 107 21.761719 104.761719 24 102 24 L 6 24 C 3.238281 24 1 21.761719 1 19 Z M 1 6 " transform="matrix(1,0,0,1,148,10)"/>
</g>
</g>
<g clip-path="url(#clip11)" clip-rule="nonzero">
<g clip-path="url(#clip12)" clip-rule="nonzero">
<rect x="0" y="0" width="542" height="96" style="fill:rgb(38.039216%,50.588235%,100%);fill-opacity:0.490196;stroke:none;"/>
<path style="fill:none;stroke-width:2;stroke-linecap:butt;stroke-linejoin:miter;stroke:rgb(38.039216%,50.588235%,100%);stroke-opacity:1;stroke-miterlimit:10;" d="M 1 6 C 1 3.238281 3.238281 1 6 1 L 102 1 C 104.761719 1 107 3.238281 107 6 L 107 19 C 107 21.761719 104.761719 24 102 24 L 6 24 C 3.238281 24 1 21.761719 1 19 Z M 1 6 " transform="matrix(1,0,0,1,148,35)"/>
</g>
</g>
<g clip-path="url(#clip13)" clip-rule="nonzero">
<g clip-path="url(#clip14)" clip-rule="nonzero">
<rect x="0" y="0" width="542" height="96" style="fill:rgb(38.039216%,50.588235%,100%);fill-opacity:0.490196;stroke:none;"/>
<path style="fill:none;stroke-width:2;stroke-linecap:butt;stroke-linejoin:miter;stroke:rgb(38.039216%,50.588235%,100%);stroke-opacity:1;stroke-miterlimit:10;" d="M 1 6 C 1 3.238281 3.238281 1 6 1 L 102 1 C 104.761719 1 107 3.238281 107 6 L 107 19 C 107 21.761719 104.761719 24 102 24 L 6 24 C 3.238281 24 1 21.761719 1 19 Z M 1 6 " transform="matrix(1,0,0,1,148,60)"/>
</g>
</g>
<g clip-path="url(#clip15)" clip-rule="nonzero">
<g clip-path="url(#clip16)" clip-rule="nonzero">
<rect x="0" y="0" width="542" height="96" style="fill:rgb(38.039216%,50.588235%,100%);fill-opacity:0.490196;stroke:none;"/>
<path style="fill:none;stroke-width:2;stroke-linecap:butt;stroke-linejoin:miter;stroke:rgb(38.039216%,50.588235%,100%);stroke-opacity:1;stroke-miterlimit:10;" d="M 0.999219 5.999219 C 0.999219 3.2375 3.2375 0.999219 5.999219 0.999219 L 71.600781 0.999219 C 74.3625 0.999219 76.600781 3.2375 76.600781 5.999219 L 76.600781 39.600781 C 76.600781 42.3625 74.3625 44.600781 71.600781 44.600781 L 5.999219 44.600781 C 3.2375 44.600781 0.999219 42.3625 0.999219 39.600781 Z M 0.999219 5.999219 " transform="matrix(1,0,0,1,163.2,25.2)"/>
</g>
</g>
<g clip-path="url(#clip17)" clip-rule="nonzero">
<g clip-path="url(#clip18)" clip-rule="nonzero">
<rect x="0" y="0" width="542" height="96" style="fill:rgb(38.039216%,50.588235%,100%);fill-opacity:0.490196;stroke:none;"/>
<path style="fill:none;stroke-width:2;stroke-linecap:butt;stroke-linejoin:miter;stroke:rgb(38.039216%,50.588235%,100%);stroke-opacity:1;stroke-miterlimit:10;" d="M 1 6 C 1 3.238281 3.238281 1 6 1 L 102 1 C 104.761719 1 107 3.238281 107 6 L 107 19 C 107 21.761719 104.761719 24 102 24 L 6 24 C 3.238281 24 1 21.761719 1 19 Z M 1 6 " transform="matrix(1,0,0,1,286,10)"/>
</g>
</g>
<g clip-path="url(#clip19)" clip-rule="nonzero">
<g clip-path="url(#clip20)" clip-rule="nonzero">
<rect x="0" y="0" width="542" height="96" style="fill:rgb(38.039216%,50.588235%,100%);fill-opacity:0.490196;stroke:none;"/>
<path style="fill:none;stroke-width:2;stroke-linecap:butt;stroke-linejoin:miter;stroke:rgb(38.039216%,50.588235%,100%);stroke-opacity:1;stroke-miterlimit:10;" d="M 1 6 C 1 3.238281 3.238281 1 6 1 L 102 1 C 104.761719 1 107 3.238281 107 6 L 107 19 C 107 21.761719 104.761719 24 102 24 L 6 24 C 3.238281 24 1 21.761719 1 19 Z M 1 6 " transform="matrix(1,0,0,1,286,35)"/>
</g>
</g>
<g clip-path="url(#clip21)" clip-rule="nonzero">
<g clip-path="url(#clip22)" clip-rule="nonzero">
<rect x="0" y="0" width="542" height="96" style="fill:rgb(38.039216%,50.588235%,100%);fill-opacity:0.490196;stroke:none;"/>
<path style="fill:none;stroke-width:2;stroke-linecap:butt;stroke-linejoin:miter;stroke:rgb(38.039216%,50.588235%,100%);stroke-opacity:1;stroke-miterlimit:10;" d="M 1 6 C 1 3.238281 3.238281 1 6 1 L 102 1 C 104.761719 1 107 3.238281 107 6 L 107 19 C 107 21.761719 104.761719 24 102 24 L 6 24 C 3.238281 24 1 21.761719 1 19 Z M 1 6 " transform="matrix(1,0,0,1,286,60)"/>
</g>
</g>
<g clip-path="url(#clip23)" clip-rule="nonzero">
<g clip-path="url(#clip24)" clip-rule="nonzero">
<rect x="0" y="0" width="542" height="96" style="fill:rgb(38.039216%,50.588235%,100%);fill-opacity:0.490196;stroke:none;"/>
<path style="fill:none;stroke-width:2;stroke-linecap:butt;stroke-linejoin:miter;stroke:rgb(38.039216%,50.588235%,100%);stroke-opacity:1;stroke-miterlimit:10;" d="M 1.000781 6.000781 C 1.000781 3.239063 3.239062 1.000781 6.000781 1.000781 L 56.399219 1.000781 C 59.160937 1.000781 61.399219 3.239063 61.399219 6.000781 L 61.399219 24.399219 C 61.399219 27.160938 59.160937 29.399219 56.399219 29.399219 L 6.000781 29.399219 C 3.239062 29.399219 1.000781 27.160938 1.000781 24.399219 Z M 1.000781 6.000781 " transform="matrix(1,0,0,1,308.8,32.8)"/>
</g>
</g>
<g clip-path="url(#clip25)" clip-rule="nonzero">
<g clip-path="url(#clip26)" clip-rule="nonzero">
<rect x="0" y="0" width="542" height="96" style="fill:rgb(38.039216%,50.588235%,100%);fill-opacity:0.490196;stroke:none;"/>
<path style="fill:none;stroke-width:2;stroke-linecap:butt;stroke-linejoin:miter;stroke:rgb(38.039216%,50.588235%,100%);stroke-opacity:1;stroke-miterlimit:10;" d="M 1 6 C 1 3.238281 3.238281 1 6 1 L 102 1 C 104.761719 1 107 3.238281 107 6 L 107 19 C 107 21.761719 104.761719 24 102 24 L 6 24 C 3.238281 24 1 21.761719 1 19 Z M 1 6 " transform="matrix(1,0,0,1,424,10)"/>
</g>
</g>
<g clip-path="url(#clip27)" clip-rule="nonzero">
<g clip-path="url(#clip28)" clip-rule="nonzero">
<rect x="0" y="0" width="542" height="96" style="fill:rgb(38.039216%,50.588235%,100%);fill-opacity:0.490196;stroke:none;"/>
<path style="fill:none;stroke-width:2;stroke-linecap:butt;stroke-linejoin:miter;stroke:rgb(38.039216%,50.588235%,100%);stroke-opacity:1;stroke-miterlimit:10;" d="M 1 6 C 1 3.238281 3.238281 1 6 1 L 102 1 C 104.761719 1 107 3.238281 107 6 L 107 19 C 107 21.761719 104.761719 24 102 24 L 6 24 C 3.238281 24 1 21.761719 1 19 Z M 1 6 " transform="matrix(1,0,0,1,424,35)"/>
</g>
</g>
<g clip-path="url(#clip29)" clip-rule="nonzero">
<g clip-path="url(#clip30)" clip-rule="nonzero">
<rect x="0" y="0" width="542" height="96" style="fill:rgb(38.039216%,50.588235%,100%);fill-opacity:0.490196;stroke:none;"/>
<path style="fill:none;stroke-width:2;stroke-linecap:butt;stroke-linejoin:miter;stroke:rgb(38.039216%,50.588235%,100%);stroke-opacity:1;stroke-miterlimit:10;" d="M 1 6 C 1 3.238281 3.238281 1 6 1 L 102 1 C 104.761719 1 107 3.238281 107 6 L 107 19 C 107 21.761719 104.761719 24 102 24 L 6 24 C 3.238281 24 1 21.761719 1 19 Z M 1 6 " transform="matrix(1,0,0,1,424,60)"/>
</g>
</g>
<g clip-path="url(#clip31)" clip-rule="nonzero">
<g clip-path="url(#clip32)" clip-rule="nonzero">
<rect x="0" y="0" width="542" height="96" style="fill:rgb(38.039216%,50.588235%,100%);fill-opacity:0.490196;stroke:none;"/>
<path style="fill:none;stroke-width:2;stroke-linecap:butt;stroke-linejoin:miter;stroke:rgb(38.039216%,50.588235%,100%);stroke-opacity:1;stroke-miterlimit:10;" d="M 0.998438 5.998437 C 0.998438 3.236719 3.236719 0.998437 5.998438 0.998437 L 41.201563 0.998437 C 43.963281 0.998437 46.201563 3.236719 46.201563 5.998437 L 46.201563 9.201562 C 46.201563 11.963281 43.963281 14.201562 41.201563 14.201562 L 5.998438 14.201562 C 3.236719 14.201562 0.998438 11.963281 0.998438 9.201562 Z M 0.998438 5.998437 " transform="matrix(1,0,0,1,454.4,40.4)"/>
</g>
</g>
</g>
</svg>
