<?xml version="1.0" encoding="UTF-8"?>
<svg xmlns="http://www.w3.org/2000/svg" xmlns:xlink="http://www.w3.org/1999/xlink" width="286pt" height="222pt" viewBox="0 0 286 222" version="1.1">
<defs>
<clipPath id="clip1">
  <path d="M 22 16 L 58 16 L 58 41 L 22 41 Z M 22 16 "/>
</clipPath>
<clipPath id="clip2">
  <path d="M 23 17 L 57 17 L 57 40 L 23 40 Z M 23 17 "/>
</clipPath>
<clipPath id="clip3">
  <path d="M 23 22 C 23 19.238281 25.238281 17 28 17 L 52 17 C 54.761719 17 57 19.238281 57 22 L 57 35 C 57 37.761719 54.761719 40 52 40 L 28 40 C 25.238281 40 23 37.761719 23 35 Z M 23 22 "/>
</clipPath>
<clipPath id="clip4">
  <path d="M 10 10 L 46 10 L 46 35 L 10 35 Z M 10 10 "/>
</clipPath>
<clipPath id="clip5">
  <path d="M 11 11 L 45 11 L 45 34 L 11 34 Z M 11 11 "/>
</clipPath>
<clipPath id="clip6">
  <path d="M 11 16 C 11 13.238281 13.238281 11 16 11 L 40 11 C 42.761719 11 45 13.238281 45 16 L 45 29 C 45 31.761719 42.761719 34 40 34 L 16 34 C 13.238281 34 11 31.761719 11 29 Z M 11 16 "/>
</clipPath>
<clipPath id="clip7">
  <path d="M 96 16 L 120 16 L 120 41 L 96 41 Z M 96 16 "/>
</clipPath>
<clipPath id="clip8">
  <path d="M 97 17 L 119 17 L 119 40 L 97 40 Z M 97 17 "/>
</clipPath>
<clipPath id="clip9">
  <path d="M 97 22 C 97 19.238281 99.238281 17 102 17 L 114 17 C 116.761719 17 119 19.238281 119 22 L 119 35 C 119 37.761719 116.761719 40 114 40 L 102 40 C 99.238281 40 97 37.761719 97 35 Z M 97 22 "/>
</clipPath>
<clipPath id="clip10">
  <path d="M 96 10 L 120 10 L 120 35 L 96 35 Z M 96 10 "/>
</clipPath>
<clipPath id="clip11">
  <path d="M 97 11 L 119 11 L 119 34 L 97 34 Z M 97 11 "/>
</clipPath>
<clipPath id="clip12">
  <path d="M 97 16 C 97 13.238281 99.238281 11 102 11 L 114 11 C 116.761719 11 119 13.238281 119 16 L 119 29 C 119 31.761719 116.761719 34 114 34 L 102 34 C 99.238281 34 97 31.761719 97 29 Z M 97 16 "/>
</clipPath>
<clipPath id="clip13">
  <path d="M 170 16 L 210 16 L 210 41 L 170 41 Z M 170 16 "/>
</clipPath>
<clipPath id="clip14">
  <path d="M 171 17 L 209 17 L 209 40 L 171 40 Z M 171 17 "/>
</clipPath>
<clipPath id="clip15">
  <path d="M 171 22 C 171 19.238281 173.238281 17 176 17 L 204 17 C 206.761719 17 209 19.238281 209 22 L 209 35 C 209 37.761719 206.761719 40 204 40 L 176 40 C 173.238281 40 171 37.761719 171 35 Z M 171 22 "/>
</clipPath>
<clipPath id="clip16">
  <path d="M 170 10 L 210 10 L 210 35 L 170 35 Z M 170 10 "/>
</clipPath>
<clipPath id="clip17">
  <path d="M 171 11 L 209 11 L 209 34 L 171 34 Z M 171 11 "/>
</clipPath>
<clipPath id="clip18">
  <path d="M 171 16 C 171 13.238281 173.238281 11 176 11 L 204 11 C 206.761719 11 209 13.238281 209 16 L 209 29 C 209 31.761719 206.761719 34 204 34 L 176 34 C 173.238281 34 171 31.761719 171 29 Z M 171 16 "/>
</clipPath>
<clipPath id="clip19">
  <path d="M 244 16 L 284 16 L 284 31 L 244 31 Z M 244 16 "/>
</clipPath>
<clipPath id="clip20">
  <path d="M 245 17 L 283 17 L 283 30 L 245 30 Z M 245 17 "/>
</clipPath>
<clipPath id="clip21">
  <path d="M 245 22 C 245 19.238281 247.238281 17 250 17 L 278 17 C 280.761719 17 283 19.238281 283 22 L 283 25 C 283 27.761719 280.761719 30 278 30 L 250 30 C 247.238281 30 245 27.761719 245 25 Z M 245 22 "/>
</clipPath>
<clipPath id="clip22">
  <path d="M 244 20 L 284 20 L 284 35 L 244 35 Z M 244 20 "/>
</clipPath>
<clipPath id="clip23">
  <path d="M 245 21 L 283 21 L 283 34 L 245 34 Z M 245 21 "/>
</clipPath>
<clipPath id="clip24">
  <path d="M 245 26 C 245 23.238281 247.238281 21 250 21 L 278 21 C 280.761719 21 283 23.238281 283 26 L 283 29 C 283 31.761719 280.761719 34 278 34 L 250 34 C 247.238281 34 245 31.761719 245 29 Z M 245 26 "/>
</clipPath>
<clipPath id="clip25">
  <path d="M 22 74 L 62 74 L 62 100 L 22 100 Z M 22 74 "/>
</clipPath>
<clipPath id="clip26">
  <path d="M 23 75 L 61 75 L 61 99 L 23 99 Z M 23 75 "/>
</clipPath>
<clipPath id="clip27">
  <path d="M 23 80 C 23 77.238281 25.238281 75 28 75 L 56 75 C 58.761719 75 61 77.238281 61 80 L 61 94 C 61 96.761719 58.761719 99 56 99 L 28 99 C 25.238281 99 23 96.761719 23 94 Z M 23 80 "/>
</clipPath>
<clipPath id="clip28">
  <path d="M 22 74 L 62 74 L 62 100 L 22 100 Z M 22 74 "/>
</clipPath>
<clipPath id="clip29">
  <path d="M 23 75 L 61 75 L 61 99 L 23 99 Z M 23 75 "/>
</clipPath>
<clipPath id="clip30">
  <path d="M 23 80 C 23 77.238281 25.238281 75 28 75 L 56 75 C 58.761719 75 61 77.238281 61 80 L 61 94 C 61 96.761719 58.761719 99 56 99 L 28 99 C 25.238281 99 23 96.761719 23 94 Z M 23 80 "/>
</clipPath>
<clipPath id="clip31">
  <path d="M 96 74 L 120 74 L 120 100 L 96 100 Z M 96 74 "/>
</clipPath>
<clipPath id="clip32">
  <path d="M 97 75 L 119 75 L 119 99 L 97 99 Z M 97 75 "/>
</clipPath>
<clipPath id="clip33">
  <path d="M 97 80 C 97 77.238281 99.238281 75 102 75 L 114 75 C 116.761719 75 119 77.238281 119 80 L 119 94 C 119 96.761719 116.761719 99 114 99 L 102 99 C 99.238281 99 97 96.761719 97 94 Z M 97 80 "/>
</clipPath>
<clipPath id="clip34">
  <path d="M 96 74 L 120 74 L 120 100 L 96 100 Z M 96 74 "/>
</clipPath>
<clipPath id="clip35">
  <path d="M 97 75 L 119 75 L 119 99 L 97 99 Z M 97 75 "/>
</clipPath>
<clipPath id="clip36">
  <path d="M 97 80 C 97 77.238281 99.238281 75 102 75 L 114 75 C 116.761719 75 119 77.238281 119 80 L 119 94 C 119 96.761719 116.761719 99 114 99 L 102 99 C 99.238281 99 97 96.761719 97 94 Z M 97 80 "/>
</clipPath>
<clipPath id="clip37">
  <path d="M 170 74 L 206 74 L 206 100 L 170 100 Z M 170 74 "/>
</clipPath>
<clipPath id="clip38">
  <path d="M 171 75 L 205 75 L 205 99 L 171 99 Z M 171 75 "/>
</clipPath>
<clipPath id="clip39">
  <path d="M 171 80 C 171 77.238281 173.238281 75 176 75 L 200 75 C 202.761719 75 205 77.238281 205 80 L 205 94 C 205 96.761719 202.761719 99 200 99 L 176 99 C 173.238281 99 171 96.761719 171 94 Z M 171 80 "/>
</clipPath>
<clipPath id="clip40">
  <path d="M 158 74 L 194 74 L 194 100 L 158 100 Z M 158 74 "/>
</clipPath>
<clipPath id="clip41">
  <path d="M 159 75 L 193 75 L 193 99 L 159 99 Z M 159 75 "/>
</clipPath>
<clipPath id="clip42">
  <path d="M 159 80 C 159 77.238281 161.238281 75 164 75 L 188 75 C 190.761719 75 193 77.238281 193 80 L 193 94 C 193 96.761719 190.761719 99 188 99 L 164 99 C 161.238281 99 159 96.761719 159 94 Z M 159 80 "/>
</clipPath>
<clipPath id="clip43">
  <path d="M 244 74 L 280 74 L 280 89 L 244 89 Z M 244 74 "/>
</clipPath>
<clipPath id="clip44">
  <path d="M 245 75 L 279 75 L 279 88 L 245 88 Z M 245 75 "/>
</clipPath>
<clipPath id="clip45">
  <path d="M 245 80 C 245 77.238281 247.238281 75 250 75 L 274 75 C 276.761719 75 279 77.238281 279 80 L 279 83 C 279 85.761719 276.761719 88 274 88 L 250 88 C 247.238281 88 245 85.761719 245 83 Z M 245 80 "/>
</clipPath>
<clipPath id="clip46">
  <path d="M 232 74 L 268 74 L 268 89 L 232 89 Z M 232 74 "/>
</clipPath>
<clipPath id="clip47">
  <path d="M 233 75 L 267 75 L 267 88 L 233 88 Z M 233 75 "/>
</clipPath>
<clipPath id="clip48">
  <path d="M 233 80 C 233 77.238281 235.238281 75 238 75 L 262 75 C 264.761719 75 267 77.238281 267 80 L 267 83 C 267 85.761719 264.761719 88 262 88 L 238 88 C 235.238281 88 233 85.761719 233 83 Z M 233 80 "/>
</clipPath>
<clipPath id="clip49">
  <path d="M 10 126 L 48 126 L 48 150 L 10 150 Z M 10 126 "/>
</clipPath>
<clipPath id="clip50">
  <path d="M 11 127 L 47 127 L 47 149 L 11 149 Z M 11 127 "/>
</clipPath>
<clipPath id="clip51">
  <path d="M 11 132 C 11 129.238281 13.238281 127 16 127 L 42 127 C 44.761719 127 47 129.238281 47 132 L 47 144 C 47 146.761719 44.761719 149 42 149 L 16 149 C 13.238281 149 11 146.761719 11 144 Z M 11 132 "/>
</clipPath>
<clipPath id="clip52">
  <path d="M 20 134 L 58 134 L 58 158 L 20 158 Z M 20 134 "/>
</clipPath>
<clipPath id="clip53">
  <path d="M 21 135 L 57 135 L 57 157 L 21 157 Z M 21 135 "/>
</clipPath>
<clipPath id="clip54">
  <path d="M 21 140 C 21 137.238281 23.238281 135 26 135 L 52 135 C 54.761719 135 57 137.238281 57 140 L 57 152 C 57 154.761719 54.761719 157 52 157 L 26 157 C 23.238281 157 21 154.761719 21 152 Z M 21 140 "/>
</clipPath>
<clipPath id="clip55">
  <path d="M 84 126 L 132 126 L 132 150 L 84 150 Z M 84 126 "/>
</clipPath>
<clipPath id="clip56">
  <path d="M 85 127 L 131 127 L 131 149 L 85 149 Z M 85 127 "/>
</clipPath>
<clipPath id="clip57">
  <path d="M 85 132 C 85 129.238281 87.238281 127 90 127 L 126 127 C 128.761719 127 131 129.238281 131 132 L 131 144 C 131 146.761719 128.761719 149 126 149 L 90 149 C 87.238281 149 85 146.761719 85 144 Z M 85 132 "/>
</clipPath>
<clipPath id="clip58">
  <path d="M 84 134 L 132 134 L 132 158 L 84 158 Z M 84 134 "/>
</clipPath>
<clipPath id="clip59">
  <path d="M 85 135 L 131 135 L 131 157 L 85 157 Z M 85 135 "/>
</clipPath>
<clipPath id="clip60">
  <path d="M 85 140 C 85 137.238281 87.238281 135 90 135 L 126 135 C 128.761719 135 131 137.238281 131 140 L 131 152 C 131 154.761719 128.761719 157 126 157 L 90 157 C 87.238281 157 85 154.761719 85 152 Z M 85 140 "/>
</clipPath>
<clipPath id="clip61">
  <path d="M 158 126 L 194 126 L 194 150 L 158 150 Z M 158 126 "/>
</clipPath>
<clipPath id="clip62">
  <path d="M 159 127 L 193 127 L 193 149 L 159 149 Z M 159 127 "/>
</clipPath>
<clipPath id="clip63">
  <path d="M 159 132 C 159 129.238281 161.238281 127 164 127 L 188 127 C 190.761719 127 193 129.238281 193 132 L 193 144 C 193 146.761719 190.761719 149 188 149 L 164 149 C 161.238281 149 159 146.761719 159 144 Z M 159 132 "/>
</clipPath>
<clipPath id="clip64">
  <path d="M 158 134 L 194 134 L 194 158 L 158 158 Z M 158 134 "/>
</clipPath>
<clipPath id="clip65">
  <path d="M 159 135 L 193 135 L 193 157 L 159 157 Z M 159 135 "/>
</clipPath>
<clipPath id="clip66">
  <path d="M 159 140 C 159 137.238281 161.238281 135 164 135 L 188 135 C 190.761719 135 193 137.238281 193 140 L 193 152 C 193 154.761719 190.761719 157 188 157 L 164 157 C 161.238281 157 159 154.761719 159 152 Z M 159 140 "/>
</clipPath>
<clipPath id="clip67">
  <path d="M 232 126 L 268 126 L 268 158 L 232 158 Z M 232 126 "/>
</clipPath>
<clipPath id="clip68">
  <path d="M 233 127 L 267 127 L 267 157 L 233 157 Z M 233 127 "/>
</clipPath>
<clipPath id="clip69">
  <path d="M 233 132 C 233 129.238281 235.238281 127 238 127 L 262 127 C 264.761719 127 267 129.238281 267 132 L 267 152 C 267 154.761719 264.761719 157 262 157 L 238 157 C 235.238281 157 233 154.761719 233 152 Z M 233 132 "/>
</clipPath>
<clipPath id="clip70">
  <path d="M 232 126 L 268 126 L 268 158 L 232 158 Z M 232 126 "/>
</clipPath>
<clipPath id="clip71">
  <path d="M 233 127 L 267 127 L 267 157 L 233 157 Z M 233 127 "/>
</clipPath>
<clipPath id="clip72">
  <path d="M 233 132 C 233 129.238281 235.238281 127 238 127 L 262 127 C 264.761719 127 267 129.238281 267 132 L 267 152 C 267 154.761719 264.761719 157 262 157 L 238 157 C 235.238281 157 233 154.761719 233 152 Z M 233 132 "/>
</clipPath>
<clipPath id="clip73">
  <path d="M 10 184 L 46 184 L 46 210 L 10 210 Z M 10 184 "/>
</clipPath>
<clipPath id="clip74">
  <path d="M 11 185 L 45 185 L 45 209 L 11 209 Z M 11 185 "/>
</clipPath>
<clipPath id="clip75">
  <path d="M 11 190 C 11 187.238281 13.238281 185 16 185 L 40 185 C 42.761719 185 45 187.238281 45 190 L 45 204 C 45 206.761719 42.761719 209 40 209 L 16 209 C 13.238281 209 11 206.761719 11 204 Z M 11 190 "/>
</clipPath>
<clipPath id="clip76">
  <path d="M 10 184 L 46 184 L 46 210 L 10 210 Z M 10 184 "/>
</clipPath>
<clipPath id="clip77">
  <path d="M 11 185 L 45 185 L 45 209 L 11 209 Z M 11 185 "/>
</clipPath>
<clipPath id="clip78">
  <path d="M 11 190 C 11 187.238281 13.238281 185 16 185 L 40 185 C 42.761719 185 45 187.238281 45 190 L 45 204 C 45 206.761719 42.761719 209 40 209 L 16 209 C 13.238281 209 11 206.761719 11 204 Z M 11 190 "/>
</clipPath>
<clipPath id="clip79">
  <path d="M 84 184 L 132 184 L 132 210 L 84 210 Z M 84 184 "/>
</clipPath>
<clipPath id="clip80">
  <path d="M 85 185 L 131 185 L 131 209 L 85 209 Z M 85 185 "/>
</clipPath>
<clipPath id="clip81">
  <path d="M 85 190 C 85 187.238281 87.238281 185 90 185 L 126 185 C 128.761719 185 131 187.238281 131 190 L 131 204 C 131 206.761719 128.761719 209 126 209 L 90 209 C 87.238281 209 85 206.761719 85 204 Z M 85 190 "/>
</clipPath>
<clipPath id="clip82">
  <path d="M 84 184 L 132 184 L 132 210 L 84 210 Z M 84 184 "/>
</clipPath>
<clipPath id="clip83">
  <path d="M 85 185 L 131 185 L 131 209 L 85 209 Z M 85 185 "/>
</clipPath>
<clipPath id="clip84">
  <path d="M 85 190 C 85 187.238281 87.238281 185 90 185 L 126 185 C 128.761719 185 131 187.238281 131 190 L 131 204 C 131 206.761719 128.761719 209 126 209 L 90 209 C 87.238281 209 85 206.761719 85 204 Z M 85 190 "/>
</clipPath>
<clipPath id="clip85">
  <path d="M 158 184 L 196 184 L 196 210 L 158 210 Z M 158 184 "/>
</clipPath>
<clipPath id="clip86">
  <path d="M 159 185 L 195 185 L 195 209 L 159 209 Z M 159 185 "/>
</clipPath>
<clipPath id="clip87">
  <path d="M 159 190 C 159 187.238281 161.238281 185 164 185 L 190 185 C 192.761719 185 195 187.238281 195 190 L 195 204 C 195 206.761719 192.761719 209 190 209 L 164 209 C 161.238281 209 159 206.761719 159 204 Z M 159 190 "/>
</clipPath>
<clipPath id="clip88">
  <path d="M 168 184 L 206 184 L 206 210 L 168 210 Z M 168 184 "/>
</clipPath>
<clipPath id="clip89">
  <path d="M 169 185 L 205 185 L 205 209 L 169 209 Z M 169 185 "/>
</clipPath>
<clipPath id="clip90">
  <path d="M 169 190 C 169 187.238281 171.238281 185 174 185 L 200 185 C 202.761719 185 205 187.238281 205 190 L 205 204 C 205 206.761719 202.761719 209 200 209 L 174 209 C 171.238281 209 169 206.761719 169 204 Z M 169 190 "/>
</clipPath>
<clipPath id="clip91">
  <path d="M 232 184 L 258 184 L 258 202 L 232 202 Z M 232 184 "/>
</clipPath>
<clipPath id="clip92">
  <path d="M 233 185 L 257 185 L 257 201 L 233 201 Z M 233 185 "/>
</clipPath>
<clipPath id="clip93">
  <path d="M 233 190 C 233 187.238281 235.238281 185 238 185 L 252 185 C 254.761719 185 257 187.238281 257 190 L 257 196 C 257 198.761719 254.761719 201 252 201 L 238 201 C 235.238281 201 233 198.761719 233 196 Z M 233 190 "/>
</clipPath>
<clipPath id="clip94">
  <path d="M 254 198 L 280 198 L 280 216 L 254 216 Z M 254 198 "/>
</clipPath>
<clipPath id="clip95">
  <path d="M 255 199 L 279 199 L 279 215 L 255 215 Z M 255 199 "/>
</clipPath>
<clipPath id="clip96">
  <path d="M 255 204 C 255 201.238281 257.238281 199 260 199 L 274 199 C 276.761719 199 279 201.238281 279 204 L 279 210 C 279 212.761719 276.761719 215 274 215 L 260 215 C 257.238281 215 255 212.761719 255 210 Z M 255 204 "/>
</clipPath>
</defs>
<g id="surface2">
<path style="fill:none;stroke-width:1.5;stroke-linecap:butt;stroke-linejoin:miter;stroke:rgb(0%,0%,0%);stroke-opacity:0.266667;stroke-dasharray:10,4;stroke-dashoffset:1;stroke-miterlimit:10;" d="M 0.75 0.75 L 63.25 0.75 L 63.25 47.25 L 0.75 47.25 Z M 0.75 0.75 "/>
<path style="fill:none;stroke-width:1.5;stroke-linecap:butt;stroke-linejoin:miter;stroke:rgb(0%,0%,0%);stroke-opacity:0.2;stroke-dasharray:10,4;stroke-dashoffset:1;stroke-miterlimit:10;" d="M 0 0 L 64 0 L 64 48 L 0 48 Z M 0 0 "/>
<path style="fill:none;stroke-width:1.5;stroke-linecap:butt;stroke-linejoin:miter;stroke:rgb(0%,0%,0%);stroke-opacity:0.266667;stroke-dasharray:10,4;stroke-dashoffset:1;stroke-miterlimit:10;" d="M 74.75 0.75 L 137.25 0.75 L 137.25 47.25 L 74.75 47.25 Z M 74.75 0.75 "/>
<path style="fill:none;stroke-width:1.5;stroke-linecap:butt;stroke-linejoin:miter;stroke:rgb(0%,0%,0%);stroke-opacity:0.2;stroke-dasharray:10,4;stroke-dashoffset:1;stroke-miterlimit:10;" d="M 74 0 L 138 0 L 138 48 L 74 48 Z M 74 0 "/>
<path style="fill:none;stroke-width:1.5;stroke-linecap:butt;stroke-linejoin:miter;stroke:rgb(0%,0%,0%);stroke-opacity:0.266667;stroke-dasharray:10,4;stroke-dashoffset:1;stroke-miterlimit:10;" d="M 148.75 0.75 L 211.25 0.75 L 211.25 47.25 L 148.75 47.25 Z M 148.75 0.75 "/>
<path style="fill:none;stroke-width:1.5;stroke-linecap:butt;stroke-linejoin:miter;stroke:rgb(0%,0%,0%);stroke-opacity:0.2;stroke-dasharray:10,4;stroke-dashoffset:1;stroke-miterlimit:10;" d="M 148 0 L 212 0 L 212 48 L 148 48 Z M 148 0 "/>
<path style="fill:none;stroke-width:1.5;stroke-linecap:butt;stroke-linejoin:miter;stroke:rgb(0%,0%,0%);stroke-opacity:0.266667;stroke-dasharray:10,4;stroke-dashoffset:1;stroke-miterlimit:10;" d="M 222.75 0.75 L 285.25 0.75 L 285.25 47.25 L 222.75 47.25 Z M 222.75 0.75 "/>
<path style="fill:none;stroke-width:1.5;stroke-linecap:butt;stroke-linejoin:miter;stroke:rgb(0%,0%,0%);stroke-opacity:0.2;stroke-dasharray:10,4;stroke-dashoffset:1;stroke-miterlimit:10;" d="M 222 0 L 286 0 L 286 48 L 222 48 Z M 222 0 "/>
<path style="fill:none;stroke-width:1.5;stroke-linecap:butt;stroke-linejoin:miter;stroke:rgb(0%,0%,0%);stroke-opacity:0.266667;stroke-dasharray:10,4;stroke-dashoffset:1;stroke-miterlimit:10;" d="M 0.75 58.75 L 63.25 58.75 L 63.25 105.25 L 0.75 105.25 Z M 0.75 58.75 "/>
<path style="fill:none;stroke-width:1.5;stroke-linecap:butt;stroke-linejoin:miter;stroke:rgb(0%,0%,0%);stroke-opacity:0.2;stroke-dasharray:10,4;stroke-dashoffset:1;stroke-miterlimit:10;" d="M 0 58 L 64 58 L 64 106 L 0 106 Z M 0 58 "/>
<path style="fill:none;stroke-width:1.5;stroke-linecap:butt;stroke-linejoin:miter;stroke:rgb(0%,0%,0%);stroke-opacity:0.266667;stroke-dasharray:10,4;stroke-dashoffset:1;stroke-miterlimit:10;" d="M 74.75 58.75 L 137.25 58.75 L 137.25 105.25 L 74.75 105.25 Z M 74.75 58.75 "/>
<path style="fill:none;stroke-width:1.5;stroke-linecap:butt;stroke-linejoin:miter;stroke:rgb(0%,0%,0%);stroke-opacity:0.2;stroke-dasharray:10,4;stroke-dashoffset:1;stroke-miterlimit:10;" d="M 74 58 L 138 58 L 138 106 L 74 106 Z M 74 58 "/>
<path style="fill:none;stroke-width:1.5;stroke-linecap:butt;stroke-linejoin:miter;stroke:rgb(0%,0%,0%);stroke-opacity:0.266667;stroke-dasharray:10,4;stroke-dashoffset:1;stroke-miterlimit:10;" d="M 148.75 58.75 L 211.25 58.75 L 211.25 105.25 L 148.75 105.25 Z M 148.75 58.75 "/>
<path style="fill:none;stroke-width:1.5;stroke-linecap:butt;stroke-linejoin:miter;stroke:rgb(0%,0%,0%);stroke-opacity:0.2;stroke-dasharray:10,4;stroke-dashoffset:1;stroke-miterlimit:10;" d="M 148 58 L 212 58 L 212 106 L 148 106 Z M 148 58 "/>
<path style="fill:none;stroke-width:1.5;stroke-linecap:butt;stroke-linejoin:miter;stroke:rgb(0%,0%,0%);stroke-opacity:0.266667;stroke-dasharray:10,4;stroke-dashoffset:1;stroke-miterlimit:10;" d="M 222.75 58.75 L 285.25 58.75 L 285.25 105.25 L 222.75 105.25 Z M 222.75 58.75 "/>
<path style="fill:none;stroke-width:1.5;stroke-linecap:butt;stroke-linejoin:miter;stroke:rgb(0%,0%,0%);stroke-opacity:0.2;stroke-dasharray:10,4;stroke-dashoffset:1;stroke-miterlimit:10;" d="M 222 58 L 286 58 L 286 106 L 222 106 Z M 222 58 "/>
<path style="fill:none;stroke-width:1.5;stroke-linecap:butt;stroke-linejoin:miter;stroke:rgb(0%,0%,0%);stroke-opacity:0.266667;stroke-dasharray:10,4;stroke-dashoffset:1;stroke-miterlimit:10;" d="M 0.75 116.75 L 63.25 116.75 L 63.25 163.25 L 0.75 163.25 Z M 0.75 116.75 "/>
<path style="fill:none;stroke-width:1.5;stroke-linecap:butt;stroke-linejoin:miter;stroke:rgb(0%,0%,0%);stroke-opacity:0.2;stroke-dasharray:10,4;stroke-dashoffset:1;stroke-miterlimit:10;" d="M 0 116 L 64 116 L 64 164 L 0 164 Z M 0 116 "/>
<path style="fill:none;stroke-width:1.5;stroke-linecap:butt;stroke-linejoin:miter;stroke:rgb(0%,0%,0%);stroke-opacity:0.266667;stroke-dasharray:10,4;stroke-dashoffset:1;stroke-miterlimit:10;" d="M 74.75 116.75 L 137.25 116.75 L 137.25 163.25 L 74.75 163.25 Z M 74.75 116.75 "/>
<path style="fill:none;stroke-width:1.5;stroke-linecap:butt;stroke-linejoin:miter;stroke:rgb(0%,0%,0%);stroke-opacity:0.2;stroke-dasharray:10,4;stroke-dashoffset:1;stroke-miterlimit:10;" d="M 74 116 L 138 116 L 138 164 L 74 164 Z M 74 116 "/>
<path style="fill:none;stroke-width:1.5;stroke-linecap:butt;stroke-linejoin:miter;stroke:rgb(0%,0%,0%);stroke-opacity:0.266667;stroke-dasharray:10,4;stroke-dashoffset:1;stroke-miterlimit:10;" d="M 148.75 116.75 L 211.25 116.75 L 211.25 163.25 L 148.75 163.25 Z M 148.75 116.75 "/>
<path style="fill:none;stroke-width:1.5;stroke-linecap:butt;stroke-linejoin:miter;stroke:rgb(0%,0%,0%);stroke-opacity:0.2;stroke-dasharray:10,4;stroke-dashoffset:1;stroke-miterlimit:10;" d="M 148 116 L 212 116 L 212 164 L 148 164 Z M 148 116 "/>
<path style="fill:none;stroke-width:1.5;stroke-linecap:butt;stroke-linejoin:miter;stroke:rgb(0%,0%,0%);stroke-opacity:0.266667;stroke-dasharray:10,4;stroke-dashoffset:1;stroke-miterlimit:10;" d="M 222.75 116.75 L 285.25 116.75 L 285.25 163.25 L 222.75 163.25 Z M 222.75 116.75 "/>
<path style="fill:none;stroke-width:1.5;stroke-linecap:butt;stroke-linejoin:miter;stroke:rgb(0%,0%,0%);stroke-opacity:0.2;stroke-dasharray:10,4;stroke-dashoffset:1;stroke-miterlimit:10;" d="M 222 116 L 286 116 L 286 164 L 222 164 Z M 222 116 "/>
<path style="fill:none;stroke-width:1.5;stroke-linecap:butt;stroke-linejoin:miter;stroke:rgb(0%,0%,0%);stroke-opacity:0.266667;stroke-dasharray:10,4;stroke-dashoffset:1;stroke-miterlimit:10;" d="M 0.75 174.75 L 63.25 174.75 L 63.25 221.25 L 0.75 221.25 Z M 0.75 174.75 "/>
<path style="fill:none;stroke-width:1.5;stroke-linecap:butt;stroke-linejoin:miter;stroke:rgb(0%,0%,0%);stroke-opacity:0.2;stroke-dasharray:10,4;stroke-dashoffset:1;stroke-miterlimit:10;" d="M 0 174 L 64 174 L 64 222 L 0 222 Z M 0 174 "/>
<path style="fill:none;stroke-width:1.5;stroke-linecap:butt;stroke-linejoin:miter;stroke:rgb(0%,0%,0%);stroke-opacity:0.266667;stroke-dasharray:10,4;stroke-dashoffset:1;stroke-miterlimit:10;" d="M 74.75 174.75 L 137.25 174.75 L 137.25 221.25 L 74.75 221.25 Z M 74.75 174.75 "/>
<path style="fill:none;stroke-width:1.5;stroke-linecap:butt;stroke-linejoin:miter;stroke:rgb(0%,0%,0%);stroke-opacity:0.2;stroke-dasharray:10,4;stroke-dashoffset:1;stroke-miterlimit:10;" d="M 74 174 L 138 174 L 138 222 L 74 222 Z M 74 174 "/>
<path style="fill:none;stroke-width:1.5;stroke-linecap:butt;stroke-linejoin:miter;stroke:rgb(0%,0%,0%);stroke-opacity:0.266667;stroke-dasharray:10,4;stroke-dashoffset:1;stroke-miterlimit:10;" d="M 148.75 174.75 L 211.25 174.75 L 211.25 221.25 L 148.75 221.25 Z M 148.75 174.75 "/>
<path style="fill:none;stroke-width:1.5;stroke-linecap:butt;stroke-linejoin:miter;stroke:rgb(0%,0%,0%);stroke-opacity:0.2;stroke-dasharray:10,4;stroke-dashoffset:1;stroke-miterlimit:10;" d="M 148 174 L 212 174 L 212 222 L 148 222 Z M 148 174 "/>
<path style="fill:none;stroke-width:1.5;stroke-linecap:butt;stroke-linejoin:miter;stroke:rgb(0%,0%,0%);stroke-opacity:0.266667;stroke-dasharray:10,4;stroke-dashoffset:1;stroke-miterlimit:10;" d="M 222.75 174.75 L 285.25 174.75 L 285.25 221.25 L 222.75 221.25 Z M 222.75 174.75 "/>
<path style="fill:none;stroke-width:1.5;stroke-linecap:butt;stroke-linejoin:miter;stroke:rgb(0%,0%,0%);stroke-opacity:0.2;stroke-dasharray:10,4;stroke-dashoffset:1;stroke-miterlimit:10;" d="M 222 174 L 286 174 L 286 222 L 222 222 Z M 222 174 "/>
<path style="fill:none;stroke-width:1.5;stroke-linecap:butt;stroke-linejoin:miter;stroke:rgb(0%,0%,0%);stroke-opacity:0.1;stroke-miterlimit:10;" d="M 22 16 L 10 10 "/>
<path style="fill:none;stroke-width:1.5;stroke-linecap:butt;stroke-linejoin:miter;stroke:rgb(0%,0%,0%);stroke-opacity:0.1;stroke-miterlimit:10;" d="M 42 16 L 30 10 M 22 31 L 10 31 "/>
<path style="fill:none;stroke-width:1.5;stroke-linecap:butt;stroke-linejoin:miter;stroke:rgb(0%,0%,0%);stroke-opacity:0.1;stroke-miterlimit:10;" d="M 42 31 L 30 31 "/>
<path style="fill:none;stroke-width:1.5;stroke-linecap:butt;stroke-linejoin:miter;stroke:rgb(0%,0%,0%);stroke-opacity:0.1;stroke-miterlimit:10;" d="M 96 16 L 96 10 "/>
<path style="fill:none;stroke-width:1.5;stroke-linecap:butt;stroke-linejoin:miter;stroke:rgb(0%,0%,0%);stroke-opacity:0.1;stroke-miterlimit:10;" d="M 116 16 L 116 10 M 96 31 L 96 31 "/>
<path style="fill:none;stroke-width:1.5;stroke-linecap:butt;stroke-linejoin:miter;stroke:rgb(0%,0%,0%);stroke-opacity:0.1;stroke-miterlimit:10;" d="M 116 31 L 116 31 "/>
<path style="fill:none;stroke-width:1.5;stroke-linecap:butt;stroke-linejoin:miter;stroke:rgb(0%,0%,0%);stroke-opacity:0.1;stroke-miterlimit:10;" d="M 170 16 L 170 10 "/>
<path style="fill:none;stroke-width:1.5;stroke-linecap:butt;stroke-linejoin:miter;stroke:rgb(0%,0%,0%);stroke-opacity:0.1;stroke-miterlimit:10;" d="M 190 16 L 190 10 M 170 31 L 170 31 "/>
<path style="fill:none;stroke-width:1.5;stroke-linecap:butt;stroke-linejoin:miter;stroke:rgb(0%,0%,0%);stroke-opacity:0.1;stroke-miterlimit:10;" d="M 190 31 L 190 31 "/>
<path style="fill:none;stroke-width:1.5;stroke-linecap:butt;stroke-linejoin:miter;stroke:rgb(0%,0%,0%);stroke-opacity:0.1;stroke-miterlimit:10;" d="M 244 16 L 244 20 "/>
<path style="fill:none;stroke-width:1.5;stroke-linecap:butt;stroke-linejoin:miter;stroke:rgb(0%,0%,0%);stroke-opacity:0.1;stroke-miterlimit:10;" d="M 264 16 L 264 20 M 244 31 L 244 31 "/>
<path style="fill:none;stroke-width:1.5;stroke-linecap:butt;stroke-linejoin:miter;stroke:rgb(0%,0%,0%);stroke-opacity:0.1;stroke-miterlimit:10;" d="M 264 31 L 264 31 "/>
<path style="fill:none;stroke-width:1.5;stroke-linecap:butt;stroke-linejoin:miter;stroke:rgb(0%,0%,0%);stroke-opacity:0.1;stroke-miterlimit:10;" d="M 22 74 L 22 74 "/>
<path style="fill:none;stroke-width:1.5;stroke-linecap:butt;stroke-linejoin:miter;stroke:rgb(0%,0%,0%);stroke-opacity:0.1;stroke-miterlimit:10;" d="M 42 74 L 42 74 M 22 89 L 22 96 "/>
<path style="fill:none;stroke-width:1.5;stroke-linecap:butt;stroke-linejoin:miter;stroke:rgb(0%,0%,0%);stroke-opacity:0.1;stroke-miterlimit:10;" d="M 42 89 L 42 96 "/>
<path style="fill:none;stroke-width:1.5;stroke-linecap:butt;stroke-linejoin:miter;stroke:rgb(0%,0%,0%);stroke-opacity:0.1;stroke-miterlimit:10;" d="M 96 74 L 96 74 "/>
<path style="fill:none;stroke-width:1.5;stroke-linecap:butt;stroke-linejoin:miter;stroke:rgb(0%,0%,0%);stroke-opacity:0.1;stroke-miterlimit:10;" d="M 116 74 L 116 74 M 96 89 L 96 96 "/>
<path style="fill:none;stroke-width:1.5;stroke-linecap:butt;stroke-linejoin:miter;stroke:rgb(0%,0%,0%);stroke-opacity:0.1;stroke-miterlimit:10;" d="M 116 89 L 116 96 "/>
<path style="fill:none;stroke-width:1.5;stroke-linecap:butt;stroke-linejoin:miter;stroke:rgb(0%,0%,0%);stroke-opacity:0.1;stroke-miterlimit:10;" d="M 170 74 L 158 74 "/>
<path style="fill:none;stroke-width:1.5;stroke-linecap:butt;stroke-linejoin:miter;stroke:rgb(0%,0%,0%);stroke-opacity:0.1;stroke-miterlimit:10;" d="M 190 74 L 178 74 M 170 89 L 158 96 "/>
<path style="fill:none;stroke-width:1.5;stroke-linecap:butt;stroke-linejoin:miter;stroke:rgb(0%,0%,0%);stroke-opacity:0.1;stroke-miterlimit:10;" d="M 190 89 L 178 96 "/>
<path style="fill:none;stroke-width:1.5;stroke-linecap:butt;stroke-linejoin:miter;stroke:rgb(0%,0%,0%);stroke-opacity:0.1;stroke-miterlimit:10;" d="M 244 74 L 232 74 "/>
<path style="fill:none;stroke-width:1.5;stroke-linecap:butt;stroke-linejoin:miter;stroke:rgb(0%,0%,0%);stroke-opacity:0.1;stroke-miterlimit:10;" d="M 264 74 L 252 74 M 244 89 L 232 85 "/>
<path style="fill:none;stroke-width:1.5;stroke-linecap:butt;stroke-linejoin:miter;stroke:rgb(0%,0%,0%);stroke-opacity:0.1;stroke-miterlimit:10;" d="M 264 89 L 252 85 "/>
<path style="fill:none;stroke-width:1.5;stroke-linecap:butt;stroke-linejoin:miter;stroke:rgb(0%,0%,0%);stroke-opacity:0.1;stroke-miterlimit:10;" d="M 10 126 L 20 134 "/>
<path style="fill:none;stroke-width:1.5;stroke-linecap:butt;stroke-linejoin:miter;stroke:rgb(0%,0%,0%);stroke-opacity:0.1;stroke-miterlimit:10;" d="M 54 126 L 64 134 M 10 154 L 20 154 "/>
<path style="fill:none;stroke-width:1.5;stroke-linecap:butt;stroke-linejoin:miter;stroke:rgb(0%,0%,0%);stroke-opacity:0.1;stroke-miterlimit:10;" d="M 54 154 L 64 154 "/>
<path style="fill:none;stroke-width:1.5;stroke-linecap:butt;stroke-linejoin:miter;stroke:rgb(0%,0%,0%);stroke-opacity:0.1;stroke-miterlimit:10;" d="M 84 126 L 84 134 "/>
<path style="fill:none;stroke-width:1.5;stroke-linecap:butt;stroke-linejoin:miter;stroke:rgb(0%,0%,0%);stroke-opacity:0.1;stroke-miterlimit:10;" d="M 128 126 L 128 134 M 84 154 L 84 154 "/>
<path style="fill:none;stroke-width:1.5;stroke-linecap:butt;stroke-linejoin:miter;stroke:rgb(0%,0%,0%);stroke-opacity:0.1;stroke-miterlimit:10;" d="M 128 154 L 128 154 "/>
<path style="fill:none;stroke-width:1.5;stroke-linecap:butt;stroke-linejoin:miter;stroke:rgb(0%,0%,0%);stroke-opacity:0.1;stroke-miterlimit:10;" d="M 158 126 L 158 134 "/>
<path style="fill:none;stroke-width:1.5;stroke-linecap:butt;stroke-linejoin:miter;stroke:rgb(0%,0%,0%);stroke-opacity:0.1;stroke-miterlimit:10;" d="M 202 126 L 202 134 M 158 154 L 158 154 "/>
<path style="fill:none;stroke-width:1.5;stroke-linecap:butt;stroke-linejoin:miter;stroke:rgb(0%,0%,0%);stroke-opacity:0.1;stroke-miterlimit:10;" d="M 202 154 L 202 154 "/>
<path style="fill:none;stroke-width:1.5;stroke-linecap:butt;stroke-linejoin:miter;stroke:rgb(0%,0%,0%);stroke-opacity:0.1;stroke-miterlimit:10;" d="M 232 126 L 232 126 "/>
<path style="fill:none;stroke-width:1.5;stroke-linecap:butt;stroke-linejoin:miter;stroke:rgb(0%,0%,0%);stroke-opacity:0.1;stroke-miterlimit:10;" d="M 276 126 L 276 126 M 232 154 L 232 154 "/>
<path style="fill:none;stroke-width:1.5;stroke-linecap:butt;stroke-linejoin:miter;stroke:rgb(0%,0%,0%);stroke-opacity:0.1;stroke-miterlimit:10;" d="M 276 154 L 276 154 "/>
<path style="fill:none;stroke-width:1.5;stroke-linecap:butt;stroke-linejoin:miter;stroke:rgb(0%,0%,0%);stroke-opacity:0.1;stroke-miterlimit:10;" d="M 10 184 L 10 184 "/>
<path style="fill:none;stroke-width:1.5;stroke-linecap:butt;stroke-linejoin:miter;stroke:rgb(0%,0%,0%);stroke-opacity:0.1;stroke-miterlimit:10;" d="M 54 184 L 54 184 M 10 212 L 10 206 "/>
<path style="fill:none;stroke-width:1.5;stroke-linecap:butt;stroke-linejoin:miter;stroke:rgb(0%,0%,0%);stroke-opacity:0.1;stroke-miterlimit:10;" d="M 54 212 L 54 206 "/>
<path style="fill:none;stroke-width:1.5;stroke-linecap:butt;stroke-linejoin:miter;stroke:rgb(0%,0%,0%);stroke-opacity:0.1;stroke-miterlimit:10;" d="M 84 184 L 84 184 "/>
<path style="fill:none;stroke-width:1.5;stroke-linecap:butt;stroke-linejoin:miter;stroke:rgb(0%,0%,0%);stroke-opacity:0.1;stroke-miterlimit:10;" d="M 128 184 L 128 184 M 84 212 L 84 206 "/>
<path style="fill:none;stroke-width:1.5;stroke-linecap:butt;stroke-linejoin:miter;stroke:rgb(0%,0%,0%);stroke-opacity:0.1;stroke-miterlimit:10;" d="M 128 212 L 128 206 "/>
<path style="fill:none;stroke-width:1.5;stroke-linecap:butt;stroke-linejoin:miter;stroke:rgb(0%,0%,0%);stroke-opacity:0.1;stroke-miterlimit:10;" d="M 158 184 L 168 184 "/>
<path style="fill:none;stroke-width:1.5;stroke-linecap:butt;stroke-linejoin:miter;stroke:rgb(0%,0%,0%);stroke-opacity:0.1;stroke-miterlimit:10;" d="M 202 184 L 212 184 M 158 212 L 168 206 "/>
<path style="fill:none;stroke-width:1.5;stroke-linecap:butt;stroke-linejoin:miter;stroke:rgb(0%,0%,0%);stroke-opacity:0.1;stroke-miterlimit:10;" d="M 202 212 L 212 206 "/>
<path style="fill:none;stroke-width:1.5;stroke-linecap:butt;stroke-linejoin:miter;stroke:rgb(0%,0%,0%);stroke-opacity:0.1;stroke-miterlimit:10;" d="M 232 184 L 254 198 "/>
<path style="fill:none;stroke-width:1.5;stroke-linecap:butt;stroke-linejoin:miter;stroke:rgb(0%,0%,0%);stroke-opacity:0.1;stroke-miterlimit:10;" d="M 276 184 L 298 198 M 232 212 L 254 212 "/>
<path style="fill:none;stroke-width:1.5;stroke-linecap:butt;stroke-linejoin:miter;stroke:rgb(0%,0%,0%);stroke-opacity:0.1;stroke-miterlimit:10;" d="M 276 212 L 298 212 "/>
<g clip-path="url(#clip1)" clip-rule="nonzero">
<path style="fill:none;stroke-width:1;stroke-linecap:butt;stroke-linejoin:miter;stroke:rgb(38.039216%,50.588235%,100%);stroke-opacity:1;stroke-miterlimit:10;" d="M 0 5 C 0 2.238281 2.238281 0 5 0 L 29 0 C 31.761719 0 34 2.238281 34 5 L 34 18 C 34 20.761719 31.761719 23 29 23 L 5 23 C 2.238281 23 0 20.761719 0 18 Z M 0 5 " transform="matrix(1,0,0,1,23,17)"/>
</g>
<path style=" stroke:none;fill-rule:nonzero;fill:rgb(38.039216%,50.588235%,100%);fill-opacity:0.490196;" d="M 23 22 C 23 19.238281 25.238281 17 28 17 L 52 17 C 54.761719 17 57 19.238281 57 22 L 57 35 C 57 37.761719 54.761719 40 52 40 L 28 40 C 25.238281 40 23 37.761719 23 35 Z M 23 22 "/>
<g clip-path="url(#clip2)" clip-rule="nonzero">
<g clip-path="url(#clip3)" clip-rule="nonzero">
<path style="fill:none;stroke-width:1;stroke-linecap:butt;stroke-linejoin:miter;stroke:rgb(38.039216%,50.588235%,100%);stroke-opacity:1;stroke-miterlimit:10;" d="M 0 5 C 0 2.238281 2.238281 0 5 0 L 29 0 C 31.761719 0 34 2.238281 34 5 L 34 18 C 34 20.761719 31.761719 23 29 23 L 5 23 C 2.238281 23 0 20.761719 0 18 Z M 0 5 " transform="matrix(1,0,0,1,23,17)"/>
</g>
</g>
<g clip-path="url(#clip4)" clip-rule="nonzero">
<path style="fill:none;stroke-width:1;stroke-linecap:butt;stroke-linejoin:miter;stroke:rgb(38.039216%,50.588235%,100%);stroke-opacity:1;stroke-miterlimit:10;" d="M 0 5 C 0 2.238281 2.238281 0 5 0 L 29 0 C 31.761719 0 34 2.238281 34 5 L 34 18 C 34 20.761719 31.761719 23 29 23 L 5 23 C 2.238281 23 0 20.761719 0 18 Z M 0 5 " transform="matrix(1,0,0,1,11,11)"/>
</g>
<path style=" stroke:none;fill-rule:nonzero;fill:rgb(38.039216%,50.588235%,100%);fill-opacity:0.490196;" d="M 11 16 C 11 13.238281 13.238281 11 16 11 L 40 11 C 42.761719 11 45 13.238281 45 16 L 45 29 C 45 31.761719 42.761719 34 40 34 L 16 34 C 13.238281 34 11 31.761719 11 29 Z M 11 16 "/>
<g clip-path="url(#clip5)" clip-rule="nonzero">
<g clip-path="url(#clip6)" clip-rule="nonzero">
<path style="fill:none;stroke-width:1;stroke-linecap:butt;stroke-linejoin:miter;stroke:rgb(38.039216%,50.588235%,100%);stroke-opacity:1;stroke-miterlimit:10;" d="M 0 5 C 0 2.238281 2.238281 0 5 0 L 29 0 C 31.761719 0 34 2.238281 34 5 L 34 18 C 34 20.761719 31.761719 23 29 23 L 5 23 C 2.238281 23 0 20.761719 0 18 Z M 0 5 " transform="matrix(1,0,0,1,11,11)"/>
</g>
</g>
<g clip-path="url(#clip7)" clip-rule="nonzero">
<path style="fill:none;stroke-width:1;stroke-linecap:butt;stroke-linejoin:miter;stroke:rgb(38.039216%,50.588235%,100%);stroke-opacity:1;stroke-miterlimit:10;" d="M 0 5 C 0 2.238281 2.238281 0 5 0 L 17 0 C 19.761719 0 22 2.238281 22 5 L 22 18 C 22 20.761719 19.761719 23 17 23 L 5 23 C 2.238281 23 0 20.761719 0 18 Z M 0 5 " transform="matrix(1,0,0,1,97,17)"/>
</g>
<path style=" stroke:none;fill-rule:nonzero;fill:rgb(38.039216%,50.588235%,100%);fill-opacity:0.490196;" d="M 97 22 C 97 19.238281 99.238281 17 102 17 L 114 17 C 116.761719 17 119 19.238281 119 22 L 119 35 C 119 37.761719 116.761719 40 114 40 L 102 40 C 99.238281 40 97 37.761719 97 35 Z M 97 22 "/>
<g clip-path="url(#clip8)" clip-rule="nonzero">
<g clip-path="url(#clip9)" clip-rule="nonzero">
<path style="fill:none;stroke-width:1;stroke-linecap:butt;stroke-linejoin:miter;stroke:rgb(38.039216%,50.588235%,100%);stroke-opacity:1;stroke-miterlimit:10;" d="M 0 5 C 0 2.238281 2.238281 0 5 0 L 17 0 C 19.761719 0 22 2.238281 22 5 L 22 18 C 22 20.761719 19.761719 23 17 23 L 5 23 C 2.238281 23 0 20.761719 0 18 Z M 0 5 " transform="matrix(1,0,0,1,97,17)"/>
</g>
</g>
<g clip-path="url(#clip10)" clip-rule="nonzero">
<path style="fill:none;stroke-width:1;stroke-linecap:butt;stroke-linejoin:miter;stroke:rgb(38.039216%,50.588235%,100%);stroke-opacity:1;stroke-miterlimit:10;" d="M 0 5 C 0 2.238281 2.238281 0 5 0 L 17 0 C 19.761719 0 22 2.238281 22 5 L 22 18 C 22 20.761719 19.761719 23 17 23 L 5 23 C 2.238281 23 0 20.761719 0 18 Z M 0 5 " transform="matrix(1,0,0,1,97,11)"/>
</g>
<path style=" stroke:none;fill-rule:nonzero;fill:rgb(38.039216%,50.588235%,100%);fill-opacity:0.490196;" d="M 97 16 C 97 13.238281 99.238281 11 102 11 L 114 11 C 116.761719 11 119 13.238281 119 16 L 119 29 C 119 31.761719 116.761719 34 114 34 L 102 34 C 99.238281 34 97 31.761719 97 29 Z M 97 16 "/>
<g clip-path="url(#clip11)" clip-rule="nonzero">
<g clip-path="url(#clip12)" clip-rule="nonzero">
<path style="fill:none;stroke-width:1;stroke-linecap:butt;stroke-linejoin:miter;stroke:rgb(38.039216%,50.588235%,100%);stroke-opacity:1;stroke-miterlimit:10;" d="M 0 5 C 0 2.238281 2.238281 0 5 0 L 17 0 C 19.761719 0 22 2.238281 22 5 L 22 18 C 22 20.761719 19.761719 23 17 23 L 5 23 C 2.238281 23 0 20.761719 0 18 Z M 0 5 " transform="matrix(1,0,0,1,97,11)"/>
</g>
</g>
<g clip-path="url(#clip13)" clip-rule="nonzero">
<path style="fill:none;stroke-width:1;stroke-linecap:butt;stroke-linejoin:miter;stroke:rgb(38.039216%,50.588235%,100%);stroke-opacity:1;stroke-miterlimit:10;" d="M 0 5 C 0 2.238281 2.238281 0 5 0 L 33 0 C 35.761719 0 38 2.238281 38 5 L 38 18 C 38 20.761719 35.761719 23 33 23 L 5 23 C 2.238281 23 0 20.761719 0 18 Z M 0 5 " transform="matrix(1,0,0,1,171,17)"/>
</g>
<path style=" stroke:none;fill-rule:nonzero;fill:rgb(38.039216%,50.588235%,100%);fill-opacity:0.490196;" d="M 171 22 C 171 19.238281 173.238281 17 176 17 L 204 17 C 206.761719 17 209 19.238281 209 22 L 209 35 C 209 37.761719 206.761719 40 204 40 L 176 40 C 173.238281 40 171 37.761719 171 35 Z M 171 22 "/>
<g clip-path="url(#clip14)" clip-rule="nonzero">
<g clip-path="url(#clip15)" clip-rule="nonzero">
<path style="fill:none;stroke-width:1;stroke-linecap:butt;stroke-linejoin:miter;stroke:rgb(38.039216%,50.588235%,100%);stroke-opacity:1;stroke-miterlimit:10;" d="M 0 5 C 0 2.238281 2.238281 0 5 0 L 33 0 C 35.761719 0 38 2.238281 38 5 L 38 18 C 38 20.761719 35.761719 23 33 23 L 5 23 C 2.238281 23 0 20.761719 0 18 Z M 0 5 " transform="matrix(1,0,0,1,171,17)"/>
</g>
</g>
<g clip-path="url(#clip16)" clip-rule="nonzero">
<path style="fill:none;stroke-width:1;stroke-linecap:butt;stroke-linejoin:miter;stroke:rgb(38.039216%,50.588235%,100%);stroke-opacity:1;stroke-miterlimit:10;" d="M 0 5 C 0 2.238281 2.238281 0 5 0 L 33 0 C 35.761719 0 38 2.238281 38 5 L 38 18 C 38 20.761719 35.761719 23 33 23 L 5 23 C 2.238281 23 0 20.761719 0 18 Z M 0 5 " transform="matrix(1,0,0,1,171,11)"/>
</g>
<path style=" stroke:none;fill-rule:nonzero;fill:rgb(38.039216%,50.588235%,100%);fill-opacity:0.490196;" d="M 171 16 C 171 13.238281 173.238281 11 176 11 L 204 11 C 206.761719 11 209 13.238281 209 16 L 209 29 C 209 31.761719 206.761719 34 204 34 L 176 34 C 173.238281 34 171 31.761719 171 29 Z M 171 16 "/>
<g clip-path="url(#clip17)" clip-rule="nonzero">
<g clip-path="url(#clip18)" clip-rule="nonzero">
<path style="fill:none;stroke-width:1;stroke-linecap:butt;stroke-linejoin:miter;stroke:rgb(38.039216%,50.588235%,100%);stroke-opacity:1;stroke-miterlimit:10;" d="M 0 5 C 0 2.238281 2.238281 0 5 0 L 33 0 C 35.761719 0 38 2.238281 38 5 L 38 18 C 38 20.761719 35.761719 23 33 23 L 5 23 C 2.238281 23 0 20.761719 0 18 Z M 0 5 " transform="matrix(1,0,0,1,171,11)"/>
</g>
</g>
<g clip-path="url(#clip19)" clip-rule="nonzero">
<path style="fill:none;stroke-width:1;stroke-linecap:butt;stroke-linejoin:miter;stroke:rgb(38.039216%,50.588235%,100%);stroke-opacity:1;stroke-miterlimit:10;" d="M 0 5 C 0 2.238281 2.238281 0 5 0 L 33 0 C 35.761719 0 38 2.238281 38 5 L 38 8 C 38 10.761719 35.761719 13 33 13 L 5 13 C 2.238281 13 0 10.761719 0 8 Z M 0 5 " transform="matrix(1,0,0,1,245,17)"/>
</g>
<path style=" stroke:none;fill-rule:nonzero;fill:rgb(38.039216%,50.588235%,100%);fill-opacity:0.490196;" d="M 245 22 C 245 19.238281 247.238281 17 250 17 L 278 17 C 280.761719 17 283 19.238281 283 22 L 283 25 C 283 27.761719 280.761719 30 278 30 L 250 30 C 247.238281 30 245 27.761719 245 25 Z M 245 22 "/>
<g clip-path="url(#clip20)" clip-rule="nonzero">
<g clip-path="url(#clip21)" clip-rule="nonzero">
<path style="fill:none;stroke-width:1;stroke-linecap:butt;stroke-linejoin:miter;stroke:rgb(38.039216%,50.588235%,100%);stroke-opacity:1;stroke-miterlimit:10;" d="M 0 5 C 0 2.238281 2.238281 0 5 0 L 33 0 C 35.761719 0 38 2.238281 38 5 L 38 8 C 38 10.761719 35.761719 13 33 13 L 5 13 C 2.238281 13 0 10.761719 0 8 Z M 0 5 " transform="matrix(1,0,0,1,245,17)"/>
</g>
</g>
<g clip-path="url(#clip22)" clip-rule="nonzero">
<path style="fill:none;stroke-width:1;stroke-linecap:butt;stroke-linejoin:miter;stroke:rgb(38.039216%,50.588235%,100%);stroke-opacity:1;stroke-miterlimit:10;" d="M 0 5 C 0 2.238281 2.238281 0 5 0 L 33 0 C 35.761719 0 38 2.238281 38 5 L 38 8 C 38 10.761719 35.761719 13 33 13 L 5 13 C 2.238281 13 0 10.761719 0 8 Z M 0 5 " transform="matrix(1,0,0,1,245,21)"/>
</g>
<path style=" stroke:none;fill-rule:nonzero;fill:rgb(38.039216%,50.588235%,100%);fill-opacity:0.490196;" d="M 245 26 C 245 23.238281 247.238281 21 250 21 L 278 21 C 280.761719 21 283 23.238281 283 26 L 283 29 C 283 31.761719 280.761719 34 278 34 L 250 34 C 247.238281 34 245 31.761719 245 29 Z M 245 26 "/>
<g clip-path="url(#clip23)" clip-rule="nonzero">
<g clip-path="url(#clip24)" clip-rule="nonzero">
<path style="fill:none;stroke-width:1;stroke-linecap:butt;stroke-linejoin:miter;stroke:rgb(38.039216%,50.588235%,100%);stroke-opacity:1;stroke-miterlimit:10;" d="M 0 5 C 0 2.238281 2.238281 0 5 0 L 33 0 C 35.761719 0 38 2.238281 38 5 L 38 8 C 38 10.761719 35.761719 13 33 13 L 5 13 C 2.238281 13 0 10.761719 0 8 Z M 0 5 " transform="matrix(1,0,0,1,245,21)"/>
</g>
</g>
<g clip-path="url(#clip25)" clip-rule="nonzero">
<path style="fill:none;stroke-width:1;stroke-linecap:butt;stroke-linejoin:miter;stroke:rgb(38.039216%,50.588235%,100%);stroke-opacity:1;stroke-miterlimit:10;" d="M 0 5 C 0 2.238281 2.238281 0 5 0 L 33 0 C 35.761719 0 38 2.238281 38 5 L 38 19 C 38 21.761719 35.761719 24 33 24 L 5 24 C 2.238281 24 0 21.761719 0 19 Z M 0 5 " transform="matrix(1,0,0,1,23,75)"/>
</g>
<path style=" stroke:none;fill-rule:nonzero;fill:rgb(38.039216%,50.588235%,100%);fill-opacity:0.490196;" d="M 23 80 C 23 77.238281 25.238281 75 28 75 L 56 75 C 58.761719 75 61 77.238281 61 80 L 61 94 C 61 96.761719 58.761719 99 56 99 L 28 99 C 25.238281 99 23 96.761719 23 94 Z M 23 80 "/>
<g clip-path="url(#clip26)" clip-rule="nonzero">
<g clip-path="url(#clip27)" clip-rule="nonzero">
<path style="fill:none;stroke-width:1;stroke-linecap:butt;stroke-linejoin:miter;stroke:rgb(38.039216%,50.588235%,100%);stroke-opacity:1;stroke-miterlimit:10;" d="M 0 5 C 0 2.238281 2.238281 0 5 0 L 33 0 C 35.761719 0 38 2.238281 38 5 L 38 19 C 38 21.761719 35.761719 24 33 24 L 5 24 C 2.238281 24 0 21.761719 0 19 Z M 0 5 " transform="matrix(1,0,0,1,23,75)"/>
</g>
</g>
<g clip-path="url(#clip28)" clip-rule="nonzero">
<path style="fill:none;stroke-width:1;stroke-linecap:butt;stroke-linejoin:miter;stroke:rgb(38.039216%,50.588235%,100%);stroke-opacity:1;stroke-miterlimit:10;" d="M 0 5 C 0 2.238281 2.238281 0 5 0 L 33 0 C 35.761719 0 38 2.238281 38 5 L 38 19 C 38 21.761719 35.761719 24 33 24 L 5 24 C 2.238281 24 0 21.761719 0 19 Z M 0 5 " transform="matrix(1,0,0,1,23,75)"/>
</g>
<path style=" stroke:none;fill-rule:nonzero;fill:rgb(38.039216%,50.588235%,100%);fill-opacity:0.490196;" d="M 23 80 C 23 77.238281 25.238281 75 28 75 L 56 75 C 58.761719 75 61 77.238281 61 80 L 61 94 C 61 96.761719 58.761719 99 56 99 L 28 99 C 25.238281 99 23 96.761719 23 94 Z M 23 80 "/>
<g clip-path="url(#clip29)" clip-rule="nonzero">
<g clip-path="url(#clip30)" clip-rule="nonzero">
<path style="fill:none;stroke-width:1;stroke-linecap:butt;stroke-linejoin:miter;stroke:rgb(38.039216%,50.588235%,100%);stroke-opacity:1;stroke-miterlimit:10;" d="M 0 5 C 0 2.238281 2.238281 0 5 0 L 33 0 C 35.761719 0 38 2.238281 38 5 L 38 19 C 38 21.761719 35.761719 24 33 24 L 5 24 C 2.238281 24 0 21.761719 0 19 Z M 0 5 " transform="matrix(1,0,0,1,23,75)"/>
</g>
</g>
<g clip-path="url(#clip31)" clip-rule="nonzero">
<path style="fill:none;stroke-width:1;stroke-linecap:butt;stroke-linejoin:miter;stroke:rgb(38.039216%,50.588235%,100%);stroke-opacity:1;stroke-miterlimit:10;" d="M 0 5 C 0 2.238281 2.238281 0 5 0 L 17 0 C 19.761719 0 22 2.238281 22 5 L 22 19 C 22 21.761719 19.761719 24 17 24 L 5 24 C 2.238281 24 0 21.761719 0 19 Z M 0 5 " transform="matrix(1,0,0,1,97,75)"/>
</g>
<path style=" stroke:none;fill-rule:nonzero;fill:rgb(38.039216%,50.588235%,100%);fill-opacity:0.490196;" d="M 97 80 C 97 77.238281 99.238281 75 102 75 L 114 75 C 116.761719 75 119 77.238281 119 80 L 119 94 C 119 96.761719 116.761719 99 114 99 L 102 99 C 99.238281 99 97 96.761719 97 94 Z M 97 80 "/>
<g clip-path="url(#clip32)" clip-rule="nonzero">
<g clip-path="url(#clip33)" clip-rule="nonzero">
<path style="fill:none;stroke-width:1;stroke-linecap:butt;stroke-linejoin:miter;stroke:rgb(38.039216%,50.588235%,100%);stroke-opacity:1;stroke-miterlimit:10;" d="M 0 5 C 0 2.238281 2.238281 0 5 0 L 17 0 C 19.761719 0 22 2.238281 22 5 L 22 19 C 22 21.761719 19.761719 24 17 24 L 5 24 C 2.238281 24 0 21.761719 0 19 Z M 0 5 " transform="matrix(1,0,0,1,97,75)"/>
</g>
</g>
<g clip-path="url(#clip34)" clip-rule="nonzero">
<path style="fill:none;stroke-width:1;stroke-linecap:butt;stroke-linejoin:miter;stroke:rgb(38.039216%,50.588235%,100%);stroke-opacity:1;stroke-miterlimit:10;" d="M 0 5 C 0 2.238281 2.238281 0 5 0 L 17 0 C 19.761719 0 22 2.238281 22 5 L 22 19 C 22 21.761719 19.761719 24 17 24 L 5 24 C 2.238281 24 0 21.761719 0 19 Z M 0 5 " transform="matrix(1,0,0,1,97,75)"/>
</g>
<path style=" stroke:none;fill-rule:nonzero;fill:rgb(38.039216%,50.588235%,100%);fill-opacity:0.490196;" d="M 97 80 C 97 77.238281 99.238281 75 102 75 L 114 75 C 116.761719 75 119 77.238281 119 80 L 119 94 C 119 96.761719 116.761719 99 114 99 L 102 99 C 99.238281 99 97 96.761719 97 94 Z M 97 80 "/>
<g clip-path="url(#clip35)" clip-rule="nonzero">
<g clip-path="url(#clip36)" clip-rule="nonzero">
<path style="fill:none;stroke-width:1;stroke-linecap:butt;stroke-linejoin:miter;stroke:rgb(38.039216%,50.588235%,100%);stroke-opacity:1;stroke-miterlimit:10;" d="M 0 5 C 0 2.238281 2.238281 0 5 0 L 17 0 C 19.761719 0 22 2.238281 22 5 L 22 19 C 22 21.761719 19.761719 24 17 24 L 5 24 C 2.238281 24 0 21.761719 0 19 Z M 0 5 " transform="matrix(1,0,0,1,97,75)"/>
</g>
</g>
<g clip-path="url(#clip37)" clip-rule="nonzero">
<path style="fill:none;stroke-width:1;stroke-linecap:butt;stroke-linejoin:miter;stroke:rgb(38.039216%,50.588235%,100%);stroke-opacity:1;stroke-miterlimit:10;" d="M 0 5 C 0 2.238281 2.238281 0 5 0 L 29 0 C 31.761719 0 34 2.238281 34 5 L 34 19 C 34 21.761719 31.761719 24 29 24 L 5 24 C 2.238281 24 0 21.761719 0 19 Z M 0 5 " transform="matrix(1,0,0,1,171,75)"/>
</g>
<path style=" stroke:none;fill-rule:nonzero;fill:rgb(38.039216%,50.588235%,100%);fill-opacity:0.490196;" d="M 171 80 C 171 77.238281 173.238281 75 176 75 L 200 75 C 202.761719 75 205 77.238281 205 80 L 205 94 C 205 96.761719 202.761719 99 200 99 L 176 99 C 173.238281 99 171 96.761719 171 94 Z M 171 80 "/>
<g clip-path="url(#clip38)" clip-rule="nonzero">
<g clip-path="url(#clip39)" clip-rule="nonzero">
<path style="fill:none;stroke-width:1;stroke-linecap:butt;stroke-linejoin:miter;stroke:rgb(38.039216%,50.588235%,100%);stroke-opacity:1;stroke-miterlimit:10;" d="M 0 5 C 0 2.238281 2.238281 0 5 0 L 29 0 C 31.761719 0 34 2.238281 34 5 L 34 19 C 34 21.761719 31.761719 24 29 24 L 5 24 C 2.238281 24 0 21.761719 0 19 Z M 0 5 " transform="matrix(1,0,0,1,171,75)"/>
</g>
</g>
<g clip-path="url(#clip40)" clip-rule="nonzero">
<path style="fill:none;stroke-width:1;stroke-linecap:butt;stroke-linejoin:miter;stroke:rgb(38.039216%,50.588235%,100%);stroke-opacity:1;stroke-miterlimit:10;" d="M 0 5 C 0 2.238281 2.238281 0 5 0 L 29 0 C 31.761719 0 34 2.238281 34 5 L 34 19 C 34 21.761719 31.761719 24 29 24 L 5 24 C 2.238281 24 0 21.761719 0 19 Z M 0 5 " transform="matrix(1,0,0,1,159,75)"/>
</g>
<path style=" stroke:none;fill-rule:nonzero;fill:rgb(38.039216%,50.588235%,100%);fill-opacity:0.490196;" d="M 159 80 C 159 77.238281 161.238281 75 164 75 L 188 75 C 190.761719 75 193 77.238281 193 80 L 193 94 C 193 96.761719 190.761719 99 188 99 L 164 99 C 161.238281 99 159 96.761719 159 94 Z M 159 80 "/>
<g clip-path="url(#clip41)" clip-rule="nonzero">
<g clip-path="url(#clip42)" clip-rule="nonzero">
<path style="fill:none;stroke-width:1;stroke-linecap:butt;stroke-linejoin:miter;stroke:rgb(38.039216%,50.588235%,100%);stroke-opacity:1;stroke-miterlimit:10;" d="M 0 5 C 0 2.238281 2.238281 0 5 0 L 29 0 C 31.761719 0 34 2.238281 34 5 L 34 19 C 34 21.761719 31.761719 24 29 24 L 5 24 C 2.238281 24 0 21.761719 0 19 Z M 0 5 " transform="matrix(1,0,0,1,159,75)"/>
</g>
</g>
<g clip-path="url(#clip43)" clip-rule="nonzero">
<path style="fill:none;stroke-width:1;stroke-linecap:butt;stroke-linejoin:miter;stroke:rgb(38.039216%,50.588235%,100%);stroke-opacity:1;stroke-miterlimit:10;" d="M 0 5 C 0 2.238281 2.238281 0 5 0 L 29 0 C 31.761719 0 34 2.238281 34 5 L 34 8 C 34 10.761719 31.761719 13 29 13 L 5 13 C 2.238281 13 0 10.761719 0 8 Z M 0 5 " transform="matrix(1,0,0,1,245,75)"/>
</g>
<path style=" stroke:none;fill-rule:nonzero;fill:rgb(38.039216%,50.588235%,100%);fill-opacity:0.490196;" d="M 245 80 C 245 77.238281 247.238281 75 250 75 L 274 75 C 276.761719 75 279 77.238281 279 80 L 279 83 C 279 85.761719 276.761719 88 274 88 L 250 88 C 247.238281 88 245 85.761719 245 83 Z M 245 80 "/>
<g clip-path="url(#clip44)" clip-rule="nonzero">
<g clip-path="url(#clip45)" clip-rule="nonzero">
<path style="fill:none;stroke-width:1;stroke-linecap:butt;stroke-linejoin:miter;stroke:rgb(38.039216%,50.588235%,100%);stroke-opacity:1;stroke-miterlimit:10;" d="M 0 5 C 0 2.238281 2.238281 0 5 0 L 29 0 C 31.761719 0 34 2.238281 34 5 L 34 8 C 34 10.761719 31.761719 13 29 13 L 5 13 C 2.238281 13 0 10.761719 0 8 Z M 0 5 " transform="matrix(1,0,0,1,245,75)"/>
</g>
</g>
<g clip-path="url(#clip46)" clip-rule="nonzero">
<path style="fill:none;stroke-width:1;stroke-linecap:butt;stroke-linejoin:miter;stroke:rgb(38.039216%,50.588235%,100%);stroke-opacity:1;stroke-miterlimit:10;" d="M 0 5 C 0 2.238281 2.238281 0 5 0 L 29 0 C 31.761719 0 34 2.238281 34 5 L 34 8 C 34 10.761719 31.761719 13 29 13 L 5 13 C 2.238281 13 0 10.761719 0 8 Z M 0 5 " transform="matrix(1,0,0,1,233,75)"/>
</g>
<path style=" stroke:none;fill-rule:nonzero;fill:rgb(38.039216%,50.588235%,100%);fill-opacity:0.490196;" d="M 233 80 C 233 77.238281 235.238281 75 238 75 L 262 75 C 264.761719 75 267 77.238281 267 80 L 267 83 C 267 85.761719 264.761719 88 262 88 L 238 88 C 235.238281 88 233 85.761719 233 83 Z M 233 80 "/>
<g clip-path="url(#clip47)" clip-rule="nonzero">
<g clip-path="url(#clip48)" clip-rule="nonzero">
<path style="fill:none;stroke-width:1;stroke-linecap:butt;stroke-linejoin:miter;stroke:rgb(38.039216%,50.588235%,100%);stroke-opacity:1;stroke-miterlimit:10;" d="M 0 5 C 0 2.238281 2.238281 0 5 0 L 29 0 C 31.761719 0 34 2.238281 34 5 L 34 8 C 34 10.761719 31.761719 13 29 13 L 5 13 C 2.238281 13 0 10.761719 0 8 Z M 0 5 " transform="matrix(1,0,0,1,233,75)"/>
</g>
</g>
<g clip-path="url(#clip49)" clip-rule="nonzero">
<path style="fill:none;stroke-width:1;stroke-linecap:butt;stroke-linejoin:miter;stroke:rgb(38.039216%,50.588235%,100%);stroke-opacity:1;stroke-miterlimit:10;" d="M 0 5 C 0 2.238281 2.238281 0 5 0 L 31 0 C 33.761719 0 36 2.238281 36 5 L 36 17 C 36 19.761719 33.761719 22 31 22 L 5 22 C 2.238281 22 0 19.761719 0 17 Z M 0 5 " transform="matrix(1,0,0,1,11,127)"/>
</g>
<path style=" stroke:none;fill-rule:nonzero;fill:rgb(38.039216%,50.588235%,100%);fill-opacity:0.490196;" d="M 11 132 C 11 129.238281 13.238281 127 16 127 L 42 127 C 44.761719 127 47 129.238281 47 132 L 47 144 C 47 146.761719 44.761719 149 42 149 L 16 149 C 13.238281 149 11 146.761719 11 144 Z M 11 132 "/>
<g clip-path="url(#clip50)" clip-rule="nonzero">
<g clip-path="url(#clip51)" clip-rule="nonzero">
<path style="fill:none;stroke-width:1;stroke-linecap:butt;stroke-linejoin:miter;stroke:rgb(38.039216%,50.588235%,100%);stroke-opacity:1;stroke-miterlimit:10;" d="M 0 5 C 0 2.238281 2.238281 0 5 0 L 31 0 C 33.761719 0 36 2.238281 36 5 L 36 17 C 36 19.761719 33.761719 22 31 22 L 5 22 C 2.238281 22 0 19.761719 0 17 Z M 0 5 " transform="matrix(1,0,0,1,11,127)"/>
</g>
</g>
<g clip-path="url(#clip52)" clip-rule="nonzero">
<path style="fill:none;stroke-width:1;stroke-linecap:butt;stroke-linejoin:miter;stroke:rgb(38.039216%,50.588235%,100%);stroke-opacity:1;stroke-miterlimit:10;" d="M 0 5 C 0 2.238281 2.238281 0 5 0 L 31 0 C 33.761719 0 36 2.238281 36 5 L 36 17 C 36 19.761719 33.761719 22 31 22 L 5 22 C 2.238281 22 0 19.761719 0 17 Z M 0 5 " transform="matrix(1,0,0,1,21,135)"/>
</g>
<path style=" stroke:none;fill-rule:nonzero;fill:rgb(38.039216%,50.588235%,100%);fill-opacity:0.490196;" d="M 21 140 C 21 137.238281 23.238281 135 26 135 L 52 135 C 54.761719 135 57 137.238281 57 140 L 57 152 C 57 154.761719 54.761719 157 52 157 L 26 157 C 23.238281 157 21 154.761719 21 152 Z M 21 140 "/>
<g clip-path="url(#clip53)" clip-rule="nonzero">
<g clip-path="url(#clip54)" clip-rule="nonzero">
<path style="fill:none;stroke-width:1;stroke-linecap:butt;stroke-linejoin:miter;stroke:rgb(38.039216%,50.588235%,100%);stroke-opacity:1;stroke-miterlimit:10;" d="M 0 5 C 0 2.238281 2.238281 0 5 0 L 31 0 C 33.761719 0 36 2.238281 36 5 L 36 17 C 36 19.761719 33.761719 22 31 22 L 5 22 C 2.238281 22 0 19.761719 0 17 Z M 0 5 " transform="matrix(1,0,0,1,21,135)"/>
</g>
</g>
<g clip-path="url(#clip55)" clip-rule="nonzero">
<path style="fill:none;stroke-width:1;stroke-linecap:butt;stroke-linejoin:miter;stroke:rgb(38.039216%,50.588235%,100%);stroke-opacity:1;stroke-miterlimit:10;" d="M 0 5 C 0 2.238281 2.238281 0 5 0 L 41 0 C 43.761719 0 46 2.238281 46 5 L 46 17 C 46 19.761719 43.761719 22 41 22 L 5 22 C 2.238281 22 0 19.761719 0 17 Z M 0 5 " transform="matrix(1,0,0,1,85,127)"/>
</g>
<path style=" stroke:none;fill-rule:nonzero;fill:rgb(38.039216%,50.588235%,100%);fill-opacity:0.490196;" d="M 85 132 C 85 129.238281 87.238281 127 90 127 L 126 127 C 128.761719 127 131 129.238281 131 132 L 131 144 C 131 146.761719 128.761719 149 126 149 L 90 149 C 87.238281 149 85 146.761719 85 144 Z M 85 132 "/>
<g clip-path="url(#clip56)" clip-rule="nonzero">
<g clip-path="url(#clip57)" clip-rule="nonzero">
<path style="fill:none;stroke-width:1;stroke-linecap:butt;stroke-linejoin:miter;stroke:rgb(38.039216%,50.588235%,100%);stroke-opacity:1;stroke-miterlimit:10;" d="M 0 5 C 0 2.238281 2.238281 0 5 0 L 41 0 C 43.761719 0 46 2.238281 46 5 L 46 17 C 46 19.761719 43.761719 22 41 22 L 5 22 C 2.238281 22 0 19.761719 0 17 Z M 0 5 " transform="matrix(1,0,0,1,85,127)"/>
</g>
</g>
<g clip-path="url(#clip58)" clip-rule="nonzero">
<path style="fill:none;stroke-width:1;stroke-linecap:butt;stroke-linejoin:miter;stroke:rgb(38.039216%,50.588235%,100%);stroke-opacity:1;stroke-miterlimit:10;" d="M 0 5 C 0 2.238281 2.238281 0 5 0 L 41 0 C 43.761719 0 46 2.238281 46 5 L 46 17 C 46 19.761719 43.761719 22 41 22 L 5 22 C 2.238281 22 0 19.761719 0 17 Z M 0 5 " transform="matrix(1,0,0,1,85,135)"/>
</g>
<path style=" stroke:none;fill-rule:nonzero;fill:rgb(38.039216%,50.588235%,100%);fill-opacity:0.490196;" d="M 85 140 C 85 137.238281 87.238281 135 90 135 L 126 135 C 128.761719 135 131 137.238281 131 140 L 131 152 C 131 154.761719 128.761719 157 126 157 L 90 157 C 87.238281 157 85 154.761719 85 152 Z M 85 140 "/>
<g clip-path="url(#clip59)" clip-rule="nonzero">
<g clip-path="url(#clip60)" clip-rule="nonzero">
<path style="fill:none;stroke-width:1;stroke-linecap:butt;stroke-linejoin:miter;stroke:rgb(38.039216%,50.588235%,100%);stroke-opacity:1;stroke-miterlimit:10;" d="M 0 5 C 0 2.238281 2.238281 0 5 0 L 41 0 C 43.761719 0 46 2.238281 46 5 L 46 17 C 46 19.761719 43.761719 22 41 22 L 5 22 C 2.238281 22 0 19.761719 0 17 Z M 0 5 " transform="matrix(1,0,0,1,85,135)"/>
</g>
</g>
<g clip-path="url(#clip61)" clip-rule="nonzero">
<path style="fill:none;stroke-width:1;stroke-linecap:butt;stroke-linejoin:miter;stroke:rgb(38.039216%,50.588235%,100%);stroke-opacity:1;stroke-miterlimit:10;" d="M 0 5 C 0 2.238281 2.238281 0 5 0 L 29 0 C 31.761719 0 34 2.238281 34 5 L 34 17 C 34 19.761719 31.761719 22 29 22 L 5 22 C 2.238281 22 0 19.761719 0 17 Z M 0 5 " transform="matrix(1,0,0,1,159,127)"/>
</g>
<path style=" stroke:none;fill-rule:nonzero;fill:rgb(38.039216%,50.588235%,100%);fill-opacity:0.490196;" d="M 159 132 C 159 129.238281 161.238281 127 164 127 L 188 127 C 190.761719 127 193 129.238281 193 132 L 193 144 C 193 146.761719 190.761719 149 188 149 L 164 149 C 161.238281 149 159 146.761719 159 144 Z M 159 132 "/>
<g clip-path="url(#clip62)" clip-rule="nonzero">
<g clip-path="url(#clip63)" clip-rule="nonzero">
<path style="fill:none;stroke-width:1;stroke-linecap:butt;stroke-linejoin:miter;stroke:rgb(38.039216%,50.588235%,100%);stroke-opacity:1;stroke-miterlimit:10;" d="M 0 5 C 0 2.238281 2.238281 0 5 0 L 29 0 C 31.761719 0 34 2.238281 34 5 L 34 17 C 34 19.761719 31.761719 22 29 22 L 5 22 C 2.238281 22 0 19.761719 0 17 Z M 0 5 " transform="matrix(1,0,0,1,159,127)"/>
</g>
</g>
<g clip-path="url(#clip64)" clip-rule="nonzero">
<path style="fill:none;stroke-width:1;stroke-linecap:butt;stroke-linejoin:miter;stroke:rgb(38.039216%,50.588235%,100%);stroke-opacity:1;stroke-miterlimit:10;" d="M 0 5 C 0 2.238281 2.238281 0 5 0 L 29 0 C 31.761719 0 34 2.238281 34 5 L 34 17 C 34 19.761719 31.761719 22 29 22 L 5 22 C 2.238281 22 0 19.761719 0 17 Z M 0 5 " transform="matrix(1,0,0,1,159,135)"/>
</g>
<path style=" stroke:none;fill-rule:nonzero;fill:rgb(38.039216%,50.588235%,100%);fill-opacity:0.490196;" d="M 159 140 C 159 137.238281 161.238281 135 164 135 L 188 135 C 190.761719 135 193 137.238281 193 140 L 193 152 C 193 154.761719 190.761719 157 188 157 L 164 157 C 161.238281 157 159 154.761719 159 152 Z M 159 140 "/>
<g clip-path="url(#clip65)" clip-rule="nonzero">
<g clip-path="url(#clip66)" clip-rule="nonzero">
<path style="fill:none;stroke-width:1;stroke-linecap:butt;stroke-linejoin:miter;stroke:rgb(38.039216%,50.588235%,100%);stroke-opacity:1;stroke-miterlimit:10;" d="M 0 5 C 0 2.238281 2.238281 0 5 0 L 29 0 C 31.761719 0 34 2.238281 34 5 L 34 17 C 34 19.761719 31.761719 22 29 22 L 5 22 C 2.238281 22 0 19.761719 0 17 Z M 0 5 " transform="matrix(1,0,0,1,159,135)"/>
</g>
</g>
<g clip-path="url(#clip67)" clip-rule="nonzero">
<path style="fill:none;stroke-width:1;stroke-linecap:butt;stroke-linejoin:miter;stroke:rgb(38.039216%,50.588235%,100%);stroke-opacity:1;stroke-miterlimit:10;" d="M 0 5 C 0 2.238281 2.238281 0 5 0 L 29 0 C 31.761719 0 34 2.238281 34 5 L 34 25 C 34 27.761719 31.761719 30 29 30 L 5 30 C 2.238281 30 0 27.761719 0 25 Z M 0 5 " transform="matrix(1,0,0,1,233,127)"/>
</g>
<path style=" stroke:none;fill-rule:nonzero;fill:rgb(38.039216%,50.588235%,100%);fill-opacity:0.490196;" d="M 233 132 C 233 129.238281 235.238281 127 238 127 L 262 127 C 264.761719 127 267 129.238281 267 132 L 267 152 C 267 154.761719 264.761719 157 262 157 L 238 157 C 235.238281 157 233 154.761719 233 152 Z M 233 132 "/>
<g clip-path="url(#clip68)" clip-rule="nonzero">
<g clip-path="url(#clip69)" clip-rule="nonzero">
<path style="fill:none;stroke-width:1;stroke-linecap:butt;stroke-linejoin:miter;stroke:rgb(38.039216%,50.588235%,100%);stroke-opacity:1;stroke-miterlimit:10;" d="M 0 5 C 0 2.238281 2.238281 0 5 0 L 29 0 C 31.761719 0 34 2.238281 34 5 L 34 25 C 34 27.761719 31.761719 30 29 30 L 5 30 C 2.238281 30 0 27.761719 0 25 Z M 0 5 " transform="matrix(1,0,0,1,233,127)"/>
</g>
</g>
<g clip-path="url(#clip70)" clip-rule="nonzero">
<path style="fill:none;stroke-width:1;stroke-linecap:butt;stroke-linejoin:miter;stroke:rgb(38.039216%,50.588235%,100%);stroke-opacity:1;stroke-miterlimit:10;" d="M 0 5 C 0 2.238281 2.238281 0 5 0 L 29 0 C 31.761719 0 34 2.238281 34 5 L 34 25 C 34 27.761719 31.761719 30 29 30 L 5 30 C 2.238281 30 0 27.761719 0 25 Z M 0 5 " transform="matrix(1,0,0,1,233,127)"/>
</g>
<path style=" stroke:none;fill-rule:nonzero;fill:rgb(38.039216%,50.588235%,100%);fill-opacity:0.490196;" d="M 233 132 C 233 129.238281 235.238281 127 238 127 L 262 127 C 264.761719 127 267 129.238281 267 132 L 267 152 C 267 154.761719 264.761719 157 262 157 L 238 157 C 235.238281 157 233 154.761719 233 152 Z M 233 132 "/>
<g clip-path="url(#clip71)" clip-rule="nonzero">
<g clip-path="url(#clip72)" clip-rule="nonzero">
<path style="fill:none;stroke-width:1;stroke-linecap:butt;stroke-linejoin:miter;stroke:rgb(38.039216%,50.588235%,100%);stroke-opacity:1;stroke-miterlimit:10;" d="M 0 5 C 0 2.238281 2.238281 0 5 0 L 29 0 C 31.761719 0 34 2.238281 34 5 L 34 25 C 34 27.761719 31.761719 30 29 30 L 5 30 C 2.238281 30 0 27.761719 0 25 Z M 0 5 " transform="matrix(1,0,0,1,233,127)"/>
</g>
</g>
<g clip-path="url(#clip73)" clip-rule="nonzero">
<path style="fill:none;stroke-width:1;stroke-linecap:butt;stroke-linejoin:miter;stroke:rgb(38.039216%,50.588235%,100%);stroke-opacity:1;stroke-miterlimit:10;" d="M 0 5 C 0 2.238281 2.238281 0 5 0 L 29 0 C 31.761719 0 34 2.238281 34 5 L 34 19 C 34 21.761719 31.761719 24 29 24 L 5 24 C 2.238281 24 0 21.761719 0 19 Z M 0 5 " transform="matrix(1,0,0,1,11,185)"/>
</g>
<path style=" stroke:none;fill-rule:nonzero;fill:rgb(38.039216%,50.588235%,100%);fill-opacity:0.490196;" d="M 11 190 C 11 187.238281 13.238281 185 16 185 L 40 185 C 42.761719 185 45 187.238281 45 190 L 45 204 C 45 206.761719 42.761719 209 40 209 L 16 209 C 13.238281 209 11 206.761719 11 204 Z M 11 190 "/>
<g clip-path="url(#clip74)" clip-rule="nonzero">
<g clip-path="url(#clip75)" clip-rule="nonzero">
<path style="fill:none;stroke-width:1;stroke-linecap:butt;stroke-linejoin:miter;stroke:rgb(38.039216%,50.588235%,100%);stroke-opacity:1;stroke-miterlimit:10;" d="M 0 5 C 0 2.238281 2.238281 0 5 0 L 29 0 C 31.761719 0 34 2.238281 34 5 L 34 19 C 34 21.761719 31.761719 24 29 24 L 5 24 C 2.238281 24 0 21.761719 0 19 Z M 0 5 " transform="matrix(1,0,0,1,11,185)"/>
</g>
</g>
<g clip-path="url(#clip76)" clip-rule="nonzero">
<path style="fill:none;stroke-width:1;stroke-linecap:butt;stroke-linejoin:miter;stroke:rgb(38.039216%,50.588235%,100%);stroke-opacity:1;stroke-miterlimit:10;" d="M 0 5 C 0 2.238281 2.238281 0 5 0 L 29 0 C 31.761719 0 34 2.238281 34 5 L 34 19 C 34 21.761719 31.761719 24 29 24 L 5 24 C 2.238281 24 0 21.761719 0 19 Z M 0 5 " transform="matrix(1,0,0,1,11,185)"/>
</g>
<path style=" stroke:none;fill-rule:nonzero;fill:rgb(38.039216%,50.588235%,100%);fill-opacity:0.490196;" d="M 11 190 C 11 187.238281 13.238281 185 16 185 L 40 185 C 42.761719 185 45 187.238281 45 190 L 45 204 C 45 206.761719 42.761719 209 40 209 L 16 209 C 13.238281 209 11 206.761719 11 204 Z M 11 190 "/>
<g clip-path="url(#clip77)" clip-rule="nonzero">
<g clip-path="url(#clip78)" clip-rule="nonzero">
<path style="fill:none;stroke-width:1;stroke-linecap:butt;stroke-linejoin:miter;stroke:rgb(38.039216%,50.588235%,100%);stroke-opacity:1;stroke-miterlimit:10;" d="M 0 5 C 0 2.238281 2.238281 0 5 0 L 29 0 C 31.761719 0 34 2.238281 34 5 L 34 19 C 34 21.761719 31.761719 24 29 24 L 5 24 C 2.238281 24 0 21.761719 0 19 Z M 0 5 " transform="matrix(1,0,0,1,11,185)"/>
</g>
</g>
<g clip-path="url(#clip79)" clip-rule="nonzero">
<path style="fill:none;stroke-width:1;stroke-linecap:butt;stroke-linejoin:miter;stroke:rgb(38.039216%,50.588235%,100%);stroke-opacity:1;stroke-miterlimit:10;" d="M 0 5 C 0 2.238281 2.238281 0 5 0 L 41 0 C 43.761719 0 46 2.238281 46 5 L 46 19 C 46 21.761719 43.761719 24 41 24 L 5 24 C 2.238281 24 0 21.761719 0 19 Z M 0 5 " transform="matrix(1,0,0,1,85,185)"/>
</g>
<path style=" stroke:none;fill-rule:nonzero;fill:rgb(38.039216%,50.588235%,100%);fill-opacity:0.490196;" d="M 85 190 C 85 187.238281 87.238281 185 90 185 L 126 185 C 128.761719 185 131 187.238281 131 190 L 131 204 C 131 206.761719 128.761719 209 126 209 L 90 209 C 87.238281 209 85 206.761719 85 204 Z M 85 190 "/>
<g clip-path="url(#clip80)" clip-rule="nonzero">
<g clip-path="url(#clip81)" clip-rule="nonzero">
<path style="fill:none;stroke-width:1;stroke-linecap:butt;stroke-linejoin:miter;stroke:rgb(38.039216%,50.588235%,100%);stroke-opacity:1;stroke-miterlimit:10;" d="M 0 5 C 0 2.238281 2.238281 0 5 0 L 41 0 C 43.761719 0 46 2.238281 46 5 L 46 19 C 46 21.761719 43.761719 24 41 24 L 5 24 C 2.238281 24 0 21.761719 0 19 Z M 0 5 " transform="matrix(1,0,0,1,85,185)"/>
</g>
</g>
<g clip-path="url(#clip82)" clip-rule="nonzero">
<path style="fill:none;stroke-width:1;stroke-linecap:butt;stroke-linejoin:miter;stroke:rgb(38.039216%,50.588235%,100%);stroke-opacity:1;stroke-miterlimit:10;" d="M 0 5 C 0 2.238281 2.238281 0 5 0 L 41 0 C 43.761719 0 46 2.238281 46 5 L 46 19 C 46 21.761719 43.761719 24 41 24 L 5 24 C 2.238281 24 0 21.761719 0 19 Z M 0 5 " transform="matrix(1,0,0,1,85,185)"/>
</g>
<path style=" stroke:none;fill-rule:nonzero;fill:rgb(38.039216%,50.588235%,100%);fill-opacity:0.490196;" d="M 85 190 C 85 187.238281 87.238281 185 90 185 L 126 185 C 128.761719 185 131 187.238281 131 190 L 131 204 C 131 206.761719 128.761719 209 126 209 L 90 209 C 87.238281 209 85 206.761719 85 204 Z M 85 190 "/>
<g clip-path="url(#clip83)" clip-rule="nonzero">
<g clip-path="url(#clip84)" clip-rule="nonzero">
<path style="fill:none;stroke-width:1;stroke-linecap:butt;stroke-linejoin:miter;stroke:rgb(38.039216%,50.588235%,100%);stroke-opacity:1;stroke-miterlimit:10;" d="M 0 5 C 0 2.238281 2.238281 0 5 0 L 41 0 C 43.761719 0 46 2.238281 46 5 L 46 19 C 46 21.761719 43.761719 24 41 24 L 5 24 C 2.238281 24 0 21.761719 0 19 Z M 0 5 " transform="matrix(1,0,0,1,85,185)"/>
</g>
</g>
<g clip-path="url(#clip85)" clip-rule="nonzero">
<path style="fill:none;stroke-width:1;stroke-linecap:butt;stroke-linejoin:miter;stroke:rgb(38.039216%,50.588235%,100%);stroke-opacity:1;stroke-miterlimit:10;" d="M 0 5 C 0 2.238281 2.238281 0 5 0 L 31 0 C 33.761719 0 36 2.238281 36 5 L 36 19 C 36 21.761719 33.761719 24 31 24 L 5 24 C 2.238281 24 0 21.761719 0 19 Z M 0 5 " transform="matrix(1,0,0,1,159,185)"/>
</g>
<path style=" stroke:none;fill-rule:nonzero;fill:rgb(38.039216%,50.588235%,100%);fill-opacity:0.490196;" d="M 159 190 C 159 187.238281 161.238281 185 164 185 L 190 185 C 192.761719 185 195 187.238281 195 190 L 195 204 C 195 206.761719 192.761719 209 190 209 L 164 209 C 161.238281 209 159 206.761719 159 204 Z M 159 190 "/>
<g clip-path="url(#clip86)" clip-rule="nonzero">
<g clip-path="url(#clip87)" clip-rule="nonzero">
<path style="fill:none;stroke-width:1;stroke-linecap:butt;stroke-linejoin:miter;stroke:rgb(38.039216%,50.588235%,100%);stroke-opacity:1;stroke-miterlimit:10;" d="M 0 5 C 0 2.238281 2.238281 0 5 0 L 31 0 C 33.761719 0 36 2.238281 36 5 L 36 19 C 36 21.761719 33.761719 24 31 24 L 5 24 C 2.238281 24 0 21.761719 0 19 Z M 0 5 " transform="matrix(1,0,0,1,159,185)"/>
</g>
</g>
<g clip-path="url(#clip88)" clip-rule="nonzero">
<path style="fill:none;stroke-width:1;stroke-linecap:butt;stroke-linejoin:miter;stroke:rgb(38.039216%,50.588235%,100%);stroke-opacity:1;stroke-miterlimit:10;" d="M 0 5 C 0 2.238281 2.238281 0 5 0 L 31 0 C 33.761719 0 36 2.238281 36 5 L 36 19 C 36 21.761719 33.761719 24 31 24 L 5 24 C 2.238281 24 0 21.761719 0 19 Z M 0 5 " transform="matrix(1,0,0,1,169,185)"/>
</g>
<path style=" stroke:none;fill-rule:nonzero;fill:rgb(38.039216%,50.588235%,100%);fill-opacity:0.490196;" d="M 169 190 C 169 187.238281 171.238281 185 174 185 L 200 185 C 202.761719 185 205 187.238281 205 190 L 205 204 C 205 206.761719 202.761719 209 200 209 L 174 209 C 171.238281 209 169 206.761719 169 204 Z M 169 190 "/>
<g clip-path="url(#clip89)" clip-rule="nonzero">
<g clip-path="url(#clip90)" clip-rule="nonzero">
<path style="fill:none;stroke-width:1;stroke-linecap:butt;stroke-linejoin:miter;stroke:rgb(38.039216%,50.588235%,100%);stroke-opacity:1;stroke-miterlimit:10;" d="M 0 5 C 0 2.238281 2.238281 0 5 0 L 31 0 C 33.761719 0 36 2.238281 36 5 L 36 19 C 36 21.761719 33.761719 24 31 24 L 5 24 C 2.238281 24 0 21.761719 0 19 Z M 0 5 " transform="matrix(1,0,0,1,169,185)"/>
</g>
</g>
<g clip-path="url(#clip91)" clip-rule="nonzero">
<path style="fill:none;stroke-width:1;stroke-linecap:butt;stroke-linejoin:miter;stroke:rgb(38.039216%,50.588235%,100%);stroke-opacity:1;stroke-miterlimit:10;" d="M 0 5 C 0 2.238281 2.238281 0 5 0 L 19 0 C 21.761719 0 24 2.238281 24 5 L 24 11 C 24 13.761719 21.761719 16 19 16 L 5 16 C 2.238281 16 0 13.761719 0 11 Z M 0 5 " transform="matrix(1,0,0,1,233,185)"/>
</g>
<path style=" stroke:none;fill-rule:nonzero;fill:rgb(38.039216%,50.588235%,100%);fill-opacity:0.490196;" d="M 233 190 C 233 187.238281 235.238281 185 238 185 L 252 185 C 254.761719 185 257 187.238281 257 190 L 257 196 C 257 198.761719 254.761719 201 252 201 L 238 201 C 235.238281 201 233 198.761719 233 196 Z M 233 190 "/>
<g clip-path="url(#clip92)" clip-rule="nonzero">
<g clip-path="url(#clip93)" clip-rule="nonzero">
<path style="fill:none;stroke-width:1;stroke-linecap:butt;stroke-linejoin:miter;stroke:rgb(38.039216%,50.588235%,100%);stroke-opacity:1;stroke-miterlimit:10;" d="M 0 5 C 0 2.238281 2.238281 0 5 0 L 19 0 C 21.761719 0 24 2.238281 24 5 L 24 11 C 24 13.761719 21.761719 16 19 16 L 5 16 C 2.238281 16 0 13.761719 0 11 Z M 0 5 " transform="matrix(1,0,0,1,233,185)"/>
</g>
</g>
<g clip-path="url(#clip94)" clip-rule="nonzero">
<path style="fill:none;stroke-width:1;stroke-linecap:butt;stroke-linejoin:miter;stroke:rgb(38.039216%,50.588235%,100%);stroke-opacity:1;stroke-miterlimit:10;" d="M 0 5 C 0 2.238281 2.238281 0 5 0 L 19 0 C 21.761719 0 24 2.238281 24 5 L 24 11 C 24 13.761719 21.761719 16 19 16 L 5 16 C 2.238281 16 0 13.761719 0 11 Z M 0 5 " transform="matrix(1,0,0,1,255,199)"/>
</g>
<path style=" stroke:none;fill-rule:nonzero;fill:rgb(38.039216%,50.588235%,100%);fill-opacity:0.490196;" d="M 255 204 C 255 201.238281 257.238281 199 260 199 L 274 199 C 276.761719 199 279 201.238281 279 204 L 279 210 C 279 212.761719 276.761719 215 274 215 L 260 215 C 257.238281 215 255 212.761719 255 210 Z M 255 204 "/>
<g clip-path="url(#clip95)" clip-rule="nonzero">
<g clip-path="url(#clip96)" clip-rule="nonzero">
<path style="fill:none;stroke-width:1;stroke-linecap:butt;stroke-linejoin:miter;stroke:rgb(38.039216%,50.588235%,100%);stroke-opacity:1;stroke-miterlimit:10;" d="M 0 5 C 0 2.238281 2.238281 0 5 0 L 19 0 C 21.761719 0 24 2.238281 24 5 L 24 11 C 24 13.761719 21.761719 16 19 16 L 5 16 C 2.238281 16 0 13.761719 0 11 Z M 0 5 " transform="matrix(1,0,0,1,255,199)"/>
</g>
</g>
<path style=" stroke:none;fill-rule:nonzero;fill:rgb(100%,0%,0%);fill-opacity:1;" d="M 10 10 L 10 20 L 13 18 L 16 22 L 18 22 L 15 18 L 19 18 Z M 10 10 "/>
<path style=" stroke:none;fill-rule:nonzero;fill:rgb(100%,0%,0%);fill-opacity:1;" d="M 106 10 L 106 20 L 109 18 L 112 22 L 114 22 L 111 18 L 115 18 Z M 106 10 "/>
<path style=" stroke:none;fill-rule:nonzero;fill:rgb(100%,0%,0%);fill-opacity:1;" d="M 208 10 L 208 20 L 211 18 L 214 22 L 216 22 L 213 18 L 217 18 Z M 208 10 "/>
<path style=" stroke:none;fill-rule:nonzero;fill:rgb(100%,0%,0%);fill-opacity:1;" d="M 282 20 L 282 30 L 285 28 L 288 32 L 290 32 L 287 28 L 291 28 Z M 282 20 "/>
<path style=" stroke:none;fill-rule:nonzero;fill:rgb(100%,0%,0%);fill-opacity:1;" d="M 60 98 L 60 108 L 63 106 L 66 110 L 68 110 L 65 106 L 69 106 Z M 60 98 "/>
<path style=" stroke:none;fill-rule:nonzero;fill:rgb(100%,0%,0%);fill-opacity:1;" d="M 106 98 L 106 108 L 109 106 L 112 110 L 114 110 L 111 106 L 115 106 Z M 106 98 "/>
<path style=" stroke:none;fill-rule:nonzero;fill:rgb(100%,0%,0%);fill-opacity:1;" d="M 158 98 L 158 108 L 161 106 L 164 110 L 166 110 L 163 106 L 167 106 Z M 158 98 "/>
<path style=" stroke:none;fill-rule:nonzero;fill:rgb(100%,0%,0%);fill-opacity:1;" d="M 232 87 L 232 97 L 235 95 L 238 99 L 240 99 L 237 95 L 241 95 Z M 232 87 "/>
<path style=" stroke:none;fill-rule:nonzero;fill:rgb(100%,0%,0%);fill-opacity:1;" d="M 20 134 L 20 144 L 23 142 L 26 146 L 28 146 L 25 142 L 29 142 Z M 20 134 "/>
<path style=" stroke:none;fill-rule:nonzero;fill:rgb(100%,0%,0%);fill-opacity:1;" d="M 106 134 L 106 144 L 109 142 L 112 146 L 114 146 L 111 142 L 115 142 Z M 106 134 "/>
<path style=" stroke:none;fill-rule:nonzero;fill:rgb(100%,0%,0%);fill-opacity:1;" d="M 192 134 L 192 144 L 195 142 L 198 146 L 200 146 L 197 142 L 201 142 Z M 192 134 "/>
<path style=" stroke:none;fill-rule:nonzero;fill:rgb(100%,0%,0%);fill-opacity:1;" d="M 266 140 L 266 150 L 269 148 L 272 152 L 274 152 L 271 148 L 275 148 Z M 266 140 "/>
<path style=" stroke:none;fill-rule:nonzero;fill:rgb(100%,0%,0%);fill-opacity:1;" d="M 44 208 L 44 218 L 47 216 L 50 220 L 52 220 L 49 216 L 53 216 Z M 44 208 "/>
<path style=" stroke:none;fill-rule:nonzero;fill:rgb(100%,0%,0%);fill-opacity:1;" d="M 106 208 L 106 218 L 109 216 L 112 220 L 114 220 L 111 216 L 115 216 Z M 106 208 "/>
<path style=" stroke:none;fill-rule:nonzero;fill:rgb(100%,0%,0%);fill-opacity:1;" d="M 168 208 L 168 218 L 171 216 L 174 220 L 176 220 L 173 216 L 177 216 Z M 168 208 "/>
<path style=" stroke:none;fill-rule:nonzero;fill:rgb(100%,0%,0%);fill-opacity:1;" d="M 254 198 L 254 208 L 257 206 L 260 210 L 262 210 L 259 206 L 263 206 Z M 254 198 "/>
</g>
</svg>
