<?xml version="1.0" encoding="UTF-8"?>
<svg xmlns="http://www.w3.org/2000/svg" xmlns:xlink="http://www.w3.org/1999/xlink" width="320pt" height="240pt" viewBox="0 0 320 240" version="1.1">
<defs>
<clipPath id="clip1">
  <path d="M 5 5 L 6 5 L 6 6 L 5 6 Z M 5 5 "/>
</clipPath>
<clipPath id="clip2">
  <path d="M 5 5.5 C 5 5.222656 5.222656 5 5.5 5 C 5.777344 5 6 5.222656 6 5.5 C 6 5.777344 5.777344 6 5.5 6 C 5.222656 6 5 5.777344 5 5.5 Z M 5 5.5 "/>
</clipPath>
</defs>
<g id="surface6">
<path style="fill:none;stroke-width:1.5;stroke-linecap:butt;stroke-linejoin:miter;stroke:rgb(0%,0%,0%);stroke-opacity:0.266667;stroke-dasharray:10,4;stroke-dashoffset:1;stroke-miterlimit:10;" d="M 0.75 0.75 L 319.25 0.75 L 319.25 239.25 L 0.75 239.25 Z M 0.75 0.75 "/>
<path style="fill:none;stroke-width:1.5;stroke-linecap:butt;stroke-linejoin:miter;stroke:rgb(0%,0%,0%);stroke-opacity:0.2;stroke-dasharray:10,4;stroke-dashoffset:1;stroke-miterlimit:10;" d="M 10 10 L 310 10 L 310 230 L 10 230 Z M 10 10 "/>
<g clip-path="url(#clip1)" clip-rule="nonzero">
<g clip-path="url(#clip2)" clip-rule="nonzero">
<rect x="0" y="0" width="320" height="240" style="fill:rgb(38.039216%,50.588235%,100%);fill-opacity:0.490196;stroke:none;"/>
<path style="fill:none;stroke-width:10;stroke-linecap:butt;stroke-linejoin:miter;stroke:rgb(0%,100%,0%);stroke-opacity:1;stroke-miterlimit:10;" d="M 5 5.5 C 5 5.222656 5.222656 5 5.5 5 C 5.777344 5 6 5.222656 6 5.5 C 6 5.777344 5.777344 6 5.5 6 C 5.222656 6 5 5.777344 5 5.5 Z M 5 5.5 "/>
</g>
</g>
</g>
</svg>
