<?xml version="1.0" encoding="UTF-8"?>
<svg xmlns="http://www.w3.org/2000/svg" xmlns:xlink="http://www.w3.org/1999/xlink" width="360pt" height="48pt" viewBox="0 0 360 48" version="1.1">
<defs>
<clipPath id="clip1">
  <path d="M 14 14 L 50 14 L 50 34 L 14 34 Z M 14 14 "/>
</clipPath>
<clipPath id="clip2">
  <path d="M 14.5 16.5 C 14.5 15.394531 15.394531 14.5 16.5 14.5 L 47.5 14.5 C 48.605469 14.5 49.5 15.394531 49.5 16.5 L 49.5 31.5 C 49.5 32.605469 48.605469 33.5 47.5 33.5 L 16.5 33.5 C 15.394531 33.5 14.5 32.605469 14.5 31.5 Z M 14.5 16.5 "/>
</clipPath>
<clipPath id="clip3">
  <path d="M 78 4 L 134 4 L 134 44 L 78 44 Z M 78 4 "/>
</clipPath>
<clipPath id="clip4">
  <path d="M 78 6 C 78 4.894531 78.894531 4 80 4 L 132 4 C 133.105469 4 134 4.894531 134 6 L 134 42 C 134 43.105469 133.105469 44 132 44 L 80 44 C 78.894531 44 78 43.105469 78 42 Z M 78 6 "/>
</clipPath>
<clipPath id="clip5">
  <path d="M 88 14 L 124 14 L 124 34 L 88 34 Z M 88 14 "/>
</clipPath>
<clipPath id="clip6">
  <path d="M 88.5 16.5 C 88.5 15.394531 89.394531 14.5 90.5 14.5 L 121.5 14.5 C 122.605469 14.5 123.5 15.394531 123.5 16.5 L 123.5 31.5 C 123.5 32.605469 122.605469 33.5 121.5 33.5 L 90.5 33.5 C 89.394531 33.5 88.5 32.605469 88.5 31.5 Z M 88.5 16.5 "/>
</clipPath>
<clipPath id="clip7">
  <path d="M 152 4 L 208 4 L 208 23 L 152 23 Z M 152 4 "/>
</clipPath>
<clipPath id="clip8">
  <path d="M 152 6 C 152 4.894531 152.894531 4 154 4 L 206 4 C 207.105469 4 208 4.894531 208 6 L 208 21 C 208 22.105469 207.105469 23 206 23 L 154 23 C 152.894531 23 152 22.105469 152 21 Z M 152 6 "/>
</clipPath>
<clipPath id="clip9">
  <path d="M 152 25 L 208 25 L 208 44 L 152 44 Z M 152 25 "/>
</clipPath>
<clipPath id="clip10">
  <path d="M 152 27 C 152 25.894531 152.894531 25 154 25 L 206 25 C 207.105469 25 208 25.894531 208 27 L 208 42 C 208 43.105469 207.105469 44 206 44 L 154 44 C 152.894531 44 152 43.105469 152 42 Z M 152 27 "/>
</clipPath>
<clipPath id="clip11">
  <path d="M 162 14 L 198 14 L 198 34 L 162 34 Z M 162 14 "/>
</clipPath>
<clipPath id="clip12">
  <path d="M 162.5 16.5 C 162.5 15.394531 163.394531 14.5 164.5 14.5 L 195.5 14.5 C 196.605469 14.5 197.5 15.394531 197.5 16.5 L 197.5 31.5 C 197.5 32.605469 196.605469 33.5 195.5 33.5 L 164.5 33.5 C 163.394531 33.5 162.5 32.605469 162.5 31.5 Z M 162.5 16.5 "/>
</clipPath>
<clipPath id="clip13">
  <path d="M 226 4 L 282 4 L 282 16 L 226 16 Z M 226 4 "/>
</clipPath>
<clipPath id="clip14">
  <path d="M 226 6 C 226 4.894531 226.894531 4 228 4 L 280 4 C 281.105469 4 282 4.894531 282 6 L 282 14 C 282 15.105469 281.105469 16 280 16 L 228 16 C 226.894531 16 226 15.105469 226 14 Z M 226 6 "/>
</clipPath>
<clipPath id="clip15">
  <path d="M 226 18 L 282 18 L 282 30 L 226 30 Z M 226 18 "/>
</clipPath>
<clipPath id="clip16">
  <path d="M 226 20 C 226 18.894531 226.894531 18 228 18 L 280 18 C 281.105469 18 282 18.894531 282 20 L 282 28 C 282 29.105469 281.105469 30 280 30 L 228 30 C 226.894531 30 226 29.105469 226 28 Z M 226 20 "/>
</clipPath>
<clipPath id="clip17">
  <path d="M 226 32 L 282 32 L 282 44 L 226 44 Z M 226 32 "/>
</clipPath>
<clipPath id="clip18">
  <path d="M 226 34 C 226 32.894531 226.894531 32 228 32 L 280 32 C 281.105469 32 282 32.894531 282 34 L 282 42 C 282 43.105469 281.105469 44 280 44 L 228 44 C 226.894531 44 226 43.105469 226 42 Z M 226 34 "/>
</clipPath>
<clipPath id="clip19">
  <path d="M 236 14 L 272 14 L 272 34 L 236 34 Z M 236 14 "/>
</clipPath>
<clipPath id="clip20">
  <path d="M 236.5 16.5 C 236.5 15.394531 237.394531 14.5 238.5 14.5 L 269.5 14.5 C 270.605469 14.5 271.5 15.394531 271.5 16.5 L 271.5 31.5 C 271.5 32.605469 270.605469 33.5 269.5 33.5 L 238.5 33.5 C 237.394531 33.5 236.5 32.605469 236.5 31.5 Z M 236.5 16.5 "/>
</clipPath>
<clipPath id="clip21">
  <path d="M 300 4 L 356 4 L 356 12 L 300 12 Z M 300 4 "/>
</clipPath>
<clipPath id="clip22">
  <path d="M 300 6 C 300 4.894531 300.894531 4 302 4 L 354 4 C 355.105469 4 356 4.894531 356 6 L 356 10 C 356 11.105469 355.105469 12 354 12 L 302 12 C 300.894531 12 300 11.105469 300 10 Z M 300 6 "/>
</clipPath>
<clipPath id="clip23">
  <path d="M 300 14 L 356 14 L 356 22 L 300 22 Z M 300 14 "/>
</clipPath>
<clipPath id="clip24">
  <path d="M 300 16 C 300 14.894531 300.894531 14 302 14 L 354 14 C 355.105469 14 356 14.894531 356 16 L 356 20 C 356 21.105469 355.105469 22 354 22 L 302 22 C 300.894531 22 300 21.105469 300 20 Z M 300 16 "/>
</clipPath>
<clipPath id="clip25">
  <path d="M 300 24 L 356 24 L 356 32 L 300 32 Z M 300 24 "/>
</clipPath>
<clipPath id="clip26">
  <path d="M 300 26 C 300 24.894531 300.894531 24 302 24 L 354 24 C 355.105469 24 356 24.894531 356 26 L 356 30 C 356 31.105469 355.105469 32 354 32 L 302 32 C 300.894531 32 300 31.105469 300 30 Z M 300 26 "/>
</clipPath>
<clipPath id="clip27">
  <path d="M 300 34 L 356 34 L 356 42 L 300 42 Z M 300 34 "/>
</clipPath>
<clipPath id="clip28">
  <path d="M 300 36 C 300 34.894531 300.894531 34 302 34 L 354 34 C 355.105469 34 356 34.894531 356 36 L 356 40 C 356 41.105469 355.105469 42 354 42 L 302 42 C 300.894531 42 300 41.105469 300 40 Z M 300 36 "/>
</clipPath>
<clipPath id="clip29">
  <path d="M 310 14 L 346 14 L 346 34 L 310 34 Z M 310 14 "/>
</clipPath>
<clipPath id="clip30">
  <path d="M 310.5 16.5 C 310.5 15.394531 311.394531 14.5 312.5 14.5 L 343.5 14.5 C 344.605469 14.5 345.5 15.394531 345.5 16.5 L 345.5 31.5 C 345.5 32.605469 344.605469 33.5 343.5 33.5 L 312.5 33.5 C 311.394531 33.5 310.5 32.605469 310.5 31.5 Z M 310.5 16.5 "/>
</clipPath>
</defs>
<g id="surface2">
<path style="fill:none;stroke-width:1.5;stroke-linecap:butt;stroke-linejoin:miter;stroke:rgb(0%,0%,0%);stroke-opacity:0.266667;stroke-dasharray:10,4;stroke-dashoffset:1;stroke-miterlimit:10;" d="M 0.75 0.75 L 63.25 0.75 L 63.25 47.25 L 0.75 47.25 Z M 0.75 0.75 "/>
<path style="fill:none;stroke-width:1.5;stroke-linecap:butt;stroke-linejoin:miter;stroke:rgb(0%,0%,0%);stroke-opacity:0.2;stroke-dasharray:10,4;stroke-dashoffset:1;stroke-miterlimit:10;" d="M 3 3 L 61 3 L 61 45 L 3 45 Z M 3 3 "/>
<path style="fill:none;stroke-width:1.5;stroke-linecap:butt;stroke-linejoin:miter;stroke:rgb(0%,0%,0%);stroke-opacity:0.266667;stroke-dasharray:10,4;stroke-dashoffset:1;stroke-miterlimit:10;" d="M 74.75 0.75 L 137.25 0.75 L 137.25 47.25 L 74.75 47.25 Z M 74.75 0.75 "/>
<path style="fill:none;stroke-width:1.5;stroke-linecap:butt;stroke-linejoin:miter;stroke:rgb(0%,0%,0%);stroke-opacity:0.2;stroke-dasharray:10,4;stroke-dashoffset:1;stroke-miterlimit:10;" d="M 77 3 L 135 3 L 135 45 L 77 45 Z M 77 3 "/>
<path style="fill:none;stroke-width:1.5;stroke-linecap:butt;stroke-linejoin:miter;stroke:rgb(0%,0%,0%);stroke-opacity:0.266667;stroke-dasharray:10,4;stroke-dashoffset:1;stroke-miterlimit:10;" d="M 148.75 0.75 L 211.25 0.75 L 211.25 47.25 L 148.75 47.25 Z M 148.75 0.75 "/>
<path style="fill:none;stroke-width:1.5;stroke-linecap:butt;stroke-linejoin:miter;stroke:rgb(0%,0%,0%);stroke-opacity:0.2;stroke-dasharray:10,4;stroke-dashoffset:1;stroke-miterlimit:10;" d="M 151 3 L 209 3 L 209 45 L 151 45 Z M 151 3 "/>
<path style="fill:none;stroke-width:1.5;stroke-linecap:butt;stroke-linejoin:miter;stroke:rgb(0%,0%,0%);stroke-opacity:0.266667;stroke-dasharray:10,4;stroke-dashoffset:1;stroke-miterlimit:10;" d="M 222.75 0.75 L 285.25 0.75 L 285.25 47.25 L 222.75 47.25 Z M 222.75 0.75 "/>
<path style="fill:none;stroke-width:1.5;stroke-linecap:butt;stroke-linejoin:miter;stroke:rgb(0%,0%,0%);stroke-opacity:0.2;stroke-dasharray:10,4;stroke-dashoffset:1;stroke-miterlimit:10;" d="M 225 3 L 283 3 L 283 45 L 225 45 Z M 225 3 "/>
<path style="fill:none;stroke-width:1.5;stroke-linecap:butt;stroke-linejoin:miter;stroke:rgb(0%,0%,0%);stroke-opacity:0.266667;stroke-dasharray:10,4;stroke-dashoffset:1;stroke-miterlimit:10;" d="M 296.75 0.75 L 359.25 0.75 L 359.25 47.25 L 296.75 47.25 Z M 296.75 0.75 "/>
<path style="fill:none;stroke-width:1.5;stroke-linecap:butt;stroke-linejoin:miter;stroke:rgb(0%,0%,0%);stroke-opacity:0.2;stroke-dasharray:10,4;stroke-dashoffset:1;stroke-miterlimit:10;" d="M 299 3 L 357 3 L 357 45 L 299 45 Z M 299 3 "/>
<g clip-path="url(#clip1)" clip-rule="nonzero">
<g clip-path="url(#clip2)" clip-rule="nonzero">
<rect x="0" y="0" width="360" height="48" style="fill:rgb(38.039216%,50.588235%,100%);fill-opacity:0.490196;stroke:none;"/>
<path style="fill:none;stroke-width:2;stroke-linecap:butt;stroke-linejoin:miter;stroke:rgb(38.039216%,50.588235%,100%);stroke-opacity:1;stroke-miterlimit:10;" d="M 1 3 C 1 1.894531 1.894531 1 3 1 L 34 1 C 35.105469 1 36 1.894531 36 3 L 36 18 C 36 19.105469 35.105469 20 34 20 L 3 20 C 1.894531 20 1 19.105469 1 18 Z M 1 3 " transform="matrix(1,0,0,1,13.5,13.5)"/>
</g>
</g>
<g clip-path="url(#clip3)" clip-rule="nonzero">
<g clip-path="url(#clip4)" clip-rule="nonzero">
<rect x="0" y="0" width="360" height="48" style="fill:rgb(38.039216%,50.588235%,100%);fill-opacity:0.490196;stroke:none;"/>
<path style="fill:none;stroke-width:2;stroke-linecap:butt;stroke-linejoin:miter;stroke:rgb(38.039216%,50.588235%,100%);stroke-opacity:1;stroke-miterlimit:10;" d="M 1 3 C 1 1.894531 1.894531 1 3 1 L 55 1 C 56.105469 1 57 1.894531 57 3 L 57 39 C 57 40.105469 56.105469 41 55 41 L 3 41 C 1.894531 41 1 40.105469 1 39 Z M 1 3 " transform="matrix(1,0,0,1,77,3)"/>
</g>
</g>
<g clip-path="url(#clip5)" clip-rule="nonzero">
<g clip-path="url(#clip6)" clip-rule="nonzero">
<rect x="0" y="0" width="360" height="48" style="fill:rgb(38.039216%,50.588235%,100%);fill-opacity:0.490196;stroke:none;"/>
<path style="fill:none;stroke-width:2;stroke-linecap:butt;stroke-linejoin:miter;stroke:rgb(38.039216%,50.588235%,100%);stroke-opacity:1;stroke-miterlimit:10;" d="M 1 3 C 1 1.894531 1.894531 1 3 1 L 34 1 C 35.105469 1 36 1.894531 36 3 L 36 18 C 36 19.105469 35.105469 20 34 20 L 3 20 C 1.894531 20 1 19.105469 1 18 Z M 1 3 " transform="matrix(1,0,0,1,87.5,13.5)"/>
</g>
</g>
<g clip-path="url(#clip7)" clip-rule="nonzero">
<g clip-path="url(#clip8)" clip-rule="nonzero">
<rect x="0" y="0" width="360" height="48" style="fill:rgb(38.039216%,50.588235%,100%);fill-opacity:0.490196;stroke:none;"/>
<path style="fill:none;stroke-width:2;stroke-linecap:butt;stroke-linejoin:miter;stroke:rgb(38.039216%,50.588235%,100%);stroke-opacity:1;stroke-miterlimit:10;" d="M 1 3 C 1 1.894531 1.894531 1 3 1 L 55 1 C 56.105469 1 57 1.894531 57 3 L 57 18 C 57 19.105469 56.105469 20 55 20 L 3 20 C 1.894531 20 1 19.105469 1 18 Z M 1 3 " transform="matrix(1,0,0,1,151,3)"/>
</g>
</g>
<g clip-path="url(#clip9)" clip-rule="nonzero">
<g clip-path="url(#clip10)" clip-rule="nonzero">
<rect x="0" y="0" width="360" height="48" style="fill:rgb(38.039216%,50.588235%,100%);fill-opacity:0.490196;stroke:none;"/>
<path style="fill:none;stroke-width:2;stroke-linecap:butt;stroke-linejoin:miter;stroke:rgb(38.039216%,50.588235%,100%);stroke-opacity:1;stroke-miterlimit:10;" d="M 1 3 C 1 1.894531 1.894531 1 3 1 L 55 1 C 56.105469 1 57 1.894531 57 3 L 57 18 C 57 19.105469 56.105469 20 55 20 L 3 20 C 1.894531 20 1 19.105469 1 18 Z M 1 3 " transform="matrix(1,0,0,1,151,24)"/>
</g>
</g>
<g clip-path="url(#clip11)" clip-rule="nonzero">
<g clip-path="url(#clip12)" clip-rule="nonzero">
<rect x="0" y="0" width="360" height="48" style="fill:rgb(38.039216%,50.588235%,100%);fill-opacity:0.490196;stroke:none;"/>
<path style="fill:none;stroke-width:2;stroke-linecap:butt;stroke-linejoin:miter;stroke:rgb(38.039216%,50.588235%,100%);stroke-opacity:1;stroke-miterlimit:10;" d="M 1 3 C 1 1.894531 1.894531 1 3 1 L 34 1 C 35.105469 1 36 1.894531 36 3 L 36 18 C 36 19.105469 35.105469 20 34 20 L 3 20 C 1.894531 20 1 19.105469 1 18 Z M 1 3 " transform="matrix(1,0,0,1,161.5,13.5)"/>
</g>
</g>
<g clip-path="url(#clip13)" clip-rule="nonzero">
<g clip-path="url(#clip14)" clip-rule="nonzero">
<rect x="0" y="0" width="360" height="48" style="fill:rgb(38.039216%,50.588235%,100%);fill-opacity:0.490196;stroke:none;"/>
<path style="fill:none;stroke-width:2;stroke-linecap:butt;stroke-linejoin:miter;stroke:rgb(38.039216%,50.588235%,100%);stroke-opacity:1;stroke-miterlimit:10;" d="M 1 3 C 1 1.894531 1.894531 1 3 1 L 55 1 C 56.105469 1 57 1.894531 57 3 L 57 11 C 57 12.105469 56.105469 13 55 13 L 3 13 C 1.894531 13 1 12.105469 1 11 Z M 1 3 " transform="matrix(1,0,0,1,225,3)"/>
</g>
</g>
<g clip-path="url(#clip15)" clip-rule="nonzero">
<g clip-path="url(#clip16)" clip-rule="nonzero">
<rect x="0" y="0" width="360" height="48" style="fill:rgb(38.039216%,50.588235%,100%);fill-opacity:0.490196;stroke:none;"/>
<path style="fill:none;stroke-width:2;stroke-linecap:butt;stroke-linejoin:miter;stroke:rgb(38.039216%,50.588235%,100%);stroke-opacity:1;stroke-miterlimit:10;" d="M 1 3 C 1 1.894531 1.894531 1 3 1 L 55 1 C 56.105469 1 57 1.894531 57 3 L 57 11 C 57 12.105469 56.105469 13 55 13 L 3 13 C 1.894531 13 1 12.105469 1 11 Z M 1 3 " transform="matrix(1,0,0,1,225,17)"/>
</g>
</g>
<g clip-path="url(#clip17)" clip-rule="nonzero">
<g clip-path="url(#clip18)" clip-rule="nonzero">
<rect x="0" y="0" width="360" height="48" style="fill:rgb(38.039216%,50.588235%,100%);fill-opacity:0.490196;stroke:none;"/>
<path style="fill:none;stroke-width:2;stroke-linecap:butt;stroke-linejoin:miter;stroke:rgb(38.039216%,50.588235%,100%);stroke-opacity:1;stroke-miterlimit:10;" d="M 1 3 C 1 1.894531 1.894531 1 3 1 L 55 1 C 56.105469 1 57 1.894531 57 3 L 57 11 C 57 12.105469 56.105469 13 55 13 L 3 13 C 1.894531 13 1 12.105469 1 11 Z M 1 3 " transform="matrix(1,0,0,1,225,31)"/>
</g>
</g>
<g clip-path="url(#clip19)" clip-rule="nonzero">
<g clip-path="url(#clip20)" clip-rule="nonzero">
<rect x="0" y="0" width="360" height="48" style="fill:rgb(38.039216%,50.588235%,100%);fill-opacity:0.490196;stroke:none;"/>
<path style="fill:none;stroke-width:2;stroke-linecap:butt;stroke-linejoin:miter;stroke:rgb(38.039216%,50.588235%,100%);stroke-opacity:1;stroke-miterlimit:10;" d="M 1 3 C 1 1.894531 1.894531 1 3 1 L 34 1 C 35.105469 1 36 1.894531 36 3 L 36 18 C 36 19.105469 35.105469 20 34 20 L 3 20 C 1.894531 20 1 19.105469 1 18 Z M 1 3 " transform="matrix(1,0,0,1,235.5,13.5)"/>
</g>
</g>
<g clip-path="url(#clip21)" clip-rule="nonzero">
<g clip-path="url(#clip22)" clip-rule="nonzero">
<rect x="0" y="0" width="360" height="48" style="fill:rgb(38.039216%,50.588235%,100%);fill-opacity:0.490196;stroke:none;"/>
<path style="fill:none;stroke-width:2;stroke-linecap:butt;stroke-linejoin:miter;stroke:rgb(38.039216%,50.588235%,100%);stroke-opacity:1;stroke-miterlimit:10;" d="M 1 3 C 1 1.894531 1.894531 1 3 1 L 55 1 C 56.105469 1 57 1.894531 57 3 L 57 7 C 57 8.105469 56.105469 9 55 9 L 3 9 C 1.894531 9 1 8.105469 1 7 Z M 1 3 " transform="matrix(1,0,0,1,299,3)"/>
</g>
</g>
<g clip-path="url(#clip23)" clip-rule="nonzero">
<g clip-path="url(#clip24)" clip-rule="nonzero">
<rect x="0" y="0" width="360" height="48" style="fill:rgb(38.039216%,50.588235%,100%);fill-opacity:0.490196;stroke:none;"/>
<path style="fill:none;stroke-width:2;stroke-linecap:butt;stroke-linejoin:miter;stroke:rgb(38.039216%,50.588235%,100%);stroke-opacity:1;stroke-miterlimit:10;" d="M 1 3 C 1 1.894531 1.894531 1 3 1 L 55 1 C 56.105469 1 57 1.894531 57 3 L 57 7 C 57 8.105469 56.105469 9 55 9 L 3 9 C 1.894531 9 1 8.105469 1 7 Z M 1 3 " transform="matrix(1,0,0,1,299,13)"/>
</g>
</g>
<g clip-path="url(#clip25)" clip-rule="nonzero">
<g clip-path="url(#clip26)" clip-rule="nonzero">
<rect x="0" y="0" width="360" height="48" style="fill:rgb(38.039216%,50.588235%,100%);fill-opacity:0.490196;stroke:none;"/>
<path style="fill:none;stroke-width:2;stroke-linecap:butt;stroke-linejoin:miter;stroke:rgb(38.039216%,50.588235%,100%);stroke-opacity:1;stroke-miterlimit:10;" d="M 1 3 C 1 1.894531 1.894531 1 3 1 L 55 1 C 56.105469 1 57 1.894531 57 3 L 57 7 C 57 8.105469 56.105469 9 55 9 L 3 9 C 1.894531 9 1 8.105469 1 7 Z M 1 3 " transform="matrix(1,0,0,1,299,23)"/>
</g>
</g>
<g clip-path="url(#clip27)" clip-rule="nonzero">
<g clip-path="url(#clip28)" clip-rule="nonzero">
<rect x="0" y="0" width="360" height="48" style="fill:rgb(38.039216%,50.588235%,100%);fill-opacity:0.490196;stroke:none;"/>
<path style="fill:none;stroke-width:2;stroke-linecap:butt;stroke-linejoin:miter;stroke:rgb(38.039216%,50.588235%,100%);stroke-opacity:1;stroke-miterlimit:10;" d="M 1 3 C 1 1.894531 1.894531 1 3 1 L 55 1 C 56.105469 1 57 1.894531 57 3 L 57 7 C 57 8.105469 56.105469 9 55 9 L 3 9 C 1.894531 9 1 8.105469 1 7 Z M 1 3 " transform="matrix(1,0,0,1,299,33)"/>
</g>
</g>
<g clip-path="url(#clip29)" clip-rule="nonzero">
<g clip-path="url(#clip30)" clip-rule="nonzero">
<rect x="0" y="0" width="360" height="48" style="fill:rgb(38.039216%,50.588235%,100%);fill-opacity:0.490196;stroke:none;"/>
<path style="fill:none;stroke-width:2;stroke-linecap:butt;stroke-linejoin:miter;stroke:rgb(38.039216%,50.588235%,100%);stroke-opacity:1;stroke-miterlimit:10;" d="M 1 3 C 1 1.894531 1.894531 1 3 1 L 34 1 C 35.105469 1 36 1.894531 36 3 L 36 18 C 36 19.105469 35.105469 20 34 20 L 3 20 C 1.894531 20 1 19.105469 1 18 Z M 1 3 " transform="matrix(1,0,0,1,309.5,13.5)"/>
</g>
</g>
</g>
</svg>
