<?xml version="1.0" encoding="UTF-8"?>
<svg xmlns="http://www.w3.org/2000/svg" xmlns:xlink="http://www.w3.org/1999/xlink" width="360pt" height="48pt" viewBox="0 0 360 48" version="1.1">
<defs>
<clipPath id="clip1">
  <path d="M 4 4 L 31 4 L 31 44 L 4 44 Z M 4 4 "/>
</clipPath>
<clipPath id="clip2">
  <path d="M 4 6 C 4 4.894531 4.894531 4 6 4 L 29 4 C 30.105469 4 31 4.894531 31 6 L 31 42 C 31 43.105469 30.105469 44 29 44 L 6 44 C 4.894531 44 4 43.105469 4 42 Z M 4 6 "/>
</clipPath>
<clipPath id="clip3">
  <path d="M 78 4 L 105 4 L 105 23 L 78 23 Z M 78 4 "/>
</clipPath>
<clipPath id="clip4">
  <path d="M 78 6 C 78 4.894531 78.894531 4 80 4 L 103 4 C 104.105469 4 105 4.894531 105 6 L 105 21 C 105 22.105469 104.105469 23 103 23 L 80 23 C 78.894531 23 78 22.105469 78 21 Z M 78 6 "/>
</clipPath>
<clipPath id="clip5">
  <path d="M 78 25 L 105 25 L 105 44 L 78 44 Z M 78 25 "/>
</clipPath>
<clipPath id="clip6">
  <path d="M 78 27 C 78 25.894531 78.894531 25 80 25 L 103 25 C 104.105469 25 105 25.894531 105 27 L 105 42 C 105 43.105469 104.105469 44 103 44 L 80 44 C 78.894531 44 78 43.105469 78 42 Z M 78 27 "/>
</clipPath>
<clipPath id="clip7">
  <path d="M 152 4 L 179 4 L 179 23 L 152 23 Z M 152 4 "/>
</clipPath>
<clipPath id="clip8">
  <path d="M 152 6 C 152 4.894531 152.894531 4 154 4 L 177 4 C 178.105469 4 179 4.894531 179 6 L 179 21 C 179 22.105469 178.105469 23 177 23 L 154 23 C 152.894531 23 152 22.105469 152 21 Z M 152 6 "/>
</clipPath>
<clipPath id="clip9">
  <path d="M 152 25 L 179 25 L 179 44 L 152 44 Z M 152 25 "/>
</clipPath>
<clipPath id="clip10">
  <path d="M 152 27 C 152 25.894531 152.894531 25 154 25 L 177 25 C 178.105469 25 179 25.894531 179 27 L 179 42 C 179 43.105469 178.105469 44 177 44 L 154 44 C 152.894531 44 152 43.105469 152 42 Z M 152 27 "/>
</clipPath>
<clipPath id="clip11">
  <path d="M 184 7 L 205 7 L 205 41 L 184 41 Z M 184 7 "/>
</clipPath>
<clipPath id="clip12">
  <path d="M 184 9 C 184 7.894531 184.894531 7 186 7 L 203 7 C 204.105469 7 205 7.894531 205 9 L 205 39 C 205 40.105469 204.105469 41 203 41 L 186 41 C 184.894531 41 184 40.105469 184 39 Z M 184 9 "/>
</clipPath>
<clipPath id="clip13">
  <path d="M 226 4 L 253 4 L 253 23 L 226 23 Z M 226 4 "/>
</clipPath>
<clipPath id="clip14">
  <path d="M 226 6 C 226 4.894531 226.894531 4 228 4 L 251 4 C 252.105469 4 253 4.894531 253 6 L 253 21 C 253 22.105469 252.105469 23 251 23 L 228 23 C 226.894531 23 226 22.105469 226 21 Z M 226 6 "/>
</clipPath>
<clipPath id="clip15">
  <path d="M 226 25 L 253 25 L 253 44 L 226 44 Z M 226 25 "/>
</clipPath>
<clipPath id="clip16">
  <path d="M 226 27 C 226 25.894531 226.894531 25 228 25 L 251 25 C 252.105469 25 253 25.894531 253 27 L 253 42 C 253 43.105469 252.105469 44 251 44 L 228 44 C 226.894531 44 226 43.105469 226 42 Z M 226 27 "/>
</clipPath>
<clipPath id="clip17">
  <path d="M 258 7 L 279 7 L 279 23 L 258 23 Z M 258 7 "/>
</clipPath>
<clipPath id="clip18">
  <path d="M 258 9 C 258 7.894531 258.894531 7 260 7 L 277 7 C 278.105469 7 279 7.894531 279 9 L 279 21 C 279 22.105469 278.105469 23 277 23 L 260 23 C 258.894531 23 258 22.105469 258 21 Z M 258 9 "/>
</clipPath>
<clipPath id="clip19">
  <path d="M 258 25 L 279 25 L 279 41 L 258 41 Z M 258 25 "/>
</clipPath>
<clipPath id="clip20">
  <path d="M 258 27 C 258 25.894531 258.894531 25 260 25 L 277 25 C 278.105469 25 279 25.894531 279 27 L 279 39 C 279 40.105469 278.105469 41 277 41 L 260 41 C 258.894531 41 258 40.105469 258 39 Z M 258 27 "/>
</clipPath>
<clipPath id="clip21">
  <path d="M 300 4 L 327 4 L 327 23 L 300 23 Z M 300 4 "/>
</clipPath>
<clipPath id="clip22">
  <path d="M 300 6 C 300 4.894531 300.894531 4 302 4 L 325 4 C 326.105469 4 327 4.894531 327 6 L 327 21 C 327 22.105469 326.105469 23 325 23 L 302 23 C 300.894531 23 300 22.105469 300 21 Z M 300 6 "/>
</clipPath>
<clipPath id="clip23">
  <path d="M 300 25 L 327 25 L 327 44 L 300 44 Z M 300 25 "/>
</clipPath>
<clipPath id="clip24">
  <path d="M 300 27 C 300 25.894531 300.894531 25 302 25 L 325 25 C 326.105469 25 327 25.894531 327 27 L 327 42 C 327 43.105469 326.105469 44 325 44 L 302 44 C 300.894531 44 300 43.105469 300 42 Z M 300 27 "/>
</clipPath>
<clipPath id="clip25">
  <path d="M 332 7 L 353 7 L 353 17 L 332 17 Z M 332 7 "/>
</clipPath>
<clipPath id="clip26">
  <path d="M 332 9 C 332 7.894531 332.894531 7 334 7 L 351 7 C 352.105469 7 353 7.894531 353 9 L 353 15 C 353 16.105469 352.105469 17 351 17 L 334 17 C 332.894531 17 332 16.105469 332 15 Z M 332 9 "/>
</clipPath>
<clipPath id="clip27">
  <path d="M 332 19 L 353 19 L 353 29 L 332 29 Z M 332 19 "/>
</clipPath>
<clipPath id="clip28">
  <path d="M 332 21 C 332 19.894531 332.894531 19 334 19 L 351 19 C 352.105469 19 353 19.894531 353 21 L 353 27 C 353 28.105469 352.105469 29 351 29 L 334 29 C 332.894531 29 332 28.105469 332 27 Z M 332 21 "/>
</clipPath>
<clipPath id="clip29">
  <path d="M 332 31 L 353 31 L 353 41 L 332 41 Z M 332 31 "/>
</clipPath>
<clipPath id="clip30">
  <path d="M 332 33 C 332 31.894531 332.894531 31 334 31 L 351 31 C 352.105469 31 353 31.894531 353 33 L 353 39 C 353 40.105469 352.105469 41 351 41 L 334 41 C 332.894531 41 332 40.105469 332 39 Z M 332 33 "/>
</clipPath>
</defs>
<g id="surface2">
<path style="fill:none;stroke-width:1.5;stroke-linecap:butt;stroke-linejoin:miter;stroke:rgb(0%,0%,0%);stroke-opacity:0.266667;stroke-dasharray:10,4;stroke-dashoffset:1;stroke-miterlimit:10;" d="M 0.75 0.75 L 63.25 0.75 L 63.25 47.25 L 0.75 47.25 Z M 0.75 0.75 "/>
<path style="fill:none;stroke-width:1.5;stroke-linecap:butt;stroke-linejoin:miter;stroke:rgb(0%,0%,0%);stroke-opacity:0.2;stroke-dasharray:10,4;stroke-dashoffset:1;stroke-miterlimit:10;" d="M 3 3 L 61 3 L 61 45 L 3 45 Z M 3 3 "/>
<path style="fill:none;stroke-width:1.5;stroke-linecap:butt;stroke-linejoin:miter;stroke:rgb(0%,0%,0%);stroke-opacity:0.266667;stroke-dasharray:10,4;stroke-dashoffset:1;stroke-miterlimit:10;" d="M 74.75 0.75 L 137.25 0.75 L 137.25 47.25 L 74.75 47.25 Z M 74.75 0.75 "/>
<path style="fill:none;stroke-width:1.5;stroke-linecap:butt;stroke-linejoin:miter;stroke:rgb(0%,0%,0%);stroke-opacity:0.2;stroke-dasharray:10,4;stroke-dashoffset:1;stroke-miterlimit:10;" d="M 77 3 L 135 3 L 135 45 L 77 45 Z M 77 3 "/>
<path style="fill:none;stroke-width:1.5;stroke-linecap:butt;stroke-linejoin:miter;stroke:rgb(0%,0%,0%);stroke-opacity:0.266667;stroke-dasharray:10,4;stroke-dashoffset:1;stroke-miterlimit:10;" d="M 148.75 0.75 L 211.25 0.75 L 211.25 47.25 L 148.75 47.25 Z M 148.75 0.75 "/>
<path style="fill:none;stroke-width:1.5;stroke-linecap:butt;stroke-linejoin:miter;stroke:rgb(0%,0%,0%);stroke-opacity:0.2;stroke-dasharray:10,4;stroke-dashoffset:1;stroke-miterlimit:10;" d="M 151 3 L 209 3 L 209 45 L 151 45 Z M 151 3 "/>
<path style="fill:none;stroke-width:1.5;stroke-linecap:butt;stroke-linejoin:miter;stroke:rgb(0%,0%,0%);stroke-opacity:0.266667;stroke-dasharray:10,4;stroke-dashoffset:1;stroke-miterlimit:10;" d="M 222.75 0.75 L 285.25 0.75 L 285.25 47.25 L 222.75 47.25 Z M 222.75 0.75 "/>
<path style="fill:none;stroke-width:1.5;stroke-linecap:butt;stroke-linejoin:miter;stroke:rgb(0%,0%,0%);stroke-opacity:0.2;stroke-dasharray:10,4;stroke-dashoffset:1;stroke-miterlimit:10;" d="M 225 3 L 283 3 L 283 45 L 225 45 Z M 225 3 "/>
<path style="fill:none;stroke-width:1.5;stroke-linecap:butt;stroke-linejoin:miter;stroke:rgb(0%,0%,0%);stroke-opacity:0.266667;stroke-dasharray:10,4;stroke-dashoffset:1;stroke-miterlimit:10;" d="M 296.75 0.75 L 359.25 0.75 L 359.25 47.25 L 296.75 47.25 Z M 296.75 0.75 "/>
<path style="fill:none;stroke-width:1.5;stroke-linecap:butt;stroke-linejoin:miter;stroke:rgb(0%,0%,0%);stroke-opacity:0.2;stroke-dasharray:10,4;stroke-dashoffset:1;stroke-miterlimit:10;" d="M 299 3 L 357 3 L 357 45 L 299 45 Z M 299 3 "/>
<g clip-path="url(#clip1)" clip-rule="nonzero">
<g clip-path="url(#clip2)" clip-rule="nonzero">
<rect x="0" y="0" width="360" height="48" style="fill:rgb(38.039216%,50.588235%,100%);fill-opacity:0.490196;stroke:none;"/>
<path style="fill:none;stroke-width:2;stroke-linecap:butt;stroke-linejoin:miter;stroke:rgb(38.039216%,50.588235%,100%);stroke-opacity:1;stroke-miterlimit:10;" d="M 1 3 C 1 1.894531 1.894531 1 3 1 L 26 1 C 27.105469 1 28 1.894531 28 3 L 28 39 C 28 40.105469 27.105469 41 26 41 L 3 41 C 1.894531 41 1 40.105469 1 39 Z M 1 3 " transform="matrix(1,0,0,1,3,3)"/>
</g>
</g>
<g clip-path="url(#clip3)" clip-rule="nonzero">
<g clip-path="url(#clip4)" clip-rule="nonzero">
<rect x="0" y="0" width="360" height="48" style="fill:rgb(38.039216%,50.588235%,100%);fill-opacity:0.490196;stroke:none;"/>
<path style="fill:none;stroke-width:2;stroke-linecap:butt;stroke-linejoin:miter;stroke:rgb(38.039216%,50.588235%,100%);stroke-opacity:1;stroke-miterlimit:10;" d="M 1 3 C 1 1.894531 1.894531 1 3 1 L 26 1 C 27.105469 1 28 1.894531 28 3 L 28 18 C 28 19.105469 27.105469 20 26 20 L 3 20 C 1.894531 20 1 19.105469 1 18 Z M 1 3 " transform="matrix(1,0,0,1,77,3)"/>
</g>
</g>
<g clip-path="url(#clip5)" clip-rule="nonzero">
<g clip-path="url(#clip6)" clip-rule="nonzero">
<rect x="0" y="0" width="360" height="48" style="fill:rgb(38.039216%,50.588235%,100%);fill-opacity:0.490196;stroke:none;"/>
<path style="fill:none;stroke-width:2;stroke-linecap:butt;stroke-linejoin:miter;stroke:rgb(38.039216%,50.588235%,100%);stroke-opacity:1;stroke-miterlimit:10;" d="M 1 3 C 1 1.894531 1.894531 1 3 1 L 26 1 C 27.105469 1 28 1.894531 28 3 L 28 18 C 28 19.105469 27.105469 20 26 20 L 3 20 C 1.894531 20 1 19.105469 1 18 Z M 1 3 " transform="matrix(1,0,0,1,77,24)"/>
</g>
</g>
<g clip-path="url(#clip7)" clip-rule="nonzero">
<g clip-path="url(#clip8)" clip-rule="nonzero">
<rect x="0" y="0" width="360" height="48" style="fill:rgb(38.039216%,50.588235%,100%);fill-opacity:0.490196;stroke:none;"/>
<path style="fill:none;stroke-width:2;stroke-linecap:butt;stroke-linejoin:miter;stroke:rgb(38.039216%,50.588235%,100%);stroke-opacity:1;stroke-miterlimit:10;" d="M 1 3 C 1 1.894531 1.894531 1 3 1 L 26 1 C 27.105469 1 28 1.894531 28 3 L 28 18 C 28 19.105469 27.105469 20 26 20 L 3 20 C 1.894531 20 1 19.105469 1 18 Z M 1 3 " transform="matrix(1,0,0,1,151,3)"/>
</g>
</g>
<g clip-path="url(#clip9)" clip-rule="nonzero">
<g clip-path="url(#clip10)" clip-rule="nonzero">
<rect x="0" y="0" width="360" height="48" style="fill:rgb(38.039216%,50.588235%,100%);fill-opacity:0.490196;stroke:none;"/>
<path style="fill:none;stroke-width:2;stroke-linecap:butt;stroke-linejoin:miter;stroke:rgb(38.039216%,50.588235%,100%);stroke-opacity:1;stroke-miterlimit:10;" d="M 1 3 C 1 1.894531 1.894531 1 3 1 L 26 1 C 27.105469 1 28 1.894531 28 3 L 28 18 C 28 19.105469 27.105469 20 26 20 L 3 20 C 1.894531 20 1 19.105469 1 18 Z M 1 3 " transform="matrix(1,0,0,1,151,24)"/>
</g>
</g>
<g clip-path="url(#clip11)" clip-rule="nonzero">
<g clip-path="url(#clip12)" clip-rule="nonzero">
<rect x="0" y="0" width="360" height="48" style="fill:rgb(38.039216%,50.588235%,100%);fill-opacity:0.490196;stroke:none;"/>
<path style="fill:none;stroke-width:2;stroke-linecap:butt;stroke-linejoin:miter;stroke:rgb(38.039216%,50.588235%,100%);stroke-opacity:1;stroke-miterlimit:10;" d="M 1 3 C 1 1.894531 1.894531 1 3 1 L 20 1 C 21.105469 1 22 1.894531 22 3 L 22 33 C 22 34.105469 21.105469 35 20 35 L 3 35 C 1.894531 35 1 34.105469 1 33 Z M 1 3 " transform="matrix(1,0,0,1,183,6)"/>
</g>
</g>
<g clip-path="url(#clip13)" clip-rule="nonzero">
<g clip-path="url(#clip14)" clip-rule="nonzero">
<rect x="0" y="0" width="360" height="48" style="fill:rgb(38.039216%,50.588235%,100%);fill-opacity:0.490196;stroke:none;"/>
<path style="fill:none;stroke-width:2;stroke-linecap:butt;stroke-linejoin:miter;stroke:rgb(38.039216%,50.588235%,100%);stroke-opacity:1;stroke-miterlimit:10;" d="M 1 3 C 1 1.894531 1.894531 1 3 1 L 26 1 C 27.105469 1 28 1.894531 28 3 L 28 18 C 28 19.105469 27.105469 20 26 20 L 3 20 C 1.894531 20 1 19.105469 1 18 Z M 1 3 " transform="matrix(1,0,0,1,225,3)"/>
</g>
</g>
<g clip-path="url(#clip15)" clip-rule="nonzero">
<g clip-path="url(#clip16)" clip-rule="nonzero">
<rect x="0" y="0" width="360" height="48" style="fill:rgb(38.039216%,50.588235%,100%);fill-opacity:0.490196;stroke:none;"/>
<path style="fill:none;stroke-width:2;stroke-linecap:butt;stroke-linejoin:miter;stroke:rgb(38.039216%,50.588235%,100%);stroke-opacity:1;stroke-miterlimit:10;" d="M 1 3 C 1 1.894531 1.894531 1 3 1 L 26 1 C 27.105469 1 28 1.894531 28 3 L 28 18 C 28 19.105469 27.105469 20 26 20 L 3 20 C 1.894531 20 1 19.105469 1 18 Z M 1 3 " transform="matrix(1,0,0,1,225,24)"/>
</g>
</g>
<g clip-path="url(#clip17)" clip-rule="nonzero">
<g clip-path="url(#clip18)" clip-rule="nonzero">
<rect x="0" y="0" width="360" height="48" style="fill:rgb(38.039216%,50.588235%,100%);fill-opacity:0.490196;stroke:none;"/>
<path style="fill:none;stroke-width:2;stroke-linecap:butt;stroke-linejoin:miter;stroke:rgb(38.039216%,50.588235%,100%);stroke-opacity:1;stroke-miterlimit:10;" d="M 1 3 C 1 1.894531 1.894531 1 3 1 L 20 1 C 21.105469 1 22 1.894531 22 3 L 22 15 C 22 16.105469 21.105469 17 20 17 L 3 17 C 1.894531 17 1 16.105469 1 15 Z M 1 3 " transform="matrix(1,0,0,1,257,6)"/>
</g>
</g>
<g clip-path="url(#clip19)" clip-rule="nonzero">
<g clip-path="url(#clip20)" clip-rule="nonzero">
<rect x="0" y="0" width="360" height="48" style="fill:rgb(38.039216%,50.588235%,100%);fill-opacity:0.490196;stroke:none;"/>
<path style="fill:none;stroke-width:2;stroke-linecap:butt;stroke-linejoin:miter;stroke:rgb(38.039216%,50.588235%,100%);stroke-opacity:1;stroke-miterlimit:10;" d="M 1 3 C 1 1.894531 1.894531 1 3 1 L 20 1 C 21.105469 1 22 1.894531 22 3 L 22 15 C 22 16.105469 21.105469 17 20 17 L 3 17 C 1.894531 17 1 16.105469 1 15 Z M 1 3 " transform="matrix(1,0,0,1,257,24)"/>
</g>
</g>
<g clip-path="url(#clip21)" clip-rule="nonzero">
<g clip-path="url(#clip22)" clip-rule="nonzero">
<rect x="0" y="0" width="360" height="48" style="fill:rgb(38.039216%,50.588235%,100%);fill-opacity:0.490196;stroke:none;"/>
<path style="fill:none;stroke-width:2;stroke-linecap:butt;stroke-linejoin:miter;stroke:rgb(38.039216%,50.588235%,100%);stroke-opacity:1;stroke-miterlimit:10;" d="M 1 3 C 1 1.894531 1.894531 1 3 1 L 26 1 C 27.105469 1 28 1.894531 28 3 L 28 18 C 28 19.105469 27.105469 20 26 20 L 3 20 C 1.894531 20 1 19.105469 1 18 Z M 1 3 " transform="matrix(1,0,0,1,299,3)"/>
</g>
</g>
<g clip-path="url(#clip23)" clip-rule="nonzero">
<g clip-path="url(#clip24)" clip-rule="nonzero">
<rect x="0" y="0" width="360" height="48" style="fill:rgb(38.039216%,50.588235%,100%);fill-opacity:0.490196;stroke:none;"/>
<path style="fill:none;stroke-width:2;stroke-linecap:butt;stroke-linejoin:miter;stroke:rgb(38.039216%,50.588235%,100%);stroke-opacity:1;stroke-miterlimit:10;" d="M 1 3 C 1 1.894531 1.894531 1 3 1 L 26 1 C 27.105469 1 28 1.894531 28 3 L 28 18 C 28 19.105469 27.105469 20 26 20 L 3 20 C 1.894531 20 1 19.105469 1 18 Z M 1 3 " transform="matrix(1,0,0,1,299,24)"/>
</g>
</g>
<g clip-path="url(#clip25)" clip-rule="nonzero">
<g clip-path="url(#clip26)" clip-rule="nonzero">
<rect x="0" y="0" width="360" height="48" style="fill:rgb(38.039216%,50.588235%,100%);fill-opacity:0.490196;stroke:none;"/>
<path style="fill:none;stroke-width:2;stroke-linecap:butt;stroke-linejoin:miter;stroke:rgb(38.039216%,50.588235%,100%);stroke-opacity:1;stroke-miterlimit:10;" d="M 1 3 C 1 1.894531 1.894531 1 3 1 L 20 1 C 21.105469 1 22 1.894531 22 3 L 22 9 C 22 10.105469 21.105469 11 20 11 L 3 11 C 1.894531 11 1 10.105469 1 9 Z M 1 3 " transform="matrix(1,0,0,1,331,6)"/>
</g>
</g>
<g clip-path="url(#clip27)" clip-rule="nonzero">
<g clip-path="url(#clip28)" clip-rule="nonzero">
<rect x="0" y="0" width="360" height="48" style="fill:rgb(38.039216%,50.588235%,100%);fill-opacity:0.490196;stroke:none;"/>
<path style="fill:none;stroke-width:2;stroke-linecap:butt;stroke-linejoin:miter;stroke:rgb(38.039216%,50.588235%,100%);stroke-opacity:1;stroke-miterlimit:10;" d="M 1 3 C 1 1.894531 1.894531 1 3 1 L 20 1 C 21.105469 1 22 1.894531 22 3 L 22 9 C 22 10.105469 21.105469 11 20 11 L 3 11 C 1.894531 11 1 10.105469 1 9 Z M 1 3 " transform="matrix(1,0,0,1,331,18)"/>
</g>
</g>
<g clip-path="url(#clip29)" clip-rule="nonzero">
<g clip-path="url(#clip30)" clip-rule="nonzero">
<rect x="0" y="0" width="360" height="48" style="fill:rgb(38.039216%,50.588235%,100%);fill-opacity:0.490196;stroke:none;"/>
<path style="fill:none;stroke-width:2;stroke-linecap:butt;stroke-linejoin:miter;stroke:rgb(38.039216%,50.588235%,100%);stroke-opacity:1;stroke-miterlimit:10;" d="M 1 3 C 1 1.894531 1.894531 1 3 1 L 20 1 C 21.105469 1 22 1.894531 22 3 L 22 9 C 22 10.105469 21.105469 11 20 11 L 3 11 C 1.894531 11 1 10.105469 1 9 Z M 1 3 " transform="matrix(1,0,0,1,331,30)"/>
</g>
</g>
</g>
</svg>
