<?xml version="1.0" encoding="UTF-8"?>
<svg xmlns="http://www.w3.org/2000/svg" xmlns:xlink="http://www.w3.org/1999/xlink" width="303pt" height="96pt" viewBox="0 0 303 96" version="1.1">
<defs>
<clipPath id="clip1">
  <path d="M 220 35 L 276 35 L 276 96 L 220 96 Z M 220 35 "/>
</clipPath>
<clipPath id="clip2">
  <path d="M 221 36 L 275 36 L 275 96 L 221 96 Z M 221 36 "/>
</clipPath>
<clipPath id="clip3">
  <path d="M 221 41 C 221 38.238281 223.238281 36 226 36 L 270 36 C 272.761719 36 275 38.238281 275 41 L 275 107 C 275 109.761719 272.761719 112 270 112 L 226 112 C 223.238281 112 221 109.761719 221 107 Z M 221 41 "/>
</clipPath>
<clipPath id="clip4">
  <path d="M 175 0 L 231 0 L 231 78 L 175 78 Z M 175 0 "/>
</clipPath>
<clipPath id="clip5">
  <path d="M 176 1 L 230 1 L 230 77 L 176 77 Z M 176 1 "/>
</clipPath>
<clipPath id="clip6">
  <path d="M 176 6 C 176 3.238281 178.238281 1 181 1 L 225 1 C 227.761719 1 230 3.238281 230 6 L 230 72 C 230 74.761719 227.761719 77 225 77 L 181 77 C 178.238281 77 176 74.761719 176 72 Z M 176 6 "/>
</clipPath>
<clipPath id="clip7">
  <path d="M 185 10 L 241 10 L 241 88 L 185 88 Z M 185 10 "/>
</clipPath>
<clipPath id="clip8">
  <path d="M 186 11 L 240 11 L 240 87 L 186 87 Z M 186 11 "/>
</clipPath>
<clipPath id="clip9">
  <path d="M 186 16 C 186 13.238281 188.238281 11 191 11 L 235 11 C 237.761719 11 240 13.238281 240 16 L 240 82 C 240 84.761719 237.761719 87 235 87 L 191 87 C 188.238281 87 186 84.761719 186 82 Z M 186 16 "/>
</clipPath>
</defs>
<g id="surface2">
<path style="fill:none;stroke-width:1.5;stroke-linecap:butt;stroke-linejoin:miter;stroke:rgb(0%,0%,0%);stroke-opacity:0.266667;stroke-dasharray:10,4;stroke-dashoffset:1;stroke-miterlimit:10;" d="M 175.75 0.75 L 302.25 0.75 L 302.25 95.25 L 175.75 95.25 Z M 175.75 0.75 "/>
<path style="fill:none;stroke-width:1.5;stroke-linecap:butt;stroke-linejoin:miter;stroke:rgb(0%,0%,0%);stroke-opacity:0.2;stroke-dasharray:10,4;stroke-dashoffset:1;stroke-miterlimit:10;" d="M 185 10 L 293 10 L 293 86 L 185 86 Z M 185 10 "/>
<path style="fill:none;stroke-width:1.5;stroke-linecap:butt;stroke-linejoin:miter;stroke:rgb(0%,0%,0%);stroke-opacity:0.1;stroke-miterlimit:10;" d="M 220 35 L 175 0 "/>
<path style="fill:none;stroke-width:1.5;stroke-linecap:butt;stroke-linejoin:miter;stroke:rgb(0%,0%,0%);stroke-opacity:0.1;stroke-miterlimit:10;" d="M 260 35 L 215 0 M 220 65 L 175 30 "/>
<path style="fill:none;stroke-width:1.5;stroke-linecap:butt;stroke-linejoin:miter;stroke:rgb(0%,0%,0%);stroke-opacity:0.1;stroke-miterlimit:10;" d="M 260 65 L 215 30 "/>
<path style="fill:none;stroke-width:1.5;stroke-linecap:butt;stroke-linejoin:miter;stroke:rgb(0%,0%,0%);stroke-opacity:0.1;stroke-miterlimit:10;" d="M 175 0 L 185 10 "/>
<path style="fill:none;stroke-width:1.5;stroke-linecap:butt;stroke-linejoin:miter;stroke:rgb(0%,0%,0%);stroke-opacity:0.1;stroke-miterlimit:10;" d="M 215 0 L 225 10 M 175 30 L 185 84 "/>
<path style="fill:none;stroke-width:1.5;stroke-linecap:butt;stroke-linejoin:miter;stroke:rgb(0%,0%,0%);stroke-opacity:0.1;stroke-miterlimit:10;" d="M 215 30 L 225 84 "/>
<g clip-path="url(#clip1)" clip-rule="nonzero">
<path style="fill:none;stroke-width:1;stroke-linecap:butt;stroke-linejoin:miter;stroke:rgb(38.039216%,50.588235%,100%);stroke-opacity:1;stroke-miterlimit:10;" d="M 0 5 C 0 2.238281 2.238281 0 5 0 L 49 0 C 51.761719 0 54 2.238281 54 5 L 54 71 C 54 73.761719 51.761719 76 49 76 L 5 76 C 2.238281 76 0 73.761719 0 71 Z M 0 5 " transform="matrix(1,0,0,1,221,36)"/>
</g>
<path style=" stroke:none;fill-rule:nonzero;fill:rgb(38.039216%,50.588235%,100%);fill-opacity:0.490196;" d="M 221 41 C 221 38.238281 223.238281 36 226 36 L 270 36 C 272.761719 36 275 38.238281 275 41 L 275 107 C 275 109.761719 272.761719 112 270 112 L 226 112 C 223.238281 112 221 109.761719 221 107 Z M 221 41 "/>
<g clip-path="url(#clip2)" clip-rule="nonzero">
<g clip-path="url(#clip3)" clip-rule="nonzero">
<path style="fill:none;stroke-width:1;stroke-linecap:butt;stroke-linejoin:miter;stroke:rgb(38.039216%,50.588235%,100%);stroke-opacity:1;stroke-miterlimit:10;" d="M 0 5 C 0 2.238281 2.238281 0 5 0 L 49 0 C 51.761719 0 54 2.238281 54 5 L 54 71 C 54 73.761719 51.761719 76 49 76 L 5 76 C 2.238281 76 0 73.761719 0 71 Z M 0 5 " transform="matrix(1,0,0,1,221,36)"/>
</g>
</g>
<g clip-path="url(#clip4)" clip-rule="nonzero">
<path style="fill:none;stroke-width:1;stroke-linecap:butt;stroke-linejoin:miter;stroke:rgb(38.039216%,50.588235%,100%);stroke-opacity:1;stroke-miterlimit:10;" d="M 0 5 C 0 2.238281 2.238281 0 5 0 L 49 0 C 51.761719 0 54 2.238281 54 5 L 54 71 C 54 73.761719 51.761719 76 49 76 L 5 76 C 2.238281 76 0 73.761719 0 71 Z M 0 5 " transform="matrix(1,0,0,1,176,1)"/>
</g>
<path style=" stroke:none;fill-rule:nonzero;fill:rgb(38.039216%,50.588235%,100%);fill-opacity:0.490196;" d="M 176 6 C 176 3.238281 178.238281 1 181 1 L 225 1 C 227.761719 1 230 3.238281 230 6 L 230 72 C 230 74.761719 227.761719 77 225 77 L 181 77 C 178.238281 77 176 74.761719 176 72 Z M 176 6 "/>
<g clip-path="url(#clip5)" clip-rule="nonzero">
<g clip-path="url(#clip6)" clip-rule="nonzero">
<path style="fill:none;stroke-width:1;stroke-linecap:butt;stroke-linejoin:miter;stroke:rgb(38.039216%,50.588235%,100%);stroke-opacity:1;stroke-miterlimit:10;" d="M 0 5 C 0 2.238281 2.238281 0 5 0 L 49 0 C 51.761719 0 54 2.238281 54 5 L 54 71 C 54 73.761719 51.761719 76 49 76 L 5 76 C 2.238281 76 0 73.761719 0 71 Z M 0 5 " transform="matrix(1,0,0,1,176,1)"/>
</g>
</g>
<g clip-path="url(#clip7)" clip-rule="nonzero">
<path style="fill:none;stroke-width:1;stroke-linecap:butt;stroke-linejoin:miter;stroke:rgb(38.039216%,50.588235%,100%);stroke-opacity:1;stroke-miterlimit:10;" d="M 0 5 C 0 2.238281 2.238281 0 5 0 L 49 0 C 51.761719 0 54 2.238281 54 5 L 54 71 C 54 73.761719 51.761719 76 49 76 L 5 76 C 2.238281 76 0 73.761719 0 71 Z M 0 5 " transform="matrix(1,0,0,1,186,11)"/>
</g>
<path style=" stroke:none;fill-rule:nonzero;fill:rgb(38.039216%,50.588235%,100%);fill-opacity:0.490196;" d="M 186 16 C 186 13.238281 188.238281 11 191 11 L 235 11 C 237.761719 11 240 13.238281 240 16 L 240 82 C 240 84.761719 237.761719 87 235 87 L 191 87 C 188.238281 87 186 84.761719 186 82 Z M 186 16 "/>
<g clip-path="url(#clip8)" clip-rule="nonzero">
<g clip-path="url(#clip9)" clip-rule="nonzero">
<path style="fill:none;stroke-width:1;stroke-linecap:butt;stroke-linejoin:miter;stroke:rgb(38.039216%,50.588235%,100%);stroke-opacity:1;stroke-miterlimit:10;" d="M 0 5 C 0 2.238281 2.238281 0 5 0 L 49 0 C 51.761719 0 54 2.238281 54 5 L 54 71 C 54 73.761719 51.761719 76 49 76 L 5 76 C 2.238281 76 0 73.761719 0 71 Z M 0 5 " transform="matrix(1,0,0,1,186,11)"/>
</g>
</g>
</g>
</svg>
