<?xml version="1.0" encoding="UTF-8"?>
<svg xmlns="http://www.w3.org/2000/svg" xmlns:xlink="http://www.w3.org/1999/xlink" width="128pt" height="96pt" viewBox="0 0 128 96" version="1.1">
<defs>
<clipPath id="clip1">
  <path d="M 45 35 L 89 35 L 89 96 L 45 96 Z M 45 35 "/>
</clipPath>
<clipPath id="clip2">
  <path d="M 46 36 L 88 36 L 88 96 L 46 96 Z M 46 36 "/>
</clipPath>
<clipPath id="clip3">
  <path d="M 46 41 C 46 38.238281 48.238281 36 51 36 L 83 36 C 85.761719 36 88 38.238281 88 41 L 88 100 C 88 102.761719 85.761719 105 83 105 L 51 105 C 48.238281 105 46 102.761719 46 100 Z M 46 41 "/>
</clipPath>
<clipPath id="clip4">
  <path d="M 45 0 L 89 0 L 89 71 L 45 71 Z M 45 0 "/>
</clipPath>
<clipPath id="clip5">
  <path d="M 46 1 L 88 1 L 88 70 L 46 70 Z M 46 1 "/>
</clipPath>
<clipPath id="clip6">
  <path d="M 46 6 C 46 3.238281 48.238281 1 51 1 L 83 1 C 85.761719 1 88 3.238281 88 6 L 88 65 C 88 67.761719 85.761719 70 83 70 L 51 70 C 48.238281 70 46 67.761719 46 65 Z M 46 6 "/>
</clipPath>
</defs>
<g id="surface2">
<path style="fill:none;stroke-width:1.5;stroke-linecap:butt;stroke-linejoin:miter;stroke:rgb(0%,0%,0%);stroke-opacity:0.266667;stroke-dasharray:10,4;stroke-dashoffset:1;stroke-miterlimit:10;" d="M 0.75 0.75 L 127.25 0.75 L 127.25 95.25 L 0.75 95.25 Z M 0.75 0.75 "/>
<path style="fill:none;stroke-width:1.5;stroke-linecap:butt;stroke-linejoin:miter;stroke:rgb(0%,0%,0%);stroke-opacity:0.2;stroke-dasharray:10,4;stroke-dashoffset:1;stroke-miterlimit:10;" d="M 10 10 L 118 10 L 118 86 L 10 86 Z M 10 10 "/>
<path style="fill:none;stroke-width:1.5;stroke-linecap:butt;stroke-linejoin:miter;stroke:rgb(0%,0%,0%);stroke-opacity:0.1;stroke-miterlimit:10;" d="M 45 35 L 45 0 "/>
<path style="fill:none;stroke-width:1.5;stroke-linecap:butt;stroke-linejoin:miter;stroke:rgb(0%,0%,0%);stroke-opacity:0.1;stroke-miterlimit:10;" d="M 85 35 L 85 0 M 45 65 L 45 67 "/>
<path style="fill:none;stroke-width:1.5;stroke-linecap:butt;stroke-linejoin:miter;stroke:rgb(0%,0%,0%);stroke-opacity:0.1;stroke-miterlimit:10;" d="M 85 65 L 85 67 "/>
<g clip-path="url(#clip1)" clip-rule="nonzero">
<path style="fill:none;stroke-width:1;stroke-linecap:butt;stroke-linejoin:miter;stroke:rgb(38.039216%,50.588235%,100%);stroke-opacity:1;stroke-miterlimit:10;" d="M 0 5 C 0 2.238281 2.238281 0 5 0 L 37 0 C 39.761719 0 42 2.238281 42 5 L 42 64 C 42 66.761719 39.761719 69 37 69 L 5 69 C 2.238281 69 0 66.761719 0 64 Z M 0 5 " transform="matrix(1,0,0,1,46,36)"/>
</g>
<path style=" stroke:none;fill-rule:nonzero;fill:rgb(38.039216%,50.588235%,100%);fill-opacity:0.490196;" d="M 46 41 C 46 38.238281 48.238281 36 51 36 L 83 36 C 85.761719 36 88 38.238281 88 41 L 88 100 C 88 102.761719 85.761719 105 83 105 L 51 105 C 48.238281 105 46 102.761719 46 100 Z M 46 41 "/>
<g clip-path="url(#clip2)" clip-rule="nonzero">
<g clip-path="url(#clip3)" clip-rule="nonzero">
<path style="fill:none;stroke-width:1;stroke-linecap:butt;stroke-linejoin:miter;stroke:rgb(38.039216%,50.588235%,100%);stroke-opacity:1;stroke-miterlimit:10;" d="M 0 5 C 0 2.238281 2.238281 0 5 0 L 37 0 C 39.761719 0 42 2.238281 42 5 L 42 64 C 42 66.761719 39.761719 69 37 69 L 5 69 C 2.238281 69 0 66.761719 0 64 Z M 0 5 " transform="matrix(1,0,0,1,46,36)"/>
</g>
</g>
<g clip-path="url(#clip4)" clip-rule="nonzero">
<path style="fill:none;stroke-width:1;stroke-linecap:butt;stroke-linejoin:miter;stroke:rgb(38.039216%,50.588235%,100%);stroke-opacity:1;stroke-miterlimit:10;" d="M 0 5 C 0 2.238281 2.238281 0 5 0 L 37 0 C 39.761719 0 42 2.238281 42 5 L 42 64 C 42 66.761719 39.761719 69 37 69 L 5 69 C 2.238281 69 0 66.761719 0 64 Z M 0 5 " transform="matrix(1,0,0,1,46,1)"/>
</g>
<path style=" stroke:none;fill-rule:nonzero;fill:rgb(38.039216%,50.588235%,100%);fill-opacity:0.490196;" d="M 46 6 C 46 3.238281 48.238281 1 51 1 L 83 1 C 85.761719 1 88 3.238281 88 6 L 88 65 C 88 67.761719 85.761719 70 83 70 L 51 70 C 48.238281 70 46 67.761719 46 65 Z M 46 6 "/>
<g clip-path="url(#clip5)" clip-rule="nonzero">
<g clip-path="url(#clip6)" clip-rule="nonzero">
<path style="fill:none;stroke-width:1;stroke-linecap:butt;stroke-linejoin:miter;stroke:rgb(38.039216%,50.588235%,100%);stroke-opacity:1;stroke-miterlimit:10;" d="M 0 5 C 0 2.238281 2.238281 0 5 0 L 37 0 C 39.761719 0 42 2.238281 42 5 L 42 64 C 42 66.761719 39.761719 69 37 69 L 5 69 C 2.238281 69 0 66.761719 0 64 Z M 0 5 " transform="matrix(1,0,0,1,46,1)"/>
</g>
</g>
</g>
</svg>
