<?xml version="1.0" encoding="UTF-8"?>
<svg xmlns="http://www.w3.org/2000/svg" xmlns:xlink="http://www.w3.org/1999/xlink" width="360pt" height="48pt" viewBox="0 0 360 48" version="1.1">
<g id="surface2">
<path style="fill:none;stroke-width:1.5;stroke-linecap:butt;stroke-linejoin:miter;stroke:rgb(0%,0%,0%);stroke-opacity:0.266667;stroke-dasharray:10,4;stroke-dashoffset:1;stroke-miterlimit:10;" d="M 0.75 0.75 L 63.25 0.75 L 63.25 47.25 L 0.75 47.25 Z M 0.75 0.75 "/>
<path style="fill:none;stroke-width:1.5;stroke-linecap:butt;stroke-linejoin:miter;stroke:rgb(0%,0%,0%);stroke-opacity:0.2;stroke-dasharray:10,4;stroke-dashoffset:1;stroke-miterlimit:10;" d="M 3 3 L 61 3 L 61 45 L 3 45 Z M 3 3 "/>
<path style="fill:none;stroke-width:1.5;stroke-linecap:butt;stroke-linejoin:miter;stroke:rgb(0%,0%,0%);stroke-opacity:0.266667;stroke-dasharray:10,4;stroke-dashoffset:1;stroke-miterlimit:10;" d="M 74.75 0.75 L 137.25 0.75 L 137.25 47.25 L 74.75 47.25 Z M 74.75 0.75 "/>
<path style="fill:none;stroke-width:1.5;stroke-linecap:butt;stroke-linejoin:miter;stroke:rgb(0%,0%,0%);stroke-opacity:0.2;stroke-dasharray:10,4;stroke-dashoffset:1;stroke-miterlimit:10;" d="M 77 3 L 135 3 L 135 45 L 77 45 Z M 77 3 "/>
<path style="fill:none;stroke-width:1.5;stroke-linecap:butt;stroke-linejoin:miter;stroke:rgb(0%,0%,0%);stroke-opacity:0.266667;stroke-dasharray:10,4;stroke-dashoffset:1;stroke-miterlimit:10;" d="M 148.75 0.75 L 211.25 0.75 L 211.25 47.25 L 148.75 47.25 Z M 148.75 0.75 "/>
<path style="fill:none;stroke-width:1.5;stroke-linecap:butt;stroke-linejoin:miter;stroke:rgb(0%,0%,0%);stroke-opacity:0.2;stroke-dasharray:10,4;stroke-dashoffset:1;stroke-miterlimit:10;" d="M 151 3 L 209 3 L 209 45 L 151 45 Z M 151 3 "/>
<path style="fill:none;stroke-width:1.5;stroke-linecap:butt;stroke-linejoin:miter;stroke:rgb(0%,0%,0%);stroke-opacity:0.266667;stroke-dasharray:10,4;stroke-dashoffset:1;stroke-miterlimit:10;" d="M 222.75 0.75 L 285.25 0.75 L 285.25 47.25 L 222.75 47.25 Z M 222.75 0.75 "/>
<path style="fill:none;stroke-width:1.5;stroke-linecap:butt;stroke-linejoin:miter;stroke:rgb(0%,0%,0%);stroke-opacity:0.2;stroke-dasharray:10,4;stroke-dashoffset:1;stroke-miterlimit:10;" d="M 225 3 L 283 3 L 283 45 L 225 45 Z M 225 3 "/>
<path style="fill:none;stroke-width:1.5;stroke-linecap:butt;stroke-linejoin:miter;stroke:rgb(0%,0%,0%);stroke-opacity:0.266667;stroke-dasharray:10,4;stroke-dashoffset:1;stroke-miterlimit:10;" d="M 296.75 0.75 L 359.25 0.75 L 359.25 47.25 L 296.75 47.25 Z M 296.75 0.75 "/>
<path style="fill:none;stroke-width:1.5;stroke-linecap:butt;stroke-linejoin:miter;stroke:rgb(0%,0%,0%);stroke-opacity:0.2;stroke-dasharray:10,4;stroke-dashoffset:1;stroke-miterlimit:10;" d="M 299 3 L 357 3 L 357 45 L 299 45 Z M 299 3 "/>
<path style="fill:none;stroke-width:1.5;stroke-linecap:butt;stroke-linejoin:miter;stroke:rgb(38.039216%,50.588235%,100%);stroke-opacity:1;stroke-miterlimit:10;" d="M 0 2 C 0 0.894531 0.894531 0 2 0 L 33 0 C 34.105469 0 35 0.894531 35 2 L 35 17 C 35 18.105469 34.105469 19 33 19 L 2 19 C 0.894531 19 0 18.105469 0 17 Z M 0 2 " transform="matrix(1,0,0,1,13.5,13.5)"/>
<path style=" stroke:none;fill-rule:nonzero;fill:rgb(38.039216%,50.588235%,100%);fill-opacity:0.490196;" d="M 13.5 15.5 C 13.5 14.394531 14.394531 13.5 15.5 13.5 L 46.5 13.5 C 47.605469 13.5 48.5 14.394531 48.5 15.5 L 48.5 30.5 C 48.5 31.605469 47.605469 32.5 46.5 32.5 L 15.5 32.5 C 14.394531 32.5 13.5 31.605469 13.5 30.5 Z M 13.5 15.5 "/>
<path style="fill:none;stroke-width:1.5;stroke-linecap:butt;stroke-linejoin:miter;stroke:rgb(38.039216%,50.588235%,100%);stroke-opacity:1;stroke-miterlimit:10;" d="M 0 2 C 0 0.894531 0.894531 0 2 0 L 54 0 C 55.105469 0 56 0.894531 56 2 L 56 38 C 56 39.105469 55.105469 40 54 40 L 2 40 C 0.894531 40 0 39.105469 0 38 Z M 0 2 " transform="matrix(1,0,0,1,77,3)"/>
<path style=" stroke:none;fill-rule:nonzero;fill:rgb(38.039216%,50.588235%,100%);fill-opacity:0.490196;" d="M 77 5 C 77 3.894531 77.894531 3 79 3 L 131 3 C 132.105469 3 133 3.894531 133 5 L 133 41 C 133 42.105469 132.105469 43 131 43 L 79 43 C 77.894531 43 77 42.105469 77 41 Z M 77 5 "/>
<path style="fill:none;stroke-width:1.5;stroke-linecap:butt;stroke-linejoin:miter;stroke:rgb(38.039216%,50.588235%,100%);stroke-opacity:1;stroke-miterlimit:10;" d="M 0 2 C 0 0.894531 0.894531 0 2 0 L 33 0 C 34.105469 0 35 0.894531 35 2 L 35 17 C 35 18.105469 34.105469 19 33 19 L 2 19 C 0.894531 19 0 18.105469 0 17 Z M 0 2 " transform="matrix(1,0,0,1,87.5,13.5)"/>
<path style=" stroke:none;fill-rule:nonzero;fill:rgb(38.039216%,50.588235%,100%);fill-opacity:0.490196;" d="M 87.5 15.5 C 87.5 14.394531 88.394531 13.5 89.5 13.5 L 120.5 13.5 C 121.605469 13.5 122.5 14.394531 122.5 15.5 L 122.5 30.5 C 122.5 31.605469 121.605469 32.5 120.5 32.5 L 89.5 32.5 C 88.394531 32.5 87.5 31.605469 87.5 30.5 Z M 87.5 15.5 "/>
<path style="fill:none;stroke-width:1.5;stroke-linecap:butt;stroke-linejoin:miter;stroke:rgb(38.039216%,50.588235%,100%);stroke-opacity:1;stroke-miterlimit:10;" d="M 0 2 C 0 0.894531 0.894531 0 2 0 L 54 0 C 55.105469 0 56 0.894531 56 2 L 56 17 C 56 18.105469 55.105469 19 54 19 L 2 19 C 0.894531 19 0 18.105469 0 17 Z M 0 2 " transform="matrix(1,0,0,1,151,3)"/>
<path style=" stroke:none;fill-rule:nonzero;fill:rgb(38.039216%,50.588235%,100%);fill-opacity:0.490196;" d="M 151 5 C 151 3.894531 151.894531 3 153 3 L 205 3 C 206.105469 3 207 3.894531 207 5 L 207 20 C 207 21.105469 206.105469 22 205 22 L 153 22 C 151.894531 22 151 21.105469 151 20 Z M 151 5 "/>
<path style="fill:none;stroke-width:1.5;stroke-linecap:butt;stroke-linejoin:miter;stroke:rgb(38.039216%,50.588235%,100%);stroke-opacity:1;stroke-miterlimit:10;" d="M 0 2 C 0 0.894531 0.894531 0 2 0 L 54 0 C 55.105469 0 56 0.894531 56 2 L 56 17 C 56 18.105469 55.105469 19 54 19 L 2 19 C 0.894531 19 0 18.105469 0 17 Z M 0 2 " transform="matrix(1,0,0,1,151,24)"/>
<path style=" stroke:none;fill-rule:nonzero;fill:rgb(38.039216%,50.588235%,100%);fill-opacity:0.490196;" d="M 151 26 C 151 24.894531 151.894531 24 153 24 L 205 24 C 206.105469 24 207 24.894531 207 26 L 207 41 C 207 42.105469 206.105469 43 205 43 L 153 43 C 151.894531 43 151 42.105469 151 41 Z M 151 26 "/>
<path style="fill:none;stroke-width:1.5;stroke-linecap:butt;stroke-linejoin:miter;stroke:rgb(38.039216%,50.588235%,100%);stroke-opacity:1;stroke-miterlimit:10;" d="M 0 2 C 0 0.894531 0.894531 0 2 0 L 33 0 C 34.105469 0 35 0.894531 35 2 L 35 17 C 35 18.105469 34.105469 19 33 19 L 2 19 C 0.894531 19 0 18.105469 0 17 Z M 0 2 " transform="matrix(1,0,0,1,161.5,13.5)"/>
<path style=" stroke:none;fill-rule:nonzero;fill:rgb(38.039216%,50.588235%,100%);fill-opacity:0.490196;" d="M 161.5 15.5 C 161.5 14.394531 162.394531 13.5 163.5 13.5 L 194.5 13.5 C 195.605469 13.5 196.5 14.394531 196.5 15.5 L 196.5 30.5 C 196.5 31.605469 195.605469 32.5 194.5 32.5 L 163.5 32.5 C 162.394531 32.5 161.5 31.605469 161.5 30.5 Z M 161.5 15.5 "/>
<path style="fill:none;stroke-width:1.5;stroke-linecap:butt;stroke-linejoin:miter;stroke:rgb(38.039216%,50.588235%,100%);stroke-opacity:1;stroke-miterlimit:10;" d="M 0 2 C 0 0.894531 0.894531 0 2 0 L 54 0 C 55.105469 0 56 0.894531 56 2 L 56 10 C 56 11.105469 55.105469 12 54 12 L 2 12 C 0.894531 12 0 11.105469 0 10 Z M 0 2 " transform="matrix(1,0,0,1,225,3)"/>
<path style=" stroke:none;fill-rule:nonzero;fill:rgb(38.039216%,50.588235%,100%);fill-opacity:0.490196;" d="M 225 5 C 225 3.894531 225.894531 3 227 3 L 279 3 C 280.105469 3 281 3.894531 281 5 L 281 13 C 281 14.105469 280.105469 15 279 15 L 227 15 C 225.894531 15 225 14.105469 225 13 Z M 225 5 "/>
<path style="fill:none;stroke-width:1.5;stroke-linecap:butt;stroke-linejoin:miter;stroke:rgb(38.039216%,50.588235%,100%);stroke-opacity:1;stroke-miterlimit:10;" d="M 0 2 C 0 0.894531 0.894531 0 2 0 L 54 0 C 55.105469 0 56 0.894531 56 2 L 56 10 C 56 11.105469 55.105469 12 54 12 L 2 12 C 0.894531 12 0 11.105469 0 10 Z M 0 2 " transform="matrix(1,0,0,1,225,17)"/>
<path style=" stroke:none;fill-rule:nonzero;fill:rgb(38.039216%,50.588235%,100%);fill-opacity:0.490196;" d="M 225 19 C 225 17.894531 225.894531 17 227 17 L 279 17 C 280.105469 17 281 17.894531 281 19 L 281 27 C 281 28.105469 280.105469 29 279 29 L 227 29 C 225.894531 29 225 28.105469 225 27 Z M 225 19 "/>
<path style="fill:none;stroke-width:1.5;stroke-linecap:butt;stroke-linejoin:miter;stroke:rgb(38.039216%,50.588235%,100%);stroke-opacity:1;stroke-miterlimit:10;" d="M 0 2 C 0 0.894531 0.894531 0 2 0 L 54 0 C 55.105469 0 56 0.894531 56 2 L 56 10 C 56 11.105469 55.105469 12 54 12 L 2 12 C 0.894531 12 0 11.105469 0 10 Z M 0 2 " transform="matrix(1,0,0,1,225,31)"/>
<path style=" stroke:none;fill-rule:nonzero;fill:rgb(38.039216%,50.588235%,100%);fill-opacity:0.490196;" d="M 225 33 C 225 31.894531 225.894531 31 227 31 L 279 31 C 280.105469 31 281 31.894531 281 33 L 281 41 C 281 42.105469 280.105469 43 279 43 L 227 43 C 225.894531 43 225 42.105469 225 41 Z M 225 33 "/>
<path style="fill:none;stroke-width:1.5;stroke-linecap:butt;stroke-linejoin:miter;stroke:rgb(38.039216%,50.588235%,100%);stroke-opacity:1;stroke-miterlimit:10;" d="M 0 2 C 0 0.894531 0.894531 0 2 0 L 33 0 C 34.105469 0 35 0.894531 35 2 L 35 17 C 35 18.105469 34.105469 19 33 19 L 2 19 C 0.894531 19 0 18.105469 0 17 Z M 0 2 " transform="matrix(1,0,0,1,235.5,13.5)"/>
<path style=" stroke:none;fill-rule:nonzero;fill:rgb(38.039216%,50.588235%,100%);fill-opacity:0.490196;" d="M 235.5 15.5 C 235.5 14.394531 236.394531 13.5 237.5 13.5 L 268.5 13.5 C 269.605469 13.5 270.5 14.394531 270.5 15.5 L 270.5 30.5 C 270.5 31.605469 269.605469 32.5 268.5 32.5 L 237.5 32.5 C 236.394531 32.5 235.5 31.605469 235.5 30.5 Z M 235.5 15.5 "/>
<path style="fill:none;stroke-width:1.5;stroke-linecap:butt;stroke-linejoin:miter;stroke:rgb(38.039216%,50.588235%,100%);stroke-opacity:1;stroke-miterlimit:10;" d="M 0 2 C 0 0.894531 0.894531 0 2 0 L 54 0 C 55.105469 0 56 0.894531 56 2 L 56 6 C 56 7.105469 55.105469 8 54 8 L 2 8 C 0.894531 8 0 7.105469 0 6 Z M 0 2 " transform="matrix(1,0,0,1,299,3)"/>
<path style=" stroke:none;fill-rule:nonzero;fill:rgb(38.039216%,50.588235%,100%);fill-opacity:0.490196;" d="M 299 5 C 299 3.894531 299.894531 3 301 3 L 353 3 C 354.105469 3 355 3.894531 355 5 L 355 9 C 355 10.105469 354.105469 11 353 11 L 301 11 C 299.894531 11 299 10.105469 299 9 Z M 299 5 "/>
<path style="fill:none;stroke-width:1.5;stroke-linecap:butt;stroke-linejoin:miter;stroke:rgb(38.039216%,50.588235%,100%);stroke-opacity:1;stroke-miterlimit:10;" d="M 0 2 C 0 0.894531 0.894531 0 2 0 L 54 0 C 55.105469 0 56 0.894531 56 2 L 56 6 C 56 7.105469 55.105469 8 54 8 L 2 8 C 0.894531 8 0 7.105469 0 6 Z M 0 2 " transform="matrix(1,0,0,1,299,13)"/>
<path style=" stroke:none;fill-rule:nonzero;fill:rgb(38.039216%,50.588235%,100%);fill-opacity:0.490196;" d="M 299 15 C 299 13.894531 299.894531 13 301 13 L 353 13 C 354.105469 13 355 13.894531 355 15 L 355 19 C 355 20.105469 354.105469 21 353 21 L 301 21 C 299.894531 21 299 20.105469 299 19 Z M 299 15 "/>
<path style="fill:none;stroke-width:1.5;stroke-linecap:butt;stroke-linejoin:miter;stroke:rgb(38.039216%,50.588235%,100%);stroke-opacity:1;stroke-miterlimit:10;" d="M 0 2 C 0 0.894531 0.894531 0 2 0 L 54 0 C 55.105469 0 56 0.894531 56 2 L 56 6 C 56 7.105469 55.105469 8 54 8 L 2 8 C 0.894531 8 0 7.105469 0 6 Z M 0 2 " transform="matrix(1,0,0,1,299,23)"/>
<path style=" stroke:none;fill-rule:nonzero;fill:rgb(38.039216%,50.588235%,100%);fill-opacity:0.490196;" d="M 299 25 C 299 23.894531 299.894531 23 301 23 L 353 23 C 354.105469 23 355 23.894531 355 25 L 355 29 C 355 30.105469 354.105469 31 353 31 L 301 31 C 299.894531 31 299 30.105469 299 29 Z M 299 25 "/>
<path style="fill:none;stroke-width:1.5;stroke-linecap:butt;stroke-linejoin:miter;stroke:rgb(38.039216%,50.588235%,100%);stroke-opacity:1;stroke-miterlimit:10;" d="M 0 2 C 0 0.894531 0.894531 0 2 0 L 54 0 C 55.105469 0 56 0.894531 56 2 L 56 6 C 56 7.105469 55.105469 8 54 8 L 2 8 C 0.894531 8 0 7.105469 0 6 Z M 0 2 " transform="matrix(1,0,0,1,299,33)"/>
<path style=" stroke:none;fill-rule:nonzero;fill:rgb(38.039216%,50.588235%,100%);fill-opacity:0.490196;" d="M 299 35 C 299 33.894531 299.894531 33 301 33 L 353 33 C 354.105469 33 355 33.894531 355 35 L 355 39 C 355 40.105469 354.105469 41 353 41 L 301 41 C 299.894531 41 299 40.105469 299 39 Z M 299 35 "/>
<path style="fill:none;stroke-width:1.5;stroke-linecap:butt;stroke-linejoin:miter;stroke:rgb(38.039216%,50.588235%,100%);stroke-opacity:1;stroke-miterlimit:10;" d="M 0 2 C 0 0.894531 0.894531 0 2 0 L 33 0 C 34.105469 0 35 0.894531 35 2 L 35 17 C 35 18.105469 34.105469 19 33 19 L 2 19 C 0.894531 19 0 18.105469 0 17 Z M 0 2 " transform="matrix(1,0,0,1,309.5,13.5)"/>
<path style=" stroke:none;fill-rule:nonzero;fill:rgb(38.039216%,50.588235%,100%);fill-opacity:0.490196;" d="M 309.5 15.5 C 309.5 14.394531 310.394531 13.5 311.5 13.5 L 342.5 13.5 C 343.605469 13.5 344.5 14.394531 344.5 15.5 L 344.5 30.5 C 344.5 31.605469 343.605469 32.5 342.5 32.5 L 311.5 32.5 C 310.394531 32.5 309.5 31.605469 309.5 30.5 Z M 309.5 15.5 "/>
</g>
</svg>
