<?xml version="1.0" encoding="UTF-8"?>
<svg xmlns="http://www.w3.org/2000/svg" xmlns:xlink="http://www.w3.org/1999/xlink" width="266pt" height="96pt" viewBox="0 0 266 96" version="1.1">
<defs>
<clipPath id="clip1">
  <path d="M 11 11 L 63 11 L 63 47 L 11 47 Z M 11 11 "/>
</clipPath>
<clipPath id="clip2">
  <path d="M 11 16 C 11 13.238281 13.238281 11 16 11 L 58 11 C 60.761719 11 63 13.238281 63 16 L 63 42 C 63 44.761719 60.761719 47 58 47 L 16 47 C 13.238281 47 11 44.761719 11 42 Z M 11 16 "/>
</clipPath>
<clipPath id="clip3">
  <path d="M 11 49 L 63 49 L 63 85 L 11 85 Z M 11 49 "/>
</clipPath>
<clipPath id="clip4">
  <path d="M 11 54 C 11 51.238281 13.238281 49 16 49 L 58 49 C 60.761719 49 63 51.238281 63 54 L 63 80 C 63 82.761719 60.761719 85 58 85 L 16 85 C 13.238281 85 11 82.761719 11 80 Z M 11 54 "/>
</clipPath>
<clipPath id="clip5">
  <path d="M 65 11 L 117 11 L 117 34 L 65 34 Z M 65 11 "/>
</clipPath>
<clipPath id="clip6">
  <path d="M 65 16 C 65 13.238281 67.238281 11 70 11 L 112 11 C 114.761719 11 117 13.238281 117 16 L 117 29 C 117 31.761719 114.761719 34 112 34 L 70 34 C 67.238281 34 65 31.761719 65 29 Z M 65 16 "/>
</clipPath>
<clipPath id="clip7">
  <path d="M 65 36 L 117 36 L 117 59 L 65 59 Z M 65 36 "/>
</clipPath>
<clipPath id="clip8">
  <path d="M 65 41 C 65 38.238281 67.238281 36 70 36 L 112 36 C 114.761719 36 117 38.238281 117 41 L 117 54 C 117 56.761719 114.761719 59 112 59 L 70 59 C 67.238281 59 65 56.761719 65 54 Z M 65 41 "/>
</clipPath>
<clipPath id="clip9">
  <path d="M 65 61 L 117 61 L 117 84 L 65 84 Z M 65 61 "/>
</clipPath>
<clipPath id="clip10">
  <path d="M 65 66 C 65 63.238281 67.238281 61 70 61 L 112 61 C 114.761719 61 117 63.238281 117 66 L 117 79 C 117 81.761719 114.761719 84 112 84 L 70 84 C 67.238281 84 65 81.761719 65 79 Z M 65 66 "/>
</clipPath>
<clipPath id="clip11">
  <path d="M 149 11 L 201 11 L 201 47 L 149 47 Z M 149 11 "/>
</clipPath>
<clipPath id="clip12">
  <path d="M 149 16 C 149 13.238281 151.238281 11 154 11 L 196 11 C 198.761719 11 201 13.238281 201 16 L 201 42 C 201 44.761719 198.761719 47 196 47 L 154 47 C 151.238281 47 149 44.761719 149 42 Z M 149 16 "/>
</clipPath>
<clipPath id="clip13">
  <path d="M 203 11 L 255 11 L 255 47 L 203 47 Z M 203 11 "/>
</clipPath>
<clipPath id="clip14">
  <path d="M 203 16 C 203 13.238281 205.238281 11 208 11 L 250 11 C 252.761719 11 255 13.238281 255 16 L 255 42 C 255 44.761719 252.761719 47 250 47 L 208 47 C 205.238281 47 203 44.761719 203 42 Z M 203 16 "/>
</clipPath>
<clipPath id="clip15">
  <path d="M 149 49 L 183 49 L 183 85 L 149 85 Z M 149 49 "/>
</clipPath>
<clipPath id="clip16">
  <path d="M 149 54 C 149 51.238281 151.238281 49 154 49 L 178 49 C 180.761719 49 183 51.238281 183 54 L 183 80 C 183 82.761719 180.761719 85 178 85 L 154 85 C 151.238281 85 149 82.761719 149 80 Z M 149 54 "/>
</clipPath>
<clipPath id="clip17">
  <path d="M 185 49 L 219 49 L 219 85 L 185 85 Z M 185 49 "/>
</clipPath>
<clipPath id="clip18">
  <path d="M 185 54 C 185 51.238281 187.238281 49 190 49 L 214 49 C 216.761719 49 219 51.238281 219 54 L 219 80 C 219 82.761719 216.761719 85 214 85 L 190 85 C 187.238281 85 185 82.761719 185 80 Z M 185 54 "/>
</clipPath>
<clipPath id="clip19">
  <path d="M 221 49 L 255 49 L 255 85 L 221 85 Z M 221 49 "/>
</clipPath>
<clipPath id="clip20">
  <path d="M 221 54 C 221 51.238281 223.238281 49 226 49 L 250 49 C 252.761719 49 255 51.238281 255 54 L 255 80 C 255 82.761719 252.761719 85 250 85 L 226 85 C 223.238281 85 221 82.761719 221 80 Z M 221 54 "/>
</clipPath>
</defs>
<g id="surface2">
<path style="fill:none;stroke-width:1.5;stroke-linecap:butt;stroke-linejoin:miter;stroke:rgb(0%,0%,0%);stroke-opacity:0.266667;stroke-dasharray:10,4;stroke-dashoffset:1;stroke-miterlimit:10;" d="M 0.75 0.75 L 127.25 0.75 L 127.25 95.25 L 0.75 95.25 Z M 0.75 0.75 "/>
<path style="fill:none;stroke-width:1.5;stroke-linecap:butt;stroke-linejoin:miter;stroke:rgb(0%,0%,0%);stroke-opacity:0.2;stroke-dasharray:10,4;stroke-dashoffset:1;stroke-miterlimit:10;" d="M 10 10 L 118 10 L 118 86 L 10 86 Z M 10 10 "/>
<path style="fill:none;stroke-width:1.5;stroke-linecap:butt;stroke-linejoin:miter;stroke:rgb(0%,0%,0%);stroke-opacity:0.266667;stroke-dasharray:10,4;stroke-dashoffset:1;stroke-miterlimit:10;" d="M 138.75 0.75 L 265.25 0.75 L 265.25 95.25 L 138.75 95.25 Z M 138.75 0.75 "/>
<path style="fill:none;stroke-width:1.5;stroke-linecap:butt;stroke-linejoin:miter;stroke:rgb(0%,0%,0%);stroke-opacity:0.2;stroke-dasharray:10,4;stroke-dashoffset:1;stroke-miterlimit:10;" d="M 148 10 L 256 10 L 256 86 L 148 86 Z M 148 10 "/>
<g clip-path="url(#clip1)" clip-rule="nonzero">
<g clip-path="url(#clip2)" clip-rule="nonzero">
<rect x="0" y="0" width="266" height="96" style="fill:rgb(38.039216%,50.588235%,100%);fill-opacity:0.490196;stroke:none;"/>
<path style="fill:none;stroke-width:2;stroke-linecap:butt;stroke-linejoin:miter;stroke:rgb(38.039216%,50.588235%,100%);stroke-opacity:1;stroke-miterlimit:10;" d="M 1 6 C 1 3.238281 3.238281 1 6 1 L 48 1 C 50.761719 1 53 3.238281 53 6 L 53 32 C 53 34.761719 50.761719 37 48 37 L 6 37 C 3.238281 37 1 34.761719 1 32 Z M 1 6 " transform="matrix(1,0,0,1,10,10)"/>
</g>
</g>
<g clip-path="url(#clip3)" clip-rule="nonzero">
<g clip-path="url(#clip4)" clip-rule="nonzero">
<rect x="0" y="0" width="266" height="96" style="fill:rgb(38.039216%,50.588235%,100%);fill-opacity:0.490196;stroke:none;"/>
<path style="fill:none;stroke-width:2;stroke-linecap:butt;stroke-linejoin:miter;stroke:rgb(38.039216%,50.588235%,100%);stroke-opacity:1;stroke-miterlimit:10;" d="M 1 6 C 1 3.238281 3.238281 1 6 1 L 48 1 C 50.761719 1 53 3.238281 53 6 L 53 32 C 53 34.761719 50.761719 37 48 37 L 6 37 C 3.238281 37 1 34.761719 1 32 Z M 1 6 " transform="matrix(1,0,0,1,10,48)"/>
</g>
</g>
<g clip-path="url(#clip5)" clip-rule="nonzero">
<g clip-path="url(#clip6)" clip-rule="nonzero">
<rect x="0" y="0" width="266" height="96" style="fill:rgb(38.039216%,50.588235%,100%);fill-opacity:0.490196;stroke:none;"/>
<path style="fill:none;stroke-width:2;stroke-linecap:butt;stroke-linejoin:miter;stroke:rgb(38.039216%,50.588235%,100%);stroke-opacity:1;stroke-miterlimit:10;" d="M 1 6 C 1 3.238281 3.238281 1 6 1 L 48 1 C 50.761719 1 53 3.238281 53 6 L 53 19 C 53 21.761719 50.761719 24 48 24 L 6 24 C 3.238281 24 1 21.761719 1 19 Z M 1 6 " transform="matrix(1,0,0,1,64,10)"/>
</g>
</g>
<g clip-path="url(#clip7)" clip-rule="nonzero">
<g clip-path="url(#clip8)" clip-rule="nonzero">
<rect x="0" y="0" width="266" height="96" style="fill:rgb(38.039216%,50.588235%,100%);fill-opacity:0.490196;stroke:none;"/>
<path style="fill:none;stroke-width:2;stroke-linecap:butt;stroke-linejoin:miter;stroke:rgb(38.039216%,50.588235%,100%);stroke-opacity:1;stroke-miterlimit:10;" d="M 1 6 C 1 3.238281 3.238281 1 6 1 L 48 1 C 50.761719 1 53 3.238281 53 6 L 53 19 C 53 21.761719 50.761719 24 48 24 L 6 24 C 3.238281 24 1 21.761719 1 19 Z M 1 6 " transform="matrix(1,0,0,1,64,35)"/>
</g>
</g>
<g clip-path="url(#clip9)" clip-rule="nonzero">
<g clip-path="url(#clip10)" clip-rule="nonzero">
<rect x="0" y="0" width="266" height="96" style="fill:rgb(38.039216%,50.588235%,100%);fill-opacity:0.490196;stroke:none;"/>
<path style="fill:none;stroke-width:2;stroke-linecap:butt;stroke-linejoin:miter;stroke:rgb(38.039216%,50.588235%,100%);stroke-opacity:1;stroke-miterlimit:10;" d="M 1 6 C 1 3.238281 3.238281 1 6 1 L 48 1 C 50.761719 1 53 3.238281 53 6 L 53 19 C 53 21.761719 50.761719 24 48 24 L 6 24 C 3.238281 24 1 21.761719 1 19 Z M 1 6 " transform="matrix(1,0,0,1,64,60)"/>
</g>
</g>
<g clip-path="url(#clip11)" clip-rule="nonzero">
<g clip-path="url(#clip12)" clip-rule="nonzero">
<rect x="0" y="0" width="266" height="96" style="fill:rgb(38.039216%,50.588235%,100%);fill-opacity:0.490196;stroke:none;"/>
<path style="fill:none;stroke-width:2;stroke-linecap:butt;stroke-linejoin:miter;stroke:rgb(38.039216%,50.588235%,100%);stroke-opacity:1;stroke-miterlimit:10;" d="M 1 6 C 1 3.238281 3.238281 1 6 1 L 48 1 C 50.761719 1 53 3.238281 53 6 L 53 32 C 53 34.761719 50.761719 37 48 37 L 6 37 C 3.238281 37 1 34.761719 1 32 Z M 1 6 " transform="matrix(1,0,0,1,148,10)"/>
</g>
</g>
<g clip-path="url(#clip13)" clip-rule="nonzero">
<g clip-path="url(#clip14)" clip-rule="nonzero">
<rect x="0" y="0" width="266" height="96" style="fill:rgb(38.039216%,50.588235%,100%);fill-opacity:0.490196;stroke:none;"/>
<path style="fill:none;stroke-width:2;stroke-linecap:butt;stroke-linejoin:miter;stroke:rgb(38.039216%,50.588235%,100%);stroke-opacity:1;stroke-miterlimit:10;" d="M 1 6 C 1 3.238281 3.238281 1 6 1 L 48 1 C 50.761719 1 53 3.238281 53 6 L 53 32 C 53 34.761719 50.761719 37 48 37 L 6 37 C 3.238281 37 1 34.761719 1 32 Z M 1 6 " transform="matrix(1,0,0,1,202,10)"/>
</g>
</g>
<g clip-path="url(#clip15)" clip-rule="nonzero">
<g clip-path="url(#clip16)" clip-rule="nonzero">
<rect x="0" y="0" width="266" height="96" style="fill:rgb(38.039216%,50.588235%,100%);fill-opacity:0.490196;stroke:none;"/>
<path style="fill:none;stroke-width:2;stroke-linecap:butt;stroke-linejoin:miter;stroke:rgb(38.039216%,50.588235%,100%);stroke-opacity:1;stroke-miterlimit:10;" d="M 1 6 C 1 3.238281 3.238281 1 6 1 L 30 1 C 32.761719 1 35 3.238281 35 6 L 35 32 C 35 34.761719 32.761719 37 30 37 L 6 37 C 3.238281 37 1 34.761719 1 32 Z M 1 6 " transform="matrix(1,0,0,1,148,48)"/>
</g>
</g>
<g clip-path="url(#clip17)" clip-rule="nonzero">
<g clip-path="url(#clip18)" clip-rule="nonzero">
<rect x="0" y="0" width="266" height="96" style="fill:rgb(38.039216%,50.588235%,100%);fill-opacity:0.490196;stroke:none;"/>
<path style="fill:none;stroke-width:2;stroke-linecap:butt;stroke-linejoin:miter;stroke:rgb(38.039216%,50.588235%,100%);stroke-opacity:1;stroke-miterlimit:10;" d="M 1 6 C 1 3.238281 3.238281 1 6 1 L 30 1 C 32.761719 1 35 3.238281 35 6 L 35 32 C 35 34.761719 32.761719 37 30 37 L 6 37 C 3.238281 37 1 34.761719 1 32 Z M 1 6 " transform="matrix(1,0,0,1,184,48)"/>
</g>
</g>
<g clip-path="url(#clip19)" clip-rule="nonzero">
<g clip-path="url(#clip20)" clip-rule="nonzero">
<rect x="0" y="0" width="266" height="96" style="fill:rgb(38.039216%,50.588235%,100%);fill-opacity:0.490196;stroke:none;"/>
<path style="fill:none;stroke-width:2;stroke-linecap:butt;stroke-linejoin:miter;stroke:rgb(38.039216%,50.588235%,100%);stroke-opacity:1;stroke-miterlimit:10;" d="M 1 6 C 1 3.238281 3.238281 1 6 1 L 30 1 C 32.761719 1 35 3.238281 35 6 L 35 32 C 35 34.761719 32.761719 37 30 37 L 6 37 C 3.238281 37 1 34.761719 1 32 Z M 1 6 " transform="matrix(1,0,0,1,220,48)"/>
</g>
</g>
</g>
</svg>
