<?xml version="1.0" encoding="UTF-8"?>
<svg xmlns="http://www.w3.org/2000/svg" xmlns:xlink="http://www.w3.org/1999/xlink" width="542pt" height="96pt" viewBox="0 0 542 96" version="1.1">
<g id="surface2">
<path style="fill:none;stroke-width:1.5;stroke-linecap:butt;stroke-linejoin:miter;stroke:rgb(0%,0%,0%);stroke-opacity:0.266667;stroke-dasharray:10,4;stroke-dashoffset:1;stroke-miterlimit:10;" d="M 0.75 0.75 L 127.25 0.75 L 127.25 95.25 L 0.75 95.25 Z M 0.75 0.75 "/>
<path style="fill:none;stroke-width:1.5;stroke-linecap:butt;stroke-linejoin:miter;stroke:rgb(0%,0%,0%);stroke-opacity:0.2;stroke-dasharray:10,4;stroke-dashoffset:1;stroke-miterlimit:10;" d="M 10 10 L 118 10 L 118 86 L 10 86 Z M 10 10 "/>
<path style="fill:none;stroke-width:1.5;stroke-linecap:butt;stroke-linejoin:miter;stroke:rgb(0%,0%,0%);stroke-opacity:0.266667;stroke-dasharray:10,4;stroke-dashoffset:1;stroke-miterlimit:10;" d="M 138.75 0.75 L 265.25 0.75 L 265.25 95.25 L 138.75 95.25 Z M 138.75 0.75 "/>
<path style="fill:none;stroke-width:1.5;stroke-linecap:butt;stroke-linejoin:miter;stroke:rgb(0%,0%,0%);stroke-opacity:0.2;stroke-dasharray:10,4;stroke-dashoffset:1;stroke-miterlimit:10;" d="M 148 10 L 256 10 L 256 86 L 148 86 Z M 148 10 "/>
<path style="fill:none;stroke-width:1.5;stroke-linecap:butt;stroke-linejoin:miter;stroke:rgb(0%,0%,0%);stroke-opacity:0.266667;stroke-dasharray:10,4;stroke-dashoffset:1;stroke-miterlimit:10;" d="M 276.75 0.75 L 403.25 0.75 L 403.25 95.25 L 276.75 95.25 Z M 276.75 0.75 "/>
<path style="fill:none;stroke-width:1.5;stroke-linecap:butt;stroke-linejoin:miter;stroke:rgb(0%,0%,0%);stroke-opacity:0.2;stroke-dasharray:10,4;stroke-dashoffset:1;stroke-miterlimit:10;" d="M 286 10 L 394 10 L 394 86 L 286 86 Z M 286 10 "/>
<path style="fill:none;stroke-width:1.5;stroke-linecap:butt;stroke-linejoin:miter;stroke:rgb(0%,0%,0%);stroke-opacity:0.266667;stroke-dasharray:10,4;stroke-dashoffset:1;stroke-miterlimit:10;" d="M 414.75 0.75 L 541.25 0.75 L 541.25 95.25 L 414.75 95.25 Z M 414.75 0.75 "/>
<path style="fill:none;stroke-width:1.5;stroke-linecap:butt;stroke-linejoin:miter;stroke:rgb(0%,0%,0%);stroke-opacity:0.2;stroke-dasharray:10,4;stroke-dashoffset:1;stroke-miterlimit:10;" d="M 424 10 L 532 10 L 532 86 L 424 86 Z M 424 10 "/>
<path style="fill:none;stroke-width:1.5;stroke-linecap:butt;stroke-linejoin:miter;stroke:rgb(38.039216%,50.588235%,100%);stroke-opacity:1;stroke-miterlimit:10;" d="M 0 5 C 0 2.238281 2.238281 0 5 0 L 47 0 C 49.761719 0 52 2.238281 52 5 L 52 12 C 52 14.761719 49.761719 17 47 17 L 5 17 C 2.238281 17 0 14.761719 0 12 Z M 0 5 " transform="matrix(1,0,0,1,64,67)"/>
<path style=" stroke:none;fill-rule:nonzero;fill:rgb(38.039216%,50.588235%,100%);fill-opacity:0.490196;" d="M 64 72 C 64 69.238281 66.238281 67 69 67 L 111 67 C 113.761719 67 116 69.238281 116 72 L 116 79 C 116 81.761719 113.761719 84 111 84 L 69 84 C 66.238281 84 64 81.761719 64 79 Z M 64 72 "/>
<path style="fill:none;stroke-width:1.5;stroke-linecap:butt;stroke-linejoin:miter;stroke:rgb(38.039216%,50.588235%,100%);stroke-opacity:1;stroke-miterlimit:10;" d="M 0 5 C 0 2.238281 2.238281 0 5 0 L 47 0 C 49.761719 0 52 2.238281 52 5 L 52 12 C 52 14.761719 49.761719 17 47 17 L 5 17 C 2.238281 17 0 14.761719 0 12 Z M 0 5 " transform="matrix(1,0,0,1,64,48)"/>
<path style=" stroke:none;fill-rule:nonzero;fill:rgb(38.039216%,50.588235%,100%);fill-opacity:0.490196;" d="M 64 53 C 64 50.238281 66.238281 48 69 48 L 111 48 C 113.761719 48 116 50.238281 116 53 L 116 60 C 116 62.761719 113.761719 65 111 65 L 69 65 C 66.238281 65 64 62.761719 64 60 Z M 64 53 "/>
<path style="fill:none;stroke-width:1.5;stroke-linecap:butt;stroke-linejoin:miter;stroke:rgb(38.039216%,50.588235%,100%);stroke-opacity:1;stroke-miterlimit:10;" d="M 0 5 C 0 2.238281 2.238281 0 5 0 L 47 0 C 49.761719 0 52 2.238281 52 5 L 52 12 C 52 14.761719 49.761719 17 47 17 L 5 17 C 2.238281 17 0 14.761719 0 12 Z M 0 5 " transform="matrix(1,0,0,1,64,29)"/>
<path style=" stroke:none;fill-rule:nonzero;fill:rgb(38.039216%,50.588235%,100%);fill-opacity:0.490196;" d="M 64 34 C 64 31.238281 66.238281 29 69 29 L 111 29 C 113.761719 29 116 31.238281 116 34 L 116 41 C 116 43.761719 113.761719 46 111 46 L 69 46 C 66.238281 46 64 43.761719 64 41 Z M 64 34 "/>
<path style="fill:none;stroke-width:1.5;stroke-linecap:butt;stroke-linejoin:miter;stroke:rgb(38.039216%,50.588235%,100%);stroke-opacity:1;stroke-miterlimit:10;" d="M 0 5 C 0 2.238281 2.238281 0 5 0 L 47 0 C 49.761719 0 52 2.238281 52 5 L 52 12 C 52 14.761719 49.761719 17 47 17 L 5 17 C 2.238281 17 0 14.761719 0 12 Z M 0 5 " transform="matrix(1,0,0,1,64,10)"/>
<path style=" stroke:none;fill-rule:nonzero;fill:rgb(38.039216%,50.588235%,100%);fill-opacity:0.490196;" d="M 64 15 C 64 12.238281 66.238281 10 69 10 L 111 10 C 113.761719 10 116 12.238281 116 15 L 116 22 C 116 24.761719 113.761719 27 111 27 L 69 27 C 66.238281 27 64 24.761719 64 22 Z M 64 15 "/>
<path style="fill:none;stroke-width:1.5;stroke-linecap:butt;stroke-linejoin:miter;stroke:rgb(38.039216%,50.588235%,100%);stroke-opacity:1;stroke-miterlimit:10;" d="M 0 5 C 0 2.238281 2.238281 0 5 0 L 47 0 C 49.761719 0 52 2.238281 52 5 L 52 69 C 52 71.761719 49.761719 74 47 74 L 5 74 C 2.238281 74 0 71.761719 0 69 Z M 0 5 " transform="matrix(1,0,0,1,10,10)"/>
<path style=" stroke:none;fill-rule:nonzero;fill:rgb(38.039216%,50.588235%,100%);fill-opacity:0.490196;" d="M 10 15 C 10 12.238281 12.238281 10 15 10 L 57 10 C 59.761719 10 62 12.238281 62 15 L 62 79 C 62 81.761719 59.761719 84 57 84 L 15 84 C 12.238281 84 10 81.761719 10 79 Z M 10 15 "/>
<path style="fill:none;stroke-width:1.5;stroke-linecap:butt;stroke-linejoin:miter;stroke:rgb(38.039216%,50.588235%,100%);stroke-opacity:1;stroke-miterlimit:10;" d="M 0 5 C 0 2.238281 2.238281 0 5 0 L 47 0 C 49.761719 0 52 2.238281 52 5 L 52 18 C 52 20.761719 49.761719 23 47 23 L 5 23 C 2.238281 23 0 20.761719 0 18 Z M 0 5 " transform="matrix(1,0,0,1,202,60)"/>
<path style=" stroke:none;fill-rule:nonzero;fill:rgb(38.039216%,50.588235%,100%);fill-opacity:0.490196;" d="M 202 65 C 202 62.238281 204.238281 60 207 60 L 249 60 C 251.761719 60 254 62.238281 254 65 L 254 78 C 254 80.761719 251.761719 83 249 83 L 207 83 C 204.238281 83 202 80.761719 202 78 Z M 202 65 "/>
<path style="fill:none;stroke-width:1.5;stroke-linecap:butt;stroke-linejoin:miter;stroke:rgb(38.039216%,50.588235%,100%);stroke-opacity:1;stroke-miterlimit:10;" d="M 0 5 C 0 2.238281 2.238281 0 5 0 L 47 0 C 49.761719 0 52 2.238281 52 5 L 52 31 C 52 33.761719 49.761719 36 47 36 L 5 36 C 2.238281 36 0 33.761719 0 31 Z M 0 5 " transform="matrix(1,0,0,1,148,48)"/>
<path style=" stroke:none;fill-rule:nonzero;fill:rgb(38.039216%,50.588235%,100%);fill-opacity:0.490196;" d="M 148 53 C 148 50.238281 150.238281 48 153 48 L 195 48 C 197.761719 48 200 50.238281 200 53 L 200 79 C 200 81.761719 197.761719 84 195 84 L 153 84 C 150.238281 84 148 81.761719 148 79 Z M 148 53 "/>
<path style="fill:none;stroke-width:1.5;stroke-linecap:butt;stroke-linejoin:miter;stroke:rgb(38.039216%,50.588235%,100%);stroke-opacity:1;stroke-miterlimit:10;" d="M 0 5 C 0 2.238281 2.238281 0 5 0 L 47 0 C 49.761719 0 52 2.238281 52 5 L 52 18 C 52 20.761719 49.761719 23 47 23 L 5 23 C 2.238281 23 0 20.761719 0 18 Z M 0 5 " transform="matrix(1,0,0,1,202,35)"/>
<path style=" stroke:none;fill-rule:nonzero;fill:rgb(38.039216%,50.588235%,100%);fill-opacity:0.490196;" d="M 202 40 C 202 37.238281 204.238281 35 207 35 L 249 35 C 251.761719 35 254 37.238281 254 40 L 254 53 C 254 55.761719 251.761719 58 249 58 L 207 58 C 204.238281 58 202 55.761719 202 53 Z M 202 40 "/>
<path style="fill:none;stroke-width:1.5;stroke-linecap:butt;stroke-linejoin:miter;stroke:rgb(38.039216%,50.588235%,100%);stroke-opacity:1;stroke-miterlimit:10;" d="M 0 5 C 0 2.238281 2.238281 0 5 0 L 47 0 C 49.761719 0 52 2.238281 52 5 L 52 18 C 52 20.761719 49.761719 23 47 23 L 5 23 C 2.238281 23 0 20.761719 0 18 Z M 0 5 " transform="matrix(1,0,0,1,202,10)"/>
<path style=" stroke:none;fill-rule:nonzero;fill:rgb(38.039216%,50.588235%,100%);fill-opacity:0.490196;" d="M 202 15 C 202 12.238281 204.238281 10 207 10 L 249 10 C 251.761719 10 254 12.238281 254 15 L 254 28 C 254 30.761719 251.761719 33 249 33 L 207 33 C 204.238281 33 202 30.761719 202 28 Z M 202 15 "/>
<path style="fill:none;stroke-width:1.5;stroke-linecap:butt;stroke-linejoin:miter;stroke:rgb(38.039216%,50.588235%,100%);stroke-opacity:1;stroke-miterlimit:10;" d="M 0 5 C 0 2.238281 2.238281 0 5 0 L 47 0 C 49.761719 0 52 2.238281 52 5 L 52 31 C 52 33.761719 49.761719 36 47 36 L 5 36 C 2.238281 36 0 33.761719 0 31 Z M 0 5 " transform="matrix(1,0,0,1,148,10)"/>
<path style=" stroke:none;fill-rule:nonzero;fill:rgb(38.039216%,50.588235%,100%);fill-opacity:0.490196;" d="M 148 15 C 148 12.238281 150.238281 10 153 10 L 195 10 C 197.761719 10 200 12.238281 200 15 L 200 41 C 200 43.761719 197.761719 46 195 46 L 153 46 C 150.238281 46 148 43.761719 148 41 Z M 148 15 "/>
<path style="fill:none;stroke-width:1.5;stroke-linecap:butt;stroke-linejoin:miter;stroke:rgb(38.039216%,50.588235%,100%);stroke-opacity:1;stroke-miterlimit:10;" d="M 0 5 C 0 2.238281 2.238281 0 5 0 L 47 0 C 49.761719 0 52 2.238281 52 5 L 52 31 C 52 33.761719 49.761719 36 47 36 L 5 36 C 2.238281 36 0 33.761719 0 31 Z M 0 5 " transform="matrix(1,0,0,1,340,48)"/>
<path style=" stroke:none;fill-rule:nonzero;fill:rgb(38.039216%,50.588235%,100%);fill-opacity:0.490196;" d="M 340 53 C 340 50.238281 342.238281 48 345 48 L 387 48 C 389.761719 48 392 50.238281 392 53 L 392 79 C 392 81.761719 389.761719 84 387 84 L 345 84 C 342.238281 84 340 81.761719 340 79 Z M 340 53 "/>
<path style="fill:none;stroke-width:1.5;stroke-linecap:butt;stroke-linejoin:miter;stroke:rgb(38.039216%,50.588235%,100%);stroke-opacity:1;stroke-miterlimit:10;" d="M 0 5 C 0 2.238281 2.238281 0 5 0 L 47 0 C 49.761719 0 52 2.238281 52 5 L 52 18 C 52 20.761719 49.761719 23 47 23 L 5 23 C 2.238281 23 0 20.761719 0 18 Z M 0 5 " transform="matrix(1,0,0,1,286,35)"/>
<path style=" stroke:none;fill-rule:nonzero;fill:rgb(38.039216%,50.588235%,100%);fill-opacity:0.490196;" d="M 286 40 C 286 37.238281 288.238281 35 291 35 L 333 35 C 335.761719 35 338 37.238281 338 40 L 338 53 C 338 55.761719 335.761719 58 333 58 L 291 58 C 288.238281 58 286 55.761719 286 53 Z M 286 40 "/>
<path style="fill:none;stroke-width:1.5;stroke-linecap:butt;stroke-linejoin:miter;stroke:rgb(38.039216%,50.588235%,100%);stroke-opacity:1;stroke-miterlimit:10;" d="M 0 5 C 0 2.238281 2.238281 0 5 0 L 47 0 C 49.761719 0 52 2.238281 52 5 L 52 18 C 52 20.761719 49.761719 23 47 23 L 5 23 C 2.238281 23 0 20.761719 0 18 Z M 0 5 " transform="matrix(1,0,0,1,286,60)"/>
<path style=" stroke:none;fill-rule:nonzero;fill:rgb(38.039216%,50.588235%,100%);fill-opacity:0.490196;" d="M 286 65 C 286 62.238281 288.238281 60 291 60 L 333 60 C 335.761719 60 338 62.238281 338 65 L 338 78 C 338 80.761719 335.761719 83 333 83 L 291 83 C 288.238281 83 286 80.761719 286 78 Z M 286 65 "/>
<path style="fill:none;stroke-width:1.5;stroke-linecap:butt;stroke-linejoin:miter;stroke:rgb(38.039216%,50.588235%,100%);stroke-opacity:1;stroke-miterlimit:10;" d="M 0 5 C 0 2.238281 2.238281 0 5 0 L 47 0 C 49.761719 0 52 2.238281 52 5 L 52 31 C 52 33.761719 49.761719 36 47 36 L 5 36 C 2.238281 36 0 33.761719 0 31 Z M 0 5 " transform="matrix(1,0,0,1,340,10)"/>
<path style=" stroke:none;fill-rule:nonzero;fill:rgb(38.039216%,50.588235%,100%);fill-opacity:0.490196;" d="M 340 15 C 340 12.238281 342.238281 10 345 10 L 387 10 C 389.761719 10 392 12.238281 392 15 L 392 41 C 392 43.761719 389.761719 46 387 46 L 345 46 C 342.238281 46 340 43.761719 340 41 Z M 340 15 "/>
<path style="fill:none;stroke-width:1.5;stroke-linecap:butt;stroke-linejoin:miter;stroke:rgb(38.039216%,50.588235%,100%);stroke-opacity:1;stroke-miterlimit:10;" d="M 0 5 C 0 2.238281 2.238281 0 5 0 L 47 0 C 49.761719 0 52 2.238281 52 5 L 52 18 C 52 20.761719 49.761719 23 47 23 L 5 23 C 2.238281 23 0 20.761719 0 18 Z M 0 5 " transform="matrix(1,0,0,1,286,10)"/>
<path style=" stroke:none;fill-rule:nonzero;fill:rgb(38.039216%,50.588235%,100%);fill-opacity:0.490196;" d="M 286 15 C 286 12.238281 288.238281 10 291 10 L 333 10 C 335.761719 10 338 12.238281 338 15 L 338 28 C 338 30.761719 335.761719 33 333 33 L 291 33 C 288.238281 33 286 30.761719 286 28 Z M 286 15 "/>
<path style="fill:none;stroke-width:1.5;stroke-linecap:butt;stroke-linejoin:miter;stroke:rgb(38.039216%,50.588235%,100%);stroke-opacity:1;stroke-miterlimit:10;" d="M 0 5 C 0 2.238281 2.238281 0 5 0 L 47 0 C 49.761719 0 52 2.238281 52 5 L 52 69 C 52 71.761719 49.761719 74 47 74 L 5 74 C 2.238281 74 0 71.761719 0 69 Z M 0 5 " transform="matrix(1,0,0,1,478,10)"/>
<path style=" stroke:none;fill-rule:nonzero;fill:rgb(38.039216%,50.588235%,100%);fill-opacity:0.490196;" d="M 478 15 C 478 12.238281 480.238281 10 483 10 L 525 10 C 527.761719 10 530 12.238281 530 15 L 530 79 C 530 81.761719 527.761719 84 525 84 L 483 84 C 480.238281 84 478 81.761719 478 79 Z M 478 15 "/>
<path style="fill:none;stroke-width:1.5;stroke-linecap:butt;stroke-linejoin:miter;stroke:rgb(38.039216%,50.588235%,100%);stroke-opacity:1;stroke-miterlimit:10;" d="M 0 5 C 0 2.238281 2.238281 0 5 0 L 47 0 C 49.761719 0 52 2.238281 52 5 L 52 12 C 52 14.761719 49.761719 17 47 17 L 5 17 C 2.238281 17 0 14.761719 0 12 Z M 0 5 " transform="matrix(1,0,0,1,424,29)"/>
<path style=" stroke:none;fill-rule:nonzero;fill:rgb(38.039216%,50.588235%,100%);fill-opacity:0.490196;" d="M 424 34 C 424 31.238281 426.238281 29 429 29 L 471 29 C 473.761719 29 476 31.238281 476 34 L 476 41 C 476 43.761719 473.761719 46 471 46 L 429 46 C 426.238281 46 424 43.761719 424 41 Z M 424 34 "/>
<path style="fill:none;stroke-width:1.5;stroke-linecap:butt;stroke-linejoin:miter;stroke:rgb(38.039216%,50.588235%,100%);stroke-opacity:1;stroke-miterlimit:10;" d="M 0 5 C 0 2.238281 2.238281 0 5 0 L 47 0 C 49.761719 0 52 2.238281 52 5 L 52 12 C 52 14.761719 49.761719 17 47 17 L 5 17 C 2.238281 17 0 14.761719 0 12 Z M 0 5 " transform="matrix(1,0,0,1,424,48)"/>
<path style=" stroke:none;fill-rule:nonzero;fill:rgb(38.039216%,50.588235%,100%);fill-opacity:0.490196;" d="M 424 53 C 424 50.238281 426.238281 48 429 48 L 471 48 C 473.761719 48 476 50.238281 476 53 L 476 60 C 476 62.761719 473.761719 65 471 65 L 429 65 C 426.238281 65 424 62.761719 424 60 Z M 424 53 "/>
<path style="fill:none;stroke-width:1.5;stroke-linecap:butt;stroke-linejoin:miter;stroke:rgb(38.039216%,50.588235%,100%);stroke-opacity:1;stroke-miterlimit:10;" d="M 0 5 C 0 2.238281 2.238281 0 5 0 L 47 0 C 49.761719 0 52 2.238281 52 5 L 52 12 C 52 14.761719 49.761719 17 47 17 L 5 17 C 2.238281 17 0 14.761719 0 12 Z M 0 5 " transform="matrix(1,0,0,1,424,67)"/>
<path style=" stroke:none;fill-rule:nonzero;fill:rgb(38.039216%,50.588235%,100%);fill-opacity:0.490196;" d="M 424 72 C 424 69.238281 426.238281 67 429 67 L 471 67 C 473.761719 67 476 69.238281 476 72 L 476 79 C 476 81.761719 473.761719 84 471 84 L 429 84 C 426.238281 84 424 81.761719 424 79 Z M 424 72 "/>
<path style="fill:none;stroke-width:1.5;stroke-linecap:butt;stroke-linejoin:miter;stroke:rgb(38.039216%,50.588235%,100%);stroke-opacity:1;stroke-miterlimit:10;" d="M 0 5 C 0 2.238281 2.238281 0 5 0 L 47 0 C 49.761719 0 52 2.238281 52 5 L 52 12 C 52 14.761719 49.761719 17 47 17 L 5 17 C 2.238281 17 0 14.761719 0 12 Z M 0 5 " transform="matrix(1,0,0,1,424,10)"/>
<path style=" stroke:none;fill-rule:nonzero;fill:rgb(38.039216%,50.588235%,100%);fill-opacity:0.490196;" d="M 424 15 C 424 12.238281 426.238281 10 429 10 L 471 10 C 473.761719 10 476 12.238281 476 15 L 476 22 C 476 24.761719 473.761719 27 471 27 L 429 27 C 426.238281 27 424 24.761719 424 22 Z M 424 15 "/>
</g>
</svg>
