<?xml version="1.0" encoding="UTF-8"?>
<svg xmlns="http://www.w3.org/2000/svg" xmlns:xlink="http://www.w3.org/1999/xlink" width="542pt" height="96pt" viewBox="0 0 542 96" version="1.1">
<defs>
<clipPath id="clip1">
  <path d="M 11 11 L 80 11 L 80 59 L 11 59 Z M 11 11 "/>
</clipPath>
<clipPath id="clip2">
  <path d="M 11 16 C 11 13.238281 13.238281 11 16 11 L 75 11 C 77.761719 11 80 13.238281 80 16 L 80 54 C 80 56.761719 77.761719 59 75 59 L 16 59 C 13.238281 59 11 56.761719 11 54 Z M 11 16 "/>
</clipPath>
<clipPath id="clip3">
  <path d="M 11 61 L 80 61 L 80 84 L 11 84 Z M 11 61 "/>
</clipPath>
<clipPath id="clip4">
  <path d="M 11 66 C 11 63.238281 13.238281 61 16 61 L 75 61 C 77.761719 61 80 63.238281 80 66 L 80 79 C 80 81.761719 77.761719 84 75 84 L 16 84 C 13.238281 84 11 81.761719 11 79 Z M 11 66 "/>
</clipPath>
<clipPath id="clip5">
  <path d="M 82 11 L 116 11 L 116 34 L 82 34 Z M 82 11 "/>
</clipPath>
<clipPath id="clip6">
  <path d="M 82 16 C 82 13.238281 84.238281 11 87 11 L 111 11 C 113.761719 11 116 13.238281 116 16 L 116 29 C 116 31.761719 113.761719 34 111 34 L 87 34 C 84.238281 34 82 31.761719 82 29 Z M 82 16 "/>
</clipPath>
<clipPath id="clip7">
  <path d="M 82 61 L 116 61 L 116 84 L 82 84 Z M 82 61 "/>
</clipPath>
<clipPath id="clip8">
  <path d="M 82 66 C 82 63.238281 84.238281 61 87 61 L 111 61 C 113.761719 61 116 63.238281 116 66 L 116 79 C 116 81.761719 113.761719 84 111 84 L 87 84 C 84.238281 84 82 81.761719 82 79 Z M 82 66 "/>
</clipPath>
<clipPath id="clip9">
  <path d="M 82 36 L 116 36 L 116 59 L 82 59 Z M 82 36 "/>
</clipPath>
<clipPath id="clip10">
  <path d="M 82 41 C 82 38.238281 84.238281 36 87 36 L 111 36 C 113.761719 36 116 38.238281 116 41 L 116 54 C 116 56.761719 113.761719 59 111 59 L 87 59 C 84.238281 59 82 56.761719 82 54 Z M 82 41 "/>
</clipPath>
<clipPath id="clip11">
  <path d="M 149 37 L 218 37 L 218 85 L 149 85 Z M 149 37 "/>
</clipPath>
<clipPath id="clip12">
  <path d="M 149 42 C 149 39.238281 151.238281 37 154 37 L 213 37 C 215.761719 37 218 39.238281 218 42 L 218 80 C 218 82.761719 215.761719 85 213 85 L 154 85 C 151.238281 85 149 82.761719 149 80 Z M 149 42 "/>
</clipPath>
<clipPath id="clip13">
  <path d="M 149 12 L 218 12 L 218 35 L 149 35 Z M 149 12 "/>
</clipPath>
<clipPath id="clip14">
  <path d="M 149 17 C 149 14.238281 151.238281 12 154 12 L 213 12 C 215.761719 12 218 14.238281 218 17 L 218 30 C 218 32.761719 215.761719 35 213 35 L 154 35 C 151.238281 35 149 32.761719 149 30 Z M 149 17 "/>
</clipPath>
<clipPath id="clip15">
  <path d="M 220 62 L 254 62 L 254 85 L 220 85 Z M 220 62 "/>
</clipPath>
<clipPath id="clip16">
  <path d="M 220 67 C 220 64.238281 222.238281 62 225 62 L 249 62 C 251.761719 62 254 64.238281 254 67 L 254 80 C 254 82.761719 251.761719 85 249 85 L 225 85 C 222.238281 85 220 82.761719 220 80 Z M 220 67 "/>
</clipPath>
<clipPath id="clip17">
  <path d="M 220 12 L 254 12 L 254 35 L 220 35 Z M 220 12 "/>
</clipPath>
<clipPath id="clip18">
  <path d="M 220 17 C 220 14.238281 222.238281 12 225 12 L 249 12 C 251.761719 12 254 14.238281 254 17 L 254 30 C 254 32.761719 251.761719 35 249 35 L 225 35 C 222.238281 35 220 32.761719 220 30 Z M 220 17 "/>
</clipPath>
<clipPath id="clip19">
  <path d="M 220 37 L 254 37 L 254 60 L 220 60 Z M 220 37 "/>
</clipPath>
<clipPath id="clip20">
  <path d="M 220 42 C 220 39.238281 222.238281 37 225 37 L 249 37 C 251.761719 37 254 39.238281 254 42 L 254 55 C 254 57.761719 251.761719 60 249 60 L 225 60 C 222.238281 60 220 57.761719 220 55 Z M 220 42 "/>
</clipPath>
<clipPath id="clip21">
  <path d="M 324 11 L 393 11 L 393 59 L 324 59 Z M 324 11 "/>
</clipPath>
<clipPath id="clip22">
  <path d="M 324 16 C 324 13.238281 326.238281 11 329 11 L 388 11 C 390.761719 11 393 13.238281 393 16 L 393 54 C 393 56.761719 390.761719 59 388 59 L 329 59 C 326.238281 59 324 56.761719 324 54 Z M 324 16 "/>
</clipPath>
<clipPath id="clip23">
  <path d="M 324 61 L 393 61 L 393 84 L 324 84 Z M 324 61 "/>
</clipPath>
<clipPath id="clip24">
  <path d="M 324 66 C 324 63.238281 326.238281 61 329 61 L 388 61 C 390.761719 61 393 63.238281 393 66 L 393 79 C 393 81.761719 390.761719 84 388 84 L 329 84 C 326.238281 84 324 81.761719 324 79 Z M 324 66 "/>
</clipPath>
<clipPath id="clip25">
  <path d="M 288 11 L 322 11 L 322 34 L 288 34 Z M 288 11 "/>
</clipPath>
<clipPath id="clip26">
  <path d="M 288 16 C 288 13.238281 290.238281 11 293 11 L 317 11 C 319.761719 11 322 13.238281 322 16 L 322 29 C 322 31.761719 319.761719 34 317 34 L 293 34 C 290.238281 34 288 31.761719 288 29 Z M 288 16 "/>
</clipPath>
<clipPath id="clip27">
  <path d="M 288 61 L 322 61 L 322 84 L 288 84 Z M 288 61 "/>
</clipPath>
<clipPath id="clip28">
  <path d="M 288 66 C 288 63.238281 290.238281 61 293 61 L 317 61 C 319.761719 61 322 63.238281 322 66 L 322 79 C 322 81.761719 319.761719 84 317 84 L 293 84 C 290.238281 84 288 81.761719 288 79 Z M 288 66 "/>
</clipPath>
<clipPath id="clip29">
  <path d="M 288 36 L 322 36 L 322 59 L 288 59 Z M 288 36 "/>
</clipPath>
<clipPath id="clip30">
  <path d="M 288 41 C 288 38.238281 290.238281 36 293 36 L 317 36 C 319.761719 36 322 38.238281 322 41 L 322 54 C 322 56.761719 319.761719 59 317 59 L 293 59 C 290.238281 59 288 56.761719 288 54 Z M 288 41 "/>
</clipPath>
<clipPath id="clip31">
  <path d="M 462 37 L 531 37 L 531 85 L 462 85 Z M 462 37 "/>
</clipPath>
<clipPath id="clip32">
  <path d="M 462 42 C 462 39.238281 464.238281 37 467 37 L 526 37 C 528.761719 37 531 39.238281 531 42 L 531 80 C 531 82.761719 528.761719 85 526 85 L 467 85 C 464.238281 85 462 82.761719 462 80 Z M 462 42 "/>
</clipPath>
<clipPath id="clip33">
  <path d="M 462 12 L 531 12 L 531 35 L 462 35 Z M 462 12 "/>
</clipPath>
<clipPath id="clip34">
  <path d="M 462 17 C 462 14.238281 464.238281 12 467 12 L 526 12 C 528.761719 12 531 14.238281 531 17 L 531 30 C 531 32.761719 528.761719 35 526 35 L 467 35 C 464.238281 35 462 32.761719 462 30 Z M 462 17 "/>
</clipPath>
<clipPath id="clip35">
  <path d="M 426 62 L 460 62 L 460 85 L 426 85 Z M 426 62 "/>
</clipPath>
<clipPath id="clip36">
  <path d="M 426 67 C 426 64.238281 428.238281 62 431 62 L 455 62 C 457.761719 62 460 64.238281 460 67 L 460 80 C 460 82.761719 457.761719 85 455 85 L 431 85 C 428.238281 85 426 82.761719 426 80 Z M 426 67 "/>
</clipPath>
<clipPath id="clip37">
  <path d="M 426 12 L 460 12 L 460 35 L 426 35 Z M 426 12 "/>
</clipPath>
<clipPath id="clip38">
  <path d="M 426 17 C 426 14.238281 428.238281 12 431 12 L 455 12 C 457.761719 12 460 14.238281 460 17 L 460 30 C 460 32.761719 457.761719 35 455 35 L 431 35 C 428.238281 35 426 32.761719 426 30 Z M 426 17 "/>
</clipPath>
<clipPath id="clip39">
  <path d="M 426 37 L 460 37 L 460 60 L 426 60 Z M 426 37 "/>
</clipPath>
<clipPath id="clip40">
  <path d="M 426 42 C 426 39.238281 428.238281 37 431 37 L 455 37 C 457.761719 37 460 39.238281 460 42 L 460 55 C 460 57.761719 457.761719 60 455 60 L 431 60 C 428.238281 60 426 57.761719 426 55 Z M 426 42 "/>
</clipPath>
</defs>
<g id="surface2">
<path style="fill:none;stroke-width:1.5;stroke-linecap:butt;stroke-linejoin:miter;stroke:rgb(0%,0%,0%);stroke-opacity:0.266667;stroke-dasharray:10,4;stroke-dashoffset:1;stroke-miterlimit:10;" d="M 0.75 0.75 L 127.25 0.75 L 127.25 95.25 L 0.75 95.25 Z M 0.75 0.75 "/>
<path style="fill:none;stroke-width:1.5;stroke-linecap:butt;stroke-linejoin:miter;stroke:rgb(0%,0%,0%);stroke-opacity:0.2;stroke-dasharray:10,4;stroke-dashoffset:1;stroke-miterlimit:10;" d="M 10 10 L 118 10 L 118 86 L 10 86 Z M 10 10 "/>
<path style="fill:none;stroke-width:1.5;stroke-linecap:butt;stroke-linejoin:miter;stroke:rgb(0%,0%,0%);stroke-opacity:0.266667;stroke-dasharray:10,4;stroke-dashoffset:1;stroke-miterlimit:10;" d="M 138.75 0.75 L 265.25 0.75 L 265.25 95.25 L 138.75 95.25 Z M 138.75 0.75 "/>
<path style="fill:none;stroke-width:1.5;stroke-linecap:butt;stroke-linejoin:miter;stroke:rgb(0%,0%,0%);stroke-opacity:0.2;stroke-dasharray:10,4;stroke-dashoffset:1;stroke-miterlimit:10;" d="M 148 10 L 256 10 L 256 86 L 148 86 Z M 148 10 "/>
<path style="fill:none;stroke-width:1.5;stroke-linecap:butt;stroke-linejoin:miter;stroke:rgb(0%,0%,0%);stroke-opacity:0.266667;stroke-dasharray:10,4;stroke-dashoffset:1;stroke-miterlimit:10;" d="M 276.75 0.75 L 403.25 0.75 L 403.25 95.25 L 276.75 95.25 Z M 276.75 0.75 "/>
<path style="fill:none;stroke-width:1.5;stroke-linecap:butt;stroke-linejoin:miter;stroke:rgb(0%,0%,0%);stroke-opacity:0.2;stroke-dasharray:10,4;stroke-dashoffset:1;stroke-miterlimit:10;" d="M 286 10 L 394 10 L 394 86 L 286 86 Z M 286 10 "/>
<path style="fill:none;stroke-width:1.5;stroke-linecap:butt;stroke-linejoin:miter;stroke:rgb(0%,0%,0%);stroke-opacity:0.266667;stroke-dasharray:10,4;stroke-dashoffset:1;stroke-miterlimit:10;" d="M 414.75 0.75 L 541.25 0.75 L 541.25 95.25 L 414.75 95.25 Z M 414.75 0.75 "/>
<path style="fill:none;stroke-width:1.5;stroke-linecap:butt;stroke-linejoin:miter;stroke:rgb(0%,0%,0%);stroke-opacity:0.2;stroke-dasharray:10,4;stroke-dashoffset:1;stroke-miterlimit:10;" d="M 424 10 L 532 10 L 532 86 L 424 86 Z M 424 10 "/>
<g clip-path="url(#clip1)" clip-rule="nonzero">
<g clip-path="url(#clip2)" clip-rule="nonzero">
<rect x="0" y="0" width="542" height="96" style="fill:rgb(38.039216%,50.588235%,100%);fill-opacity:0.490196;stroke:none;"/>
<path style="fill:none;stroke-width:2;stroke-linecap:butt;stroke-linejoin:miter;stroke:rgb(38.039216%,50.588235%,100%);stroke-opacity:1;stroke-miterlimit:10;" d="M 1 6 C 1 3.238281 3.238281 1 6 1 L 65 1 C 67.761719 1 70 3.238281 70 6 L 70 44 C 70 46.761719 67.761719 49 65 49 L 6 49 C 3.238281 49 1 46.761719 1 44 Z M 1 6 " transform="matrix(1,0,0,1,10,10)"/>
</g>
</g>
<g clip-path="url(#clip3)" clip-rule="nonzero">
<g clip-path="url(#clip4)" clip-rule="nonzero">
<rect x="0" y="0" width="542" height="96" style="fill:rgb(38.039216%,50.588235%,100%);fill-opacity:0.490196;stroke:none;"/>
<path style="fill:none;stroke-width:2;stroke-linecap:butt;stroke-linejoin:miter;stroke:rgb(38.039216%,50.588235%,100%);stroke-opacity:1;stroke-miterlimit:10;" d="M 1 6 C 1 3.238281 3.238281 1 6 1 L 65 1 C 67.761719 1 70 3.238281 70 6 L 70 19 C 70 21.761719 67.761719 24 65 24 L 6 24 C 3.238281 24 1 21.761719 1 19 Z M 1 6 " transform="matrix(1,0,0,1,10,60)"/>
</g>
</g>
<g clip-path="url(#clip5)" clip-rule="nonzero">
<g clip-path="url(#clip6)" clip-rule="nonzero">
<rect x="0" y="0" width="542" height="96" style="fill:rgb(38.039216%,50.588235%,100%);fill-opacity:0.490196;stroke:none;"/>
<path style="fill:none;stroke-width:2;stroke-linecap:butt;stroke-linejoin:miter;stroke:rgb(38.039216%,50.588235%,100%);stroke-opacity:1;stroke-miterlimit:10;" d="M 1 6 C 1 3.238281 3.238281 1 6 1 L 30 1 C 32.761719 1 35 3.238281 35 6 L 35 19 C 35 21.761719 32.761719 24 30 24 L 6 24 C 3.238281 24 1 21.761719 1 19 Z M 1 6 " transform="matrix(1,0,0,1,81,10)"/>
</g>
</g>
<g clip-path="url(#clip7)" clip-rule="nonzero">
<g clip-path="url(#clip8)" clip-rule="nonzero">
<rect x="0" y="0" width="542" height="96" style="fill:rgb(38.039216%,50.588235%,100%);fill-opacity:0.490196;stroke:none;"/>
<path style="fill:none;stroke-width:2;stroke-linecap:butt;stroke-linejoin:miter;stroke:rgb(38.039216%,50.588235%,100%);stroke-opacity:1;stroke-miterlimit:10;" d="M 1 6 C 1 3.238281 3.238281 1 6 1 L 30 1 C 32.761719 1 35 3.238281 35 6 L 35 19 C 35 21.761719 32.761719 24 30 24 L 6 24 C 3.238281 24 1 21.761719 1 19 Z M 1 6 " transform="matrix(1,0,0,1,81,60)"/>
</g>
</g>
<g clip-path="url(#clip9)" clip-rule="nonzero">
<g clip-path="url(#clip10)" clip-rule="nonzero">
<rect x="0" y="0" width="542" height="96" style="fill:rgb(38.039216%,50.588235%,100%);fill-opacity:0.490196;stroke:none;"/>
<path style="fill:none;stroke-width:2;stroke-linecap:butt;stroke-linejoin:miter;stroke:rgb(38.039216%,50.588235%,100%);stroke-opacity:1;stroke-miterlimit:10;" d="M 1 6 C 1 3.238281 3.238281 1 6 1 L 30 1 C 32.761719 1 35 3.238281 35 6 L 35 19 C 35 21.761719 32.761719 24 30 24 L 6 24 C 3.238281 24 1 21.761719 1 19 Z M 1 6 " transform="matrix(1,0,0,1,81,35)"/>
</g>
</g>
<g clip-path="url(#clip11)" clip-rule="nonzero">
<g clip-path="url(#clip12)" clip-rule="nonzero">
<rect x="0" y="0" width="542" height="96" style="fill:rgb(38.039216%,50.588235%,100%);fill-opacity:0.490196;stroke:none;"/>
<path style="fill:none;stroke-width:2;stroke-linecap:butt;stroke-linejoin:miter;stroke:rgb(38.039216%,50.588235%,100%);stroke-opacity:1;stroke-miterlimit:10;" d="M 1 6 C 1 3.238281 3.238281 1 6 1 L 65 1 C 67.761719 1 70 3.238281 70 6 L 70 44 C 70 46.761719 67.761719 49 65 49 L 6 49 C 3.238281 49 1 46.761719 1 44 Z M 1 6 " transform="matrix(1,0,0,1,148,36)"/>
</g>
</g>
<g clip-path="url(#clip13)" clip-rule="nonzero">
<g clip-path="url(#clip14)" clip-rule="nonzero">
<rect x="0" y="0" width="542" height="96" style="fill:rgb(38.039216%,50.588235%,100%);fill-opacity:0.490196;stroke:none;"/>
<path style="fill:none;stroke-width:2;stroke-linecap:butt;stroke-linejoin:miter;stroke:rgb(38.039216%,50.588235%,100%);stroke-opacity:1;stroke-miterlimit:10;" d="M 1 6 C 1 3.238281 3.238281 1 6 1 L 65 1 C 67.761719 1 70 3.238281 70 6 L 70 19 C 70 21.761719 67.761719 24 65 24 L 6 24 C 3.238281 24 1 21.761719 1 19 Z M 1 6 " transform="matrix(1,0,0,1,148,11)"/>
</g>
</g>
<g clip-path="url(#clip15)" clip-rule="nonzero">
<g clip-path="url(#clip16)" clip-rule="nonzero">
<rect x="0" y="0" width="542" height="96" style="fill:rgb(38.039216%,50.588235%,100%);fill-opacity:0.490196;stroke:none;"/>
<path style="fill:none;stroke-width:2;stroke-linecap:butt;stroke-linejoin:miter;stroke:rgb(38.039216%,50.588235%,100%);stroke-opacity:1;stroke-miterlimit:10;" d="M 1 6 C 1 3.238281 3.238281 1 6 1 L 30 1 C 32.761719 1 35 3.238281 35 6 L 35 19 C 35 21.761719 32.761719 24 30 24 L 6 24 C 3.238281 24 1 21.761719 1 19 Z M 1 6 " transform="matrix(1,0,0,1,219,61)"/>
</g>
</g>
<g clip-path="url(#clip17)" clip-rule="nonzero">
<g clip-path="url(#clip18)" clip-rule="nonzero">
<rect x="0" y="0" width="542" height="96" style="fill:rgb(38.039216%,50.588235%,100%);fill-opacity:0.490196;stroke:none;"/>
<path style="fill:none;stroke-width:2;stroke-linecap:butt;stroke-linejoin:miter;stroke:rgb(38.039216%,50.588235%,100%);stroke-opacity:1;stroke-miterlimit:10;" d="M 1 6 C 1 3.238281 3.238281 1 6 1 L 30 1 C 32.761719 1 35 3.238281 35 6 L 35 19 C 35 21.761719 32.761719 24 30 24 L 6 24 C 3.238281 24 1 21.761719 1 19 Z M 1 6 " transform="matrix(1,0,0,1,219,11)"/>
</g>
</g>
<g clip-path="url(#clip19)" clip-rule="nonzero">
<g clip-path="url(#clip20)" clip-rule="nonzero">
<rect x="0" y="0" width="542" height="96" style="fill:rgb(38.039216%,50.588235%,100%);fill-opacity:0.490196;stroke:none;"/>
<path style="fill:none;stroke-width:2;stroke-linecap:butt;stroke-linejoin:miter;stroke:rgb(38.039216%,50.588235%,100%);stroke-opacity:1;stroke-miterlimit:10;" d="M 1 6 C 1 3.238281 3.238281 1 6 1 L 30 1 C 32.761719 1 35 3.238281 35 6 L 35 19 C 35 21.761719 32.761719 24 30 24 L 6 24 C 3.238281 24 1 21.761719 1 19 Z M 1 6 " transform="matrix(1,0,0,1,219,36)"/>
</g>
</g>
<g clip-path="url(#clip21)" clip-rule="nonzero">
<g clip-path="url(#clip22)" clip-rule="nonzero">
<rect x="0" y="0" width="542" height="96" style="fill:rgb(38.039216%,50.588235%,100%);fill-opacity:0.490196;stroke:none;"/>
<path style="fill:none;stroke-width:2;stroke-linecap:butt;stroke-linejoin:miter;stroke:rgb(38.039216%,50.588235%,100%);stroke-opacity:1;stroke-miterlimit:10;" d="M 1 6 C 1 3.238281 3.238281 1 6 1 L 65 1 C 67.761719 1 70 3.238281 70 6 L 70 44 C 70 46.761719 67.761719 49 65 49 L 6 49 C 3.238281 49 1 46.761719 1 44 Z M 1 6 " transform="matrix(1,0,0,1,323,10)"/>
</g>
</g>
<g clip-path="url(#clip23)" clip-rule="nonzero">
<g clip-path="url(#clip24)" clip-rule="nonzero">
<rect x="0" y="0" width="542" height="96" style="fill:rgb(38.039216%,50.588235%,100%);fill-opacity:0.490196;stroke:none;"/>
<path style="fill:none;stroke-width:2;stroke-linecap:butt;stroke-linejoin:miter;stroke:rgb(38.039216%,50.588235%,100%);stroke-opacity:1;stroke-miterlimit:10;" d="M 1 6 C 1 3.238281 3.238281 1 6 1 L 65 1 C 67.761719 1 70 3.238281 70 6 L 70 19 C 70 21.761719 67.761719 24 65 24 L 6 24 C 3.238281 24 1 21.761719 1 19 Z M 1 6 " transform="matrix(1,0,0,1,323,60)"/>
</g>
</g>
<g clip-path="url(#clip25)" clip-rule="nonzero">
<g clip-path="url(#clip26)" clip-rule="nonzero">
<rect x="0" y="0" width="542" height="96" style="fill:rgb(38.039216%,50.588235%,100%);fill-opacity:0.490196;stroke:none;"/>
<path style="fill:none;stroke-width:2;stroke-linecap:butt;stroke-linejoin:miter;stroke:rgb(38.039216%,50.588235%,100%);stroke-opacity:1;stroke-miterlimit:10;" d="M 1 6 C 1 3.238281 3.238281 1 6 1 L 30 1 C 32.761719 1 35 3.238281 35 6 L 35 19 C 35 21.761719 32.761719 24 30 24 L 6 24 C 3.238281 24 1 21.761719 1 19 Z M 1 6 " transform="matrix(1,0,0,1,287,10)"/>
</g>
</g>
<g clip-path="url(#clip27)" clip-rule="nonzero">
<g clip-path="url(#clip28)" clip-rule="nonzero">
<rect x="0" y="0" width="542" height="96" style="fill:rgb(38.039216%,50.588235%,100%);fill-opacity:0.490196;stroke:none;"/>
<path style="fill:none;stroke-width:2;stroke-linecap:butt;stroke-linejoin:miter;stroke:rgb(38.039216%,50.588235%,100%);stroke-opacity:1;stroke-miterlimit:10;" d="M 1 6 C 1 3.238281 3.238281 1 6 1 L 30 1 C 32.761719 1 35 3.238281 35 6 L 35 19 C 35 21.761719 32.761719 24 30 24 L 6 24 C 3.238281 24 1 21.761719 1 19 Z M 1 6 " transform="matrix(1,0,0,1,287,60)"/>
</g>
</g>
<g clip-path="url(#clip29)" clip-rule="nonzero">
<g clip-path="url(#clip30)" clip-rule="nonzero">
<rect x="0" y="0" width="542" height="96" style="fill:rgb(38.039216%,50.588235%,100%);fill-opacity:0.490196;stroke:none;"/>
<path style="fill:none;stroke-width:2;stroke-linecap:butt;stroke-linejoin:miter;stroke:rgb(38.039216%,50.588235%,100%);stroke-opacity:1;stroke-miterlimit:10;" d="M 1 6 C 1 3.238281 3.238281 1 6 1 L 30 1 C 32.761719 1 35 3.238281 35 6 L 35 19 C 35 21.761719 32.761719 24 30 24 L 6 24 C 3.238281 24 1 21.761719 1 19 Z M 1 6 " transform="matrix(1,0,0,1,287,35)"/>
</g>
</g>
<g clip-path="url(#clip31)" clip-rule="nonzero">
<g clip-path="url(#clip32)" clip-rule="nonzero">
<rect x="0" y="0" width="542" height="96" style="fill:rgb(38.039216%,50.588235%,100%);fill-opacity:0.490196;stroke:none;"/>
<path style="fill:none;stroke-width:2;stroke-linecap:butt;stroke-linejoin:miter;stroke:rgb(38.039216%,50.588235%,100%);stroke-opacity:1;stroke-miterlimit:10;" d="M 1 6 C 1 3.238281 3.238281 1 6 1 L 65 1 C 67.761719 1 70 3.238281 70 6 L 70 44 C 70 46.761719 67.761719 49 65 49 L 6 49 C 3.238281 49 1 46.761719 1 44 Z M 1 6 " transform="matrix(1,0,0,1,461,36)"/>
</g>
</g>
<g clip-path="url(#clip33)" clip-rule="nonzero">
<g clip-path="url(#clip34)" clip-rule="nonzero">
<rect x="0" y="0" width="542" height="96" style="fill:rgb(38.039216%,50.588235%,100%);fill-opacity:0.490196;stroke:none;"/>
<path style="fill:none;stroke-width:2;stroke-linecap:butt;stroke-linejoin:miter;stroke:rgb(38.039216%,50.588235%,100%);stroke-opacity:1;stroke-miterlimit:10;" d="M 1 6 C 1 3.238281 3.238281 1 6 1 L 65 1 C 67.761719 1 70 3.238281 70 6 L 70 19 C 70 21.761719 67.761719 24 65 24 L 6 24 C 3.238281 24 1 21.761719 1 19 Z M 1 6 " transform="matrix(1,0,0,1,461,11)"/>
</g>
</g>
<g clip-path="url(#clip35)" clip-rule="nonzero">
<g clip-path="url(#clip36)" clip-rule="nonzero">
<rect x="0" y="0" width="542" height="96" style="fill:rgb(38.039216%,50.588235%,100%);fill-opacity:0.490196;stroke:none;"/>
<path style="fill:none;stroke-width:2;stroke-linecap:butt;stroke-linejoin:miter;stroke:rgb(38.039216%,50.588235%,100%);stroke-opacity:1;stroke-miterlimit:10;" d="M 1 6 C 1 3.238281 3.238281 1 6 1 L 30 1 C 32.761719 1 35 3.238281 35 6 L 35 19 C 35 21.761719 32.761719 24 30 24 L 6 24 C 3.238281 24 1 21.761719 1 19 Z M 1 6 " transform="matrix(1,0,0,1,425,61)"/>
</g>
</g>
<g clip-path="url(#clip37)" clip-rule="nonzero">
<g clip-path="url(#clip38)" clip-rule="nonzero">
<rect x="0" y="0" width="542" height="96" style="fill:rgb(38.039216%,50.588235%,100%);fill-opacity:0.490196;stroke:none;"/>
<path style="fill:none;stroke-width:2;stroke-linecap:butt;stroke-linejoin:miter;stroke:rgb(38.039216%,50.588235%,100%);stroke-opacity:1;stroke-miterlimit:10;" d="M 1 6 C 1 3.238281 3.238281 1 6 1 L 30 1 C 32.761719 1 35 3.238281 35 6 L 35 19 C 35 21.761719 32.761719 24 30 24 L 6 24 C 3.238281 24 1 21.761719 1 19 Z M 1 6 " transform="matrix(1,0,0,1,425,11)"/>
</g>
</g>
<g clip-path="url(#clip39)" clip-rule="nonzero">
<g clip-path="url(#clip40)" clip-rule="nonzero">
<rect x="0" y="0" width="542" height="96" style="fill:rgb(38.039216%,50.588235%,100%);fill-opacity:0.490196;stroke:none;"/>
<path style="fill:none;stroke-width:2;stroke-linecap:butt;stroke-linejoin:miter;stroke:rgb(38.039216%,50.588235%,100%);stroke-opacity:1;stroke-miterlimit:10;" d="M 1 6 C 1 3.238281 3.238281 1 6 1 L 30 1 C 32.761719 1 35 3.238281 35 6 L 35 19 C 35 21.761719 32.761719 24 30 24 L 6 24 C 3.238281 24 1 21.761719 1 19 Z M 1 6 " transform="matrix(1,0,0,1,425,36)"/>
</g>
</g>
</g>
</svg>
