<?xml version="1.0" encoding="UTF-8"?>
<svg xmlns="http://www.w3.org/2000/svg" xmlns:xlink="http://www.w3.org/1999/xlink" width="360pt" height="48pt" viewBox="0 0 360 48" version="1.1">
<g id="surface2">
<path style="fill:none;stroke-width:1.5;stroke-linecap:butt;stroke-linejoin:miter;stroke:rgb(0%,0%,0%);stroke-opacity:0.266667;stroke-dasharray:10,4;stroke-dashoffset:1;stroke-miterlimit:10;" d="M 0.75 0.75 L 63.25 0.75 L 63.25 47.25 L 0.75 47.25 Z M 0.75 0.75 "/>
<path style="fill:none;stroke-width:1.5;stroke-linecap:butt;stroke-linejoin:miter;stroke:rgb(0%,0%,0%);stroke-opacity:0.2;stroke-dasharray:10,4;stroke-dashoffset:1;stroke-miterlimit:10;" d="M 3 3 L 61 3 L 61 45 L 3 45 Z M 3 3 "/>
<path style="fill:none;stroke-width:1.5;stroke-linecap:butt;stroke-linejoin:miter;stroke:rgb(0%,0%,0%);stroke-opacity:0.266667;stroke-dasharray:10,4;stroke-dashoffset:1;stroke-miterlimit:10;" d="M 74.75 0.75 L 137.25 0.75 L 137.25 47.25 L 74.75 47.25 Z M 74.75 0.75 "/>
<path style="fill:none;stroke-width:1.5;stroke-linecap:butt;stroke-linejoin:miter;stroke:rgb(0%,0%,0%);stroke-opacity:0.2;stroke-dasharray:10,4;stroke-dashoffset:1;stroke-miterlimit:10;" d="M 77 3 L 135 3 L 135 45 L 77 45 Z M 77 3 "/>
<path style="fill:none;stroke-width:1.5;stroke-linecap:butt;stroke-linejoin:miter;stroke:rgb(0%,0%,0%);stroke-opacity:0.266667;stroke-dasharray:10,4;stroke-dashoffset:1;stroke-miterlimit:10;" d="M 148.75 0.75 L 211.25 0.75 L 211.25 47.25 L 148.75 47.25 Z M 148.75 0.75 "/>
<path style="fill:none;stroke-width:1.5;stroke-linecap:butt;stroke-linejoin:miter;stroke:rgb(0%,0%,0%);stroke-opacity:0.2;stroke-dasharray:10,4;stroke-dashoffset:1;stroke-miterlimit:10;" d="M 151 3 L 209 3 L 209 45 L 151 45 Z M 151 3 "/>
<path style="fill:none;stroke-width:1.5;stroke-linecap:butt;stroke-linejoin:miter;stroke:rgb(0%,0%,0%);stroke-opacity:0.266667;stroke-dasharray:10,4;stroke-dashoffset:1;stroke-miterlimit:10;" d="M 222.75 0.75 L 285.25 0.75 L 285.25 47.25 L 222.75 47.25 Z M 222.75 0.75 "/>
<path style="fill:none;stroke-width:1.5;stroke-linecap:butt;stroke-linejoin:miter;stroke:rgb(0%,0%,0%);stroke-opacity:0.2;stroke-dasharray:10,4;stroke-dashoffset:1;stroke-miterlimit:10;" d="M 225 3 L 283 3 L 283 45 L 225 45 Z M 225 3 "/>
<path style="fill:none;stroke-width:1.5;stroke-linecap:butt;stroke-linejoin:miter;stroke:rgb(0%,0%,0%);stroke-opacity:0.266667;stroke-dasharray:10,4;stroke-dashoffset:1;stroke-miterlimit:10;" d="M 296.75 0.75 L 359.25 0.75 L 359.25 47.25 L 296.75 47.25 Z M 296.75 0.75 "/>
<path style="fill:none;stroke-width:1.5;stroke-linecap:butt;stroke-linejoin:miter;stroke:rgb(0%,0%,0%);stroke-opacity:0.2;stroke-dasharray:10,4;stroke-dashoffset:1;stroke-miterlimit:10;" d="M 299 3 L 357 3 L 357 45 L 299 45 Z M 299 3 "/>
<path style="fill:none;stroke-width:1.5;stroke-linecap:butt;stroke-linejoin:miter;stroke:rgb(38.039216%,50.588235%,100%);stroke-opacity:1;stroke-miterlimit:10;" d="M 0 2 C 0 0.894531 0.894531 0 2 0 L 25 0 C 26.105469 0 27 0.894531 27 2 L 27 38 C 27 39.105469 26.105469 40 25 40 L 2 40 C 0.894531 40 0 39.105469 0 38 Z M 0 2 " transform="matrix(1,0,0,1,17,3)"/>
<path style=" stroke:none;fill-rule:nonzero;fill:rgb(38.039216%,50.588235%,100%);fill-opacity:0.490196;" d="M 17 5 C 17 3.894531 17.894531 3 19 3 L 42 3 C 43.105469 3 44 3.894531 44 5 L 44 41 C 44 42.105469 43.105469 43 42 43 L 19 43 C 17.894531 43 17 42.105469 17 41 Z M 17 5 "/>
<path style="fill:none;stroke-width:1.5;stroke-linecap:butt;stroke-linejoin:miter;stroke:rgb(38.039216%,50.588235%,100%);stroke-opacity:1;stroke-miterlimit:10;" d="M 0 2 C 0 0.894531 0.894531 0 2 0 L 25 0 C 26.105469 0 27 0.894531 27 2 L 27 17 C 27 18.105469 26.105469 19 25 19 L 2 19 C 0.894531 19 0 18.105469 0 17 Z M 0 2 " transform="matrix(1,0,0,1,91,3)"/>
<path style=" stroke:none;fill-rule:nonzero;fill:rgb(38.039216%,50.588235%,100%);fill-opacity:0.490196;" d="M 91 5 C 91 3.894531 91.894531 3 93 3 L 116 3 C 117.105469 3 118 3.894531 118 5 L 118 20 C 118 21.105469 117.105469 22 116 22 L 93 22 C 91.894531 22 91 21.105469 91 20 Z M 91 5 "/>
<path style="fill:none;stroke-width:1.5;stroke-linecap:butt;stroke-linejoin:miter;stroke:rgb(38.039216%,50.588235%,100%);stroke-opacity:1;stroke-miterlimit:10;" d="M 0 2 C 0 0.894531 0.894531 0 2 0 L 25 0 C 26.105469 0 27 0.894531 27 2 L 27 17 C 27 18.105469 26.105469 19 25 19 L 2 19 C 0.894531 19 0 18.105469 0 17 Z M 0 2 " transform="matrix(1,0,0,1,91,24)"/>
<path style=" stroke:none;fill-rule:nonzero;fill:rgb(38.039216%,50.588235%,100%);fill-opacity:0.490196;" d="M 91 26 C 91 24.894531 91.894531 24 93 24 L 116 24 C 117.105469 24 118 24.894531 118 26 L 118 41 C 118 42.105469 117.105469 43 116 43 L 93 43 C 91.894531 43 91 42.105469 91 41 Z M 91 26 "/>
<path style="fill:none;stroke-width:1.5;stroke-linecap:butt;stroke-linejoin:miter;stroke:rgb(38.039216%,50.588235%,100%);stroke-opacity:1;stroke-miterlimit:10;" d="M 0 2 C 0 0.894531 0.894531 0 2 0 L 25 0 C 26.105469 0 27 0.894531 27 2 L 27 17 C 27 18.105469 26.105469 19 25 19 L 2 19 C 0.894531 19 0 18.105469 0 17 Z M 0 2 " transform="matrix(1,0,0,1,151,3)"/>
<path style=" stroke:none;fill-rule:nonzero;fill:rgb(38.039216%,50.588235%,100%);fill-opacity:0.490196;" d="M 151 5 C 151 3.894531 151.894531 3 153 3 L 176 3 C 177.105469 3 178 3.894531 178 5 L 178 20 C 178 21.105469 177.105469 22 176 22 L 153 22 C 151.894531 22 151 21.105469 151 20 Z M 151 5 "/>
<path style="fill:none;stroke-width:1.5;stroke-linecap:butt;stroke-linejoin:miter;stroke:rgb(38.039216%,50.588235%,100%);stroke-opacity:1;stroke-miterlimit:10;" d="M 0 2 C 0 0.894531 0.894531 0 2 0 L 25 0 C 26.105469 0 27 0.894531 27 2 L 27 17 C 27 18.105469 26.105469 19 25 19 L 2 19 C 0.894531 19 0 18.105469 0 17 Z M 0 2 " transform="matrix(1,0,0,1,151,24)"/>
<path style=" stroke:none;fill-rule:nonzero;fill:rgb(38.039216%,50.588235%,100%);fill-opacity:0.490196;" d="M 151 26 C 151 24.894531 151.894531 24 153 24 L 176 24 C 177.105469 24 178 24.894531 178 26 L 178 41 C 178 42.105469 177.105469 43 176 43 L 153 43 C 151.894531 43 151 42.105469 151 41 Z M 151 26 "/>
<path style="fill:none;stroke-width:1.5;stroke-linecap:butt;stroke-linejoin:miter;stroke:rgb(38.039216%,50.588235%,100%);stroke-opacity:1;stroke-miterlimit:10;" d="M 0 2 C 0 0.894531 0.894531 0 2 0 L 25 0 C 26.105469 0 27 0.894531 27 2 L 27 38 C 27 39.105469 26.105469 40 25 40 L 2 40 C 0.894531 40 0 39.105469 0 38 Z M 0 2 " transform="matrix(1,0,0,1,180,3)"/>
<path style=" stroke:none;fill-rule:nonzero;fill:rgb(38.039216%,50.588235%,100%);fill-opacity:0.490196;" d="M 180 5 C 180 3.894531 180.894531 3 182 3 L 205 3 C 206.105469 3 207 3.894531 207 5 L 207 41 C 207 42.105469 206.105469 43 205 43 L 182 43 C 180.894531 43 180 42.105469 180 41 Z M 180 5 "/>
<path style="fill:none;stroke-width:1.5;stroke-linecap:butt;stroke-linejoin:miter;stroke:rgb(38.039216%,50.588235%,100%);stroke-opacity:1;stroke-miterlimit:10;" d="M 0 2 C 0 0.894531 0.894531 0 2 0 L 25 0 C 26.105469 0 27 0.894531 27 2 L 27 17 C 27 18.105469 26.105469 19 25 19 L 2 19 C 0.894531 19 0 18.105469 0 17 Z M 0 2 " transform="matrix(1,0,0,1,225,3)"/>
<path style=" stroke:none;fill-rule:nonzero;fill:rgb(38.039216%,50.588235%,100%);fill-opacity:0.490196;" d="M 225 5 C 225 3.894531 225.894531 3 227 3 L 250 3 C 251.105469 3 252 3.894531 252 5 L 252 20 C 252 21.105469 251.105469 22 250 22 L 227 22 C 225.894531 22 225 21.105469 225 20 Z M 225 5 "/>
<path style="fill:none;stroke-width:1.5;stroke-linecap:butt;stroke-linejoin:miter;stroke:rgb(38.039216%,50.588235%,100%);stroke-opacity:1;stroke-miterlimit:10;" d="M 0 2 C 0 0.894531 0.894531 0 2 0 L 25 0 C 26.105469 0 27 0.894531 27 2 L 27 17 C 27 18.105469 26.105469 19 25 19 L 2 19 C 0.894531 19 0 18.105469 0 17 Z M 0 2 " transform="matrix(1,0,0,1,225,24)"/>
<path style=" stroke:none;fill-rule:nonzero;fill:rgb(38.039216%,50.588235%,100%);fill-opacity:0.490196;" d="M 225 26 C 225 24.894531 225.894531 24 227 24 L 250 24 C 251.105469 24 252 24.894531 252 26 L 252 41 C 252 42.105469 251.105469 43 250 43 L 227 43 C 225.894531 43 225 42.105469 225 41 Z M 225 26 "/>
<path style="fill:none;stroke-width:1.5;stroke-linecap:butt;stroke-linejoin:miter;stroke:rgb(38.039216%,50.588235%,100%);stroke-opacity:1;stroke-miterlimit:10;" d="M 0 2 C 0 0.894531 0.894531 0 2 0 L 25 0 C 26.105469 0 27 0.894531 27 2 L 27 17 C 27 18.105469 26.105469 19 25 19 L 2 19 C 0.894531 19 0 18.105469 0 17 Z M 0 2 " transform="matrix(1,0,0,1,254,3)"/>
<path style=" stroke:none;fill-rule:nonzero;fill:rgb(38.039216%,50.588235%,100%);fill-opacity:0.490196;" d="M 254 5 C 254 3.894531 254.894531 3 256 3 L 279 3 C 280.105469 3 281 3.894531 281 5 L 281 20 C 281 21.105469 280.105469 22 279 22 L 256 22 C 254.894531 22 254 21.105469 254 20 Z M 254 5 "/>
<path style="fill:none;stroke-width:1.5;stroke-linecap:butt;stroke-linejoin:miter;stroke:rgb(38.039216%,50.588235%,100%);stroke-opacity:1;stroke-miterlimit:10;" d="M 0 2 C 0 0.894531 0.894531 0 2 0 L 25 0 C 26.105469 0 27 0.894531 27 2 L 27 17 C 27 18.105469 26.105469 19 25 19 L 2 19 C 0.894531 19 0 18.105469 0 17 Z M 0 2 " transform="matrix(1,0,0,1,254,24)"/>
<path style=" stroke:none;fill-rule:nonzero;fill:rgb(38.039216%,50.588235%,100%);fill-opacity:0.490196;" d="M 254 26 C 254 24.894531 254.894531 24 256 24 L 279 24 C 280.105469 24 281 24.894531 281 26 L 281 41 C 281 42.105469 280.105469 43 279 43 L 256 43 C 254.894531 43 254 42.105469 254 41 Z M 254 26 "/>
<path style="fill:none;stroke-width:1.5;stroke-linecap:butt;stroke-linejoin:miter;stroke:rgb(38.039216%,50.588235%,100%);stroke-opacity:1;stroke-miterlimit:10;" d="M 0 2 C 0 0.894531 0.894531 0 2 0 L 25 0 C 26.105469 0 27 0.894531 27 2 L 27 17 C 27 18.105469 26.105469 19 25 19 L 2 19 C 0.894531 19 0 18.105469 0 17 Z M 0 2 " transform="matrix(1,0,0,1,299,3)"/>
<path style=" stroke:none;fill-rule:nonzero;fill:rgb(38.039216%,50.588235%,100%);fill-opacity:0.490196;" d="M 299 5 C 299 3.894531 299.894531 3 301 3 L 324 3 C 325.105469 3 326 3.894531 326 5 L 326 20 C 326 21.105469 325.105469 22 324 22 L 301 22 C 299.894531 22 299 21.105469 299 20 Z M 299 5 "/>
<path style="fill:none;stroke-width:1.5;stroke-linecap:butt;stroke-linejoin:miter;stroke:rgb(38.039216%,50.588235%,100%);stroke-opacity:1;stroke-miterlimit:10;" d="M 0 2 C 0 0.894531 0.894531 0 2 0 L 25 0 C 26.105469 0 27 0.894531 27 2 L 27 17 C 27 18.105469 26.105469 19 25 19 L 2 19 C 0.894531 19 0 18.105469 0 17 Z M 0 2 " transform="matrix(1,0,0,1,299,24)"/>
<path style=" stroke:none;fill-rule:nonzero;fill:rgb(38.039216%,50.588235%,100%);fill-opacity:0.490196;" d="M 299 26 C 299 24.894531 299.894531 24 301 24 L 324 24 C 325.105469 24 326 24.894531 326 26 L 326 41 C 326 42.105469 325.105469 43 324 43 L 301 43 C 299.894531 43 299 42.105469 299 41 Z M 299 26 "/>
<path style="fill:none;stroke-width:1.5;stroke-linecap:butt;stroke-linejoin:miter;stroke:rgb(38.039216%,50.588235%,100%);stroke-opacity:1;stroke-miterlimit:10;" d="M 0 2 C 0 0.894531 0.894531 0 2 0 L 25 0 C 26.105469 0 27 0.894531 27 2 L 27 10 C 27 11.105469 26.105469 12 25 12 L 2 12 C 0.894531 12 0 11.105469 0 10 Z M 0 2 " transform="matrix(1,0,0,1,328,3)"/>
<path style=" stroke:none;fill-rule:nonzero;fill:rgb(38.039216%,50.588235%,100%);fill-opacity:0.490196;" d="M 328 5 C 328 3.894531 328.894531 3 330 3 L 353 3 C 354.105469 3 355 3.894531 355 5 L 355 13 C 355 14.105469 354.105469 15 353 15 L 330 15 C 328.894531 15 328 14.105469 328 13 Z M 328 5 "/>
<path style="fill:none;stroke-width:1.5;stroke-linecap:butt;stroke-linejoin:miter;stroke:rgb(38.039216%,50.588235%,100%);stroke-opacity:1;stroke-miterlimit:10;" d="M 0 2 C 0 0.894531 0.894531 0 2 0 L 25 0 C 26.105469 0 27 0.894531 27 2 L 27 10 C 27 11.105469 26.105469 12 25 12 L 2 12 C 0.894531 12 0 11.105469 0 10 Z M 0 2 " transform="matrix(1,0,0,1,328,17)"/>
<path style=" stroke:none;fill-rule:nonzero;fill:rgb(38.039216%,50.588235%,100%);fill-opacity:0.490196;" d="M 328 19 C 328 17.894531 328.894531 17 330 17 L 353 17 C 354.105469 17 355 17.894531 355 19 L 355 27 C 355 28.105469 354.105469 29 353 29 L 330 29 C 328.894531 29 328 28.105469 328 27 Z M 328 19 "/>
<path style="fill:none;stroke-width:1.5;stroke-linecap:butt;stroke-linejoin:miter;stroke:rgb(38.039216%,50.588235%,100%);stroke-opacity:1;stroke-miterlimit:10;" d="M 0 2 C 0 0.894531 0.894531 0 2 0 L 25 0 C 26.105469 0 27 0.894531 27 2 L 27 10 C 27 11.105469 26.105469 12 25 12 L 2 12 C 0.894531 12 0 11.105469 0 10 Z M 0 2 " transform="matrix(1,0,0,1,328,31)"/>
<path style=" stroke:none;fill-rule:nonzero;fill:rgb(38.039216%,50.588235%,100%);fill-opacity:0.490196;" d="M 328 33 C 328 31.894531 328.894531 31 330 31 L 353 31 C 354.105469 31 355 31.894531 355 33 L 355 41 C 355 42.105469 354.105469 43 353 43 L 330 43 C 328.894531 43 328 42.105469 328 41 Z M 328 33 "/>
</g>
</svg>
