<?xml version="1.0" encoding="UTF-8"?>
<svg xmlns="http://www.w3.org/2000/svg" xmlns:xlink="http://www.w3.org/1999/xlink" width="286pt" height="222pt" viewBox="0 0 286 222" version="1.1">
<g id="surface2">
<path style="fill:none;stroke-width:1.5;stroke-linecap:butt;stroke-linejoin:miter;stroke:rgb(0%,0%,0%);stroke-opacity:0.266667;stroke-dasharray:10,4;stroke-dashoffset:1;stroke-miterlimit:10;" d="M 0.75 0.75 L 63.25 0.75 L 63.25 47.25 L 0.75 47.25 Z M 0.75 0.75 "/>
<path style="fill:none;stroke-width:1.5;stroke-linecap:butt;stroke-linejoin:miter;stroke:rgb(0%,0%,0%);stroke-opacity:0.2;stroke-dasharray:10,4;stroke-dashoffset:1;stroke-miterlimit:10;" d="M 3 3 L 61 3 L 61 45 L 3 45 Z M 3 3 "/>
<path style="fill:none;stroke-width:1.5;stroke-linecap:butt;stroke-linejoin:miter;stroke:rgb(0%,0%,0%);stroke-opacity:0.266667;stroke-dasharray:10,4;stroke-dashoffset:1;stroke-miterlimit:10;" d="M 74.75 0.75 L 137.25 0.75 L 137.25 47.25 L 74.75 47.25 Z M 74.75 0.75 "/>
<path style="fill:none;stroke-width:1.5;stroke-linecap:butt;stroke-linejoin:miter;stroke:rgb(0%,0%,0%);stroke-opacity:0.2;stroke-dasharray:10,4;stroke-dashoffset:1;stroke-miterlimit:10;" d="M 77 3 L 135 3 L 135 45 L 77 45 Z M 77 3 "/>
<path style="fill:none;stroke-width:1.5;stroke-linecap:butt;stroke-linejoin:miter;stroke:rgb(0%,0%,0%);stroke-opacity:0.266667;stroke-dasharray:10,4;stroke-dashoffset:1;stroke-miterlimit:10;" d="M 148.75 0.75 L 211.25 0.75 L 211.25 47.25 L 148.75 47.25 Z M 148.75 0.75 "/>
<path style="fill:none;stroke-width:1.5;stroke-linecap:butt;stroke-linejoin:miter;stroke:rgb(0%,0%,0%);stroke-opacity:0.2;stroke-dasharray:10,4;stroke-dashoffset:1;stroke-miterlimit:10;" d="M 151 3 L 209 3 L 209 45 L 151 45 Z M 151 3 "/>
<path style="fill:none;stroke-width:1.5;stroke-linecap:butt;stroke-linejoin:miter;stroke:rgb(0%,0%,0%);stroke-opacity:0.266667;stroke-dasharray:10,4;stroke-dashoffset:1;stroke-miterlimit:10;" d="M 222.75 0.75 L 285.25 0.75 L 285.25 47.25 L 222.75 47.25 Z M 222.75 0.75 "/>
<path style="fill:none;stroke-width:1.5;stroke-linecap:butt;stroke-linejoin:miter;stroke:rgb(0%,0%,0%);stroke-opacity:0.2;stroke-dasharray:10,4;stroke-dashoffset:1;stroke-miterlimit:10;" d="M 225 3 L 283 3 L 283 45 L 225 45 Z M 225 3 "/>
<path style="fill:none;stroke-width:1.5;stroke-linecap:butt;stroke-linejoin:miter;stroke:rgb(0%,0%,0%);stroke-opacity:0.266667;stroke-dasharray:10,4;stroke-dashoffset:1;stroke-miterlimit:10;" d="M 0.75 58.75 L 63.25 58.75 L 63.25 105.25 L 0.75 105.25 Z M 0.75 58.75 "/>
<path style="fill:none;stroke-width:1.5;stroke-linecap:butt;stroke-linejoin:miter;stroke:rgb(0%,0%,0%);stroke-opacity:0.2;stroke-dasharray:10,4;stroke-dashoffset:1;stroke-miterlimit:10;" d="M 3 61 L 61 61 L 61 103 L 3 103 Z M 3 61 "/>
<path style="fill:none;stroke-width:1.5;stroke-linecap:butt;stroke-linejoin:miter;stroke:rgb(0%,0%,0%);stroke-opacity:0.266667;stroke-dasharray:10,4;stroke-dashoffset:1;stroke-miterlimit:10;" d="M 74.75 58.75 L 137.25 58.75 L 137.25 105.25 L 74.75 105.25 Z M 74.75 58.75 "/>
<path style="fill:none;stroke-width:1.5;stroke-linecap:butt;stroke-linejoin:miter;stroke:rgb(0%,0%,0%);stroke-opacity:0.2;stroke-dasharray:10,4;stroke-dashoffset:1;stroke-miterlimit:10;" d="M 77 61 L 135 61 L 135 103 L 77 103 Z M 77 61 "/>
<path style="fill:none;stroke-width:1.5;stroke-linecap:butt;stroke-linejoin:miter;stroke:rgb(0%,0%,0%);stroke-opacity:0.266667;stroke-dasharray:10,4;stroke-dashoffset:1;stroke-miterlimit:10;" d="M 148.75 58.75 L 211.25 58.75 L 211.25 105.25 L 148.75 105.25 Z M 148.75 58.75 "/>
<path style="fill:none;stroke-width:1.5;stroke-linecap:butt;stroke-linejoin:miter;stroke:rgb(0%,0%,0%);stroke-opacity:0.2;stroke-dasharray:10,4;stroke-dashoffset:1;stroke-miterlimit:10;" d="M 151 61 L 209 61 L 209 103 L 151 103 Z M 151 61 "/>
<path style="fill:none;stroke-width:1.5;stroke-linecap:butt;stroke-linejoin:miter;stroke:rgb(0%,0%,0%);stroke-opacity:0.266667;stroke-dasharray:10,4;stroke-dashoffset:1;stroke-miterlimit:10;" d="M 222.75 58.75 L 285.25 58.75 L 285.25 105.25 L 222.75 105.25 Z M 222.75 58.75 "/>
<path style="fill:none;stroke-width:1.5;stroke-linecap:butt;stroke-linejoin:miter;stroke:rgb(0%,0%,0%);stroke-opacity:0.2;stroke-dasharray:10,4;stroke-dashoffset:1;stroke-miterlimit:10;" d="M 225 61 L 283 61 L 283 103 L 225 103 Z M 225 61 "/>
<path style="fill:none;stroke-width:1.5;stroke-linecap:butt;stroke-linejoin:miter;stroke:rgb(0%,0%,0%);stroke-opacity:0.266667;stroke-dasharray:10,4;stroke-dashoffset:1;stroke-miterlimit:10;" d="M 0.75 116.75 L 63.25 116.75 L 63.25 163.25 L 0.75 163.25 Z M 0.75 116.75 "/>
<path style="fill:none;stroke-width:1.5;stroke-linecap:butt;stroke-linejoin:miter;stroke:rgb(0%,0%,0%);stroke-opacity:0.2;stroke-dasharray:10,4;stroke-dashoffset:1;stroke-miterlimit:10;" d="M 3 119 L 61 119 L 61 161 L 3 161 Z M 3 119 "/>
<path style="fill:none;stroke-width:1.5;stroke-linecap:butt;stroke-linejoin:miter;stroke:rgb(0%,0%,0%);stroke-opacity:0.266667;stroke-dasharray:10,4;stroke-dashoffset:1;stroke-miterlimit:10;" d="M 74.75 116.75 L 137.25 116.75 L 137.25 163.25 L 74.75 163.25 Z M 74.75 116.75 "/>
<path style="fill:none;stroke-width:1.5;stroke-linecap:butt;stroke-linejoin:miter;stroke:rgb(0%,0%,0%);stroke-opacity:0.2;stroke-dasharray:10,4;stroke-dashoffset:1;stroke-miterlimit:10;" d="M 77 119 L 135 119 L 135 161 L 77 161 Z M 77 119 "/>
<path style="fill:none;stroke-width:1.5;stroke-linecap:butt;stroke-linejoin:miter;stroke:rgb(0%,0%,0%);stroke-opacity:0.266667;stroke-dasharray:10,4;stroke-dashoffset:1;stroke-miterlimit:10;" d="M 148.75 116.75 L 211.25 116.75 L 211.25 163.25 L 148.75 163.25 Z M 148.75 116.75 "/>
<path style="fill:none;stroke-width:1.5;stroke-linecap:butt;stroke-linejoin:miter;stroke:rgb(0%,0%,0%);stroke-opacity:0.2;stroke-dasharray:10,4;stroke-dashoffset:1;stroke-miterlimit:10;" d="M 151 119 L 209 119 L 209 161 L 151 161 Z M 151 119 "/>
<path style="fill:none;stroke-width:1.5;stroke-linecap:butt;stroke-linejoin:miter;stroke:rgb(0%,0%,0%);stroke-opacity:0.266667;stroke-dasharray:10,4;stroke-dashoffset:1;stroke-miterlimit:10;" d="M 222.75 116.75 L 285.25 116.75 L 285.25 163.25 L 222.75 163.25 Z M 222.75 116.75 "/>
<path style="fill:none;stroke-width:1.5;stroke-linecap:butt;stroke-linejoin:miter;stroke:rgb(0%,0%,0%);stroke-opacity:0.2;stroke-dasharray:10,4;stroke-dashoffset:1;stroke-miterlimit:10;" d="M 225 119 L 283 119 L 283 161 L 225 161 Z M 225 119 "/>
<path style="fill:none;stroke-width:1.5;stroke-linecap:butt;stroke-linejoin:miter;stroke:rgb(0%,0%,0%);stroke-opacity:0.266667;stroke-dasharray:10,4;stroke-dashoffset:1;stroke-miterlimit:10;" d="M 0.75 174.75 L 63.25 174.75 L 63.25 221.25 L 0.75 221.25 Z M 0.75 174.75 "/>
<path style="fill:none;stroke-width:1.5;stroke-linecap:butt;stroke-linejoin:miter;stroke:rgb(0%,0%,0%);stroke-opacity:0.2;stroke-dasharray:10,4;stroke-dashoffset:1;stroke-miterlimit:10;" d="M 3 177 L 61 177 L 61 219 L 3 219 Z M 3 177 "/>
<path style="fill:none;stroke-width:1.5;stroke-linecap:butt;stroke-linejoin:miter;stroke:rgb(0%,0%,0%);stroke-opacity:0.266667;stroke-dasharray:10,4;stroke-dashoffset:1;stroke-miterlimit:10;" d="M 74.75 174.75 L 137.25 174.75 L 137.25 221.25 L 74.75 221.25 Z M 74.75 174.75 "/>
<path style="fill:none;stroke-width:1.5;stroke-linecap:butt;stroke-linejoin:miter;stroke:rgb(0%,0%,0%);stroke-opacity:0.2;stroke-dasharray:10,4;stroke-dashoffset:1;stroke-miterlimit:10;" d="M 77 177 L 135 177 L 135 219 L 77 219 Z M 77 177 "/>
<path style="fill:none;stroke-width:1.5;stroke-linecap:butt;stroke-linejoin:miter;stroke:rgb(0%,0%,0%);stroke-opacity:0.266667;stroke-dasharray:10,4;stroke-dashoffset:1;stroke-miterlimit:10;" d="M 148.75 174.75 L 211.25 174.75 L 211.25 221.25 L 148.75 221.25 Z M 148.75 174.75 "/>
<path style="fill:none;stroke-width:1.5;stroke-linecap:butt;stroke-linejoin:miter;stroke:rgb(0%,0%,0%);stroke-opacity:0.2;stroke-dasharray:10,4;stroke-dashoffset:1;stroke-miterlimit:10;" d="M 151 177 L 209 177 L 209 219 L 151 219 Z M 151 177 "/>
<path style="fill:none;stroke-width:1.5;stroke-linecap:butt;stroke-linejoin:miter;stroke:rgb(0%,0%,0%);stroke-opacity:0.266667;stroke-dasharray:10,4;stroke-dashoffset:1;stroke-miterlimit:10;" d="M 222.75 174.75 L 285.25 174.75 L 285.25 221.25 L 222.75 221.25 Z M 222.75 174.75 "/>
<path style="fill:none;stroke-width:1.5;stroke-linecap:butt;stroke-linejoin:miter;stroke:rgb(0%,0%,0%);stroke-opacity:0.2;stroke-dasharray:10,4;stroke-dashoffset:1;stroke-miterlimit:10;" d="M 225 177 L 283 177 L 283 219 L 225 219 Z M 225 177 "/>
<path style="fill:none;stroke-width:1.5;stroke-linecap:butt;stroke-linejoin:miter;stroke:rgb(38.039216%,50.588235%,100%);stroke-opacity:1;stroke-miterlimit:10;" d="M 0 2 C 0 0.894531 0.894531 0 2 0 L 54 0 C 55.105469 0 56 0.894531 56 2 L 56 38 C 56 39.105469 55.105469 40 54 40 L 2 40 C 0.894531 40 0 39.105469 0 38 Z M 0 2 " transform="matrix(1,0,0,1,3,3)"/>
<path style=" stroke:none;fill-rule:nonzero;fill:rgb(38.039216%,50.588235%,100%);fill-opacity:0.490196;" d="M 3 5 C 3 3.894531 3.894531 3 5 3 L 57 3 C 58.105469 3 59 3.894531 59 5 L 59 41 C 59 42.105469 58.105469 43 57 43 L 5 43 C 3.894531 43 3 42.105469 3 41 Z M 3 5 "/>
<path style="fill:none;stroke-width:1.5;stroke-linecap:butt;stroke-linejoin:miter;stroke:rgb(38.039216%,50.588235%,100%);stroke-opacity:1;stroke-miterlimit:10;" d="M 0 2 C 0 0.894531 0.894531 0 2 0 L 25 0 C 26.105469 0 27 0.894531 27 2 L 27 38 C 27 39.105469 26.105469 40 25 40 L 2 40 C 0.894531 40 0 39.105469 0 38 Z M 0 2 " transform="matrix(1,0,0,1,106,3)"/>
<path style=" stroke:none;fill-rule:nonzero;fill:rgb(38.039216%,50.588235%,100%);fill-opacity:0.490196;" d="M 106 5 C 106 3.894531 106.894531 3 108 3 L 131 3 C 132.105469 3 133 3.894531 133 5 L 133 41 C 133 42.105469 132.105469 43 131 43 L 108 43 C 106.894531 43 106 42.105469 106 41 Z M 106 5 "/>
<path style="fill:none;stroke-width:1.5;stroke-linecap:butt;stroke-linejoin:miter;stroke:rgb(38.039216%,50.588235%,100%);stroke-opacity:1;stroke-miterlimit:10;" d="M 0 2 C 0 0.894531 0.894531 0 2 0 L 25 0 C 26.105469 0 27 0.894531 27 2 L 27 38 C 27 39.105469 26.105469 40 25 40 L 2 40 C 0.894531 40 0 39.105469 0 38 Z M 0 2 " transform="matrix(1,0,0,1,77,3)"/>
<path style=" stroke:none;fill-rule:nonzero;fill:rgb(38.039216%,50.588235%,100%);fill-opacity:0.490196;" d="M 77 5 C 77 3.894531 77.894531 3 79 3 L 102 3 C 103.105469 3 104 3.894531 104 5 L 104 41 C 104 42.105469 103.105469 43 102 43 L 79 43 C 77.894531 43 77 42.105469 77 41 Z M 77 5 "/>
<path style="fill:none;stroke-width:1.5;stroke-linecap:butt;stroke-linejoin:miter;stroke:rgb(38.039216%,50.588235%,100%);stroke-opacity:1;stroke-miterlimit:10;" d="M 0 2 C 0 0.894531 0.894531 0 2 0 L 25 0 C 26.105469 0 27 0.894531 27 2 L 27 17 C 27 18.105469 26.105469 19 25 19 L 2 19 C 0.894531 19 0 18.105469 0 17 Z M 0 2 " transform="matrix(1,0,0,1,180,24)"/>
<path style=" stroke:none;fill-rule:nonzero;fill:rgb(38.039216%,50.588235%,100%);fill-opacity:0.490196;" d="M 180 26 C 180 24.894531 180.894531 24 182 24 L 205 24 C 206.105469 24 207 24.894531 207 26 L 207 41 C 207 42.105469 206.105469 43 205 43 L 182 43 C 180.894531 43 180 42.105469 180 41 Z M 180 26 "/>
<path style="fill:none;stroke-width:1.5;stroke-linecap:butt;stroke-linejoin:miter;stroke:rgb(38.039216%,50.588235%,100%);stroke-opacity:1;stroke-miterlimit:10;" d="M 0 2 C 0 0.894531 0.894531 0 2 0 L 25 0 C 26.105469 0 27 0.894531 27 2 L 27 17 C 27 18.105469 26.105469 19 25 19 L 2 19 C 0.894531 19 0 18.105469 0 17 Z M 0 2 " transform="matrix(1,0,0,1,180,3)"/>
<path style=" stroke:none;fill-rule:nonzero;fill:rgb(38.039216%,50.588235%,100%);fill-opacity:0.490196;" d="M 180 5 C 180 3.894531 180.894531 3 182 3 L 205 3 C 206.105469 3 207 3.894531 207 5 L 207 20 C 207 21.105469 206.105469 22 205 22 L 182 22 C 180.894531 22 180 21.105469 180 20 Z M 180 5 "/>
<path style="fill:none;stroke-width:1.5;stroke-linecap:butt;stroke-linejoin:miter;stroke:rgb(38.039216%,50.588235%,100%);stroke-opacity:1;stroke-miterlimit:10;" d="M 0 2 C 0 0.894531 0.894531 0 2 0 L 25 0 C 26.105469 0 27 0.894531 27 2 L 27 38 C 27 39.105469 26.105469 40 25 40 L 2 40 C 0.894531 40 0 39.105469 0 38 Z M 0 2 " transform="matrix(1,0,0,1,151,3)"/>
<path style=" stroke:none;fill-rule:nonzero;fill:rgb(38.039216%,50.588235%,100%);fill-opacity:0.490196;" d="M 151 5 C 151 3.894531 151.894531 3 153 3 L 176 3 C 177.105469 3 178 3.894531 178 5 L 178 41 C 178 42.105469 177.105469 43 176 43 L 153 43 C 151.894531 43 151 42.105469 151 41 Z M 151 5 "/>
<path style="fill:none;stroke-width:1.5;stroke-linecap:butt;stroke-linejoin:miter;stroke:rgb(38.039216%,50.588235%,100%);stroke-opacity:1;stroke-miterlimit:10;" d="M 0 2 C 0 0.894531 0.894531 0 2 0 L 25 0 C 26.105469 0 27 0.894531 27 2 L 27 10 C 27 11.105469 26.105469 12 25 12 L 2 12 C 0.894531 12 0 11.105469 0 10 Z M 0 2 " transform="matrix(1,0,0,1,254,31)"/>
<path style=" stroke:none;fill-rule:nonzero;fill:rgb(38.039216%,50.588235%,100%);fill-opacity:0.490196;" d="M 254 33 C 254 31.894531 254.894531 31 256 31 L 279 31 C 280.105469 31 281 31.894531 281 33 L 281 41 C 281 42.105469 280.105469 43 279 43 L 256 43 C 254.894531 43 254 42.105469 254 41 Z M 254 33 "/>
<path style="fill:none;stroke-width:1.5;stroke-linecap:butt;stroke-linejoin:miter;stroke:rgb(38.039216%,50.588235%,100%);stroke-opacity:1;stroke-miterlimit:10;" d="M 0 2 C 0 0.894531 0.894531 0 2 0 L 25 0 C 26.105469 0 27 0.894531 27 2 L 27 10 C 27 11.105469 26.105469 12 25 12 L 2 12 C 0.894531 12 0 11.105469 0 10 Z M 0 2 " transform="matrix(1,0,0,1,254,17)"/>
<path style=" stroke:none;fill-rule:nonzero;fill:rgb(38.039216%,50.588235%,100%);fill-opacity:0.490196;" d="M 254 19 C 254 17.894531 254.894531 17 256 17 L 279 17 C 280.105469 17 281 17.894531 281 19 L 281 27 C 281 28.105469 280.105469 29 279 29 L 256 29 C 254.894531 29 254 28.105469 254 27 Z M 254 19 "/>
<path style="fill:none;stroke-width:1.5;stroke-linecap:butt;stroke-linejoin:miter;stroke:rgb(38.039216%,50.588235%,100%);stroke-opacity:1;stroke-miterlimit:10;" d="M 0 2 C 0 0.894531 0.894531 0 2 0 L 25 0 C 26.105469 0 27 0.894531 27 2 L 27 10 C 27 11.105469 26.105469 12 25 12 L 2 12 C 0.894531 12 0 11.105469 0 10 Z M 0 2 " transform="matrix(1,0,0,1,254,3)"/>
<path style=" stroke:none;fill-rule:nonzero;fill:rgb(38.039216%,50.588235%,100%);fill-opacity:0.490196;" d="M 254 5 C 254 3.894531 254.894531 3 256 3 L 279 3 C 280.105469 3 281 3.894531 281 5 L 281 13 C 281 14.105469 280.105469 15 279 15 L 256 15 C 254.894531 15 254 14.105469 254 13 Z M 254 5 "/>
<path style="fill:none;stroke-width:1.5;stroke-linecap:butt;stroke-linejoin:miter;stroke:rgb(38.039216%,50.588235%,100%);stroke-opacity:1;stroke-miterlimit:10;" d="M 0 2 C 0 0.894531 0.894531 0 2 0 L 25 0 C 26.105469 0 27 0.894531 27 2 L 27 38 C 27 39.105469 26.105469 40 25 40 L 2 40 C 0.894531 40 0 39.105469 0 38 Z M 0 2 " transform="matrix(1,0,0,1,225,3)"/>
<path style=" stroke:none;fill-rule:nonzero;fill:rgb(38.039216%,50.588235%,100%);fill-opacity:0.490196;" d="M 225 5 C 225 3.894531 225.894531 3 227 3 L 250 3 C 251.105469 3 252 3.894531 252 5 L 252 41 C 252 42.105469 251.105469 43 250 43 L 227 43 C 225.894531 43 225 42.105469 225 41 Z M 225 5 "/>
<path style="fill:none;stroke-width:1.5;stroke-linecap:butt;stroke-linejoin:miter;stroke:rgb(38.039216%,50.588235%,100%);stroke-opacity:1;stroke-miterlimit:10;" d="M 0 2 C 0 0.894531 0.894531 0 2 0 L 54 0 C 55.105469 0 56 0.894531 56 2 L 56 38 C 56 39.105469 55.105469 40 54 40 L 2 40 C 0.894531 40 0 39.105469 0 38 Z M 0 2 " transform="matrix(1,0,0,1,3,61)"/>
<path style=" stroke:none;fill-rule:nonzero;fill:rgb(38.039216%,50.588235%,100%);fill-opacity:0.490196;" d="M 3 63 C 3 61.894531 3.894531 61 5 61 L 57 61 C 58.105469 61 59 61.894531 59 63 L 59 99 C 59 100.105469 58.105469 101 57 101 L 5 101 C 3.894531 101 3 100.105469 3 99 Z M 3 63 "/>
<path style="fill:none;stroke-width:1.5;stroke-linecap:butt;stroke-linejoin:miter;stroke:rgb(38.039216%,50.588235%,100%);stroke-opacity:1;stroke-miterlimit:10;" d="M 0 2 C 0 0.894531 0.894531 0 2 0 L 54 0 C 55.105469 0 56 0.894531 56 2 L 56 17 C 56 18.105469 55.105469 19 54 19 L 2 19 C 0.894531 19 0 18.105469 0 17 Z M 0 2 " transform="matrix(1,0,0,1,77,61)"/>
<path style=" stroke:none;fill-rule:nonzero;fill:rgb(38.039216%,50.588235%,100%);fill-opacity:0.490196;" d="M 77 63 C 77 61.894531 77.894531 61 79 61 L 131 61 C 132.105469 61 133 61.894531 133 63 L 133 78 C 133 79.105469 132.105469 80 131 80 L 79 80 C 77.894531 80 77 79.105469 77 78 Z M 77 63 "/>
<path style="fill:none;stroke-width:1.5;stroke-linecap:butt;stroke-linejoin:miter;stroke:rgb(38.039216%,50.588235%,100%);stroke-opacity:1;stroke-miterlimit:10;" d="M 0 2 C 0 0.894531 0.894531 0 2 0 L 54 0 C 55.105469 0 56 0.894531 56 2 L 56 17 C 56 18.105469 55.105469 19 54 19 L 2 19 C 0.894531 19 0 18.105469 0 17 Z M 0 2 " transform="matrix(1,0,0,1,77,82)"/>
<path style=" stroke:none;fill-rule:nonzero;fill:rgb(38.039216%,50.588235%,100%);fill-opacity:0.490196;" d="M 77 84 C 77 82.894531 77.894531 82 79 82 L 131 82 C 132.105469 82 133 82.894531 133 84 L 133 99 C 133 100.105469 132.105469 101 131 101 L 79 101 C 77.894531 101 77 100.105469 77 99 Z M 77 84 "/>
<path style="fill:none;stroke-width:1.5;stroke-linecap:butt;stroke-linejoin:miter;stroke:rgb(38.039216%,50.588235%,100%);stroke-opacity:1;stroke-miterlimit:10;" d="M 0 2 C 0 0.894531 0.894531 0 2 0 L 25 0 C 26.105469 0 27 0.894531 27 2 L 27 17 C 27 18.105469 26.105469 19 25 19 L 2 19 C 0.894531 19 0 18.105469 0 17 Z M 0 2 " transform="matrix(1,0,0,1,151,61)"/>
<path style=" stroke:none;fill-rule:nonzero;fill:rgb(38.039216%,50.588235%,100%);fill-opacity:0.490196;" d="M 151 63 C 151 61.894531 151.894531 61 153 61 L 176 61 C 177.105469 61 178 61.894531 178 63 L 178 78 C 178 79.105469 177.105469 80 176 80 L 153 80 C 151.894531 80 151 79.105469 151 78 Z M 151 63 "/>
<path style="fill:none;stroke-width:1.5;stroke-linecap:butt;stroke-linejoin:miter;stroke:rgb(38.039216%,50.588235%,100%);stroke-opacity:1;stroke-miterlimit:10;" d="M 0 2 C 0 0.894531 0.894531 0 2 0 L 25 0 C 26.105469 0 27 0.894531 27 2 L 27 17 C 27 18.105469 26.105469 19 25 19 L 2 19 C 0.894531 19 0 18.105469 0 17 Z M 0 2 " transform="matrix(1,0,0,1,151,82)"/>
<path style=" stroke:none;fill-rule:nonzero;fill:rgb(38.039216%,50.588235%,100%);fill-opacity:0.490196;" d="M 151 84 C 151 82.894531 151.894531 82 153 82 L 176 82 C 177.105469 82 178 82.894531 178 84 L 178 99 C 178 100.105469 177.105469 101 176 101 L 153 101 C 151.894531 101 151 100.105469 151 99 Z M 151 84 "/>
<path style="fill:none;stroke-width:1.5;stroke-linecap:butt;stroke-linejoin:miter;stroke:rgb(38.039216%,50.588235%,100%);stroke-opacity:1;stroke-miterlimit:10;" d="M 0 2 C 0 0.894531 0.894531 0 2 0 L 25 0 C 26.105469 0 27 0.894531 27 2 L 27 38 C 27 39.105469 26.105469 40 25 40 L 2 40 C 0.894531 40 0 39.105469 0 38 Z M 0 2 " transform="matrix(1,0,0,1,180,61)"/>
<path style=" stroke:none;fill-rule:nonzero;fill:rgb(38.039216%,50.588235%,100%);fill-opacity:0.490196;" d="M 180 63 C 180 61.894531 180.894531 61 182 61 L 205 61 C 206.105469 61 207 61.894531 207 63 L 207 99 C 207 100.105469 206.105469 101 205 101 L 182 101 C 180.894531 101 180 100.105469 180 99 Z M 180 63 "/>
<path style="fill:none;stroke-width:1.5;stroke-linecap:butt;stroke-linejoin:miter;stroke:rgb(38.039216%,50.588235%,100%);stroke-opacity:1;stroke-miterlimit:10;" d="M 0 2 C 0 0.894531 0.894531 0 2 0 L 25 0 C 26.105469 0 27 0.894531 27 2 L 27 10 C 27 11.105469 26.105469 12 25 12 L 2 12 C 0.894531 12 0 11.105469 0 10 Z M 0 2 " transform="matrix(1,0,0,1,225,75)"/>
<path style=" stroke:none;fill-rule:nonzero;fill:rgb(38.039216%,50.588235%,100%);fill-opacity:0.490196;" d="M 225 77 C 225 75.894531 225.894531 75 227 75 L 250 75 C 251.105469 75 252 75.894531 252 77 L 252 85 C 252 86.105469 251.105469 87 250 87 L 227 87 C 225.894531 87 225 86.105469 225 85 Z M 225 77 "/>
<path style="fill:none;stroke-width:1.5;stroke-linecap:butt;stroke-linejoin:miter;stroke:rgb(38.039216%,50.588235%,100%);stroke-opacity:1;stroke-miterlimit:10;" d="M 0 2 C 0 0.894531 0.894531 0 2 0 L 25 0 C 26.105469 0 27 0.894531 27 2 L 27 10 C 27 11.105469 26.105469 12 25 12 L 2 12 C 0.894531 12 0 11.105469 0 10 Z M 0 2 " transform="matrix(1,0,0,1,225,89)"/>
<path style=" stroke:none;fill-rule:nonzero;fill:rgb(38.039216%,50.588235%,100%);fill-opacity:0.490196;" d="M 225 91 C 225 89.894531 225.894531 89 227 89 L 250 89 C 251.105469 89 252 89.894531 252 91 L 252 99 C 252 100.105469 251.105469 101 250 101 L 227 101 C 225.894531 101 225 100.105469 225 99 Z M 225 91 "/>
<path style="fill:none;stroke-width:1.5;stroke-linecap:butt;stroke-linejoin:miter;stroke:rgb(38.039216%,50.588235%,100%);stroke-opacity:1;stroke-miterlimit:10;" d="M 0 2 C 0 0.894531 0.894531 0 2 0 L 25 0 C 26.105469 0 27 0.894531 27 2 L 27 10 C 27 11.105469 26.105469 12 25 12 L 2 12 C 0.894531 12 0 11.105469 0 10 Z M 0 2 " transform="matrix(1,0,0,1,225,61)"/>
<path style=" stroke:none;fill-rule:nonzero;fill:rgb(38.039216%,50.588235%,100%);fill-opacity:0.490196;" d="M 225 63 C 225 61.894531 225.894531 61 227 61 L 250 61 C 251.105469 61 252 61.894531 252 63 L 252 71 C 252 72.105469 251.105469 73 250 73 L 227 73 C 225.894531 73 225 72.105469 225 71 Z M 225 63 "/>
<path style="fill:none;stroke-width:1.5;stroke-linecap:butt;stroke-linejoin:miter;stroke:rgb(38.039216%,50.588235%,100%);stroke-opacity:1;stroke-miterlimit:10;" d="M 0 2 C 0 0.894531 0.894531 0 2 0 L 25 0 C 26.105469 0 27 0.894531 27 2 L 27 38 C 27 39.105469 26.105469 40 25 40 L 2 40 C 0.894531 40 0 39.105469 0 38 Z M 0 2 " transform="matrix(1,0,0,1,254,61)"/>
<path style=" stroke:none;fill-rule:nonzero;fill:rgb(38.039216%,50.588235%,100%);fill-opacity:0.490196;" d="M 254 63 C 254 61.894531 254.894531 61 256 61 L 279 61 C 280.105469 61 281 61.894531 281 63 L 281 99 C 281 100.105469 280.105469 101 279 101 L 256 101 C 254.894531 101 254 100.105469 254 99 Z M 254 63 "/>
<path style="fill:none;stroke-width:1.5;stroke-linecap:butt;stroke-linejoin:miter;stroke:rgb(38.039216%,50.588235%,100%);stroke-opacity:1;stroke-miterlimit:10;" d="M 0 2 C 0 0.894531 0.894531 0 2 0 L 54 0 C 55.105469 0 56 0.894531 56 2 L 56 38 C 56 39.105469 55.105469 40 54 40 L 2 40 C 0.894531 40 0 39.105469 0 38 Z M 0 2 " transform="matrix(1,0,0,1,3,119)"/>
<path style=" stroke:none;fill-rule:nonzero;fill:rgb(38.039216%,50.588235%,100%);fill-opacity:0.490196;" d="M 3 121 C 3 119.894531 3.894531 119 5 119 L 57 119 C 58.105469 119 59 119.894531 59 121 L 59 157 C 59 158.105469 58.105469 159 57 159 L 5 159 C 3.894531 159 3 158.105469 3 157 Z M 3 121 "/>
<path style="fill:none;stroke-width:1.5;stroke-linecap:butt;stroke-linejoin:miter;stroke:rgb(38.039216%,50.588235%,100%);stroke-opacity:1;stroke-miterlimit:10;" d="M 0 2 C 0 0.894531 0.894531 0 2 0 L 25 0 C 26.105469 0 27 0.894531 27 2 L 27 38 C 27 39.105469 26.105469 40 25 40 L 2 40 C 0.894531 40 0 39.105469 0 38 Z M 0 2 " transform="matrix(1,0,0,1,77,119)"/>
<path style=" stroke:none;fill-rule:nonzero;fill:rgb(38.039216%,50.588235%,100%);fill-opacity:0.490196;" d="M 77 121 C 77 119.894531 77.894531 119 79 119 L 102 119 C 103.105469 119 104 119.894531 104 121 L 104 157 C 104 158.105469 103.105469 159 102 159 L 79 159 C 77.894531 159 77 158.105469 77 157 Z M 77 121 "/>
<path style="fill:none;stroke-width:1.5;stroke-linecap:butt;stroke-linejoin:miter;stroke:rgb(38.039216%,50.588235%,100%);stroke-opacity:1;stroke-miterlimit:10;" d="M 0 2 C 0 0.894531 0.894531 0 2 0 L 25 0 C 26.105469 0 27 0.894531 27 2 L 27 38 C 27 39.105469 26.105469 40 25 40 L 2 40 C 0.894531 40 0 39.105469 0 38 Z M 0 2 " transform="matrix(1,0,0,1,106,119)"/>
<path style=" stroke:none;fill-rule:nonzero;fill:rgb(38.039216%,50.588235%,100%);fill-opacity:0.490196;" d="M 106 121 C 106 119.894531 106.894531 119 108 119 L 131 119 C 132.105469 119 133 119.894531 133 121 L 133 157 C 133 158.105469 132.105469 159 131 159 L 108 159 C 106.894531 159 106 158.105469 106 157 Z M 106 121 "/>
<path style="fill:none;stroke-width:1.5;stroke-linecap:butt;stroke-linejoin:miter;stroke:rgb(38.039216%,50.588235%,100%);stroke-opacity:1;stroke-miterlimit:10;" d="M 0 2 C 0 0.894531 0.894531 0 2 0 L 25 0 C 26.105469 0 27 0.894531 27 2 L 27 17 C 27 18.105469 26.105469 19 25 19 L 2 19 C 0.894531 19 0 18.105469 0 17 Z M 0 2 " transform="matrix(1,0,0,1,151,119)"/>
<path style=" stroke:none;fill-rule:nonzero;fill:rgb(38.039216%,50.588235%,100%);fill-opacity:0.490196;" d="M 151 121 C 151 119.894531 151.894531 119 153 119 L 176 119 C 177.105469 119 178 119.894531 178 121 L 178 136 C 178 137.105469 177.105469 138 176 138 L 153 138 C 151.894531 138 151 137.105469 151 136 Z M 151 121 "/>
<path style="fill:none;stroke-width:1.5;stroke-linecap:butt;stroke-linejoin:miter;stroke:rgb(38.039216%,50.588235%,100%);stroke-opacity:1;stroke-miterlimit:10;" d="M 0 2 C 0 0.894531 0.894531 0 2 0 L 25 0 C 26.105469 0 27 0.894531 27 2 L 27 17 C 27 18.105469 26.105469 19 25 19 L 2 19 C 0.894531 19 0 18.105469 0 17 Z M 0 2 " transform="matrix(1,0,0,1,180,119)"/>
<path style=" stroke:none;fill-rule:nonzero;fill:rgb(38.039216%,50.588235%,100%);fill-opacity:0.490196;" d="M 180 121 C 180 119.894531 180.894531 119 182 119 L 205 119 C 206.105469 119 207 119.894531 207 121 L 207 136 C 207 137.105469 206.105469 138 205 138 L 182 138 C 180.894531 138 180 137.105469 180 136 Z M 180 121 "/>
<path style="fill:none;stroke-width:1.5;stroke-linecap:butt;stroke-linejoin:miter;stroke:rgb(38.039216%,50.588235%,100%);stroke-opacity:1;stroke-miterlimit:10;" d="M 0 2 C 0 0.894531 0.894531 0 2 0 L 54 0 C 55.105469 0 56 0.894531 56 2 L 56 17 C 56 18.105469 55.105469 19 54 19 L 2 19 C 0.894531 19 0 18.105469 0 17 Z M 0 2 " transform="matrix(1,0,0,1,151,140)"/>
<path style=" stroke:none;fill-rule:nonzero;fill:rgb(38.039216%,50.588235%,100%);fill-opacity:0.490196;" d="M 151 142 C 151 140.894531 151.894531 140 153 140 L 205 140 C 206.105469 140 207 140.894531 207 142 L 207 157 C 207 158.105469 206.105469 159 205 159 L 153 159 C 151.894531 159 151 158.105469 151 157 Z M 151 142 "/>
<path style="fill:none;stroke-width:1.5;stroke-linecap:butt;stroke-linejoin:miter;stroke:rgb(38.039216%,50.588235%,100%);stroke-opacity:1;stroke-miterlimit:10;" d="M 0 2 C 0 0.894531 0.894531 0 2 0 L 15 0 C 16.105469 0 17 0.894531 17 2 L 17 17 C 17 18.105469 16.105469 19 15 19 L 2 19 C 0.894531 19 0 18.105469 0 17 Z M 0 2 " transform="matrix(1,0,0,1,244,119)"/>
<path style=" stroke:none;fill-rule:nonzero;fill:rgb(38.039216%,50.588235%,100%);fill-opacity:0.490196;" d="M 244 121 C 244 119.894531 244.894531 119 246 119 L 259 119 C 260.105469 119 261 119.894531 261 121 L 261 136 C 261 137.105469 260.105469 138 259 138 L 246 138 C 244.894531 138 244 137.105469 244 136 Z M 244 121 "/>
<path style="fill:none;stroke-width:1.5;stroke-linecap:butt;stroke-linejoin:miter;stroke:rgb(38.039216%,50.588235%,100%);stroke-opacity:1;stroke-miterlimit:10;" d="M 0 2 C 0 0.894531 0.894531 0 2 0 L 15 0 C 16.105469 0 17 0.894531 17 2 L 17 17 C 17 18.105469 16.105469 19 15 19 L 2 19 C 0.894531 19 0 18.105469 0 17 Z M 0 2 " transform="matrix(1,0,0,1,263,119)"/>
<path style=" stroke:none;fill-rule:nonzero;fill:rgb(38.039216%,50.588235%,100%);fill-opacity:0.490196;" d="M 263 121 C 263 119.894531 263.894531 119 265 119 L 278 119 C 279.105469 119 280 119.894531 280 121 L 280 136 C 280 137.105469 279.105469 138 278 138 L 265 138 C 263.894531 138 263 137.105469 263 136 Z M 263 121 "/>
<path style="fill:none;stroke-width:1.5;stroke-linecap:butt;stroke-linejoin:miter;stroke:rgb(38.039216%,50.588235%,100%);stroke-opacity:1;stroke-miterlimit:10;" d="M 0 2 C 0 0.894531 0.894531 0 2 0 L 15 0 C 16.105469 0 17 0.894531 17 2 L 17 17 C 17 18.105469 16.105469 19 15 19 L 2 19 C 0.894531 19 0 18.105469 0 17 Z M 0 2 " transform="matrix(1,0,0,1,225,119)"/>
<path style=" stroke:none;fill-rule:nonzero;fill:rgb(38.039216%,50.588235%,100%);fill-opacity:0.490196;" d="M 225 121 C 225 119.894531 225.894531 119 227 119 L 240 119 C 241.105469 119 242 119.894531 242 121 L 242 136 C 242 137.105469 241.105469 138 240 138 L 227 138 C 225.894531 138 225 137.105469 225 136 Z M 225 121 "/>
<path style="fill:none;stroke-width:1.5;stroke-linecap:butt;stroke-linejoin:miter;stroke:rgb(38.039216%,50.588235%,100%);stroke-opacity:1;stroke-miterlimit:10;" d="M 0 2 C 0 0.894531 0.894531 0 2 0 L 54 0 C 55.105469 0 56 0.894531 56 2 L 56 17 C 56 18.105469 55.105469 19 54 19 L 2 19 C 0.894531 19 0 18.105469 0 17 Z M 0 2 " transform="matrix(1,0,0,1,225,140)"/>
<path style=" stroke:none;fill-rule:nonzero;fill:rgb(38.039216%,50.588235%,100%);fill-opacity:0.490196;" d="M 225 142 C 225 140.894531 225.894531 140 227 140 L 279 140 C 280.105469 140 281 140.894531 281 142 L 281 157 C 281 158.105469 280.105469 159 279 159 L 227 159 C 225.894531 159 225 158.105469 225 157 Z M 225 142 "/>
<path style="fill:none;stroke-width:1.5;stroke-linecap:butt;stroke-linejoin:miter;stroke:rgb(38.039216%,50.588235%,100%);stroke-opacity:1;stroke-miterlimit:10;" d="M 0 2 C 0 0.894531 0.894531 0 2 0 L 54 0 C 55.105469 0 56 0.894531 56 2 L 56 38 C 56 39.105469 55.105469 40 54 40 L 2 40 C 0.894531 40 0 39.105469 0 38 Z M 0 2 " transform="matrix(1,0,0,1,3,177)"/>
<path style=" stroke:none;fill-rule:nonzero;fill:rgb(38.039216%,50.588235%,100%);fill-opacity:0.490196;" d="M 3 179 C 3 177.894531 3.894531 177 5 177 L 57 177 C 58.105469 177 59 177.894531 59 179 L 59 215 C 59 216.105469 58.105469 217 57 217 L 5 217 C 3.894531 217 3 216.105469 3 215 Z M 3 179 "/>
<path style="fill:none;stroke-width:1.5;stroke-linecap:butt;stroke-linejoin:miter;stroke:rgb(38.039216%,50.588235%,100%);stroke-opacity:1;stroke-miterlimit:10;" d="M 0 2 C 0 0.894531 0.894531 0 2 0 L 54 0 C 55.105469 0 56 0.894531 56 2 L 56 17 C 56 18.105469 55.105469 19 54 19 L 2 19 C 0.894531 19 0 18.105469 0 17 Z M 0 2 " transform="matrix(1,0,0,1,77,198)"/>
<path style=" stroke:none;fill-rule:nonzero;fill:rgb(38.039216%,50.588235%,100%);fill-opacity:0.490196;" d="M 77 200 C 77 198.894531 77.894531 198 79 198 L 131 198 C 132.105469 198 133 198.894531 133 200 L 133 215 C 133 216.105469 132.105469 217 131 217 L 79 217 C 77.894531 217 77 216.105469 77 215 Z M 77 200 "/>
<path style="fill:none;stroke-width:1.5;stroke-linecap:butt;stroke-linejoin:miter;stroke:rgb(38.039216%,50.588235%,100%);stroke-opacity:1;stroke-miterlimit:10;" d="M 0 2 C 0 0.894531 0.894531 0 2 0 L 54 0 C 55.105469 0 56 0.894531 56 2 L 56 17 C 56 18.105469 55.105469 19 54 19 L 2 19 C 0.894531 19 0 18.105469 0 17 Z M 0 2 " transform="matrix(1,0,0,1,77,177)"/>
<path style=" stroke:none;fill-rule:nonzero;fill:rgb(38.039216%,50.588235%,100%);fill-opacity:0.490196;" d="M 77 179 C 77 177.894531 77.894531 177 79 177 L 131 177 C 132.105469 177 133 177.894531 133 179 L 133 194 C 133 195.105469 132.105469 196 131 196 L 79 196 C 77.894531 196 77 195.105469 77 194 Z M 77 179 "/>
<path style="fill:none;stroke-width:1.5;stroke-linecap:butt;stroke-linejoin:miter;stroke:rgb(38.039216%,50.588235%,100%);stroke-opacity:1;stroke-miterlimit:10;" d="M 0 2 C 0 0.894531 0.894531 0 2 0 L 25 0 C 26.105469 0 27 0.894531 27 2 L 27 17 C 27 18.105469 26.105469 19 25 19 L 2 19 C 0.894531 19 0 18.105469 0 17 Z M 0 2 " transform="matrix(1,0,0,1,180,198)"/>
<path style=" stroke:none;fill-rule:nonzero;fill:rgb(38.039216%,50.588235%,100%);fill-opacity:0.490196;" d="M 180 200 C 180 198.894531 180.894531 198 182 198 L 205 198 C 206.105469 198 207 198.894531 207 200 L 207 215 C 207 216.105469 206.105469 217 205 217 L 182 217 C 180.894531 217 180 216.105469 180 215 Z M 180 200 "/>
<path style="fill:none;stroke-width:1.5;stroke-linecap:butt;stroke-linejoin:miter;stroke:rgb(38.039216%,50.588235%,100%);stroke-opacity:1;stroke-miterlimit:10;" d="M 0 2 C 0 0.894531 0.894531 0 2 0 L 25 0 C 26.105469 0 27 0.894531 27 2 L 27 17 C 27 18.105469 26.105469 19 25 19 L 2 19 C 0.894531 19 0 18.105469 0 17 Z M 0 2 " transform="matrix(1,0,0,1,151,198)"/>
<path style=" stroke:none;fill-rule:nonzero;fill:rgb(38.039216%,50.588235%,100%);fill-opacity:0.490196;" d="M 151 200 C 151 198.894531 151.894531 198 153 198 L 176 198 C 177.105469 198 178 198.894531 178 200 L 178 215 C 178 216.105469 177.105469 217 176 217 L 153 217 C 151.894531 217 151 216.105469 151 215 Z M 151 200 "/>
<path style="fill:none;stroke-width:1.5;stroke-linecap:butt;stroke-linejoin:miter;stroke:rgb(38.039216%,50.588235%,100%);stroke-opacity:1;stroke-miterlimit:10;" d="M 0 2 C 0 0.894531 0.894531 0 2 0 L 54 0 C 55.105469 0 56 0.894531 56 2 L 56 17 C 56 18.105469 55.105469 19 54 19 L 2 19 C 0.894531 19 0 18.105469 0 17 Z M 0 2 " transform="matrix(1,0,0,1,151,177)"/>
<path style=" stroke:none;fill-rule:nonzero;fill:rgb(38.039216%,50.588235%,100%);fill-opacity:0.490196;" d="M 151 179 C 151 177.894531 151.894531 177 153 177 L 205 177 C 206.105469 177 207 177.894531 207 179 L 207 194 C 207 195.105469 206.105469 196 205 196 L 153 196 C 151.894531 196 151 195.105469 151 194 Z M 151 179 "/>
<path style="fill:none;stroke-width:1.5;stroke-linecap:butt;stroke-linejoin:miter;stroke:rgb(38.039216%,50.588235%,100%);stroke-opacity:1;stroke-miterlimit:10;" d="M 0 2 C 0 0.894531 0.894531 0 2 0 L 15 0 C 16.105469 0 17 0.894531 17 2 L 17 17 C 17 18.105469 16.105469 19 15 19 L 2 19 C 0.894531 19 0 18.105469 0 17 Z M 0 2 " transform="matrix(1,0,0,1,263,198)"/>
<path style=" stroke:none;fill-rule:nonzero;fill:rgb(38.039216%,50.588235%,100%);fill-opacity:0.490196;" d="M 263 200 C 263 198.894531 263.894531 198 265 198 L 278 198 C 279.105469 198 280 198.894531 280 200 L 280 215 C 280 216.105469 279.105469 217 278 217 L 265 217 C 263.894531 217 263 216.105469 263 215 Z M 263 200 "/>
<path style="fill:none;stroke-width:1.5;stroke-linecap:butt;stroke-linejoin:miter;stroke:rgb(38.039216%,50.588235%,100%);stroke-opacity:1;stroke-miterlimit:10;" d="M 0 2 C 0 0.894531 0.894531 0 2 0 L 15 0 C 16.105469 0 17 0.894531 17 2 L 17 17 C 17 18.105469 16.105469 19 15 19 L 2 19 C 0.894531 19 0 18.105469 0 17 Z M 0 2 " transform="matrix(1,0,0,1,244,198)"/>
<path style=" stroke:none;fill-rule:nonzero;fill:rgb(38.039216%,50.588235%,100%);fill-opacity:0.490196;" d="M 244 200 C 244 198.894531 244.894531 198 246 198 L 259 198 C 260.105469 198 261 198.894531 261 200 L 261 215 C 261 216.105469 260.105469 217 259 217 L 246 217 C 244.894531 217 244 216.105469 244 215 Z M 244 200 "/>
<path style="fill:none;stroke-width:1.5;stroke-linecap:butt;stroke-linejoin:miter;stroke:rgb(38.039216%,50.588235%,100%);stroke-opacity:1;stroke-miterlimit:10;" d="M 0 2 C 0 0.894531 0.894531 0 2 0 L 15 0 C 16.105469 0 17 0.894531 17 2 L 17 17 C 17 18.105469 16.105469 19 15 19 L 2 19 C 0.894531 19 0 18.105469 0 17 Z M 0 2 " transform="matrix(1,0,0,1,225,198)"/>
<path style=" stroke:none;fill-rule:nonzero;fill:rgb(38.039216%,50.588235%,100%);fill-opacity:0.490196;" d="M 225 200 C 225 198.894531 225.894531 198 227 198 L 240 198 C 241.105469 198 242 198.894531 242 200 L 242 215 C 242 216.105469 241.105469 217 240 217 L 227 217 C 225.894531 217 225 216.105469 225 215 Z M 225 200 "/>
<path style="fill:none;stroke-width:1.5;stroke-linecap:butt;stroke-linejoin:miter;stroke:rgb(38.039216%,50.588235%,100%);stroke-opacity:1;stroke-miterlimit:10;" d="M 0 2 C 0 0.894531 0.894531 0 2 0 L 54 0 C 55.105469 0 56 0.894531 56 2 L 56 17 C 56 18.105469 55.105469 19 54 19 L 2 19 C 0.894531 19 0 18.105469 0 17 Z M 0 2 " transform="matrix(1,0,0,1,225,177)"/>
<path style=" stroke:none;fill-rule:nonzero;fill:rgb(38.039216%,50.588235%,100%);fill-opacity:0.490196;" d="M 225 179 C 225 177.894531 225.894531 177 227 177 L 279 177 C 280.105469 177 281 177.894531 281 179 L 281 194 C 281 195.105469 280.105469 196 279 196 L 227 196 C 225.894531 196 225 195.105469 225 194 Z M 225 179 "/>
</g>
</svg>
