<?xml version="1.0" encoding="UTF-8"?>
<svg xmlns="http://www.w3.org/2000/svg" xmlns:xlink="http://www.w3.org/1999/xlink" width="320pt" height="240pt" viewBox="0 0 320 240" version="1.1">
<defs>
<clipPath id="clip1">
  <path d="M 11 11 L 309 11 L 309 64 L 11 64 Z M 11 11 "/>
</clipPath>
<clipPath id="clip2">
  <path d="M 11 16 C 11 13.238281 13.238281 11 16 11 L 304 11 C 306.761719 11 309 13.238281 309 16 L 309 59 C 309 61.761719 306.761719 64 304 64 L 16 64 C 13.238281 64 11 61.761719 11 59 Z M 11 16 "/>
</clipPath>
<clipPath id="clip3">
  <path d="M 11 66 L 309 66 L 309 119 L 11 119 Z M 11 66 "/>
</clipPath>
<clipPath id="clip4">
  <path d="M 11 71 C 11 68.238281 13.238281 66 16 66 L 304 66 C 306.761719 66 309 68.238281 309 71 L 309 114 C 309 116.761719 306.761719 119 304 119 L 16 119 C 13.238281 119 11 116.761719 11 114 Z M 11 71 "/>
</clipPath>
<clipPath id="clip5">
  <path d="M 11 121 L 309 121 L 309 174 L 11 174 Z M 11 121 "/>
</clipPath>
<clipPath id="clip6">
  <path d="M 11 126 C 11 123.238281 13.238281 121 16 121 L 304 121 C 306.761719 121 309 123.238281 309 126 L 309 169 C 309 171.761719 306.761719 174 304 174 L 16 174 C 13.238281 174 11 171.761719 11 169 Z M 11 126 "/>
</clipPath>
<clipPath id="clip7">
  <path d="M 11 176 L 309 176 L 309 229 L 11 229 Z M 11 176 "/>
</clipPath>
<clipPath id="clip8">
  <path d="M 11 181 C 11 178.238281 13.238281 176 16 176 L 304 176 C 306.761719 176 309 178.238281 309 181 L 309 224 C 309 226.761719 306.761719 229 304 229 L 16 229 C 13.238281 229 11 226.761719 11 224 Z M 11 181 "/>
</clipPath>
<clipPath id="clip9">
  <path d="M 66 66 L 254 66 L 254 174 L 66 174 Z M 66 66 "/>
</clipPath>
<clipPath id="clip10">
  <path d="M 66 71 C 66 68.238281 68.238281 66 71 66 L 249 66 C 251.761719 66 254 68.238281 254 71 L 254 169 C 254 171.761719 251.761719 174 249 174 L 71 174 C 68.238281 174 66 171.761719 66 169 Z M 66 71 "/>
</clipPath>
</defs>
<g id="surface2">
<path style="fill:none;stroke-width:1.5;stroke-linecap:butt;stroke-linejoin:miter;stroke:rgb(0%,0%,0%);stroke-opacity:0.266667;stroke-dasharray:10,4;stroke-dashoffset:1;stroke-miterlimit:10;" d="M 0.75 0.75 L 319.25 0.75 L 319.25 239.25 L 0.75 239.25 Z M 0.75 0.75 "/>
<path style="fill:none;stroke-width:1.5;stroke-linecap:butt;stroke-linejoin:miter;stroke:rgb(0%,0%,0%);stroke-opacity:0.2;stroke-dasharray:10,4;stroke-dashoffset:1;stroke-miterlimit:10;" d="M 10 10 L 310 10 L 310 230 L 10 230 Z M 10 10 "/>
<g clip-path="url(#clip1)" clip-rule="nonzero">
<g clip-path="url(#clip2)" clip-rule="nonzero">
<rect x="0" y="0" width="320" height="240" style="fill:rgb(38.039216%,50.588235%,100%);fill-opacity:0.494118;stroke:none;"/>
<path style="fill:none;stroke-width:2;stroke-linecap:butt;stroke-linejoin:miter;stroke:rgb(38.039216%,50.588235%,99.607843%);stroke-opacity:1;stroke-miterlimit:10;" d="M 1 6 C 1 3.238281 3.238281 1 6 1 L 294 1 C 296.761719 1 299 3.238281 299 6 L 299 49 C 299 51.761719 296.761719 54 294 54 L 6 54 C 3.238281 54 1 51.761719 1 49 Z M 1 6 " transform="matrix(1,0,0,1,10,10)"/>
</g>
</g>
<g clip-path="url(#clip3)" clip-rule="nonzero">
<g clip-path="url(#clip4)" clip-rule="nonzero">
<rect x="0" y="0" width="320" height="240" style="fill:rgb(38.039216%,50.588235%,100%);fill-opacity:0.494118;stroke:none;"/>
<path style="fill:none;stroke-width:2;stroke-linecap:butt;stroke-linejoin:miter;stroke:rgb(38.039216%,50.588235%,99.607843%);stroke-opacity:1;stroke-miterlimit:10;" d="M 1 6 C 1 3.238281 3.238281 1 6 1 L 294 1 C 296.761719 1 299 3.238281 299 6 L 299 49 C 299 51.761719 296.761719 54 294 54 L 6 54 C 3.238281 54 1 51.761719 1 49 Z M 1 6 " transform="matrix(1,0,0,1,10,65)"/>
</g>
</g>
<g clip-path="url(#clip5)" clip-rule="nonzero">
<g clip-path="url(#clip6)" clip-rule="nonzero">
<rect x="0" y="0" width="320" height="240" style="fill:rgb(38.039216%,50.588235%,100%);fill-opacity:0.494118;stroke:none;"/>
<path style="fill:none;stroke-width:2;stroke-linecap:butt;stroke-linejoin:miter;stroke:rgb(38.039216%,50.588235%,99.607843%);stroke-opacity:1;stroke-miterlimit:10;" d="M 1 6 C 1 3.238281 3.238281 1 6 1 L 294 1 C 296.761719 1 299 3.238281 299 6 L 299 49 C 299 51.761719 296.761719 54 294 54 L 6 54 C 3.238281 54 1 51.761719 1 49 Z M 1 6 " transform="matrix(1,0,0,1,10,120)"/>
</g>
</g>
<g clip-path="url(#clip7)" clip-rule="nonzero">
<g clip-path="url(#clip8)" clip-rule="nonzero">
<rect x="0" y="0" width="320" height="240" style="fill:rgb(38.039216%,50.588235%,100%);fill-opacity:0.494118;stroke:none;"/>
<path style="fill:none;stroke-width:2;stroke-linecap:butt;stroke-linejoin:miter;stroke:rgb(38.039216%,50.588235%,99.607843%);stroke-opacity:1;stroke-miterlimit:10;" d="M 1 6 C 1 3.238281 3.238281 1 6 1 L 294 1 C 296.761719 1 299 3.238281 299 6 L 299 49 C 299 51.761719 296.761719 54 294 54 L 6 54 C 3.238281 54 1 51.761719 1 49 Z M 1 6 " transform="matrix(1,0,0,1,10,175)"/>
</g>
</g>
<g clip-path="url(#clip9)" clip-rule="nonzero">
<g clip-path="url(#clip10)" clip-rule="nonzero">
<rect x="0" y="0" width="320" height="240" style="fill:rgb(38.039216%,50.588235%,100%);fill-opacity:0.494118;stroke:none;"/>
<path style="fill:none;stroke-width:2;stroke-linecap:butt;stroke-linejoin:miter;stroke:rgb(38.039216%,50.588235%,99.607843%);stroke-opacity:1;stroke-miterlimit:10;" d="M 1 6 C 1 3.238281 3.238281 1 6 1 L 184 1 C 186.761719 1 189 3.238281 189 6 L 189 104 C 189 106.761719 186.761719 109 184 109 L 6 109 C 3.238281 109 1 106.761719 1 104 Z M 1 6 " transform="matrix(1,0,0,1,65,65)"/>
</g>
</g>
</g>
</svg>
