<?xml version="1.0" encoding="UTF-8"?>
<svg xmlns="http://www.w3.org/2000/svg" xmlns:xlink="http://www.w3.org/1999/xlink" width="542pt" height="96pt" viewBox="0 0 542 96" version="1.1">
<defs>
<clipPath id="clip1">
  <path d="M 13 13 L 63 13 L 63 47 L 13 47 Z M 13 13 "/>
</clipPath>
<clipPath id="clip2">
  <path d="M 13 18 C 13 15.238281 15.238281 13 18 13 L 58 13 C 60.761719 13 63 15.238281 63 18 L 63 42 C 63 44.761719 60.761719 47 58 47 L 18 47 C 15.238281 47 13 44.761719 13 42 Z M 13 18 "/>
</clipPath>
<clipPath id="clip3">
  <path d="M 13 49 L 63 49 L 63 83 L 13 83 Z M 13 49 "/>
</clipPath>
<clipPath id="clip4">
  <path d="M 13 54 C 13 51.238281 15.238281 49 18 49 L 58 49 C 60.761719 49 63 51.238281 63 54 L 63 78 C 63 80.761719 60.761719 83 58 83 L 18 83 C 15.238281 83 13 80.761719 13 78 Z M 13 54 "/>
</clipPath>
<clipPath id="clip5">
  <path d="M 65 13 L 115 13 L 115 47 L 65 47 Z M 65 13 "/>
</clipPath>
<clipPath id="clip6">
  <path d="M 65 18 C 65 15.238281 67.238281 13 70 13 L 110 13 C 112.761719 13 115 15.238281 115 18 L 115 42 C 115 44.761719 112.761719 47 110 47 L 70 47 C 67.238281 47 65 44.761719 65 42 Z M 65 18 "/>
</clipPath>
<clipPath id="clip7">
  <path d="M 65 49 L 115 49 L 115 83 L 65 83 Z M 65 49 "/>
</clipPath>
<clipPath id="clip8">
  <path d="M 65 54 C 65 51.238281 67.238281 49 70 49 L 110 49 C 112.761719 49 115 51.238281 115 54 L 115 78 C 115 80.761719 112.761719 83 110 83 L 70 83 C 67.238281 83 65 80.761719 65 78 Z M 65 54 "/>
</clipPath>
<clipPath id="clip9">
  <path d="M 153 15 L 201 15 L 201 47 L 153 47 Z M 153 15 "/>
</clipPath>
<clipPath id="clip10">
  <path d="M 153 20 C 153 17.238281 155.238281 15 158 15 L 196 15 C 198.761719 15 201 17.238281 201 20 L 201 42 C 201 44.761719 198.761719 47 196 47 L 158 47 C 155.238281 47 153 44.761719 153 42 Z M 153 20 "/>
</clipPath>
<clipPath id="clip11">
  <path d="M 153 49 L 201 49 L 201 81 L 153 81 Z M 153 49 "/>
</clipPath>
<clipPath id="clip12">
  <path d="M 153 54 C 153 51.238281 155.238281 49 158 49 L 196 49 C 198.761719 49 201 51.238281 201 54 L 201 76 C 201 78.761719 198.761719 81 196 81 L 158 81 C 155.238281 81 153 78.761719 153 76 Z M 153 54 "/>
</clipPath>
<clipPath id="clip13">
  <path d="M 203 15 L 251 15 L 251 47 L 203 47 Z M 203 15 "/>
</clipPath>
<clipPath id="clip14">
  <path d="M 203 20 C 203 17.238281 205.238281 15 208 15 L 246 15 C 248.761719 15 251 17.238281 251 20 L 251 42 C 251 44.761719 248.761719 47 246 47 L 208 47 C 205.238281 47 203 44.761719 203 42 Z M 203 20 "/>
</clipPath>
<clipPath id="clip15">
  <path d="M 203 49 L 251 49 L 251 81 L 203 81 Z M 203 49 "/>
</clipPath>
<clipPath id="clip16">
  <path d="M 203 54 C 203 51.238281 205.238281 49 208 49 L 246 49 C 248.761719 49 251 51.238281 251 54 L 251 76 C 251 78.761719 248.761719 81 246 81 L 208 81 C 205.238281 81 203 78.761719 203 76 Z M 203 54 "/>
</clipPath>
<clipPath id="clip17">
  <path d="M 293 17 L 339 17 L 339 47 L 293 47 Z M 293 17 "/>
</clipPath>
<clipPath id="clip18">
  <path d="M 293 22 C 293 19.238281 295.238281 17 298 17 L 334 17 C 336.761719 17 339 19.238281 339 22 L 339 42 C 339 44.761719 336.761719 47 334 47 L 298 47 C 295.238281 47 293 44.761719 293 42 Z M 293 22 "/>
</clipPath>
<clipPath id="clip19">
  <path d="M 293 49 L 339 49 L 339 79 L 293 79 Z M 293 49 "/>
</clipPath>
<clipPath id="clip20">
  <path d="M 293 54 C 293 51.238281 295.238281 49 298 49 L 334 49 C 336.761719 49 339 51.238281 339 54 L 339 74 C 339 76.761719 336.761719 79 334 79 L 298 79 C 295.238281 79 293 76.761719 293 74 Z M 293 54 "/>
</clipPath>
<clipPath id="clip21">
  <path d="M 341 17 L 387 17 L 387 47 L 341 47 Z M 341 17 "/>
</clipPath>
<clipPath id="clip22">
  <path d="M 341 22 C 341 19.238281 343.238281 17 346 17 L 382 17 C 384.761719 17 387 19.238281 387 22 L 387 42 C 387 44.761719 384.761719 47 382 47 L 346 47 C 343.238281 47 341 44.761719 341 42 Z M 341 22 "/>
</clipPath>
<clipPath id="clip23">
  <path d="M 341 49 L 387 49 L 387 79 L 341 79 Z M 341 49 "/>
</clipPath>
<clipPath id="clip24">
  <path d="M 341 54 C 341 51.238281 343.238281 49 346 49 L 382 49 C 384.761719 49 387 51.238281 387 54 L 387 74 C 387 76.761719 384.761719 79 382 79 L 346 79 C 343.238281 79 341 76.761719 341 74 Z M 341 54 "/>
</clipPath>
<clipPath id="clip25">
  <path d="M 433 19 L 477 19 L 477 47 L 433 47 Z M 433 19 "/>
</clipPath>
<clipPath id="clip26">
  <path d="M 433 24 C 433 21.238281 435.238281 19 438 19 L 472 19 C 474.761719 19 477 21.238281 477 24 L 477 42 C 477 44.761719 474.761719 47 472 47 L 438 47 C 435.238281 47 433 44.761719 433 42 Z M 433 24 "/>
</clipPath>
<clipPath id="clip27">
  <path d="M 433 49 L 477 49 L 477 77 L 433 77 Z M 433 49 "/>
</clipPath>
<clipPath id="clip28">
  <path d="M 433 54 C 433 51.238281 435.238281 49 438 49 L 472 49 C 474.761719 49 477 51.238281 477 54 L 477 72 C 477 74.761719 474.761719 77 472 77 L 438 77 C 435.238281 77 433 74.761719 433 72 Z M 433 54 "/>
</clipPath>
<clipPath id="clip29">
  <path d="M 479 19 L 523 19 L 523 47 L 479 47 Z M 479 19 "/>
</clipPath>
<clipPath id="clip30">
  <path d="M 479 24 C 479 21.238281 481.238281 19 484 19 L 518 19 C 520.761719 19 523 21.238281 523 24 L 523 42 C 523 44.761719 520.761719 47 518 47 L 484 47 C 481.238281 47 479 44.761719 479 42 Z M 479 24 "/>
</clipPath>
<clipPath id="clip31">
  <path d="M 479 49 L 523 49 L 523 77 L 479 77 Z M 479 49 "/>
</clipPath>
<clipPath id="clip32">
  <path d="M 479 54 C 479 51.238281 481.238281 49 484 49 L 518 49 C 520.761719 49 523 51.238281 523 54 L 523 72 C 523 74.761719 520.761719 77 518 77 L 484 77 C 481.238281 77 479 74.761719 479 72 Z M 479 54 "/>
</clipPath>
</defs>
<g id="surface2">
<path style="fill:none;stroke-width:1.5;stroke-linecap:butt;stroke-linejoin:miter;stroke:rgb(0%,0%,0%);stroke-opacity:0.266667;stroke-dasharray:10,4;stroke-dashoffset:1;stroke-miterlimit:10;" d="M 0.75 0.75 L 127.25 0.75 L 127.25 95.25 L 0.75 95.25 Z M 0.75 0.75 "/>
<path style="fill:none;stroke-width:1.5;stroke-linecap:butt;stroke-linejoin:miter;stroke:rgb(0%,0%,0%);stroke-opacity:0.2;stroke-dasharray:10,4;stroke-dashoffset:1;stroke-miterlimit:10;" d="M 10 10 L 118 10 L 118 86 L 10 86 Z M 10 10 "/>
<path style="fill:none;stroke-width:1.5;stroke-linecap:butt;stroke-linejoin:miter;stroke:rgb(0%,0%,0%);stroke-opacity:0.266667;stroke-dasharray:10,4;stroke-dashoffset:1;stroke-miterlimit:10;" d="M 138.75 0.75 L 265.25 0.75 L 265.25 95.25 L 138.75 95.25 Z M 138.75 0.75 "/>
<path style="fill:none;stroke-width:1.5;stroke-linecap:butt;stroke-linejoin:miter;stroke:rgb(0%,0%,0%);stroke-opacity:0.2;stroke-dasharray:10,4;stroke-dashoffset:1;stroke-miterlimit:10;" d="M 148 10 L 256 10 L 256 86 L 148 86 Z M 148 10 "/>
<path style="fill:none;stroke-width:1.5;stroke-linecap:butt;stroke-linejoin:miter;stroke:rgb(0%,0%,0%);stroke-opacity:0.266667;stroke-dasharray:10,4;stroke-dashoffset:1;stroke-miterlimit:10;" d="M 276.75 0.75 L 403.25 0.75 L 403.25 95.25 L 276.75 95.25 Z M 276.75 0.75 "/>
<path style="fill:none;stroke-width:1.5;stroke-linecap:butt;stroke-linejoin:miter;stroke:rgb(0%,0%,0%);stroke-opacity:0.2;stroke-dasharray:10,4;stroke-dashoffset:1;stroke-miterlimit:10;" d="M 286 10 L 394 10 L 394 86 L 286 86 Z M 286 10 "/>
<path style="fill:none;stroke-width:1.5;stroke-linecap:butt;stroke-linejoin:miter;stroke:rgb(0%,0%,0%);stroke-opacity:0.266667;stroke-dasharray:10,4;stroke-dashoffset:1;stroke-miterlimit:10;" d="M 414.75 0.75 L 541.25 0.75 L 541.25 95.25 L 414.75 95.25 Z M 414.75 0.75 "/>
<path style="fill:none;stroke-width:1.5;stroke-linecap:butt;stroke-linejoin:miter;stroke:rgb(0%,0%,0%);stroke-opacity:0.2;stroke-dasharray:10,4;stroke-dashoffset:1;stroke-miterlimit:10;" d="M 424 10 L 532 10 L 532 86 L 424 86 Z M 424 10 "/>
<g clip-path="url(#clip1)" clip-rule="nonzero">
<g clip-path="url(#clip2)" clip-rule="nonzero">
<rect x="0" y="0" width="542" height="96" style="fill:rgb(38.039216%,50.588235%,100%);fill-opacity:0.490196;stroke:none;"/>
<path style="fill:none;stroke-width:2;stroke-linecap:butt;stroke-linejoin:miter;stroke:rgb(38.039216%,50.588235%,100%);stroke-opacity:1;stroke-miterlimit:10;" d="M 1 6 C 1 3.238281 3.238281 1 6 1 L 46 1 C 48.761719 1 51 3.238281 51 6 L 51 30 C 51 32.761719 48.761719 35 46 35 L 6 35 C 3.238281 35 1 32.761719 1 30 Z M 1 6 " transform="matrix(1,0,0,1,12,12)"/>
</g>
</g>
<g clip-path="url(#clip3)" clip-rule="nonzero">
<g clip-path="url(#clip4)" clip-rule="nonzero">
<rect x="0" y="0" width="542" height="96" style="fill:rgb(38.039216%,50.588235%,100%);fill-opacity:0.490196;stroke:none;"/>
<path style="fill:none;stroke-width:2;stroke-linecap:butt;stroke-linejoin:miter;stroke:rgb(38.039216%,50.588235%,100%);stroke-opacity:1;stroke-miterlimit:10;" d="M 1 6 C 1 3.238281 3.238281 1 6 1 L 46 1 C 48.761719 1 51 3.238281 51 6 L 51 30 C 51 32.761719 48.761719 35 46 35 L 6 35 C 3.238281 35 1 32.761719 1 30 Z M 1 6 " transform="matrix(1,0,0,1,12,48)"/>
</g>
</g>
<g clip-path="url(#clip5)" clip-rule="nonzero">
<g clip-path="url(#clip6)" clip-rule="nonzero">
<rect x="0" y="0" width="542" height="96" style="fill:rgb(38.039216%,50.588235%,100%);fill-opacity:0.490196;stroke:none;"/>
<path style="fill:none;stroke-width:2;stroke-linecap:butt;stroke-linejoin:miter;stroke:rgb(38.039216%,50.588235%,100%);stroke-opacity:1;stroke-miterlimit:10;" d="M 1 6 C 1 3.238281 3.238281 1 6 1 L 46 1 C 48.761719 1 51 3.238281 51 6 L 51 30 C 51 32.761719 48.761719 35 46 35 L 6 35 C 3.238281 35 1 32.761719 1 30 Z M 1 6 " transform="matrix(1,0,0,1,64,12)"/>
</g>
</g>
<g clip-path="url(#clip7)" clip-rule="nonzero">
<g clip-path="url(#clip8)" clip-rule="nonzero">
<rect x="0" y="0" width="542" height="96" style="fill:rgb(38.039216%,50.588235%,100%);fill-opacity:0.490196;stroke:none;"/>
<path style="fill:none;stroke-width:2;stroke-linecap:butt;stroke-linejoin:miter;stroke:rgb(38.039216%,50.588235%,100%);stroke-opacity:1;stroke-miterlimit:10;" d="M 1 6 C 1 3.238281 3.238281 1 6 1 L 46 1 C 48.761719 1 51 3.238281 51 6 L 51 30 C 51 32.761719 48.761719 35 46 35 L 6 35 C 3.238281 35 1 32.761719 1 30 Z M 1 6 " transform="matrix(1,0,0,1,64,48)"/>
</g>
</g>
<g clip-path="url(#clip9)" clip-rule="nonzero">
<g clip-path="url(#clip10)" clip-rule="nonzero">
<rect x="0" y="0" width="542" height="96" style="fill:rgb(38.039216%,50.588235%,100%);fill-opacity:0.490196;stroke:none;"/>
<path style="fill:none;stroke-width:2;stroke-linecap:butt;stroke-linejoin:miter;stroke:rgb(38.039216%,50.588235%,100%);stroke-opacity:1;stroke-miterlimit:10;" d="M 1 6 C 1 3.238281 3.238281 1 6 1 L 44 1 C 46.761719 1 49 3.238281 49 6 L 49 28 C 49 30.761719 46.761719 33 44 33 L 6 33 C 3.238281 33 1 30.761719 1 28 Z M 1 6 " transform="matrix(1,0,0,1,152,14)"/>
</g>
</g>
<g clip-path="url(#clip11)" clip-rule="nonzero">
<g clip-path="url(#clip12)" clip-rule="nonzero">
<rect x="0" y="0" width="542" height="96" style="fill:rgb(38.039216%,50.588235%,100%);fill-opacity:0.490196;stroke:none;"/>
<path style="fill:none;stroke-width:2;stroke-linecap:butt;stroke-linejoin:miter;stroke:rgb(38.039216%,50.588235%,100%);stroke-opacity:1;stroke-miterlimit:10;" d="M 1 6 C 1 3.238281 3.238281 1 6 1 L 44 1 C 46.761719 1 49 3.238281 49 6 L 49 28 C 49 30.761719 46.761719 33 44 33 L 6 33 C 3.238281 33 1 30.761719 1 28 Z M 1 6 " transform="matrix(1,0,0,1,152,48)"/>
</g>
</g>
<g clip-path="url(#clip13)" clip-rule="nonzero">
<g clip-path="url(#clip14)" clip-rule="nonzero">
<rect x="0" y="0" width="542" height="96" style="fill:rgb(38.039216%,50.588235%,100%);fill-opacity:0.490196;stroke:none;"/>
<path style="fill:none;stroke-width:2;stroke-linecap:butt;stroke-linejoin:miter;stroke:rgb(38.039216%,50.588235%,100%);stroke-opacity:1;stroke-miterlimit:10;" d="M 1 6 C 1 3.238281 3.238281 1 6 1 L 44 1 C 46.761719 1 49 3.238281 49 6 L 49 28 C 49 30.761719 46.761719 33 44 33 L 6 33 C 3.238281 33 1 30.761719 1 28 Z M 1 6 " transform="matrix(1,0,0,1,202,14)"/>
</g>
</g>
<g clip-path="url(#clip15)" clip-rule="nonzero">
<g clip-path="url(#clip16)" clip-rule="nonzero">
<rect x="0" y="0" width="542" height="96" style="fill:rgb(38.039216%,50.588235%,100%);fill-opacity:0.490196;stroke:none;"/>
<path style="fill:none;stroke-width:2;stroke-linecap:butt;stroke-linejoin:miter;stroke:rgb(38.039216%,50.588235%,100%);stroke-opacity:1;stroke-miterlimit:10;" d="M 1 6 C 1 3.238281 3.238281 1 6 1 L 44 1 C 46.761719 1 49 3.238281 49 6 L 49 28 C 49 30.761719 46.761719 33 44 33 L 6 33 C 3.238281 33 1 30.761719 1 28 Z M 1 6 " transform="matrix(1,0,0,1,202,48)"/>
</g>
</g>
<g clip-path="url(#clip17)" clip-rule="nonzero">
<g clip-path="url(#clip18)" clip-rule="nonzero">
<rect x="0" y="0" width="542" height="96" style="fill:rgb(38.039216%,50.588235%,100%);fill-opacity:0.490196;stroke:none;"/>
<path style="fill:none;stroke-width:2;stroke-linecap:butt;stroke-linejoin:miter;stroke:rgb(38.039216%,50.588235%,100%);stroke-opacity:1;stroke-miterlimit:10;" d="M 1 6 C 1 3.238281 3.238281 1 6 1 L 42 1 C 44.761719 1 47 3.238281 47 6 L 47 26 C 47 28.761719 44.761719 31 42 31 L 6 31 C 3.238281 31 1 28.761719 1 26 Z M 1 6 " transform="matrix(1,0,0,1,292,16)"/>
</g>
</g>
<g clip-path="url(#clip19)" clip-rule="nonzero">
<g clip-path="url(#clip20)" clip-rule="nonzero">
<rect x="0" y="0" width="542" height="96" style="fill:rgb(38.039216%,50.588235%,100%);fill-opacity:0.490196;stroke:none;"/>
<path style="fill:none;stroke-width:2;stroke-linecap:butt;stroke-linejoin:miter;stroke:rgb(38.039216%,50.588235%,100%);stroke-opacity:1;stroke-miterlimit:10;" d="M 1 6 C 1 3.238281 3.238281 1 6 1 L 42 1 C 44.761719 1 47 3.238281 47 6 L 47 26 C 47 28.761719 44.761719 31 42 31 L 6 31 C 3.238281 31 1 28.761719 1 26 Z M 1 6 " transform="matrix(1,0,0,1,292,48)"/>
</g>
</g>
<g clip-path="url(#clip21)" clip-rule="nonzero">
<g clip-path="url(#clip22)" clip-rule="nonzero">
<rect x="0" y="0" width="542" height="96" style="fill:rgb(38.039216%,50.588235%,100%);fill-opacity:0.490196;stroke:none;"/>
<path style="fill:none;stroke-width:2;stroke-linecap:butt;stroke-linejoin:miter;stroke:rgb(38.039216%,50.588235%,100%);stroke-opacity:1;stroke-miterlimit:10;" d="M 1 6 C 1 3.238281 3.238281 1 6 1 L 42 1 C 44.761719 1 47 3.238281 47 6 L 47 26 C 47 28.761719 44.761719 31 42 31 L 6 31 C 3.238281 31 1 28.761719 1 26 Z M 1 6 " transform="matrix(1,0,0,1,340,16)"/>
</g>
</g>
<g clip-path="url(#clip23)" clip-rule="nonzero">
<g clip-path="url(#clip24)" clip-rule="nonzero">
<rect x="0" y="0" width="542" height="96" style="fill:rgb(38.039216%,50.588235%,100%);fill-opacity:0.490196;stroke:none;"/>
<path style="fill:none;stroke-width:2;stroke-linecap:butt;stroke-linejoin:miter;stroke:rgb(38.039216%,50.588235%,100%);stroke-opacity:1;stroke-miterlimit:10;" d="M 1 6 C 1 3.238281 3.238281 1 6 1 L 42 1 C 44.761719 1 47 3.238281 47 6 L 47 26 C 47 28.761719 44.761719 31 42 31 L 6 31 C 3.238281 31 1 28.761719 1 26 Z M 1 6 " transform="matrix(1,0,0,1,340,48)"/>
</g>
</g>
<g clip-path="url(#clip25)" clip-rule="nonzero">
<g clip-path="url(#clip26)" clip-rule="nonzero">
<rect x="0" y="0" width="542" height="96" style="fill:rgb(38.039216%,50.588235%,100%);fill-opacity:0.490196;stroke:none;"/>
<path style="fill:none;stroke-width:2;stroke-linecap:butt;stroke-linejoin:miter;stroke:rgb(38.039216%,50.588235%,100%);stroke-opacity:1;stroke-miterlimit:10;" d="M 1 6 C 1 3.238281 3.238281 1 6 1 L 40 1 C 42.761719 1 45 3.238281 45 6 L 45 24 C 45 26.761719 42.761719 29 40 29 L 6 29 C 3.238281 29 1 26.761719 1 24 Z M 1 6 " transform="matrix(1,0,0,1,432,18)"/>
</g>
</g>
<g clip-path="url(#clip27)" clip-rule="nonzero">
<g clip-path="url(#clip28)" clip-rule="nonzero">
<rect x="0" y="0" width="542" height="96" style="fill:rgb(38.039216%,50.588235%,100%);fill-opacity:0.490196;stroke:none;"/>
<path style="fill:none;stroke-width:2;stroke-linecap:butt;stroke-linejoin:miter;stroke:rgb(38.039216%,50.588235%,100%);stroke-opacity:1;stroke-miterlimit:10;" d="M 1 6 C 1 3.238281 3.238281 1 6 1 L 40 1 C 42.761719 1 45 3.238281 45 6 L 45 24 C 45 26.761719 42.761719 29 40 29 L 6 29 C 3.238281 29 1 26.761719 1 24 Z M 1 6 " transform="matrix(1,0,0,1,432,48)"/>
</g>
</g>
<g clip-path="url(#clip29)" clip-rule="nonzero">
<g clip-path="url(#clip30)" clip-rule="nonzero">
<rect x="0" y="0" width="542" height="96" style="fill:rgb(38.039216%,50.588235%,100%);fill-opacity:0.490196;stroke:none;"/>
<path style="fill:none;stroke-width:2;stroke-linecap:butt;stroke-linejoin:miter;stroke:rgb(38.039216%,50.588235%,100%);stroke-opacity:1;stroke-miterlimit:10;" d="M 1 6 C 1 3.238281 3.238281 1 6 1 L 40 1 C 42.761719 1 45 3.238281 45 6 L 45 24 C 45 26.761719 42.761719 29 40 29 L 6 29 C 3.238281 29 1 26.761719 1 24 Z M 1 6 " transform="matrix(1,0,0,1,478,18)"/>
</g>
</g>
<g clip-path="url(#clip31)" clip-rule="nonzero">
<g clip-path="url(#clip32)" clip-rule="nonzero">
<rect x="0" y="0" width="542" height="96" style="fill:rgb(38.039216%,50.588235%,100%);fill-opacity:0.490196;stroke:none;"/>
<path style="fill:none;stroke-width:2;stroke-linecap:butt;stroke-linejoin:miter;stroke:rgb(38.039216%,50.588235%,100%);stroke-opacity:1;stroke-miterlimit:10;" d="M 1 6 C 1 3.238281 3.238281 1 6 1 L 40 1 C 42.761719 1 45 3.238281 45 6 L 45 24 C 45 26.761719 42.761719 29 40 29 L 6 29 C 3.238281 29 1 26.761719 1 24 Z M 1 6 " transform="matrix(1,0,0,1,478,48)"/>
</g>
</g>
</g>
</svg>
