<?xml version="1.0" encoding="UTF-8"?>
<svg xmlns="http://www.w3.org/2000/svg" xmlns:xlink="http://www.w3.org/1999/xlink" width="542pt" height="96pt" viewBox="0 0 542 96" version="1.1">
<defs>
<clipPath id="clip1">
  <path d="M 65 68 L 117 68 L 117 85 L 65 85 Z M 65 68 "/>
</clipPath>
<clipPath id="clip2">
  <path d="M 65 73 C 65 70.238281 67.238281 68 70 68 L 112 68 C 114.761719 68 117 70.238281 117 73 L 117 80 C 117 82.761719 114.761719 85 112 85 L 70 85 C 67.238281 85 65 82.761719 65 80 Z M 65 73 "/>
</clipPath>
<clipPath id="clip3">
  <path d="M 65 49 L 117 49 L 117 66 L 65 66 Z M 65 49 "/>
</clipPath>
<clipPath id="clip4">
  <path d="M 65 54 C 65 51.238281 67.238281 49 70 49 L 112 49 C 114.761719 49 117 51.238281 117 54 L 117 61 C 117 63.761719 114.761719 66 112 66 L 70 66 C 67.238281 66 65 63.761719 65 61 Z M 65 54 "/>
</clipPath>
<clipPath id="clip5">
  <path d="M 65 30 L 117 30 L 117 47 L 65 47 Z M 65 30 "/>
</clipPath>
<clipPath id="clip6">
  <path d="M 65 35 C 65 32.238281 67.238281 30 70 30 L 112 30 C 114.761719 30 117 32.238281 117 35 L 117 42 C 117 44.761719 114.761719 47 112 47 L 70 47 C 67.238281 47 65 44.761719 65 42 Z M 65 35 "/>
</clipPath>
<clipPath id="clip7">
  <path d="M 65 11 L 117 11 L 117 28 L 65 28 Z M 65 11 "/>
</clipPath>
<clipPath id="clip8">
  <path d="M 65 16 C 65 13.238281 67.238281 11 70 11 L 112 11 C 114.761719 11 117 13.238281 117 16 L 117 23 C 117 25.761719 114.761719 28 112 28 L 70 28 C 67.238281 28 65 25.761719 65 23 Z M 65 16 "/>
</clipPath>
<clipPath id="clip9">
  <path d="M 11 11 L 63 11 L 63 85 L 11 85 Z M 11 11 "/>
</clipPath>
<clipPath id="clip10">
  <path d="M 11 16 C 11 13.238281 13.238281 11 16 11 L 58 11 C 60.761719 11 63 13.238281 63 16 L 63 80 C 63 82.761719 60.761719 85 58 85 L 16 85 C 13.238281 85 11 82.761719 11 80 Z M 11 16 "/>
</clipPath>
<clipPath id="clip11">
  <path d="M 203 61 L 255 61 L 255 84 L 203 84 Z M 203 61 "/>
</clipPath>
<clipPath id="clip12">
  <path d="M 203 66 C 203 63.238281 205.238281 61 208 61 L 250 61 C 252.761719 61 255 63.238281 255 66 L 255 79 C 255 81.761719 252.761719 84 250 84 L 208 84 C 205.238281 84 203 81.761719 203 79 Z M 203 66 "/>
</clipPath>
<clipPath id="clip13">
  <path d="M 149 49 L 201 49 L 201 85 L 149 85 Z M 149 49 "/>
</clipPath>
<clipPath id="clip14">
  <path d="M 149 54 C 149 51.238281 151.238281 49 154 49 L 196 49 C 198.761719 49 201 51.238281 201 54 L 201 80 C 201 82.761719 198.761719 85 196 85 L 154 85 C 151.238281 85 149 82.761719 149 80 Z M 149 54 "/>
</clipPath>
<clipPath id="clip15">
  <path d="M 203 36 L 255 36 L 255 59 L 203 59 Z M 203 36 "/>
</clipPath>
<clipPath id="clip16">
  <path d="M 203 41 C 203 38.238281 205.238281 36 208 36 L 250 36 C 252.761719 36 255 38.238281 255 41 L 255 54 C 255 56.761719 252.761719 59 250 59 L 208 59 C 205.238281 59 203 56.761719 203 54 Z M 203 41 "/>
</clipPath>
<clipPath id="clip17">
  <path d="M 203 11 L 255 11 L 255 34 L 203 34 Z M 203 11 "/>
</clipPath>
<clipPath id="clip18">
  <path d="M 203 16 C 203 13.238281 205.238281 11 208 11 L 250 11 C 252.761719 11 255 13.238281 255 16 L 255 29 C 255 31.761719 252.761719 34 250 34 L 208 34 C 205.238281 34 203 31.761719 203 29 Z M 203 16 "/>
</clipPath>
<clipPath id="clip19">
  <path d="M 149 11 L 201 11 L 201 47 L 149 47 Z M 149 11 "/>
</clipPath>
<clipPath id="clip20">
  <path d="M 149 16 C 149 13.238281 151.238281 11 154 11 L 196 11 C 198.761719 11 201 13.238281 201 16 L 201 42 C 201 44.761719 198.761719 47 196 47 L 154 47 C 151.238281 47 149 44.761719 149 42 Z M 149 16 "/>
</clipPath>
<clipPath id="clip21">
  <path d="M 341 49 L 393 49 L 393 85 L 341 85 Z M 341 49 "/>
</clipPath>
<clipPath id="clip22">
  <path d="M 341 54 C 341 51.238281 343.238281 49 346 49 L 388 49 C 390.761719 49 393 51.238281 393 54 L 393 80 C 393 82.761719 390.761719 85 388 85 L 346 85 C 343.238281 85 341 82.761719 341 80 Z M 341 54 "/>
</clipPath>
<clipPath id="clip23">
  <path d="M 287 36 L 339 36 L 339 59 L 287 59 Z M 287 36 "/>
</clipPath>
<clipPath id="clip24">
  <path d="M 287 41 C 287 38.238281 289.238281 36 292 36 L 334 36 C 336.761719 36 339 38.238281 339 41 L 339 54 C 339 56.761719 336.761719 59 334 59 L 292 59 C 289.238281 59 287 56.761719 287 54 Z M 287 41 "/>
</clipPath>
<clipPath id="clip25">
  <path d="M 287 61 L 339 61 L 339 84 L 287 84 Z M 287 61 "/>
</clipPath>
<clipPath id="clip26">
  <path d="M 287 66 C 287 63.238281 289.238281 61 292 61 L 334 61 C 336.761719 61 339 63.238281 339 66 L 339 79 C 339 81.761719 336.761719 84 334 84 L 292 84 C 289.238281 84 287 81.761719 287 79 Z M 287 66 "/>
</clipPath>
<clipPath id="clip27">
  <path d="M 341 11 L 393 11 L 393 47 L 341 47 Z M 341 11 "/>
</clipPath>
<clipPath id="clip28">
  <path d="M 341 16 C 341 13.238281 343.238281 11 346 11 L 388 11 C 390.761719 11 393 13.238281 393 16 L 393 42 C 393 44.761719 390.761719 47 388 47 L 346 47 C 343.238281 47 341 44.761719 341 42 Z M 341 16 "/>
</clipPath>
<clipPath id="clip29">
  <path d="M 287 11 L 339 11 L 339 34 L 287 34 Z M 287 11 "/>
</clipPath>
<clipPath id="clip30">
  <path d="M 287 16 C 287 13.238281 289.238281 11 292 11 L 334 11 C 336.761719 11 339 13.238281 339 16 L 339 29 C 339 31.761719 336.761719 34 334 34 L 292 34 C 289.238281 34 287 31.761719 287 29 Z M 287 16 "/>
</clipPath>
<clipPath id="clip31">
  <path d="M 479 11 L 531 11 L 531 85 L 479 85 Z M 479 11 "/>
</clipPath>
<clipPath id="clip32">
  <path d="M 479 16 C 479 13.238281 481.238281 11 484 11 L 526 11 C 528.761719 11 531 13.238281 531 16 L 531 80 C 531 82.761719 528.761719 85 526 85 L 484 85 C 481.238281 85 479 82.761719 479 80 Z M 479 16 "/>
</clipPath>
<clipPath id="clip33">
  <path d="M 425 30 L 477 30 L 477 47 L 425 47 Z M 425 30 "/>
</clipPath>
<clipPath id="clip34">
  <path d="M 425 35 C 425 32.238281 427.238281 30 430 30 L 472 30 C 474.761719 30 477 32.238281 477 35 L 477 42 C 477 44.761719 474.761719 47 472 47 L 430 47 C 427.238281 47 425 44.761719 425 42 Z M 425 35 "/>
</clipPath>
<clipPath id="clip35">
  <path d="M 425 49 L 477 49 L 477 66 L 425 66 Z M 425 49 "/>
</clipPath>
<clipPath id="clip36">
  <path d="M 425 54 C 425 51.238281 427.238281 49 430 49 L 472 49 C 474.761719 49 477 51.238281 477 54 L 477 61 C 477 63.761719 474.761719 66 472 66 L 430 66 C 427.238281 66 425 63.761719 425 61 Z M 425 54 "/>
</clipPath>
<clipPath id="clip37">
  <path d="M 425 68 L 477 68 L 477 85 L 425 85 Z M 425 68 "/>
</clipPath>
<clipPath id="clip38">
  <path d="M 425 73 C 425 70.238281 427.238281 68 430 68 L 472 68 C 474.761719 68 477 70.238281 477 73 L 477 80 C 477 82.761719 474.761719 85 472 85 L 430 85 C 427.238281 85 425 82.761719 425 80 Z M 425 73 "/>
</clipPath>
<clipPath id="clip39">
  <path d="M 425 11 L 477 11 L 477 28 L 425 28 Z M 425 11 "/>
</clipPath>
<clipPath id="clip40">
  <path d="M 425 16 C 425 13.238281 427.238281 11 430 11 L 472 11 C 474.761719 11 477 13.238281 477 16 L 477 23 C 477 25.761719 474.761719 28 472 28 L 430 28 C 427.238281 28 425 25.761719 425 23 Z M 425 16 "/>
</clipPath>
</defs>
<g id="surface2">
<path style="fill:none;stroke-width:1.5;stroke-linecap:butt;stroke-linejoin:miter;stroke:rgb(0%,0%,0%);stroke-opacity:0.266667;stroke-dasharray:10,4;stroke-dashoffset:1;stroke-miterlimit:10;" d="M 0.75 0.75 L 127.25 0.75 L 127.25 95.25 L 0.75 95.25 Z M 0.75 0.75 "/>
<path style="fill:none;stroke-width:1.5;stroke-linecap:butt;stroke-linejoin:miter;stroke:rgb(0%,0%,0%);stroke-opacity:0.2;stroke-dasharray:10,4;stroke-dashoffset:1;stroke-miterlimit:10;" d="M 10 10 L 118 10 L 118 86 L 10 86 Z M 10 10 "/>
<path style="fill:none;stroke-width:1.5;stroke-linecap:butt;stroke-linejoin:miter;stroke:rgb(0%,0%,0%);stroke-opacity:0.266667;stroke-dasharray:10,4;stroke-dashoffset:1;stroke-miterlimit:10;" d="M 138.75 0.75 L 265.25 0.75 L 265.25 95.25 L 138.75 95.25 Z M 138.75 0.75 "/>
<path style="fill:none;stroke-width:1.5;stroke-linecap:butt;stroke-linejoin:miter;stroke:rgb(0%,0%,0%);stroke-opacity:0.2;stroke-dasharray:10,4;stroke-dashoffset:1;stroke-miterlimit:10;" d="M 148 10 L 256 10 L 256 86 L 148 86 Z M 148 10 "/>
<path style="fill:none;stroke-width:1.5;stroke-linecap:butt;stroke-linejoin:miter;stroke:rgb(0%,0%,0%);stroke-opacity:0.266667;stroke-dasharray:10,4;stroke-dashoffset:1;stroke-miterlimit:10;" d="M 276.75 0.75 L 403.25 0.75 L 403.25 95.25 L 276.75 95.25 Z M 276.75 0.75 "/>
<path style="fill:none;stroke-width:1.5;stroke-linecap:butt;stroke-linejoin:miter;stroke:rgb(0%,0%,0%);stroke-opacity:0.2;stroke-dasharray:10,4;stroke-dashoffset:1;stroke-miterlimit:10;" d="M 286 10 L 394 10 L 394 86 L 286 86 Z M 286 10 "/>
<path style="fill:none;stroke-width:1.5;stroke-linecap:butt;stroke-linejoin:miter;stroke:rgb(0%,0%,0%);stroke-opacity:0.266667;stroke-dasharray:10,4;stroke-dashoffset:1;stroke-miterlimit:10;" d="M 414.75 0.75 L 541.25 0.75 L 541.25 95.25 L 414.75 95.25 Z M 414.75 0.75 "/>
<path style="fill:none;stroke-width:1.5;stroke-linecap:butt;stroke-linejoin:miter;stroke:rgb(0%,0%,0%);stroke-opacity:0.2;stroke-dasharray:10,4;stroke-dashoffset:1;stroke-miterlimit:10;" d="M 424 10 L 532 10 L 532 86 L 424 86 Z M 424 10 "/>
<g clip-path="url(#clip1)" clip-rule="nonzero">
<g clip-path="url(#clip2)" clip-rule="nonzero">
<rect x="0" y="0" width="542" height="96" style="fill:rgb(38.039216%,50.588235%,100%);fill-opacity:0.490196;stroke:none;"/>
<path style="fill:none;stroke-width:2;stroke-linecap:butt;stroke-linejoin:miter;stroke:rgb(38.039216%,50.588235%,100%);stroke-opacity:1;stroke-miterlimit:10;" d="M 1 6 C 1 3.238281 3.238281 1 6 1 L 48 1 C 50.761719 1 53 3.238281 53 6 L 53 13 C 53 15.761719 50.761719 18 48 18 L 6 18 C 3.238281 18 1 15.761719 1 13 Z M 1 6 " transform="matrix(1,0,0,1,64,67)"/>
</g>
</g>
<g clip-path="url(#clip3)" clip-rule="nonzero">
<g clip-path="url(#clip4)" clip-rule="nonzero">
<rect x="0" y="0" width="542" height="96" style="fill:rgb(38.039216%,50.588235%,100%);fill-opacity:0.490196;stroke:none;"/>
<path style="fill:none;stroke-width:2;stroke-linecap:butt;stroke-linejoin:miter;stroke:rgb(38.039216%,50.588235%,100%);stroke-opacity:1;stroke-miterlimit:10;" d="M 1 6 C 1 3.238281 3.238281 1 6 1 L 48 1 C 50.761719 1 53 3.238281 53 6 L 53 13 C 53 15.761719 50.761719 18 48 18 L 6 18 C 3.238281 18 1 15.761719 1 13 Z M 1 6 " transform="matrix(1,0,0,1,64,48)"/>
</g>
</g>
<g clip-path="url(#clip5)" clip-rule="nonzero">
<g clip-path="url(#clip6)" clip-rule="nonzero">
<rect x="0" y="0" width="542" height="96" style="fill:rgb(38.039216%,50.588235%,100%);fill-opacity:0.490196;stroke:none;"/>
<path style="fill:none;stroke-width:2;stroke-linecap:butt;stroke-linejoin:miter;stroke:rgb(38.039216%,50.588235%,100%);stroke-opacity:1;stroke-miterlimit:10;" d="M 1 6 C 1 3.238281 3.238281 1 6 1 L 48 1 C 50.761719 1 53 3.238281 53 6 L 53 13 C 53 15.761719 50.761719 18 48 18 L 6 18 C 3.238281 18 1 15.761719 1 13 Z M 1 6 " transform="matrix(1,0,0,1,64,29)"/>
</g>
</g>
<g clip-path="url(#clip7)" clip-rule="nonzero">
<g clip-path="url(#clip8)" clip-rule="nonzero">
<rect x="0" y="0" width="542" height="96" style="fill:rgb(38.039216%,50.588235%,100%);fill-opacity:0.490196;stroke:none;"/>
<path style="fill:none;stroke-width:2;stroke-linecap:butt;stroke-linejoin:miter;stroke:rgb(38.039216%,50.588235%,100%);stroke-opacity:1;stroke-miterlimit:10;" d="M 1 6 C 1 3.238281 3.238281 1 6 1 L 48 1 C 50.761719 1 53 3.238281 53 6 L 53 13 C 53 15.761719 50.761719 18 48 18 L 6 18 C 3.238281 18 1 15.761719 1 13 Z M 1 6 " transform="matrix(1,0,0,1,64,10)"/>
</g>
</g>
<g clip-path="url(#clip9)" clip-rule="nonzero">
<g clip-path="url(#clip10)" clip-rule="nonzero">
<rect x="0" y="0" width="542" height="96" style="fill:rgb(38.039216%,50.588235%,100%);fill-opacity:0.490196;stroke:none;"/>
<path style="fill:none;stroke-width:2;stroke-linecap:butt;stroke-linejoin:miter;stroke:rgb(38.039216%,50.588235%,100%);stroke-opacity:1;stroke-miterlimit:10;" d="M 1 6 C 1 3.238281 3.238281 1 6 1 L 48 1 C 50.761719 1 53 3.238281 53 6 L 53 70 C 53 72.761719 50.761719 75 48 75 L 6 75 C 3.238281 75 1 72.761719 1 70 Z M 1 6 " transform="matrix(1,0,0,1,10,10)"/>
</g>
</g>
<g clip-path="url(#clip11)" clip-rule="nonzero">
<g clip-path="url(#clip12)" clip-rule="nonzero">
<rect x="0" y="0" width="542" height="96" style="fill:rgb(38.039216%,50.588235%,100%);fill-opacity:0.490196;stroke:none;"/>
<path style="fill:none;stroke-width:2;stroke-linecap:butt;stroke-linejoin:miter;stroke:rgb(38.039216%,50.588235%,100%);stroke-opacity:1;stroke-miterlimit:10;" d="M 1 6 C 1 3.238281 3.238281 1 6 1 L 48 1 C 50.761719 1 53 3.238281 53 6 L 53 19 C 53 21.761719 50.761719 24 48 24 L 6 24 C 3.238281 24 1 21.761719 1 19 Z M 1 6 " transform="matrix(1,0,0,1,202,60)"/>
</g>
</g>
<g clip-path="url(#clip13)" clip-rule="nonzero">
<g clip-path="url(#clip14)" clip-rule="nonzero">
<rect x="0" y="0" width="542" height="96" style="fill:rgb(38.039216%,50.588235%,100%);fill-opacity:0.490196;stroke:none;"/>
<path style="fill:none;stroke-width:2;stroke-linecap:butt;stroke-linejoin:miter;stroke:rgb(38.039216%,50.588235%,100%);stroke-opacity:1;stroke-miterlimit:10;" d="M 1 6 C 1 3.238281 3.238281 1 6 1 L 48 1 C 50.761719 1 53 3.238281 53 6 L 53 32 C 53 34.761719 50.761719 37 48 37 L 6 37 C 3.238281 37 1 34.761719 1 32 Z M 1 6 " transform="matrix(1,0,0,1,148,48)"/>
</g>
</g>
<g clip-path="url(#clip15)" clip-rule="nonzero">
<g clip-path="url(#clip16)" clip-rule="nonzero">
<rect x="0" y="0" width="542" height="96" style="fill:rgb(38.039216%,50.588235%,100%);fill-opacity:0.490196;stroke:none;"/>
<path style="fill:none;stroke-width:2;stroke-linecap:butt;stroke-linejoin:miter;stroke:rgb(38.039216%,50.588235%,100%);stroke-opacity:1;stroke-miterlimit:10;" d="M 1 6 C 1 3.238281 3.238281 1 6 1 L 48 1 C 50.761719 1 53 3.238281 53 6 L 53 19 C 53 21.761719 50.761719 24 48 24 L 6 24 C 3.238281 24 1 21.761719 1 19 Z M 1 6 " transform="matrix(1,0,0,1,202,35)"/>
</g>
</g>
<g clip-path="url(#clip17)" clip-rule="nonzero">
<g clip-path="url(#clip18)" clip-rule="nonzero">
<rect x="0" y="0" width="542" height="96" style="fill:rgb(38.039216%,50.588235%,100%);fill-opacity:0.490196;stroke:none;"/>
<path style="fill:none;stroke-width:2;stroke-linecap:butt;stroke-linejoin:miter;stroke:rgb(38.039216%,50.588235%,100%);stroke-opacity:1;stroke-miterlimit:10;" d="M 1 6 C 1 3.238281 3.238281 1 6 1 L 48 1 C 50.761719 1 53 3.238281 53 6 L 53 19 C 53 21.761719 50.761719 24 48 24 L 6 24 C 3.238281 24 1 21.761719 1 19 Z M 1 6 " transform="matrix(1,0,0,1,202,10)"/>
</g>
</g>
<g clip-path="url(#clip19)" clip-rule="nonzero">
<g clip-path="url(#clip20)" clip-rule="nonzero">
<rect x="0" y="0" width="542" height="96" style="fill:rgb(38.039216%,50.588235%,100%);fill-opacity:0.490196;stroke:none;"/>
<path style="fill:none;stroke-width:2;stroke-linecap:butt;stroke-linejoin:miter;stroke:rgb(38.039216%,50.588235%,100%);stroke-opacity:1;stroke-miterlimit:10;" d="M 1 6 C 1 3.238281 3.238281 1 6 1 L 48 1 C 50.761719 1 53 3.238281 53 6 L 53 32 C 53 34.761719 50.761719 37 48 37 L 6 37 C 3.238281 37 1 34.761719 1 32 Z M 1 6 " transform="matrix(1,0,0,1,148,10)"/>
</g>
</g>
<g clip-path="url(#clip21)" clip-rule="nonzero">
<g clip-path="url(#clip22)" clip-rule="nonzero">
<rect x="0" y="0" width="542" height="96" style="fill:rgb(38.039216%,50.588235%,100%);fill-opacity:0.490196;stroke:none;"/>
<path style="fill:none;stroke-width:2;stroke-linecap:butt;stroke-linejoin:miter;stroke:rgb(38.039216%,50.588235%,100%);stroke-opacity:1;stroke-miterlimit:10;" d="M 1 6 C 1 3.238281 3.238281 1 6 1 L 48 1 C 50.761719 1 53 3.238281 53 6 L 53 32 C 53 34.761719 50.761719 37 48 37 L 6 37 C 3.238281 37 1 34.761719 1 32 Z M 1 6 " transform="matrix(1,0,0,1,340,48)"/>
</g>
</g>
<g clip-path="url(#clip23)" clip-rule="nonzero">
<g clip-path="url(#clip24)" clip-rule="nonzero">
<rect x="0" y="0" width="542" height="96" style="fill:rgb(38.039216%,50.588235%,100%);fill-opacity:0.490196;stroke:none;"/>
<path style="fill:none;stroke-width:2;stroke-linecap:butt;stroke-linejoin:miter;stroke:rgb(38.039216%,50.588235%,100%);stroke-opacity:1;stroke-miterlimit:10;" d="M 1 6 C 1 3.238281 3.238281 1 6 1 L 48 1 C 50.761719 1 53 3.238281 53 6 L 53 19 C 53 21.761719 50.761719 24 48 24 L 6 24 C 3.238281 24 1 21.761719 1 19 Z M 1 6 " transform="matrix(1,0,0,1,286,35)"/>
</g>
</g>
<g clip-path="url(#clip25)" clip-rule="nonzero">
<g clip-path="url(#clip26)" clip-rule="nonzero">
<rect x="0" y="0" width="542" height="96" style="fill:rgb(38.039216%,50.588235%,100%);fill-opacity:0.490196;stroke:none;"/>
<path style="fill:none;stroke-width:2;stroke-linecap:butt;stroke-linejoin:miter;stroke:rgb(38.039216%,50.588235%,100%);stroke-opacity:1;stroke-miterlimit:10;" d="M 1 6 C 1 3.238281 3.238281 1 6 1 L 48 1 C 50.761719 1 53 3.238281 53 6 L 53 19 C 53 21.761719 50.761719 24 48 24 L 6 24 C 3.238281 24 1 21.761719 1 19 Z M 1 6 " transform="matrix(1,0,0,1,286,60)"/>
</g>
</g>
<g clip-path="url(#clip27)" clip-rule="nonzero">
<g clip-path="url(#clip28)" clip-rule="nonzero">
<rect x="0" y="0" width="542" height="96" style="fill:rgb(38.039216%,50.588235%,100%);fill-opacity:0.490196;stroke:none;"/>
<path style="fill:none;stroke-width:2;stroke-linecap:butt;stroke-linejoin:miter;stroke:rgb(38.039216%,50.588235%,100%);stroke-opacity:1;stroke-miterlimit:10;" d="M 1 6 C 1 3.238281 3.238281 1 6 1 L 48 1 C 50.761719 1 53 3.238281 53 6 L 53 32 C 53 34.761719 50.761719 37 48 37 L 6 37 C 3.238281 37 1 34.761719 1 32 Z M 1 6 " transform="matrix(1,0,0,1,340,10)"/>
</g>
</g>
<g clip-path="url(#clip29)" clip-rule="nonzero">
<g clip-path="url(#clip30)" clip-rule="nonzero">
<rect x="0" y="0" width="542" height="96" style="fill:rgb(38.039216%,50.588235%,100%);fill-opacity:0.490196;stroke:none;"/>
<path style="fill:none;stroke-width:2;stroke-linecap:butt;stroke-linejoin:miter;stroke:rgb(38.039216%,50.588235%,100%);stroke-opacity:1;stroke-miterlimit:10;" d="M 1 6 C 1 3.238281 3.238281 1 6 1 L 48 1 C 50.761719 1 53 3.238281 53 6 L 53 19 C 53 21.761719 50.761719 24 48 24 L 6 24 C 3.238281 24 1 21.761719 1 19 Z M 1 6 " transform="matrix(1,0,0,1,286,10)"/>
</g>
</g>
<g clip-path="url(#clip31)" clip-rule="nonzero">
<g clip-path="url(#clip32)" clip-rule="nonzero">
<rect x="0" y="0" width="542" height="96" style="fill:rgb(38.039216%,50.588235%,100%);fill-opacity:0.490196;stroke:none;"/>
<path style="fill:none;stroke-width:2;stroke-linecap:butt;stroke-linejoin:miter;stroke:rgb(38.039216%,50.588235%,100%);stroke-opacity:1;stroke-miterlimit:10;" d="M 1 6 C 1 3.238281 3.238281 1 6 1 L 48 1 C 50.761719 1 53 3.238281 53 6 L 53 70 C 53 72.761719 50.761719 75 48 75 L 6 75 C 3.238281 75 1 72.761719 1 70 Z M 1 6 " transform="matrix(1,0,0,1,478,10)"/>
</g>
</g>
<g clip-path="url(#clip33)" clip-rule="nonzero">
<g clip-path="url(#clip34)" clip-rule="nonzero">
<rect x="0" y="0" width="542" height="96" style="fill:rgb(38.039216%,50.588235%,100%);fill-opacity:0.490196;stroke:none;"/>
<path style="fill:none;stroke-width:2;stroke-linecap:butt;stroke-linejoin:miter;stroke:rgb(38.039216%,50.588235%,100%);stroke-opacity:1;stroke-miterlimit:10;" d="M 1 6 C 1 3.238281 3.238281 1 6 1 L 48 1 C 50.761719 1 53 3.238281 53 6 L 53 13 C 53 15.761719 50.761719 18 48 18 L 6 18 C 3.238281 18 1 15.761719 1 13 Z M 1 6 " transform="matrix(1,0,0,1,424,29)"/>
</g>
</g>
<g clip-path="url(#clip35)" clip-rule="nonzero">
<g clip-path="url(#clip36)" clip-rule="nonzero">
<rect x="0" y="0" width="542" height="96" style="fill:rgb(38.039216%,50.588235%,100%);fill-opacity:0.490196;stroke:none;"/>
<path style="fill:none;stroke-width:2;stroke-linecap:butt;stroke-linejoin:miter;stroke:rgb(38.039216%,50.588235%,100%);stroke-opacity:1;stroke-miterlimit:10;" d="M 1 6 C 1 3.238281 3.238281 1 6 1 L 48 1 C 50.761719 1 53 3.238281 53 6 L 53 13 C 53 15.761719 50.761719 18 48 18 L 6 18 C 3.238281 18 1 15.761719 1 13 Z M 1 6 " transform="matrix(1,0,0,1,424,48)"/>
</g>
</g>
<g clip-path="url(#clip37)" clip-rule="nonzero">
<g clip-path="url(#clip38)" clip-rule="nonzero">
<rect x="0" y="0" width="542" height="96" style="fill:rgb(38.039216%,50.588235%,100%);fill-opacity:0.490196;stroke:none;"/>
<path style="fill:none;stroke-width:2;stroke-linecap:butt;stroke-linejoin:miter;stroke:rgb(38.039216%,50.588235%,100%);stroke-opacity:1;stroke-miterlimit:10;" d="M 1 6 C 1 3.238281 3.238281 1 6 1 L 48 1 C 50.761719 1 53 3.238281 53 6 L 53 13 C 53 15.761719 50.761719 18 48 18 L 6 18 C 3.238281 18 1 15.761719 1 13 Z M 1 6 " transform="matrix(1,0,0,1,424,67)"/>
</g>
</g>
<g clip-path="url(#clip39)" clip-rule="nonzero">
<g clip-path="url(#clip40)" clip-rule="nonzero">
<rect x="0" y="0" width="542" height="96" style="fill:rgb(38.039216%,50.588235%,100%);fill-opacity:0.490196;stroke:none;"/>
<path style="fill:none;stroke-width:2;stroke-linecap:butt;stroke-linejoin:miter;stroke:rgb(38.039216%,50.588235%,100%);stroke-opacity:1;stroke-miterlimit:10;" d="M 1 6 C 1 3.238281 3.238281 1 6 1 L 48 1 C 50.761719 1 53 3.238281 53 6 L 53 13 C 53 15.761719 50.761719 18 48 18 L 6 18 C 3.238281 18 1 15.761719 1 13 Z M 1 6 " transform="matrix(1,0,0,1,424,10)"/>
</g>
</g>
</g>
</svg>
