<?xml version="1.0" encoding="UTF-8"?>
<svg xmlns="http://www.w3.org/2000/svg" xmlns:xlink="http://www.w3.org/1999/xlink" width="408pt" height="96pt" viewBox="0 0 408 96" version="1.1">
<defs>
<clipPath id="clip1">
  <path d="M 40 40 L 170 40 L 170 96 L 40 96 Z M 40 40 "/>
</clipPath>
<clipPath id="clip2">
  <path d="M 41 41 L 169 41 L 169 96 L 41 96 Z M 41 41 "/>
</clipPath>
<clipPath id="clip3">
  <path d="M 41 46 C 41 43.238281 43.238281 41 46 41 L 164 41 C 166.761719 41 169 43.238281 169 46 L 169 130 C 169 132.761719 166.761719 135 164 135 L 46 135 C 43.238281 135 41 132.761719 41 130 Z M 41 46 "/>
</clipPath>
<clipPath id="clip4">
  <path d="M 0 0 L 130 0 L 130 96 L 0 96 Z M 0 0 "/>
</clipPath>
<clipPath id="clip5">
  <path d="M 1 1 L 129 1 L 129 95 L 1 95 Z M 1 1 "/>
</clipPath>
<clipPath id="clip6">
  <path d="M 1 6 C 1 3.238281 3.238281 1 6 1 L 124 1 C 126.761719 1 129 3.238281 129 6 L 129 90 C 129 92.761719 126.761719 95 124 95 L 6 95 C 3.238281 95 1 92.761719 1 90 Z M 1 6 "/>
</clipPath>
<clipPath id="clip7">
  <path d="M 0 0 L 130 0 L 130 96 L 0 96 Z M 0 0 "/>
</clipPath>
<clipPath id="clip8">
  <path d="M 1 1 L 129 1 L 129 95 L 1 95 Z M 1 1 "/>
</clipPath>
<clipPath id="clip9">
  <path d="M 1 6 C 1 3.238281 3.238281 1 6 1 L 124 1 C 126.761719 1 129 3.238281 129 6 L 129 90 C 129 92.761719 126.761719 95 124 95 L 6 95 C 3.238281 95 1 92.761719 1 90 Z M 1 6 "/>
</clipPath>
<clipPath id="clip10">
  <path d="M 180 40 L 259 40 L 259 96 L 180 96 Z M 180 40 "/>
</clipPath>
<clipPath id="clip11">
  <path d="M 181 41 L 258 41 L 258 96 L 181 96 Z M 181 41 "/>
</clipPath>
<clipPath id="clip12">
  <path d="M 181 46 C 181 43.238281 183.238281 41 186 41 L 253 41 C 255.761719 41 258 43.238281 258 46 L 258 130 C 258 132.761719 255.761719 135 253 135 L 186 135 C 183.238281 135 181 132.761719 181 130 Z M 181 46 "/>
</clipPath>
<clipPath id="clip13">
  <path d="M 140 0 L 219 0 L 219 96 L 140 96 Z M 140 0 "/>
</clipPath>
<clipPath id="clip14">
  <path d="M 141 1 L 218 1 L 218 95 L 141 95 Z M 141 1 "/>
</clipPath>
<clipPath id="clip15">
  <path d="M 141 6 C 141 3.238281 143.238281 1 146 1 L 213 1 C 215.761719 1 218 3.238281 218 6 L 218 90 C 218 92.761719 215.761719 95 213 95 L 146 95 C 143.238281 95 141 92.761719 141 90 Z M 141 6 "/>
</clipPath>
<clipPath id="clip16">
  <path d="M 140 0 L 219 0 L 219 96 L 140 96 Z M 140 0 "/>
</clipPath>
<clipPath id="clip17">
  <path d="M 141 1 L 218 1 L 218 95 L 141 95 Z M 141 1 "/>
</clipPath>
<clipPath id="clip18">
  <path d="M 141 6 C 141 3.238281 143.238281 1 146 1 L 213 1 C 215.761719 1 218 3.238281 218 6 L 218 90 C 218 92.761719 215.761719 95 213 95 L 146 95 C 143.238281 95 141 92.761719 141 90 Z M 141 6 "/>
</clipPath>
<clipPath id="clip19">
  <path d="M 320 40 L 408 40 L 408 94 L 320 94 Z M 320 40 "/>
</clipPath>
<clipPath id="clip20">
  <path d="M 321 41 L 408 41 L 408 93 L 321 93 Z M 321 41 "/>
</clipPath>
<clipPath id="clip21">
  <path d="M 321 46 C 321 43.238281 323.238281 41 326 41 L 444 41 C 446.761719 41 449 43.238281 449 46 L 449 88 C 449 90.761719 446.761719 93 444 93 L 326 93 C 323.238281 93 321 90.761719 321 88 Z M 321 46 "/>
</clipPath>
<clipPath id="clip22">
  <path d="M 280 0 L 408 0 L 408 54 L 280 54 Z M 280 0 "/>
</clipPath>
<clipPath id="clip23">
  <path d="M 281 1 L 408 1 L 408 53 L 281 53 Z M 281 1 "/>
</clipPath>
<clipPath id="clip24">
  <path d="M 281 6 C 281 3.238281 283.238281 1 286 1 L 404 1 C 406.761719 1 409 3.238281 409 6 L 409 48 C 409 50.761719 406.761719 53 404 53 L 286 53 C 283.238281 53 281 50.761719 281 48 Z M 281 6 "/>
</clipPath>
<clipPath id="clip25">
  <path d="M 280 0 L 408 0 L 408 54 L 280 54 Z M 280 0 "/>
</clipPath>
<clipPath id="clip26">
  <path d="M 281 1 L 408 1 L 408 53 L 281 53 Z M 281 1 "/>
</clipPath>
<clipPath id="clip27">
  <path d="M 281 6 C 281 3.238281 283.238281 1 286 1 L 404 1 C 406.761719 1 409 3.238281 409 6 L 409 48 C 409 50.761719 406.761719 53 404 53 L 286 53 C 283.238281 53 281 50.761719 281 48 Z M 281 6 "/>
</clipPath>
</defs>
<g id="surface2">
<path style="fill:none;stroke-width:1.5;stroke-linecap:butt;stroke-linejoin:miter;stroke:rgb(0%,0%,0%);stroke-opacity:0.266667;stroke-dasharray:10,4;stroke-dashoffset:1;stroke-miterlimit:10;" d="M 0.75 0.75 L 127.25 0.75 L 127.25 95.25 L 0.75 95.25 Z M 0.75 0.75 "/>
<path style="fill:none;stroke-width:1.5;stroke-linecap:butt;stroke-linejoin:miter;stroke:rgb(0%,0%,0%);stroke-opacity:0.2;stroke-dasharray:10,4;stroke-dashoffset:1;stroke-miterlimit:10;" d="M 10 10 L 118 10 L 118 86 L 10 86 Z M 10 10 "/>
<path style="fill:none;stroke-width:1.5;stroke-linecap:butt;stroke-linejoin:miter;stroke:rgb(0%,0%,0%);stroke-opacity:0.266667;stroke-dasharray:10,4;stroke-dashoffset:1;stroke-miterlimit:10;" d="M 140.75 0.75 L 267.25 0.75 L 267.25 95.25 L 140.75 95.25 Z M 140.75 0.75 "/>
<path style="fill:none;stroke-width:1.5;stroke-linecap:butt;stroke-linejoin:miter;stroke:rgb(0%,0%,0%);stroke-opacity:0.2;stroke-dasharray:10,4;stroke-dashoffset:1;stroke-miterlimit:10;" d="M 150 10 L 258 10 L 258 86 L 150 86 Z M 150 10 "/>
<path style="fill:none;stroke-width:1.5;stroke-linecap:butt;stroke-linejoin:miter;stroke:rgb(0%,0%,0%);stroke-opacity:0.266667;stroke-dasharray:10,4;stroke-dashoffset:1;stroke-miterlimit:10;" d="M 280.75 0.75 L 407.25 0.75 L 407.25 95.25 L 280.75 95.25 Z M 280.75 0.75 "/>
<path style="fill:none;stroke-width:1.5;stroke-linecap:butt;stroke-linejoin:miter;stroke:rgb(0%,0%,0%);stroke-opacity:0.2;stroke-dasharray:10,4;stroke-dashoffset:1;stroke-miterlimit:10;" d="M 290 10 L 398 10 L 398 86 L 290 86 Z M 290 10 "/>
<path style="fill:none;stroke-width:1.5;stroke-linecap:butt;stroke-linejoin:miter;stroke:rgb(0%,0%,0%);stroke-opacity:0.1;stroke-miterlimit:10;" d="M 40 40 L 0 0 "/>
<path style="fill:none;stroke-width:1.5;stroke-linecap:butt;stroke-linejoin:miter;stroke:rgb(0%,0%,0%);stroke-opacity:0.1;stroke-miterlimit:10;" d="M 115 40 L 75 0 M 40 90 L 0 50 "/>
<path style="fill:none;stroke-width:1.5;stroke-linecap:butt;stroke-linejoin:miter;stroke:rgb(0%,0%,0%);stroke-opacity:0.1;stroke-miterlimit:10;" d="M 115 90 L 75 50 "/>
<path style="fill:none;stroke-width:1.5;stroke-linecap:butt;stroke-linejoin:miter;stroke:rgb(0%,0%,0%);stroke-opacity:0.1;stroke-miterlimit:10;" d="M 0 0 L 0 0 "/>
<path style="fill:none;stroke-width:1.5;stroke-linecap:butt;stroke-linejoin:miter;stroke:rgb(0%,0%,0%);stroke-opacity:0.1;stroke-miterlimit:10;" d="M 75 0 L 75 0 M 0 50 L 0 94 "/>
<path style="fill:none;stroke-width:1.5;stroke-linecap:butt;stroke-linejoin:miter;stroke:rgb(0%,0%,0%);stroke-opacity:0.1;stroke-miterlimit:10;" d="M 75 50 L 75 94 "/>
<path style="fill:none;stroke-width:1.5;stroke-linecap:butt;stroke-linejoin:miter;stroke:rgb(0%,0%,0%);stroke-opacity:0.1;stroke-miterlimit:10;" d="M 180 40 L 140 0 "/>
<path style="fill:none;stroke-width:1.5;stroke-linecap:butt;stroke-linejoin:miter;stroke:rgb(0%,0%,0%);stroke-opacity:0.1;stroke-miterlimit:10;" d="M 255 40 L 215 0 M 180 90 L 140 50 "/>
<path style="fill:none;stroke-width:1.5;stroke-linecap:butt;stroke-linejoin:miter;stroke:rgb(0%,0%,0%);stroke-opacity:0.1;stroke-miterlimit:10;" d="M 255 90 L 215 50 "/>
<path style="fill:none;stroke-width:1.5;stroke-linecap:butt;stroke-linejoin:miter;stroke:rgb(0%,0%,0%);stroke-opacity:0.1;stroke-miterlimit:10;" d="M 140 0 L 140 0 "/>
<path style="fill:none;stroke-width:1.5;stroke-linecap:butt;stroke-linejoin:miter;stroke:rgb(0%,0%,0%);stroke-opacity:0.1;stroke-miterlimit:10;" d="M 215 0 L 215 0 M 140 50 L 140 94 "/>
<path style="fill:none;stroke-width:1.5;stroke-linecap:butt;stroke-linejoin:miter;stroke:rgb(0%,0%,0%);stroke-opacity:0.1;stroke-miterlimit:10;" d="M 215 50 L 215 94 "/>
<path style="fill:none;stroke-width:1.5;stroke-linecap:butt;stroke-linejoin:miter;stroke:rgb(0%,0%,0%);stroke-opacity:0.1;stroke-miterlimit:10;" d="M 320 40 L 280 0 "/>
<path style="fill:none;stroke-width:1.5;stroke-linecap:butt;stroke-linejoin:miter;stroke:rgb(0%,0%,0%);stroke-opacity:0.1;stroke-miterlimit:10;" d="M 395 40 L 355 0 M 320 90 L 280 50 "/>
<path style="fill:none;stroke-width:1.5;stroke-linecap:butt;stroke-linejoin:miter;stroke:rgb(0%,0%,0%);stroke-opacity:0.1;stroke-miterlimit:10;" d="M 395 90 L 355 50 "/>
<path style="fill:none;stroke-width:1.5;stroke-linecap:butt;stroke-linejoin:miter;stroke:rgb(0%,0%,0%);stroke-opacity:0.1;stroke-miterlimit:10;" d="M 280 0 L 280 0 "/>
<path style="fill:none;stroke-width:1.5;stroke-linecap:butt;stroke-linejoin:miter;stroke:rgb(0%,0%,0%);stroke-opacity:0.1;stroke-miterlimit:10;" d="M 355 0 L 355 0 M 280 50 L 280 50 "/>
<path style="fill:none;stroke-width:1.5;stroke-linecap:butt;stroke-linejoin:miter;stroke:rgb(0%,0%,0%);stroke-opacity:0.1;stroke-miterlimit:10;" d="M 355 50 L 355 50 "/>
<g clip-path="url(#clip1)" clip-rule="nonzero">
<path style="fill:none;stroke-width:1;stroke-linecap:butt;stroke-linejoin:miter;stroke:rgb(38.039216%,50.588235%,100%);stroke-opacity:1;stroke-miterlimit:10;" d="M 0 5 C 0 2.238281 2.238281 0 5 0 L 123 0 C 125.761719 0 128 2.238281 128 5 L 128 89 C 128 91.761719 125.761719 94 123 94 L 5 94 C 2.238281 94 0 91.761719 0 89 Z M 0 5 " transform="matrix(1,0,0,1,41,41)"/>
</g>
<path style=" stroke:none;fill-rule:nonzero;fill:rgb(38.039216%,50.588235%,100%);fill-opacity:0.490196;" d="M 41 46 C 41 43.238281 43.238281 41 46 41 L 164 41 C 166.761719 41 169 43.238281 169 46 L 169 130 C 169 132.761719 166.761719 135 164 135 L 46 135 C 43.238281 135 41 132.761719 41 130 Z M 41 46 "/>
<g clip-path="url(#clip2)" clip-rule="nonzero">
<g clip-path="url(#clip3)" clip-rule="nonzero">
<path style="fill:none;stroke-width:1;stroke-linecap:butt;stroke-linejoin:miter;stroke:rgb(38.039216%,50.588235%,100%);stroke-opacity:1;stroke-miterlimit:10;" d="M 0 5 C 0 2.238281 2.238281 0 5 0 L 123 0 C 125.761719 0 128 2.238281 128 5 L 128 89 C 128 91.761719 125.761719 94 123 94 L 5 94 C 2.238281 94 0 91.761719 0 89 Z M 0 5 " transform="matrix(1,0,0,1,41,41)"/>
</g>
</g>
<g clip-path="url(#clip4)" clip-rule="nonzero">
<path style="fill:none;stroke-width:1;stroke-linecap:butt;stroke-linejoin:miter;stroke:rgb(38.039216%,50.588235%,100%);stroke-opacity:1;stroke-miterlimit:10;" d="M 0 5 C 0 2.238281 2.238281 0 5 0 L 123 0 C 125.761719 0 128 2.238281 128 5 L 128 89 C 128 91.761719 125.761719 94 123 94 L 5 94 C 2.238281 94 0 91.761719 0 89 Z M 0 5 " transform="matrix(1,0,0,1,1,1)"/>
</g>
<path style=" stroke:none;fill-rule:nonzero;fill:rgb(38.039216%,50.588235%,100%);fill-opacity:0.490196;" d="M 1 6 C 1 3.238281 3.238281 1 6 1 L 124 1 C 126.761719 1 129 3.238281 129 6 L 129 90 C 129 92.761719 126.761719 95 124 95 L 6 95 C 3.238281 95 1 92.761719 1 90 Z M 1 6 "/>
<g clip-path="url(#clip5)" clip-rule="nonzero">
<g clip-path="url(#clip6)" clip-rule="nonzero">
<path style="fill:none;stroke-width:1;stroke-linecap:butt;stroke-linejoin:miter;stroke:rgb(38.039216%,50.588235%,100%);stroke-opacity:1;stroke-miterlimit:10;" d="M 0 5 C 0 2.238281 2.238281 0 5 0 L 123 0 C 125.761719 0 128 2.238281 128 5 L 128 89 C 128 91.761719 125.761719 94 123 94 L 5 94 C 2.238281 94 0 91.761719 0 89 Z M 0 5 " transform="matrix(1,0,0,1,1,1)"/>
</g>
</g>
<g clip-path="url(#clip7)" clip-rule="nonzero">
<path style="fill:none;stroke-width:1;stroke-linecap:butt;stroke-linejoin:miter;stroke:rgb(38.039216%,50.588235%,100%);stroke-opacity:1;stroke-miterlimit:10;" d="M 0 5 C 0 2.238281 2.238281 0 5 0 L 123 0 C 125.761719 0 128 2.238281 128 5 L 128 89 C 128 91.761719 125.761719 94 123 94 L 5 94 C 2.238281 94 0 91.761719 0 89 Z M 0 5 " transform="matrix(1,0,0,1,1,1)"/>
</g>
<path style=" stroke:none;fill-rule:nonzero;fill:rgb(38.039216%,50.588235%,100%);fill-opacity:0.490196;" d="M 1 6 C 1 3.238281 3.238281 1 6 1 L 124 1 C 126.761719 1 129 3.238281 129 6 L 129 90 C 129 92.761719 126.761719 95 124 95 L 6 95 C 3.238281 95 1 92.761719 1 90 Z M 1 6 "/>
<g clip-path="url(#clip8)" clip-rule="nonzero">
<g clip-path="url(#clip9)" clip-rule="nonzero">
<path style="fill:none;stroke-width:1;stroke-linecap:butt;stroke-linejoin:miter;stroke:rgb(38.039216%,50.588235%,100%);stroke-opacity:1;stroke-miterlimit:10;" d="M 0 5 C 0 2.238281 2.238281 0 5 0 L 123 0 C 125.761719 0 128 2.238281 128 5 L 128 89 C 128 91.761719 125.761719 94 123 94 L 5 94 C 2.238281 94 0 91.761719 0 89 Z M 0 5 " transform="matrix(1,0,0,1,1,1)"/>
</g>
</g>
<g clip-path="url(#clip10)" clip-rule="nonzero">
<path style="fill:none;stroke-width:1;stroke-linecap:butt;stroke-linejoin:miter;stroke:rgb(38.039216%,50.588235%,100%);stroke-opacity:1;stroke-miterlimit:10;" d="M 0 5 C 0 2.238281 2.238281 0 5 0 L 72 0 C 74.761719 0 77 2.238281 77 5 L 77 89 C 77 91.761719 74.761719 94 72 94 L 5 94 C 2.238281 94 0 91.761719 0 89 Z M 0 5 " transform="matrix(1,0,0,1,181,41)"/>
</g>
<path style=" stroke:none;fill-rule:nonzero;fill:rgb(38.039216%,50.588235%,100%);fill-opacity:0.490196;" d="M 181 46 C 181 43.238281 183.238281 41 186 41 L 253 41 C 255.761719 41 258 43.238281 258 46 L 258 130 C 258 132.761719 255.761719 135 253 135 L 186 135 C 183.238281 135 181 132.761719 181 130 Z M 181 46 "/>
<g clip-path="url(#clip11)" clip-rule="nonzero">
<g clip-path="url(#clip12)" clip-rule="nonzero">
<path style="fill:none;stroke-width:1;stroke-linecap:butt;stroke-linejoin:miter;stroke:rgb(38.039216%,50.588235%,100%);stroke-opacity:1;stroke-miterlimit:10;" d="M 0 5 C 0 2.238281 2.238281 0 5 0 L 72 0 C 74.761719 0 77 2.238281 77 5 L 77 89 C 77 91.761719 74.761719 94 72 94 L 5 94 C 2.238281 94 0 91.761719 0 89 Z M 0 5 " transform="matrix(1,0,0,1,181,41)"/>
</g>
</g>
<g clip-path="url(#clip13)" clip-rule="nonzero">
<path style="fill:none;stroke-width:1;stroke-linecap:butt;stroke-linejoin:miter;stroke:rgb(38.039216%,50.588235%,100%);stroke-opacity:1;stroke-miterlimit:10;" d="M 0 5 C 0 2.238281 2.238281 0 5 0 L 72 0 C 74.761719 0 77 2.238281 77 5 L 77 89 C 77 91.761719 74.761719 94 72 94 L 5 94 C 2.238281 94 0 91.761719 0 89 Z M 0 5 " transform="matrix(1,0,0,1,141,1)"/>
</g>
<path style=" stroke:none;fill-rule:nonzero;fill:rgb(38.039216%,50.588235%,100%);fill-opacity:0.490196;" d="M 141 6 C 141 3.238281 143.238281 1 146 1 L 213 1 C 215.761719 1 218 3.238281 218 6 L 218 90 C 218 92.761719 215.761719 95 213 95 L 146 95 C 143.238281 95 141 92.761719 141 90 Z M 141 6 "/>
<g clip-path="url(#clip14)" clip-rule="nonzero">
<g clip-path="url(#clip15)" clip-rule="nonzero">
<path style="fill:none;stroke-width:1;stroke-linecap:butt;stroke-linejoin:miter;stroke:rgb(38.039216%,50.588235%,100%);stroke-opacity:1;stroke-miterlimit:10;" d="M 0 5 C 0 2.238281 2.238281 0 5 0 L 72 0 C 74.761719 0 77 2.238281 77 5 L 77 89 C 77 91.761719 74.761719 94 72 94 L 5 94 C 2.238281 94 0 91.761719 0 89 Z M 0 5 " transform="matrix(1,0,0,1,141,1)"/>
</g>
</g>
<g clip-path="url(#clip16)" clip-rule="nonzero">
<path style="fill:none;stroke-width:1;stroke-linecap:butt;stroke-linejoin:miter;stroke:rgb(38.039216%,50.588235%,100%);stroke-opacity:1;stroke-miterlimit:10;" d="M 0 5 C 0 2.238281 2.238281 0 5 0 L 72 0 C 74.761719 0 77 2.238281 77 5 L 77 89 C 77 91.761719 74.761719 94 72 94 L 5 94 C 2.238281 94 0 91.761719 0 89 Z M 0 5 " transform="matrix(1,0,0,1,141,1)"/>
</g>
<path style=" stroke:none;fill-rule:nonzero;fill:rgb(38.039216%,50.588235%,100%);fill-opacity:0.490196;" d="M 141 6 C 141 3.238281 143.238281 1 146 1 L 213 1 C 215.761719 1 218 3.238281 218 6 L 218 90 C 218 92.761719 215.761719 95 213 95 L 146 95 C 143.238281 95 141 92.761719 141 90 Z M 141 6 "/>
<g clip-path="url(#clip17)" clip-rule="nonzero">
<g clip-path="url(#clip18)" clip-rule="nonzero">
<path style="fill:none;stroke-width:1;stroke-linecap:butt;stroke-linejoin:miter;stroke:rgb(38.039216%,50.588235%,100%);stroke-opacity:1;stroke-miterlimit:10;" d="M 0 5 C 0 2.238281 2.238281 0 5 0 L 72 0 C 74.761719 0 77 2.238281 77 5 L 77 89 C 77 91.761719 74.761719 94 72 94 L 5 94 C 2.238281 94 0 91.761719 0 89 Z M 0 5 " transform="matrix(1,0,0,1,141,1)"/>
</g>
</g>
<g clip-path="url(#clip19)" clip-rule="nonzero">
<path style="fill:none;stroke-width:1;stroke-linecap:butt;stroke-linejoin:miter;stroke:rgb(38.039216%,50.588235%,100%);stroke-opacity:1;stroke-miterlimit:10;" d="M 0 5 C 0 2.238281 2.238281 0 5 0 L 123 0 C 125.761719 0 128 2.238281 128 5 L 128 47 C 128 49.761719 125.761719 52 123 52 L 5 52 C 2.238281 52 0 49.761719 0 47 Z M 0 5 " transform="matrix(1,0,0,1,321,41)"/>
</g>
<path style=" stroke:none;fill-rule:nonzero;fill:rgb(38.039216%,50.588235%,100%);fill-opacity:0.490196;" d="M 321 46 C 321 43.238281 323.238281 41 326 41 L 444 41 C 446.761719 41 449 43.238281 449 46 L 449 88 C 449 90.761719 446.761719 93 444 93 L 326 93 C 323.238281 93 321 90.761719 321 88 Z M 321 46 "/>
<g clip-path="url(#clip20)" clip-rule="nonzero">
<g clip-path="url(#clip21)" clip-rule="nonzero">
<path style="fill:none;stroke-width:1;stroke-linecap:butt;stroke-linejoin:miter;stroke:rgb(38.039216%,50.588235%,100%);stroke-opacity:1;stroke-miterlimit:10;" d="M 0 5 C 0 2.238281 2.238281 0 5 0 L 123 0 C 125.761719 0 128 2.238281 128 5 L 128 47 C 128 49.761719 125.761719 52 123 52 L 5 52 C 2.238281 52 0 49.761719 0 47 Z M 0 5 " transform="matrix(1,0,0,1,321,41)"/>
</g>
</g>
<g clip-path="url(#clip22)" clip-rule="nonzero">
<path style="fill:none;stroke-width:1;stroke-linecap:butt;stroke-linejoin:miter;stroke:rgb(38.039216%,50.588235%,100%);stroke-opacity:1;stroke-miterlimit:10;" d="M 0 5 C 0 2.238281 2.238281 0 5 0 L 123 0 C 125.761719 0 128 2.238281 128 5 L 128 47 C 128 49.761719 125.761719 52 123 52 L 5 52 C 2.238281 52 0 49.761719 0 47 Z M 0 5 " transform="matrix(1,0,0,1,281,1)"/>
</g>
<path style=" stroke:none;fill-rule:nonzero;fill:rgb(38.039216%,50.588235%,100%);fill-opacity:0.490196;" d="M 281 6 C 281 3.238281 283.238281 1 286 1 L 404 1 C 406.761719 1 409 3.238281 409 6 L 409 48 C 409 50.761719 406.761719 53 404 53 L 286 53 C 283.238281 53 281 50.761719 281 48 Z M 281 6 "/>
<g clip-path="url(#clip23)" clip-rule="nonzero">
<g clip-path="url(#clip24)" clip-rule="nonzero">
<path style="fill:none;stroke-width:1;stroke-linecap:butt;stroke-linejoin:miter;stroke:rgb(38.039216%,50.588235%,100%);stroke-opacity:1;stroke-miterlimit:10;" d="M 0 5 C 0 2.238281 2.238281 0 5 0 L 123 0 C 125.761719 0 128 2.238281 128 5 L 128 47 C 128 49.761719 125.761719 52 123 52 L 5 52 C 2.238281 52 0 49.761719 0 47 Z M 0 5 " transform="matrix(1,0,0,1,281,1)"/>
</g>
</g>
<g clip-path="url(#clip25)" clip-rule="nonzero">
<path style="fill:none;stroke-width:1;stroke-linecap:butt;stroke-linejoin:miter;stroke:rgb(38.039216%,50.588235%,100%);stroke-opacity:1;stroke-miterlimit:10;" d="M 0 5 C 0 2.238281 2.238281 0 5 0 L 123 0 C 125.761719 0 128 2.238281 128 5 L 128 47 C 128 49.761719 125.761719 52 123 52 L 5 52 C 2.238281 52 0 49.761719 0 47 Z M 0 5 " transform="matrix(1,0,0,1,281,1)"/>
</g>
<path style=" stroke:none;fill-rule:nonzero;fill:rgb(38.039216%,50.588235%,100%);fill-opacity:0.490196;" d="M 281 6 C 281 3.238281 283.238281 1 286 1 L 404 1 C 406.761719 1 409 3.238281 409 6 L 409 48 C 409 50.761719 406.761719 53 404 53 L 286 53 C 283.238281 53 281 50.761719 281 48 Z M 281 6 "/>
<g clip-path="url(#clip26)" clip-rule="nonzero">
<g clip-path="url(#clip27)" clip-rule="nonzero">
<path style="fill:none;stroke-width:1;stroke-linecap:butt;stroke-linejoin:miter;stroke:rgb(38.039216%,50.588235%,100%);stroke-opacity:1;stroke-miterlimit:10;" d="M 0 5 C 0 2.238281 2.238281 0 5 0 L 123 0 C 125.761719 0 128 2.238281 128 5 L 128 47 C 128 49.761719 125.761719 52 123 52 L 5 52 C 2.238281 52 0 49.761719 0 47 Z M 0 5 " transform="matrix(1,0,0,1,281,1)"/>
</g>
</g>
</g>
</svg>
