<?xml version="1.0" encoding="UTF-8"?>
<svg xmlns="http://www.w3.org/2000/svg" xmlns:xlink="http://www.w3.org/1999/xlink" width="542pt" height="96pt" viewBox="0 0 542 96" version="1.1">
<g id="surface2">
<path style="fill:none;stroke-width:1.5;stroke-linecap:butt;stroke-linejoin:miter;stroke:rgb(0%,0%,0%);stroke-opacity:0.266667;stroke-dasharray:10,4;stroke-dashoffset:1;stroke-miterlimit:10;" d="M 0.75 0.75 L 127.25 0.75 L 127.25 95.25 L 0.75 95.25 Z M 0.75 0.75 "/>
<path style="fill:none;stroke-width:1.5;stroke-linecap:butt;stroke-linejoin:miter;stroke:rgb(0%,0%,0%);stroke-opacity:0.2;stroke-dasharray:10,4;stroke-dashoffset:1;stroke-miterlimit:10;" d="M 10 10 L 118 10 L 118 86 L 10 86 Z M 10 10 "/>
<path style="fill:none;stroke-width:1.5;stroke-linecap:butt;stroke-linejoin:miter;stroke:rgb(0%,0%,0%);stroke-opacity:0.266667;stroke-dasharray:10,4;stroke-dashoffset:1;stroke-miterlimit:10;" d="M 138.75 0.75 L 265.25 0.75 L 265.25 95.25 L 138.75 95.25 Z M 138.75 0.75 "/>
<path style="fill:none;stroke-width:1.5;stroke-linecap:butt;stroke-linejoin:miter;stroke:rgb(0%,0%,0%);stroke-opacity:0.2;stroke-dasharray:10,4;stroke-dashoffset:1;stroke-miterlimit:10;" d="M 148 10 L 256 10 L 256 86 L 148 86 Z M 148 10 "/>
<path style="fill:none;stroke-width:1.5;stroke-linecap:butt;stroke-linejoin:miter;stroke:rgb(0%,0%,0%);stroke-opacity:0.266667;stroke-dasharray:10,4;stroke-dashoffset:1;stroke-miterlimit:10;" d="M 276.75 0.75 L 403.25 0.75 L 403.25 95.25 L 276.75 95.25 Z M 276.75 0.75 "/>
<path style="fill:none;stroke-width:1.5;stroke-linecap:butt;stroke-linejoin:miter;stroke:rgb(0%,0%,0%);stroke-opacity:0.2;stroke-dasharray:10,4;stroke-dashoffset:1;stroke-miterlimit:10;" d="M 286 10 L 394 10 L 394 86 L 286 86 Z M 286 10 "/>
<path style="fill:none;stroke-width:1.5;stroke-linecap:butt;stroke-linejoin:miter;stroke:rgb(0%,0%,0%);stroke-opacity:0.266667;stroke-dasharray:10,4;stroke-dashoffset:1;stroke-miterlimit:10;" d="M 414.75 0.75 L 541.25 0.75 L 541.25 95.25 L 414.75 95.25 Z M 414.75 0.75 "/>
<path style="fill:none;stroke-width:1.5;stroke-linecap:butt;stroke-linejoin:miter;stroke:rgb(0%,0%,0%);stroke-opacity:0.2;stroke-dasharray:10,4;stroke-dashoffset:1;stroke-miterlimit:10;" d="M 424 10 L 532 10 L 532 86 L 424 86 Z M 424 10 "/>
<path style="fill:none;stroke-width:1.5;stroke-linecap:butt;stroke-linejoin:miter;stroke:rgb(38.039216%,50.588235%,100%);stroke-opacity:1;stroke-miterlimit:10;" d="M 0 5 C 0 2.238281 2.238281 0 5 0 L 64 0 C 66.761719 0 69 2.238281 69 5 L 69 43 C 69 45.761719 66.761719 48 64 48 L 5 48 C 2.238281 48 0 45.761719 0 43 Z M 0 5 " transform="matrix(1,0,0,1,10,10)"/>
<path style=" stroke:none;fill-rule:nonzero;fill:rgb(38.039216%,50.588235%,100%);fill-opacity:0.490196;" d="M 10 15 C 10 12.238281 12.238281 10 15 10 L 74 10 C 76.761719 10 79 12.238281 79 15 L 79 53 C 79 55.761719 76.761719 58 74 58 L 15 58 C 12.238281 58 10 55.761719 10 53 Z M 10 15 "/>
<path style="fill:none;stroke-width:1.5;stroke-linecap:butt;stroke-linejoin:miter;stroke:rgb(38.039216%,50.588235%,100%);stroke-opacity:1;stroke-miterlimit:10;" d="M 0 5 C 0 2.238281 2.238281 0 5 0 L 64 0 C 66.761719 0 69 2.238281 69 5 L 69 18 C 69 20.761719 66.761719 23 64 23 L 5 23 C 2.238281 23 0 20.761719 0 18 Z M 0 5 " transform="matrix(1,0,0,1,10,60)"/>
<path style=" stroke:none;fill-rule:nonzero;fill:rgb(38.039216%,50.588235%,100%);fill-opacity:0.490196;" d="M 10 65 C 10 62.238281 12.238281 60 15 60 L 74 60 C 76.761719 60 79 62.238281 79 65 L 79 78 C 79 80.761719 76.761719 83 74 83 L 15 83 C 12.238281 83 10 80.761719 10 78 Z M 10 65 "/>
<path style="fill:none;stroke-width:1.5;stroke-linecap:butt;stroke-linejoin:miter;stroke:rgb(38.039216%,50.588235%,100%);stroke-opacity:1;stroke-miterlimit:10;" d="M 0 5 C 0 2.238281 2.238281 0 5 0 L 29 0 C 31.761719 0 34 2.238281 34 5 L 34 18 C 34 20.761719 31.761719 23 29 23 L 5 23 C 2.238281 23 0 20.761719 0 18 Z M 0 5 " transform="matrix(1,0,0,1,81,10)"/>
<path style=" stroke:none;fill-rule:nonzero;fill:rgb(38.039216%,50.588235%,100%);fill-opacity:0.490196;" d="M 81 15 C 81 12.238281 83.238281 10 86 10 L 110 10 C 112.761719 10 115 12.238281 115 15 L 115 28 C 115 30.761719 112.761719 33 110 33 L 86 33 C 83.238281 33 81 30.761719 81 28 Z M 81 15 "/>
<path style="fill:none;stroke-width:1.5;stroke-linecap:butt;stroke-linejoin:miter;stroke:rgb(38.039216%,50.588235%,100%);stroke-opacity:1;stroke-miterlimit:10;" d="M 0 5 C 0 2.238281 2.238281 0 5 0 L 29 0 C 31.761719 0 34 2.238281 34 5 L 34 18 C 34 20.761719 31.761719 23 29 23 L 5 23 C 2.238281 23 0 20.761719 0 18 Z M 0 5 " transform="matrix(1,0,0,1,81,60)"/>
<path style=" stroke:none;fill-rule:nonzero;fill:rgb(38.039216%,50.588235%,100%);fill-opacity:0.490196;" d="M 81 65 C 81 62.238281 83.238281 60 86 60 L 110 60 C 112.761719 60 115 62.238281 115 65 L 115 78 C 115 80.761719 112.761719 83 110 83 L 86 83 C 83.238281 83 81 80.761719 81 78 Z M 81 65 "/>
<path style="fill:none;stroke-width:1.5;stroke-linecap:butt;stroke-linejoin:miter;stroke:rgb(38.039216%,50.588235%,100%);stroke-opacity:1;stroke-miterlimit:10;" d="M 0 5 C 0 2.238281 2.238281 0 5 0 L 29 0 C 31.761719 0 34 2.238281 34 5 L 34 18 C 34 20.761719 31.761719 23 29 23 L 5 23 C 2.238281 23 0 20.761719 0 18 Z M 0 5 " transform="matrix(1,0,0,1,81,35)"/>
<path style=" stroke:none;fill-rule:nonzero;fill:rgb(38.039216%,50.588235%,100%);fill-opacity:0.490196;" d="M 81 40 C 81 37.238281 83.238281 35 86 35 L 110 35 C 112.761719 35 115 37.238281 115 40 L 115 53 C 115 55.761719 112.761719 58 110 58 L 86 58 C 83.238281 58 81 55.761719 81 53 Z M 81 40 "/>
<path style="fill:none;stroke-width:1.5;stroke-linecap:butt;stroke-linejoin:miter;stroke:rgb(38.039216%,50.588235%,100%);stroke-opacity:1;stroke-miterlimit:10;" d="M 0 5 C 0 2.238281 2.238281 0 5 0 L 64 0 C 66.761719 0 69 2.238281 69 5 L 69 43 C 69 45.761719 66.761719 48 64 48 L 5 48 C 2.238281 48 0 45.761719 0 43 Z M 0 5 " transform="matrix(1,0,0,1,148,36)"/>
<path style=" stroke:none;fill-rule:nonzero;fill:rgb(38.039216%,50.588235%,100%);fill-opacity:0.490196;" d="M 148 41 C 148 38.238281 150.238281 36 153 36 L 212 36 C 214.761719 36 217 38.238281 217 41 L 217 79 C 217 81.761719 214.761719 84 212 84 L 153 84 C 150.238281 84 148 81.761719 148 79 Z M 148 41 "/>
<path style="fill:none;stroke-width:1.5;stroke-linecap:butt;stroke-linejoin:miter;stroke:rgb(38.039216%,50.588235%,100%);stroke-opacity:1;stroke-miterlimit:10;" d="M 0 5 C 0 2.238281 2.238281 0 5 0 L 64 0 C 66.761719 0 69 2.238281 69 5 L 69 18 C 69 20.761719 66.761719 23 64 23 L 5 23 C 2.238281 23 0 20.761719 0 18 Z M 0 5 " transform="matrix(1,0,0,1,148,11)"/>
<path style=" stroke:none;fill-rule:nonzero;fill:rgb(38.039216%,50.588235%,100%);fill-opacity:0.490196;" d="M 148 16 C 148 13.238281 150.238281 11 153 11 L 212 11 C 214.761719 11 217 13.238281 217 16 L 217 29 C 217 31.761719 214.761719 34 212 34 L 153 34 C 150.238281 34 148 31.761719 148 29 Z M 148 16 "/>
<path style="fill:none;stroke-width:1.5;stroke-linecap:butt;stroke-linejoin:miter;stroke:rgb(38.039216%,50.588235%,100%);stroke-opacity:1;stroke-miterlimit:10;" d="M 0 5 C 0 2.238281 2.238281 0 5 0 L 29 0 C 31.761719 0 34 2.238281 34 5 L 34 18 C 34 20.761719 31.761719 23 29 23 L 5 23 C 2.238281 23 0 20.761719 0 18 Z M 0 5 " transform="matrix(1,0,0,1,219,61)"/>
<path style=" stroke:none;fill-rule:nonzero;fill:rgb(38.039216%,50.588235%,100%);fill-opacity:0.490196;" d="M 219 66 C 219 63.238281 221.238281 61 224 61 L 248 61 C 250.761719 61 253 63.238281 253 66 L 253 79 C 253 81.761719 250.761719 84 248 84 L 224 84 C 221.238281 84 219 81.761719 219 79 Z M 219 66 "/>
<path style="fill:none;stroke-width:1.5;stroke-linecap:butt;stroke-linejoin:miter;stroke:rgb(38.039216%,50.588235%,100%);stroke-opacity:1;stroke-miterlimit:10;" d="M 0 5 C 0 2.238281 2.238281 0 5 0 L 29 0 C 31.761719 0 34 2.238281 34 5 L 34 18 C 34 20.761719 31.761719 23 29 23 L 5 23 C 2.238281 23 0 20.761719 0 18 Z M 0 5 " transform="matrix(1,0,0,1,219,11)"/>
<path style=" stroke:none;fill-rule:nonzero;fill:rgb(38.039216%,50.588235%,100%);fill-opacity:0.490196;" d="M 219 16 C 219 13.238281 221.238281 11 224 11 L 248 11 C 250.761719 11 253 13.238281 253 16 L 253 29 C 253 31.761719 250.761719 34 248 34 L 224 34 C 221.238281 34 219 31.761719 219 29 Z M 219 16 "/>
<path style="fill:none;stroke-width:1.5;stroke-linecap:butt;stroke-linejoin:miter;stroke:rgb(38.039216%,50.588235%,100%);stroke-opacity:1;stroke-miterlimit:10;" d="M 0 5 C 0 2.238281 2.238281 0 5 0 L 29 0 C 31.761719 0 34 2.238281 34 5 L 34 18 C 34 20.761719 31.761719 23 29 23 L 5 23 C 2.238281 23 0 20.761719 0 18 Z M 0 5 " transform="matrix(1,0,0,1,219,36)"/>
<path style=" stroke:none;fill-rule:nonzero;fill:rgb(38.039216%,50.588235%,100%);fill-opacity:0.490196;" d="M 219 41 C 219 38.238281 221.238281 36 224 36 L 248 36 C 250.761719 36 253 38.238281 253 41 L 253 54 C 253 56.761719 250.761719 59 248 59 L 224 59 C 221.238281 59 219 56.761719 219 54 Z M 219 41 "/>
<path style="fill:none;stroke-width:1.5;stroke-linecap:butt;stroke-linejoin:miter;stroke:rgb(38.039216%,50.588235%,100%);stroke-opacity:1;stroke-miterlimit:10;" d="M 0 5 C 0 2.238281 2.238281 0 5 0 L 64 0 C 66.761719 0 69 2.238281 69 5 L 69 43 C 69 45.761719 66.761719 48 64 48 L 5 48 C 2.238281 48 0 45.761719 0 43 Z M 0 5 " transform="matrix(1,0,0,1,323,10)"/>
<path style=" stroke:none;fill-rule:nonzero;fill:rgb(38.039216%,50.588235%,100%);fill-opacity:0.490196;" d="M 323 15 C 323 12.238281 325.238281 10 328 10 L 387 10 C 389.761719 10 392 12.238281 392 15 L 392 53 C 392 55.761719 389.761719 58 387 58 L 328 58 C 325.238281 58 323 55.761719 323 53 Z M 323 15 "/>
<path style="fill:none;stroke-width:1.5;stroke-linecap:butt;stroke-linejoin:miter;stroke:rgb(38.039216%,50.588235%,100%);stroke-opacity:1;stroke-miterlimit:10;" d="M 0 5 C 0 2.238281 2.238281 0 5 0 L 64 0 C 66.761719 0 69 2.238281 69 5 L 69 18 C 69 20.761719 66.761719 23 64 23 L 5 23 C 2.238281 23 0 20.761719 0 18 Z M 0 5 " transform="matrix(1,0,0,1,323,60)"/>
<path style=" stroke:none;fill-rule:nonzero;fill:rgb(38.039216%,50.588235%,100%);fill-opacity:0.490196;" d="M 323 65 C 323 62.238281 325.238281 60 328 60 L 387 60 C 389.761719 60 392 62.238281 392 65 L 392 78 C 392 80.761719 389.761719 83 387 83 L 328 83 C 325.238281 83 323 80.761719 323 78 Z M 323 65 "/>
<path style="fill:none;stroke-width:1.5;stroke-linecap:butt;stroke-linejoin:miter;stroke:rgb(38.039216%,50.588235%,100%);stroke-opacity:1;stroke-miterlimit:10;" d="M 0 5 C 0 2.238281 2.238281 0 5 0 L 29 0 C 31.761719 0 34 2.238281 34 5 L 34 18 C 34 20.761719 31.761719 23 29 23 L 5 23 C 2.238281 23 0 20.761719 0 18 Z M 0 5 " transform="matrix(1,0,0,1,287,10)"/>
<path style=" stroke:none;fill-rule:nonzero;fill:rgb(38.039216%,50.588235%,100%);fill-opacity:0.490196;" d="M 287 15 C 287 12.238281 289.238281 10 292 10 L 316 10 C 318.761719 10 321 12.238281 321 15 L 321 28 C 321 30.761719 318.761719 33 316 33 L 292 33 C 289.238281 33 287 30.761719 287 28 Z M 287 15 "/>
<path style="fill:none;stroke-width:1.5;stroke-linecap:butt;stroke-linejoin:miter;stroke:rgb(38.039216%,50.588235%,100%);stroke-opacity:1;stroke-miterlimit:10;" d="M 0 5 C 0 2.238281 2.238281 0 5 0 L 29 0 C 31.761719 0 34 2.238281 34 5 L 34 18 C 34 20.761719 31.761719 23 29 23 L 5 23 C 2.238281 23 0 20.761719 0 18 Z M 0 5 " transform="matrix(1,0,0,1,287,60)"/>
<path style=" stroke:none;fill-rule:nonzero;fill:rgb(38.039216%,50.588235%,100%);fill-opacity:0.490196;" d="M 287 65 C 287 62.238281 289.238281 60 292 60 L 316 60 C 318.761719 60 321 62.238281 321 65 L 321 78 C 321 80.761719 318.761719 83 316 83 L 292 83 C 289.238281 83 287 80.761719 287 78 Z M 287 65 "/>
<path style="fill:none;stroke-width:1.5;stroke-linecap:butt;stroke-linejoin:miter;stroke:rgb(38.039216%,50.588235%,100%);stroke-opacity:1;stroke-miterlimit:10;" d="M 0 5 C 0 2.238281 2.238281 0 5 0 L 29 0 C 31.761719 0 34 2.238281 34 5 L 34 18 C 34 20.761719 31.761719 23 29 23 L 5 23 C 2.238281 23 0 20.761719 0 18 Z M 0 5 " transform="matrix(1,0,0,1,287,35)"/>
<path style=" stroke:none;fill-rule:nonzero;fill:rgb(38.039216%,50.588235%,100%);fill-opacity:0.490196;" d="M 287 40 C 287 37.238281 289.238281 35 292 35 L 316 35 C 318.761719 35 321 37.238281 321 40 L 321 53 C 321 55.761719 318.761719 58 316 58 L 292 58 C 289.238281 58 287 55.761719 287 53 Z M 287 40 "/>
<path style="fill:none;stroke-width:1.5;stroke-linecap:butt;stroke-linejoin:miter;stroke:rgb(38.039216%,50.588235%,100%);stroke-opacity:1;stroke-miterlimit:10;" d="M 0 5 C 0 2.238281 2.238281 0 5 0 L 64 0 C 66.761719 0 69 2.238281 69 5 L 69 43 C 69 45.761719 66.761719 48 64 48 L 5 48 C 2.238281 48 0 45.761719 0 43 Z M 0 5 " transform="matrix(1,0,0,1,461,36)"/>
<path style=" stroke:none;fill-rule:nonzero;fill:rgb(38.039216%,50.588235%,100%);fill-opacity:0.490196;" d="M 461 41 C 461 38.238281 463.238281 36 466 36 L 525 36 C 527.761719 36 530 38.238281 530 41 L 530 79 C 530 81.761719 527.761719 84 525 84 L 466 84 C 463.238281 84 461 81.761719 461 79 Z M 461 41 "/>
<path style="fill:none;stroke-width:1.5;stroke-linecap:butt;stroke-linejoin:miter;stroke:rgb(38.039216%,50.588235%,100%);stroke-opacity:1;stroke-miterlimit:10;" d="M 0 5 C 0 2.238281 2.238281 0 5 0 L 64 0 C 66.761719 0 69 2.238281 69 5 L 69 18 C 69 20.761719 66.761719 23 64 23 L 5 23 C 2.238281 23 0 20.761719 0 18 Z M 0 5 " transform="matrix(1,0,0,1,461,11)"/>
<path style=" stroke:none;fill-rule:nonzero;fill:rgb(38.039216%,50.588235%,100%);fill-opacity:0.490196;" d="M 461 16 C 461 13.238281 463.238281 11 466 11 L 525 11 C 527.761719 11 530 13.238281 530 16 L 530 29 C 530 31.761719 527.761719 34 525 34 L 466 34 C 463.238281 34 461 31.761719 461 29 Z M 461 16 "/>
<path style="fill:none;stroke-width:1.5;stroke-linecap:butt;stroke-linejoin:miter;stroke:rgb(38.039216%,50.588235%,100%);stroke-opacity:1;stroke-miterlimit:10;" d="M 0 5 C 0 2.238281 2.238281 0 5 0 L 29 0 C 31.761719 0 34 2.238281 34 5 L 34 18 C 34 20.761719 31.761719 23 29 23 L 5 23 C 2.238281 23 0 20.761719 0 18 Z M 0 5 " transform="matrix(1,0,0,1,425,61)"/>
<path style=" stroke:none;fill-rule:nonzero;fill:rgb(38.039216%,50.588235%,100%);fill-opacity:0.490196;" d="M 425 66 C 425 63.238281 427.238281 61 430 61 L 454 61 C 456.761719 61 459 63.238281 459 66 L 459 79 C 459 81.761719 456.761719 84 454 84 L 430 84 C 427.238281 84 425 81.761719 425 79 Z M 425 66 "/>
<path style="fill:none;stroke-width:1.5;stroke-linecap:butt;stroke-linejoin:miter;stroke:rgb(38.039216%,50.588235%,100%);stroke-opacity:1;stroke-miterlimit:10;" d="M 0 5 C 0 2.238281 2.238281 0 5 0 L 29 0 C 31.761719 0 34 2.238281 34 5 L 34 18 C 34 20.761719 31.761719 23 29 23 L 5 23 C 2.238281 23 0 20.761719 0 18 Z M 0 5 " transform="matrix(1,0,0,1,425,11)"/>
<path style=" stroke:none;fill-rule:nonzero;fill:rgb(38.039216%,50.588235%,100%);fill-opacity:0.490196;" d="M 425 16 C 425 13.238281 427.238281 11 430 11 L 454 11 C 456.761719 11 459 13.238281 459 16 L 459 29 C 459 31.761719 456.761719 34 454 34 L 430 34 C 427.238281 34 425 31.761719 425 29 Z M 425 16 "/>
<path style="fill:none;stroke-width:1.5;stroke-linecap:butt;stroke-linejoin:miter;stroke:rgb(38.039216%,50.588235%,100%);stroke-opacity:1;stroke-miterlimit:10;" d="M 0 5 C 0 2.238281 2.238281 0 5 0 L 29 0 C 31.761719 0 34 2.238281 34 5 L 34 18 C 34 20.761719 31.761719 23 29 23 L 5 23 C 2.238281 23 0 20.761719 0 18 Z M 0 5 " transform="matrix(1,0,0,1,425,36)"/>
<path style=" stroke:none;fill-rule:nonzero;fill:rgb(38.039216%,50.588235%,100%);fill-opacity:0.490196;" d="M 425 41 C 425 38.238281 427.238281 36 430 36 L 454 36 C 456.761719 36 459 38.238281 459 41 L 459 54 C 459 56.761719 456.761719 59 454 59 L 430 59 C 427.238281 59 425 56.761719 425 54 Z M 425 41 "/>
</g>
</svg>
