<?xml version="1.0" encoding="UTF-8"?>
<svg xmlns="http://www.w3.org/2000/svg" xmlns:xlink="http://www.w3.org/1999/xlink" width="542pt" height="96pt" viewBox="0 0 542 96" version="1.1">
<defs>
<clipPath id="clip1">
  <path d="M 30 30 L 98 30 L 98 66 L 30 66 Z M 30 30 "/>
</clipPath>
<clipPath id="clip2">
  <path d="M 30 35 C 30 32.238281 32.238281 30 35 30 L 93 30 C 95.761719 30 98 32.238281 98 35 L 98 61 C 98 63.761719 95.761719 66 93 66 L 35 66 C 32.238281 66 30 63.761719 30 61 Z M 30 35 "/>
</clipPath>
<clipPath id="clip3">
  <path d="M 149 11 L 255 11 L 255 85 L 149 85 Z M 149 11 "/>
</clipPath>
<clipPath id="clip4">
  <path d="M 149 16 C 149 13.238281 151.238281 11 154 11 L 250 11 C 252.761719 11 255 13.238281 255 16 L 255 80 C 255 82.761719 252.761719 85 250 85 L 154 85 C 151.238281 85 149 82.761719 149 80 Z M 149 16 "/>
</clipPath>
<clipPath id="clip5">
  <path d="M 168 30 L 236 30 L 236 66 L 168 66 Z M 168 30 "/>
</clipPath>
<clipPath id="clip6">
  <path d="M 168 35 C 168 32.238281 170.238281 30 173 30 L 231 30 C 233.761719 30 236 32.238281 236 35 L 236 61 C 236 63.761719 233.761719 66 231 66 L 173 66 C 170.238281 66 168 63.761719 168 61 Z M 168 35 "/>
</clipPath>
<clipPath id="clip7">
  <path d="M 287 11 L 393 11 L 393 47 L 287 47 Z M 287 11 "/>
</clipPath>
<clipPath id="clip8">
  <path d="M 287 16 C 287 13.238281 289.238281 11 292 11 L 388 11 C 390.761719 11 393 13.238281 393 16 L 393 42 C 393 44.761719 390.761719 47 388 47 L 292 47 C 289.238281 47 287 44.761719 287 42 Z M 287 16 "/>
</clipPath>
<clipPath id="clip9">
  <path d="M 287 49 L 393 49 L 393 85 L 287 85 Z M 287 49 "/>
</clipPath>
<clipPath id="clip10">
  <path d="M 287 54 C 287 51.238281 289.238281 49 292 49 L 388 49 C 390.761719 49 393 51.238281 393 54 L 393 80 C 393 82.761719 390.761719 85 388 85 L 292 85 C 289.238281 85 287 82.761719 287 80 Z M 287 54 "/>
</clipPath>
<clipPath id="clip11">
  <path d="M 306 30 L 374 30 L 374 66 L 306 66 Z M 306 30 "/>
</clipPath>
<clipPath id="clip12">
  <path d="M 306 35 C 306 32.238281 308.238281 30 311 30 L 369 30 C 371.761719 30 374 32.238281 374 35 L 374 61 C 374 63.761719 371.761719 66 369 66 L 311 66 C 308.238281 66 306 63.761719 306 61 Z M 306 35 "/>
</clipPath>
<clipPath id="clip13">
  <path d="M 425 11 L 531 11 L 531 34 L 425 34 Z M 425 11 "/>
</clipPath>
<clipPath id="clip14">
  <path d="M 425 16 C 425 13.238281 427.238281 11 430 11 L 526 11 C 528.761719 11 531 13.238281 531 16 L 531 29 C 531 31.761719 528.761719 34 526 34 L 430 34 C 427.238281 34 425 31.761719 425 29 Z M 425 16 "/>
</clipPath>
<clipPath id="clip15">
  <path d="M 425 36 L 531 36 L 531 59 L 425 59 Z M 425 36 "/>
</clipPath>
<clipPath id="clip16">
  <path d="M 425 41 C 425 38.238281 427.238281 36 430 36 L 526 36 C 528.761719 36 531 38.238281 531 41 L 531 54 C 531 56.761719 528.761719 59 526 59 L 430 59 C 427.238281 59 425 56.761719 425 54 Z M 425 41 "/>
</clipPath>
<clipPath id="clip17">
  <path d="M 425 61 L 531 61 L 531 84 L 425 84 Z M 425 61 "/>
</clipPath>
<clipPath id="clip18">
  <path d="M 425 66 C 425 63.238281 427.238281 61 430 61 L 526 61 C 528.761719 61 531 63.238281 531 66 L 531 79 C 531 81.761719 528.761719 84 526 84 L 430 84 C 427.238281 84 425 81.761719 425 79 Z M 425 66 "/>
</clipPath>
<clipPath id="clip19">
  <path d="M 444 30 L 512 30 L 512 66 L 444 66 Z M 444 30 "/>
</clipPath>
<clipPath id="clip20">
  <path d="M 444 35 C 444 32.238281 446.238281 30 449 30 L 507 30 C 509.761719 30 512 32.238281 512 35 L 512 61 C 512 63.761719 509.761719 66 507 66 L 449 66 C 446.238281 66 444 63.761719 444 61 Z M 444 35 "/>
</clipPath>
</defs>
<g id="surface2">
<path style="fill:none;stroke-width:1.5;stroke-linecap:butt;stroke-linejoin:miter;stroke:rgb(0%,0%,0%);stroke-opacity:0.266667;stroke-dasharray:10,4;stroke-dashoffset:1;stroke-miterlimit:10;" d="M 0.75 0.75 L 127.25 0.75 L 127.25 95.25 L 0.75 95.25 Z M 0.75 0.75 "/>
<path style="fill:none;stroke-width:1.5;stroke-linecap:butt;stroke-linejoin:miter;stroke:rgb(0%,0%,0%);stroke-opacity:0.2;stroke-dasharray:10,4;stroke-dashoffset:1;stroke-miterlimit:10;" d="M 10 10 L 118 10 L 118 86 L 10 86 Z M 10 10 "/>
<path style="fill:none;stroke-width:1.5;stroke-linecap:butt;stroke-linejoin:miter;stroke:rgb(0%,0%,0%);stroke-opacity:0.266667;stroke-dasharray:10,4;stroke-dashoffset:1;stroke-miterlimit:10;" d="M 138.75 0.75 L 265.25 0.75 L 265.25 95.25 L 138.75 95.25 Z M 138.75 0.75 "/>
<path style="fill:none;stroke-width:1.5;stroke-linecap:butt;stroke-linejoin:miter;stroke:rgb(0%,0%,0%);stroke-opacity:0.2;stroke-dasharray:10,4;stroke-dashoffset:1;stroke-miterlimit:10;" d="M 148 10 L 256 10 L 256 86 L 148 86 Z M 148 10 "/>
<path style="fill:none;stroke-width:1.5;stroke-linecap:butt;stroke-linejoin:miter;stroke:rgb(0%,0%,0%);stroke-opacity:0.266667;stroke-dasharray:10,4;stroke-dashoffset:1;stroke-miterlimit:10;" d="M 276.75 0.75 L 403.25 0.75 L 403.25 95.25 L 276.75 95.25 Z M 276.75 0.75 "/>
<path style="fill:none;stroke-width:1.5;stroke-linecap:butt;stroke-linejoin:miter;stroke:rgb(0%,0%,0%);stroke-opacity:0.2;stroke-dasharray:10,4;stroke-dashoffset:1;stroke-miterlimit:10;" d="M 286 10 L 394 10 L 394 86 L 286 86 Z M 286 10 "/>
<path style="fill:none;stroke-width:1.5;stroke-linecap:butt;stroke-linejoin:miter;stroke:rgb(0%,0%,0%);stroke-opacity:0.266667;stroke-dasharray:10,4;stroke-dashoffset:1;stroke-miterlimit:10;" d="M 414.75 0.75 L 541.25 0.75 L 541.25 95.25 L 414.75 95.25 Z M 414.75 0.75 "/>
<path style="fill:none;stroke-width:1.5;stroke-linecap:butt;stroke-linejoin:miter;stroke:rgb(0%,0%,0%);stroke-opacity:0.2;stroke-dasharray:10,4;stroke-dashoffset:1;stroke-miterlimit:10;" d="M 424 10 L 532 10 L 532 86 L 424 86 Z M 424 10 "/>
<g clip-path="url(#clip1)" clip-rule="nonzero">
<g clip-path="url(#clip2)" clip-rule="nonzero">
<rect x="0" y="0" width="542" height="96" style="fill:rgb(38.039216%,50.588235%,100%);fill-opacity:0.490196;stroke:none;"/>
<path style="fill:none;stroke-width:2;stroke-linecap:butt;stroke-linejoin:miter;stroke:rgb(38.039216%,50.588235%,100%);stroke-opacity:1;stroke-miterlimit:10;" d="M 1 6 C 1 3.238281 3.238281 1 6 1 L 64 1 C 66.761719 1 69 3.238281 69 6 L 69 32 C 69 34.761719 66.761719 37 64 37 L 6 37 C 3.238281 37 1 34.761719 1 32 Z M 1 6 " transform="matrix(1,0,0,1,29,29)"/>
</g>
</g>
<g clip-path="url(#clip3)" clip-rule="nonzero">
<g clip-path="url(#clip4)" clip-rule="nonzero">
<rect x="0" y="0" width="542" height="96" style="fill:rgb(38.039216%,50.588235%,100%);fill-opacity:0.490196;stroke:none;"/>
<path style="fill:none;stroke-width:2;stroke-linecap:butt;stroke-linejoin:miter;stroke:rgb(38.039216%,50.588235%,100%);stroke-opacity:1;stroke-miterlimit:10;" d="M 1 6 C 1 3.238281 3.238281 1 6 1 L 102 1 C 104.761719 1 107 3.238281 107 6 L 107 70 C 107 72.761719 104.761719 75 102 75 L 6 75 C 3.238281 75 1 72.761719 1 70 Z M 1 6 " transform="matrix(1,0,0,1,148,10)"/>
</g>
</g>
<g clip-path="url(#clip5)" clip-rule="nonzero">
<g clip-path="url(#clip6)" clip-rule="nonzero">
<rect x="0" y="0" width="542" height="96" style="fill:rgb(38.039216%,50.588235%,100%);fill-opacity:0.490196;stroke:none;"/>
<path style="fill:none;stroke-width:2;stroke-linecap:butt;stroke-linejoin:miter;stroke:rgb(38.039216%,50.588235%,100%);stroke-opacity:1;stroke-miterlimit:10;" d="M 1 6 C 1 3.238281 3.238281 1 6 1 L 64 1 C 66.761719 1 69 3.238281 69 6 L 69 32 C 69 34.761719 66.761719 37 64 37 L 6 37 C 3.238281 37 1 34.761719 1 32 Z M 1 6 " transform="matrix(1,0,0,1,167,29)"/>
</g>
</g>
<g clip-path="url(#clip7)" clip-rule="nonzero">
<g clip-path="url(#clip8)" clip-rule="nonzero">
<rect x="0" y="0" width="542" height="96" style="fill:rgb(38.039216%,50.588235%,100%);fill-opacity:0.490196;stroke:none;"/>
<path style="fill:none;stroke-width:2;stroke-linecap:butt;stroke-linejoin:miter;stroke:rgb(38.039216%,50.588235%,100%);stroke-opacity:1;stroke-miterlimit:10;" d="M 1 6 C 1 3.238281 3.238281 1 6 1 L 102 1 C 104.761719 1 107 3.238281 107 6 L 107 32 C 107 34.761719 104.761719 37 102 37 L 6 37 C 3.238281 37 1 34.761719 1 32 Z M 1 6 " transform="matrix(1,0,0,1,286,10)"/>
</g>
</g>
<g clip-path="url(#clip9)" clip-rule="nonzero">
<g clip-path="url(#clip10)" clip-rule="nonzero">
<rect x="0" y="0" width="542" height="96" style="fill:rgb(38.039216%,50.588235%,100%);fill-opacity:0.490196;stroke:none;"/>
<path style="fill:none;stroke-width:2;stroke-linecap:butt;stroke-linejoin:miter;stroke:rgb(38.039216%,50.588235%,100%);stroke-opacity:1;stroke-miterlimit:10;" d="M 1 6 C 1 3.238281 3.238281 1 6 1 L 102 1 C 104.761719 1 107 3.238281 107 6 L 107 32 C 107 34.761719 104.761719 37 102 37 L 6 37 C 3.238281 37 1 34.761719 1 32 Z M 1 6 " transform="matrix(1,0,0,1,286,48)"/>
</g>
</g>
<g clip-path="url(#clip11)" clip-rule="nonzero">
<g clip-path="url(#clip12)" clip-rule="nonzero">
<rect x="0" y="0" width="542" height="96" style="fill:rgb(38.039216%,50.588235%,100%);fill-opacity:0.490196;stroke:none;"/>
<path style="fill:none;stroke-width:2;stroke-linecap:butt;stroke-linejoin:miter;stroke:rgb(38.039216%,50.588235%,100%);stroke-opacity:1;stroke-miterlimit:10;" d="M 1 6 C 1 3.238281 3.238281 1 6 1 L 64 1 C 66.761719 1 69 3.238281 69 6 L 69 32 C 69 34.761719 66.761719 37 64 37 L 6 37 C 3.238281 37 1 34.761719 1 32 Z M 1 6 " transform="matrix(1,0,0,1,305,29)"/>
</g>
</g>
<g clip-path="url(#clip13)" clip-rule="nonzero">
<g clip-path="url(#clip14)" clip-rule="nonzero">
<rect x="0" y="0" width="542" height="96" style="fill:rgb(38.039216%,50.588235%,100%);fill-opacity:0.490196;stroke:none;"/>
<path style="fill:none;stroke-width:2;stroke-linecap:butt;stroke-linejoin:miter;stroke:rgb(38.039216%,50.588235%,100%);stroke-opacity:1;stroke-miterlimit:10;" d="M 1 6 C 1 3.238281 3.238281 1 6 1 L 102 1 C 104.761719 1 107 3.238281 107 6 L 107 19 C 107 21.761719 104.761719 24 102 24 L 6 24 C 3.238281 24 1 21.761719 1 19 Z M 1 6 " transform="matrix(1,0,0,1,424,10)"/>
</g>
</g>
<g clip-path="url(#clip15)" clip-rule="nonzero">
<g clip-path="url(#clip16)" clip-rule="nonzero">
<rect x="0" y="0" width="542" height="96" style="fill:rgb(38.039216%,50.588235%,100%);fill-opacity:0.490196;stroke:none;"/>
<path style="fill:none;stroke-width:2;stroke-linecap:butt;stroke-linejoin:miter;stroke:rgb(38.039216%,50.588235%,100%);stroke-opacity:1;stroke-miterlimit:10;" d="M 1 6 C 1 3.238281 3.238281 1 6 1 L 102 1 C 104.761719 1 107 3.238281 107 6 L 107 19 C 107 21.761719 104.761719 24 102 24 L 6 24 C 3.238281 24 1 21.761719 1 19 Z M 1 6 " transform="matrix(1,0,0,1,424,35)"/>
</g>
</g>
<g clip-path="url(#clip17)" clip-rule="nonzero">
<g clip-path="url(#clip18)" clip-rule="nonzero">
<rect x="0" y="0" width="542" height="96" style="fill:rgb(38.039216%,50.588235%,100%);fill-opacity:0.490196;stroke:none;"/>
<path style="fill:none;stroke-width:2;stroke-linecap:butt;stroke-linejoin:miter;stroke:rgb(38.039216%,50.588235%,100%);stroke-opacity:1;stroke-miterlimit:10;" d="M 1 6 C 1 3.238281 3.238281 1 6 1 L 102 1 C 104.761719 1 107 3.238281 107 6 L 107 19 C 107 21.761719 104.761719 24 102 24 L 6 24 C 3.238281 24 1 21.761719 1 19 Z M 1 6 " transform="matrix(1,0,0,1,424,60)"/>
</g>
</g>
<g clip-path="url(#clip19)" clip-rule="nonzero">
<g clip-path="url(#clip20)" clip-rule="nonzero">
<rect x="0" y="0" width="542" height="96" style="fill:rgb(38.039216%,50.588235%,100%);fill-opacity:0.490196;stroke:none;"/>
<path style="fill:none;stroke-width:2;stroke-linecap:butt;stroke-linejoin:miter;stroke:rgb(38.039216%,50.588235%,100%);stroke-opacity:1;stroke-miterlimit:10;" d="M 1 6 C 1 3.238281 3.238281 1 6 1 L 64 1 C 66.761719 1 69 3.238281 69 6 L 69 32 C 69 34.761719 66.761719 37 64 37 L 6 37 C 3.238281 37 1 34.761719 1 32 Z M 1 6 " transform="matrix(1,0,0,1,443,29)"/>
</g>
</g>
</g>
</svg>
