<?xml version="1.0" encoding="UTF-8"?>
<svg xmlns="http://www.w3.org/2000/svg" xmlns:xlink="http://www.w3.org/1999/xlink" width="360pt" height="48pt" viewBox="0 0 360 48" version="1.1">
<defs>
<clipPath id="clip1">
  <path d="M 3 3 L 32 3 L 32 45 L 3 45 Z M 3 3 "/>
</clipPath>
<clipPath id="clip2">
  <path d="M 5 5 L 30 5 L 30 43 L 5 43 Z M 5 5 "/>
</clipPath>
<clipPath id="clip3">
  <path d="M 5 7 C 5 5.894531 5.894531 5 7 5 L 28 5 C 29.105469 5 30 5.894531 30 7 L 30 41 C 30 42.105469 29.105469 43 28 43 L 7 43 C 5.894531 43 5 42.105469 5 41 Z M 5 7 "/>
</clipPath>
<clipPath id="clip4">
  <path d="M 77 3 L 106 3 L 106 24 L 77 24 Z M 77 3 "/>
</clipPath>
<clipPath id="clip5">
  <path d="M 79 5 L 104 5 L 104 22 L 79 22 Z M 79 5 "/>
</clipPath>
<clipPath id="clip6">
  <path d="M 79 7 C 79 5.894531 79.894531 5 81 5 L 102 5 C 103.105469 5 104 5.894531 104 7 L 104 20 C 104 21.105469 103.105469 22 102 22 L 81 22 C 79.894531 22 79 21.105469 79 20 Z M 79 7 "/>
</clipPath>
<clipPath id="clip7">
  <path d="M 77 24 L 106 24 L 106 45 L 77 45 Z M 77 24 "/>
</clipPath>
<clipPath id="clip8">
  <path d="M 79 26 L 104 26 L 104 43 L 79 43 Z M 79 26 "/>
</clipPath>
<clipPath id="clip9">
  <path d="M 79 28 C 79 26.894531 79.894531 26 81 26 L 102 26 C 103.105469 26 104 26.894531 104 28 L 104 41 C 104 42.105469 103.105469 43 102 43 L 81 43 C 79.894531 43 79 42.105469 79 41 Z M 79 28 "/>
</clipPath>
<clipPath id="clip10">
  <path d="M 151 3 L 180 3 L 180 24 L 151 24 Z M 151 3 "/>
</clipPath>
<clipPath id="clip11">
  <path d="M 153 5 L 178 5 L 178 22 L 153 22 Z M 153 5 "/>
</clipPath>
<clipPath id="clip12">
  <path d="M 153 7 C 153 5.894531 153.894531 5 155 5 L 176 5 C 177.105469 5 178 5.894531 178 7 L 178 20 C 178 21.105469 177.105469 22 176 22 L 155 22 C 153.894531 22 153 21.105469 153 20 Z M 153 7 "/>
</clipPath>
<clipPath id="clip13">
  <path d="M 151 24 L 180 24 L 180 45 L 151 45 Z M 151 24 "/>
</clipPath>
<clipPath id="clip14">
  <path d="M 153 26 L 178 26 L 178 43 L 153 43 Z M 153 26 "/>
</clipPath>
<clipPath id="clip15">
  <path d="M 153 28 C 153 26.894531 153.894531 26 155 26 L 176 26 C 177.105469 26 178 26.894531 178 28 L 178 41 C 178 42.105469 177.105469 43 176 43 L 155 43 C 153.894531 43 153 42.105469 153 41 Z M 153 28 "/>
</clipPath>
<clipPath id="clip16">
  <path d="M 183 6 L 206 6 L 206 42 L 183 42 Z M 183 6 "/>
</clipPath>
<clipPath id="clip17">
  <path d="M 185 8 L 204 8 L 204 40 L 185 40 Z M 185 8 "/>
</clipPath>
<clipPath id="clip18">
  <path d="M 185 10 C 185 8.894531 185.894531 8 187 8 L 202 8 C 203.105469 8 204 8.894531 204 10 L 204 38 C 204 39.105469 203.105469 40 202 40 L 187 40 C 185.894531 40 185 39.105469 185 38 Z M 185 10 "/>
</clipPath>
<clipPath id="clip19">
  <path d="M 225 3 L 254 3 L 254 24 L 225 24 Z M 225 3 "/>
</clipPath>
<clipPath id="clip20">
  <path d="M 227 5 L 252 5 L 252 22 L 227 22 Z M 227 5 "/>
</clipPath>
<clipPath id="clip21">
  <path d="M 227 7 C 227 5.894531 227.894531 5 229 5 L 250 5 C 251.105469 5 252 5.894531 252 7 L 252 20 C 252 21.105469 251.105469 22 250 22 L 229 22 C 227.894531 22 227 21.105469 227 20 Z M 227 7 "/>
</clipPath>
<clipPath id="clip22">
  <path d="M 225 24 L 254 24 L 254 45 L 225 45 Z M 225 24 "/>
</clipPath>
<clipPath id="clip23">
  <path d="M 227 26 L 252 26 L 252 43 L 227 43 Z M 227 26 "/>
</clipPath>
<clipPath id="clip24">
  <path d="M 227 28 C 227 26.894531 227.894531 26 229 26 L 250 26 C 251.105469 26 252 26.894531 252 28 L 252 41 C 252 42.105469 251.105469 43 250 43 L 229 43 C 227.894531 43 227 42.105469 227 41 Z M 227 28 "/>
</clipPath>
<clipPath id="clip25">
  <path d="M 257 6 L 280 6 L 280 24 L 257 24 Z M 257 6 "/>
</clipPath>
<clipPath id="clip26">
  <path d="M 259 8 L 278 8 L 278 22 L 259 22 Z M 259 8 "/>
</clipPath>
<clipPath id="clip27">
  <path d="M 259 10 C 259 8.894531 259.894531 8 261 8 L 276 8 C 277.105469 8 278 8.894531 278 10 L 278 20 C 278 21.105469 277.105469 22 276 22 L 261 22 C 259.894531 22 259 21.105469 259 20 Z M 259 10 "/>
</clipPath>
<clipPath id="clip28">
  <path d="M 257 24 L 280 24 L 280 42 L 257 42 Z M 257 24 "/>
</clipPath>
<clipPath id="clip29">
  <path d="M 259 26 L 278 26 L 278 40 L 259 40 Z M 259 26 "/>
</clipPath>
<clipPath id="clip30">
  <path d="M 259 28 C 259 26.894531 259.894531 26 261 26 L 276 26 C 277.105469 26 278 26.894531 278 28 L 278 38 C 278 39.105469 277.105469 40 276 40 L 261 40 C 259.894531 40 259 39.105469 259 38 Z M 259 28 "/>
</clipPath>
<clipPath id="clip31">
  <path d="M 299 3 L 328 3 L 328 24 L 299 24 Z M 299 3 "/>
</clipPath>
<clipPath id="clip32">
  <path d="M 301 5 L 326 5 L 326 22 L 301 22 Z M 301 5 "/>
</clipPath>
<clipPath id="clip33">
  <path d="M 301 7 C 301 5.894531 301.894531 5 303 5 L 324 5 C 325.105469 5 326 5.894531 326 7 L 326 20 C 326 21.105469 325.105469 22 324 22 L 303 22 C 301.894531 22 301 21.105469 301 20 Z M 301 7 "/>
</clipPath>
<clipPath id="clip34">
  <path d="M 299 24 L 328 24 L 328 45 L 299 45 Z M 299 24 "/>
</clipPath>
<clipPath id="clip35">
  <path d="M 301 26 L 326 26 L 326 43 L 301 43 Z M 301 26 "/>
</clipPath>
<clipPath id="clip36">
  <path d="M 301 28 C 301 26.894531 301.894531 26 303 26 L 324 26 C 325.105469 26 326 26.894531 326 28 L 326 41 C 326 42.105469 325.105469 43 324 43 L 303 43 C 301.894531 43 301 42.105469 301 41 Z M 301 28 "/>
</clipPath>
<clipPath id="clip37">
  <path d="M 331 6 L 354 6 L 354 18 L 331 18 Z M 331 6 "/>
</clipPath>
<clipPath id="clip38">
  <path d="M 333 8 L 352 8 L 352 16 L 333 16 Z M 333 8 "/>
</clipPath>
<clipPath id="clip39">
  <path d="M 333 10 C 333 8.894531 333.894531 8 335 8 L 350 8 C 351.105469 8 352 8.894531 352 10 L 352 14 C 352 15.105469 351.105469 16 350 16 L 335 16 C 333.894531 16 333 15.105469 333 14 Z M 333 10 "/>
</clipPath>
<clipPath id="clip40">
  <path d="M 331 18 L 354 18 L 354 30 L 331 30 Z M 331 18 "/>
</clipPath>
<clipPath id="clip41">
  <path d="M 333 20 L 352 20 L 352 28 L 333 28 Z M 333 20 "/>
</clipPath>
<clipPath id="clip42">
  <path d="M 333 22 C 333 20.894531 333.894531 20 335 20 L 350 20 C 351.105469 20 352 20.894531 352 22 L 352 26 C 352 27.105469 351.105469 28 350 28 L 335 28 C 333.894531 28 333 27.105469 333 26 Z M 333 22 "/>
</clipPath>
<clipPath id="clip43">
  <path d="M 331 30 L 354 30 L 354 42 L 331 42 Z M 331 30 "/>
</clipPath>
<clipPath id="clip44">
  <path d="M 333 32 L 352 32 L 352 40 L 333 40 Z M 333 32 "/>
</clipPath>
<clipPath id="clip45">
  <path d="M 333 34 C 333 32.894531 333.894531 32 335 32 L 350 32 C 351.105469 32 352 32.894531 352 34 L 352 38 C 352 39.105469 351.105469 40 350 40 L 335 40 C 333.894531 40 333 39.105469 333 38 Z M 333 34 "/>
</clipPath>
</defs>
<g id="surface2">
<path style="fill:none;stroke-width:1.5;stroke-linecap:butt;stroke-linejoin:miter;stroke:rgb(0%,0%,0%);stroke-opacity:0.266667;stroke-dasharray:10,4;stroke-dashoffset:1;stroke-miterlimit:10;" d="M 0.75 0.75 L 63.25 0.75 L 63.25 47.25 L 0.75 47.25 Z M 0.75 0.75 "/>
<path style="fill:none;stroke-width:1.5;stroke-linecap:butt;stroke-linejoin:miter;stroke:rgb(0%,0%,0%);stroke-opacity:0.2;stroke-dasharray:10,4;stroke-dashoffset:1;stroke-miterlimit:10;" d="M 3 3 L 61 3 L 61 45 L 3 45 Z M 3 3 "/>
<path style="fill:none;stroke-width:1.5;stroke-linecap:butt;stroke-linejoin:miter;stroke:rgb(0%,0%,0%);stroke-opacity:0.266667;stroke-dasharray:10,4;stroke-dashoffset:1;stroke-miterlimit:10;" d="M 74.75 0.75 L 137.25 0.75 L 137.25 47.25 L 74.75 47.25 Z M 74.75 0.75 "/>
<path style="fill:none;stroke-width:1.5;stroke-linecap:butt;stroke-linejoin:miter;stroke:rgb(0%,0%,0%);stroke-opacity:0.2;stroke-dasharray:10,4;stroke-dashoffset:1;stroke-miterlimit:10;" d="M 77 3 L 135 3 L 135 45 L 77 45 Z M 77 3 "/>
<path style="fill:none;stroke-width:1.5;stroke-linecap:butt;stroke-linejoin:miter;stroke:rgb(0%,0%,0%);stroke-opacity:0.266667;stroke-dasharray:10,4;stroke-dashoffset:1;stroke-miterlimit:10;" d="M 148.75 0.75 L 211.25 0.75 L 211.25 47.25 L 148.75 47.25 Z M 148.75 0.75 "/>
<path style="fill:none;stroke-width:1.5;stroke-linecap:butt;stroke-linejoin:miter;stroke:rgb(0%,0%,0%);stroke-opacity:0.2;stroke-dasharray:10,4;stroke-dashoffset:1;stroke-miterlimit:10;" d="M 151 3 L 209 3 L 209 45 L 151 45 Z M 151 3 "/>
<path style="fill:none;stroke-width:1.5;stroke-linecap:butt;stroke-linejoin:miter;stroke:rgb(0%,0%,0%);stroke-opacity:0.266667;stroke-dasharray:10,4;stroke-dashoffset:1;stroke-miterlimit:10;" d="M 222.75 0.75 L 285.25 0.75 L 285.25 47.25 L 222.75 47.25 Z M 222.75 0.75 "/>
<path style="fill:none;stroke-width:1.5;stroke-linecap:butt;stroke-linejoin:miter;stroke:rgb(0%,0%,0%);stroke-opacity:0.2;stroke-dasharray:10,4;stroke-dashoffset:1;stroke-miterlimit:10;" d="M 225 3 L 283 3 L 283 45 L 225 45 Z M 225 3 "/>
<path style="fill:none;stroke-width:1.5;stroke-linecap:butt;stroke-linejoin:miter;stroke:rgb(0%,0%,0%);stroke-opacity:0.266667;stroke-dasharray:10,4;stroke-dashoffset:1;stroke-miterlimit:10;" d="M 296.75 0.75 L 359.25 0.75 L 359.25 47.25 L 296.75 47.25 Z M 296.75 0.75 "/>
<path style="fill:none;stroke-width:1.5;stroke-linecap:butt;stroke-linejoin:miter;stroke:rgb(0%,0%,0%);stroke-opacity:0.2;stroke-dasharray:10,4;stroke-dashoffset:1;stroke-miterlimit:10;" d="M 299 3 L 357 3 L 357 45 L 299 45 Z M 299 3 "/>
<g clip-path="url(#clip1)" clip-rule="nonzero">
<path style="fill:none;stroke-width:2;stroke-linecap:butt;stroke-linejoin:miter;stroke:rgb(38.039216%,50.588235%,100%);stroke-opacity:1;stroke-miterlimit:10;" d="M 0 2 C 0 0.894531 0.894531 0 2 0 L 23 0 C 24.105469 0 25 0.894531 25 2 L 25 36 C 25 37.105469 24.105469 38 23 38 L 2 38 C 0.894531 38 0 37.105469 0 36 Z M 0 2 " transform="matrix(1,0,0,1,5,5)"/>
</g>
<path style=" stroke:none;fill-rule:nonzero;fill:rgb(38.039216%,50.588235%,100%);fill-opacity:0.490196;" d="M 5 7 C 5 5.894531 5.894531 5 7 5 L 28 5 C 29.105469 5 30 5.894531 30 7 L 30 41 C 30 42.105469 29.105469 43 28 43 L 7 43 C 5.894531 43 5 42.105469 5 41 Z M 5 7 "/>
<g clip-path="url(#clip2)" clip-rule="nonzero">
<g clip-path="url(#clip3)" clip-rule="nonzero">
<path style="fill:none;stroke-width:2;stroke-linecap:butt;stroke-linejoin:miter;stroke:rgb(38.039216%,50.588235%,100%);stroke-opacity:1;stroke-miterlimit:10;" d="M 0 2 C 0 0.894531 0.894531 0 2 0 L 23 0 C 24.105469 0 25 0.894531 25 2 L 25 36 C 25 37.105469 24.105469 38 23 38 L 2 38 C 0.894531 38 0 37.105469 0 36 Z M 0 2 " transform="matrix(1,0,0,1,5,5)"/>
</g>
</g>
<g clip-path="url(#clip4)" clip-rule="nonzero">
<path style="fill:none;stroke-width:2;stroke-linecap:butt;stroke-linejoin:miter;stroke:rgb(38.039216%,50.588235%,100%);stroke-opacity:1;stroke-miterlimit:10;" d="M 0 2 C 0 0.894531 0.894531 0 2 0 L 23 0 C 24.105469 0 25 0.894531 25 2 L 25 15 C 25 16.105469 24.105469 17 23 17 L 2 17 C 0.894531 17 0 16.105469 0 15 Z M 0 2 " transform="matrix(1,0,0,1,79,5)"/>
</g>
<path style=" stroke:none;fill-rule:nonzero;fill:rgb(38.039216%,50.588235%,100%);fill-opacity:0.490196;" d="M 79 7 C 79 5.894531 79.894531 5 81 5 L 102 5 C 103.105469 5 104 5.894531 104 7 L 104 20 C 104 21.105469 103.105469 22 102 22 L 81 22 C 79.894531 22 79 21.105469 79 20 Z M 79 7 "/>
<g clip-path="url(#clip5)" clip-rule="nonzero">
<g clip-path="url(#clip6)" clip-rule="nonzero">
<path style="fill:none;stroke-width:2;stroke-linecap:butt;stroke-linejoin:miter;stroke:rgb(38.039216%,50.588235%,100%);stroke-opacity:1;stroke-miterlimit:10;" d="M 0 2 C 0 0.894531 0.894531 0 2 0 L 23 0 C 24.105469 0 25 0.894531 25 2 L 25 15 C 25 16.105469 24.105469 17 23 17 L 2 17 C 0.894531 17 0 16.105469 0 15 Z M 0 2 " transform="matrix(1,0,0,1,79,5)"/>
</g>
</g>
<g clip-path="url(#clip7)" clip-rule="nonzero">
<path style="fill:none;stroke-width:2;stroke-linecap:butt;stroke-linejoin:miter;stroke:rgb(38.039216%,50.588235%,100%);stroke-opacity:1;stroke-miterlimit:10;" d="M 0 2 C 0 0.894531 0.894531 0 2 0 L 23 0 C 24.105469 0 25 0.894531 25 2 L 25 15 C 25 16.105469 24.105469 17 23 17 L 2 17 C 0.894531 17 0 16.105469 0 15 Z M 0 2 " transform="matrix(1,0,0,1,79,26)"/>
</g>
<path style=" stroke:none;fill-rule:nonzero;fill:rgb(38.039216%,50.588235%,100%);fill-opacity:0.490196;" d="M 79 28 C 79 26.894531 79.894531 26 81 26 L 102 26 C 103.105469 26 104 26.894531 104 28 L 104 41 C 104 42.105469 103.105469 43 102 43 L 81 43 C 79.894531 43 79 42.105469 79 41 Z M 79 28 "/>
<g clip-path="url(#clip8)" clip-rule="nonzero">
<g clip-path="url(#clip9)" clip-rule="nonzero">
<path style="fill:none;stroke-width:2;stroke-linecap:butt;stroke-linejoin:miter;stroke:rgb(38.039216%,50.588235%,100%);stroke-opacity:1;stroke-miterlimit:10;" d="M 0 2 C 0 0.894531 0.894531 0 2 0 L 23 0 C 24.105469 0 25 0.894531 25 2 L 25 15 C 25 16.105469 24.105469 17 23 17 L 2 17 C 0.894531 17 0 16.105469 0 15 Z M 0 2 " transform="matrix(1,0,0,1,79,26)"/>
</g>
</g>
<g clip-path="url(#clip10)" clip-rule="nonzero">
<path style="fill:none;stroke-width:2;stroke-linecap:butt;stroke-linejoin:miter;stroke:rgb(38.039216%,50.588235%,100%);stroke-opacity:1;stroke-miterlimit:10;" d="M 0 2 C 0 0.894531 0.894531 0 2 0 L 23 0 C 24.105469 0 25 0.894531 25 2 L 25 15 C 25 16.105469 24.105469 17 23 17 L 2 17 C 0.894531 17 0 16.105469 0 15 Z M 0 2 " transform="matrix(1,0,0,1,153,5)"/>
</g>
<path style=" stroke:none;fill-rule:nonzero;fill:rgb(38.039216%,50.588235%,100%);fill-opacity:0.490196;" d="M 153 7 C 153 5.894531 153.894531 5 155 5 L 176 5 C 177.105469 5 178 5.894531 178 7 L 178 20 C 178 21.105469 177.105469 22 176 22 L 155 22 C 153.894531 22 153 21.105469 153 20 Z M 153 7 "/>
<g clip-path="url(#clip11)" clip-rule="nonzero">
<g clip-path="url(#clip12)" clip-rule="nonzero">
<path style="fill:none;stroke-width:2;stroke-linecap:butt;stroke-linejoin:miter;stroke:rgb(38.039216%,50.588235%,100%);stroke-opacity:1;stroke-miterlimit:10;" d="M 0 2 C 0 0.894531 0.894531 0 2 0 L 23 0 C 24.105469 0 25 0.894531 25 2 L 25 15 C 25 16.105469 24.105469 17 23 17 L 2 17 C 0.894531 17 0 16.105469 0 15 Z M 0 2 " transform="matrix(1,0,0,1,153,5)"/>
</g>
</g>
<g clip-path="url(#clip13)" clip-rule="nonzero">
<path style="fill:none;stroke-width:2;stroke-linecap:butt;stroke-linejoin:miter;stroke:rgb(38.039216%,50.588235%,100%);stroke-opacity:1;stroke-miterlimit:10;" d="M 0 2 C 0 0.894531 0.894531 0 2 0 L 23 0 C 24.105469 0 25 0.894531 25 2 L 25 15 C 25 16.105469 24.105469 17 23 17 L 2 17 C 0.894531 17 0 16.105469 0 15 Z M 0 2 " transform="matrix(1,0,0,1,153,26)"/>
</g>
<path style=" stroke:none;fill-rule:nonzero;fill:rgb(38.039216%,50.588235%,100%);fill-opacity:0.490196;" d="M 153 28 C 153 26.894531 153.894531 26 155 26 L 176 26 C 177.105469 26 178 26.894531 178 28 L 178 41 C 178 42.105469 177.105469 43 176 43 L 155 43 C 153.894531 43 153 42.105469 153 41 Z M 153 28 "/>
<g clip-path="url(#clip14)" clip-rule="nonzero">
<g clip-path="url(#clip15)" clip-rule="nonzero">
<path style="fill:none;stroke-width:2;stroke-linecap:butt;stroke-linejoin:miter;stroke:rgb(38.039216%,50.588235%,100%);stroke-opacity:1;stroke-miterlimit:10;" d="M 0 2 C 0 0.894531 0.894531 0 2 0 L 23 0 C 24.105469 0 25 0.894531 25 2 L 25 15 C 25 16.105469 24.105469 17 23 17 L 2 17 C 0.894531 17 0 16.105469 0 15 Z M 0 2 " transform="matrix(1,0,0,1,153,26)"/>
</g>
</g>
<g clip-path="url(#clip16)" clip-rule="nonzero">
<path style="fill:none;stroke-width:2;stroke-linecap:butt;stroke-linejoin:miter;stroke:rgb(38.039216%,50.588235%,100%);stroke-opacity:1;stroke-miterlimit:10;" d="M 0 2 C 0 0.894531 0.894531 0 2 0 L 17 0 C 18.105469 0 19 0.894531 19 2 L 19 30 C 19 31.105469 18.105469 32 17 32 L 2 32 C 0.894531 32 0 31.105469 0 30 Z M 0 2 " transform="matrix(1,0,0,1,185,8)"/>
</g>
<path style=" stroke:none;fill-rule:nonzero;fill:rgb(38.039216%,50.588235%,100%);fill-opacity:0.490196;" d="M 185 10 C 185 8.894531 185.894531 8 187 8 L 202 8 C 203.105469 8 204 8.894531 204 10 L 204 38 C 204 39.105469 203.105469 40 202 40 L 187 40 C 185.894531 40 185 39.105469 185 38 Z M 185 10 "/>
<g clip-path="url(#clip17)" clip-rule="nonzero">
<g clip-path="url(#clip18)" clip-rule="nonzero">
<path style="fill:none;stroke-width:2;stroke-linecap:butt;stroke-linejoin:miter;stroke:rgb(38.039216%,50.588235%,100%);stroke-opacity:1;stroke-miterlimit:10;" d="M 0 2 C 0 0.894531 0.894531 0 2 0 L 17 0 C 18.105469 0 19 0.894531 19 2 L 19 30 C 19 31.105469 18.105469 32 17 32 L 2 32 C 0.894531 32 0 31.105469 0 30 Z M 0 2 " transform="matrix(1,0,0,1,185,8)"/>
</g>
</g>
<g clip-path="url(#clip19)" clip-rule="nonzero">
<path style="fill:none;stroke-width:2;stroke-linecap:butt;stroke-linejoin:miter;stroke:rgb(38.039216%,50.588235%,100%);stroke-opacity:1;stroke-miterlimit:10;" d="M 0 2 C 0 0.894531 0.894531 0 2 0 L 23 0 C 24.105469 0 25 0.894531 25 2 L 25 15 C 25 16.105469 24.105469 17 23 17 L 2 17 C 0.894531 17 0 16.105469 0 15 Z M 0 2 " transform="matrix(1,0,0,1,227,5)"/>
</g>
<path style=" stroke:none;fill-rule:nonzero;fill:rgb(38.039216%,50.588235%,100%);fill-opacity:0.490196;" d="M 227 7 C 227 5.894531 227.894531 5 229 5 L 250 5 C 251.105469 5 252 5.894531 252 7 L 252 20 C 252 21.105469 251.105469 22 250 22 L 229 22 C 227.894531 22 227 21.105469 227 20 Z M 227 7 "/>
<g clip-path="url(#clip20)" clip-rule="nonzero">
<g clip-path="url(#clip21)" clip-rule="nonzero">
<path style="fill:none;stroke-width:2;stroke-linecap:butt;stroke-linejoin:miter;stroke:rgb(38.039216%,50.588235%,100%);stroke-opacity:1;stroke-miterlimit:10;" d="M 0 2 C 0 0.894531 0.894531 0 2 0 L 23 0 C 24.105469 0 25 0.894531 25 2 L 25 15 C 25 16.105469 24.105469 17 23 17 L 2 17 C 0.894531 17 0 16.105469 0 15 Z M 0 2 " transform="matrix(1,0,0,1,227,5)"/>
</g>
</g>
<g clip-path="url(#clip22)" clip-rule="nonzero">
<path style="fill:none;stroke-width:2;stroke-linecap:butt;stroke-linejoin:miter;stroke:rgb(38.039216%,50.588235%,100%);stroke-opacity:1;stroke-miterlimit:10;" d="M 0 2 C 0 0.894531 0.894531 0 2 0 L 23 0 C 24.105469 0 25 0.894531 25 2 L 25 15 C 25 16.105469 24.105469 17 23 17 L 2 17 C 0.894531 17 0 16.105469 0 15 Z M 0 2 " transform="matrix(1,0,0,1,227,26)"/>
</g>
<path style=" stroke:none;fill-rule:nonzero;fill:rgb(38.039216%,50.588235%,100%);fill-opacity:0.490196;" d="M 227 28 C 227 26.894531 227.894531 26 229 26 L 250 26 C 251.105469 26 252 26.894531 252 28 L 252 41 C 252 42.105469 251.105469 43 250 43 L 229 43 C 227.894531 43 227 42.105469 227 41 Z M 227 28 "/>
<g clip-path="url(#clip23)" clip-rule="nonzero">
<g clip-path="url(#clip24)" clip-rule="nonzero">
<path style="fill:none;stroke-width:2;stroke-linecap:butt;stroke-linejoin:miter;stroke:rgb(38.039216%,50.588235%,100%);stroke-opacity:1;stroke-miterlimit:10;" d="M 0 2 C 0 0.894531 0.894531 0 2 0 L 23 0 C 24.105469 0 25 0.894531 25 2 L 25 15 C 25 16.105469 24.105469 17 23 17 L 2 17 C 0.894531 17 0 16.105469 0 15 Z M 0 2 " transform="matrix(1,0,0,1,227,26)"/>
</g>
</g>
<g clip-path="url(#clip25)" clip-rule="nonzero">
<path style="fill:none;stroke-width:2;stroke-linecap:butt;stroke-linejoin:miter;stroke:rgb(38.039216%,50.588235%,100%);stroke-opacity:1;stroke-miterlimit:10;" d="M 0 2 C 0 0.894531 0.894531 0 2 0 L 17 0 C 18.105469 0 19 0.894531 19 2 L 19 12 C 19 13.105469 18.105469 14 17 14 L 2 14 C 0.894531 14 0 13.105469 0 12 Z M 0 2 " transform="matrix(1,0,0,1,259,8)"/>
</g>
<path style=" stroke:none;fill-rule:nonzero;fill:rgb(38.039216%,50.588235%,100%);fill-opacity:0.490196;" d="M 259 10 C 259 8.894531 259.894531 8 261 8 L 276 8 C 277.105469 8 278 8.894531 278 10 L 278 20 C 278 21.105469 277.105469 22 276 22 L 261 22 C 259.894531 22 259 21.105469 259 20 Z M 259 10 "/>
<g clip-path="url(#clip26)" clip-rule="nonzero">
<g clip-path="url(#clip27)" clip-rule="nonzero">
<path style="fill:none;stroke-width:2;stroke-linecap:butt;stroke-linejoin:miter;stroke:rgb(38.039216%,50.588235%,100%);stroke-opacity:1;stroke-miterlimit:10;" d="M 0 2 C 0 0.894531 0.894531 0 2 0 L 17 0 C 18.105469 0 19 0.894531 19 2 L 19 12 C 19 13.105469 18.105469 14 17 14 L 2 14 C 0.894531 14 0 13.105469 0 12 Z M 0 2 " transform="matrix(1,0,0,1,259,8)"/>
</g>
</g>
<g clip-path="url(#clip28)" clip-rule="nonzero">
<path style="fill:none;stroke-width:2;stroke-linecap:butt;stroke-linejoin:miter;stroke:rgb(38.039216%,50.588235%,100%);stroke-opacity:1;stroke-miterlimit:10;" d="M 0 2 C 0 0.894531 0.894531 0 2 0 L 17 0 C 18.105469 0 19 0.894531 19 2 L 19 12 C 19 13.105469 18.105469 14 17 14 L 2 14 C 0.894531 14 0 13.105469 0 12 Z M 0 2 " transform="matrix(1,0,0,1,259,26)"/>
</g>
<path style=" stroke:none;fill-rule:nonzero;fill:rgb(38.039216%,50.588235%,100%);fill-opacity:0.490196;" d="M 259 28 C 259 26.894531 259.894531 26 261 26 L 276 26 C 277.105469 26 278 26.894531 278 28 L 278 38 C 278 39.105469 277.105469 40 276 40 L 261 40 C 259.894531 40 259 39.105469 259 38 Z M 259 28 "/>
<g clip-path="url(#clip29)" clip-rule="nonzero">
<g clip-path="url(#clip30)" clip-rule="nonzero">
<path style="fill:none;stroke-width:2;stroke-linecap:butt;stroke-linejoin:miter;stroke:rgb(38.039216%,50.588235%,100%);stroke-opacity:1;stroke-miterlimit:10;" d="M 0 2 C 0 0.894531 0.894531 0 2 0 L 17 0 C 18.105469 0 19 0.894531 19 2 L 19 12 C 19 13.105469 18.105469 14 17 14 L 2 14 C 0.894531 14 0 13.105469 0 12 Z M 0 2 " transform="matrix(1,0,0,1,259,26)"/>
</g>
</g>
<g clip-path="url(#clip31)" clip-rule="nonzero">
<path style="fill:none;stroke-width:2;stroke-linecap:butt;stroke-linejoin:miter;stroke:rgb(38.039216%,50.588235%,100%);stroke-opacity:1;stroke-miterlimit:10;" d="M 0 2 C 0 0.894531 0.894531 0 2 0 L 23 0 C 24.105469 0 25 0.894531 25 2 L 25 15 C 25 16.105469 24.105469 17 23 17 L 2 17 C 0.894531 17 0 16.105469 0 15 Z M 0 2 " transform="matrix(1,0,0,1,301,5)"/>
</g>
<path style=" stroke:none;fill-rule:nonzero;fill:rgb(38.039216%,50.588235%,100%);fill-opacity:0.490196;" d="M 301 7 C 301 5.894531 301.894531 5 303 5 L 324 5 C 325.105469 5 326 5.894531 326 7 L 326 20 C 326 21.105469 325.105469 22 324 22 L 303 22 C 301.894531 22 301 21.105469 301 20 Z M 301 7 "/>
<g clip-path="url(#clip32)" clip-rule="nonzero">
<g clip-path="url(#clip33)" clip-rule="nonzero">
<path style="fill:none;stroke-width:2;stroke-linecap:butt;stroke-linejoin:miter;stroke:rgb(38.039216%,50.588235%,100%);stroke-opacity:1;stroke-miterlimit:10;" d="M 0 2 C 0 0.894531 0.894531 0 2 0 L 23 0 C 24.105469 0 25 0.894531 25 2 L 25 15 C 25 16.105469 24.105469 17 23 17 L 2 17 C 0.894531 17 0 16.105469 0 15 Z M 0 2 " transform="matrix(1,0,0,1,301,5)"/>
</g>
</g>
<g clip-path="url(#clip34)" clip-rule="nonzero">
<path style="fill:none;stroke-width:2;stroke-linecap:butt;stroke-linejoin:miter;stroke:rgb(38.039216%,50.588235%,100%);stroke-opacity:1;stroke-miterlimit:10;" d="M 0 2 C 0 0.894531 0.894531 0 2 0 L 23 0 C 24.105469 0 25 0.894531 25 2 L 25 15 C 25 16.105469 24.105469 17 23 17 L 2 17 C 0.894531 17 0 16.105469 0 15 Z M 0 2 " transform="matrix(1,0,0,1,301,26)"/>
</g>
<path style=" stroke:none;fill-rule:nonzero;fill:rgb(38.039216%,50.588235%,100%);fill-opacity:0.490196;" d="M 301 28 C 301 26.894531 301.894531 26 303 26 L 324 26 C 325.105469 26 326 26.894531 326 28 L 326 41 C 326 42.105469 325.105469 43 324 43 L 303 43 C 301.894531 43 301 42.105469 301 41 Z M 301 28 "/>
<g clip-path="url(#clip35)" clip-rule="nonzero">
<g clip-path="url(#clip36)" clip-rule="nonzero">
<path style="fill:none;stroke-width:2;stroke-linecap:butt;stroke-linejoin:miter;stroke:rgb(38.039216%,50.588235%,100%);stroke-opacity:1;stroke-miterlimit:10;" d="M 0 2 C 0 0.894531 0.894531 0 2 0 L 23 0 C 24.105469 0 25 0.894531 25 2 L 25 15 C 25 16.105469 24.105469 17 23 17 L 2 17 C 0.894531 17 0 16.105469 0 15 Z M 0 2 " transform="matrix(1,0,0,1,301,26)"/>
</g>
</g>
<g clip-path="url(#clip37)" clip-rule="nonzero">
<path style="fill:none;stroke-width:2;stroke-linecap:butt;stroke-linejoin:miter;stroke:rgb(38.039216%,50.588235%,100%);stroke-opacity:1;stroke-miterlimit:10;" d="M 0 2 C 0 0.894531 0.894531 0 2 0 L 17 0 C 18.105469 0 19 0.894531 19 2 L 19 6 C 19 7.105469 18.105469 8 17 8 L 2 8 C 0.894531 8 0 7.105469 0 6 Z M 0 2 " transform="matrix(1,0,0,1,333,8)"/>
</g>
<path style=" stroke:none;fill-rule:nonzero;fill:rgb(38.039216%,50.588235%,100%);fill-opacity:0.490196;" d="M 333 10 C 333 8.894531 333.894531 8 335 8 L 350 8 C 351.105469 8 352 8.894531 352 10 L 352 14 C 352 15.105469 351.105469 16 350 16 L 335 16 C 333.894531 16 333 15.105469 333 14 Z M 333 10 "/>
<g clip-path="url(#clip38)" clip-rule="nonzero">
<g clip-path="url(#clip39)" clip-rule="nonzero">
<path style="fill:none;stroke-width:2;stroke-linecap:butt;stroke-linejoin:miter;stroke:rgb(38.039216%,50.588235%,100%);stroke-opacity:1;stroke-miterlimit:10;" d="M 0 2 C 0 0.894531 0.894531 0 2 0 L 17 0 C 18.105469 0 19 0.894531 19 2 L 19 6 C 19 7.105469 18.105469 8 17 8 L 2 8 C 0.894531 8 0 7.105469 0 6 Z M 0 2 " transform="matrix(1,0,0,1,333,8)"/>
</g>
</g>
<g clip-path="url(#clip40)" clip-rule="nonzero">
<path style="fill:none;stroke-width:2;stroke-linecap:butt;stroke-linejoin:miter;stroke:rgb(38.039216%,50.588235%,100%);stroke-opacity:1;stroke-miterlimit:10;" d="M 0 2 C 0 0.894531 0.894531 0 2 0 L 17 0 C 18.105469 0 19 0.894531 19 2 L 19 6 C 19 7.105469 18.105469 8 17 8 L 2 8 C 0.894531 8 0 7.105469 0 6 Z M 0 2 " transform="matrix(1,0,0,1,333,20)"/>
</g>
<path style=" stroke:none;fill-rule:nonzero;fill:rgb(38.039216%,50.588235%,100%);fill-opacity:0.490196;" d="M 333 22 C 333 20.894531 333.894531 20 335 20 L 350 20 C 351.105469 20 352 20.894531 352 22 L 352 26 C 352 27.105469 351.105469 28 350 28 L 335 28 C 333.894531 28 333 27.105469 333 26 Z M 333 22 "/>
<g clip-path="url(#clip41)" clip-rule="nonzero">
<g clip-path="url(#clip42)" clip-rule="nonzero">
<path style="fill:none;stroke-width:2;stroke-linecap:butt;stroke-linejoin:miter;stroke:rgb(38.039216%,50.588235%,100%);stroke-opacity:1;stroke-miterlimit:10;" d="M 0 2 C 0 0.894531 0.894531 0 2 0 L 17 0 C 18.105469 0 19 0.894531 19 2 L 19 6 C 19 7.105469 18.105469 8 17 8 L 2 8 C 0.894531 8 0 7.105469 0 6 Z M 0 2 " transform="matrix(1,0,0,1,333,20)"/>
</g>
</g>
<g clip-path="url(#clip43)" clip-rule="nonzero">
<path style="fill:none;stroke-width:2;stroke-linecap:butt;stroke-linejoin:miter;stroke:rgb(38.039216%,50.588235%,100%);stroke-opacity:1;stroke-miterlimit:10;" d="M 0 2 C 0 0.894531 0.894531 0 2 0 L 17 0 C 18.105469 0 19 0.894531 19 2 L 19 6 C 19 7.105469 18.105469 8 17 8 L 2 8 C 0.894531 8 0 7.105469 0 6 Z M 0 2 " transform="matrix(1,0,0,1,333,32)"/>
</g>
<path style=" stroke:none;fill-rule:nonzero;fill:rgb(38.039216%,50.588235%,100%);fill-opacity:0.490196;" d="M 333 34 C 333 32.894531 333.894531 32 335 32 L 350 32 C 351.105469 32 352 32.894531 352 34 L 352 38 C 352 39.105469 351.105469 40 350 40 L 335 40 C 333.894531 40 333 39.105469 333 38 Z M 333 34 "/>
<g clip-path="url(#clip44)" clip-rule="nonzero">
<g clip-path="url(#clip45)" clip-rule="nonzero">
<path style="fill:none;stroke-width:2;stroke-linecap:butt;stroke-linejoin:miter;stroke:rgb(38.039216%,50.588235%,100%);stroke-opacity:1;stroke-miterlimit:10;" d="M 0 2 C 0 0.894531 0.894531 0 2 0 L 17 0 C 18.105469 0 19 0.894531 19 2 L 19 6 C 19 7.105469 18.105469 8 17 8 L 2 8 C 0.894531 8 0 7.105469 0 6 Z M 0 2 " transform="matrix(1,0,0,1,333,32)"/>
</g>
</g>
</g>
</svg>
