<?xml version="1.0" encoding="UTF-8"?>
<svg xmlns="http://www.w3.org/2000/svg" xmlns:xlink="http://www.w3.org/1999/xlink" width="542pt" height="96pt" viewBox="0 0 542 96" version="1.1">
<defs>
<clipPath id="clip1">
  <path d="M 0 0 L 108 0 L 108 76 L 0 76 Z M 0 0 "/>
</clipPath>
<clipPath id="clip2">
  <path d="M 2 2 L 106 2 L 106 74 L 2 74 Z M 2 2 "/>
</clipPath>
<clipPath id="clip3">
  <path d="M 2 7 C 2 4.238281 4.238281 2 7 2 L 101 2 C 103.761719 2 106 4.238281 106 7 L 106 69 C 106 71.761719 103.761719 74 101 74 L 7 74 C 4.238281 74 2 71.761719 2 69 Z M 2 7 "/>
</clipPath>
<clipPath id="clip4">
  <path d="M 10 10 L 118 10 L 118 86 L 10 86 Z M 10 10 "/>
</clipPath>
<clipPath id="clip5">
  <path d="M 12 12 L 116 12 L 116 84 L 12 84 Z M 12 12 "/>
</clipPath>
<clipPath id="clip6">
  <path d="M 12 17 C 12 14.238281 14.238281 12 17 12 L 111 12 C 113.761719 12 116 14.238281 116 17 L 116 79 C 116 81.761719 113.761719 84 111 84 L 17 84 C 14.238281 84 12 81.761719 12 79 Z M 12 17 "/>
</clipPath>
<clipPath id="clip7">
  <path d="M 138 0 L 246 0 L 246 76 L 138 76 Z M 138 0 "/>
</clipPath>
<clipPath id="clip8">
  <path d="M 140 2 L 244 2 L 244 74 L 140 74 Z M 140 2 "/>
</clipPath>
<clipPath id="clip9">
  <path d="M 140 7 C 140 4.238281 142.238281 2 145 2 L 239 2 C 241.761719 2 244 4.238281 244 7 L 244 69 C 244 71.761719 241.761719 74 239 74 L 145 74 C 142.238281 74 140 71.761719 140 69 Z M 140 7 "/>
</clipPath>
<clipPath id="clip10">
  <path d="M 148 10 L 256 10 L 256 86 L 148 86 Z M 148 10 "/>
</clipPath>
<clipPath id="clip11">
  <path d="M 150 12 L 254 12 L 254 84 L 150 84 Z M 150 12 "/>
</clipPath>
<clipPath id="clip12">
  <path d="M 150 17 C 150 14.238281 152.238281 12 155 12 L 249 12 C 251.761719 12 254 14.238281 254 17 L 254 79 C 254 81.761719 251.761719 84 249 84 L 155 84 C 152.238281 84 150 81.761719 150 79 Z M 150 17 "/>
</clipPath>
<clipPath id="clip13">
  <path d="M 138 0 L 246 0 L 246 76 L 138 76 Z M 138 0 "/>
</clipPath>
<clipPath id="clip14">
  <path d="M 140 2 L 244 2 L 244 74 L 140 74 Z M 140 2 "/>
</clipPath>
<clipPath id="clip15">
  <path d="M 140 7 C 140 4.238281 142.238281 2 145 2 L 239 2 C 241.761719 2 244 4.238281 244 7 L 244 69 C 244 71.761719 241.761719 74 239 74 L 145 74 C 142.238281 74 140 71.761719 140 69 Z M 140 7 "/>
</clipPath>
<clipPath id="clip16">
  <path d="M 148 10 L 256 10 L 256 86 L 148 86 Z M 148 10 "/>
</clipPath>
<clipPath id="clip17">
  <path d="M 150 12 L 254 12 L 254 84 L 150 84 Z M 150 12 "/>
</clipPath>
<clipPath id="clip18">
  <path d="M 150 17 C 150 14.238281 152.238281 12 155 12 L 249 12 C 251.761719 12 254 14.238281 254 17 L 254 79 C 254 81.761719 251.761719 84 249 84 L 155 84 C 152.238281 84 150 81.761719 150 79 Z M 150 17 "/>
</clipPath>
<clipPath id="clip19">
  <path d="M 276 0 L 384 0 L 384 76 L 276 76 Z M 276 0 "/>
</clipPath>
<clipPath id="clip20">
  <path d="M 278 2 L 382 2 L 382 74 L 278 74 Z M 278 2 "/>
</clipPath>
<clipPath id="clip21">
  <path d="M 278 7 C 278 4.238281 280.238281 2 283 2 L 377 2 C 379.761719 2 382 4.238281 382 7 L 382 69 C 382 71.761719 379.761719 74 377 74 L 283 74 C 280.238281 74 278 71.761719 278 69 Z M 278 7 "/>
</clipPath>
<clipPath id="clip22">
  <path d="M 286 10 L 394 10 L 394 86 L 286 86 Z M 286 10 "/>
</clipPath>
<clipPath id="clip23">
  <path d="M 288 12 L 392 12 L 392 84 L 288 84 Z M 288 12 "/>
</clipPath>
<clipPath id="clip24">
  <path d="M 288 17 C 288 14.238281 290.238281 12 293 12 L 387 12 C 389.761719 12 392 14.238281 392 17 L 392 79 C 392 81.761719 389.761719 84 387 84 L 293 84 C 290.238281 84 288 81.761719 288 79 Z M 288 17 "/>
</clipPath>
<clipPath id="clip25">
  <path d="M 276 0 L 384 0 L 384 76 L 276 76 Z M 276 0 "/>
</clipPath>
<clipPath id="clip26">
  <path d="M 278 2 L 382 2 L 382 74 L 278 74 Z M 278 2 "/>
</clipPath>
<clipPath id="clip27">
  <path d="M 278 7 C 278 4.238281 280.238281 2 283 2 L 377 2 C 379.761719 2 382 4.238281 382 7 L 382 69 C 382 71.761719 379.761719 74 377 74 L 283 74 C 280.238281 74 278 71.761719 278 69 Z M 278 7 "/>
</clipPath>
<clipPath id="clip28">
  <path d="M 286 10 L 394 10 L 394 86 L 286 86 Z M 286 10 "/>
</clipPath>
<clipPath id="clip29">
  <path d="M 288 12 L 392 12 L 392 84 L 288 84 Z M 288 12 "/>
</clipPath>
<clipPath id="clip30">
  <path d="M 288 17 C 288 14.238281 290.238281 12 293 12 L 387 12 C 389.761719 12 392 14.238281 392 17 L 392 79 C 392 81.761719 389.761719 84 387 84 L 293 84 C 290.238281 84 288 81.761719 288 79 Z M 288 17 "/>
</clipPath>
<clipPath id="clip31">
  <path d="M 276 0 L 384 0 L 384 76 L 276 76 Z M 276 0 "/>
</clipPath>
<clipPath id="clip32">
  <path d="M 278 2 L 382 2 L 382 74 L 278 74 Z M 278 2 "/>
</clipPath>
<clipPath id="clip33">
  <path d="M 278 7 C 278 4.238281 280.238281 2 283 2 L 377 2 C 379.761719 2 382 4.238281 382 7 L 382 69 C 382 71.761719 379.761719 74 377 74 L 283 74 C 280.238281 74 278 71.761719 278 69 Z M 278 7 "/>
</clipPath>
<clipPath id="clip34">
  <path d="M 286 10 L 394 10 L 394 86 L 286 86 Z M 286 10 "/>
</clipPath>
<clipPath id="clip35">
  <path d="M 288 12 L 392 12 L 392 84 L 288 84 Z M 288 12 "/>
</clipPath>
<clipPath id="clip36">
  <path d="M 288 17 C 288 14.238281 290.238281 12 293 12 L 387 12 C 389.761719 12 392 14.238281 392 17 L 392 79 C 392 81.761719 389.761719 84 387 84 L 293 84 C 290.238281 84 288 81.761719 288 79 Z M 288 17 "/>
</clipPath>
<clipPath id="clip37">
  <path d="M 414 0 L 522 0 L 522 76 L 414 76 Z M 414 0 "/>
</clipPath>
<clipPath id="clip38">
  <path d="M 416 2 L 520 2 L 520 74 L 416 74 Z M 416 2 "/>
</clipPath>
<clipPath id="clip39">
  <path d="M 416 7 C 416 4.238281 418.238281 2 421 2 L 515 2 C 517.761719 2 520 4.238281 520 7 L 520 69 C 520 71.761719 517.761719 74 515 74 L 421 74 C 418.238281 74 416 71.761719 416 69 Z M 416 7 "/>
</clipPath>
<clipPath id="clip40">
  <path d="M 424 10 L 532 10 L 532 86 L 424 86 Z M 424 10 "/>
</clipPath>
<clipPath id="clip41">
  <path d="M 426 12 L 530 12 L 530 84 L 426 84 Z M 426 12 "/>
</clipPath>
<clipPath id="clip42">
  <path d="M 426 17 C 426 14.238281 428.238281 12 431 12 L 525 12 C 527.761719 12 530 14.238281 530 17 L 530 79 C 530 81.761719 527.761719 84 525 84 L 431 84 C 428.238281 84 426 81.761719 426 79 Z M 426 17 "/>
</clipPath>
<clipPath id="clip43">
  <path d="M 414 0 L 522 0 L 522 76 L 414 76 Z M 414 0 "/>
</clipPath>
<clipPath id="clip44">
  <path d="M 416 2 L 520 2 L 520 74 L 416 74 Z M 416 2 "/>
</clipPath>
<clipPath id="clip45">
  <path d="M 416 7 C 416 4.238281 418.238281 2 421 2 L 515 2 C 517.761719 2 520 4.238281 520 7 L 520 69 C 520 71.761719 517.761719 74 515 74 L 421 74 C 418.238281 74 416 71.761719 416 69 Z M 416 7 "/>
</clipPath>
<clipPath id="clip46">
  <path d="M 424 10 L 532 10 L 532 86 L 424 86 Z M 424 10 "/>
</clipPath>
<clipPath id="clip47">
  <path d="M 426 12 L 530 12 L 530 84 L 426 84 Z M 426 12 "/>
</clipPath>
<clipPath id="clip48">
  <path d="M 426 17 C 426 14.238281 428.238281 12 431 12 L 525 12 C 527.761719 12 530 14.238281 530 17 L 530 79 C 530 81.761719 527.761719 84 525 84 L 431 84 C 428.238281 84 426 81.761719 426 79 Z M 426 17 "/>
</clipPath>
<clipPath id="clip49">
  <path d="M 414 0 L 522 0 L 522 76 L 414 76 Z M 414 0 "/>
</clipPath>
<clipPath id="clip50">
  <path d="M 416 2 L 520 2 L 520 74 L 416 74 Z M 416 2 "/>
</clipPath>
<clipPath id="clip51">
  <path d="M 416 7 C 416 4.238281 418.238281 2 421 2 L 515 2 C 517.761719 2 520 4.238281 520 7 L 520 69 C 520 71.761719 517.761719 74 515 74 L 421 74 C 418.238281 74 416 71.761719 416 69 Z M 416 7 "/>
</clipPath>
<clipPath id="clip52">
  <path d="M 424 10 L 532 10 L 532 86 L 424 86 Z M 424 10 "/>
</clipPath>
<clipPath id="clip53">
  <path d="M 426 12 L 530 12 L 530 84 L 426 84 Z M 426 12 "/>
</clipPath>
<clipPath id="clip54">
  <path d="M 426 17 C 426 14.238281 428.238281 12 431 12 L 525 12 C 527.761719 12 530 14.238281 530 17 L 530 79 C 530 81.761719 527.761719 84 525 84 L 431 84 C 428.238281 84 426 81.761719 426 79 Z M 426 17 "/>
</clipPath>
<clipPath id="clip55">
  <path d="M 414 0 L 522 0 L 522 76 L 414 76 Z M 414 0 "/>
</clipPath>
<clipPath id="clip56">
  <path d="M 416 2 L 520 2 L 520 74 L 416 74 Z M 416 2 "/>
</clipPath>
<clipPath id="clip57">
  <path d="M 416 7 C 416 4.238281 418.238281 2 421 2 L 515 2 C 517.761719 2 520 4.238281 520 7 L 520 69 C 520 71.761719 517.761719 74 515 74 L 421 74 C 418.238281 74 416 71.761719 416 69 Z M 416 7 "/>
</clipPath>
<clipPath id="clip58">
  <path d="M 424 10 L 532 10 L 532 86 L 424 86 Z M 424 10 "/>
</clipPath>
<clipPath id="clip59">
  <path d="M 426 12 L 530 12 L 530 84 L 426 84 Z M 426 12 "/>
</clipPath>
<clipPath id="clip60">
  <path d="M 426 17 C 426 14.238281 428.238281 12 431 12 L 525 12 C 527.761719 12 530 14.238281 530 17 L 530 79 C 530 81.761719 527.761719 84 525 84 L 431 84 C 428.238281 84 426 81.761719 426 79 Z M 426 17 "/>
</clipPath>
</defs>
<g id="surface2">
<path style="fill:none;stroke-width:1.5;stroke-linecap:butt;stroke-linejoin:miter;stroke:rgb(0%,0%,0%);stroke-opacity:0.266667;stroke-dasharray:10,4;stroke-dashoffset:1;stroke-miterlimit:10;" d="M 0.75 0.75 L 127.25 0.75 L 127.25 95.25 L 0.75 95.25 Z M 0.75 0.75 "/>
<path style="fill:none;stroke-width:1.5;stroke-linecap:butt;stroke-linejoin:miter;stroke:rgb(0%,0%,0%);stroke-opacity:0.2;stroke-dasharray:10,4;stroke-dashoffset:1;stroke-miterlimit:10;" d="M 10 10 L 118 10 L 118 86 L 10 86 Z M 10 10 "/>
<path style="fill:none;stroke-width:1.5;stroke-linecap:butt;stroke-linejoin:miter;stroke:rgb(0%,0%,0%);stroke-opacity:0.266667;stroke-dasharray:10,4;stroke-dashoffset:1;stroke-miterlimit:10;" d="M 138.75 0.75 L 265.25 0.75 L 265.25 95.25 L 138.75 95.25 Z M 138.75 0.75 "/>
<path style="fill:none;stroke-width:1.5;stroke-linecap:butt;stroke-linejoin:miter;stroke:rgb(0%,0%,0%);stroke-opacity:0.2;stroke-dasharray:10,4;stroke-dashoffset:1;stroke-miterlimit:10;" d="M 148 10 L 256 10 L 256 86 L 148 86 Z M 148 10 "/>
<path style="fill:none;stroke-width:1.5;stroke-linecap:butt;stroke-linejoin:miter;stroke:rgb(0%,0%,0%);stroke-opacity:0.266667;stroke-dasharray:10,4;stroke-dashoffset:1;stroke-miterlimit:10;" d="M 276.75 0.75 L 403.25 0.75 L 403.25 95.25 L 276.75 95.25 Z M 276.75 0.75 "/>
<path style="fill:none;stroke-width:1.5;stroke-linecap:butt;stroke-linejoin:miter;stroke:rgb(0%,0%,0%);stroke-opacity:0.2;stroke-dasharray:10,4;stroke-dashoffset:1;stroke-miterlimit:10;" d="M 286 10 L 394 10 L 394 86 L 286 86 Z M 286 10 "/>
<path style="fill:none;stroke-width:1.5;stroke-linecap:butt;stroke-linejoin:miter;stroke:rgb(0%,0%,0%);stroke-opacity:0.266667;stroke-dasharray:10,4;stroke-dashoffset:1;stroke-miterlimit:10;" d="M 414.75 0.75 L 541.25 0.75 L 541.25 95.25 L 414.75 95.25 Z M 414.75 0.75 "/>
<path style="fill:none;stroke-width:1.5;stroke-linecap:butt;stroke-linejoin:miter;stroke:rgb(0%,0%,0%);stroke-opacity:0.2;stroke-dasharray:10,4;stroke-dashoffset:1;stroke-miterlimit:10;" d="M 424 10 L 532 10 L 532 86 L 424 86 Z M 424 10 "/>
<g clip-path="url(#clip1)" clip-rule="nonzero">
<path style="fill:none;stroke-width:2;stroke-linecap:butt;stroke-linejoin:miter;stroke:rgb(38.039216%,50.588235%,100%);stroke-opacity:1;stroke-miterlimit:10;" d="M 0 5 C 0 2.238281 2.238281 0 5 0 L 99 0 C 101.761719 0 104 2.238281 104 5 L 104 67 C 104 69.761719 101.761719 72 99 72 L 5 72 C 2.238281 72 0 69.761719 0 67 Z M 0 5 " transform="matrix(1,0,0,1,2,2)"/>
</g>
<path style=" stroke:none;fill-rule:nonzero;fill:rgb(38.039216%,50.588235%,100%);fill-opacity:0.490196;" d="M 2 7 C 2 4.238281 4.238281 2 7 2 L 101 2 C 103.761719 2 106 4.238281 106 7 L 106 69 C 106 71.761719 103.761719 74 101 74 L 7 74 C 4.238281 74 2 71.761719 2 69 Z M 2 7 "/>
<g clip-path="url(#clip2)" clip-rule="nonzero">
<g clip-path="url(#clip3)" clip-rule="nonzero">
<path style="fill:none;stroke-width:2;stroke-linecap:butt;stroke-linejoin:miter;stroke:rgb(38.039216%,50.588235%,100%);stroke-opacity:1;stroke-miterlimit:10;" d="M 0 5 C 0 2.238281 2.238281 0 5 0 L 99 0 C 101.761719 0 104 2.238281 104 5 L 104 67 C 104 69.761719 101.761719 72 99 72 L 5 72 C 2.238281 72 0 69.761719 0 67 Z M 0 5 " transform="matrix(1,0,0,1,2,2)"/>
</g>
</g>
<g clip-path="url(#clip4)" clip-rule="nonzero">
<path style="fill:none;stroke-width:2;stroke-linecap:butt;stroke-linejoin:miter;stroke:rgb(38.039216%,50.588235%,100%);stroke-opacity:1;stroke-miterlimit:10;" d="M 0 5 C 0 2.238281 2.238281 0 5 0 L 99 0 C 101.761719 0 104 2.238281 104 5 L 104 67 C 104 69.761719 101.761719 72 99 72 L 5 72 C 2.238281 72 0 69.761719 0 67 Z M 0 5 " transform="matrix(1,0,0,1,12,12)"/>
</g>
<path style=" stroke:none;fill-rule:nonzero;fill:rgb(38.039216%,50.588235%,100%);fill-opacity:0.490196;" d="M 12 17 C 12 14.238281 14.238281 12 17 12 L 111 12 C 113.761719 12 116 14.238281 116 17 L 116 79 C 116 81.761719 113.761719 84 111 84 L 17 84 C 14.238281 84 12 81.761719 12 79 Z M 12 17 "/>
<g clip-path="url(#clip5)" clip-rule="nonzero">
<g clip-path="url(#clip6)" clip-rule="nonzero">
<path style="fill:none;stroke-width:2;stroke-linecap:butt;stroke-linejoin:miter;stroke:rgb(38.039216%,50.588235%,100%);stroke-opacity:1;stroke-miterlimit:10;" d="M 0 5 C 0 2.238281 2.238281 0 5 0 L 99 0 C 101.761719 0 104 2.238281 104 5 L 104 67 C 104 69.761719 101.761719 72 99 72 L 5 72 C 2.238281 72 0 69.761719 0 67 Z M 0 5 " transform="matrix(1,0,0,1,12,12)"/>
</g>
</g>
<g clip-path="url(#clip7)" clip-rule="nonzero">
<path style="fill:none;stroke-width:2;stroke-linecap:butt;stroke-linejoin:miter;stroke:rgb(38.039216%,50.588235%,100%);stroke-opacity:1;stroke-miterlimit:10;" d="M 0 5 C 0 2.238281 2.238281 0 5 0 L 99 0 C 101.761719 0 104 2.238281 104 5 L 104 67 C 104 69.761719 101.761719 72 99 72 L 5 72 C 2.238281 72 0 69.761719 0 67 Z M 0 5 " transform="matrix(1,0,0,1,140,2)"/>
</g>
<path style=" stroke:none;fill-rule:nonzero;fill:rgb(38.039216%,50.588235%,100%);fill-opacity:0.490196;" d="M 140 7 C 140 4.238281 142.238281 2 145 2 L 239 2 C 241.761719 2 244 4.238281 244 7 L 244 69 C 244 71.761719 241.761719 74 239 74 L 145 74 C 142.238281 74 140 71.761719 140 69 Z M 140 7 "/>
<g clip-path="url(#clip8)" clip-rule="nonzero">
<g clip-path="url(#clip9)" clip-rule="nonzero">
<path style="fill:none;stroke-width:2;stroke-linecap:butt;stroke-linejoin:miter;stroke:rgb(38.039216%,50.588235%,100%);stroke-opacity:1;stroke-miterlimit:10;" d="M 0 5 C 0 2.238281 2.238281 0 5 0 L 99 0 C 101.761719 0 104 2.238281 104 5 L 104 67 C 104 69.761719 101.761719 72 99 72 L 5 72 C 2.238281 72 0 69.761719 0 67 Z M 0 5 " transform="matrix(1,0,0,1,140,2)"/>
</g>
</g>
<g clip-path="url(#clip10)" clip-rule="nonzero">
<path style="fill:none;stroke-width:2;stroke-linecap:butt;stroke-linejoin:miter;stroke:rgb(38.039216%,50.588235%,100%);stroke-opacity:1;stroke-miterlimit:10;" d="M 0 5 C 0 2.238281 2.238281 0 5 0 L 99 0 C 101.761719 0 104 2.238281 104 5 L 104 67 C 104 69.761719 101.761719 72 99 72 L 5 72 C 2.238281 72 0 69.761719 0 67 Z M 0 5 " transform="matrix(1,0,0,1,150,12)"/>
</g>
<path style=" stroke:none;fill-rule:nonzero;fill:rgb(38.039216%,50.588235%,100%);fill-opacity:0.490196;" d="M 150 17 C 150 14.238281 152.238281 12 155 12 L 249 12 C 251.761719 12 254 14.238281 254 17 L 254 79 C 254 81.761719 251.761719 84 249 84 L 155 84 C 152.238281 84 150 81.761719 150 79 Z M 150 17 "/>
<g clip-path="url(#clip11)" clip-rule="nonzero">
<g clip-path="url(#clip12)" clip-rule="nonzero">
<path style="fill:none;stroke-width:2;stroke-linecap:butt;stroke-linejoin:miter;stroke:rgb(38.039216%,50.588235%,100%);stroke-opacity:1;stroke-miterlimit:10;" d="M 0 5 C 0 2.238281 2.238281 0 5 0 L 99 0 C 101.761719 0 104 2.238281 104 5 L 104 67 C 104 69.761719 101.761719 72 99 72 L 5 72 C 2.238281 72 0 69.761719 0 67 Z M 0 5 " transform="matrix(1,0,0,1,150,12)"/>
</g>
</g>
<g clip-path="url(#clip13)" clip-rule="nonzero">
<path style="fill:none;stroke-width:2;stroke-linecap:butt;stroke-linejoin:miter;stroke:rgb(38.039216%,50.588235%,100%);stroke-opacity:1;stroke-miterlimit:10;" d="M 0 5 C 0 2.238281 2.238281 0 5 0 L 99 0 C 101.761719 0 104 2.238281 104 5 L 104 67 C 104 69.761719 101.761719 72 99 72 L 5 72 C 2.238281 72 0 69.761719 0 67 Z M 0 5 " transform="matrix(1,0,0,1,140,2)"/>
</g>
<path style=" stroke:none;fill-rule:nonzero;fill:rgb(38.039216%,50.588235%,100%);fill-opacity:0.490196;" d="M 140 7 C 140 4.238281 142.238281 2 145 2 L 239 2 C 241.761719 2 244 4.238281 244 7 L 244 69 C 244 71.761719 241.761719 74 239 74 L 145 74 C 142.238281 74 140 71.761719 140 69 Z M 140 7 "/>
<g clip-path="url(#clip14)" clip-rule="nonzero">
<g clip-path="url(#clip15)" clip-rule="nonzero">
<path style="fill:none;stroke-width:2;stroke-linecap:butt;stroke-linejoin:miter;stroke:rgb(38.039216%,50.588235%,100%);stroke-opacity:1;stroke-miterlimit:10;" d="M 0 5 C 0 2.238281 2.238281 0 5 0 L 99 0 C 101.761719 0 104 2.238281 104 5 L 104 67 C 104 69.761719 101.761719 72 99 72 L 5 72 C 2.238281 72 0 69.761719 0 67 Z M 0 5 " transform="matrix(1,0,0,1,140,2)"/>
</g>
</g>
<g clip-path="url(#clip16)" clip-rule="nonzero">
<path style="fill:none;stroke-width:2;stroke-linecap:butt;stroke-linejoin:miter;stroke:rgb(38.039216%,50.588235%,100%);stroke-opacity:1;stroke-miterlimit:10;" d="M 0 5 C 0 2.238281 2.238281 0 5 0 L 99 0 C 101.761719 0 104 2.238281 104 5 L 104 67 C 104 69.761719 101.761719 72 99 72 L 5 72 C 2.238281 72 0 69.761719 0 67 Z M 0 5 " transform="matrix(1,0,0,1,150,12)"/>
</g>
<path style=" stroke:none;fill-rule:nonzero;fill:rgb(38.039216%,50.588235%,100%);fill-opacity:0.490196;" d="M 150 17 C 150 14.238281 152.238281 12 155 12 L 249 12 C 251.761719 12 254 14.238281 254 17 L 254 79 C 254 81.761719 251.761719 84 249 84 L 155 84 C 152.238281 84 150 81.761719 150 79 Z M 150 17 "/>
<g clip-path="url(#clip17)" clip-rule="nonzero">
<g clip-path="url(#clip18)" clip-rule="nonzero">
<path style="fill:none;stroke-width:2;stroke-linecap:butt;stroke-linejoin:miter;stroke:rgb(38.039216%,50.588235%,100%);stroke-opacity:1;stroke-miterlimit:10;" d="M 0 5 C 0 2.238281 2.238281 0 5 0 L 99 0 C 101.761719 0 104 2.238281 104 5 L 104 67 C 104 69.761719 101.761719 72 99 72 L 5 72 C 2.238281 72 0 69.761719 0 67 Z M 0 5 " transform="matrix(1,0,0,1,150,12)"/>
</g>
</g>
<g clip-path="url(#clip19)" clip-rule="nonzero">
<path style="fill:none;stroke-width:2;stroke-linecap:butt;stroke-linejoin:miter;stroke:rgb(38.039216%,50.588235%,100%);stroke-opacity:1;stroke-miterlimit:10;" d="M 0 5 C 0 2.238281 2.238281 0 5 0 L 99 0 C 101.761719 0 104 2.238281 104 5 L 104 67 C 104 69.761719 101.761719 72 99 72 L 5 72 C 2.238281 72 0 69.761719 0 67 Z M 0 5 " transform="matrix(1,0,0,1,278,2)"/>
</g>
<path style=" stroke:none;fill-rule:nonzero;fill:rgb(38.039216%,50.588235%,100%);fill-opacity:0.490196;" d="M 278 7 C 278 4.238281 280.238281 2 283 2 L 377 2 C 379.761719 2 382 4.238281 382 7 L 382 69 C 382 71.761719 379.761719 74 377 74 L 283 74 C 280.238281 74 278 71.761719 278 69 Z M 278 7 "/>
<g clip-path="url(#clip20)" clip-rule="nonzero">
<g clip-path="url(#clip21)" clip-rule="nonzero">
<path style="fill:none;stroke-width:2;stroke-linecap:butt;stroke-linejoin:miter;stroke:rgb(38.039216%,50.588235%,100%);stroke-opacity:1;stroke-miterlimit:10;" d="M 0 5 C 0 2.238281 2.238281 0 5 0 L 99 0 C 101.761719 0 104 2.238281 104 5 L 104 67 C 104 69.761719 101.761719 72 99 72 L 5 72 C 2.238281 72 0 69.761719 0 67 Z M 0 5 " transform="matrix(1,0,0,1,278,2)"/>
</g>
</g>
<g clip-path="url(#clip22)" clip-rule="nonzero">
<path style="fill:none;stroke-width:2;stroke-linecap:butt;stroke-linejoin:miter;stroke:rgb(38.039216%,50.588235%,100%);stroke-opacity:1;stroke-miterlimit:10;" d="M 0 5 C 0 2.238281 2.238281 0 5 0 L 99 0 C 101.761719 0 104 2.238281 104 5 L 104 67 C 104 69.761719 101.761719 72 99 72 L 5 72 C 2.238281 72 0 69.761719 0 67 Z M 0 5 " transform="matrix(1,0,0,1,288,12)"/>
</g>
<path style=" stroke:none;fill-rule:nonzero;fill:rgb(38.039216%,50.588235%,100%);fill-opacity:0.490196;" d="M 288 17 C 288 14.238281 290.238281 12 293 12 L 387 12 C 389.761719 12 392 14.238281 392 17 L 392 79 C 392 81.761719 389.761719 84 387 84 L 293 84 C 290.238281 84 288 81.761719 288 79 Z M 288 17 "/>
<g clip-path="url(#clip23)" clip-rule="nonzero">
<g clip-path="url(#clip24)" clip-rule="nonzero">
<path style="fill:none;stroke-width:2;stroke-linecap:butt;stroke-linejoin:miter;stroke:rgb(38.039216%,50.588235%,100%);stroke-opacity:1;stroke-miterlimit:10;" d="M 0 5 C 0 2.238281 2.238281 0 5 0 L 99 0 C 101.761719 0 104 2.238281 104 5 L 104 67 C 104 69.761719 101.761719 72 99 72 L 5 72 C 2.238281 72 0 69.761719 0 67 Z M 0 5 " transform="matrix(1,0,0,1,288,12)"/>
</g>
</g>
<g clip-path="url(#clip25)" clip-rule="nonzero">
<path style="fill:none;stroke-width:2;stroke-linecap:butt;stroke-linejoin:miter;stroke:rgb(38.039216%,50.588235%,100%);stroke-opacity:1;stroke-miterlimit:10;" d="M 0 5 C 0 2.238281 2.238281 0 5 0 L 99 0 C 101.761719 0 104 2.238281 104 5 L 104 67 C 104 69.761719 101.761719 72 99 72 L 5 72 C 2.238281 72 0 69.761719 0 67 Z M 0 5 " transform="matrix(1,0,0,1,278,2)"/>
</g>
<path style=" stroke:none;fill-rule:nonzero;fill:rgb(38.039216%,50.588235%,100%);fill-opacity:0.490196;" d="M 278 7 C 278 4.238281 280.238281 2 283 2 L 377 2 C 379.761719 2 382 4.238281 382 7 L 382 69 C 382 71.761719 379.761719 74 377 74 L 283 74 C 280.238281 74 278 71.761719 278 69 Z M 278 7 "/>
<g clip-path="url(#clip26)" clip-rule="nonzero">
<g clip-path="url(#clip27)" clip-rule="nonzero">
<path style="fill:none;stroke-width:2;stroke-linecap:butt;stroke-linejoin:miter;stroke:rgb(38.039216%,50.588235%,100%);stroke-opacity:1;stroke-miterlimit:10;" d="M 0 5 C 0 2.238281 2.238281 0 5 0 L 99 0 C 101.761719 0 104 2.238281 104 5 L 104 67 C 104 69.761719 101.761719 72 99 72 L 5 72 C 2.238281 72 0 69.761719 0 67 Z M 0 5 " transform="matrix(1,0,0,1,278,2)"/>
</g>
</g>
<g clip-path="url(#clip28)" clip-rule="nonzero">
<path style="fill:none;stroke-width:2;stroke-linecap:butt;stroke-linejoin:miter;stroke:rgb(38.039216%,50.588235%,100%);stroke-opacity:1;stroke-miterlimit:10;" d="M 0 5 C 0 2.238281 2.238281 0 5 0 L 99 0 C 101.761719 0 104 2.238281 104 5 L 104 67 C 104 69.761719 101.761719 72 99 72 L 5 72 C 2.238281 72 0 69.761719 0 67 Z M 0 5 " transform="matrix(1,0,0,1,288,12)"/>
</g>
<path style=" stroke:none;fill-rule:nonzero;fill:rgb(38.039216%,50.588235%,100%);fill-opacity:0.490196;" d="M 288 17 C 288 14.238281 290.238281 12 293 12 L 387 12 C 389.761719 12 392 14.238281 392 17 L 392 79 C 392 81.761719 389.761719 84 387 84 L 293 84 C 290.238281 84 288 81.761719 288 79 Z M 288 17 "/>
<g clip-path="url(#clip29)" clip-rule="nonzero">
<g clip-path="url(#clip30)" clip-rule="nonzero">
<path style="fill:none;stroke-width:2;stroke-linecap:butt;stroke-linejoin:miter;stroke:rgb(38.039216%,50.588235%,100%);stroke-opacity:1;stroke-miterlimit:10;" d="M 0 5 C 0 2.238281 2.238281 0 5 0 L 99 0 C 101.761719 0 104 2.238281 104 5 L 104 67 C 104 69.761719 101.761719 72 99 72 L 5 72 C 2.238281 72 0 69.761719 0 67 Z M 0 5 " transform="matrix(1,0,0,1,288,12)"/>
</g>
</g>
<g clip-path="url(#clip31)" clip-rule="nonzero">
<path style="fill:none;stroke-width:2;stroke-linecap:butt;stroke-linejoin:miter;stroke:rgb(38.039216%,50.588235%,100%);stroke-opacity:1;stroke-miterlimit:10;" d="M 0 5 C 0 2.238281 2.238281 0 5 0 L 99 0 C 101.761719 0 104 2.238281 104 5 L 104 67 C 104 69.761719 101.761719 72 99 72 L 5 72 C 2.238281 72 0 69.761719 0 67 Z M 0 5 " transform="matrix(1,0,0,1,278,2)"/>
</g>
<path style=" stroke:none;fill-rule:nonzero;fill:rgb(38.039216%,50.588235%,100%);fill-opacity:0.490196;" d="M 278 7 C 278 4.238281 280.238281 2 283 2 L 377 2 C 379.761719 2 382 4.238281 382 7 L 382 69 C 382 71.761719 379.761719 74 377 74 L 283 74 C 280.238281 74 278 71.761719 278 69 Z M 278 7 "/>
<g clip-path="url(#clip32)" clip-rule="nonzero">
<g clip-path="url(#clip33)" clip-rule="nonzero">
<path style="fill:none;stroke-width:2;stroke-linecap:butt;stroke-linejoin:miter;stroke:rgb(38.039216%,50.588235%,100%);stroke-opacity:1;stroke-miterlimit:10;" d="M 0 5 C 0 2.238281 2.238281 0 5 0 L 99 0 C 101.761719 0 104 2.238281 104 5 L 104 67 C 104 69.761719 101.761719 72 99 72 L 5 72 C 2.238281 72 0 69.761719 0 67 Z M 0 5 " transform="matrix(1,0,0,1,278,2)"/>
</g>
</g>
<g clip-path="url(#clip34)" clip-rule="nonzero">
<path style="fill:none;stroke-width:2;stroke-linecap:butt;stroke-linejoin:miter;stroke:rgb(38.039216%,50.588235%,100%);stroke-opacity:1;stroke-miterlimit:10;" d="M 0 5 C 0 2.238281 2.238281 0 5 0 L 99 0 C 101.761719 0 104 2.238281 104 5 L 104 67 C 104 69.761719 101.761719 72 99 72 L 5 72 C 2.238281 72 0 69.761719 0 67 Z M 0 5 " transform="matrix(1,0,0,1,288,12)"/>
</g>
<path style=" stroke:none;fill-rule:nonzero;fill:rgb(38.039216%,50.588235%,100%);fill-opacity:0.490196;" d="M 288 17 C 288 14.238281 290.238281 12 293 12 L 387 12 C 389.761719 12 392 14.238281 392 17 L 392 79 C 392 81.761719 389.761719 84 387 84 L 293 84 C 290.238281 84 288 81.761719 288 79 Z M 288 17 "/>
<g clip-path="url(#clip35)" clip-rule="nonzero">
<g clip-path="url(#clip36)" clip-rule="nonzero">
<path style="fill:none;stroke-width:2;stroke-linecap:butt;stroke-linejoin:miter;stroke:rgb(38.039216%,50.588235%,100%);stroke-opacity:1;stroke-miterlimit:10;" d="M 0 5 C 0 2.238281 2.238281 0 5 0 L 99 0 C 101.761719 0 104 2.238281 104 5 L 104 67 C 104 69.761719 101.761719 72 99 72 L 5 72 C 2.238281 72 0 69.761719 0 67 Z M 0 5 " transform="matrix(1,0,0,1,288,12)"/>
</g>
</g>
<g clip-path="url(#clip37)" clip-rule="nonzero">
<path style="fill:none;stroke-width:2;stroke-linecap:butt;stroke-linejoin:miter;stroke:rgb(38.039216%,50.588235%,100%);stroke-opacity:1;stroke-miterlimit:10;" d="M 0 5 C 0 2.238281 2.238281 0 5 0 L 99 0 C 101.761719 0 104 2.238281 104 5 L 104 67 C 104 69.761719 101.761719 72 99 72 L 5 72 C 2.238281 72 0 69.761719 0 67 Z M 0 5 " transform="matrix(1,0,0,1,416,2)"/>
</g>
<path style=" stroke:none;fill-rule:nonzero;fill:rgb(38.039216%,50.588235%,100%);fill-opacity:0.490196;" d="M 416 7 C 416 4.238281 418.238281 2 421 2 L 515 2 C 517.761719 2 520 4.238281 520 7 L 520 69 C 520 71.761719 517.761719 74 515 74 L 421 74 C 418.238281 74 416 71.761719 416 69 Z M 416 7 "/>
<g clip-path="url(#clip38)" clip-rule="nonzero">
<g clip-path="url(#clip39)" clip-rule="nonzero">
<path style="fill:none;stroke-width:2;stroke-linecap:butt;stroke-linejoin:miter;stroke:rgb(38.039216%,50.588235%,100%);stroke-opacity:1;stroke-miterlimit:10;" d="M 0 5 C 0 2.238281 2.238281 0 5 0 L 99 0 C 101.761719 0 104 2.238281 104 5 L 104 67 C 104 69.761719 101.761719 72 99 72 L 5 72 C 2.238281 72 0 69.761719 0 67 Z M 0 5 " transform="matrix(1,0,0,1,416,2)"/>
</g>
</g>
<g clip-path="url(#clip40)" clip-rule="nonzero">
<path style="fill:none;stroke-width:2;stroke-linecap:butt;stroke-linejoin:miter;stroke:rgb(38.039216%,50.588235%,100%);stroke-opacity:1;stroke-miterlimit:10;" d="M 0 5 C 0 2.238281 2.238281 0 5 0 L 99 0 C 101.761719 0 104 2.238281 104 5 L 104 67 C 104 69.761719 101.761719 72 99 72 L 5 72 C 2.238281 72 0 69.761719 0 67 Z M 0 5 " transform="matrix(1,0,0,1,426,12)"/>
</g>
<path style=" stroke:none;fill-rule:nonzero;fill:rgb(38.039216%,50.588235%,100%);fill-opacity:0.490196;" d="M 426 17 C 426 14.238281 428.238281 12 431 12 L 525 12 C 527.761719 12 530 14.238281 530 17 L 530 79 C 530 81.761719 527.761719 84 525 84 L 431 84 C 428.238281 84 426 81.761719 426 79 Z M 426 17 "/>
<g clip-path="url(#clip41)" clip-rule="nonzero">
<g clip-path="url(#clip42)" clip-rule="nonzero">
<path style="fill:none;stroke-width:2;stroke-linecap:butt;stroke-linejoin:miter;stroke:rgb(38.039216%,50.588235%,100%);stroke-opacity:1;stroke-miterlimit:10;" d="M 0 5 C 0 2.238281 2.238281 0 5 0 L 99 0 C 101.761719 0 104 2.238281 104 5 L 104 67 C 104 69.761719 101.761719 72 99 72 L 5 72 C 2.238281 72 0 69.761719 0 67 Z M 0 5 " transform="matrix(1,0,0,1,426,12)"/>
</g>
</g>
<g clip-path="url(#clip43)" clip-rule="nonzero">
<path style="fill:none;stroke-width:2;stroke-linecap:butt;stroke-linejoin:miter;stroke:rgb(38.039216%,50.588235%,100%);stroke-opacity:1;stroke-miterlimit:10;" d="M 0 5 C 0 2.238281 2.238281 0 5 0 L 99 0 C 101.761719 0 104 2.238281 104 5 L 104 67 C 104 69.761719 101.761719 72 99 72 L 5 72 C 2.238281 72 0 69.761719 0 67 Z M 0 5 " transform="matrix(1,0,0,1,416,2)"/>
</g>
<path style=" stroke:none;fill-rule:nonzero;fill:rgb(38.039216%,50.588235%,100%);fill-opacity:0.490196;" d="M 416 7 C 416 4.238281 418.238281 2 421 2 L 515 2 C 517.761719 2 520 4.238281 520 7 L 520 69 C 520 71.761719 517.761719 74 515 74 L 421 74 C 418.238281 74 416 71.761719 416 69 Z M 416 7 "/>
<g clip-path="url(#clip44)" clip-rule="nonzero">
<g clip-path="url(#clip45)" clip-rule="nonzero">
<path style="fill:none;stroke-width:2;stroke-linecap:butt;stroke-linejoin:miter;stroke:rgb(38.039216%,50.588235%,100%);stroke-opacity:1;stroke-miterlimit:10;" d="M 0 5 C 0 2.238281 2.238281 0 5 0 L 99 0 C 101.761719 0 104 2.238281 104 5 L 104 67 C 104 69.761719 101.761719 72 99 72 L 5 72 C 2.238281 72 0 69.761719 0 67 Z M 0 5 " transform="matrix(1,0,0,1,416,2)"/>
</g>
</g>
<g clip-path="url(#clip46)" clip-rule="nonzero">
<path style="fill:none;stroke-width:2;stroke-linecap:butt;stroke-linejoin:miter;stroke:rgb(38.039216%,50.588235%,100%);stroke-opacity:1;stroke-miterlimit:10;" d="M 0 5 C 0 2.238281 2.238281 0 5 0 L 99 0 C 101.761719 0 104 2.238281 104 5 L 104 67 C 104 69.761719 101.761719 72 99 72 L 5 72 C 2.238281 72 0 69.761719 0 67 Z M 0 5 " transform="matrix(1,0,0,1,426,12)"/>
</g>
<path style=" stroke:none;fill-rule:nonzero;fill:rgb(38.039216%,50.588235%,100%);fill-opacity:0.490196;" d="M 426 17 C 426 14.238281 428.238281 12 431 12 L 525 12 C 527.761719 12 530 14.238281 530 17 L 530 79 C 530 81.761719 527.761719 84 525 84 L 431 84 C 428.238281 84 426 81.761719 426 79 Z M 426 17 "/>
<g clip-path="url(#clip47)" clip-rule="nonzero">
<g clip-path="url(#clip48)" clip-rule="nonzero">
<path style="fill:none;stroke-width:2;stroke-linecap:butt;stroke-linejoin:miter;stroke:rgb(38.039216%,50.588235%,100%);stroke-opacity:1;stroke-miterlimit:10;" d="M 0 5 C 0 2.238281 2.238281 0 5 0 L 99 0 C 101.761719 0 104 2.238281 104 5 L 104 67 C 104 69.761719 101.761719 72 99 72 L 5 72 C 2.238281 72 0 69.761719 0 67 Z M 0 5 " transform="matrix(1,0,0,1,426,12)"/>
</g>
</g>
<g clip-path="url(#clip49)" clip-rule="nonzero">
<path style="fill:none;stroke-width:2;stroke-linecap:butt;stroke-linejoin:miter;stroke:rgb(38.039216%,50.588235%,100%);stroke-opacity:1;stroke-miterlimit:10;" d="M 0 5 C 0 2.238281 2.238281 0 5 0 L 99 0 C 101.761719 0 104 2.238281 104 5 L 104 67 C 104 69.761719 101.761719 72 99 72 L 5 72 C 2.238281 72 0 69.761719 0 67 Z M 0 5 " transform="matrix(1,0,0,1,416,2)"/>
</g>
<path style=" stroke:none;fill-rule:nonzero;fill:rgb(38.039216%,50.588235%,100%);fill-opacity:0.490196;" d="M 416 7 C 416 4.238281 418.238281 2 421 2 L 515 2 C 517.761719 2 520 4.238281 520 7 L 520 69 C 520 71.761719 517.761719 74 515 74 L 421 74 C 418.238281 74 416 71.761719 416 69 Z M 416 7 "/>
<g clip-path="url(#clip50)" clip-rule="nonzero">
<g clip-path="url(#clip51)" clip-rule="nonzero">
<path style="fill:none;stroke-width:2;stroke-linecap:butt;stroke-linejoin:miter;stroke:rgb(38.039216%,50.588235%,100%);stroke-opacity:1;stroke-miterlimit:10;" d="M 0 5 C 0 2.238281 2.238281 0 5 0 L 99 0 C 101.761719 0 104 2.238281 104 5 L 104 67 C 104 69.761719 101.761719 72 99 72 L 5 72 C 2.238281 72 0 69.761719 0 67 Z M 0 5 " transform="matrix(1,0,0,1,416,2)"/>
</g>
</g>
<g clip-path="url(#clip52)" clip-rule="nonzero">
<path style="fill:none;stroke-width:2;stroke-linecap:butt;stroke-linejoin:miter;stroke:rgb(38.039216%,50.588235%,100%);stroke-opacity:1;stroke-miterlimit:10;" d="M 0 5 C 0 2.238281 2.238281 0 5 0 L 99 0 C 101.761719 0 104 2.238281 104 5 L 104 67 C 104 69.761719 101.761719 72 99 72 L 5 72 C 2.238281 72 0 69.761719 0 67 Z M 0 5 " transform="matrix(1,0,0,1,426,12)"/>
</g>
<path style=" stroke:none;fill-rule:nonzero;fill:rgb(38.039216%,50.588235%,100%);fill-opacity:0.490196;" d="M 426 17 C 426 14.238281 428.238281 12 431 12 L 525 12 C 527.761719 12 530 14.238281 530 17 L 530 79 C 530 81.761719 527.761719 84 525 84 L 431 84 C 428.238281 84 426 81.761719 426 79 Z M 426 17 "/>
<g clip-path="url(#clip53)" clip-rule="nonzero">
<g clip-path="url(#clip54)" clip-rule="nonzero">
<path style="fill:none;stroke-width:2;stroke-linecap:butt;stroke-linejoin:miter;stroke:rgb(38.039216%,50.588235%,100%);stroke-opacity:1;stroke-miterlimit:10;" d="M 0 5 C 0 2.238281 2.238281 0 5 0 L 99 0 C 101.761719 0 104 2.238281 104 5 L 104 67 C 104 69.761719 101.761719 72 99 72 L 5 72 C 2.238281 72 0 69.761719 0 67 Z M 0 5 " transform="matrix(1,0,0,1,426,12)"/>
</g>
</g>
<g clip-path="url(#clip55)" clip-rule="nonzero">
<path style="fill:none;stroke-width:2;stroke-linecap:butt;stroke-linejoin:miter;stroke:rgb(38.039216%,50.588235%,100%);stroke-opacity:1;stroke-miterlimit:10;" d="M 0 5 C 0 2.238281 2.238281 0 5 0 L 99 0 C 101.761719 0 104 2.238281 104 5 L 104 67 C 104 69.761719 101.761719 72 99 72 L 5 72 C 2.238281 72 0 69.761719 0 67 Z M 0 5 " transform="matrix(1,0,0,1,416,2)"/>
</g>
<path style=" stroke:none;fill-rule:nonzero;fill:rgb(38.039216%,50.588235%,100%);fill-opacity:0.490196;" d="M 416 7 C 416 4.238281 418.238281 2 421 2 L 515 2 C 517.761719 2 520 4.238281 520 7 L 520 69 C 520 71.761719 517.761719 74 515 74 L 421 74 C 418.238281 74 416 71.761719 416 69 Z M 416 7 "/>
<g clip-path="url(#clip56)" clip-rule="nonzero">
<g clip-path="url(#clip57)" clip-rule="nonzero">
<path style="fill:none;stroke-width:2;stroke-linecap:butt;stroke-linejoin:miter;stroke:rgb(38.039216%,50.588235%,100%);stroke-opacity:1;stroke-miterlimit:10;" d="M 0 5 C 0 2.238281 2.238281 0 5 0 L 99 0 C 101.761719 0 104 2.238281 104 5 L 104 67 C 104 69.761719 101.761719 72 99 72 L 5 72 C 2.238281 72 0 69.761719 0 67 Z M 0 5 " transform="matrix(1,0,0,1,416,2)"/>
</g>
</g>
<g clip-path="url(#clip58)" clip-rule="nonzero">
<path style="fill:none;stroke-width:2;stroke-linecap:butt;stroke-linejoin:miter;stroke:rgb(38.039216%,50.588235%,100%);stroke-opacity:1;stroke-miterlimit:10;" d="M 0 5 C 0 2.238281 2.238281 0 5 0 L 99 0 C 101.761719 0 104 2.238281 104 5 L 104 67 C 104 69.761719 101.761719 72 99 72 L 5 72 C 2.238281 72 0 69.761719 0 67 Z M 0 5 " transform="matrix(1,0,0,1,426,12)"/>
</g>
<path style=" stroke:none;fill-rule:nonzero;fill:rgb(38.039216%,50.588235%,100%);fill-opacity:0.490196;" d="M 426 17 C 426 14.238281 428.238281 12 431 12 L 525 12 C 527.761719 12 530 14.238281 530 17 L 530 79 C 530 81.761719 527.761719 84 525 84 L 431 84 C 428.238281 84 426 81.761719 426 79 Z M 426 17 "/>
<g clip-path="url(#clip59)" clip-rule="nonzero">
<g clip-path="url(#clip60)" clip-rule="nonzero">
<path style="fill:none;stroke-width:2;stroke-linecap:butt;stroke-linejoin:miter;stroke:rgb(38.039216%,50.588235%,100%);stroke-opacity:1;stroke-miterlimit:10;" d="M 0 5 C 0 2.238281 2.238281 0 5 0 L 99 0 C 101.761719 0 104 2.238281 104 5 L 104 67 C 104 69.761719 101.761719 72 99 72 L 5 72 C 2.238281 72 0 69.761719 0 67 Z M 0 5 " transform="matrix(1,0,0,1,426,12)"/>
</g>
</g>
</g>
</svg>
