<?xml version="1.0" encoding="UTF-8"?>
<svg xmlns="http://www.w3.org/2000/svg" xmlns:xlink="http://www.w3.org/1999/xlink" width="360pt" height="48pt" viewBox="0 0 360 48" version="1.1">
<defs>
<clipPath id="clip1">
  <path d="M 32 3 L 64 3 L 64 20 L 32 20 Z M 32 3 "/>
</clipPath>
<clipPath id="clip2">
  <path d="M 106 3 L 138 3 L 138 20 L 106 20 Z M 106 3 "/>
</clipPath>
<clipPath id="clip3">
  <path d="M 180 3 L 212 3 L 212 20 L 180 20 Z M 180 3 "/>
</clipPath>
<clipPath id="clip4">
  <path d="M 181.5 4.5 L 210.5 4.5 L 210.5 18.5 L 181.5 18.5 Z M 181.5 4.5 "/>
</clipPath>
<clipPath id="clip5">
  <path d="M 254 3 L 286 3 L 286 20 L 254 20 Z M 254 3 "/>
</clipPath>
<clipPath id="clip6">
  <path d="M 255.5 4.5 L 269.5 4.5 L 269.5 18.5 L 255.5 18.5 Z M 255.5 4.5 "/>
</clipPath>
<clipPath id="clip7">
  <path d="M 270.5 4.5 L 284.5 4.5 L 284.5 18.5 L 270.5 18.5 Z M 270.5 4.5 "/>
</clipPath>
<clipPath id="clip8">
  <path d="M 328 3 L 360 3 L 360 20 L 328 20 Z M 328 3 "/>
</clipPath>
<clipPath id="clip9">
  <path d="M 329.5 4.5 L 338.5 4.5 L 338.5 18.5 L 329.5 18.5 Z M 329.5 4.5 "/>
</clipPath>
<clipPath id="clip10">
  <path d="M 339.5 4.5 L 348.5 4.5 L 348.5 18.5 L 339.5 18.5 Z M 339.5 4.5 "/>
</clipPath>
<clipPath id="clip11">
  <path d="M 348.5 4.5 L 357.5 4.5 L 357.5 18.5 L 348.5 18.5 Z M 348.5 4.5 "/>
</clipPath>
<clipPath id="clip12">
  <path d="M 4 4 L 31 4 L 31 44 L 4 44 Z M 4 4 "/>
</clipPath>
<clipPath id="clip13">
  <path d="M 4 6 C 4 4.894531 4.894531 4 6 4 L 29 4 C 30.105469 4 31 4.894531 31 6 L 31 42 C 31 43.105469 30.105469 44 29 44 L 6 44 C 4.894531 44 4 43.105469 4 42 Z M 4 6 "/>
</clipPath>
<clipPath id="clip14">
  <path d="M 78 4 L 105 4 L 105 23 L 78 23 Z M 78 4 "/>
</clipPath>
<clipPath id="clip15">
  <path d="M 78 6 C 78 4.894531 78.894531 4 80 4 L 103 4 C 104.105469 4 105 4.894531 105 6 L 105 21 C 105 22.105469 104.105469 23 103 23 L 80 23 C 78.894531 23 78 22.105469 78 21 Z M 78 6 "/>
</clipPath>
<clipPath id="clip16">
  <path d="M 78 25 L 105 25 L 105 44 L 78 44 Z M 78 25 "/>
</clipPath>
<clipPath id="clip17">
  <path d="M 78 27 C 78 25.894531 78.894531 25 80 25 L 103 25 C 104.105469 25 105 25.894531 105 27 L 105 42 C 105 43.105469 104.105469 44 103 44 L 80 44 C 78.894531 44 78 43.105469 78 42 Z M 78 27 "/>
</clipPath>
<clipPath id="clip18">
  <path d="M 152 4 L 179 4 L 179 23 L 152 23 Z M 152 4 "/>
</clipPath>
<clipPath id="clip19">
  <path d="M 152 6 C 152 4.894531 152.894531 4 154 4 L 177 4 C 178.105469 4 179 4.894531 179 6 L 179 21 C 179 22.105469 178.105469 23 177 23 L 154 23 C 152.894531 23 152 22.105469 152 21 Z M 152 6 "/>
</clipPath>
<clipPath id="clip20">
  <path d="M 152 25 L 179 25 L 179 44 L 152 44 Z M 152 25 "/>
</clipPath>
<clipPath id="clip21">
  <path d="M 152 27 C 152 25.894531 152.894531 25 154 25 L 177 25 C 178.105469 25 179 25.894531 179 27 L 179 42 C 179 43.105469 178.105469 44 177 44 L 154 44 C 152.894531 44 152 43.105469 152 42 Z M 152 27 "/>
</clipPath>
<clipPath id="clip22">
  <path d="M 181 18 L 208 18 L 208 44 L 181 44 Z M 181 18 "/>
</clipPath>
<clipPath id="clip23">
  <path d="M 181 20 C 181 18.894531 181.894531 18 183 18 L 206 18 C 207.105469 18 208 18.894531 208 20 L 208 42 C 208 43.105469 207.105469 44 206 44 L 183 44 C 181.894531 44 181 43.105469 181 42 Z M 181 20 "/>
</clipPath>
<clipPath id="clip24">
  <path d="M 226 4 L 253 4 L 253 23 L 226 23 Z M 226 4 "/>
</clipPath>
<clipPath id="clip25">
  <path d="M 226 6 C 226 4.894531 226.894531 4 228 4 L 251 4 C 252.105469 4 253 4.894531 253 6 L 253 21 C 253 22.105469 252.105469 23 251 23 L 228 23 C 226.894531 23 226 22.105469 226 21 Z M 226 6 "/>
</clipPath>
<clipPath id="clip26">
  <path d="M 226 25 L 253 25 L 253 44 L 226 44 Z M 226 25 "/>
</clipPath>
<clipPath id="clip27">
  <path d="M 226 27 C 226 25.894531 226.894531 25 228 25 L 251 25 C 252.105469 25 253 25.894531 253 27 L 253 42 C 253 43.105469 252.105469 44 251 44 L 228 44 C 226.894531 44 226 43.105469 226 42 Z M 226 27 "/>
</clipPath>
<clipPath id="clip28">
  <path d="M 255 18 L 282 18 L 282 44 L 255 44 Z M 255 18 "/>
</clipPath>
<clipPath id="clip29">
  <path d="M 255 20 C 255 18.894531 255.894531 18 257 18 L 280 18 C 281.105469 18 282 18.894531 282 20 L 282 42 C 282 43.105469 281.105469 44 280 44 L 257 44 C 255.894531 44 255 43.105469 255 42 Z M 255 20 "/>
</clipPath>
<clipPath id="clip30">
  <path d="M 300 4 L 327 4 L 327 23 L 300 23 Z M 300 4 "/>
</clipPath>
<clipPath id="clip31">
  <path d="M 300 6 C 300 4.894531 300.894531 4 302 4 L 325 4 C 326.105469 4 327 4.894531 327 6 L 327 21 C 327 22.105469 326.105469 23 325 23 L 302 23 C 300.894531 23 300 22.105469 300 21 Z M 300 6 "/>
</clipPath>
<clipPath id="clip32">
  <path d="M 300 25 L 327 25 L 327 44 L 300 44 Z M 300 25 "/>
</clipPath>
<clipPath id="clip33">
  <path d="M 300 27 C 300 25.894531 300.894531 25 302 25 L 325 25 C 326.105469 25 327 25.894531 327 27 L 327 42 C 327 43.105469 326.105469 44 325 44 L 302 44 C 300.894531 44 300 43.105469 300 42 Z M 300 27 "/>
</clipPath>
<clipPath id="clip34">
  <path d="M 329 18 L 356 18 L 356 44 L 329 44 Z M 329 18 "/>
</clipPath>
<clipPath id="clip35">
  <path d="M 329 20 C 329 18.894531 329.894531 18 331 18 L 354 18 C 355.105469 18 356 18.894531 356 20 L 356 42 C 356 43.105469 355.105469 44 354 44 L 331 44 C 329.894531 44 329 43.105469 329 42 Z M 329 20 "/>
</clipPath>
</defs>
<g id="surface8">
<path style="fill:none;stroke-width:1.5;stroke-linecap:butt;stroke-linejoin:miter;stroke:rgb(0%,0%,0%);stroke-opacity:0.266667;stroke-dasharray:10,4;stroke-dashoffset:1;stroke-miterlimit:10;" d="M 0.75 0.75 L 63.25 0.75 L 63.25 47.25 L 0.75 47.25 Z M 0.75 0.75 "/>
<path style="fill:none;stroke-width:1.5;stroke-linecap:butt;stroke-linejoin:miter;stroke:rgb(0%,0%,0%);stroke-opacity:0.2;stroke-dasharray:10,4;stroke-dashoffset:1;stroke-miterlimit:10;" d="M 3 3 L 61 3 L 61 45 L 3 45 Z M 3 3 "/>
<path style="fill:none;stroke-width:1.5;stroke-linecap:butt;stroke-linejoin:miter;stroke:rgb(0%,0%,0%);stroke-opacity:0.266667;stroke-dasharray:10,4;stroke-dashoffset:1;stroke-miterlimit:10;" d="M 74.75 0.75 L 137.25 0.75 L 137.25 47.25 L 74.75 47.25 Z M 74.75 0.75 "/>
<path style="fill:none;stroke-width:1.5;stroke-linecap:butt;stroke-linejoin:miter;stroke:rgb(0%,0%,0%);stroke-opacity:0.2;stroke-dasharray:10,4;stroke-dashoffset:1;stroke-miterlimit:10;" d="M 77 3 L 135 3 L 135 45 L 77 45 Z M 77 3 "/>
<path style="fill:none;stroke-width:1.5;stroke-linecap:butt;stroke-linejoin:miter;stroke:rgb(0%,0%,0%);stroke-opacity:0.266667;stroke-dasharray:10,4;stroke-dashoffset:1;stroke-miterlimit:10;" d="M 148.75 0.75 L 211.25 0.75 L 211.25 47.25 L 148.75 47.25 Z M 148.75 0.75 "/>
<path style="fill:none;stroke-width:1.5;stroke-linecap:butt;stroke-linejoin:miter;stroke:rgb(0%,0%,0%);stroke-opacity:0.2;stroke-dasharray:10,4;stroke-dashoffset:1;stroke-miterlimit:10;" d="M 151 3 L 209 3 L 209 45 L 151 45 Z M 151 3 "/>
<path style="fill:none;stroke-width:1.5;stroke-linecap:butt;stroke-linejoin:miter;stroke:rgb(0%,0%,0%);stroke-opacity:0.266667;stroke-dasharray:10,4;stroke-dashoffset:1;stroke-miterlimit:10;" d="M 222.75 0.75 L 285.25 0.75 L 285.25 47.25 L 222.75 47.25 Z M 222.75 0.75 "/>
<path style="fill:none;stroke-width:1.5;stroke-linecap:butt;stroke-linejoin:miter;stroke:rgb(0%,0%,0%);stroke-opacity:0.2;stroke-dasharray:10,4;stroke-dashoffset:1;stroke-miterlimit:10;" d="M 225 3 L 283 3 L 283 45 L 225 45 Z M 225 3 "/>
<path style="fill:none;stroke-width:1.5;stroke-linecap:butt;stroke-linejoin:miter;stroke:rgb(0%,0%,0%);stroke-opacity:0.266667;stroke-dasharray:10,4;stroke-dashoffset:1;stroke-miterlimit:10;" d="M 296.75 0.75 L 359.25 0.75 L 359.25 47.25 L 296.75 47.25 Z M 296.75 0.75 "/>
<path style="fill:none;stroke-width:1.5;stroke-linecap:butt;stroke-linejoin:miter;stroke:rgb(0%,0%,0%);stroke-opacity:0.2;stroke-dasharray:10,4;stroke-dashoffset:1;stroke-miterlimit:10;" d="M 299 3 L 357 3 L 357 45 L 299 45 Z M 299 3 "/>
<g clip-path="url(#clip1)" clip-rule="nonzero">
<rect x="0" y="0" width="360" height="48" style="fill:rgb(38.039216%,50.588235%,100%);fill-opacity:0.490196;stroke:none;"/>
</g>
<g clip-path="url(#clip2)" clip-rule="nonzero">
<rect x="0" y="0" width="360" height="48" style="fill:rgb(38.039216%,50.588235%,100%);fill-opacity:0.490196;stroke:none;"/>
</g>
<g clip-path="url(#clip3)" clip-rule="nonzero">
<rect x="0" y="0" width="360" height="48" style="fill:rgb(38.039216%,50.588235%,100%);fill-opacity:0.490196;stroke:none;"/>
</g>
<g clip-path="url(#clip4)" clip-rule="nonzero">
<rect x="0" y="0" width="360" height="48" style="fill:rgb(66.666667%,0%,100%);fill-opacity:0.490196;stroke:none;"/>
</g>
<g clip-path="url(#clip5)" clip-rule="nonzero">
<rect x="0" y="0" width="360" height="48" style="fill:rgb(38.039216%,50.588235%,100%);fill-opacity:0.490196;stroke:none;"/>
</g>
<g clip-path="url(#clip6)" clip-rule="nonzero">
<rect x="0" y="0" width="360" height="48" style="fill:rgb(38.039216%,50.588235%,100%);fill-opacity:0.490196;stroke:none;"/>
</g>
<g clip-path="url(#clip7)" clip-rule="nonzero">
<rect x="0" y="0" width="360" height="48" style="fill:rgb(66.666667%,0%,100%);fill-opacity:0.490196;stroke:none;"/>
</g>
<g clip-path="url(#clip8)" clip-rule="nonzero">
<rect x="0" y="0" width="360" height="48" style="fill:rgb(38.039216%,50.588235%,100%);fill-opacity:0.490196;stroke:none;"/>
</g>
<g clip-path="url(#clip9)" clip-rule="nonzero">
<rect x="0" y="0" width="360" height="48" style="fill:rgb(38.039216%,50.588235%,100%);fill-opacity:0.490196;stroke:none;"/>
</g>
<g clip-path="url(#clip10)" clip-rule="nonzero">
<rect x="0" y="0" width="360" height="48" style="fill:rgb(38.039216%,50.588235%,100%);fill-opacity:0.490196;stroke:none;"/>
</g>
<g clip-path="url(#clip11)" clip-rule="nonzero">
<rect x="0" y="0" width="360" height="48" style="fill:rgb(66.666667%,0%,100%);fill-opacity:0.490196;stroke:none;"/>
</g>
<g clip-path="url(#clip12)" clip-rule="nonzero">
<g clip-path="url(#clip13)" clip-rule="nonzero">
<rect x="0" y="0" width="360" height="48" style="fill:rgb(38.039216%,50.588235%,100%);fill-opacity:0.490196;stroke:none;"/>
<path style="fill:none;stroke-width:2;stroke-linecap:butt;stroke-linejoin:miter;stroke:rgb(38.039216%,50.588235%,100%);stroke-opacity:1;stroke-miterlimit:10;" d="M 1 3 C 1 1.894531 1.894531 1 3 1 L 26 1 C 27.105469 1 28 1.894531 28 3 L 28 39 C 28 40.105469 27.105469 41 26 41 L 3 41 C 1.894531 41 1 40.105469 1 39 Z M 1 3 " transform="matrix(1,0,0,1,3,3)"/>
</g>
</g>
<g clip-path="url(#clip14)" clip-rule="nonzero">
<g clip-path="url(#clip15)" clip-rule="nonzero">
<rect x="0" y="0" width="360" height="48" style="fill:rgb(38.039216%,50.588235%,100%);fill-opacity:0.490196;stroke:none;"/>
<path style="fill:none;stroke-width:2;stroke-linecap:butt;stroke-linejoin:miter;stroke:rgb(38.039216%,50.588235%,100%);stroke-opacity:1;stroke-miterlimit:10;" d="M 1 3 C 1 1.894531 1.894531 1 3 1 L 26 1 C 27.105469 1 28 1.894531 28 3 L 28 18 C 28 19.105469 27.105469 20 26 20 L 3 20 C 1.894531 20 1 19.105469 1 18 Z M 1 3 " transform="matrix(1,0,0,1,77,3)"/>
</g>
</g>
<g clip-path="url(#clip16)" clip-rule="nonzero">
<g clip-path="url(#clip17)" clip-rule="nonzero">
<rect x="0" y="0" width="360" height="48" style="fill:rgb(38.039216%,50.588235%,100%);fill-opacity:0.490196;stroke:none;"/>
<path style="fill:none;stroke-width:2;stroke-linecap:butt;stroke-linejoin:miter;stroke:rgb(38.039216%,50.588235%,100%);stroke-opacity:1;stroke-miterlimit:10;" d="M 1 3 C 1 1.894531 1.894531 1 3 1 L 26 1 C 27.105469 1 28 1.894531 28 3 L 28 18 C 28 19.105469 27.105469 20 26 20 L 3 20 C 1.894531 20 1 19.105469 1 18 Z M 1 3 " transform="matrix(1,0,0,1,77,24)"/>
</g>
</g>
<g clip-path="url(#clip18)" clip-rule="nonzero">
<g clip-path="url(#clip19)" clip-rule="nonzero">
<rect x="0" y="0" width="360" height="48" style="fill:rgb(38.039216%,50.588235%,100%);fill-opacity:0.490196;stroke:none;"/>
<path style="fill:none;stroke-width:2;stroke-linecap:butt;stroke-linejoin:miter;stroke:rgb(38.039216%,50.588235%,100%);stroke-opacity:1;stroke-miterlimit:10;" d="M 1 3 C 1 1.894531 1.894531 1 3 1 L 26 1 C 27.105469 1 28 1.894531 28 3 L 28 18 C 28 19.105469 27.105469 20 26 20 L 3 20 C 1.894531 20 1 19.105469 1 18 Z M 1 3 " transform="matrix(1,0,0,1,151,3)"/>
</g>
</g>
<g clip-path="url(#clip20)" clip-rule="nonzero">
<g clip-path="url(#clip21)" clip-rule="nonzero">
<rect x="0" y="0" width="360" height="48" style="fill:rgb(38.039216%,50.588235%,100%);fill-opacity:0.490196;stroke:none;"/>
<path style="fill:none;stroke-width:2;stroke-linecap:butt;stroke-linejoin:miter;stroke:rgb(38.039216%,50.588235%,100%);stroke-opacity:1;stroke-miterlimit:10;" d="M 1 3 C 1 1.894531 1.894531 1 3 1 L 26 1 C 27.105469 1 28 1.894531 28 3 L 28 18 C 28 19.105469 27.105469 20 26 20 L 3 20 C 1.894531 20 1 19.105469 1 18 Z M 1 3 " transform="matrix(1,0,0,1,151,24)"/>
</g>
</g>
<g clip-path="url(#clip22)" clip-rule="nonzero">
<g clip-path="url(#clip23)" clip-rule="nonzero">
<rect x="0" y="0" width="360" height="48" style="fill:rgb(38.039216%,50.588235%,100%);fill-opacity:0.490196;stroke:none;"/>
<path style="fill:none;stroke-width:2;stroke-linecap:butt;stroke-linejoin:miter;stroke:rgb(38.039216%,50.588235%,100%);stroke-opacity:1;stroke-miterlimit:10;" d="M 1 3 C 1 1.894531 1.894531 1 3 1 L 26 1 C 27.105469 1 28 1.894531 28 3 L 28 25 C 28 26.105469 27.105469 27 26 27 L 3 27 C 1.894531 27 1 26.105469 1 25 Z M 1 3 " transform="matrix(1,0,0,1,180,17)"/>
</g>
</g>
<g clip-path="url(#clip24)" clip-rule="nonzero">
<g clip-path="url(#clip25)" clip-rule="nonzero">
<rect x="0" y="0" width="360" height="48" style="fill:rgb(38.039216%,50.588235%,100%);fill-opacity:0.490196;stroke:none;"/>
<path style="fill:none;stroke-width:2;stroke-linecap:butt;stroke-linejoin:miter;stroke:rgb(38.039216%,50.588235%,100%);stroke-opacity:1;stroke-miterlimit:10;" d="M 1 3 C 1 1.894531 1.894531 1 3 1 L 26 1 C 27.105469 1 28 1.894531 28 3 L 28 18 C 28 19.105469 27.105469 20 26 20 L 3 20 C 1.894531 20 1 19.105469 1 18 Z M 1 3 " transform="matrix(1,0,0,1,225,3)"/>
</g>
</g>
<g clip-path="url(#clip26)" clip-rule="nonzero">
<g clip-path="url(#clip27)" clip-rule="nonzero">
<rect x="0" y="0" width="360" height="48" style="fill:rgb(38.039216%,50.588235%,100%);fill-opacity:0.490196;stroke:none;"/>
<path style="fill:none;stroke-width:2;stroke-linecap:butt;stroke-linejoin:miter;stroke:rgb(38.039216%,50.588235%,100%);stroke-opacity:1;stroke-miterlimit:10;" d="M 1 3 C 1 1.894531 1.894531 1 3 1 L 26 1 C 27.105469 1 28 1.894531 28 3 L 28 18 C 28 19.105469 27.105469 20 26 20 L 3 20 C 1.894531 20 1 19.105469 1 18 Z M 1 3 " transform="matrix(1,0,0,1,225,24)"/>
</g>
</g>
<g clip-path="url(#clip28)" clip-rule="nonzero">
<g clip-path="url(#clip29)" clip-rule="nonzero">
<rect x="0" y="0" width="360" height="48" style="fill:rgb(38.039216%,50.588235%,100%);fill-opacity:0.490196;stroke:none;"/>
<path style="fill:none;stroke-width:2;stroke-linecap:butt;stroke-linejoin:miter;stroke:rgb(38.039216%,50.588235%,100%);stroke-opacity:1;stroke-miterlimit:10;" d="M 1 3 C 1 1.894531 1.894531 1 3 1 L 26 1 C 27.105469 1 28 1.894531 28 3 L 28 25 C 28 26.105469 27.105469 27 26 27 L 3 27 C 1.894531 27 1 26.105469 1 25 Z M 1 3 " transform="matrix(1,0,0,1,254,17)"/>
<rect x="0" y="0" width="360" height="48" style="fill:rgb(38.039216%,50.588235%,100%);fill-opacity:0.490196;stroke:none;"/>
<path style="fill:none;stroke-width:2;stroke-linecap:butt;stroke-linejoin:miter;stroke:rgb(38.039216%,50.588235%,100%);stroke-opacity:1;stroke-miterlimit:10;" d="M 1 3 C 1 1.894531 1.894531 1 3 1 L 26 1 C 27.105469 1 28 1.894531 28 3 L 28 25 C 28 26.105469 27.105469 27 26 27 L 3 27 C 1.894531 27 1 26.105469 1 25 Z M 1 3 " transform="matrix(1,0,0,1,254,17)"/>
</g>
</g>
<g clip-path="url(#clip30)" clip-rule="nonzero">
<g clip-path="url(#clip31)" clip-rule="nonzero">
<rect x="0" y="0" width="360" height="48" style="fill:rgb(38.039216%,50.588235%,100%);fill-opacity:0.490196;stroke:none;"/>
<path style="fill:none;stroke-width:2;stroke-linecap:butt;stroke-linejoin:miter;stroke:rgb(38.039216%,50.588235%,100%);stroke-opacity:1;stroke-miterlimit:10;" d="M 1 3 C 1 1.894531 1.894531 1 3 1 L 26 1 C 27.105469 1 28 1.894531 28 3 L 28 18 C 28 19.105469 27.105469 20 26 20 L 3 20 C 1.894531 20 1 19.105469 1 18 Z M 1 3 " transform="matrix(1,0,0,1,299,3)"/>
</g>
</g>
<g clip-path="url(#clip32)" clip-rule="nonzero">
<g clip-path="url(#clip33)" clip-rule="nonzero">
<rect x="0" y="0" width="360" height="48" style="fill:rgb(38.039216%,50.588235%,100%);fill-opacity:0.490196;stroke:none;"/>
<path style="fill:none;stroke-width:2;stroke-linecap:butt;stroke-linejoin:miter;stroke:rgb(38.039216%,50.588235%,100%);stroke-opacity:1;stroke-miterlimit:10;" d="M 1 3 C 1 1.894531 1.894531 1 3 1 L 26 1 C 27.105469 1 28 1.894531 28 3 L 28 18 C 28 19.105469 27.105469 20 26 20 L 3 20 C 1.894531 20 1 19.105469 1 18 Z M 1 3 " transform="matrix(1,0,0,1,299,24)"/>
</g>
</g>
<g clip-path="url(#clip34)" clip-rule="nonzero">
<g clip-path="url(#clip35)" clip-rule="nonzero">
<rect x="0" y="0" width="360" height="48" style="fill:rgb(38.039216%,50.588235%,100%);fill-opacity:0.490196;stroke:none;"/>
<path style="fill:none;stroke-width:2;stroke-linecap:butt;stroke-linejoin:miter;stroke:rgb(38.039216%,50.588235%,100%);stroke-opacity:1;stroke-miterlimit:10;" d="M 1 3 C 1 1.894531 1.894531 1 3 1 L 26 1 C 27.105469 1 28 1.894531 28 3 L 28 25 C 28 26.105469 27.105469 27 26 27 L 3 27 C 1.894531 27 1 26.105469 1 25 Z M 1 3 " transform="matrix(1,0,0,1,328,17)"/>
<rect x="0" y="0" width="360" height="48" style="fill:rgb(38.039216%,50.588235%,100%);fill-opacity:0.490196;stroke:none;"/>
<path style="fill:none;stroke-width:2;stroke-linecap:butt;stroke-linejoin:miter;stroke:rgb(38.039216%,50.588235%,100%);stroke-opacity:1;stroke-miterlimit:10;" d="M 1 3 C 1 1.894531 1.894531 1 3 1 L 26 1 C 27.105469 1 28 1.894531 28 3 L 28 25 C 28 26.105469 27.105469 27 26 27 L 3 27 C 1.894531 27 1 26.105469 1 25 Z M 1 3 " transform="matrix(1,0,0,1,328,17)"/>
<rect x="0" y="0" width="360" height="48" style="fill:rgb(38.039216%,50.588235%,100%);fill-opacity:0.490196;stroke:none;"/>
<path style="fill:none;stroke-width:2;stroke-linecap:butt;stroke-linejoin:miter;stroke:rgb(38.039216%,50.588235%,100%);stroke-opacity:1;stroke-miterlimit:10;" d="M 1 3 C 1 1.894531 1.894531 1 3 1 L 26 1 C 27.105469 1 28 1.894531 28 3 L 28 25 C 28 26.105469 27.105469 27 26 27 L 3 27 C 1.894531 27 1 26.105469 1 25 Z M 1 3 " transform="matrix(1,0,0,1,328,17)"/>
</g>
</g>
</g>
</svg>
