<?xml version="1.0" encoding="UTF-8"?>
<svg xmlns="http://www.w3.org/2000/svg" xmlns:xlink="http://www.w3.org/1999/xlink" width="128pt" height="96pt" viewBox="0 0 128 96" version="1.1">
<defs>
<clipPath id="clip1">
  <path d="M 10 10 L 54 10 L 54 44 L 10 44 Z M 10 10 "/>
</clipPath>
<clipPath id="clip2">
  <path d="M 11 11 L 53 11 L 53 43 L 11 43 Z M 11 11 "/>
</clipPath>
<clipPath id="clip3">
  <path d="M 11 16 C 11 13.238281 13.238281 11 16 11 L 48 11 C 50.761719 11 53 13.238281 53 16 L 53 38 C 53 40.761719 50.761719 43 48 43 L 16 43 C 13.238281 43 11 40.761719 11 38 Z M 11 16 "/>
</clipPath>
<clipPath id="clip4">
  <path d="M 51 34 L 95 34 L 95 68 L 51 68 Z M 51 34 "/>
</clipPath>
<clipPath id="clip5">
  <path d="M 52 35 L 94 35 L 94 67 L 52 67 Z M 52 35 "/>
</clipPath>
<clipPath id="clip6">
  <path d="M 52 40 C 52 37.238281 54.238281 35 57 35 L 89 35 C 91.761719 35 94 37.238281 94 40 L 94 62 C 94 64.761719 91.761719 67 89 67 L 57 67 C 54.238281 67 52 64.761719 52 62 Z M 52 40 "/>
</clipPath>
</defs>
<g id="surface2">
<path style="fill:none;stroke-width:1.5;stroke-linecap:butt;stroke-linejoin:miter;stroke:rgb(0%,0%,0%);stroke-opacity:0.266667;stroke-dasharray:10,4;stroke-dashoffset:1;stroke-miterlimit:10;" d="M 0.75 0.75 L 127.25 0.75 L 127.25 95.25 L 0.75 95.25 Z M 0.75 0.75 "/>
<path style="fill:none;stroke-width:1.5;stroke-linecap:butt;stroke-linejoin:miter;stroke:rgb(0%,0%,0%);stroke-opacity:0.2;stroke-dasharray:10,4;stroke-dashoffset:1;stroke-miterlimit:10;" d="M 10 10 L 118 10 L 118 86 L 10 86 Z M 10 10 "/>
<path style="fill:none;stroke-width:1.5;stroke-linecap:butt;stroke-linejoin:miter;stroke:rgb(0%,0%,0%);stroke-opacity:0.1;stroke-miterlimit:10;" d="M 10 10 L 51 34 "/>
<path style="fill:none;stroke-width:1.5;stroke-linecap:butt;stroke-linejoin:miter;stroke:rgb(0%,0%,0%);stroke-opacity:0.1;stroke-miterlimit:10;" d="M 50 10 L 91 34 M 10 40 L 51 64 "/>
<path style="fill:none;stroke-width:1.5;stroke-linecap:butt;stroke-linejoin:miter;stroke:rgb(0%,0%,0%);stroke-opacity:0.1;stroke-miterlimit:10;" d="M 50 40 L 91 64 "/>
<g clip-path="url(#clip1)" clip-rule="nonzero">
<path style="fill:none;stroke-width:1;stroke-linecap:butt;stroke-linejoin:miter;stroke:rgb(38.039216%,50.588235%,100%);stroke-opacity:1;stroke-miterlimit:10;" d="M 0 5 C 0 2.238281 2.238281 0 5 0 L 37 0 C 39.761719 0 42 2.238281 42 5 L 42 27 C 42 29.761719 39.761719 32 37 32 L 5 32 C 2.238281 32 0 29.761719 0 27 Z M 0 5 " transform="matrix(1,0,0,1,11,11)"/>
</g>
<path style=" stroke:none;fill-rule:nonzero;fill:rgb(38.039216%,50.588235%,100%);fill-opacity:0.490196;" d="M 11 16 C 11 13.238281 13.238281 11 16 11 L 48 11 C 50.761719 11 53 13.238281 53 16 L 53 38 C 53 40.761719 50.761719 43 48 43 L 16 43 C 13.238281 43 11 40.761719 11 38 Z M 11 16 "/>
<g clip-path="url(#clip2)" clip-rule="nonzero">
<g clip-path="url(#clip3)" clip-rule="nonzero">
<path style="fill:none;stroke-width:1;stroke-linecap:butt;stroke-linejoin:miter;stroke:rgb(38.039216%,50.588235%,100%);stroke-opacity:1;stroke-miterlimit:10;" d="M 0 5 C 0 2.238281 2.238281 0 5 0 L 37 0 C 39.761719 0 42 2.238281 42 5 L 42 27 C 42 29.761719 39.761719 32 37 32 L 5 32 C 2.238281 32 0 29.761719 0 27 Z M 0 5 " transform="matrix(1,0,0,1,11,11)"/>
</g>
</g>
<g clip-path="url(#clip4)" clip-rule="nonzero">
<path style="fill:none;stroke-width:1;stroke-linecap:butt;stroke-linejoin:miter;stroke:rgb(38.039216%,50.588235%,100%);stroke-opacity:1;stroke-miterlimit:10;" d="M 0 5 C 0 2.238281 2.238281 0 5 0 L 37 0 C 39.761719 0 42 2.238281 42 5 L 42 27 C 42 29.761719 39.761719 32 37 32 L 5 32 C 2.238281 32 0 29.761719 0 27 Z M 0 5 " transform="matrix(1,0,0,1,52,35)"/>
</g>
<path style=" stroke:none;fill-rule:nonzero;fill:rgb(38.039216%,50.588235%,100%);fill-opacity:0.490196;" d="M 52 40 C 52 37.238281 54.238281 35 57 35 L 89 35 C 91.761719 35 94 37.238281 94 40 L 94 62 C 94 64.761719 91.761719 67 89 67 L 57 67 C 54.238281 67 52 64.761719 52 62 Z M 52 40 "/>
<g clip-path="url(#clip5)" clip-rule="nonzero">
<g clip-path="url(#clip6)" clip-rule="nonzero">
<path style="fill:none;stroke-width:1;stroke-linecap:butt;stroke-linejoin:miter;stroke:rgb(38.039216%,50.588235%,100%);stroke-opacity:1;stroke-miterlimit:10;" d="M 0 5 C 0 2.238281 2.238281 0 5 0 L 37 0 C 39.761719 0 42 2.238281 42 5 L 42 27 C 42 29.761719 39.761719 32 37 32 L 5 32 C 2.238281 32 0 29.761719 0 27 Z M 0 5 " transform="matrix(1,0,0,1,52,35)"/>
</g>
</g>
<path style=" stroke:none;fill-rule:nonzero;fill:rgb(100%,0%,0%);fill-opacity:1;" d="M 50 50 L 50 60 L 53 58 L 56 62 L 58 62 L 55 58 L 59 58 Z M 50 50 "/>
</g>
</svg>
