<?xml version="1.0" encoding="UTF-8"?>
<svg xmlns="http://www.w3.org/2000/svg" xmlns:xlink="http://www.w3.org/1999/xlink" width="128pt" height="96pt" viewBox="0 0 128 96" version="1.1">
<defs>
<clipPath id="clip1">
  <path d="M 11 11 L 45 11 L 45 85 L 11 85 Z M 11 11 "/>
</clipPath>
<clipPath id="clip2">
  <path d="M 11 16 C 11 13.238281 13.238281 11 16 11 L 40 11 C 42.761719 11 45 13.238281 45 16 L 45 80 C 45 82.761719 42.761719 85 40 85 L 16 85 C 13.238281 85 11 82.761719 11 80 Z M 11 16 "/>
</clipPath>
<clipPath id="clip3">
  <path d="M 47 11 L 81 11 L 81 85 L 47 85 Z M 47 11 "/>
</clipPath>
<clipPath id="clip4">
  <path d="M 47 16 C 47 13.238281 49.238281 11 52 11 L 76 11 C 78.761719 11 81 13.238281 81 16 L 81 80 C 81 82.761719 78.761719 85 76 85 L 52 85 C 49.238281 85 47 82.761719 47 80 Z M 47 16 "/>
</clipPath>
<clipPath id="clip5">
  <path d="M 83 11 L 117 11 L 117 85 L 83 85 Z M 83 11 "/>
</clipPath>
<clipPath id="clip6">
  <path d="M 83 16 C 83 13.238281 85.238281 11 88 11 L 112 11 C 114.761719 11 117 13.238281 117 16 L 117 80 C 117 82.761719 114.761719 85 112 85 L 88 85 C 85.238281 85 83 82.761719 83 80 Z M 83 16 "/>
</clipPath>
</defs>
<g id="surface2">
<path style="fill:none;stroke-width:1.5;stroke-linecap:butt;stroke-linejoin:miter;stroke:rgb(0%,0%,0%);stroke-opacity:0.266667;stroke-dasharray:10,4;stroke-dashoffset:1;stroke-miterlimit:10;" d="M 0.75 0.75 L 127.25 0.75 L 127.25 95.25 L 0.75 95.25 Z M 0.75 0.75 "/>
<path style="fill:none;stroke-width:1.5;stroke-linecap:butt;stroke-linejoin:miter;stroke:rgb(0%,0%,0%);stroke-opacity:0.2;stroke-dasharray:10,4;stroke-dashoffset:1;stroke-miterlimit:10;" d="M 10 10 L 118 10 L 118 86 L 10 86 Z M 10 10 "/>
<g clip-path="url(#clip1)" clip-rule="nonzero">
<g clip-path="url(#clip2)" clip-rule="nonzero">
<rect x="0" y="0" width="128" height="96" style="fill:rgb(38.039216%,50.588235%,100%);fill-opacity:0.490196;stroke:none;"/>
<path style="fill:none;stroke-width:2;stroke-linecap:butt;stroke-linejoin:miter;stroke:rgb(38.039216%,50.588235%,100%);stroke-opacity:1;stroke-miterlimit:10;" d="M 1 6 C 1 3.238281 3.238281 1 6 1 L 30 1 C 32.761719 1 35 3.238281 35 6 L 35 70 C 35 72.761719 32.761719 75 30 75 L 6 75 C 3.238281 75 1 72.761719 1 70 Z M 1 6 " transform="matrix(1,0,0,1,10,10)"/>
</g>
</g>
<g clip-path="url(#clip3)" clip-rule="nonzero">
<g clip-path="url(#clip4)" clip-rule="nonzero">
<rect x="0" y="0" width="128" height="96" style="fill:rgb(38.039216%,50.588235%,100%);fill-opacity:0.490196;stroke:none;"/>
<path style="fill:none;stroke-width:2;stroke-linecap:butt;stroke-linejoin:miter;stroke:rgb(38.039216%,50.588235%,100%);stroke-opacity:1;stroke-miterlimit:10;" d="M 1 6 C 1 3.238281 3.238281 1 6 1 L 30 1 C 32.761719 1 35 3.238281 35 6 L 35 70 C 35 72.761719 32.761719 75 30 75 L 6 75 C 3.238281 75 1 72.761719 1 70 Z M 1 6 " transform="matrix(1,0,0,1,46,10)"/>
</g>
</g>
<g clip-path="url(#clip5)" clip-rule="nonzero">
<g clip-path="url(#clip6)" clip-rule="nonzero">
<rect x="0" y="0" width="128" height="96" style="fill:rgb(38.039216%,50.588235%,100%);fill-opacity:0.490196;stroke:none;"/>
<path style="fill:none;stroke-width:2;stroke-linecap:butt;stroke-linejoin:miter;stroke:rgb(38.039216%,50.588235%,100%);stroke-opacity:1;stroke-miterlimit:10;" d="M 1 6 C 1 3.238281 3.238281 1 6 1 L 30 1 C 32.761719 1 35 3.238281 35 6 L 35 70 C 35 72.761719 32.761719 75 30 75 L 6 75 C 3.238281 75 1 72.761719 1 70 Z M 1 6 " transform="matrix(1,0,0,1,82,10)"/>
</g>
</g>
</g>
</svg>
