<?xml version="1.0" encoding="UTF-8"?>
<svg xmlns="http://www.w3.org/2000/svg" xmlns:xlink="http://www.w3.org/1999/xlink" width="434pt" height="106pt" viewBox="0 0 434 106" version="1.1">
<defs>
<clipPath id="clip1">
  <path d="M 4 4 L 60 4 L 60 44 L 4 44 Z M 4 4 "/>
</clipPath>
<clipPath id="clip2">
  <path d="M 4 6 C 4 4.894531 4.894531 4 6 4 L 58 4 C 59.105469 4 60 4.894531 60 6 L 60 42 C 60 43.105469 59.105469 44 58 44 L 6 44 C 4.894531 44 4 43.105469 4 42 Z M 4 6 "/>
</clipPath>
<clipPath id="clip3">
  <path d="M 78 4 L 134 4 L 134 23 L 78 23 Z M 78 4 "/>
</clipPath>
<clipPath id="clip4">
  <path d="M 78 6 C 78 4.894531 78.894531 4 80 4 L 132 4 C 133.105469 4 134 4.894531 134 6 L 134 21 C 134 22.105469 133.105469 23 132 23 L 80 23 C 78.894531 23 78 22.105469 78 21 Z M 78 6 "/>
</clipPath>
<clipPath id="clip5">
  <path d="M 78 25 L 134 25 L 134 44 L 78 44 Z M 78 25 "/>
</clipPath>
<clipPath id="clip6">
  <path d="M 78 27 C 78 25.894531 78.894531 25 80 25 L 132 25 C 133.105469 25 134 25.894531 134 27 L 134 42 C 134 43.105469 133.105469 44 132 44 L 80 44 C 78.894531 44 78 43.105469 78 42 Z M 78 27 "/>
</clipPath>
<clipPath id="clip7">
  <path d="M 152 4 L 179 4 L 179 23 L 152 23 Z M 152 4 "/>
</clipPath>
<clipPath id="clip8">
  <path d="M 152 6 C 152 4.894531 152.894531 4 154 4 L 177 4 C 178.105469 4 179 4.894531 179 6 L 179 21 C 179 22.105469 178.105469 23 177 23 L 154 23 C 152.894531 23 152 22.105469 152 21 Z M 152 6 "/>
</clipPath>
<clipPath id="clip9">
  <path d="M 152 25 L 179 25 L 179 44 L 152 44 Z M 152 25 "/>
</clipPath>
<clipPath id="clip10">
  <path d="M 152 27 C 152 25.894531 152.894531 25 154 25 L 177 25 C 178.105469 25 179 25.894531 179 27 L 179 42 C 179 43.105469 178.105469 44 177 44 L 154 44 C 152.894531 44 152 43.105469 152 42 Z M 152 27 "/>
</clipPath>
<clipPath id="clip11">
  <path d="M 181 4 L 208 4 L 208 44 L 181 44 Z M 181 4 "/>
</clipPath>
<clipPath id="clip12">
  <path d="M 181 6 C 181 4.894531 181.894531 4 183 4 L 206 4 C 207.105469 4 208 4.894531 208 6 L 208 42 C 208 43.105469 207.105469 44 206 44 L 183 44 C 181.894531 44 181 43.105469 181 42 Z M 181 6 "/>
</clipPath>
<clipPath id="clip13">
  <path d="M 226 4 L 253 4 L 253 23 L 226 23 Z M 226 4 "/>
</clipPath>
<clipPath id="clip14">
  <path d="M 226 6 C 226 4.894531 226.894531 4 228 4 L 251 4 C 252.105469 4 253 4.894531 253 6 L 253 21 C 253 22.105469 252.105469 23 251 23 L 228 23 C 226.894531 23 226 22.105469 226 21 Z M 226 6 "/>
</clipPath>
<clipPath id="clip15">
  <path d="M 226 25 L 253 25 L 253 44 L 226 44 Z M 226 25 "/>
</clipPath>
<clipPath id="clip16">
  <path d="M 226 27 C 226 25.894531 226.894531 25 228 25 L 251 25 C 252.105469 25 253 25.894531 253 27 L 253 42 C 253 43.105469 252.105469 44 251 44 L 228 44 C 226.894531 44 226 43.105469 226 42 Z M 226 27 "/>
</clipPath>
<clipPath id="clip17">
  <path d="M 255 4 L 282 4 L 282 23 L 255 23 Z M 255 4 "/>
</clipPath>
<clipPath id="clip18">
  <path d="M 255 6 C 255 4.894531 255.894531 4 257 4 L 280 4 C 281.105469 4 282 4.894531 282 6 L 282 21 C 282 22.105469 281.105469 23 280 23 L 257 23 C 255.894531 23 255 22.105469 255 21 Z M 255 6 "/>
</clipPath>
<clipPath id="clip19">
  <path d="M 255 25 L 282 25 L 282 44 L 255 44 Z M 255 25 "/>
</clipPath>
<clipPath id="clip20">
  <path d="M 255 27 C 255 25.894531 255.894531 25 257 25 L 280 25 C 281.105469 25 282 25.894531 282 27 L 282 42 C 282 43.105469 281.105469 44 280 44 L 257 44 C 255.894531 44 255 43.105469 255 42 Z M 255 27 "/>
</clipPath>
<clipPath id="clip21">
  <path d="M 300 4 L 327 4 L 327 23 L 300 23 Z M 300 4 "/>
</clipPath>
<clipPath id="clip22">
  <path d="M 300 6 C 300 4.894531 300.894531 4 302 4 L 325 4 C 326.105469 4 327 4.894531 327 6 L 327 21 C 327 22.105469 326.105469 23 325 23 L 302 23 C 300.894531 23 300 22.105469 300 21 Z M 300 6 "/>
</clipPath>
<clipPath id="clip23">
  <path d="M 300 25 L 327 25 L 327 44 L 300 44 Z M 300 25 "/>
</clipPath>
<clipPath id="clip24">
  <path d="M 300 27 C 300 25.894531 300.894531 25 302 25 L 325 25 C 326.105469 25 327 25.894531 327 27 L 327 42 C 327 43.105469 326.105469 44 325 44 L 302 44 C 300.894531 44 300 43.105469 300 42 Z M 300 27 "/>
</clipPath>
<clipPath id="clip25">
  <path d="M 329 4 L 356 4 L 356 16 L 329 16 Z M 329 4 "/>
</clipPath>
<clipPath id="clip26">
  <path d="M 329 6 C 329 4.894531 329.894531 4 331 4 L 354 4 C 355.105469 4 356 4.894531 356 6 L 356 14 C 356 15.105469 355.105469 16 354 16 L 331 16 C 329.894531 16 329 15.105469 329 14 Z M 329 6 "/>
</clipPath>
<clipPath id="clip27">
  <path d="M 329 18 L 356 18 L 356 30 L 329 30 Z M 329 18 "/>
</clipPath>
<clipPath id="clip28">
  <path d="M 329 20 C 329 18.894531 329.894531 18 331 18 L 354 18 C 355.105469 18 356 18.894531 356 20 L 356 28 C 356 29.105469 355.105469 30 354 30 L 331 30 C 329.894531 30 329 29.105469 329 28 Z M 329 20 "/>
</clipPath>
<clipPath id="clip29">
  <path d="M 329 32 L 356 32 L 356 44 L 329 44 Z M 329 32 "/>
</clipPath>
<clipPath id="clip30">
  <path d="M 329 34 C 329 32.894531 329.894531 32 331 32 L 354 32 C 355.105469 32 356 32.894531 356 34 L 356 42 C 356 43.105469 355.105469 44 354 44 L 331 44 C 329.894531 44 329 43.105469 329 42 Z M 329 34 "/>
</clipPath>
<clipPath id="clip31">
  <path d="M 374 4 L 401 4 L 401 16 L 374 16 Z M 374 4 "/>
</clipPath>
<clipPath id="clip32">
  <path d="M 374 6 C 374 4.894531 374.894531 4 376 4 L 399 4 C 400.105469 4 401 4.894531 401 6 L 401 14 C 401 15.105469 400.105469 16 399 16 L 376 16 C 374.894531 16 374 15.105469 374 14 Z M 374 6 "/>
</clipPath>
<clipPath id="clip33">
  <path d="M 374 18 L 401 18 L 401 30 L 374 30 Z M 374 18 "/>
</clipPath>
<clipPath id="clip34">
  <path d="M 374 20 C 374 18.894531 374.894531 18 376 18 L 399 18 C 400.105469 18 401 18.894531 401 20 L 401 28 C 401 29.105469 400.105469 30 399 30 L 376 30 C 374.894531 30 374 29.105469 374 28 Z M 374 20 "/>
</clipPath>
<clipPath id="clip35">
  <path d="M 403 4 L 430 4 L 430 16 L 403 16 Z M 403 4 "/>
</clipPath>
<clipPath id="clip36">
  <path d="M 403 6 C 403 4.894531 403.894531 4 405 4 L 428 4 C 429.105469 4 430 4.894531 430 6 L 430 14 C 430 15.105469 429.105469 16 428 16 L 405 16 C 403.894531 16 403 15.105469 403 14 Z M 403 6 "/>
</clipPath>
<clipPath id="clip37">
  <path d="M 403 18 L 430 18 L 430 30 L 403 30 Z M 403 18 "/>
</clipPath>
<clipPath id="clip38">
  <path d="M 403 20 C 403 18.894531 403.894531 18 405 18 L 428 18 C 429.105469 18 430 18.894531 430 20 L 430 28 C 430 29.105469 429.105469 30 428 30 L 405 30 C 403.894531 30 403 29.105469 403 28 Z M 403 20 "/>
</clipPath>
<clipPath id="clip39">
  <path d="M 403 32 L 430 32 L 430 44 L 403 44 Z M 403 32 "/>
</clipPath>
<clipPath id="clip40">
  <path d="M 403 34 C 403 32.894531 403.894531 32 405 32 L 428 32 C 429.105469 32 430 32.894531 430 34 L 430 42 C 430 43.105469 429.105469 44 428 44 L 405 44 C 403.894531 44 403 43.105469 403 42 Z M 403 34 "/>
</clipPath>
<clipPath id="clip41">
  <path d="M 374 32 L 401 32 L 401 44 L 374 44 Z M 374 32 "/>
</clipPath>
<clipPath id="clip42">
  <path d="M 374 34 C 374 32.894531 374.894531 32 376 32 L 399 32 C 400.105469 32 401 32.894531 401 34 L 401 42 C 401 43.105469 400.105469 44 399 44 L 376 44 C 374.894531 44 374 43.105469 374 42 Z M 374 34 "/>
</clipPath>
<clipPath id="clip43">
  <path d="M 4 62 L 60 62 L 60 102 L 4 102 Z M 4 62 "/>
</clipPath>
<clipPath id="clip44">
  <path d="M 4 64 C 4 62.894531 4.894531 62 6 62 L 58 62 C 59.105469 62 60 62.894531 60 64 L 60 100 C 60 101.105469 59.105469 102 58 102 L 6 102 C 4.894531 102 4 101.105469 4 100 Z M 4 64 "/>
</clipPath>
<clipPath id="clip45">
  <path d="M 78 62 L 105 62 L 105 102 L 78 102 Z M 78 62 "/>
</clipPath>
<clipPath id="clip46">
  <path d="M 78 64 C 78 62.894531 78.894531 62 80 62 L 103 62 C 104.105469 62 105 62.894531 105 64 L 105 100 C 105 101.105469 104.105469 102 103 102 L 80 102 C 78.894531 102 78 101.105469 78 100 Z M 78 64 "/>
</clipPath>
<clipPath id="clip47">
  <path d="M 107 62 L 134 62 L 134 102 L 107 102 Z M 107 62 "/>
</clipPath>
<clipPath id="clip48">
  <path d="M 107 64 C 107 62.894531 107.894531 62 109 62 L 132 62 C 133.105469 62 134 62.894531 134 64 L 134 100 C 134 101.105469 133.105469 102 132 102 L 109 102 C 107.894531 102 107 101.105469 107 100 Z M 107 64 "/>
</clipPath>
<clipPath id="clip49">
  <path d="M 152 62 L 179 62 L 179 81 L 152 81 Z M 152 62 "/>
</clipPath>
<clipPath id="clip50">
  <path d="M 152 64 C 152 62.894531 152.894531 62 154 62 L 177 62 C 178.105469 62 179 62.894531 179 64 L 179 79 C 179 80.105469 178.105469 81 177 81 L 154 81 C 152.894531 81 152 80.105469 152 79 Z M 152 64 "/>
</clipPath>
<clipPath id="clip51">
  <path d="M 181 62 L 208 62 L 208 81 L 181 81 Z M 181 62 "/>
</clipPath>
<clipPath id="clip52">
  <path d="M 181 64 C 181 62.894531 181.894531 62 183 62 L 206 62 C 207.105469 62 208 62.894531 208 64 L 208 79 C 208 80.105469 207.105469 81 206 81 L 183 81 C 181.894531 81 181 80.105469 181 79 Z M 181 64 "/>
</clipPath>
<clipPath id="clip53">
  <path d="M 152 83 L 208 83 L 208 102 L 152 102 Z M 152 83 "/>
</clipPath>
<clipPath id="clip54">
  <path d="M 152 85 C 152 83.894531 152.894531 83 154 83 L 206 83 C 207.105469 83 208 83.894531 208 85 L 208 100 C 208 101.105469 207.105469 102 206 102 L 154 102 C 152.894531 102 152 101.105469 152 100 Z M 152 85 "/>
</clipPath>
<clipPath id="clip55">
  <path d="M 226 62 L 253 62 L 253 81 L 226 81 Z M 226 62 "/>
</clipPath>
<clipPath id="clip56">
  <path d="M 226 64 C 226 62.894531 226.894531 62 228 62 L 251 62 C 252.105469 62 253 62.894531 253 64 L 253 79 C 253 80.105469 252.105469 81 251 81 L 228 81 C 226.894531 81 226 80.105469 226 79 Z M 226 64 "/>
</clipPath>
<clipPath id="clip57">
  <path d="M 255 62 L 282 62 L 282 81 L 255 81 Z M 255 62 "/>
</clipPath>
<clipPath id="clip58">
  <path d="M 255 64 C 255 62.894531 255.894531 62 257 62 L 280 62 C 281.105469 62 282 62.894531 282 64 L 282 79 C 282 80.105469 281.105469 81 280 81 L 257 81 C 255.894531 81 255 80.105469 255 79 Z M 255 64 "/>
</clipPath>
<clipPath id="clip59">
  <path d="M 226 83 L 253 83 L 253 102 L 226 102 Z M 226 83 "/>
</clipPath>
<clipPath id="clip60">
  <path d="M 226 85 C 226 83.894531 226.894531 83 228 83 L 251 83 C 252.105469 83 253 83.894531 253 85 L 253 100 C 253 101.105469 252.105469 102 251 102 L 228 102 C 226.894531 102 226 101.105469 226 100 Z M 226 85 "/>
</clipPath>
<clipPath id="clip61">
  <path d="M 255 83 L 282 83 L 282 102 L 255 102 Z M 255 83 "/>
</clipPath>
<clipPath id="clip62">
  <path d="M 255 85 C 255 83.894531 255.894531 83 257 83 L 280 83 C 281.105469 83 282 83.894531 282 85 L 282 100 C 282 101.105469 281.105469 102 280 102 L 257 102 C 255.894531 102 255 101.105469 255 100 Z M 255 85 "/>
</clipPath>
<clipPath id="clip63">
  <path d="M 300 62 L 327 62 L 327 81 L 300 81 Z M 300 62 "/>
</clipPath>
<clipPath id="clip64">
  <path d="M 300 64 C 300 62.894531 300.894531 62 302 62 L 325 62 C 326.105469 62 327 62.894531 327 64 L 327 79 C 327 80.105469 326.105469 81 325 81 L 302 81 C 300.894531 81 300 80.105469 300 79 Z M 300 64 "/>
</clipPath>
<clipPath id="clip65">
  <path d="M 329 62 L 356 62 L 356 81 L 329 81 Z M 329 62 "/>
</clipPath>
<clipPath id="clip66">
  <path d="M 329 64 C 329 62.894531 329.894531 62 331 62 L 354 62 C 355.105469 62 356 62.894531 356 64 L 356 79 C 356 80.105469 355.105469 81 354 81 L 331 81 C 329.894531 81 329 80.105469 329 79 Z M 329 64 "/>
</clipPath>
<clipPath id="clip67">
  <path d="M 300 83 L 317 83 L 317 102 L 300 102 Z M 300 83 "/>
</clipPath>
<clipPath id="clip68">
  <path d="M 300 85 C 300 83.894531 300.894531 83 302 83 L 315 83 C 316.105469 83 317 83.894531 317 85 L 317 100 C 317 101.105469 316.105469 102 315 102 L 302 102 C 300.894531 102 300 101.105469 300 100 Z M 300 85 "/>
</clipPath>
<clipPath id="clip69">
  <path d="M 319 83 L 336 83 L 336 102 L 319 102 Z M 319 83 "/>
</clipPath>
<clipPath id="clip70">
  <path d="M 319 85 C 319 83.894531 319.894531 83 321 83 L 334 83 C 335.105469 83 336 83.894531 336 85 L 336 100 C 336 101.105469 335.105469 102 334 102 L 321 102 C 319.894531 102 319 101.105469 319 100 Z M 319 85 "/>
</clipPath>
<clipPath id="clip71">
  <path d="M 338 83 L 355 83 L 355 102 L 338 102 Z M 338 83 "/>
</clipPath>
<clipPath id="clip72">
  <path d="M 338 85 C 338 83.894531 338.894531 83 340 83 L 353 83 C 354.105469 83 355 83.894531 355 85 L 355 100 C 355 101.105469 354.105469 102 353 102 L 340 102 C 338.894531 102 338 101.105469 338 100 Z M 338 85 "/>
</clipPath>
<clipPath id="clip73">
  <path d="M 374 62 L 391 62 L 391 81 L 374 81 Z M 374 62 "/>
</clipPath>
<clipPath id="clip74">
  <path d="M 374 64 C 374 62.894531 374.894531 62 376 62 L 389 62 C 390.105469 62 391 62.894531 391 64 L 391 79 C 391 80.105469 390.105469 81 389 81 L 376 81 C 374.894531 81 374 80.105469 374 79 Z M 374 64 "/>
</clipPath>
<clipPath id="clip75">
  <path d="M 393 62 L 410 62 L 410 81 L 393 81 Z M 393 62 "/>
</clipPath>
<clipPath id="clip76">
  <path d="M 393 64 C 393 62.894531 393.894531 62 395 62 L 408 62 C 409.105469 62 410 62.894531 410 64 L 410 79 C 410 80.105469 409.105469 81 408 81 L 395 81 C 393.894531 81 393 80.105469 393 79 Z M 393 64 "/>
</clipPath>
<clipPath id="clip77">
  <path d="M 374 83 L 391 83 L 391 102 L 374 102 Z M 374 83 "/>
</clipPath>
<clipPath id="clip78">
  <path d="M 374 85 C 374 83.894531 374.894531 83 376 83 L 389 83 C 390.105469 83 391 83.894531 391 85 L 391 100 C 391 101.105469 390.105469 102 389 102 L 376 102 C 374.894531 102 374 101.105469 374 100 Z M 374 85 "/>
</clipPath>
<clipPath id="clip79">
  <path d="M 393 83 L 410 83 L 410 102 L 393 102 Z M 393 83 "/>
</clipPath>
<clipPath id="clip80">
  <path d="M 393 85 C 393 83.894531 393.894531 83 395 83 L 408 83 C 409.105469 83 410 83.894531 410 85 L 410 100 C 410 101.105469 409.105469 102 408 102 L 395 102 C 393.894531 102 393 101.105469 393 100 Z M 393 85 "/>
</clipPath>
<clipPath id="clip81">
  <path d="M 412 83 L 429 83 L 429 102 L 412 102 Z M 412 83 "/>
</clipPath>
<clipPath id="clip82">
  <path d="M 412 85 C 412 83.894531 412.894531 83 414 83 L 427 83 C 428.105469 83 429 83.894531 429 85 L 429 100 C 429 101.105469 428.105469 102 427 102 L 414 102 C 412.894531 102 412 101.105469 412 100 Z M 412 85 "/>
</clipPath>
<clipPath id="clip83">
  <path d="M 412 62 L 429 62 L 429 81 L 412 81 Z M 412 62 "/>
</clipPath>
<clipPath id="clip84">
  <path d="M 412 64 C 412 62.894531 412.894531 62 414 62 L 427 62 C 428.105469 62 429 62.894531 429 64 L 429 79 C 429 80.105469 428.105469 81 427 81 L 414 81 C 412.894531 81 412 80.105469 412 79 Z M 412 64 "/>
</clipPath>
</defs>
<g id="surface2">
<path style="fill:none;stroke-width:1.5;stroke-linecap:butt;stroke-linejoin:miter;stroke:rgb(0%,0%,0%);stroke-opacity:0.266667;stroke-dasharray:10,4;stroke-dashoffset:1;stroke-miterlimit:10;" d="M 0.75 0.75 L 63.25 0.75 L 63.25 47.25 L 0.75 47.25 Z M 0.75 0.75 "/>
<path style="fill:none;stroke-width:1.5;stroke-linecap:butt;stroke-linejoin:miter;stroke:rgb(0%,0%,0%);stroke-opacity:0.2;stroke-dasharray:10,4;stroke-dashoffset:1;stroke-miterlimit:10;" d="M 3 3 L 61 3 L 61 45 L 3 45 Z M 3 3 "/>
<path style="fill:none;stroke-width:1.5;stroke-linecap:butt;stroke-linejoin:miter;stroke:rgb(0%,0%,0%);stroke-opacity:0.266667;stroke-dasharray:10,4;stroke-dashoffset:1;stroke-miterlimit:10;" d="M 74.75 0.75 L 137.25 0.75 L 137.25 47.25 L 74.75 47.25 Z M 74.75 0.75 "/>
<path style="fill:none;stroke-width:1.5;stroke-linecap:butt;stroke-linejoin:miter;stroke:rgb(0%,0%,0%);stroke-opacity:0.2;stroke-dasharray:10,4;stroke-dashoffset:1;stroke-miterlimit:10;" d="M 77 3 L 135 3 L 135 45 L 77 45 Z M 77 3 "/>
<path style="fill:none;stroke-width:1.5;stroke-linecap:butt;stroke-linejoin:miter;stroke:rgb(0%,0%,0%);stroke-opacity:0.266667;stroke-dasharray:10,4;stroke-dashoffset:1;stroke-miterlimit:10;" d="M 148.75 0.75 L 211.25 0.75 L 211.25 47.25 L 148.75 47.25 Z M 148.75 0.75 "/>
<path style="fill:none;stroke-width:1.5;stroke-linecap:butt;stroke-linejoin:miter;stroke:rgb(0%,0%,0%);stroke-opacity:0.2;stroke-dasharray:10,4;stroke-dashoffset:1;stroke-miterlimit:10;" d="M 151 3 L 209 3 L 209 45 L 151 45 Z M 151 3 "/>
<path style="fill:none;stroke-width:1.5;stroke-linecap:butt;stroke-linejoin:miter;stroke:rgb(0%,0%,0%);stroke-opacity:0.266667;stroke-dasharray:10,4;stroke-dashoffset:1;stroke-miterlimit:10;" d="M 222.75 0.75 L 285.25 0.75 L 285.25 47.25 L 222.75 47.25 Z M 222.75 0.75 "/>
<path style="fill:none;stroke-width:1.5;stroke-linecap:butt;stroke-linejoin:miter;stroke:rgb(0%,0%,0%);stroke-opacity:0.2;stroke-dasharray:10,4;stroke-dashoffset:1;stroke-miterlimit:10;" d="M 225 3 L 283 3 L 283 45 L 225 45 Z M 225 3 "/>
<path style="fill:none;stroke-width:1.5;stroke-linecap:butt;stroke-linejoin:miter;stroke:rgb(0%,0%,0%);stroke-opacity:0.266667;stroke-dasharray:10,4;stroke-dashoffset:1;stroke-miterlimit:10;" d="M 296.75 0.75 L 359.25 0.75 L 359.25 47.25 L 296.75 47.25 Z M 296.75 0.75 "/>
<path style="fill:none;stroke-width:1.5;stroke-linecap:butt;stroke-linejoin:miter;stroke:rgb(0%,0%,0%);stroke-opacity:0.2;stroke-dasharray:10,4;stroke-dashoffset:1;stroke-miterlimit:10;" d="M 299 3 L 357 3 L 357 45 L 299 45 Z M 299 3 "/>
<path style="fill:none;stroke-width:1.5;stroke-linecap:butt;stroke-linejoin:miter;stroke:rgb(0%,0%,0%);stroke-opacity:0.266667;stroke-dasharray:10,4;stroke-dashoffset:1;stroke-miterlimit:10;" d="M 370.75 0.75 L 433.25 0.75 L 433.25 47.25 L 370.75 47.25 Z M 370.75 0.75 "/>
<path style="fill:none;stroke-width:1.5;stroke-linecap:butt;stroke-linejoin:miter;stroke:rgb(0%,0%,0%);stroke-opacity:0.2;stroke-dasharray:10,4;stroke-dashoffset:1;stroke-miterlimit:10;" d="M 373 3 L 431 3 L 431 45 L 373 45 Z M 373 3 "/>
<path style="fill:none;stroke-width:1.5;stroke-linecap:butt;stroke-linejoin:miter;stroke:rgb(0%,0%,0%);stroke-opacity:0.266667;stroke-dasharray:10,4;stroke-dashoffset:1;stroke-miterlimit:10;" d="M 0.75 58.75 L 63.25 58.75 L 63.25 105.25 L 0.75 105.25 Z M 0.75 58.75 "/>
<path style="fill:none;stroke-width:1.5;stroke-linecap:butt;stroke-linejoin:miter;stroke:rgb(0%,0%,0%);stroke-opacity:0.2;stroke-dasharray:10,4;stroke-dashoffset:1;stroke-miterlimit:10;" d="M 3 61 L 61 61 L 61 103 L 3 103 Z M 3 61 "/>
<path style="fill:none;stroke-width:1.5;stroke-linecap:butt;stroke-linejoin:miter;stroke:rgb(0%,0%,0%);stroke-opacity:0.266667;stroke-dasharray:10,4;stroke-dashoffset:1;stroke-miterlimit:10;" d="M 74.75 58.75 L 137.25 58.75 L 137.25 105.25 L 74.75 105.25 Z M 74.75 58.75 "/>
<path style="fill:none;stroke-width:1.5;stroke-linecap:butt;stroke-linejoin:miter;stroke:rgb(0%,0%,0%);stroke-opacity:0.2;stroke-dasharray:10,4;stroke-dashoffset:1;stroke-miterlimit:10;" d="M 77 61 L 135 61 L 135 103 L 77 103 Z M 77 61 "/>
<path style="fill:none;stroke-width:1.5;stroke-linecap:butt;stroke-linejoin:miter;stroke:rgb(0%,0%,0%);stroke-opacity:0.266667;stroke-dasharray:10,4;stroke-dashoffset:1;stroke-miterlimit:10;" d="M 148.75 58.75 L 211.25 58.75 L 211.25 105.25 L 148.75 105.25 Z M 148.75 58.75 "/>
<path style="fill:none;stroke-width:1.5;stroke-linecap:butt;stroke-linejoin:miter;stroke:rgb(0%,0%,0%);stroke-opacity:0.2;stroke-dasharray:10,4;stroke-dashoffset:1;stroke-miterlimit:10;" d="M 151 61 L 209 61 L 209 103 L 151 103 Z M 151 61 "/>
<path style="fill:none;stroke-width:1.5;stroke-linecap:butt;stroke-linejoin:miter;stroke:rgb(0%,0%,0%);stroke-opacity:0.266667;stroke-dasharray:10,4;stroke-dashoffset:1;stroke-miterlimit:10;" d="M 222.75 58.75 L 285.25 58.75 L 285.25 105.25 L 222.75 105.25 Z M 222.75 58.75 "/>
<path style="fill:none;stroke-width:1.5;stroke-linecap:butt;stroke-linejoin:miter;stroke:rgb(0%,0%,0%);stroke-opacity:0.2;stroke-dasharray:10,4;stroke-dashoffset:1;stroke-miterlimit:10;" d="M 225 61 L 283 61 L 283 103 L 225 103 Z M 225 61 "/>
<path style="fill:none;stroke-width:1.5;stroke-linecap:butt;stroke-linejoin:miter;stroke:rgb(0%,0%,0%);stroke-opacity:0.266667;stroke-dasharray:10,4;stroke-dashoffset:1;stroke-miterlimit:10;" d="M 296.75 58.75 L 359.25 58.75 L 359.25 105.25 L 296.75 105.25 Z M 296.75 58.75 "/>
<path style="fill:none;stroke-width:1.5;stroke-linecap:butt;stroke-linejoin:miter;stroke:rgb(0%,0%,0%);stroke-opacity:0.2;stroke-dasharray:10,4;stroke-dashoffset:1;stroke-miterlimit:10;" d="M 299 61 L 357 61 L 357 103 L 299 103 Z M 299 61 "/>
<path style="fill:none;stroke-width:1.5;stroke-linecap:butt;stroke-linejoin:miter;stroke:rgb(0%,0%,0%);stroke-opacity:0.266667;stroke-dasharray:10,4;stroke-dashoffset:1;stroke-miterlimit:10;" d="M 370.75 58.75 L 433.25 58.75 L 433.25 105.25 L 370.75 105.25 Z M 370.75 58.75 "/>
<path style="fill:none;stroke-width:1.5;stroke-linecap:butt;stroke-linejoin:miter;stroke:rgb(0%,0%,0%);stroke-opacity:0.2;stroke-dasharray:10,4;stroke-dashoffset:1;stroke-miterlimit:10;" d="M 373 61 L 431 61 L 431 103 L 373 103 Z M 373 61 "/>
<g clip-path="url(#clip1)" clip-rule="nonzero">
<g clip-path="url(#clip2)" clip-rule="nonzero">
<rect x="0" y="0" width="434" height="106" style="fill:rgb(38.039216%,50.588235%,100%);fill-opacity:0.490196;stroke:none;"/>
<path style="fill:none;stroke-width:2;stroke-linecap:butt;stroke-linejoin:miter;stroke:rgb(38.039216%,50.588235%,100%);stroke-opacity:1;stroke-miterlimit:10;" d="M 1 3 C 1 1.894531 1.894531 1 3 1 L 55 1 C 56.105469 1 57 1.894531 57 3 L 57 39 C 57 40.105469 56.105469 41 55 41 L 3 41 C 1.894531 41 1 40.105469 1 39 Z M 1 3 " transform="matrix(1,0,0,1,3,3)"/>
</g>
</g>
<g clip-path="url(#clip3)" clip-rule="nonzero">
<g clip-path="url(#clip4)" clip-rule="nonzero">
<rect x="0" y="0" width="434" height="106" style="fill:rgb(38.039216%,50.588235%,100%);fill-opacity:0.490196;stroke:none;"/>
<path style="fill:none;stroke-width:2;stroke-linecap:butt;stroke-linejoin:miter;stroke:rgb(38.039216%,50.588235%,100%);stroke-opacity:1;stroke-miterlimit:10;" d="M 1 3 C 1 1.894531 1.894531 1 3 1 L 55 1 C 56.105469 1 57 1.894531 57 3 L 57 18 C 57 19.105469 56.105469 20 55 20 L 3 20 C 1.894531 20 1 19.105469 1 18 Z M 1 3 " transform="matrix(1,0,0,1,77,3)"/>
</g>
</g>
<g clip-path="url(#clip5)" clip-rule="nonzero">
<g clip-path="url(#clip6)" clip-rule="nonzero">
<rect x="0" y="0" width="434" height="106" style="fill:rgb(38.039216%,50.588235%,100%);fill-opacity:0.490196;stroke:none;"/>
<path style="fill:none;stroke-width:2;stroke-linecap:butt;stroke-linejoin:miter;stroke:rgb(38.039216%,50.588235%,100%);stroke-opacity:1;stroke-miterlimit:10;" d="M 1 3 C 1 1.894531 1.894531 1 3 1 L 55 1 C 56.105469 1 57 1.894531 57 3 L 57 18 C 57 19.105469 56.105469 20 55 20 L 3 20 C 1.894531 20 1 19.105469 1 18 Z M 1 3 " transform="matrix(1,0,0,1,77,24)"/>
</g>
</g>
<g clip-path="url(#clip7)" clip-rule="nonzero">
<g clip-path="url(#clip8)" clip-rule="nonzero">
<rect x="0" y="0" width="434" height="106" style="fill:rgb(38.039216%,50.588235%,100%);fill-opacity:0.490196;stroke:none;"/>
<path style="fill:none;stroke-width:2;stroke-linecap:butt;stroke-linejoin:miter;stroke:rgb(38.039216%,50.588235%,100%);stroke-opacity:1;stroke-miterlimit:10;" d="M 1 3 C 1 1.894531 1.894531 1 3 1 L 26 1 C 27.105469 1 28 1.894531 28 3 L 28 18 C 28 19.105469 27.105469 20 26 20 L 3 20 C 1.894531 20 1 19.105469 1 18 Z M 1 3 " transform="matrix(1,0,0,1,151,3)"/>
</g>
</g>
<g clip-path="url(#clip9)" clip-rule="nonzero">
<g clip-path="url(#clip10)" clip-rule="nonzero">
<rect x="0" y="0" width="434" height="106" style="fill:rgb(38.039216%,50.588235%,100%);fill-opacity:0.490196;stroke:none;"/>
<path style="fill:none;stroke-width:2;stroke-linecap:butt;stroke-linejoin:miter;stroke:rgb(38.039216%,50.588235%,100%);stroke-opacity:1;stroke-miterlimit:10;" d="M 1 3 C 1 1.894531 1.894531 1 3 1 L 26 1 C 27.105469 1 28 1.894531 28 3 L 28 18 C 28 19.105469 27.105469 20 26 20 L 3 20 C 1.894531 20 1 19.105469 1 18 Z M 1 3 " transform="matrix(1,0,0,1,151,24)"/>
</g>
</g>
<g clip-path="url(#clip11)" clip-rule="nonzero">
<g clip-path="url(#clip12)" clip-rule="nonzero">
<rect x="0" y="0" width="434" height="106" style="fill:rgb(38.039216%,50.588235%,100%);fill-opacity:0.490196;stroke:none;"/>
<path style="fill:none;stroke-width:2;stroke-linecap:butt;stroke-linejoin:miter;stroke:rgb(38.039216%,50.588235%,100%);stroke-opacity:1;stroke-miterlimit:10;" d="M 1 3 C 1 1.894531 1.894531 1 3 1 L 26 1 C 27.105469 1 28 1.894531 28 3 L 28 39 C 28 40.105469 27.105469 41 26 41 L 3 41 C 1.894531 41 1 40.105469 1 39 Z M 1 3 " transform="matrix(1,0,0,1,180,3)"/>
</g>
</g>
<g clip-path="url(#clip13)" clip-rule="nonzero">
<g clip-path="url(#clip14)" clip-rule="nonzero">
<rect x="0" y="0" width="434" height="106" style="fill:rgb(38.039216%,50.588235%,100%);fill-opacity:0.490196;stroke:none;"/>
<path style="fill:none;stroke-width:2;stroke-linecap:butt;stroke-linejoin:miter;stroke:rgb(38.039216%,50.588235%,100%);stroke-opacity:1;stroke-miterlimit:10;" d="M 1 3 C 1 1.894531 1.894531 1 3 1 L 26 1 C 27.105469 1 28 1.894531 28 3 L 28 18 C 28 19.105469 27.105469 20 26 20 L 3 20 C 1.894531 20 1 19.105469 1 18 Z M 1 3 " transform="matrix(1,0,0,1,225,3)"/>
</g>
</g>
<g clip-path="url(#clip15)" clip-rule="nonzero">
<g clip-path="url(#clip16)" clip-rule="nonzero">
<rect x="0" y="0" width="434" height="106" style="fill:rgb(38.039216%,50.588235%,100%);fill-opacity:0.490196;stroke:none;"/>
<path style="fill:none;stroke-width:2;stroke-linecap:butt;stroke-linejoin:miter;stroke:rgb(38.039216%,50.588235%,100%);stroke-opacity:1;stroke-miterlimit:10;" d="M 1 3 C 1 1.894531 1.894531 1 3 1 L 26 1 C 27.105469 1 28 1.894531 28 3 L 28 18 C 28 19.105469 27.105469 20 26 20 L 3 20 C 1.894531 20 1 19.105469 1 18 Z M 1 3 " transform="matrix(1,0,0,1,225,24)"/>
</g>
</g>
<g clip-path="url(#clip17)" clip-rule="nonzero">
<g clip-path="url(#clip18)" clip-rule="nonzero">
<rect x="0" y="0" width="434" height="106" style="fill:rgb(38.039216%,50.588235%,100%);fill-opacity:0.490196;stroke:none;"/>
<path style="fill:none;stroke-width:2;stroke-linecap:butt;stroke-linejoin:miter;stroke:rgb(38.039216%,50.588235%,100%);stroke-opacity:1;stroke-miterlimit:10;" d="M 1 3 C 1 1.894531 1.894531 1 3 1 L 26 1 C 27.105469 1 28 1.894531 28 3 L 28 18 C 28 19.105469 27.105469 20 26 20 L 3 20 C 1.894531 20 1 19.105469 1 18 Z M 1 3 " transform="matrix(1,0,0,1,254,3)"/>
</g>
</g>
<g clip-path="url(#clip19)" clip-rule="nonzero">
<g clip-path="url(#clip20)" clip-rule="nonzero">
<rect x="0" y="0" width="434" height="106" style="fill:rgb(38.039216%,50.588235%,100%);fill-opacity:0.490196;stroke:none;"/>
<path style="fill:none;stroke-width:2;stroke-linecap:butt;stroke-linejoin:miter;stroke:rgb(38.039216%,50.588235%,100%);stroke-opacity:1;stroke-miterlimit:10;" d="M 1 3 C 1 1.894531 1.894531 1 3 1 L 26 1 C 27.105469 1 28 1.894531 28 3 L 28 18 C 28 19.105469 27.105469 20 26 20 L 3 20 C 1.894531 20 1 19.105469 1 18 Z M 1 3 " transform="matrix(1,0,0,1,254,24)"/>
</g>
</g>
<g clip-path="url(#clip21)" clip-rule="nonzero">
<g clip-path="url(#clip22)" clip-rule="nonzero">
<rect x="0" y="0" width="434" height="106" style="fill:rgb(38.039216%,50.588235%,100%);fill-opacity:0.490196;stroke:none;"/>
<path style="fill:none;stroke-width:2;stroke-linecap:butt;stroke-linejoin:miter;stroke:rgb(38.039216%,50.588235%,100%);stroke-opacity:1;stroke-miterlimit:10;" d="M 1 3 C 1 1.894531 1.894531 1 3 1 L 26 1 C 27.105469 1 28 1.894531 28 3 L 28 18 C 28 19.105469 27.105469 20 26 20 L 3 20 C 1.894531 20 1 19.105469 1 18 Z M 1 3 " transform="matrix(1,0,0,1,299,3)"/>
</g>
</g>
<g clip-path="url(#clip23)" clip-rule="nonzero">
<g clip-path="url(#clip24)" clip-rule="nonzero">
<rect x="0" y="0" width="434" height="106" style="fill:rgb(38.039216%,50.588235%,100%);fill-opacity:0.490196;stroke:none;"/>
<path style="fill:none;stroke-width:2;stroke-linecap:butt;stroke-linejoin:miter;stroke:rgb(38.039216%,50.588235%,100%);stroke-opacity:1;stroke-miterlimit:10;" d="M 1 3 C 1 1.894531 1.894531 1 3 1 L 26 1 C 27.105469 1 28 1.894531 28 3 L 28 18 C 28 19.105469 27.105469 20 26 20 L 3 20 C 1.894531 20 1 19.105469 1 18 Z M 1 3 " transform="matrix(1,0,0,1,299,24)"/>
</g>
</g>
<g clip-path="url(#clip25)" clip-rule="nonzero">
<g clip-path="url(#clip26)" clip-rule="nonzero">
<rect x="0" y="0" width="434" height="106" style="fill:rgb(38.039216%,50.588235%,100%);fill-opacity:0.490196;stroke:none;"/>
<path style="fill:none;stroke-width:2;stroke-linecap:butt;stroke-linejoin:miter;stroke:rgb(38.039216%,50.588235%,100%);stroke-opacity:1;stroke-miterlimit:10;" d="M 1 3 C 1 1.894531 1.894531 1 3 1 L 26 1 C 27.105469 1 28 1.894531 28 3 L 28 11 C 28 12.105469 27.105469 13 26 13 L 3 13 C 1.894531 13 1 12.105469 1 11 Z M 1 3 " transform="matrix(1,0,0,1,328,3)"/>
</g>
</g>
<g clip-path="url(#clip27)" clip-rule="nonzero">
<g clip-path="url(#clip28)" clip-rule="nonzero">
<rect x="0" y="0" width="434" height="106" style="fill:rgb(38.039216%,50.588235%,100%);fill-opacity:0.490196;stroke:none;"/>
<path style="fill:none;stroke-width:2;stroke-linecap:butt;stroke-linejoin:miter;stroke:rgb(38.039216%,50.588235%,100%);stroke-opacity:1;stroke-miterlimit:10;" d="M 1 3 C 1 1.894531 1.894531 1 3 1 L 26 1 C 27.105469 1 28 1.894531 28 3 L 28 11 C 28 12.105469 27.105469 13 26 13 L 3 13 C 1.894531 13 1 12.105469 1 11 Z M 1 3 " transform="matrix(1,0,0,1,328,17)"/>
</g>
</g>
<g clip-path="url(#clip29)" clip-rule="nonzero">
<g clip-path="url(#clip30)" clip-rule="nonzero">
<rect x="0" y="0" width="434" height="106" style="fill:rgb(38.039216%,50.588235%,100%);fill-opacity:0.490196;stroke:none;"/>
<path style="fill:none;stroke-width:2;stroke-linecap:butt;stroke-linejoin:miter;stroke:rgb(38.039216%,50.588235%,100%);stroke-opacity:1;stroke-miterlimit:10;" d="M 1 3 C 1 1.894531 1.894531 1 3 1 L 26 1 C 27.105469 1 28 1.894531 28 3 L 28 11 C 28 12.105469 27.105469 13 26 13 L 3 13 C 1.894531 13 1 12.105469 1 11 Z M 1 3 " transform="matrix(1,0,0,1,328,31)"/>
</g>
</g>
<g clip-path="url(#clip31)" clip-rule="nonzero">
<g clip-path="url(#clip32)" clip-rule="nonzero">
<rect x="0" y="0" width="434" height="106" style="fill:rgb(38.039216%,50.588235%,100%);fill-opacity:0.490196;stroke:none;"/>
<path style="fill:none;stroke-width:2;stroke-linecap:butt;stroke-linejoin:miter;stroke:rgb(38.039216%,50.588235%,100%);stroke-opacity:1;stroke-miterlimit:10;" d="M 1 3 C 1 1.894531 1.894531 1 3 1 L 26 1 C 27.105469 1 28 1.894531 28 3 L 28 11 C 28 12.105469 27.105469 13 26 13 L 3 13 C 1.894531 13 1 12.105469 1 11 Z M 1 3 " transform="matrix(1,0,0,1,373,3)"/>
</g>
</g>
<g clip-path="url(#clip33)" clip-rule="nonzero">
<g clip-path="url(#clip34)" clip-rule="nonzero">
<rect x="0" y="0" width="434" height="106" style="fill:rgb(38.039216%,50.588235%,100%);fill-opacity:0.490196;stroke:none;"/>
<path style="fill:none;stroke-width:2;stroke-linecap:butt;stroke-linejoin:miter;stroke:rgb(38.039216%,50.588235%,100%);stroke-opacity:1;stroke-miterlimit:10;" d="M 1 3 C 1 1.894531 1.894531 1 3 1 L 26 1 C 27.105469 1 28 1.894531 28 3 L 28 11 C 28 12.105469 27.105469 13 26 13 L 3 13 C 1.894531 13 1 12.105469 1 11 Z M 1 3 " transform="matrix(1,0,0,1,373,17)"/>
</g>
</g>
<g clip-path="url(#clip35)" clip-rule="nonzero">
<g clip-path="url(#clip36)" clip-rule="nonzero">
<rect x="0" y="0" width="434" height="106" style="fill:rgb(38.039216%,50.588235%,100%);fill-opacity:0.490196;stroke:none;"/>
<path style="fill:none;stroke-width:2;stroke-linecap:butt;stroke-linejoin:miter;stroke:rgb(38.039216%,50.588235%,100%);stroke-opacity:1;stroke-miterlimit:10;" d="M 1 3 C 1 1.894531 1.894531 1 3 1 L 26 1 C 27.105469 1 28 1.894531 28 3 L 28 11 C 28 12.105469 27.105469 13 26 13 L 3 13 C 1.894531 13 1 12.105469 1 11 Z M 1 3 " transform="matrix(1,0,0,1,402,3)"/>
</g>
</g>
<g clip-path="url(#clip37)" clip-rule="nonzero">
<g clip-path="url(#clip38)" clip-rule="nonzero">
<rect x="0" y="0" width="434" height="106" style="fill:rgb(38.039216%,50.588235%,100%);fill-opacity:0.490196;stroke:none;"/>
<path style="fill:none;stroke-width:2;stroke-linecap:butt;stroke-linejoin:miter;stroke:rgb(38.039216%,50.588235%,100%);stroke-opacity:1;stroke-miterlimit:10;" d="M 1 3 C 1 1.894531 1.894531 1 3 1 L 26 1 C 27.105469 1 28 1.894531 28 3 L 28 11 C 28 12.105469 27.105469 13 26 13 L 3 13 C 1.894531 13 1 12.105469 1 11 Z M 1 3 " transform="matrix(1,0,0,1,402,17)"/>
</g>
</g>
<g clip-path="url(#clip39)" clip-rule="nonzero">
<g clip-path="url(#clip40)" clip-rule="nonzero">
<rect x="0" y="0" width="434" height="106" style="fill:rgb(38.039216%,50.588235%,100%);fill-opacity:0.490196;stroke:none;"/>
<path style="fill:none;stroke-width:2;stroke-linecap:butt;stroke-linejoin:miter;stroke:rgb(38.039216%,50.588235%,100%);stroke-opacity:1;stroke-miterlimit:10;" d="M 1 3 C 1 1.894531 1.894531 1 3 1 L 26 1 C 27.105469 1 28 1.894531 28 3 L 28 11 C 28 12.105469 27.105469 13 26 13 L 3 13 C 1.894531 13 1 12.105469 1 11 Z M 1 3 " transform="matrix(1,0,0,1,402,31)"/>
</g>
</g>
<g clip-path="url(#clip41)" clip-rule="nonzero">
<g clip-path="url(#clip42)" clip-rule="nonzero">
<rect x="0" y="0" width="434" height="106" style="fill:rgb(38.039216%,50.588235%,100%);fill-opacity:0.490196;stroke:none;"/>
<path style="fill:none;stroke-width:2;stroke-linecap:butt;stroke-linejoin:miter;stroke:rgb(38.039216%,50.588235%,100%);stroke-opacity:1;stroke-miterlimit:10;" d="M 1 3 C 1 1.894531 1.894531 1 3 1 L 26 1 C 27.105469 1 28 1.894531 28 3 L 28 11 C 28 12.105469 27.105469 13 26 13 L 3 13 C 1.894531 13 1 12.105469 1 11 Z M 1 3 " transform="matrix(1,0,0,1,373,31)"/>
</g>
</g>
<g clip-path="url(#clip43)" clip-rule="nonzero">
<g clip-path="url(#clip44)" clip-rule="nonzero">
<rect x="0" y="0" width="434" height="106" style="fill:rgb(38.039216%,50.588235%,100%);fill-opacity:0.490196;stroke:none;"/>
<path style="fill:none;stroke-width:2;stroke-linecap:butt;stroke-linejoin:miter;stroke:rgb(38.039216%,50.588235%,100%);stroke-opacity:1;stroke-miterlimit:10;" d="M 1 3 C 1 1.894531 1.894531 1 3 1 L 55 1 C 56.105469 1 57 1.894531 57 3 L 57 39 C 57 40.105469 56.105469 41 55 41 L 3 41 C 1.894531 41 1 40.105469 1 39 Z M 1 3 " transform="matrix(1,0,0,1,3,61)"/>
</g>
</g>
<g clip-path="url(#clip45)" clip-rule="nonzero">
<g clip-path="url(#clip46)" clip-rule="nonzero">
<rect x="0" y="0" width="434" height="106" style="fill:rgb(38.039216%,50.588235%,100%);fill-opacity:0.490196;stroke:none;"/>
<path style="fill:none;stroke-width:2;stroke-linecap:butt;stroke-linejoin:miter;stroke:rgb(38.039216%,50.588235%,100%);stroke-opacity:1;stroke-miterlimit:10;" d="M 1 3 C 1 1.894531 1.894531 1 3 1 L 26 1 C 27.105469 1 28 1.894531 28 3 L 28 39 C 28 40.105469 27.105469 41 26 41 L 3 41 C 1.894531 41 1 40.105469 1 39 Z M 1 3 " transform="matrix(1,0,0,1,77,61)"/>
</g>
</g>
<g clip-path="url(#clip47)" clip-rule="nonzero">
<g clip-path="url(#clip48)" clip-rule="nonzero">
<rect x="0" y="0" width="434" height="106" style="fill:rgb(38.039216%,50.588235%,100%);fill-opacity:0.490196;stroke:none;"/>
<path style="fill:none;stroke-width:2;stroke-linecap:butt;stroke-linejoin:miter;stroke:rgb(38.039216%,50.588235%,100%);stroke-opacity:1;stroke-miterlimit:10;" d="M 1 3 C 1 1.894531 1.894531 1 3 1 L 26 1 C 27.105469 1 28 1.894531 28 3 L 28 39 C 28 40.105469 27.105469 41 26 41 L 3 41 C 1.894531 41 1 40.105469 1 39 Z M 1 3 " transform="matrix(1,0,0,1,106,61)"/>
</g>
</g>
<g clip-path="url(#clip49)" clip-rule="nonzero">
<g clip-path="url(#clip50)" clip-rule="nonzero">
<rect x="0" y="0" width="434" height="106" style="fill:rgb(38.039216%,50.588235%,100%);fill-opacity:0.490196;stroke:none;"/>
<path style="fill:none;stroke-width:2;stroke-linecap:butt;stroke-linejoin:miter;stroke:rgb(38.039216%,50.588235%,100%);stroke-opacity:1;stroke-miterlimit:10;" d="M 1 3 C 1 1.894531 1.894531 1 3 1 L 26 1 C 27.105469 1 28 1.894531 28 3 L 28 18 C 28 19.105469 27.105469 20 26 20 L 3 20 C 1.894531 20 1 19.105469 1 18 Z M 1 3 " transform="matrix(1,0,0,1,151,61)"/>
</g>
</g>
<g clip-path="url(#clip51)" clip-rule="nonzero">
<g clip-path="url(#clip52)" clip-rule="nonzero">
<rect x="0" y="0" width="434" height="106" style="fill:rgb(38.039216%,50.588235%,100%);fill-opacity:0.490196;stroke:none;"/>
<path style="fill:none;stroke-width:2;stroke-linecap:butt;stroke-linejoin:miter;stroke:rgb(38.039216%,50.588235%,100%);stroke-opacity:1;stroke-miterlimit:10;" d="M 1 3 C 1 1.894531 1.894531 1 3 1 L 26 1 C 27.105469 1 28 1.894531 28 3 L 28 18 C 28 19.105469 27.105469 20 26 20 L 3 20 C 1.894531 20 1 19.105469 1 18 Z M 1 3 " transform="matrix(1,0,0,1,180,61)"/>
</g>
</g>
<g clip-path="url(#clip53)" clip-rule="nonzero">
<g clip-path="url(#clip54)" clip-rule="nonzero">
<rect x="0" y="0" width="434" height="106" style="fill:rgb(38.039216%,50.588235%,100%);fill-opacity:0.490196;stroke:none;"/>
<path style="fill:none;stroke-width:2;stroke-linecap:butt;stroke-linejoin:miter;stroke:rgb(38.039216%,50.588235%,100%);stroke-opacity:1;stroke-miterlimit:10;" d="M 1 3 C 1 1.894531 1.894531 1 3 1 L 55 1 C 56.105469 1 57 1.894531 57 3 L 57 18 C 57 19.105469 56.105469 20 55 20 L 3 20 C 1.894531 20 1 19.105469 1 18 Z M 1 3 " transform="matrix(1,0,0,1,151,82)"/>
</g>
</g>
<g clip-path="url(#clip55)" clip-rule="nonzero">
<g clip-path="url(#clip56)" clip-rule="nonzero">
<rect x="0" y="0" width="434" height="106" style="fill:rgb(38.039216%,50.588235%,100%);fill-opacity:0.490196;stroke:none;"/>
<path style="fill:none;stroke-width:2;stroke-linecap:butt;stroke-linejoin:miter;stroke:rgb(38.039216%,50.588235%,100%);stroke-opacity:1;stroke-miterlimit:10;" d="M 1 3 C 1 1.894531 1.894531 1 3 1 L 26 1 C 27.105469 1 28 1.894531 28 3 L 28 18 C 28 19.105469 27.105469 20 26 20 L 3 20 C 1.894531 20 1 19.105469 1 18 Z M 1 3 " transform="matrix(1,0,0,1,225,61)"/>
</g>
</g>
<g clip-path="url(#clip57)" clip-rule="nonzero">
<g clip-path="url(#clip58)" clip-rule="nonzero">
<rect x="0" y="0" width="434" height="106" style="fill:rgb(38.039216%,50.588235%,100%);fill-opacity:0.490196;stroke:none;"/>
<path style="fill:none;stroke-width:2;stroke-linecap:butt;stroke-linejoin:miter;stroke:rgb(38.039216%,50.588235%,100%);stroke-opacity:1;stroke-miterlimit:10;" d="M 1 3 C 1 1.894531 1.894531 1 3 1 L 26 1 C 27.105469 1 28 1.894531 28 3 L 28 18 C 28 19.105469 27.105469 20 26 20 L 3 20 C 1.894531 20 1 19.105469 1 18 Z M 1 3 " transform="matrix(1,0,0,1,254,61)"/>
</g>
</g>
<g clip-path="url(#clip59)" clip-rule="nonzero">
<g clip-path="url(#clip60)" clip-rule="nonzero">
<rect x="0" y="0" width="434" height="106" style="fill:rgb(38.039216%,50.588235%,100%);fill-opacity:0.490196;stroke:none;"/>
<path style="fill:none;stroke-width:2;stroke-linecap:butt;stroke-linejoin:miter;stroke:rgb(38.039216%,50.588235%,100%);stroke-opacity:1;stroke-miterlimit:10;" d="M 1 3 C 1 1.894531 1.894531 1 3 1 L 26 1 C 27.105469 1 28 1.894531 28 3 L 28 18 C 28 19.105469 27.105469 20 26 20 L 3 20 C 1.894531 20 1 19.105469 1 18 Z M 1 3 " transform="matrix(1,0,0,1,225,82)"/>
</g>
</g>
<g clip-path="url(#clip61)" clip-rule="nonzero">
<g clip-path="url(#clip62)" clip-rule="nonzero">
<rect x="0" y="0" width="434" height="106" style="fill:rgb(38.039216%,50.588235%,100%);fill-opacity:0.490196;stroke:none;"/>
<path style="fill:none;stroke-width:2;stroke-linecap:butt;stroke-linejoin:miter;stroke:rgb(38.039216%,50.588235%,100%);stroke-opacity:1;stroke-miterlimit:10;" d="M 1 3 C 1 1.894531 1.894531 1 3 1 L 26 1 C 27.105469 1 28 1.894531 28 3 L 28 18 C 28 19.105469 27.105469 20 26 20 L 3 20 C 1.894531 20 1 19.105469 1 18 Z M 1 3 " transform="matrix(1,0,0,1,254,82)"/>
</g>
</g>
<g clip-path="url(#clip63)" clip-rule="nonzero">
<g clip-path="url(#clip64)" clip-rule="nonzero">
<rect x="0" y="0" width="434" height="106" style="fill:rgb(38.039216%,50.588235%,100%);fill-opacity:0.490196;stroke:none;"/>
<path style="fill:none;stroke-width:2;stroke-linecap:butt;stroke-linejoin:miter;stroke:rgb(38.039216%,50.588235%,100%);stroke-opacity:1;stroke-miterlimit:10;" d="M 1 3 C 1 1.894531 1.894531 1 3 1 L 26 1 C 27.105469 1 28 1.894531 28 3 L 28 18 C 28 19.105469 27.105469 20 26 20 L 3 20 C 1.894531 20 1 19.105469 1 18 Z M 1 3 " transform="matrix(1,0,0,1,299,61)"/>
</g>
</g>
<g clip-path="url(#clip65)" clip-rule="nonzero">
<g clip-path="url(#clip66)" clip-rule="nonzero">
<rect x="0" y="0" width="434" height="106" style="fill:rgb(38.039216%,50.588235%,100%);fill-opacity:0.490196;stroke:none;"/>
<path style="fill:none;stroke-width:2;stroke-linecap:butt;stroke-linejoin:miter;stroke:rgb(38.039216%,50.588235%,100%);stroke-opacity:1;stroke-miterlimit:10;" d="M 1 3 C 1 1.894531 1.894531 1 3 1 L 26 1 C 27.105469 1 28 1.894531 28 3 L 28 18 C 28 19.105469 27.105469 20 26 20 L 3 20 C 1.894531 20 1 19.105469 1 18 Z M 1 3 " transform="matrix(1,0,0,1,328,61)"/>
</g>
</g>
<g clip-path="url(#clip67)" clip-rule="nonzero">
<g clip-path="url(#clip68)" clip-rule="nonzero">
<rect x="0" y="0" width="434" height="106" style="fill:rgb(38.039216%,50.588235%,100%);fill-opacity:0.490196;stroke:none;"/>
<path style="fill:none;stroke-width:2;stroke-linecap:butt;stroke-linejoin:miter;stroke:rgb(38.039216%,50.588235%,100%);stroke-opacity:1;stroke-miterlimit:10;" d="M 1 3 C 1 1.894531 1.894531 1 3 1 L 16 1 C 17.105469 1 18 1.894531 18 3 L 18 18 C 18 19.105469 17.105469 20 16 20 L 3 20 C 1.894531 20 1 19.105469 1 18 Z M 1 3 " transform="matrix(1,0,0,1,299,82)"/>
</g>
</g>
<g clip-path="url(#clip69)" clip-rule="nonzero">
<g clip-path="url(#clip70)" clip-rule="nonzero">
<rect x="0" y="0" width="434" height="106" style="fill:rgb(38.039216%,50.588235%,100%);fill-opacity:0.490196;stroke:none;"/>
<path style="fill:none;stroke-width:2;stroke-linecap:butt;stroke-linejoin:miter;stroke:rgb(38.039216%,50.588235%,100%);stroke-opacity:1;stroke-miterlimit:10;" d="M 1 3 C 1 1.894531 1.894531 1 3 1 L 16 1 C 17.105469 1 18 1.894531 18 3 L 18 18 C 18 19.105469 17.105469 20 16 20 L 3 20 C 1.894531 20 1 19.105469 1 18 Z M 1 3 " transform="matrix(1,0,0,1,318,82)"/>
</g>
</g>
<g clip-path="url(#clip71)" clip-rule="nonzero">
<g clip-path="url(#clip72)" clip-rule="nonzero">
<rect x="0" y="0" width="434" height="106" style="fill:rgb(38.039216%,50.588235%,100%);fill-opacity:0.490196;stroke:none;"/>
<path style="fill:none;stroke-width:2;stroke-linecap:butt;stroke-linejoin:miter;stroke:rgb(38.039216%,50.588235%,100%);stroke-opacity:1;stroke-miterlimit:10;" d="M 1 3 C 1 1.894531 1.894531 1 3 1 L 16 1 C 17.105469 1 18 1.894531 18 3 L 18 18 C 18 19.105469 17.105469 20 16 20 L 3 20 C 1.894531 20 1 19.105469 1 18 Z M 1 3 " transform="matrix(1,0,0,1,337,82)"/>
</g>
</g>
<g clip-path="url(#clip73)" clip-rule="nonzero">
<g clip-path="url(#clip74)" clip-rule="nonzero">
<rect x="0" y="0" width="434" height="106" style="fill:rgb(38.039216%,50.588235%,100%);fill-opacity:0.490196;stroke:none;"/>
<path style="fill:none;stroke-width:2;stroke-linecap:butt;stroke-linejoin:miter;stroke:rgb(38.039216%,50.588235%,100%);stroke-opacity:1;stroke-miterlimit:10;" d="M 1 3 C 1 1.894531 1.894531 1 3 1 L 16 1 C 17.105469 1 18 1.894531 18 3 L 18 18 C 18 19.105469 17.105469 20 16 20 L 3 20 C 1.894531 20 1 19.105469 1 18 Z M 1 3 " transform="matrix(1,0,0,1,373,61)"/>
</g>
</g>
<g clip-path="url(#clip75)" clip-rule="nonzero">
<g clip-path="url(#clip76)" clip-rule="nonzero">
<rect x="0" y="0" width="434" height="106" style="fill:rgb(38.039216%,50.588235%,100%);fill-opacity:0.490196;stroke:none;"/>
<path style="fill:none;stroke-width:2;stroke-linecap:butt;stroke-linejoin:miter;stroke:rgb(38.039216%,50.588235%,100%);stroke-opacity:1;stroke-miterlimit:10;" d="M 1 3 C 1 1.894531 1.894531 1 3 1 L 16 1 C 17.105469 1 18 1.894531 18 3 L 18 18 C 18 19.105469 17.105469 20 16 20 L 3 20 C 1.894531 20 1 19.105469 1 18 Z M 1 3 " transform="matrix(1,0,0,1,392,61)"/>
</g>
</g>
<g clip-path="url(#clip77)" clip-rule="nonzero">
<g clip-path="url(#clip78)" clip-rule="nonzero">
<rect x="0" y="0" width="434" height="106" style="fill:rgb(38.039216%,50.588235%,100%);fill-opacity:0.490196;stroke:none;"/>
<path style="fill:none;stroke-width:2;stroke-linecap:butt;stroke-linejoin:miter;stroke:rgb(38.039216%,50.588235%,100%);stroke-opacity:1;stroke-miterlimit:10;" d="M 1 3 C 1 1.894531 1.894531 1 3 1 L 16 1 C 17.105469 1 18 1.894531 18 3 L 18 18 C 18 19.105469 17.105469 20 16 20 L 3 20 C 1.894531 20 1 19.105469 1 18 Z M 1 3 " transform="matrix(1,0,0,1,373,82)"/>
</g>
</g>
<g clip-path="url(#clip79)" clip-rule="nonzero">
<g clip-path="url(#clip80)" clip-rule="nonzero">
<rect x="0" y="0" width="434" height="106" style="fill:rgb(38.039216%,50.588235%,100%);fill-opacity:0.490196;stroke:none;"/>
<path style="fill:none;stroke-width:2;stroke-linecap:butt;stroke-linejoin:miter;stroke:rgb(38.039216%,50.588235%,100%);stroke-opacity:1;stroke-miterlimit:10;" d="M 1 3 C 1 1.894531 1.894531 1 3 1 L 16 1 C 17.105469 1 18 1.894531 18 3 L 18 18 C 18 19.105469 17.105469 20 16 20 L 3 20 C 1.894531 20 1 19.105469 1 18 Z M 1 3 " transform="matrix(1,0,0,1,392,82)"/>
</g>
</g>
<g clip-path="url(#clip81)" clip-rule="nonzero">
<g clip-path="url(#clip82)" clip-rule="nonzero">
<rect x="0" y="0" width="434" height="106" style="fill:rgb(38.039216%,50.588235%,100%);fill-opacity:0.490196;stroke:none;"/>
<path style="fill:none;stroke-width:2;stroke-linecap:butt;stroke-linejoin:miter;stroke:rgb(38.039216%,50.588235%,100%);stroke-opacity:1;stroke-miterlimit:10;" d="M 1 3 C 1 1.894531 1.894531 1 3 1 L 16 1 C 17.105469 1 18 1.894531 18 3 L 18 18 C 18 19.105469 17.105469 20 16 20 L 3 20 C 1.894531 20 1 19.105469 1 18 Z M 1 3 " transform="matrix(1,0,0,1,411,82)"/>
</g>
</g>
<g clip-path="url(#clip83)" clip-rule="nonzero">
<g clip-path="url(#clip84)" clip-rule="nonzero">
<rect x="0" y="0" width="434" height="106" style="fill:rgb(38.039216%,50.588235%,100%);fill-opacity:0.490196;stroke:none;"/>
<path style="fill:none;stroke-width:2;stroke-linecap:butt;stroke-linejoin:miter;stroke:rgb(38.039216%,50.588235%,100%);stroke-opacity:1;stroke-miterlimit:10;" d="M 1 3 C 1 1.894531 1.894531 1 3 1 L 16 1 C 17.105469 1 18 1.894531 18 3 L 18 18 C 18 19.105469 17.105469 20 16 20 L 3 20 C 1.894531 20 1 19.105469 1 18 Z M 1 3 " transform="matrix(1,0,0,1,411,61)"/>
</g>
</g>
</g>
</svg>
