<?xml version="1.0" encoding="UTF-8"?>
<svg xmlns="http://www.w3.org/2000/svg" xmlns:xlink="http://www.w3.org/1999/xlink" width="542pt" height="96pt" viewBox="0 0 542 96" version="1.1">
<g id="surface2">
<path style="fill:none;stroke-width:1.5;stroke-linecap:butt;stroke-linejoin:miter;stroke:rgb(0%,0%,0%);stroke-opacity:0.266667;stroke-dasharray:10,4;stroke-dashoffset:1;stroke-miterlimit:10;" d="M 0.75 0.75 L 127.25 0.75 L 127.25 95.25 L 0.75 95.25 Z M 0.75 0.75 "/>
<path style="fill:none;stroke-width:1.5;stroke-linecap:butt;stroke-linejoin:miter;stroke:rgb(0%,0%,0%);stroke-opacity:0.2;stroke-dasharray:10,4;stroke-dashoffset:1;stroke-miterlimit:10;" d="M 10 10 L 118 10 L 118 86 L 10 86 Z M 10 10 "/>
<path style="fill:none;stroke-width:1.5;stroke-linecap:butt;stroke-linejoin:miter;stroke:rgb(0%,0%,0%);stroke-opacity:0.266667;stroke-dasharray:10,4;stroke-dashoffset:1;stroke-miterlimit:10;" d="M 138.75 0.75 L 265.25 0.75 L 265.25 95.25 L 138.75 95.25 Z M 138.75 0.75 "/>
<path style="fill:none;stroke-width:1.5;stroke-linecap:butt;stroke-linejoin:miter;stroke:rgb(0%,0%,0%);stroke-opacity:0.2;stroke-dasharray:10,4;stroke-dashoffset:1;stroke-miterlimit:10;" d="M 148 10 L 256 10 L 256 86 L 148 86 Z M 148 10 "/>
<path style="fill:none;stroke-width:1.5;stroke-linecap:butt;stroke-linejoin:miter;stroke:rgb(0%,0%,0%);stroke-opacity:0.266667;stroke-dasharray:10,4;stroke-dashoffset:1;stroke-miterlimit:10;" d="M 276.75 0.75 L 403.25 0.75 L 403.25 95.25 L 276.75 95.25 Z M 276.75 0.75 "/>
<path style="fill:none;stroke-width:1.5;stroke-linecap:butt;stroke-linejoin:miter;stroke:rgb(0%,0%,0%);stroke-opacity:0.2;stroke-dasharray:10,4;stroke-dashoffset:1;stroke-miterlimit:10;" d="M 286 10 L 394 10 L 394 86 L 286 86 Z M 286 10 "/>
<path style="fill:none;stroke-width:1.5;stroke-linecap:butt;stroke-linejoin:miter;stroke:rgb(0%,0%,0%);stroke-opacity:0.266667;stroke-dasharray:10,4;stroke-dashoffset:1;stroke-miterlimit:10;" d="M 414.75 0.75 L 541.25 0.75 L 541.25 95.25 L 414.75 95.25 Z M 414.75 0.75 "/>
<path style="fill:none;stroke-width:1.5;stroke-linecap:butt;stroke-linejoin:miter;stroke:rgb(0%,0%,0%);stroke-opacity:0.2;stroke-dasharray:10,4;stroke-dashoffset:1;stroke-miterlimit:10;" d="M 424 10 L 532 10 L 532 86 L 424 86 Z M 424 10 "/>
<path style="fill:none;stroke-width:1.5;stroke-linecap:butt;stroke-linejoin:miter;stroke:rgb(38.039216%,50.588235%,100%);stroke-opacity:1;stroke-miterlimit:10;" d="M 0 5 C 0 2.238281 2.238281 0 5 0 L 47 0 C 49.761719 0 52 2.238281 52 5 L 52 18 C 52 20.761719 49.761719 23 47 23 L 5 23 C 2.238281 23 0 20.761719 0 18 Z M 0 5 " transform="matrix(1,0,0,1,64,60)"/>
<path style=" stroke:none;fill-rule:nonzero;fill:rgb(38.039216%,50.588235%,100%);fill-opacity:0.490196;" d="M 64 65 C 64 62.238281 66.238281 60 69 60 L 111 60 C 113.761719 60 116 62.238281 116 65 L 116 78 C 116 80.761719 113.761719 83 111 83 L 69 83 C 66.238281 83 64 80.761719 64 78 Z M 64 65 "/>
<path style="fill:none;stroke-width:1.5;stroke-linecap:butt;stroke-linejoin:miter;stroke:rgb(38.039216%,50.588235%,100%);stroke-opacity:1;stroke-miterlimit:10;" d="M 0 5 C 0 2.238281 2.238281 0 5 0 L 47 0 C 49.761719 0 52 2.238281 52 5 L 52 18 C 52 20.761719 49.761719 23 47 23 L 5 23 C 2.238281 23 0 20.761719 0 18 Z M 0 5 " transform="matrix(1,0,0,1,64,35)"/>
<path style=" stroke:none;fill-rule:nonzero;fill:rgb(38.039216%,50.588235%,100%);fill-opacity:0.490196;" d="M 64 40 C 64 37.238281 66.238281 35 69 35 L 111 35 C 113.761719 35 116 37.238281 116 40 L 116 53 C 116 55.761719 113.761719 58 111 58 L 69 58 C 66.238281 58 64 55.761719 64 53 Z M 64 40 "/>
<path style="fill:none;stroke-width:1.5;stroke-linecap:butt;stroke-linejoin:miter;stroke:rgb(38.039216%,50.588235%,100%);stroke-opacity:1;stroke-miterlimit:10;" d="M 0 5 C 0 2.238281 2.238281 0 5 0 L 47 0 C 49.761719 0 52 2.238281 52 5 L 52 18 C 52 20.761719 49.761719 23 47 23 L 5 23 C 2.238281 23 0 20.761719 0 18 Z M 0 5 " transform="matrix(1,0,0,1,64,10)"/>
<path style=" stroke:none;fill-rule:nonzero;fill:rgb(38.039216%,50.588235%,100%);fill-opacity:0.490196;" d="M 64 15 C 64 12.238281 66.238281 10 69 10 L 111 10 C 113.761719 10 116 12.238281 116 15 L 116 28 C 116 30.761719 113.761719 33 111 33 L 69 33 C 66.238281 33 64 30.761719 64 28 Z M 64 15 "/>
<path style="fill:none;stroke-width:1.5;stroke-linecap:butt;stroke-linejoin:miter;stroke:rgb(38.039216%,50.588235%,100%);stroke-opacity:1;stroke-miterlimit:10;" d="M 0 5 C 0 2.238281 2.238281 0 5 0 L 47 0 C 49.761719 0 52 2.238281 52 5 L 52 69 C 52 71.761719 49.761719 74 47 74 L 5 74 C 2.238281 74 0 71.761719 0 69 Z M 0 5 " transform="matrix(1,0,0,1,10,10)"/>
<path style=" stroke:none;fill-rule:nonzero;fill:rgb(38.039216%,50.588235%,100%);fill-opacity:0.490196;" d="M 10 15 C 10 12.238281 12.238281 10 15 10 L 57 10 C 59.761719 10 62 12.238281 62 15 L 62 79 C 62 81.761719 59.761719 84 57 84 L 15 84 C 12.238281 84 10 81.761719 10 79 Z M 10 15 "/>
<path style="fill:none;stroke-width:1.5;stroke-linecap:butt;stroke-linejoin:miter;stroke:rgb(38.039216%,50.588235%,100%);stroke-opacity:1;stroke-miterlimit:10;" d="M 0 5 C 0 2.238281 2.238281 0 5 0 L 68 0 C 70.761719 0 73 2.238281 73 5 L 73 18 C 73 20.761719 70.761719 23 68 23 L 5 23 C 2.238281 23 0 20.761719 0 18 Z M 0 5 " transform="matrix(1,0,0,1,180,60)"/>
<path style=" stroke:none;fill-rule:nonzero;fill:rgb(38.039216%,50.588235%,100%);fill-opacity:0.490196;" d="M 180 65 C 180 62.238281 182.238281 60 185 60 L 248 60 C 250.761719 60 253 62.238281 253 65 L 253 78 C 253 80.761719 250.761719 83 248 83 L 185 83 C 182.238281 83 180 80.761719 180 78 Z M 180 65 "/>
<path style="fill:none;stroke-width:1.5;stroke-linecap:butt;stroke-linejoin:miter;stroke:rgb(38.039216%,50.588235%,100%);stroke-opacity:1;stroke-miterlimit:10;" d="M 0 5 C 0 2.238281 2.238281 0 5 0 L 68 0 C 70.761719 0 73 2.238281 73 5 L 73 18 C 73 20.761719 70.761719 23 68 23 L 5 23 C 2.238281 23 0 20.761719 0 18 Z M 0 5 " transform="matrix(1,0,0,1,180,35)"/>
<path style=" stroke:none;fill-rule:nonzero;fill:rgb(38.039216%,50.588235%,100%);fill-opacity:0.490196;" d="M 180 40 C 180 37.238281 182.238281 35 185 35 L 248 35 C 250.761719 35 253 37.238281 253 40 L 253 53 C 253 55.761719 250.761719 58 248 58 L 185 58 C 182.238281 58 180 55.761719 180 53 Z M 180 40 "/>
<path style="fill:none;stroke-width:1.5;stroke-linecap:butt;stroke-linejoin:miter;stroke:rgb(38.039216%,50.588235%,100%);stroke-opacity:1;stroke-miterlimit:10;" d="M 0 5 C 0 2.238281 2.238281 0 5 0 L 68 0 C 70.761719 0 73 2.238281 73 5 L 73 18 C 73 20.761719 70.761719 23 68 23 L 5 23 C 2.238281 23 0 20.761719 0 18 Z M 0 5 " transform="matrix(1,0,0,1,180,10)"/>
<path style=" stroke:none;fill-rule:nonzero;fill:rgb(38.039216%,50.588235%,100%);fill-opacity:0.490196;" d="M 180 15 C 180 12.238281 182.238281 10 185 10 L 248 10 C 250.761719 10 253 12.238281 253 15 L 253 28 C 253 30.761719 250.761719 33 248 33 L 185 33 C 182.238281 33 180 30.761719 180 28 Z M 180 15 "/>
<path style="fill:none;stroke-width:1.5;stroke-linecap:butt;stroke-linejoin:miter;stroke:rgb(38.039216%,50.588235%,100%);stroke-opacity:1;stroke-miterlimit:10;" d="M 0 5 C 0 2.238281 2.238281 0 5 0 L 25 0 C 27.761719 0 30 2.238281 30 5 L 30 69 C 30 71.761719 27.761719 74 25 74 L 5 74 C 2.238281 74 0 71.761719 0 69 Z M 0 5 " transform="matrix(1,0,0,1,148,10)"/>
<path style=" stroke:none;fill-rule:nonzero;fill:rgb(38.039216%,50.588235%,100%);fill-opacity:0.490196;" d="M 148 15 C 148 12.238281 150.238281 10 153 10 L 173 10 C 175.761719 10 178 12.238281 178 15 L 178 79 C 178 81.761719 175.761719 84 173 84 L 153 84 C 150.238281 84 148 81.761719 148 79 Z M 148 15 "/>
<path style="fill:none;stroke-width:1.5;stroke-linecap:butt;stroke-linejoin:miter;stroke:rgb(38.039216%,50.588235%,100%);stroke-opacity:1;stroke-miterlimit:10;" d="M 0 5 C 0 2.238281 2.238281 0 5 0 L 25 0 C 27.761719 0 30 2.238281 30 5 L 30 18 C 30 20.761719 27.761719 23 25 23 L 5 23 C 2.238281 23 0 20.761719 0 18 Z M 0 5 " transform="matrix(1,0,0,1,361,60)"/>
<path style=" stroke:none;fill-rule:nonzero;fill:rgb(38.039216%,50.588235%,100%);fill-opacity:0.490196;" d="M 361 65 C 361 62.238281 363.238281 60 366 60 L 386 60 C 388.761719 60 391 62.238281 391 65 L 391 78 C 391 80.761719 388.761719 83 386 83 L 366 83 C 363.238281 83 361 80.761719 361 78 Z M 361 65 "/>
<path style="fill:none;stroke-width:1.5;stroke-linecap:butt;stroke-linejoin:miter;stroke:rgb(38.039216%,50.588235%,100%);stroke-opacity:1;stroke-miterlimit:10;" d="M 0 5 C 0 2.238281 2.238281 0 5 0 L 25 0 C 27.761719 0 30 2.238281 30 5 L 30 18 C 30 20.761719 27.761719 23 25 23 L 5 23 C 2.238281 23 0 20.761719 0 18 Z M 0 5 " transform="matrix(1,0,0,1,361,35)"/>
<path style=" stroke:none;fill-rule:nonzero;fill:rgb(38.039216%,50.588235%,100%);fill-opacity:0.490196;" d="M 361 40 C 361 37.238281 363.238281 35 366 35 L 386 35 C 388.761719 35 391 37.238281 391 40 L 391 53 C 391 55.761719 388.761719 58 386 58 L 366 58 C 363.238281 58 361 55.761719 361 53 Z M 361 40 "/>
<path style="fill:none;stroke-width:1.5;stroke-linecap:butt;stroke-linejoin:miter;stroke:rgb(38.039216%,50.588235%,100%);stroke-opacity:1;stroke-miterlimit:10;" d="M 0 5 C 0 2.238281 2.238281 0 5 0 L 25 0 C 27.761719 0 30 2.238281 30 5 L 30 18 C 30 20.761719 27.761719 23 25 23 L 5 23 C 2.238281 23 0 20.761719 0 18 Z M 0 5 " transform="matrix(1,0,0,1,361,10)"/>
<path style=" stroke:none;fill-rule:nonzero;fill:rgb(38.039216%,50.588235%,100%);fill-opacity:0.490196;" d="M 361 15 C 361 12.238281 363.238281 10 366 10 L 386 10 C 388.761719 10 391 12.238281 391 15 L 391 28 C 391 30.761719 388.761719 33 386 33 L 366 33 C 363.238281 33 361 30.761719 361 28 Z M 361 15 "/>
<path style="fill:none;stroke-width:1.5;stroke-linecap:butt;stroke-linejoin:miter;stroke:rgb(38.039216%,50.588235%,100%);stroke-opacity:1;stroke-miterlimit:10;" d="M 0 5 C 0 2.238281 2.238281 0 5 0 L 68 0 C 70.761719 0 73 2.238281 73 5 L 73 69 C 73 71.761719 70.761719 74 68 74 L 5 74 C 2.238281 74 0 71.761719 0 69 Z M 0 5 " transform="matrix(1,0,0,1,286,10)"/>
<path style=" stroke:none;fill-rule:nonzero;fill:rgb(38.039216%,50.588235%,100%);fill-opacity:0.490196;" d="M 286 15 C 286 12.238281 288.238281 10 291 10 L 354 10 C 356.761719 10 359 12.238281 359 15 L 359 79 C 359 81.761719 356.761719 84 354 84 L 291 84 C 288.238281 84 286 81.761719 286 79 Z M 286 15 "/>
<path style="fill:none;stroke-width:1.5;stroke-linecap:butt;stroke-linejoin:miter;stroke:rgb(38.039216%,50.588235%,100%);stroke-opacity:1;stroke-miterlimit:10;" d="M 0 5 C 0 2.238281 2.238281 0 5 0 L 47 0 C 49.761719 0 52 2.238281 52 5 L 52 18 C 52 20.761719 49.761719 23 47 23 L 5 23 C 2.238281 23 0 20.761719 0 18 Z M 0 5 " transform="matrix(1,0,0,1,478,60)"/>
<path style=" stroke:none;fill-rule:nonzero;fill:rgb(38.039216%,50.588235%,100%);fill-opacity:0.490196;" d="M 478 65 C 478 62.238281 480.238281 60 483 60 L 525 60 C 527.761719 60 530 62.238281 530 65 L 530 78 C 530 80.761719 527.761719 83 525 83 L 483 83 C 480.238281 83 478 80.761719 478 78 Z M 478 65 "/>
<path style="fill:none;stroke-width:1.5;stroke-linecap:butt;stroke-linejoin:miter;stroke:rgb(38.039216%,50.588235%,100%);stroke-opacity:1;stroke-miterlimit:10;" d="M 0 5 C 0 2.238281 2.238281 0 5 0 L 47 0 C 49.761719 0 52 2.238281 52 5 L 52 18 C 52 20.761719 49.761719 23 47 23 L 5 23 C 2.238281 23 0 20.761719 0 18 Z M 0 5 " transform="matrix(1,0,0,1,478,35)"/>
<path style=" stroke:none;fill-rule:nonzero;fill:rgb(38.039216%,50.588235%,100%);fill-opacity:0.490196;" d="M 478 40 C 478 37.238281 480.238281 35 483 35 L 525 35 C 527.761719 35 530 37.238281 530 40 L 530 53 C 530 55.761719 527.761719 58 525 58 L 483 58 C 480.238281 58 478 55.761719 478 53 Z M 478 40 "/>
<path style="fill:none;stroke-width:1.5;stroke-linecap:butt;stroke-linejoin:miter;stroke:rgb(38.039216%,50.588235%,100%);stroke-opacity:1;stroke-miterlimit:10;" d="M 0 5 C 0 2.238281 2.238281 0 5 0 L 47 0 C 49.761719 0 52 2.238281 52 5 L 52 18 C 52 20.761719 49.761719 23 47 23 L 5 23 C 2.238281 23 0 20.761719 0 18 Z M 0 5 " transform="matrix(1,0,0,1,478,10)"/>
<path style=" stroke:none;fill-rule:nonzero;fill:rgb(38.039216%,50.588235%,100%);fill-opacity:0.490196;" d="M 478 15 C 478 12.238281 480.238281 10 483 10 L 525 10 C 527.761719 10 530 12.238281 530 15 L 530 28 C 530 30.761719 527.761719 33 525 33 L 483 33 C 480.238281 33 478 30.761719 478 28 Z M 478 15 "/>
<path style="fill:none;stroke-width:1.5;stroke-linecap:butt;stroke-linejoin:miter;stroke:rgb(38.039216%,50.588235%,100%);stroke-opacity:1;stroke-miterlimit:10;" d="M 0 5 C 0 2.238281 2.238281 0 5 0 L 47 0 C 49.761719 0 52 2.238281 52 5 L 52 69 C 52 71.761719 49.761719 74 47 74 L 5 74 C 2.238281 74 0 71.761719 0 69 Z M 0 5 " transform="matrix(1,0,0,1,424,10)"/>
<path style=" stroke:none;fill-rule:nonzero;fill:rgb(38.039216%,50.588235%,100%);fill-opacity:0.490196;" d="M 424 15 C 424 12.238281 426.238281 10 429 10 L 471 10 C 473.761719 10 476 12.238281 476 15 L 476 79 C 476 81.761719 473.761719 84 471 84 L 429 84 C 426.238281 84 424 81.761719 424 79 Z M 424 15 "/>
</g>
</svg>
