<?xml version="1.0" encoding="UTF-8"?>
<svg xmlns="http://www.w3.org/2000/svg" xmlns:xlink="http://www.w3.org/1999/xlink" width="542pt" height="96pt" viewBox="0 0 542 96" version="1.1">
<g id="surface2">
<path style="fill:none;stroke-width:1.5;stroke-linecap:butt;stroke-linejoin:miter;stroke:rgb(0%,0%,0%);stroke-opacity:0.266667;stroke-dasharray:10,4;stroke-dashoffset:1;stroke-miterlimit:10;" d="M 0.75 0.75 L 127.25 0.75 L 127.25 95.25 L 0.75 95.25 Z M 0.75 0.75 "/>
<path style="fill:none;stroke-width:1.5;stroke-linecap:butt;stroke-linejoin:miter;stroke:rgb(0%,0%,0%);stroke-opacity:0.2;stroke-dasharray:10,4;stroke-dashoffset:1;stroke-miterlimit:10;" d="M 10 10 L 118 10 L 118 86 L 10 86 Z M 10 10 "/>
<path style="fill:none;stroke-width:1.5;stroke-linecap:butt;stroke-linejoin:miter;stroke:rgb(0%,0%,0%);stroke-opacity:0.266667;stroke-dasharray:10,4;stroke-dashoffset:1;stroke-miterlimit:10;" d="M 138.75 0.75 L 265.25 0.75 L 265.25 95.25 L 138.75 95.25 Z M 138.75 0.75 "/>
<path style="fill:none;stroke-width:1.5;stroke-linecap:butt;stroke-linejoin:miter;stroke:rgb(0%,0%,0%);stroke-opacity:0.2;stroke-dasharray:10,4;stroke-dashoffset:1;stroke-miterlimit:10;" d="M 148 10 L 256 10 L 256 86 L 148 86 Z M 148 10 "/>
<path style="fill:none;stroke-width:1.5;stroke-linecap:butt;stroke-linejoin:miter;stroke:rgb(0%,0%,0%);stroke-opacity:0.266667;stroke-dasharray:10,4;stroke-dashoffset:1;stroke-miterlimit:10;" d="M 276.75 0.75 L 403.25 0.75 L 403.25 95.25 L 276.75 95.25 Z M 276.75 0.75 "/>
<path style="fill:none;stroke-width:1.5;stroke-linecap:butt;stroke-linejoin:miter;stroke:rgb(0%,0%,0%);stroke-opacity:0.2;stroke-dasharray:10,4;stroke-dashoffset:1;stroke-miterlimit:10;" d="M 286 10 L 394 10 L 394 86 L 286 86 Z M 286 10 "/>
<path style="fill:none;stroke-width:1.5;stroke-linecap:butt;stroke-linejoin:miter;stroke:rgb(0%,0%,0%);stroke-opacity:0.266667;stroke-dasharray:10,4;stroke-dashoffset:1;stroke-miterlimit:10;" d="M 414.75 0.75 L 541.25 0.75 L 541.25 95.25 L 414.75 95.25 Z M 414.75 0.75 "/>
<path style="fill:none;stroke-width:1.5;stroke-linecap:butt;stroke-linejoin:miter;stroke:rgb(0%,0%,0%);stroke-opacity:0.2;stroke-dasharray:10,4;stroke-dashoffset:1;stroke-miterlimit:10;" d="M 424 10 L 532 10 L 532 86 L 424 86 Z M 424 10 "/>
<path style="fill:none;stroke-width:1.5;stroke-linecap:butt;stroke-linejoin:miter;stroke:rgb(38.039216%,50.588235%,100%);stroke-opacity:1;stroke-miterlimit:10;" d="M 0 5 C 0 2.238281 2.238281 0 5 0 L 101 0 C 103.761719 0 106 2.238281 106 5 L 106 18 C 106 20.761719 103.761719 23 101 23 L 5 23 C 2.238281 23 0 20.761719 0 18 Z M 0 5 " transform="matrix(1,0,0,1,10,10)"/>
<path style=" stroke:none;fill-rule:nonzero;fill:rgb(38.039216%,50.588235%,100%);fill-opacity:0.490196;" d="M 10 15 C 10 12.238281 12.238281 10 15 10 L 111 10 C 113.761719 10 116 12.238281 116 15 L 116 28 C 116 30.761719 113.761719 33 111 33 L 15 33 C 12.238281 33 10 30.761719 10 28 Z M 10 15 "/>
<path style="fill:none;stroke-width:1.5;stroke-linecap:butt;stroke-linejoin:miter;stroke:rgb(38.039216%,50.588235%,100%);stroke-opacity:1;stroke-miterlimit:10;" d="M 0 5 C 0 2.238281 2.238281 0 5 0 L 101 0 C 103.761719 0 106 2.238281 106 5 L 106 18 C 106 20.761719 103.761719 23 101 23 L 5 23 C 2.238281 23 0 20.761719 0 18 Z M 0 5 " transform="matrix(1,0,0,1,10,35)"/>
<path style=" stroke:none;fill-rule:nonzero;fill:rgb(38.039216%,50.588235%,100%);fill-opacity:0.490196;" d="M 10 40 C 10 37.238281 12.238281 35 15 35 L 111 35 C 113.761719 35 116 37.238281 116 40 L 116 53 C 116 55.761719 113.761719 58 111 58 L 15 58 C 12.238281 58 10 55.761719 10 53 Z M 10 40 "/>
<path style="fill:none;stroke-width:1.5;stroke-linecap:butt;stroke-linejoin:miter;stroke:rgb(38.039216%,50.588235%,100%);stroke-opacity:1;stroke-miterlimit:10;" d="M 0 5 C 0 2.238281 2.238281 0 5 0 L 101 0 C 103.761719 0 106 2.238281 106 5 L 106 18 C 106 20.761719 103.761719 23 101 23 L 5 23 C 2.238281 23 0 20.761719 0 18 Z M 0 5 " transform="matrix(1,0,0,1,10,60)"/>
<path style=" stroke:none;fill-rule:nonzero;fill:rgb(38.039216%,50.588235%,100%);fill-opacity:0.490196;" d="M 10 65 C 10 62.238281 12.238281 60 15 60 L 111 60 C 113.761719 60 116 62.238281 116 65 L 116 78 C 116 80.761719 113.761719 83 111 83 L 15 83 C 12.238281 83 10 80.761719 10 78 Z M 10 65 "/>
<path style="fill:none;stroke-width:1.5;stroke-linecap:butt;stroke-linejoin:miter;stroke:rgb(38.039216%,50.588235%,100%);stroke-opacity:1;stroke-miterlimit:10;" d="M 0.0015625 5.001562 C 0.0015625 2.239844 2.239844 0.0015625 5.001562 0.0015625 L 85.798438 0.0015625 C 88.560156 0.0015625 90.798438 2.239844 90.798438 5.001562 L 90.798438 53.798437 C 90.798438 56.560156 88.560156 58.798437 85.798438 58.798437 L 5.001562 58.798437 C 2.239844 58.798437 0.0015625 56.560156 0.0015625 53.798437 Z M 0.0015625 5.001562 " transform="matrix(1,0,0,1,17.6,17.6)"/>
<path style=" stroke:none;fill-rule:nonzero;fill:rgb(38.039216%,50.588235%,100%);fill-opacity:0.490196;" d="M 17.601562 22.601562 C 17.601562 19.839844 19.839844 17.601562 22.601562 17.601562 L 103.398438 17.601562 C 106.160156 17.601562 108.398438 19.839844 108.398438 22.601562 L 108.398438 71.398438 C 108.398438 74.160156 106.160156 76.398438 103.398438 76.398438 L 22.601562 76.398438 C 19.839844 76.398438 17.601562 74.160156 17.601562 71.398438 Z M 17.601562 22.601562 "/>
<path style="fill:none;stroke-width:1.5;stroke-linecap:butt;stroke-linejoin:miter;stroke:rgb(38.039216%,50.588235%,100%);stroke-opacity:1;stroke-miterlimit:10;" d="M 0 5 C 0 2.238281 2.238281 0 5 0 L 101 0 C 103.761719 0 106 2.238281 106 5 L 106 18 C 106 20.761719 103.761719 23 101 23 L 5 23 C 2.238281 23 0 20.761719 0 18 Z M 0 5 " transform="matrix(1,0,0,1,148,10)"/>
<path style=" stroke:none;fill-rule:nonzero;fill:rgb(38.039216%,50.588235%,100%);fill-opacity:0.490196;" d="M 148 15 C 148 12.238281 150.238281 10 153 10 L 249 10 C 251.761719 10 254 12.238281 254 15 L 254 28 C 254 30.761719 251.761719 33 249 33 L 153 33 C 150.238281 33 148 30.761719 148 28 Z M 148 15 "/>
<path style="fill:none;stroke-width:1.5;stroke-linecap:butt;stroke-linejoin:miter;stroke:rgb(38.039216%,50.588235%,100%);stroke-opacity:1;stroke-miterlimit:10;" d="M 0 5 C 0 2.238281 2.238281 0 5 0 L 101 0 C 103.761719 0 106 2.238281 106 5 L 106 18 C 106 20.761719 103.761719 23 101 23 L 5 23 C 2.238281 23 0 20.761719 0 18 Z M 0 5 " transform="matrix(1,0,0,1,148,35)"/>
<path style=" stroke:none;fill-rule:nonzero;fill:rgb(38.039216%,50.588235%,100%);fill-opacity:0.490196;" d="M 148 40 C 148 37.238281 150.238281 35 153 35 L 249 35 C 251.761719 35 254 37.238281 254 40 L 254 53 C 254 55.761719 251.761719 58 249 58 L 153 58 C 150.238281 58 148 55.761719 148 53 Z M 148 40 "/>
<path style="fill:none;stroke-width:1.5;stroke-linecap:butt;stroke-linejoin:miter;stroke:rgb(38.039216%,50.588235%,100%);stroke-opacity:1;stroke-miterlimit:10;" d="M 0 5 C 0 2.238281 2.238281 0 5 0 L 101 0 C 103.761719 0 106 2.238281 106 5 L 106 18 C 106 20.761719 103.761719 23 101 23 L 5 23 C 2.238281 23 0 20.761719 0 18 Z M 0 5 " transform="matrix(1,0,0,1,148,60)"/>
<path style=" stroke:none;fill-rule:nonzero;fill:rgb(38.039216%,50.588235%,100%);fill-opacity:0.490196;" d="M 148 65 C 148 62.238281 150.238281 60 153 60 L 249 60 C 251.761719 60 254 62.238281 254 65 L 254 78 C 254 80.761719 251.761719 83 249 83 L 153 83 C 150.238281 83 148 80.761719 148 78 Z M 148 65 "/>
<path style="fill:none;stroke-width:1.5;stroke-linecap:butt;stroke-linejoin:miter;stroke:rgb(38.039216%,50.588235%,100%);stroke-opacity:1;stroke-miterlimit:10;" d="M -0.00078125 4.999219 C -0.00078125 2.2375 2.2375 -0.00078125 4.999219 -0.00078125 L 70.600781 -0.00078125 C 73.3625 -0.00078125 75.600781 2.2375 75.600781 4.999219 L 75.600781 38.600781 C 75.600781 41.3625 73.3625 43.600781 70.600781 43.600781 L 4.999219 43.600781 C 2.2375 43.600781 -0.00078125 41.3625 -0.00078125 38.600781 Z M -0.00078125 4.999219 " transform="matrix(1,0,0,1,163.2,25.2)"/>
<path style=" stroke:none;fill-rule:nonzero;fill:rgb(38.039216%,50.588235%,100%);fill-opacity:0.490196;" d="M 163.199219 30.199219 C 163.199219 27.4375 165.4375 25.199219 168.199219 25.199219 L 233.800781 25.199219 C 236.5625 25.199219 238.800781 27.4375 238.800781 30.199219 L 238.800781 63.800781 C 238.800781 66.5625 236.5625 68.800781 233.800781 68.800781 L 168.199219 68.800781 C 165.4375 68.800781 163.199219 66.5625 163.199219 63.800781 Z M 163.199219 30.199219 "/>
<path style="fill:none;stroke-width:1.5;stroke-linecap:butt;stroke-linejoin:miter;stroke:rgb(38.039216%,50.588235%,100%);stroke-opacity:1;stroke-miterlimit:10;" d="M 0 5 C 0 2.238281 2.238281 0 5 0 L 101 0 C 103.761719 0 106 2.238281 106 5 L 106 18 C 106 20.761719 103.761719 23 101 23 L 5 23 C 2.238281 23 0 20.761719 0 18 Z M 0 5 " transform="matrix(1,0,0,1,286,10)"/>
<path style=" stroke:none;fill-rule:nonzero;fill:rgb(38.039216%,50.588235%,100%);fill-opacity:0.490196;" d="M 286 15 C 286 12.238281 288.238281 10 291 10 L 387 10 C 389.761719 10 392 12.238281 392 15 L 392 28 C 392 30.761719 389.761719 33 387 33 L 291 33 C 288.238281 33 286 30.761719 286 28 Z M 286 15 "/>
<path style="fill:none;stroke-width:1.5;stroke-linecap:butt;stroke-linejoin:miter;stroke:rgb(38.039216%,50.588235%,100%);stroke-opacity:1;stroke-miterlimit:10;" d="M 0 5 C 0 2.238281 2.238281 0 5 0 L 101 0 C 103.761719 0 106 2.238281 106 5 L 106 18 C 106 20.761719 103.761719 23 101 23 L 5 23 C 2.238281 23 0 20.761719 0 18 Z M 0 5 " transform="matrix(1,0,0,1,286,35)"/>
<path style=" stroke:none;fill-rule:nonzero;fill:rgb(38.039216%,50.588235%,100%);fill-opacity:0.490196;" d="M 286 40 C 286 37.238281 288.238281 35 291 35 L 387 35 C 389.761719 35 392 37.238281 392 40 L 392 53 C 392 55.761719 389.761719 58 387 58 L 291 58 C 288.238281 58 286 55.761719 286 53 Z M 286 40 "/>
<path style="fill:none;stroke-width:1.5;stroke-linecap:butt;stroke-linejoin:miter;stroke:rgb(38.039216%,50.588235%,100%);stroke-opacity:1;stroke-miterlimit:10;" d="M 0 5 C 0 2.238281 2.238281 0 5 0 L 101 0 C 103.761719 0 106 2.238281 106 5 L 106 18 C 106 20.761719 103.761719 23 101 23 L 5 23 C 2.238281 23 0 20.761719 0 18 Z M 0 5 " transform="matrix(1,0,0,1,286,60)"/>
<path style=" stroke:none;fill-rule:nonzero;fill:rgb(38.039216%,50.588235%,100%);fill-opacity:0.490196;" d="M 286 65 C 286 62.238281 288.238281 60 291 60 L 387 60 C 389.761719 60 392 62.238281 392 65 L 392 78 C 392 80.761719 389.761719 83 387 83 L 291 83 C 288.238281 83 286 80.761719 286 78 Z M 286 65 "/>
<path style="fill:none;stroke-width:1.5;stroke-linecap:butt;stroke-linejoin:miter;stroke:rgb(38.039216%,50.588235%,100%);stroke-opacity:1;stroke-miterlimit:10;" d="M 0.00078125 5.000781 C 0.00078125 2.239062 2.239062 0.00078125 5.000781 0.00078125 L 55.399219 0.00078125 C 58.160937 0.00078125 60.399219 2.239062 60.399219 5.000781 L 60.399219 23.399219 C 60.399219 26.160937 58.160937 28.399219 55.399219 28.399219 L 5.000781 28.399219 C 2.239062 28.399219 0.00078125 26.160937 0.00078125 23.399219 Z M 0.00078125 5.000781 " transform="matrix(1,0,0,1,308.8,32.8)"/>
<path style=" stroke:none;fill-rule:nonzero;fill:rgb(38.039216%,50.588235%,100%);fill-opacity:0.490196;" d="M 308.800781 37.800781 C 308.800781 35.039062 311.039062 32.800781 313.800781 32.800781 L 364.199219 32.800781 C 366.960938 32.800781 369.199219 35.039062 369.199219 37.800781 L 369.199219 56.199219 C 369.199219 58.960938 366.960938 61.199219 364.199219 61.199219 L 313.800781 61.199219 C 311.039062 61.199219 308.800781 58.960938 308.800781 56.199219 Z M 308.800781 37.800781 "/>
<path style="fill:none;stroke-width:1.5;stroke-linecap:butt;stroke-linejoin:miter;stroke:rgb(38.039216%,50.588235%,100%);stroke-opacity:1;stroke-miterlimit:10;" d="M 0 5 C 0 2.238281 2.238281 0 5 0 L 101 0 C 103.761719 0 106 2.238281 106 5 L 106 18 C 106 20.761719 103.761719 23 101 23 L 5 23 C 2.238281 23 0 20.761719 0 18 Z M 0 5 " transform="matrix(1,0,0,1,424,10)"/>
<path style=" stroke:none;fill-rule:nonzero;fill:rgb(38.039216%,50.588235%,100%);fill-opacity:0.490196;" d="M 424 15 C 424 12.238281 426.238281 10 429 10 L 525 10 C 527.761719 10 530 12.238281 530 15 L 530 28 C 530 30.761719 527.761719 33 525 33 L 429 33 C 426.238281 33 424 30.761719 424 28 Z M 424 15 "/>
<path style="fill:none;stroke-width:1.5;stroke-linecap:butt;stroke-linejoin:miter;stroke:rgb(38.039216%,50.588235%,100%);stroke-opacity:1;stroke-miterlimit:10;" d="M 0 5 C 0 2.238281 2.238281 0 5 0 L 101 0 C 103.761719 0 106 2.238281 106 5 L 106 18 C 106 20.761719 103.761719 23 101 23 L 5 23 C 2.238281 23 0 20.761719 0 18 Z M 0 5 " transform="matrix(1,0,0,1,424,35)"/>
<path style=" stroke:none;fill-rule:nonzero;fill:rgb(38.039216%,50.588235%,100%);fill-opacity:0.490196;" d="M 424 40 C 424 37.238281 426.238281 35 429 35 L 525 35 C 527.761719 35 530 37.238281 530 40 L 530 53 C 530 55.761719 527.761719 58 525 58 L 429 58 C 426.238281 58 424 55.761719 424 53 Z M 424 40 "/>
<path style="fill:none;stroke-width:1.5;stroke-linecap:butt;stroke-linejoin:miter;stroke:rgb(38.039216%,50.588235%,100%);stroke-opacity:1;stroke-miterlimit:10;" d="M 0 5 C 0 2.238281 2.238281 0 5 0 L 101 0 C 103.761719 0 106 2.238281 106 5 L 106 18 C 106 20.761719 103.761719 23 101 23 L 5 23 C 2.238281 23 0 20.761719 0 18 Z M 0 5 " transform="matrix(1,0,0,1,424,60)"/>
<path style=" stroke:none;fill-rule:nonzero;fill:rgb(38.039216%,50.588235%,100%);fill-opacity:0.490196;" d="M 424 65 C 424 62.238281 426.238281 60 429 60 L 525 60 C 527.761719 60 530 62.238281 530 65 L 530 78 C 530 80.761719 527.761719 83 525 83 L 429 83 C 426.238281 83 424 80.761719 424 78 Z M 424 65 "/>
<path style="fill:none;stroke-width:1.5;stroke-linecap:butt;stroke-linejoin:miter;stroke:rgb(38.039216%,50.588235%,100%);stroke-opacity:1;stroke-miterlimit:10;" d="M -0.0015625 4.998437 C -0.0015625 2.236719 2.236719 -0.0015625 4.998438 -0.0015625 L 40.201563 -0.0015625 C 42.963281 -0.0015625 45.201563 2.236719 45.201563 4.998437 L 45.201563 8.201562 C 45.201563 10.963281 42.963281 13.201562 40.201563 13.201562 L 4.998438 13.201562 C 2.236719 13.201562 -0.0015625 10.963281 -0.0015625 8.201562 Z M -0.0015625 4.998437 " transform="matrix(1,0,0,1,454.4,40.4)"/>
<path style=" stroke:none;fill-rule:nonzero;fill:rgb(38.039216%,50.588235%,100%);fill-opacity:0.490196;" d="M 454.398438 45.398438 C 454.398438 42.636719 456.636719 40.398438 459.398438 40.398438 L 494.601562 40.398438 C 497.363281 40.398438 499.601562 42.636719 499.601562 45.398438 L 499.601562 48.601562 C 499.601562 51.363281 497.363281 53.601562 494.601562 53.601562 L 459.398438 53.601562 C 456.636719 53.601562 454.398438 51.363281 454.398438 48.601562 Z M 454.398438 45.398438 "/>
</g>
</svg>
