<?xml version="1.0" encoding="UTF-8"?>
<svg xmlns="http://www.w3.org/2000/svg" xmlns:xlink="http://www.w3.org/1999/xlink" width="508pt" height="106pt" viewBox="0 0 508 106" version="1.1">
<defs>
<clipPath id="clip1">
  <path d="M 3 3 L 61 3 L 61 45 L 3 45 Z M 3 3 "/>
</clipPath>
<clipPath id="clip2">
  <path d="M 5 5 L 59 5 L 59 43 L 5 43 Z M 5 5 "/>
</clipPath>
<clipPath id="clip3">
  <path d="M 5 7 C 5 5.894531 5.894531 5 7 5 L 57 5 C 58.105469 5 59 5.894531 59 7 L 59 41 C 59 42.105469 58.105469 43 57 43 L 7 43 C 5.894531 43 5 42.105469 5 41 Z M 5 7 "/>
</clipPath>
<clipPath id="clip4">
  <path d="M 77 3 L 135 3 L 135 24 L 77 24 Z M 77 3 "/>
</clipPath>
<clipPath id="clip5">
  <path d="M 79 5 L 133 5 L 133 22 L 79 22 Z M 79 5 "/>
</clipPath>
<clipPath id="clip6">
  <path d="M 79 7 C 79 5.894531 79.894531 5 81 5 L 131 5 C 132.105469 5 133 5.894531 133 7 L 133 20 C 133 21.105469 132.105469 22 131 22 L 81 22 C 79.894531 22 79 21.105469 79 20 Z M 79 7 "/>
</clipPath>
<clipPath id="clip7">
  <path d="M 77 24 L 135 24 L 135 45 L 77 45 Z M 77 24 "/>
</clipPath>
<clipPath id="clip8">
  <path d="M 79 26 L 133 26 L 133 43 L 79 43 Z M 79 26 "/>
</clipPath>
<clipPath id="clip9">
  <path d="M 79 28 C 79 26.894531 79.894531 26 81 26 L 131 26 C 132.105469 26 133 26.894531 133 28 L 133 41 C 133 42.105469 132.105469 43 131 43 L 81 43 C 79.894531 43 79 42.105469 79 41 Z M 79 28 "/>
</clipPath>
<clipPath id="clip10">
  <path d="M 151 3 L 180 3 L 180 24 L 151 24 Z M 151 3 "/>
</clipPath>
<clipPath id="clip11">
  <path d="M 153 5 L 178 5 L 178 22 L 153 22 Z M 153 5 "/>
</clipPath>
<clipPath id="clip12">
  <path d="M 153 7 C 153 5.894531 153.894531 5 155 5 L 176 5 C 177.105469 5 178 5.894531 178 7 L 178 20 C 178 21.105469 177.105469 22 176 22 L 155 22 C 153.894531 22 153 21.105469 153 20 Z M 153 7 "/>
</clipPath>
<clipPath id="clip13">
  <path d="M 151 24 L 180 24 L 180 45 L 151 45 Z M 151 24 "/>
</clipPath>
<clipPath id="clip14">
  <path d="M 153 26 L 178 26 L 178 43 L 153 43 Z M 153 26 "/>
</clipPath>
<clipPath id="clip15">
  <path d="M 153 28 C 153 26.894531 153.894531 26 155 26 L 176 26 C 177.105469 26 178 26.894531 178 28 L 178 41 C 178 42.105469 177.105469 43 176 43 L 155 43 C 153.894531 43 153 42.105469 153 41 Z M 153 28 "/>
</clipPath>
<clipPath id="clip16">
  <path d="M 180 3 L 209 3 L 209 45 L 180 45 Z M 180 3 "/>
</clipPath>
<clipPath id="clip17">
  <path d="M 182 5 L 207 5 L 207 43 L 182 43 Z M 182 5 "/>
</clipPath>
<clipPath id="clip18">
  <path d="M 182 7 C 182 5.894531 182.894531 5 184 5 L 205 5 C 206.105469 5 207 5.894531 207 7 L 207 41 C 207 42.105469 206.105469 43 205 43 L 184 43 C 182.894531 43 182 42.105469 182 41 Z M 182 7 "/>
</clipPath>
<clipPath id="clip19">
  <path d="M 225 3 L 254 3 L 254 24 L 225 24 Z M 225 3 "/>
</clipPath>
<clipPath id="clip20">
  <path d="M 227 5 L 252 5 L 252 22 L 227 22 Z M 227 5 "/>
</clipPath>
<clipPath id="clip21">
  <path d="M 227 7 C 227 5.894531 227.894531 5 229 5 L 250 5 C 251.105469 5 252 5.894531 252 7 L 252 20 C 252 21.105469 251.105469 22 250 22 L 229 22 C 227.894531 22 227 21.105469 227 20 Z M 227 7 "/>
</clipPath>
<clipPath id="clip22">
  <path d="M 225 24 L 254 24 L 254 45 L 225 45 Z M 225 24 "/>
</clipPath>
<clipPath id="clip23">
  <path d="M 227 26 L 252 26 L 252 43 L 227 43 Z M 227 26 "/>
</clipPath>
<clipPath id="clip24">
  <path d="M 227 28 C 227 26.894531 227.894531 26 229 26 L 250 26 C 251.105469 26 252 26.894531 252 28 L 252 41 C 252 42.105469 251.105469 43 250 43 L 229 43 C 227.894531 43 227 42.105469 227 41 Z M 227 28 "/>
</clipPath>
<clipPath id="clip25">
  <path d="M 254 3 L 283 3 L 283 24 L 254 24 Z M 254 3 "/>
</clipPath>
<clipPath id="clip26">
  <path d="M 256 5 L 281 5 L 281 22 L 256 22 Z M 256 5 "/>
</clipPath>
<clipPath id="clip27">
  <path d="M 256 7 C 256 5.894531 256.894531 5 258 5 L 279 5 C 280.105469 5 281 5.894531 281 7 L 281 20 C 281 21.105469 280.105469 22 279 22 L 258 22 C 256.894531 22 256 21.105469 256 20 Z M 256 7 "/>
</clipPath>
<clipPath id="clip28">
  <path d="M 254 24 L 283 24 L 283 45 L 254 45 Z M 254 24 "/>
</clipPath>
<clipPath id="clip29">
  <path d="M 256 26 L 281 26 L 281 43 L 256 43 Z M 256 26 "/>
</clipPath>
<clipPath id="clip30">
  <path d="M 256 28 C 256 26.894531 256.894531 26 258 26 L 279 26 C 280.105469 26 281 26.894531 281 28 L 281 41 C 281 42.105469 280.105469 43 279 43 L 258 43 C 256.894531 43 256 42.105469 256 41 Z M 256 28 "/>
</clipPath>
<clipPath id="clip31">
  <path d="M 299 3 L 328 3 L 328 24 L 299 24 Z M 299 3 "/>
</clipPath>
<clipPath id="clip32">
  <path d="M 301 5 L 326 5 L 326 22 L 301 22 Z M 301 5 "/>
</clipPath>
<clipPath id="clip33">
  <path d="M 301 7 C 301 5.894531 301.894531 5 303 5 L 324 5 C 325.105469 5 326 5.894531 326 7 L 326 20 C 326 21.105469 325.105469 22 324 22 L 303 22 C 301.894531 22 301 21.105469 301 20 Z M 301 7 "/>
</clipPath>
<clipPath id="clip34">
  <path d="M 299 24 L 328 24 L 328 45 L 299 45 Z M 299 24 "/>
</clipPath>
<clipPath id="clip35">
  <path d="M 301 26 L 326 26 L 326 43 L 301 43 Z M 301 26 "/>
</clipPath>
<clipPath id="clip36">
  <path d="M 301 28 C 301 26.894531 301.894531 26 303 26 L 324 26 C 325.105469 26 326 26.894531 326 28 L 326 41 C 326 42.105469 325.105469 43 324 43 L 303 43 C 301.894531 43 301 42.105469 301 41 Z M 301 28 "/>
</clipPath>
<clipPath id="clip37">
  <path d="M 328 3 L 357 3 L 357 17 L 328 17 Z M 328 3 "/>
</clipPath>
<clipPath id="clip38">
  <path d="M 330 5 L 355 5 L 355 15 L 330 15 Z M 330 5 "/>
</clipPath>
<clipPath id="clip39">
  <path d="M 330 7 C 330 5.894531 330.894531 5 332 5 L 353 5 C 354.105469 5 355 5.894531 355 7 L 355 13 C 355 14.105469 354.105469 15 353 15 L 332 15 C 330.894531 15 330 14.105469 330 13 Z M 330 7 "/>
</clipPath>
<clipPath id="clip40">
  <path d="M 328 17 L 357 17 L 357 31 L 328 31 Z M 328 17 "/>
</clipPath>
<clipPath id="clip41">
  <path d="M 330 19 L 355 19 L 355 29 L 330 29 Z M 330 19 "/>
</clipPath>
<clipPath id="clip42">
  <path d="M 330 21 C 330 19.894531 330.894531 19 332 19 L 353 19 C 354.105469 19 355 19.894531 355 21 L 355 27 C 355 28.105469 354.105469 29 353 29 L 332 29 C 330.894531 29 330 28.105469 330 27 Z M 330 21 "/>
</clipPath>
<clipPath id="clip43">
  <path d="M 328 31 L 357 31 L 357 45 L 328 45 Z M 328 31 "/>
</clipPath>
<clipPath id="clip44">
  <path d="M 330 33 L 355 33 L 355 43 L 330 43 Z M 330 33 "/>
</clipPath>
<clipPath id="clip45">
  <path d="M 330 35 C 330 33.894531 330.894531 33 332 33 L 353 33 C 354.105469 33 355 33.894531 355 35 L 355 41 C 355 42.105469 354.105469 43 353 43 L 332 43 C 330.894531 43 330 42.105469 330 41 Z M 330 35 "/>
</clipPath>
<clipPath id="clip46">
  <path d="M 373 3 L 402 3 L 402 17 L 373 17 Z M 373 3 "/>
</clipPath>
<clipPath id="clip47">
  <path d="M 375 5 L 400 5 L 400 15 L 375 15 Z M 375 5 "/>
</clipPath>
<clipPath id="clip48">
  <path d="M 375 7 C 375 5.894531 375.894531 5 377 5 L 398 5 C 399.105469 5 400 5.894531 400 7 L 400 13 C 400 14.105469 399.105469 15 398 15 L 377 15 C 375.894531 15 375 14.105469 375 13 Z M 375 7 "/>
</clipPath>
<clipPath id="clip49">
  <path d="M 373 17 L 402 17 L 402 31 L 373 31 Z M 373 17 "/>
</clipPath>
<clipPath id="clip50">
  <path d="M 375 19 L 400 19 L 400 29 L 375 29 Z M 375 19 "/>
</clipPath>
<clipPath id="clip51">
  <path d="M 375 21 C 375 19.894531 375.894531 19 377 19 L 398 19 C 399.105469 19 400 19.894531 400 21 L 400 27 C 400 28.105469 399.105469 29 398 29 L 377 29 C 375.894531 29 375 28.105469 375 27 Z M 375 21 "/>
</clipPath>
<clipPath id="clip52">
  <path d="M 402 3 L 431 3 L 431 17 L 402 17 Z M 402 3 "/>
</clipPath>
<clipPath id="clip53">
  <path d="M 404 5 L 429 5 L 429 15 L 404 15 Z M 404 5 "/>
</clipPath>
<clipPath id="clip54">
  <path d="M 404 7 C 404 5.894531 404.894531 5 406 5 L 427 5 C 428.105469 5 429 5.894531 429 7 L 429 13 C 429 14.105469 428.105469 15 427 15 L 406 15 C 404.894531 15 404 14.105469 404 13 Z M 404 7 "/>
</clipPath>
<clipPath id="clip55">
  <path d="M 402 17 L 431 17 L 431 31 L 402 31 Z M 402 17 "/>
</clipPath>
<clipPath id="clip56">
  <path d="M 404 19 L 429 19 L 429 29 L 404 29 Z M 404 19 "/>
</clipPath>
<clipPath id="clip57">
  <path d="M 404 21 C 404 19.894531 404.894531 19 406 19 L 427 19 C 428.105469 19 429 19.894531 429 21 L 429 27 C 429 28.105469 428.105469 29 427 29 L 406 29 C 404.894531 29 404 28.105469 404 27 Z M 404 21 "/>
</clipPath>
<clipPath id="clip58">
  <path d="M 402 31 L 431 31 L 431 45 L 402 45 Z M 402 31 "/>
</clipPath>
<clipPath id="clip59">
  <path d="M 404 33 L 429 33 L 429 43 L 404 43 Z M 404 33 "/>
</clipPath>
<clipPath id="clip60">
  <path d="M 404 35 C 404 33.894531 404.894531 33 406 33 L 427 33 C 428.105469 33 429 33.894531 429 35 L 429 41 C 429 42.105469 428.105469 43 427 43 L 406 43 C 404.894531 43 404 42.105469 404 41 Z M 404 35 "/>
</clipPath>
<clipPath id="clip61">
  <path d="M 373 31 L 402 31 L 402 45 L 373 45 Z M 373 31 "/>
</clipPath>
<clipPath id="clip62">
  <path d="M 375 33 L 400 33 L 400 43 L 375 43 Z M 375 33 "/>
</clipPath>
<clipPath id="clip63">
  <path d="M 375 35 C 375 33.894531 375.894531 33 377 33 L 398 33 C 399.105469 33 400 33.894531 400 35 L 400 41 C 400 42.105469 399.105469 43 398 43 L 377 43 C 375.894531 43 375 42.105469 375 41 Z M 375 35 "/>
</clipPath>
<clipPath id="clip64">
  <path d="M 447 3 L 466 3 L 466 17 L 447 17 Z M 447 3 "/>
</clipPath>
<clipPath id="clip65">
  <path d="M 449 5 L 464 5 L 464 15 L 449 15 Z M 449 5 "/>
</clipPath>
<clipPath id="clip66">
  <path d="M 449 7 C 449 5.894531 449.894531 5 451 5 L 462 5 C 463.105469 5 464 5.894531 464 7 L 464 13 C 464 14.105469 463.105469 15 462 15 L 451 15 C 449.894531 15 449 14.105469 449 13 Z M 449 7 "/>
</clipPath>
<clipPath id="clip67">
  <path d="M 447 17 L 466 17 L 466 31 L 447 31 Z M 447 17 "/>
</clipPath>
<clipPath id="clip68">
  <path d="M 449 19 L 464 19 L 464 29 L 449 29 Z M 449 19 "/>
</clipPath>
<clipPath id="clip69">
  <path d="M 449 21 C 449 19.894531 449.894531 19 451 19 L 462 19 C 463.105469 19 464 19.894531 464 21 L 464 27 C 464 28.105469 463.105469 29 462 29 L 451 29 C 449.894531 29 449 28.105469 449 27 Z M 449 21 "/>
</clipPath>
<clipPath id="clip70">
  <path d="M 466 3 L 485 3 L 485 17 L 466 17 Z M 466 3 "/>
</clipPath>
<clipPath id="clip71">
  <path d="M 468 5 L 483 5 L 483 15 L 468 15 Z M 468 5 "/>
</clipPath>
<clipPath id="clip72">
  <path d="M 468 7 C 468 5.894531 468.894531 5 470 5 L 481 5 C 482.105469 5 483 5.894531 483 7 L 483 13 C 483 14.105469 482.105469 15 481 15 L 470 15 C 468.894531 15 468 14.105469 468 13 Z M 468 7 "/>
</clipPath>
<clipPath id="clip73">
  <path d="M 466 17 L 485 17 L 485 31 L 466 31 Z M 466 17 "/>
</clipPath>
<clipPath id="clip74">
  <path d="M 468 19 L 483 19 L 483 29 L 468 29 Z M 468 19 "/>
</clipPath>
<clipPath id="clip75">
  <path d="M 468 21 C 468 19.894531 468.894531 19 470 19 L 481 19 C 482.105469 19 483 19.894531 483 21 L 483 27 C 483 28.105469 482.105469 29 481 29 L 470 29 C 468.894531 29 468 28.105469 468 27 Z M 468 21 "/>
</clipPath>
<clipPath id="clip76">
  <path d="M 466 31 L 485 31 L 485 45 L 466 45 Z M 466 31 "/>
</clipPath>
<clipPath id="clip77">
  <path d="M 468 33 L 483 33 L 483 43 L 468 43 Z M 468 33 "/>
</clipPath>
<clipPath id="clip78">
  <path d="M 468 35 C 468 33.894531 468.894531 33 470 33 L 481 33 C 482.105469 33 483 33.894531 483 35 L 483 41 C 483 42.105469 482.105469 43 481 43 L 470 43 C 468.894531 43 468 42.105469 468 41 Z M 468 35 "/>
</clipPath>
<clipPath id="clip79">
  <path d="M 447 31 L 466 31 L 466 45 L 447 45 Z M 447 31 "/>
</clipPath>
<clipPath id="clip80">
  <path d="M 449 33 L 464 33 L 464 43 L 449 43 Z M 449 33 "/>
</clipPath>
<clipPath id="clip81">
  <path d="M 449 35 C 449 33.894531 449.894531 33 451 33 L 462 33 C 463.105469 33 464 33.894531 464 35 L 464 41 C 464 42.105469 463.105469 43 462 43 L 451 43 C 449.894531 43 449 42.105469 449 41 Z M 449 35 "/>
</clipPath>
<clipPath id="clip82">
  <path d="M 485 3 L 504 3 L 504 45 L 485 45 Z M 485 3 "/>
</clipPath>
<clipPath id="clip83">
  <path d="M 487 5 L 502 5 L 502 43 L 487 43 Z M 487 5 "/>
</clipPath>
<clipPath id="clip84">
  <path d="M 487 7 C 487 5.894531 487.894531 5 489 5 L 500 5 C 501.105469 5 502 5.894531 502 7 L 502 41 C 502 42.105469 501.105469 43 500 43 L 489 43 C 487.894531 43 487 42.105469 487 41 Z M 487 7 "/>
</clipPath>
<clipPath id="clip85">
  <path d="M 3 61 L 61 61 L 61 103 L 3 103 Z M 3 61 "/>
</clipPath>
<clipPath id="clip86">
  <path d="M 5 63 L 59 63 L 59 101 L 5 101 Z M 5 63 "/>
</clipPath>
<clipPath id="clip87">
  <path d="M 5 65 C 5 63.894531 5.894531 63 7 63 L 57 63 C 58.105469 63 59 63.894531 59 65 L 59 99 C 59 100.105469 58.105469 101 57 101 L 7 101 C 5.894531 101 5 100.105469 5 99 Z M 5 65 "/>
</clipPath>
<clipPath id="clip88">
  <path d="M 77 61 L 106 61 L 106 103 L 77 103 Z M 77 61 "/>
</clipPath>
<clipPath id="clip89">
  <path d="M 79 63 L 104 63 L 104 101 L 79 101 Z M 79 63 "/>
</clipPath>
<clipPath id="clip90">
  <path d="M 79 65 C 79 63.894531 79.894531 63 81 63 L 102 63 C 103.105469 63 104 63.894531 104 65 L 104 99 C 104 100.105469 103.105469 101 102 101 L 81 101 C 79.894531 101 79 100.105469 79 99 Z M 79 65 "/>
</clipPath>
<clipPath id="clip91">
  <path d="M 106 61 L 135 61 L 135 103 L 106 103 Z M 106 61 "/>
</clipPath>
<clipPath id="clip92">
  <path d="M 108 63 L 133 63 L 133 101 L 108 101 Z M 108 63 "/>
</clipPath>
<clipPath id="clip93">
  <path d="M 108 65 C 108 63.894531 108.894531 63 110 63 L 131 63 C 132.105469 63 133 63.894531 133 65 L 133 99 C 133 100.105469 132.105469 101 131 101 L 110 101 C 108.894531 101 108 100.105469 108 99 Z M 108 65 "/>
</clipPath>
<clipPath id="clip94">
  <path d="M 151 61 L 180 61 L 180 82 L 151 82 Z M 151 61 "/>
</clipPath>
<clipPath id="clip95">
  <path d="M 153 63 L 178 63 L 178 80 L 153 80 Z M 153 63 "/>
</clipPath>
<clipPath id="clip96">
  <path d="M 153 65 C 153 63.894531 153.894531 63 155 63 L 176 63 C 177.105469 63 178 63.894531 178 65 L 178 78 C 178 79.105469 177.105469 80 176 80 L 155 80 C 153.894531 80 153 79.105469 153 78 Z M 153 65 "/>
</clipPath>
<clipPath id="clip97">
  <path d="M 180 61 L 209 61 L 209 82 L 180 82 Z M 180 61 "/>
</clipPath>
<clipPath id="clip98">
  <path d="M 182 63 L 207 63 L 207 80 L 182 80 Z M 182 63 "/>
</clipPath>
<clipPath id="clip99">
  <path d="M 182 65 C 182 63.894531 182.894531 63 184 63 L 205 63 C 206.105469 63 207 63.894531 207 65 L 207 78 C 207 79.105469 206.105469 80 205 80 L 184 80 C 182.894531 80 182 79.105469 182 78 Z M 182 65 "/>
</clipPath>
<clipPath id="clip100">
  <path d="M 151 82 L 209 82 L 209 103 L 151 103 Z M 151 82 "/>
</clipPath>
<clipPath id="clip101">
  <path d="M 153 84 L 207 84 L 207 101 L 153 101 Z M 153 84 "/>
</clipPath>
<clipPath id="clip102">
  <path d="M 153 86 C 153 84.894531 153.894531 84 155 84 L 205 84 C 206.105469 84 207 84.894531 207 86 L 207 99 C 207 100.105469 206.105469 101 205 101 L 155 101 C 153.894531 101 153 100.105469 153 99 Z M 153 86 "/>
</clipPath>
<clipPath id="clip103">
  <path d="M 225 61 L 254 61 L 254 82 L 225 82 Z M 225 61 "/>
</clipPath>
<clipPath id="clip104">
  <path d="M 227 63 L 252 63 L 252 80 L 227 80 Z M 227 63 "/>
</clipPath>
<clipPath id="clip105">
  <path d="M 227 65 C 227 63.894531 227.894531 63 229 63 L 250 63 C 251.105469 63 252 63.894531 252 65 L 252 78 C 252 79.105469 251.105469 80 250 80 L 229 80 C 227.894531 80 227 79.105469 227 78 Z M 227 65 "/>
</clipPath>
<clipPath id="clip106">
  <path d="M 254 61 L 283 61 L 283 82 L 254 82 Z M 254 61 "/>
</clipPath>
<clipPath id="clip107">
  <path d="M 256 63 L 281 63 L 281 80 L 256 80 Z M 256 63 "/>
</clipPath>
<clipPath id="clip108">
  <path d="M 256 65 C 256 63.894531 256.894531 63 258 63 L 279 63 C 280.105469 63 281 63.894531 281 65 L 281 78 C 281 79.105469 280.105469 80 279 80 L 258 80 C 256.894531 80 256 79.105469 256 78 Z M 256 65 "/>
</clipPath>
<clipPath id="clip109">
  <path d="M 225 82 L 254 82 L 254 103 L 225 103 Z M 225 82 "/>
</clipPath>
<clipPath id="clip110">
  <path d="M 227 84 L 252 84 L 252 101 L 227 101 Z M 227 84 "/>
</clipPath>
<clipPath id="clip111">
  <path d="M 227 86 C 227 84.894531 227.894531 84 229 84 L 250 84 C 251.105469 84 252 84.894531 252 86 L 252 99 C 252 100.105469 251.105469 101 250 101 L 229 101 C 227.894531 101 227 100.105469 227 99 Z M 227 86 "/>
</clipPath>
<clipPath id="clip112">
  <path d="M 254 82 L 283 82 L 283 103 L 254 103 Z M 254 82 "/>
</clipPath>
<clipPath id="clip113">
  <path d="M 256 84 L 281 84 L 281 101 L 256 101 Z M 256 84 "/>
</clipPath>
<clipPath id="clip114">
  <path d="M 256 86 C 256 84.894531 256.894531 84 258 84 L 279 84 C 280.105469 84 281 84.894531 281 86 L 281 99 C 281 100.105469 280.105469 101 279 101 L 258 101 C 256.894531 101 256 100.105469 256 99 Z M 256 86 "/>
</clipPath>
<clipPath id="clip115">
  <path d="M 299 61 L 328 61 L 328 82 L 299 82 Z M 299 61 "/>
</clipPath>
<clipPath id="clip116">
  <path d="M 301 63 L 326 63 L 326 80 L 301 80 Z M 301 63 "/>
</clipPath>
<clipPath id="clip117">
  <path d="M 301 65 C 301 63.894531 301.894531 63 303 63 L 324 63 C 325.105469 63 326 63.894531 326 65 L 326 78 C 326 79.105469 325.105469 80 324 80 L 303 80 C 301.894531 80 301 79.105469 301 78 Z M 301 65 "/>
</clipPath>
<clipPath id="clip118">
  <path d="M 328 61 L 357 61 L 357 82 L 328 82 Z M 328 61 "/>
</clipPath>
<clipPath id="clip119">
  <path d="M 330 63 L 355 63 L 355 80 L 330 80 Z M 330 63 "/>
</clipPath>
<clipPath id="clip120">
  <path d="M 330 65 C 330 63.894531 330.894531 63 332 63 L 353 63 C 354.105469 63 355 63.894531 355 65 L 355 78 C 355 79.105469 354.105469 80 353 80 L 332 80 C 330.894531 80 330 79.105469 330 78 Z M 330 65 "/>
</clipPath>
<clipPath id="clip121">
  <path d="M 299 82 L 318 82 L 318 103 L 299 103 Z M 299 82 "/>
</clipPath>
<clipPath id="clip122">
  <path d="M 301 84 L 316 84 L 316 101 L 301 101 Z M 301 84 "/>
</clipPath>
<clipPath id="clip123">
  <path d="M 301 86 C 301 84.894531 301.894531 84 303 84 L 314 84 C 315.105469 84 316 84.894531 316 86 L 316 99 C 316 100.105469 315.105469 101 314 101 L 303 101 C 301.894531 101 301 100.105469 301 99 Z M 301 86 "/>
</clipPath>
<clipPath id="clip124">
  <path d="M 318 82 L 337 82 L 337 103 L 318 103 Z M 318 82 "/>
</clipPath>
<clipPath id="clip125">
  <path d="M 320 84 L 335 84 L 335 101 L 320 101 Z M 320 84 "/>
</clipPath>
<clipPath id="clip126">
  <path d="M 320 86 C 320 84.894531 320.894531 84 322 84 L 333 84 C 334.105469 84 335 84.894531 335 86 L 335 99 C 335 100.105469 334.105469 101 333 101 L 322 101 C 320.894531 101 320 100.105469 320 99 Z M 320 86 "/>
</clipPath>
<clipPath id="clip127">
  <path d="M 337 82 L 356 82 L 356 103 L 337 103 Z M 337 82 "/>
</clipPath>
<clipPath id="clip128">
  <path d="M 339 84 L 354 84 L 354 101 L 339 101 Z M 339 84 "/>
</clipPath>
<clipPath id="clip129">
  <path d="M 339 86 C 339 84.894531 339.894531 84 341 84 L 352 84 C 353.105469 84 354 84.894531 354 86 L 354 99 C 354 100.105469 353.105469 101 352 101 L 341 101 C 339.894531 101 339 100.105469 339 99 Z M 339 86 "/>
</clipPath>
<clipPath id="clip130">
  <path d="M 373 61 L 392 61 L 392 82 L 373 82 Z M 373 61 "/>
</clipPath>
<clipPath id="clip131">
  <path d="M 375 63 L 390 63 L 390 80 L 375 80 Z M 375 63 "/>
</clipPath>
<clipPath id="clip132">
  <path d="M 375 65 C 375 63.894531 375.894531 63 377 63 L 388 63 C 389.105469 63 390 63.894531 390 65 L 390 78 C 390 79.105469 389.105469 80 388 80 L 377 80 C 375.894531 80 375 79.105469 375 78 Z M 375 65 "/>
</clipPath>
<clipPath id="clip133">
  <path d="M 392 61 L 411 61 L 411 82 L 392 82 Z M 392 61 "/>
</clipPath>
<clipPath id="clip134">
  <path d="M 394 63 L 409 63 L 409 80 L 394 80 Z M 394 63 "/>
</clipPath>
<clipPath id="clip135">
  <path d="M 394 65 C 394 63.894531 394.894531 63 396 63 L 407 63 C 408.105469 63 409 63.894531 409 65 L 409 78 C 409 79.105469 408.105469 80 407 80 L 396 80 C 394.894531 80 394 79.105469 394 78 Z M 394 65 "/>
</clipPath>
<clipPath id="clip136">
  <path d="M 373 82 L 392 82 L 392 103 L 373 103 Z M 373 82 "/>
</clipPath>
<clipPath id="clip137">
  <path d="M 375 84 L 390 84 L 390 101 L 375 101 Z M 375 84 "/>
</clipPath>
<clipPath id="clip138">
  <path d="M 375 86 C 375 84.894531 375.894531 84 377 84 L 388 84 C 389.105469 84 390 84.894531 390 86 L 390 99 C 390 100.105469 389.105469 101 388 101 L 377 101 C 375.894531 101 375 100.105469 375 99 Z M 375 86 "/>
</clipPath>
<clipPath id="clip139">
  <path d="M 392 82 L 411 82 L 411 103 L 392 103 Z M 392 82 "/>
</clipPath>
<clipPath id="clip140">
  <path d="M 394 84 L 409 84 L 409 101 L 394 101 Z M 394 84 "/>
</clipPath>
<clipPath id="clip141">
  <path d="M 394 86 C 394 84.894531 394.894531 84 396 84 L 407 84 C 408.105469 84 409 84.894531 409 86 L 409 99 C 409 100.105469 408.105469 101 407 101 L 396 101 C 394.894531 101 394 100.105469 394 99 Z M 394 86 "/>
</clipPath>
<clipPath id="clip142">
  <path d="M 411 82 L 430 82 L 430 103 L 411 103 Z M 411 82 "/>
</clipPath>
<clipPath id="clip143">
  <path d="M 413 84 L 428 84 L 428 101 L 413 101 Z M 413 84 "/>
</clipPath>
<clipPath id="clip144">
  <path d="M 413 86 C 413 84.894531 413.894531 84 415 84 L 426 84 C 427.105469 84 428 84.894531 428 86 L 428 99 C 428 100.105469 427.105469 101 426 101 L 415 101 C 413.894531 101 413 100.105469 413 99 Z M 413 86 "/>
</clipPath>
<clipPath id="clip145">
  <path d="M 411 61 L 430 61 L 430 82 L 411 82 Z M 411 61 "/>
</clipPath>
<clipPath id="clip146">
  <path d="M 413 63 L 428 63 L 428 80 L 413 80 Z M 413 63 "/>
</clipPath>
<clipPath id="clip147">
  <path d="M 413 65 C 413 63.894531 413.894531 63 415 63 L 426 63 C 427.105469 63 428 63.894531 428 65 L 428 78 C 428 79.105469 427.105469 80 426 80 L 415 80 C 413.894531 80 413 79.105469 413 78 Z M 413 65 "/>
</clipPath>
<clipPath id="clip148">
  <path d="M 447 61 L 466 61 L 466 75 L 447 75 Z M 447 61 "/>
</clipPath>
<clipPath id="clip149">
  <path d="M 449 63 L 464 63 L 464 73 L 449 73 Z M 449 63 "/>
</clipPath>
<clipPath id="clip150">
  <path d="M 449 65 C 449 63.894531 449.894531 63 451 63 L 462 63 C 463.105469 63 464 63.894531 464 65 L 464 71 C 464 72.105469 463.105469 73 462 73 L 451 73 C 449.894531 73 449 72.105469 449 71 Z M 449 65 "/>
</clipPath>
<clipPath id="clip151">
  <path d="M 466 61 L 485 61 L 485 75 L 466 75 Z M 466 61 "/>
</clipPath>
<clipPath id="clip152">
  <path d="M 468 63 L 483 63 L 483 73 L 468 73 Z M 468 63 "/>
</clipPath>
<clipPath id="clip153">
  <path d="M 468 65 C 468 63.894531 468.894531 63 470 63 L 481 63 C 482.105469 63 483 63.894531 483 65 L 483 71 C 483 72.105469 482.105469 73 481 73 L 470 73 C 468.894531 73 468 72.105469 468 71 Z M 468 65 "/>
</clipPath>
<clipPath id="clip154">
  <path d="M 447 75 L 466 75 L 466 89 L 447 89 Z M 447 75 "/>
</clipPath>
<clipPath id="clip155">
  <path d="M 449 77 L 464 77 L 464 87 L 449 87 Z M 449 77 "/>
</clipPath>
<clipPath id="clip156">
  <path d="M 449 79 C 449 77.894531 449.894531 77 451 77 L 462 77 C 463.105469 77 464 77.894531 464 79 L 464 85 C 464 86.105469 463.105469 87 462 87 L 451 87 C 449.894531 87 449 86.105469 449 85 Z M 449 79 "/>
</clipPath>
<clipPath id="clip157">
  <path d="M 466 75 L 485 75 L 485 89 L 466 89 Z M 466 75 "/>
</clipPath>
<clipPath id="clip158">
  <path d="M 468 77 L 483 77 L 483 87 L 468 87 Z M 468 77 "/>
</clipPath>
<clipPath id="clip159">
  <path d="M 468 79 C 468 77.894531 468.894531 77 470 77 L 481 77 C 482.105469 77 483 77.894531 483 79 L 483 85 C 483 86.105469 482.105469 87 481 87 L 470 87 C 468.894531 87 468 86.105469 468 85 Z M 468 79 "/>
</clipPath>
<clipPath id="clip160">
  <path d="M 485 75 L 504 75 L 504 89 L 485 89 Z M 485 75 "/>
</clipPath>
<clipPath id="clip161">
  <path d="M 487 77 L 502 77 L 502 87 L 487 87 Z M 487 77 "/>
</clipPath>
<clipPath id="clip162">
  <path d="M 487 79 C 487 77.894531 487.894531 77 489 77 L 500 77 C 501.105469 77 502 77.894531 502 79 L 502 85 C 502 86.105469 501.105469 87 500 87 L 489 87 C 487.894531 87 487 86.105469 487 85 Z M 487 79 "/>
</clipPath>
<clipPath id="clip163">
  <path d="M 485 61 L 504 61 L 504 75 L 485 75 Z M 485 61 "/>
</clipPath>
<clipPath id="clip164">
  <path d="M 487 63 L 502 63 L 502 73 L 487 73 Z M 487 63 "/>
</clipPath>
<clipPath id="clip165">
  <path d="M 487 65 C 487 63.894531 487.894531 63 489 63 L 500 63 C 501.105469 63 502 63.894531 502 65 L 502 71 C 502 72.105469 501.105469 73 500 73 L 489 73 C 487.894531 73 487 72.105469 487 71 Z M 487 65 "/>
</clipPath>
<clipPath id="clip166">
  <path d="M 447 89 L 505 89 L 505 103 L 447 103 Z M 447 89 "/>
</clipPath>
<clipPath id="clip167">
  <path d="M 449 91 L 503 91 L 503 101 L 449 101 Z M 449 91 "/>
</clipPath>
<clipPath id="clip168">
  <path d="M 449 93 C 449 91.894531 449.894531 91 451 91 L 501 91 C 502.105469 91 503 91.894531 503 93 L 503 99 C 503 100.105469 502.105469 101 501 101 L 451 101 C 449.894531 101 449 100.105469 449 99 Z M 449 93 "/>
</clipPath>
</defs>
<g id="surface2">
<path style="fill:none;stroke-width:1.5;stroke-linecap:butt;stroke-linejoin:miter;stroke:rgb(0%,0%,0%);stroke-opacity:0.266667;stroke-dasharray:10,4;stroke-dashoffset:1;stroke-miterlimit:10;" d="M 0.75 0.75 L 63.25 0.75 L 63.25 47.25 L 0.75 47.25 Z M 0.75 0.75 "/>
<path style="fill:none;stroke-width:1.5;stroke-linecap:butt;stroke-linejoin:miter;stroke:rgb(0%,0%,0%);stroke-opacity:0.2;stroke-dasharray:10,4;stroke-dashoffset:1;stroke-miterlimit:10;" d="M 3 3 L 61 3 L 61 45 L 3 45 Z M 3 3 "/>
<path style="fill:none;stroke-width:1.5;stroke-linecap:butt;stroke-linejoin:miter;stroke:rgb(0%,0%,0%);stroke-opacity:0.266667;stroke-dasharray:10,4;stroke-dashoffset:1;stroke-miterlimit:10;" d="M 74.75 0.75 L 137.25 0.75 L 137.25 47.25 L 74.75 47.25 Z M 74.75 0.75 "/>
<path style="fill:none;stroke-width:1.5;stroke-linecap:butt;stroke-linejoin:miter;stroke:rgb(0%,0%,0%);stroke-opacity:0.2;stroke-dasharray:10,4;stroke-dashoffset:1;stroke-miterlimit:10;" d="M 77 3 L 135 3 L 135 45 L 77 45 Z M 77 3 "/>
<path style="fill:none;stroke-width:1.5;stroke-linecap:butt;stroke-linejoin:miter;stroke:rgb(0%,0%,0%);stroke-opacity:0.266667;stroke-dasharray:10,4;stroke-dashoffset:1;stroke-miterlimit:10;" d="M 148.75 0.75 L 211.25 0.75 L 211.25 47.25 L 148.75 47.25 Z M 148.75 0.75 "/>
<path style="fill:none;stroke-width:1.5;stroke-linecap:butt;stroke-linejoin:miter;stroke:rgb(0%,0%,0%);stroke-opacity:0.2;stroke-dasharray:10,4;stroke-dashoffset:1;stroke-miterlimit:10;" d="M 151 3 L 209 3 L 209 45 L 151 45 Z M 151 3 "/>
<path style="fill:none;stroke-width:1.5;stroke-linecap:butt;stroke-linejoin:miter;stroke:rgb(0%,0%,0%);stroke-opacity:0.266667;stroke-dasharray:10,4;stroke-dashoffset:1;stroke-miterlimit:10;" d="M 222.75 0.75 L 285.25 0.75 L 285.25 47.25 L 222.75 47.25 Z M 222.75 0.75 "/>
<path style="fill:none;stroke-width:1.5;stroke-linecap:butt;stroke-linejoin:miter;stroke:rgb(0%,0%,0%);stroke-opacity:0.2;stroke-dasharray:10,4;stroke-dashoffset:1;stroke-miterlimit:10;" d="M 225 3 L 283 3 L 283 45 L 225 45 Z M 225 3 "/>
<path style="fill:none;stroke-width:1.5;stroke-linecap:butt;stroke-linejoin:miter;stroke:rgb(0%,0%,0%);stroke-opacity:0.266667;stroke-dasharray:10,4;stroke-dashoffset:1;stroke-miterlimit:10;" d="M 296.75 0.75 L 359.25 0.75 L 359.25 47.25 L 296.75 47.25 Z M 296.75 0.75 "/>
<path style="fill:none;stroke-width:1.5;stroke-linecap:butt;stroke-linejoin:miter;stroke:rgb(0%,0%,0%);stroke-opacity:0.2;stroke-dasharray:10,4;stroke-dashoffset:1;stroke-miterlimit:10;" d="M 299 3 L 357 3 L 357 45 L 299 45 Z M 299 3 "/>
<path style="fill:none;stroke-width:1.5;stroke-linecap:butt;stroke-linejoin:miter;stroke:rgb(0%,0%,0%);stroke-opacity:0.266667;stroke-dasharray:10,4;stroke-dashoffset:1;stroke-miterlimit:10;" d="M 370.75 0.75 L 433.25 0.75 L 433.25 47.25 L 370.75 47.25 Z M 370.75 0.75 "/>
<path style="fill:none;stroke-width:1.5;stroke-linecap:butt;stroke-linejoin:miter;stroke:rgb(0%,0%,0%);stroke-opacity:0.2;stroke-dasharray:10,4;stroke-dashoffset:1;stroke-miterlimit:10;" d="M 373 3 L 431 3 L 431 45 L 373 45 Z M 373 3 "/>
<path style="fill:none;stroke-width:1.5;stroke-linecap:butt;stroke-linejoin:miter;stroke:rgb(0%,0%,0%);stroke-opacity:0.266667;stroke-dasharray:10,4;stroke-dashoffset:1;stroke-miterlimit:10;" d="M 444.75 0.75 L 507.25 0.75 L 507.25 47.25 L 444.75 47.25 Z M 444.75 0.75 "/>
<path style="fill:none;stroke-width:1.5;stroke-linecap:butt;stroke-linejoin:miter;stroke:rgb(0%,0%,0%);stroke-opacity:0.2;stroke-dasharray:10,4;stroke-dashoffset:1;stroke-miterlimit:10;" d="M 447 3 L 505 3 L 505 45 L 447 45 Z M 447 3 "/>
<path style="fill:none;stroke-width:1.5;stroke-linecap:butt;stroke-linejoin:miter;stroke:rgb(0%,0%,0%);stroke-opacity:0.266667;stroke-dasharray:10,4;stroke-dashoffset:1;stroke-miterlimit:10;" d="M 0.75 58.75 L 63.25 58.75 L 63.25 105.25 L 0.75 105.25 Z M 0.75 58.75 "/>
<path style="fill:none;stroke-width:1.5;stroke-linecap:butt;stroke-linejoin:miter;stroke:rgb(0%,0%,0%);stroke-opacity:0.2;stroke-dasharray:10,4;stroke-dashoffset:1;stroke-miterlimit:10;" d="M 3 61 L 61 61 L 61 103 L 3 103 Z M 3 61 "/>
<path style="fill:none;stroke-width:1.5;stroke-linecap:butt;stroke-linejoin:miter;stroke:rgb(0%,0%,0%);stroke-opacity:0.266667;stroke-dasharray:10,4;stroke-dashoffset:1;stroke-miterlimit:10;" d="M 74.75 58.75 L 137.25 58.75 L 137.25 105.25 L 74.75 105.25 Z M 74.75 58.75 "/>
<path style="fill:none;stroke-width:1.5;stroke-linecap:butt;stroke-linejoin:miter;stroke:rgb(0%,0%,0%);stroke-opacity:0.2;stroke-dasharray:10,4;stroke-dashoffset:1;stroke-miterlimit:10;" d="M 77 61 L 135 61 L 135 103 L 77 103 Z M 77 61 "/>
<path style="fill:none;stroke-width:1.5;stroke-linecap:butt;stroke-linejoin:miter;stroke:rgb(0%,0%,0%);stroke-opacity:0.266667;stroke-dasharray:10,4;stroke-dashoffset:1;stroke-miterlimit:10;" d="M 148.75 58.75 L 211.25 58.75 L 211.25 105.25 L 148.75 105.25 Z M 148.75 58.75 "/>
<path style="fill:none;stroke-width:1.5;stroke-linecap:butt;stroke-linejoin:miter;stroke:rgb(0%,0%,0%);stroke-opacity:0.2;stroke-dasharray:10,4;stroke-dashoffset:1;stroke-miterlimit:10;" d="M 151 61 L 209 61 L 209 103 L 151 103 Z M 151 61 "/>
<path style="fill:none;stroke-width:1.5;stroke-linecap:butt;stroke-linejoin:miter;stroke:rgb(0%,0%,0%);stroke-opacity:0.266667;stroke-dasharray:10,4;stroke-dashoffset:1;stroke-miterlimit:10;" d="M 222.75 58.75 L 285.25 58.75 L 285.25 105.25 L 222.75 105.25 Z M 222.75 58.75 "/>
<path style="fill:none;stroke-width:1.5;stroke-linecap:butt;stroke-linejoin:miter;stroke:rgb(0%,0%,0%);stroke-opacity:0.2;stroke-dasharray:10,4;stroke-dashoffset:1;stroke-miterlimit:10;" d="M 225 61 L 283 61 L 283 103 L 225 103 Z M 225 61 "/>
<path style="fill:none;stroke-width:1.5;stroke-linecap:butt;stroke-linejoin:miter;stroke:rgb(0%,0%,0%);stroke-opacity:0.266667;stroke-dasharray:10,4;stroke-dashoffset:1;stroke-miterlimit:10;" d="M 296.75 58.75 L 359.25 58.75 L 359.25 105.25 L 296.75 105.25 Z M 296.75 58.75 "/>
<path style="fill:none;stroke-width:1.5;stroke-linecap:butt;stroke-linejoin:miter;stroke:rgb(0%,0%,0%);stroke-opacity:0.2;stroke-dasharray:10,4;stroke-dashoffset:1;stroke-miterlimit:10;" d="M 299 61 L 357 61 L 357 103 L 299 103 Z M 299 61 "/>
<path style="fill:none;stroke-width:1.5;stroke-linecap:butt;stroke-linejoin:miter;stroke:rgb(0%,0%,0%);stroke-opacity:0.266667;stroke-dasharray:10,4;stroke-dashoffset:1;stroke-miterlimit:10;" d="M 370.75 58.75 L 433.25 58.75 L 433.25 105.25 L 370.75 105.25 Z M 370.75 58.75 "/>
<path style="fill:none;stroke-width:1.5;stroke-linecap:butt;stroke-linejoin:miter;stroke:rgb(0%,0%,0%);stroke-opacity:0.2;stroke-dasharray:10,4;stroke-dashoffset:1;stroke-miterlimit:10;" d="M 373 61 L 431 61 L 431 103 L 373 103 Z M 373 61 "/>
<path style="fill:none;stroke-width:1.5;stroke-linecap:butt;stroke-linejoin:miter;stroke:rgb(0%,0%,0%);stroke-opacity:0.266667;stroke-dasharray:10,4;stroke-dashoffset:1;stroke-miterlimit:10;" d="M 444.75 58.75 L 507.25 58.75 L 507.25 105.25 L 444.75 105.25 Z M 444.75 58.75 "/>
<path style="fill:none;stroke-width:1.5;stroke-linecap:butt;stroke-linejoin:miter;stroke:rgb(0%,0%,0%);stroke-opacity:0.2;stroke-dasharray:10,4;stroke-dashoffset:1;stroke-miterlimit:10;" d="M 447 61 L 505 61 L 505 103 L 447 103 Z M 447 61 "/>
<g clip-path="url(#clip1)" clip-rule="nonzero">
<path style="fill:none;stroke-width:2;stroke-linecap:butt;stroke-linejoin:miter;stroke:rgb(38.039216%,50.588235%,100%);stroke-opacity:1;stroke-miterlimit:10;" d="M 0 2 C 0 0.894531 0.894531 0 2 0 L 52 0 C 53.105469 0 54 0.894531 54 2 L 54 36 C 54 37.105469 53.105469 38 52 38 L 2 38 C 0.894531 38 0 37.105469 0 36 Z M 0 2 " transform="matrix(1,0,0,1,5,5)"/>
</g>
<path style=" stroke:none;fill-rule:nonzero;fill:rgb(38.039216%,50.588235%,100%);fill-opacity:0.490196;" d="M 5 7 C 5 5.894531 5.894531 5 7 5 L 57 5 C 58.105469 5 59 5.894531 59 7 L 59 41 C 59 42.105469 58.105469 43 57 43 L 7 43 C 5.894531 43 5 42.105469 5 41 Z M 5 7 "/>
<g clip-path="url(#clip2)" clip-rule="nonzero">
<g clip-path="url(#clip3)" clip-rule="nonzero">
<path style="fill:none;stroke-width:2;stroke-linecap:butt;stroke-linejoin:miter;stroke:rgb(38.039216%,50.588235%,100%);stroke-opacity:1;stroke-miterlimit:10;" d="M 0 2 C 0 0.894531 0.894531 0 2 0 L 52 0 C 53.105469 0 54 0.894531 54 2 L 54 36 C 54 37.105469 53.105469 38 52 38 L 2 38 C 0.894531 38 0 37.105469 0 36 Z M 0 2 " transform="matrix(1,0,0,1,5,5)"/>
</g>
</g>
<g clip-path="url(#clip4)" clip-rule="nonzero">
<path style="fill:none;stroke-width:2;stroke-linecap:butt;stroke-linejoin:miter;stroke:rgb(38.039216%,50.588235%,100%);stroke-opacity:1;stroke-miterlimit:10;" d="M 0 2 C 0 0.894531 0.894531 0 2 0 L 52 0 C 53.105469 0 54 0.894531 54 2 L 54 15 C 54 16.105469 53.105469 17 52 17 L 2 17 C 0.894531 17 0 16.105469 0 15 Z M 0 2 " transform="matrix(1,0,0,1,79,5)"/>
</g>
<path style=" stroke:none;fill-rule:nonzero;fill:rgb(38.039216%,50.588235%,100%);fill-opacity:0.490196;" d="M 79 7 C 79 5.894531 79.894531 5 81 5 L 131 5 C 132.105469 5 133 5.894531 133 7 L 133 20 C 133 21.105469 132.105469 22 131 22 L 81 22 C 79.894531 22 79 21.105469 79 20 Z M 79 7 "/>
<g clip-path="url(#clip5)" clip-rule="nonzero">
<g clip-path="url(#clip6)" clip-rule="nonzero">
<path style="fill:none;stroke-width:2;stroke-linecap:butt;stroke-linejoin:miter;stroke:rgb(38.039216%,50.588235%,100%);stroke-opacity:1;stroke-miterlimit:10;" d="M 0 2 C 0 0.894531 0.894531 0 2 0 L 52 0 C 53.105469 0 54 0.894531 54 2 L 54 15 C 54 16.105469 53.105469 17 52 17 L 2 17 C 0.894531 17 0 16.105469 0 15 Z M 0 2 " transform="matrix(1,0,0,1,79,5)"/>
</g>
</g>
<g clip-path="url(#clip7)" clip-rule="nonzero">
<path style="fill:none;stroke-width:2;stroke-linecap:butt;stroke-linejoin:miter;stroke:rgb(38.039216%,50.588235%,100%);stroke-opacity:1;stroke-miterlimit:10;" d="M 0 2 C 0 0.894531 0.894531 0 2 0 L 52 0 C 53.105469 0 54 0.894531 54 2 L 54 15 C 54 16.105469 53.105469 17 52 17 L 2 17 C 0.894531 17 0 16.105469 0 15 Z M 0 2 " transform="matrix(1,0,0,1,79,26)"/>
</g>
<path style=" stroke:none;fill-rule:nonzero;fill:rgb(38.039216%,50.588235%,100%);fill-opacity:0.490196;" d="M 79 28 C 79 26.894531 79.894531 26 81 26 L 131 26 C 132.105469 26 133 26.894531 133 28 L 133 41 C 133 42.105469 132.105469 43 131 43 L 81 43 C 79.894531 43 79 42.105469 79 41 Z M 79 28 "/>
<g clip-path="url(#clip8)" clip-rule="nonzero">
<g clip-path="url(#clip9)" clip-rule="nonzero">
<path style="fill:none;stroke-width:2;stroke-linecap:butt;stroke-linejoin:miter;stroke:rgb(38.039216%,50.588235%,100%);stroke-opacity:1;stroke-miterlimit:10;" d="M 0 2 C 0 0.894531 0.894531 0 2 0 L 52 0 C 53.105469 0 54 0.894531 54 2 L 54 15 C 54 16.105469 53.105469 17 52 17 L 2 17 C 0.894531 17 0 16.105469 0 15 Z M 0 2 " transform="matrix(1,0,0,1,79,26)"/>
</g>
</g>
<g clip-path="url(#clip10)" clip-rule="nonzero">
<path style="fill:none;stroke-width:2;stroke-linecap:butt;stroke-linejoin:miter;stroke:rgb(38.039216%,50.588235%,100%);stroke-opacity:1;stroke-miterlimit:10;" d="M 0 2 C 0 0.894531 0.894531 0 2 0 L 23 0 C 24.105469 0 25 0.894531 25 2 L 25 15 C 25 16.105469 24.105469 17 23 17 L 2 17 C 0.894531 17 0 16.105469 0 15 Z M 0 2 " transform="matrix(1,0,0,1,153,5)"/>
</g>
<path style=" stroke:none;fill-rule:nonzero;fill:rgb(38.039216%,50.588235%,100%);fill-opacity:0.490196;" d="M 153 7 C 153 5.894531 153.894531 5 155 5 L 176 5 C 177.105469 5 178 5.894531 178 7 L 178 20 C 178 21.105469 177.105469 22 176 22 L 155 22 C 153.894531 22 153 21.105469 153 20 Z M 153 7 "/>
<g clip-path="url(#clip11)" clip-rule="nonzero">
<g clip-path="url(#clip12)" clip-rule="nonzero">
<path style="fill:none;stroke-width:2;stroke-linecap:butt;stroke-linejoin:miter;stroke:rgb(38.039216%,50.588235%,100%);stroke-opacity:1;stroke-miterlimit:10;" d="M 0 2 C 0 0.894531 0.894531 0 2 0 L 23 0 C 24.105469 0 25 0.894531 25 2 L 25 15 C 25 16.105469 24.105469 17 23 17 L 2 17 C 0.894531 17 0 16.105469 0 15 Z M 0 2 " transform="matrix(1,0,0,1,153,5)"/>
</g>
</g>
<g clip-path="url(#clip13)" clip-rule="nonzero">
<path style="fill:none;stroke-width:2;stroke-linecap:butt;stroke-linejoin:miter;stroke:rgb(38.039216%,50.588235%,100%);stroke-opacity:1;stroke-miterlimit:10;" d="M 0 2 C 0 0.894531 0.894531 0 2 0 L 23 0 C 24.105469 0 25 0.894531 25 2 L 25 15 C 25 16.105469 24.105469 17 23 17 L 2 17 C 0.894531 17 0 16.105469 0 15 Z M 0 2 " transform="matrix(1,0,0,1,153,26)"/>
</g>
<path style=" stroke:none;fill-rule:nonzero;fill:rgb(38.039216%,50.588235%,100%);fill-opacity:0.490196;" d="M 153 28 C 153 26.894531 153.894531 26 155 26 L 176 26 C 177.105469 26 178 26.894531 178 28 L 178 41 C 178 42.105469 177.105469 43 176 43 L 155 43 C 153.894531 43 153 42.105469 153 41 Z M 153 28 "/>
<g clip-path="url(#clip14)" clip-rule="nonzero">
<g clip-path="url(#clip15)" clip-rule="nonzero">
<path style="fill:none;stroke-width:2;stroke-linecap:butt;stroke-linejoin:miter;stroke:rgb(38.039216%,50.588235%,100%);stroke-opacity:1;stroke-miterlimit:10;" d="M 0 2 C 0 0.894531 0.894531 0 2 0 L 23 0 C 24.105469 0 25 0.894531 25 2 L 25 15 C 25 16.105469 24.105469 17 23 17 L 2 17 C 0.894531 17 0 16.105469 0 15 Z M 0 2 " transform="matrix(1,0,0,1,153,26)"/>
</g>
</g>
<g clip-path="url(#clip16)" clip-rule="nonzero">
<path style="fill:none;stroke-width:2;stroke-linecap:butt;stroke-linejoin:miter;stroke:rgb(38.039216%,50.588235%,100%);stroke-opacity:1;stroke-miterlimit:10;" d="M 0 2 C 0 0.894531 0.894531 0 2 0 L 23 0 C 24.105469 0 25 0.894531 25 2 L 25 36 C 25 37.105469 24.105469 38 23 38 L 2 38 C 0.894531 38 0 37.105469 0 36 Z M 0 2 " transform="matrix(1,0,0,1,182,5)"/>
</g>
<path style=" stroke:none;fill-rule:nonzero;fill:rgb(38.039216%,50.588235%,100%);fill-opacity:0.490196;" d="M 182 7 C 182 5.894531 182.894531 5 184 5 L 205 5 C 206.105469 5 207 5.894531 207 7 L 207 41 C 207 42.105469 206.105469 43 205 43 L 184 43 C 182.894531 43 182 42.105469 182 41 Z M 182 7 "/>
<g clip-path="url(#clip17)" clip-rule="nonzero">
<g clip-path="url(#clip18)" clip-rule="nonzero">
<path style="fill:none;stroke-width:2;stroke-linecap:butt;stroke-linejoin:miter;stroke:rgb(38.039216%,50.588235%,100%);stroke-opacity:1;stroke-miterlimit:10;" d="M 0 2 C 0 0.894531 0.894531 0 2 0 L 23 0 C 24.105469 0 25 0.894531 25 2 L 25 36 C 25 37.105469 24.105469 38 23 38 L 2 38 C 0.894531 38 0 37.105469 0 36 Z M 0 2 " transform="matrix(1,0,0,1,182,5)"/>
</g>
</g>
<g clip-path="url(#clip19)" clip-rule="nonzero">
<path style="fill:none;stroke-width:2;stroke-linecap:butt;stroke-linejoin:miter;stroke:rgb(38.039216%,50.588235%,100%);stroke-opacity:1;stroke-miterlimit:10;" d="M 0 2 C 0 0.894531 0.894531 0 2 0 L 23 0 C 24.105469 0 25 0.894531 25 2 L 25 15 C 25 16.105469 24.105469 17 23 17 L 2 17 C 0.894531 17 0 16.105469 0 15 Z M 0 2 " transform="matrix(1,0,0,1,227,5)"/>
</g>
<path style=" stroke:none;fill-rule:nonzero;fill:rgb(38.039216%,50.588235%,100%);fill-opacity:0.490196;" d="M 227 7 C 227 5.894531 227.894531 5 229 5 L 250 5 C 251.105469 5 252 5.894531 252 7 L 252 20 C 252 21.105469 251.105469 22 250 22 L 229 22 C 227.894531 22 227 21.105469 227 20 Z M 227 7 "/>
<g clip-path="url(#clip20)" clip-rule="nonzero">
<g clip-path="url(#clip21)" clip-rule="nonzero">
<path style="fill:none;stroke-width:2;stroke-linecap:butt;stroke-linejoin:miter;stroke:rgb(38.039216%,50.588235%,100%);stroke-opacity:1;stroke-miterlimit:10;" d="M 0 2 C 0 0.894531 0.894531 0 2 0 L 23 0 C 24.105469 0 25 0.894531 25 2 L 25 15 C 25 16.105469 24.105469 17 23 17 L 2 17 C 0.894531 17 0 16.105469 0 15 Z M 0 2 " transform="matrix(1,0,0,1,227,5)"/>
</g>
</g>
<g clip-path="url(#clip22)" clip-rule="nonzero">
<path style="fill:none;stroke-width:2;stroke-linecap:butt;stroke-linejoin:miter;stroke:rgb(38.039216%,50.588235%,100%);stroke-opacity:1;stroke-miterlimit:10;" d="M 0 2 C 0 0.894531 0.894531 0 2 0 L 23 0 C 24.105469 0 25 0.894531 25 2 L 25 15 C 25 16.105469 24.105469 17 23 17 L 2 17 C 0.894531 17 0 16.105469 0 15 Z M 0 2 " transform="matrix(1,0,0,1,227,26)"/>
</g>
<path style=" stroke:none;fill-rule:nonzero;fill:rgb(38.039216%,50.588235%,100%);fill-opacity:0.490196;" d="M 227 28 C 227 26.894531 227.894531 26 229 26 L 250 26 C 251.105469 26 252 26.894531 252 28 L 252 41 C 252 42.105469 251.105469 43 250 43 L 229 43 C 227.894531 43 227 42.105469 227 41 Z M 227 28 "/>
<g clip-path="url(#clip23)" clip-rule="nonzero">
<g clip-path="url(#clip24)" clip-rule="nonzero">
<path style="fill:none;stroke-width:2;stroke-linecap:butt;stroke-linejoin:miter;stroke:rgb(38.039216%,50.588235%,100%);stroke-opacity:1;stroke-miterlimit:10;" d="M 0 2 C 0 0.894531 0.894531 0 2 0 L 23 0 C 24.105469 0 25 0.894531 25 2 L 25 15 C 25 16.105469 24.105469 17 23 17 L 2 17 C 0.894531 17 0 16.105469 0 15 Z M 0 2 " transform="matrix(1,0,0,1,227,26)"/>
</g>
</g>
<g clip-path="url(#clip25)" clip-rule="nonzero">
<path style="fill:none;stroke-width:2;stroke-linecap:butt;stroke-linejoin:miter;stroke:rgb(38.039216%,50.588235%,100%);stroke-opacity:1;stroke-miterlimit:10;" d="M 0 2 C 0 0.894531 0.894531 0 2 0 L 23 0 C 24.105469 0 25 0.894531 25 2 L 25 15 C 25 16.105469 24.105469 17 23 17 L 2 17 C 0.894531 17 0 16.105469 0 15 Z M 0 2 " transform="matrix(1,0,0,1,256,5)"/>
</g>
<path style=" stroke:none;fill-rule:nonzero;fill:rgb(38.039216%,50.588235%,100%);fill-opacity:0.490196;" d="M 256 7 C 256 5.894531 256.894531 5 258 5 L 279 5 C 280.105469 5 281 5.894531 281 7 L 281 20 C 281 21.105469 280.105469 22 279 22 L 258 22 C 256.894531 22 256 21.105469 256 20 Z M 256 7 "/>
<g clip-path="url(#clip26)" clip-rule="nonzero">
<g clip-path="url(#clip27)" clip-rule="nonzero">
<path style="fill:none;stroke-width:2;stroke-linecap:butt;stroke-linejoin:miter;stroke:rgb(38.039216%,50.588235%,100%);stroke-opacity:1;stroke-miterlimit:10;" d="M 0 2 C 0 0.894531 0.894531 0 2 0 L 23 0 C 24.105469 0 25 0.894531 25 2 L 25 15 C 25 16.105469 24.105469 17 23 17 L 2 17 C 0.894531 17 0 16.105469 0 15 Z M 0 2 " transform="matrix(1,0,0,1,256,5)"/>
</g>
</g>
<g clip-path="url(#clip28)" clip-rule="nonzero">
<path style="fill:none;stroke-width:2;stroke-linecap:butt;stroke-linejoin:miter;stroke:rgb(38.039216%,50.588235%,100%);stroke-opacity:1;stroke-miterlimit:10;" d="M 0 2 C 0 0.894531 0.894531 0 2 0 L 23 0 C 24.105469 0 25 0.894531 25 2 L 25 15 C 25 16.105469 24.105469 17 23 17 L 2 17 C 0.894531 17 0 16.105469 0 15 Z M 0 2 " transform="matrix(1,0,0,1,256,26)"/>
</g>
<path style=" stroke:none;fill-rule:nonzero;fill:rgb(38.039216%,50.588235%,100%);fill-opacity:0.490196;" d="M 256 28 C 256 26.894531 256.894531 26 258 26 L 279 26 C 280.105469 26 281 26.894531 281 28 L 281 41 C 281 42.105469 280.105469 43 279 43 L 258 43 C 256.894531 43 256 42.105469 256 41 Z M 256 28 "/>
<g clip-path="url(#clip29)" clip-rule="nonzero">
<g clip-path="url(#clip30)" clip-rule="nonzero">
<path style="fill:none;stroke-width:2;stroke-linecap:butt;stroke-linejoin:miter;stroke:rgb(38.039216%,50.588235%,100%);stroke-opacity:1;stroke-miterlimit:10;" d="M 0 2 C 0 0.894531 0.894531 0 2 0 L 23 0 C 24.105469 0 25 0.894531 25 2 L 25 15 C 25 16.105469 24.105469 17 23 17 L 2 17 C 0.894531 17 0 16.105469 0 15 Z M 0 2 " transform="matrix(1,0,0,1,256,26)"/>
</g>
</g>
<g clip-path="url(#clip31)" clip-rule="nonzero">
<path style="fill:none;stroke-width:2;stroke-linecap:butt;stroke-linejoin:miter;stroke:rgb(38.039216%,50.588235%,100%);stroke-opacity:1;stroke-miterlimit:10;" d="M 0 2 C 0 0.894531 0.894531 0 2 0 L 23 0 C 24.105469 0 25 0.894531 25 2 L 25 15 C 25 16.105469 24.105469 17 23 17 L 2 17 C 0.894531 17 0 16.105469 0 15 Z M 0 2 " transform="matrix(1,0,0,1,301,5)"/>
</g>
<path style=" stroke:none;fill-rule:nonzero;fill:rgb(38.039216%,50.588235%,100%);fill-opacity:0.490196;" d="M 301 7 C 301 5.894531 301.894531 5 303 5 L 324 5 C 325.105469 5 326 5.894531 326 7 L 326 20 C 326 21.105469 325.105469 22 324 22 L 303 22 C 301.894531 22 301 21.105469 301 20 Z M 301 7 "/>
<g clip-path="url(#clip32)" clip-rule="nonzero">
<g clip-path="url(#clip33)" clip-rule="nonzero">
<path style="fill:none;stroke-width:2;stroke-linecap:butt;stroke-linejoin:miter;stroke:rgb(38.039216%,50.588235%,100%);stroke-opacity:1;stroke-miterlimit:10;" d="M 0 2 C 0 0.894531 0.894531 0 2 0 L 23 0 C 24.105469 0 25 0.894531 25 2 L 25 15 C 25 16.105469 24.105469 17 23 17 L 2 17 C 0.894531 17 0 16.105469 0 15 Z M 0 2 " transform="matrix(1,0,0,1,301,5)"/>
</g>
</g>
<g clip-path="url(#clip34)" clip-rule="nonzero">
<path style="fill:none;stroke-width:2;stroke-linecap:butt;stroke-linejoin:miter;stroke:rgb(38.039216%,50.588235%,100%);stroke-opacity:1;stroke-miterlimit:10;" d="M 0 2 C 0 0.894531 0.894531 0 2 0 L 23 0 C 24.105469 0 25 0.894531 25 2 L 25 15 C 25 16.105469 24.105469 17 23 17 L 2 17 C 0.894531 17 0 16.105469 0 15 Z M 0 2 " transform="matrix(1,0,0,1,301,26)"/>
</g>
<path style=" stroke:none;fill-rule:nonzero;fill:rgb(38.039216%,50.588235%,100%);fill-opacity:0.490196;" d="M 301 28 C 301 26.894531 301.894531 26 303 26 L 324 26 C 325.105469 26 326 26.894531 326 28 L 326 41 C 326 42.105469 325.105469 43 324 43 L 303 43 C 301.894531 43 301 42.105469 301 41 Z M 301 28 "/>
<g clip-path="url(#clip35)" clip-rule="nonzero">
<g clip-path="url(#clip36)" clip-rule="nonzero">
<path style="fill:none;stroke-width:2;stroke-linecap:butt;stroke-linejoin:miter;stroke:rgb(38.039216%,50.588235%,100%);stroke-opacity:1;stroke-miterlimit:10;" d="M 0 2 C 0 0.894531 0.894531 0 2 0 L 23 0 C 24.105469 0 25 0.894531 25 2 L 25 15 C 25 16.105469 24.105469 17 23 17 L 2 17 C 0.894531 17 0 16.105469 0 15 Z M 0 2 " transform="matrix(1,0,0,1,301,26)"/>
</g>
</g>
<g clip-path="url(#clip37)" clip-rule="nonzero">
<path style="fill:none;stroke-width:2;stroke-linecap:butt;stroke-linejoin:miter;stroke:rgb(38.039216%,50.588235%,100%);stroke-opacity:1;stroke-miterlimit:10;" d="M 0 2 C 0 0.894531 0.894531 0 2 0 L 23 0 C 24.105469 0 25 0.894531 25 2 L 25 8 C 25 9.105469 24.105469 10 23 10 L 2 10 C 0.894531 10 0 9.105469 0 8 Z M 0 2 " transform="matrix(1,0,0,1,330,5)"/>
</g>
<path style=" stroke:none;fill-rule:nonzero;fill:rgb(38.039216%,50.588235%,100%);fill-opacity:0.490196;" d="M 330 7 C 330 5.894531 330.894531 5 332 5 L 353 5 C 354.105469 5 355 5.894531 355 7 L 355 13 C 355 14.105469 354.105469 15 353 15 L 332 15 C 330.894531 15 330 14.105469 330 13 Z M 330 7 "/>
<g clip-path="url(#clip38)" clip-rule="nonzero">
<g clip-path="url(#clip39)" clip-rule="nonzero">
<path style="fill:none;stroke-width:2;stroke-linecap:butt;stroke-linejoin:miter;stroke:rgb(38.039216%,50.588235%,100%);stroke-opacity:1;stroke-miterlimit:10;" d="M 0 2 C 0 0.894531 0.894531 0 2 0 L 23 0 C 24.105469 0 25 0.894531 25 2 L 25 8 C 25 9.105469 24.105469 10 23 10 L 2 10 C 0.894531 10 0 9.105469 0 8 Z M 0 2 " transform="matrix(1,0,0,1,330,5)"/>
</g>
</g>
<g clip-path="url(#clip40)" clip-rule="nonzero">
<path style="fill:none;stroke-width:2;stroke-linecap:butt;stroke-linejoin:miter;stroke:rgb(38.039216%,50.588235%,100%);stroke-opacity:1;stroke-miterlimit:10;" d="M 0 2 C 0 0.894531 0.894531 0 2 0 L 23 0 C 24.105469 0 25 0.894531 25 2 L 25 8 C 25 9.105469 24.105469 10 23 10 L 2 10 C 0.894531 10 0 9.105469 0 8 Z M 0 2 " transform="matrix(1,0,0,1,330,19)"/>
</g>
<path style=" stroke:none;fill-rule:nonzero;fill:rgb(38.039216%,50.588235%,100%);fill-opacity:0.490196;" d="M 330 21 C 330 19.894531 330.894531 19 332 19 L 353 19 C 354.105469 19 355 19.894531 355 21 L 355 27 C 355 28.105469 354.105469 29 353 29 L 332 29 C 330.894531 29 330 28.105469 330 27 Z M 330 21 "/>
<g clip-path="url(#clip41)" clip-rule="nonzero">
<g clip-path="url(#clip42)" clip-rule="nonzero">
<path style="fill:none;stroke-width:2;stroke-linecap:butt;stroke-linejoin:miter;stroke:rgb(38.039216%,50.588235%,100%);stroke-opacity:1;stroke-miterlimit:10;" d="M 0 2 C 0 0.894531 0.894531 0 2 0 L 23 0 C 24.105469 0 25 0.894531 25 2 L 25 8 C 25 9.105469 24.105469 10 23 10 L 2 10 C 0.894531 10 0 9.105469 0 8 Z M 0 2 " transform="matrix(1,0,0,1,330,19)"/>
</g>
</g>
<g clip-path="url(#clip43)" clip-rule="nonzero">
<path style="fill:none;stroke-width:2;stroke-linecap:butt;stroke-linejoin:miter;stroke:rgb(38.039216%,50.588235%,100%);stroke-opacity:1;stroke-miterlimit:10;" d="M 0 2 C 0 0.894531 0.894531 0 2 0 L 23 0 C 24.105469 0 25 0.894531 25 2 L 25 8 C 25 9.105469 24.105469 10 23 10 L 2 10 C 0.894531 10 0 9.105469 0 8 Z M 0 2 " transform="matrix(1,0,0,1,330,33)"/>
</g>
<path style=" stroke:none;fill-rule:nonzero;fill:rgb(38.039216%,50.588235%,100%);fill-opacity:0.490196;" d="M 330 35 C 330 33.894531 330.894531 33 332 33 L 353 33 C 354.105469 33 355 33.894531 355 35 L 355 41 C 355 42.105469 354.105469 43 353 43 L 332 43 C 330.894531 43 330 42.105469 330 41 Z M 330 35 "/>
<g clip-path="url(#clip44)" clip-rule="nonzero">
<g clip-path="url(#clip45)" clip-rule="nonzero">
<path style="fill:none;stroke-width:2;stroke-linecap:butt;stroke-linejoin:miter;stroke:rgb(38.039216%,50.588235%,100%);stroke-opacity:1;stroke-miterlimit:10;" d="M 0 2 C 0 0.894531 0.894531 0 2 0 L 23 0 C 24.105469 0 25 0.894531 25 2 L 25 8 C 25 9.105469 24.105469 10 23 10 L 2 10 C 0.894531 10 0 9.105469 0 8 Z M 0 2 " transform="matrix(1,0,0,1,330,33)"/>
</g>
</g>
<g clip-path="url(#clip46)" clip-rule="nonzero">
<path style="fill:none;stroke-width:2;stroke-linecap:butt;stroke-linejoin:miter;stroke:rgb(38.039216%,50.588235%,100%);stroke-opacity:1;stroke-miterlimit:10;" d="M 0 2 C 0 0.894531 0.894531 0 2 0 L 23 0 C 24.105469 0 25 0.894531 25 2 L 25 8 C 25 9.105469 24.105469 10 23 10 L 2 10 C 0.894531 10 0 9.105469 0 8 Z M 0 2 " transform="matrix(1,0,0,1,375,5)"/>
</g>
<path style=" stroke:none;fill-rule:nonzero;fill:rgb(38.039216%,50.588235%,100%);fill-opacity:0.490196;" d="M 375 7 C 375 5.894531 375.894531 5 377 5 L 398 5 C 399.105469 5 400 5.894531 400 7 L 400 13 C 400 14.105469 399.105469 15 398 15 L 377 15 C 375.894531 15 375 14.105469 375 13 Z M 375 7 "/>
<g clip-path="url(#clip47)" clip-rule="nonzero">
<g clip-path="url(#clip48)" clip-rule="nonzero">
<path style="fill:none;stroke-width:2;stroke-linecap:butt;stroke-linejoin:miter;stroke:rgb(38.039216%,50.588235%,100%);stroke-opacity:1;stroke-miterlimit:10;" d="M 0 2 C 0 0.894531 0.894531 0 2 0 L 23 0 C 24.105469 0 25 0.894531 25 2 L 25 8 C 25 9.105469 24.105469 10 23 10 L 2 10 C 0.894531 10 0 9.105469 0 8 Z M 0 2 " transform="matrix(1,0,0,1,375,5)"/>
</g>
</g>
<g clip-path="url(#clip49)" clip-rule="nonzero">
<path style="fill:none;stroke-width:2;stroke-linecap:butt;stroke-linejoin:miter;stroke:rgb(38.039216%,50.588235%,100%);stroke-opacity:1;stroke-miterlimit:10;" d="M 0 2 C 0 0.894531 0.894531 0 2 0 L 23 0 C 24.105469 0 25 0.894531 25 2 L 25 8 C 25 9.105469 24.105469 10 23 10 L 2 10 C 0.894531 10 0 9.105469 0 8 Z M 0 2 " transform="matrix(1,0,0,1,375,19)"/>
</g>
<path style=" stroke:none;fill-rule:nonzero;fill:rgb(38.039216%,50.588235%,100%);fill-opacity:0.490196;" d="M 375 21 C 375 19.894531 375.894531 19 377 19 L 398 19 C 399.105469 19 400 19.894531 400 21 L 400 27 C 400 28.105469 399.105469 29 398 29 L 377 29 C 375.894531 29 375 28.105469 375 27 Z M 375 21 "/>
<g clip-path="url(#clip50)" clip-rule="nonzero">
<g clip-path="url(#clip51)" clip-rule="nonzero">
<path style="fill:none;stroke-width:2;stroke-linecap:butt;stroke-linejoin:miter;stroke:rgb(38.039216%,50.588235%,100%);stroke-opacity:1;stroke-miterlimit:10;" d="M 0 2 C 0 0.894531 0.894531 0 2 0 L 23 0 C 24.105469 0 25 0.894531 25 2 L 25 8 C 25 9.105469 24.105469 10 23 10 L 2 10 C 0.894531 10 0 9.105469 0 8 Z M 0 2 " transform="matrix(1,0,0,1,375,19)"/>
</g>
</g>
<g clip-path="url(#clip52)" clip-rule="nonzero">
<path style="fill:none;stroke-width:2;stroke-linecap:butt;stroke-linejoin:miter;stroke:rgb(38.039216%,50.588235%,100%);stroke-opacity:1;stroke-miterlimit:10;" d="M 0 2 C 0 0.894531 0.894531 0 2 0 L 23 0 C 24.105469 0 25 0.894531 25 2 L 25 8 C 25 9.105469 24.105469 10 23 10 L 2 10 C 0.894531 10 0 9.105469 0 8 Z M 0 2 " transform="matrix(1,0,0,1,404,5)"/>
</g>
<path style=" stroke:none;fill-rule:nonzero;fill:rgb(38.039216%,50.588235%,100%);fill-opacity:0.490196;" d="M 404 7 C 404 5.894531 404.894531 5 406 5 L 427 5 C 428.105469 5 429 5.894531 429 7 L 429 13 C 429 14.105469 428.105469 15 427 15 L 406 15 C 404.894531 15 404 14.105469 404 13 Z M 404 7 "/>
<g clip-path="url(#clip53)" clip-rule="nonzero">
<g clip-path="url(#clip54)" clip-rule="nonzero">
<path style="fill:none;stroke-width:2;stroke-linecap:butt;stroke-linejoin:miter;stroke:rgb(38.039216%,50.588235%,100%);stroke-opacity:1;stroke-miterlimit:10;" d="M 0 2 C 0 0.894531 0.894531 0 2 0 L 23 0 C 24.105469 0 25 0.894531 25 2 L 25 8 C 25 9.105469 24.105469 10 23 10 L 2 10 C 0.894531 10 0 9.105469 0 8 Z M 0 2 " transform="matrix(1,0,0,1,404,5)"/>
</g>
</g>
<g clip-path="url(#clip55)" clip-rule="nonzero">
<path style="fill:none;stroke-width:2;stroke-linecap:butt;stroke-linejoin:miter;stroke:rgb(38.039216%,50.588235%,100%);stroke-opacity:1;stroke-miterlimit:10;" d="M 0 2 C 0 0.894531 0.894531 0 2 0 L 23 0 C 24.105469 0 25 0.894531 25 2 L 25 8 C 25 9.105469 24.105469 10 23 10 L 2 10 C 0.894531 10 0 9.105469 0 8 Z M 0 2 " transform="matrix(1,0,0,1,404,19)"/>
</g>
<path style=" stroke:none;fill-rule:nonzero;fill:rgb(38.039216%,50.588235%,100%);fill-opacity:0.490196;" d="M 404 21 C 404 19.894531 404.894531 19 406 19 L 427 19 C 428.105469 19 429 19.894531 429 21 L 429 27 C 429 28.105469 428.105469 29 427 29 L 406 29 C 404.894531 29 404 28.105469 404 27 Z M 404 21 "/>
<g clip-path="url(#clip56)" clip-rule="nonzero">
<g clip-path="url(#clip57)" clip-rule="nonzero">
<path style="fill:none;stroke-width:2;stroke-linecap:butt;stroke-linejoin:miter;stroke:rgb(38.039216%,50.588235%,100%);stroke-opacity:1;stroke-miterlimit:10;" d="M 0 2 C 0 0.894531 0.894531 0 2 0 L 23 0 C 24.105469 0 25 0.894531 25 2 L 25 8 C 25 9.105469 24.105469 10 23 10 L 2 10 C 0.894531 10 0 9.105469 0 8 Z M 0 2 " transform="matrix(1,0,0,1,404,19)"/>
</g>
</g>
<g clip-path="url(#clip58)" clip-rule="nonzero">
<path style="fill:none;stroke-width:2;stroke-linecap:butt;stroke-linejoin:miter;stroke:rgb(38.039216%,50.588235%,100%);stroke-opacity:1;stroke-miterlimit:10;" d="M 0 2 C 0 0.894531 0.894531 0 2 0 L 23 0 C 24.105469 0 25 0.894531 25 2 L 25 8 C 25 9.105469 24.105469 10 23 10 L 2 10 C 0.894531 10 0 9.105469 0 8 Z M 0 2 " transform="matrix(1,0,0,1,404,33)"/>
</g>
<path style=" stroke:none;fill-rule:nonzero;fill:rgb(38.039216%,50.588235%,100%);fill-opacity:0.490196;" d="M 404 35 C 404 33.894531 404.894531 33 406 33 L 427 33 C 428.105469 33 429 33.894531 429 35 L 429 41 C 429 42.105469 428.105469 43 427 43 L 406 43 C 404.894531 43 404 42.105469 404 41 Z M 404 35 "/>
<g clip-path="url(#clip59)" clip-rule="nonzero">
<g clip-path="url(#clip60)" clip-rule="nonzero">
<path style="fill:none;stroke-width:2;stroke-linecap:butt;stroke-linejoin:miter;stroke:rgb(38.039216%,50.588235%,100%);stroke-opacity:1;stroke-miterlimit:10;" d="M 0 2 C 0 0.894531 0.894531 0 2 0 L 23 0 C 24.105469 0 25 0.894531 25 2 L 25 8 C 25 9.105469 24.105469 10 23 10 L 2 10 C 0.894531 10 0 9.105469 0 8 Z M 0 2 " transform="matrix(1,0,0,1,404,33)"/>
</g>
</g>
<g clip-path="url(#clip61)" clip-rule="nonzero">
<path style="fill:none;stroke-width:2;stroke-linecap:butt;stroke-linejoin:miter;stroke:rgb(38.039216%,50.588235%,100%);stroke-opacity:1;stroke-miterlimit:10;" d="M 0 2 C 0 0.894531 0.894531 0 2 0 L 23 0 C 24.105469 0 25 0.894531 25 2 L 25 8 C 25 9.105469 24.105469 10 23 10 L 2 10 C 0.894531 10 0 9.105469 0 8 Z M 0 2 " transform="matrix(1,0,0,1,375,33)"/>
</g>
<path style=" stroke:none;fill-rule:nonzero;fill:rgb(38.039216%,50.588235%,100%);fill-opacity:0.490196;" d="M 375 35 C 375 33.894531 375.894531 33 377 33 L 398 33 C 399.105469 33 400 33.894531 400 35 L 400 41 C 400 42.105469 399.105469 43 398 43 L 377 43 C 375.894531 43 375 42.105469 375 41 Z M 375 35 "/>
<g clip-path="url(#clip62)" clip-rule="nonzero">
<g clip-path="url(#clip63)" clip-rule="nonzero">
<path style="fill:none;stroke-width:2;stroke-linecap:butt;stroke-linejoin:miter;stroke:rgb(38.039216%,50.588235%,100%);stroke-opacity:1;stroke-miterlimit:10;" d="M 0 2 C 0 0.894531 0.894531 0 2 0 L 23 0 C 24.105469 0 25 0.894531 25 2 L 25 8 C 25 9.105469 24.105469 10 23 10 L 2 10 C 0.894531 10 0 9.105469 0 8 Z M 0 2 " transform="matrix(1,0,0,1,375,33)"/>
</g>
</g>
<g clip-path="url(#clip64)" clip-rule="nonzero">
<path style="fill:none;stroke-width:2;stroke-linecap:butt;stroke-linejoin:miter;stroke:rgb(38.039216%,50.588235%,100%);stroke-opacity:1;stroke-miterlimit:10;" d="M 0 2 C 0 0.894531 0.894531 0 2 0 L 13 0 C 14.105469 0 15 0.894531 15 2 L 15 8 C 15 9.105469 14.105469 10 13 10 L 2 10 C 0.894531 10 0 9.105469 0 8 Z M 0 2 " transform="matrix(1,0,0,1,449,5)"/>
</g>
<path style=" stroke:none;fill-rule:nonzero;fill:rgb(38.039216%,50.588235%,100%);fill-opacity:0.490196;" d="M 449 7 C 449 5.894531 449.894531 5 451 5 L 462 5 C 463.105469 5 464 5.894531 464 7 L 464 13 C 464 14.105469 463.105469 15 462 15 L 451 15 C 449.894531 15 449 14.105469 449 13 Z M 449 7 "/>
<g clip-path="url(#clip65)" clip-rule="nonzero">
<g clip-path="url(#clip66)" clip-rule="nonzero">
<path style="fill:none;stroke-width:2;stroke-linecap:butt;stroke-linejoin:miter;stroke:rgb(38.039216%,50.588235%,100%);stroke-opacity:1;stroke-miterlimit:10;" d="M 0 2 C 0 0.894531 0.894531 0 2 0 L 13 0 C 14.105469 0 15 0.894531 15 2 L 15 8 C 15 9.105469 14.105469 10 13 10 L 2 10 C 0.894531 10 0 9.105469 0 8 Z M 0 2 " transform="matrix(1,0,0,1,449,5)"/>
</g>
</g>
<g clip-path="url(#clip67)" clip-rule="nonzero">
<path style="fill:none;stroke-width:2;stroke-linecap:butt;stroke-linejoin:miter;stroke:rgb(38.039216%,50.588235%,100%);stroke-opacity:1;stroke-miterlimit:10;" d="M 0 2 C 0 0.894531 0.894531 0 2 0 L 13 0 C 14.105469 0 15 0.894531 15 2 L 15 8 C 15 9.105469 14.105469 10 13 10 L 2 10 C 0.894531 10 0 9.105469 0 8 Z M 0 2 " transform="matrix(1,0,0,1,449,19)"/>
</g>
<path style=" stroke:none;fill-rule:nonzero;fill:rgb(38.039216%,50.588235%,100%);fill-opacity:0.490196;" d="M 449 21 C 449 19.894531 449.894531 19 451 19 L 462 19 C 463.105469 19 464 19.894531 464 21 L 464 27 C 464 28.105469 463.105469 29 462 29 L 451 29 C 449.894531 29 449 28.105469 449 27 Z M 449 21 "/>
<g clip-path="url(#clip68)" clip-rule="nonzero">
<g clip-path="url(#clip69)" clip-rule="nonzero">
<path style="fill:none;stroke-width:2;stroke-linecap:butt;stroke-linejoin:miter;stroke:rgb(38.039216%,50.588235%,100%);stroke-opacity:1;stroke-miterlimit:10;" d="M 0 2 C 0 0.894531 0.894531 0 2 0 L 13 0 C 14.105469 0 15 0.894531 15 2 L 15 8 C 15 9.105469 14.105469 10 13 10 L 2 10 C 0.894531 10 0 9.105469 0 8 Z M 0 2 " transform="matrix(1,0,0,1,449,19)"/>
</g>
</g>
<g clip-path="url(#clip70)" clip-rule="nonzero">
<path style="fill:none;stroke-width:2;stroke-linecap:butt;stroke-linejoin:miter;stroke:rgb(38.039216%,50.588235%,100%);stroke-opacity:1;stroke-miterlimit:10;" d="M 0 2 C 0 0.894531 0.894531 0 2 0 L 13 0 C 14.105469 0 15 0.894531 15 2 L 15 8 C 15 9.105469 14.105469 10 13 10 L 2 10 C 0.894531 10 0 9.105469 0 8 Z M 0 2 " transform="matrix(1,0,0,1,468,5)"/>
</g>
<path style=" stroke:none;fill-rule:nonzero;fill:rgb(38.039216%,50.588235%,100%);fill-opacity:0.490196;" d="M 468 7 C 468 5.894531 468.894531 5 470 5 L 481 5 C 482.105469 5 483 5.894531 483 7 L 483 13 C 483 14.105469 482.105469 15 481 15 L 470 15 C 468.894531 15 468 14.105469 468 13 Z M 468 7 "/>
<g clip-path="url(#clip71)" clip-rule="nonzero">
<g clip-path="url(#clip72)" clip-rule="nonzero">
<path style="fill:none;stroke-width:2;stroke-linecap:butt;stroke-linejoin:miter;stroke:rgb(38.039216%,50.588235%,100%);stroke-opacity:1;stroke-miterlimit:10;" d="M 0 2 C 0 0.894531 0.894531 0 2 0 L 13 0 C 14.105469 0 15 0.894531 15 2 L 15 8 C 15 9.105469 14.105469 10 13 10 L 2 10 C 0.894531 10 0 9.105469 0 8 Z M 0 2 " transform="matrix(1,0,0,1,468,5)"/>
</g>
</g>
<g clip-path="url(#clip73)" clip-rule="nonzero">
<path style="fill:none;stroke-width:2;stroke-linecap:butt;stroke-linejoin:miter;stroke:rgb(38.039216%,50.588235%,100%);stroke-opacity:1;stroke-miterlimit:10;" d="M 0 2 C 0 0.894531 0.894531 0 2 0 L 13 0 C 14.105469 0 15 0.894531 15 2 L 15 8 C 15 9.105469 14.105469 10 13 10 L 2 10 C 0.894531 10 0 9.105469 0 8 Z M 0 2 " transform="matrix(1,0,0,1,468,19)"/>
</g>
<path style=" stroke:none;fill-rule:nonzero;fill:rgb(38.039216%,50.588235%,100%);fill-opacity:0.490196;" d="M 468 21 C 468 19.894531 468.894531 19 470 19 L 481 19 C 482.105469 19 483 19.894531 483 21 L 483 27 C 483 28.105469 482.105469 29 481 29 L 470 29 C 468.894531 29 468 28.105469 468 27 Z M 468 21 "/>
<g clip-path="url(#clip74)" clip-rule="nonzero">
<g clip-path="url(#clip75)" clip-rule="nonzero">
<path style="fill:none;stroke-width:2;stroke-linecap:butt;stroke-linejoin:miter;stroke:rgb(38.039216%,50.588235%,100%);stroke-opacity:1;stroke-miterlimit:10;" d="M 0 2 C 0 0.894531 0.894531 0 2 0 L 13 0 C 14.105469 0 15 0.894531 15 2 L 15 8 C 15 9.105469 14.105469 10 13 10 L 2 10 C 0.894531 10 0 9.105469 0 8 Z M 0 2 " transform="matrix(1,0,0,1,468,19)"/>
</g>
</g>
<g clip-path="url(#clip76)" clip-rule="nonzero">
<path style="fill:none;stroke-width:2;stroke-linecap:butt;stroke-linejoin:miter;stroke:rgb(38.039216%,50.588235%,100%);stroke-opacity:1;stroke-miterlimit:10;" d="M 0 2 C 0 0.894531 0.894531 0 2 0 L 13 0 C 14.105469 0 15 0.894531 15 2 L 15 8 C 15 9.105469 14.105469 10 13 10 L 2 10 C 0.894531 10 0 9.105469 0 8 Z M 0 2 " transform="matrix(1,0,0,1,468,33)"/>
</g>
<path style=" stroke:none;fill-rule:nonzero;fill:rgb(38.039216%,50.588235%,100%);fill-opacity:0.490196;" d="M 468 35 C 468 33.894531 468.894531 33 470 33 L 481 33 C 482.105469 33 483 33.894531 483 35 L 483 41 C 483 42.105469 482.105469 43 481 43 L 470 43 C 468.894531 43 468 42.105469 468 41 Z M 468 35 "/>
<g clip-path="url(#clip77)" clip-rule="nonzero">
<g clip-path="url(#clip78)" clip-rule="nonzero">
<path style="fill:none;stroke-width:2;stroke-linecap:butt;stroke-linejoin:miter;stroke:rgb(38.039216%,50.588235%,100%);stroke-opacity:1;stroke-miterlimit:10;" d="M 0 2 C 0 0.894531 0.894531 0 2 0 L 13 0 C 14.105469 0 15 0.894531 15 2 L 15 8 C 15 9.105469 14.105469 10 13 10 L 2 10 C 0.894531 10 0 9.105469 0 8 Z M 0 2 " transform="matrix(1,0,0,1,468,33)"/>
</g>
</g>
<g clip-path="url(#clip79)" clip-rule="nonzero">
<path style="fill:none;stroke-width:2;stroke-linecap:butt;stroke-linejoin:miter;stroke:rgb(38.039216%,50.588235%,100%);stroke-opacity:1;stroke-miterlimit:10;" d="M 0 2 C 0 0.894531 0.894531 0 2 0 L 13 0 C 14.105469 0 15 0.894531 15 2 L 15 8 C 15 9.105469 14.105469 10 13 10 L 2 10 C 0.894531 10 0 9.105469 0 8 Z M 0 2 " transform="matrix(1,0,0,1,449,33)"/>
</g>
<path style=" stroke:none;fill-rule:nonzero;fill:rgb(38.039216%,50.588235%,100%);fill-opacity:0.490196;" d="M 449 35 C 449 33.894531 449.894531 33 451 33 L 462 33 C 463.105469 33 464 33.894531 464 35 L 464 41 C 464 42.105469 463.105469 43 462 43 L 451 43 C 449.894531 43 449 42.105469 449 41 Z M 449 35 "/>
<g clip-path="url(#clip80)" clip-rule="nonzero">
<g clip-path="url(#clip81)" clip-rule="nonzero">
<path style="fill:none;stroke-width:2;stroke-linecap:butt;stroke-linejoin:miter;stroke:rgb(38.039216%,50.588235%,100%);stroke-opacity:1;stroke-miterlimit:10;" d="M 0 2 C 0 0.894531 0.894531 0 2 0 L 13 0 C 14.105469 0 15 0.894531 15 2 L 15 8 C 15 9.105469 14.105469 10 13 10 L 2 10 C 0.894531 10 0 9.105469 0 8 Z M 0 2 " transform="matrix(1,0,0,1,449,33)"/>
</g>
</g>
<g clip-path="url(#clip82)" clip-rule="nonzero">
<path style="fill:none;stroke-width:2;stroke-linecap:butt;stroke-linejoin:miter;stroke:rgb(38.039216%,50.588235%,100%);stroke-opacity:1;stroke-miterlimit:10;" d="M 0 2 C 0 0.894531 0.894531 0 2 0 L 13 0 C 14.105469 0 15 0.894531 15 2 L 15 36 C 15 37.105469 14.105469 38 13 38 L 2 38 C 0.894531 38 0 37.105469 0 36 Z M 0 2 " transform="matrix(1,0,0,1,487,5)"/>
</g>
<path style=" stroke:none;fill-rule:nonzero;fill:rgb(38.039216%,50.588235%,100%);fill-opacity:0.490196;" d="M 487 7 C 487 5.894531 487.894531 5 489 5 L 500 5 C 501.105469 5 502 5.894531 502 7 L 502 41 C 502 42.105469 501.105469 43 500 43 L 489 43 C 487.894531 43 487 42.105469 487 41 Z M 487 7 "/>
<g clip-path="url(#clip83)" clip-rule="nonzero">
<g clip-path="url(#clip84)" clip-rule="nonzero">
<path style="fill:none;stroke-width:2;stroke-linecap:butt;stroke-linejoin:miter;stroke:rgb(38.039216%,50.588235%,100%);stroke-opacity:1;stroke-miterlimit:10;" d="M 0 2 C 0 0.894531 0.894531 0 2 0 L 13 0 C 14.105469 0 15 0.894531 15 2 L 15 36 C 15 37.105469 14.105469 38 13 38 L 2 38 C 0.894531 38 0 37.105469 0 36 Z M 0 2 " transform="matrix(1,0,0,1,487,5)"/>
</g>
</g>
<g clip-path="url(#clip85)" clip-rule="nonzero">
<path style="fill:none;stroke-width:2;stroke-linecap:butt;stroke-linejoin:miter;stroke:rgb(38.039216%,50.588235%,100%);stroke-opacity:1;stroke-miterlimit:10;" d="M 0 2 C 0 0.894531 0.894531 0 2 0 L 52 0 C 53.105469 0 54 0.894531 54 2 L 54 36 C 54 37.105469 53.105469 38 52 38 L 2 38 C 0.894531 38 0 37.105469 0 36 Z M 0 2 " transform="matrix(1,0,0,1,5,63)"/>
</g>
<path style=" stroke:none;fill-rule:nonzero;fill:rgb(38.039216%,50.588235%,100%);fill-opacity:0.490196;" d="M 5 65 C 5 63.894531 5.894531 63 7 63 L 57 63 C 58.105469 63 59 63.894531 59 65 L 59 99 C 59 100.105469 58.105469 101 57 101 L 7 101 C 5.894531 101 5 100.105469 5 99 Z M 5 65 "/>
<g clip-path="url(#clip86)" clip-rule="nonzero">
<g clip-path="url(#clip87)" clip-rule="nonzero">
<path style="fill:none;stroke-width:2;stroke-linecap:butt;stroke-linejoin:miter;stroke:rgb(38.039216%,50.588235%,100%);stroke-opacity:1;stroke-miterlimit:10;" d="M 0 2 C 0 0.894531 0.894531 0 2 0 L 52 0 C 53.105469 0 54 0.894531 54 2 L 54 36 C 54 37.105469 53.105469 38 52 38 L 2 38 C 0.894531 38 0 37.105469 0 36 Z M 0 2 " transform="matrix(1,0,0,1,5,63)"/>
</g>
</g>
<g clip-path="url(#clip88)" clip-rule="nonzero">
<path style="fill:none;stroke-width:2;stroke-linecap:butt;stroke-linejoin:miter;stroke:rgb(38.039216%,50.588235%,100%);stroke-opacity:1;stroke-miterlimit:10;" d="M 0 2 C 0 0.894531 0.894531 0 2 0 L 23 0 C 24.105469 0 25 0.894531 25 2 L 25 36 C 25 37.105469 24.105469 38 23 38 L 2 38 C 0.894531 38 0 37.105469 0 36 Z M 0 2 " transform="matrix(1,0,0,1,79,63)"/>
</g>
<path style=" stroke:none;fill-rule:nonzero;fill:rgb(38.039216%,50.588235%,100%);fill-opacity:0.490196;" d="M 79 65 C 79 63.894531 79.894531 63 81 63 L 102 63 C 103.105469 63 104 63.894531 104 65 L 104 99 C 104 100.105469 103.105469 101 102 101 L 81 101 C 79.894531 101 79 100.105469 79 99 Z M 79 65 "/>
<g clip-path="url(#clip89)" clip-rule="nonzero">
<g clip-path="url(#clip90)" clip-rule="nonzero">
<path style="fill:none;stroke-width:2;stroke-linecap:butt;stroke-linejoin:miter;stroke:rgb(38.039216%,50.588235%,100%);stroke-opacity:1;stroke-miterlimit:10;" d="M 0 2 C 0 0.894531 0.894531 0 2 0 L 23 0 C 24.105469 0 25 0.894531 25 2 L 25 36 C 25 37.105469 24.105469 38 23 38 L 2 38 C 0.894531 38 0 37.105469 0 36 Z M 0 2 " transform="matrix(1,0,0,1,79,63)"/>
</g>
</g>
<g clip-path="url(#clip91)" clip-rule="nonzero">
<path style="fill:none;stroke-width:2;stroke-linecap:butt;stroke-linejoin:miter;stroke:rgb(38.039216%,50.588235%,100%);stroke-opacity:1;stroke-miterlimit:10;" d="M 0 2 C 0 0.894531 0.894531 0 2 0 L 23 0 C 24.105469 0 25 0.894531 25 2 L 25 36 C 25 37.105469 24.105469 38 23 38 L 2 38 C 0.894531 38 0 37.105469 0 36 Z M 0 2 " transform="matrix(1,0,0,1,108,63)"/>
</g>
<path style=" stroke:none;fill-rule:nonzero;fill:rgb(38.039216%,50.588235%,100%);fill-opacity:0.490196;" d="M 108 65 C 108 63.894531 108.894531 63 110 63 L 131 63 C 132.105469 63 133 63.894531 133 65 L 133 99 C 133 100.105469 132.105469 101 131 101 L 110 101 C 108.894531 101 108 100.105469 108 99 Z M 108 65 "/>
<g clip-path="url(#clip92)" clip-rule="nonzero">
<g clip-path="url(#clip93)" clip-rule="nonzero">
<path style="fill:none;stroke-width:2;stroke-linecap:butt;stroke-linejoin:miter;stroke:rgb(38.039216%,50.588235%,100%);stroke-opacity:1;stroke-miterlimit:10;" d="M 0 2 C 0 0.894531 0.894531 0 2 0 L 23 0 C 24.105469 0 25 0.894531 25 2 L 25 36 C 25 37.105469 24.105469 38 23 38 L 2 38 C 0.894531 38 0 37.105469 0 36 Z M 0 2 " transform="matrix(1,0,0,1,108,63)"/>
</g>
</g>
<g clip-path="url(#clip94)" clip-rule="nonzero">
<path style="fill:none;stroke-width:2;stroke-linecap:butt;stroke-linejoin:miter;stroke:rgb(38.039216%,50.588235%,100%);stroke-opacity:1;stroke-miterlimit:10;" d="M 0 2 C 0 0.894531 0.894531 0 2 0 L 23 0 C 24.105469 0 25 0.894531 25 2 L 25 15 C 25 16.105469 24.105469 17 23 17 L 2 17 C 0.894531 17 0 16.105469 0 15 Z M 0 2 " transform="matrix(1,0,0,1,153,63)"/>
</g>
<path style=" stroke:none;fill-rule:nonzero;fill:rgb(38.039216%,50.588235%,100%);fill-opacity:0.490196;" d="M 153 65 C 153 63.894531 153.894531 63 155 63 L 176 63 C 177.105469 63 178 63.894531 178 65 L 178 78 C 178 79.105469 177.105469 80 176 80 L 155 80 C 153.894531 80 153 79.105469 153 78 Z M 153 65 "/>
<g clip-path="url(#clip95)" clip-rule="nonzero">
<g clip-path="url(#clip96)" clip-rule="nonzero">
<path style="fill:none;stroke-width:2;stroke-linecap:butt;stroke-linejoin:miter;stroke:rgb(38.039216%,50.588235%,100%);stroke-opacity:1;stroke-miterlimit:10;" d="M 0 2 C 0 0.894531 0.894531 0 2 0 L 23 0 C 24.105469 0 25 0.894531 25 2 L 25 15 C 25 16.105469 24.105469 17 23 17 L 2 17 C 0.894531 17 0 16.105469 0 15 Z M 0 2 " transform="matrix(1,0,0,1,153,63)"/>
</g>
</g>
<g clip-path="url(#clip97)" clip-rule="nonzero">
<path style="fill:none;stroke-width:2;stroke-linecap:butt;stroke-linejoin:miter;stroke:rgb(38.039216%,50.588235%,100%);stroke-opacity:1;stroke-miterlimit:10;" d="M 0 2 C 0 0.894531 0.894531 0 2 0 L 23 0 C 24.105469 0 25 0.894531 25 2 L 25 15 C 25 16.105469 24.105469 17 23 17 L 2 17 C 0.894531 17 0 16.105469 0 15 Z M 0 2 " transform="matrix(1,0,0,1,182,63)"/>
</g>
<path style=" stroke:none;fill-rule:nonzero;fill:rgb(38.039216%,50.588235%,100%);fill-opacity:0.490196;" d="M 182 65 C 182 63.894531 182.894531 63 184 63 L 205 63 C 206.105469 63 207 63.894531 207 65 L 207 78 C 207 79.105469 206.105469 80 205 80 L 184 80 C 182.894531 80 182 79.105469 182 78 Z M 182 65 "/>
<g clip-path="url(#clip98)" clip-rule="nonzero">
<g clip-path="url(#clip99)" clip-rule="nonzero">
<path style="fill:none;stroke-width:2;stroke-linecap:butt;stroke-linejoin:miter;stroke:rgb(38.039216%,50.588235%,100%);stroke-opacity:1;stroke-miterlimit:10;" d="M 0 2 C 0 0.894531 0.894531 0 2 0 L 23 0 C 24.105469 0 25 0.894531 25 2 L 25 15 C 25 16.105469 24.105469 17 23 17 L 2 17 C 0.894531 17 0 16.105469 0 15 Z M 0 2 " transform="matrix(1,0,0,1,182,63)"/>
</g>
</g>
<g clip-path="url(#clip100)" clip-rule="nonzero">
<path style="fill:none;stroke-width:2;stroke-linecap:butt;stroke-linejoin:miter;stroke:rgb(38.039216%,50.588235%,100%);stroke-opacity:1;stroke-miterlimit:10;" d="M 0 2 C 0 0.894531 0.894531 0 2 0 L 52 0 C 53.105469 0 54 0.894531 54 2 L 54 15 C 54 16.105469 53.105469 17 52 17 L 2 17 C 0.894531 17 0 16.105469 0 15 Z M 0 2 " transform="matrix(1,0,0,1,153,84)"/>
</g>
<path style=" stroke:none;fill-rule:nonzero;fill:rgb(38.039216%,50.588235%,100%);fill-opacity:0.490196;" d="M 153 86 C 153 84.894531 153.894531 84 155 84 L 205 84 C 206.105469 84 207 84.894531 207 86 L 207 99 C 207 100.105469 206.105469 101 205 101 L 155 101 C 153.894531 101 153 100.105469 153 99 Z M 153 86 "/>
<g clip-path="url(#clip101)" clip-rule="nonzero">
<g clip-path="url(#clip102)" clip-rule="nonzero">
<path style="fill:none;stroke-width:2;stroke-linecap:butt;stroke-linejoin:miter;stroke:rgb(38.039216%,50.588235%,100%);stroke-opacity:1;stroke-miterlimit:10;" d="M 0 2 C 0 0.894531 0.894531 0 2 0 L 52 0 C 53.105469 0 54 0.894531 54 2 L 54 15 C 54 16.105469 53.105469 17 52 17 L 2 17 C 0.894531 17 0 16.105469 0 15 Z M 0 2 " transform="matrix(1,0,0,1,153,84)"/>
</g>
</g>
<g clip-path="url(#clip103)" clip-rule="nonzero">
<path style="fill:none;stroke-width:2;stroke-linecap:butt;stroke-linejoin:miter;stroke:rgb(38.039216%,50.588235%,100%);stroke-opacity:1;stroke-miterlimit:10;" d="M 0 2 C 0 0.894531 0.894531 0 2 0 L 23 0 C 24.105469 0 25 0.894531 25 2 L 25 15 C 25 16.105469 24.105469 17 23 17 L 2 17 C 0.894531 17 0 16.105469 0 15 Z M 0 2 " transform="matrix(1,0,0,1,227,63)"/>
</g>
<path style=" stroke:none;fill-rule:nonzero;fill:rgb(38.039216%,50.588235%,100%);fill-opacity:0.490196;" d="M 227 65 C 227 63.894531 227.894531 63 229 63 L 250 63 C 251.105469 63 252 63.894531 252 65 L 252 78 C 252 79.105469 251.105469 80 250 80 L 229 80 C 227.894531 80 227 79.105469 227 78 Z M 227 65 "/>
<g clip-path="url(#clip104)" clip-rule="nonzero">
<g clip-path="url(#clip105)" clip-rule="nonzero">
<path style="fill:none;stroke-width:2;stroke-linecap:butt;stroke-linejoin:miter;stroke:rgb(38.039216%,50.588235%,100%);stroke-opacity:1;stroke-miterlimit:10;" d="M 0 2 C 0 0.894531 0.894531 0 2 0 L 23 0 C 24.105469 0 25 0.894531 25 2 L 25 15 C 25 16.105469 24.105469 17 23 17 L 2 17 C 0.894531 17 0 16.105469 0 15 Z M 0 2 " transform="matrix(1,0,0,1,227,63)"/>
</g>
</g>
<g clip-path="url(#clip106)" clip-rule="nonzero">
<path style="fill:none;stroke-width:2;stroke-linecap:butt;stroke-linejoin:miter;stroke:rgb(38.039216%,50.588235%,100%);stroke-opacity:1;stroke-miterlimit:10;" d="M 0 2 C 0 0.894531 0.894531 0 2 0 L 23 0 C 24.105469 0 25 0.894531 25 2 L 25 15 C 25 16.105469 24.105469 17 23 17 L 2 17 C 0.894531 17 0 16.105469 0 15 Z M 0 2 " transform="matrix(1,0,0,1,256,63)"/>
</g>
<path style=" stroke:none;fill-rule:nonzero;fill:rgb(38.039216%,50.588235%,100%);fill-opacity:0.490196;" d="M 256 65 C 256 63.894531 256.894531 63 258 63 L 279 63 C 280.105469 63 281 63.894531 281 65 L 281 78 C 281 79.105469 280.105469 80 279 80 L 258 80 C 256.894531 80 256 79.105469 256 78 Z M 256 65 "/>
<g clip-path="url(#clip107)" clip-rule="nonzero">
<g clip-path="url(#clip108)" clip-rule="nonzero">
<path style="fill:none;stroke-width:2;stroke-linecap:butt;stroke-linejoin:miter;stroke:rgb(38.039216%,50.588235%,100%);stroke-opacity:1;stroke-miterlimit:10;" d="M 0 2 C 0 0.894531 0.894531 0 2 0 L 23 0 C 24.105469 0 25 0.894531 25 2 L 25 15 C 25 16.105469 24.105469 17 23 17 L 2 17 C 0.894531 17 0 16.105469 0 15 Z M 0 2 " transform="matrix(1,0,0,1,256,63)"/>
</g>
</g>
<g clip-path="url(#clip109)" clip-rule="nonzero">
<path style="fill:none;stroke-width:2;stroke-linecap:butt;stroke-linejoin:miter;stroke:rgb(38.039216%,50.588235%,100%);stroke-opacity:1;stroke-miterlimit:10;" d="M 0 2 C 0 0.894531 0.894531 0 2 0 L 23 0 C 24.105469 0 25 0.894531 25 2 L 25 15 C 25 16.105469 24.105469 17 23 17 L 2 17 C 0.894531 17 0 16.105469 0 15 Z M 0 2 " transform="matrix(1,0,0,1,227,84)"/>
</g>
<path style=" stroke:none;fill-rule:nonzero;fill:rgb(38.039216%,50.588235%,100%);fill-opacity:0.490196;" d="M 227 86 C 227 84.894531 227.894531 84 229 84 L 250 84 C 251.105469 84 252 84.894531 252 86 L 252 99 C 252 100.105469 251.105469 101 250 101 L 229 101 C 227.894531 101 227 100.105469 227 99 Z M 227 86 "/>
<g clip-path="url(#clip110)" clip-rule="nonzero">
<g clip-path="url(#clip111)" clip-rule="nonzero">
<path style="fill:none;stroke-width:2;stroke-linecap:butt;stroke-linejoin:miter;stroke:rgb(38.039216%,50.588235%,100%);stroke-opacity:1;stroke-miterlimit:10;" d="M 0 2 C 0 0.894531 0.894531 0 2 0 L 23 0 C 24.105469 0 25 0.894531 25 2 L 25 15 C 25 16.105469 24.105469 17 23 17 L 2 17 C 0.894531 17 0 16.105469 0 15 Z M 0 2 " transform="matrix(1,0,0,1,227,84)"/>
</g>
</g>
<g clip-path="url(#clip112)" clip-rule="nonzero">
<path style="fill:none;stroke-width:2;stroke-linecap:butt;stroke-linejoin:miter;stroke:rgb(38.039216%,50.588235%,100%);stroke-opacity:1;stroke-miterlimit:10;" d="M 0 2 C 0 0.894531 0.894531 0 2 0 L 23 0 C 24.105469 0 25 0.894531 25 2 L 25 15 C 25 16.105469 24.105469 17 23 17 L 2 17 C 0.894531 17 0 16.105469 0 15 Z M 0 2 " transform="matrix(1,0,0,1,256,84)"/>
</g>
<path style=" stroke:none;fill-rule:nonzero;fill:rgb(38.039216%,50.588235%,100%);fill-opacity:0.490196;" d="M 256 86 C 256 84.894531 256.894531 84 258 84 L 279 84 C 280.105469 84 281 84.894531 281 86 L 281 99 C 281 100.105469 280.105469 101 279 101 L 258 101 C 256.894531 101 256 100.105469 256 99 Z M 256 86 "/>
<g clip-path="url(#clip113)" clip-rule="nonzero">
<g clip-path="url(#clip114)" clip-rule="nonzero">
<path style="fill:none;stroke-width:2;stroke-linecap:butt;stroke-linejoin:miter;stroke:rgb(38.039216%,50.588235%,100%);stroke-opacity:1;stroke-miterlimit:10;" d="M 0 2 C 0 0.894531 0.894531 0 2 0 L 23 0 C 24.105469 0 25 0.894531 25 2 L 25 15 C 25 16.105469 24.105469 17 23 17 L 2 17 C 0.894531 17 0 16.105469 0 15 Z M 0 2 " transform="matrix(1,0,0,1,256,84)"/>
</g>
</g>
<g clip-path="url(#clip115)" clip-rule="nonzero">
<path style="fill:none;stroke-width:2;stroke-linecap:butt;stroke-linejoin:miter;stroke:rgb(38.039216%,50.588235%,100%);stroke-opacity:1;stroke-miterlimit:10;" d="M 0 2 C 0 0.894531 0.894531 0 2 0 L 23 0 C 24.105469 0 25 0.894531 25 2 L 25 15 C 25 16.105469 24.105469 17 23 17 L 2 17 C 0.894531 17 0 16.105469 0 15 Z M 0 2 " transform="matrix(1,0,0,1,301,63)"/>
</g>
<path style=" stroke:none;fill-rule:nonzero;fill:rgb(38.039216%,50.588235%,100%);fill-opacity:0.490196;" d="M 301 65 C 301 63.894531 301.894531 63 303 63 L 324 63 C 325.105469 63 326 63.894531 326 65 L 326 78 C 326 79.105469 325.105469 80 324 80 L 303 80 C 301.894531 80 301 79.105469 301 78 Z M 301 65 "/>
<g clip-path="url(#clip116)" clip-rule="nonzero">
<g clip-path="url(#clip117)" clip-rule="nonzero">
<path style="fill:none;stroke-width:2;stroke-linecap:butt;stroke-linejoin:miter;stroke:rgb(38.039216%,50.588235%,100%);stroke-opacity:1;stroke-miterlimit:10;" d="M 0 2 C 0 0.894531 0.894531 0 2 0 L 23 0 C 24.105469 0 25 0.894531 25 2 L 25 15 C 25 16.105469 24.105469 17 23 17 L 2 17 C 0.894531 17 0 16.105469 0 15 Z M 0 2 " transform="matrix(1,0,0,1,301,63)"/>
</g>
</g>
<g clip-path="url(#clip118)" clip-rule="nonzero">
<path style="fill:none;stroke-width:2;stroke-linecap:butt;stroke-linejoin:miter;stroke:rgb(38.039216%,50.588235%,100%);stroke-opacity:1;stroke-miterlimit:10;" d="M 0 2 C 0 0.894531 0.894531 0 2 0 L 23 0 C 24.105469 0 25 0.894531 25 2 L 25 15 C 25 16.105469 24.105469 17 23 17 L 2 17 C 0.894531 17 0 16.105469 0 15 Z M 0 2 " transform="matrix(1,0,0,1,330,63)"/>
</g>
<path style=" stroke:none;fill-rule:nonzero;fill:rgb(38.039216%,50.588235%,100%);fill-opacity:0.490196;" d="M 330 65 C 330 63.894531 330.894531 63 332 63 L 353 63 C 354.105469 63 355 63.894531 355 65 L 355 78 C 355 79.105469 354.105469 80 353 80 L 332 80 C 330.894531 80 330 79.105469 330 78 Z M 330 65 "/>
<g clip-path="url(#clip119)" clip-rule="nonzero">
<g clip-path="url(#clip120)" clip-rule="nonzero">
<path style="fill:none;stroke-width:2;stroke-linecap:butt;stroke-linejoin:miter;stroke:rgb(38.039216%,50.588235%,100%);stroke-opacity:1;stroke-miterlimit:10;" d="M 0 2 C 0 0.894531 0.894531 0 2 0 L 23 0 C 24.105469 0 25 0.894531 25 2 L 25 15 C 25 16.105469 24.105469 17 23 17 L 2 17 C 0.894531 17 0 16.105469 0 15 Z M 0 2 " transform="matrix(1,0,0,1,330,63)"/>
</g>
</g>
<g clip-path="url(#clip121)" clip-rule="nonzero">
<path style="fill:none;stroke-width:2;stroke-linecap:butt;stroke-linejoin:miter;stroke:rgb(38.039216%,50.588235%,100%);stroke-opacity:1;stroke-miterlimit:10;" d="M 0 2 C 0 0.894531 0.894531 0 2 0 L 13 0 C 14.105469 0 15 0.894531 15 2 L 15 15 C 15 16.105469 14.105469 17 13 17 L 2 17 C 0.894531 17 0 16.105469 0 15 Z M 0 2 " transform="matrix(1,0,0,1,301,84)"/>
</g>
<path style=" stroke:none;fill-rule:nonzero;fill:rgb(38.039216%,50.588235%,100%);fill-opacity:0.490196;" d="M 301 86 C 301 84.894531 301.894531 84 303 84 L 314 84 C 315.105469 84 316 84.894531 316 86 L 316 99 C 316 100.105469 315.105469 101 314 101 L 303 101 C 301.894531 101 301 100.105469 301 99 Z M 301 86 "/>
<g clip-path="url(#clip122)" clip-rule="nonzero">
<g clip-path="url(#clip123)" clip-rule="nonzero">
<path style="fill:none;stroke-width:2;stroke-linecap:butt;stroke-linejoin:miter;stroke:rgb(38.039216%,50.588235%,100%);stroke-opacity:1;stroke-miterlimit:10;" d="M 0 2 C 0 0.894531 0.894531 0 2 0 L 13 0 C 14.105469 0 15 0.894531 15 2 L 15 15 C 15 16.105469 14.105469 17 13 17 L 2 17 C 0.894531 17 0 16.105469 0 15 Z M 0 2 " transform="matrix(1,0,0,1,301,84)"/>
</g>
</g>
<g clip-path="url(#clip124)" clip-rule="nonzero">
<path style="fill:none;stroke-width:2;stroke-linecap:butt;stroke-linejoin:miter;stroke:rgb(38.039216%,50.588235%,100%);stroke-opacity:1;stroke-miterlimit:10;" d="M 0 2 C 0 0.894531 0.894531 0 2 0 L 13 0 C 14.105469 0 15 0.894531 15 2 L 15 15 C 15 16.105469 14.105469 17 13 17 L 2 17 C 0.894531 17 0 16.105469 0 15 Z M 0 2 " transform="matrix(1,0,0,1,320,84)"/>
</g>
<path style=" stroke:none;fill-rule:nonzero;fill:rgb(38.039216%,50.588235%,100%);fill-opacity:0.490196;" d="M 320 86 C 320 84.894531 320.894531 84 322 84 L 333 84 C 334.105469 84 335 84.894531 335 86 L 335 99 C 335 100.105469 334.105469 101 333 101 L 322 101 C 320.894531 101 320 100.105469 320 99 Z M 320 86 "/>
<g clip-path="url(#clip125)" clip-rule="nonzero">
<g clip-path="url(#clip126)" clip-rule="nonzero">
<path style="fill:none;stroke-width:2;stroke-linecap:butt;stroke-linejoin:miter;stroke:rgb(38.039216%,50.588235%,100%);stroke-opacity:1;stroke-miterlimit:10;" d="M 0 2 C 0 0.894531 0.894531 0 2 0 L 13 0 C 14.105469 0 15 0.894531 15 2 L 15 15 C 15 16.105469 14.105469 17 13 17 L 2 17 C 0.894531 17 0 16.105469 0 15 Z M 0 2 " transform="matrix(1,0,0,1,320,84)"/>
</g>
</g>
<g clip-path="url(#clip127)" clip-rule="nonzero">
<path style="fill:none;stroke-width:2;stroke-linecap:butt;stroke-linejoin:miter;stroke:rgb(38.039216%,50.588235%,100%);stroke-opacity:1;stroke-miterlimit:10;" d="M 0 2 C 0 0.894531 0.894531 0 2 0 L 13 0 C 14.105469 0 15 0.894531 15 2 L 15 15 C 15 16.105469 14.105469 17 13 17 L 2 17 C 0.894531 17 0 16.105469 0 15 Z M 0 2 " transform="matrix(1,0,0,1,339,84)"/>
</g>
<path style=" stroke:none;fill-rule:nonzero;fill:rgb(38.039216%,50.588235%,100%);fill-opacity:0.490196;" d="M 339 86 C 339 84.894531 339.894531 84 341 84 L 352 84 C 353.105469 84 354 84.894531 354 86 L 354 99 C 354 100.105469 353.105469 101 352 101 L 341 101 C 339.894531 101 339 100.105469 339 99 Z M 339 86 "/>
<g clip-path="url(#clip128)" clip-rule="nonzero">
<g clip-path="url(#clip129)" clip-rule="nonzero">
<path style="fill:none;stroke-width:2;stroke-linecap:butt;stroke-linejoin:miter;stroke:rgb(38.039216%,50.588235%,100%);stroke-opacity:1;stroke-miterlimit:10;" d="M 0 2 C 0 0.894531 0.894531 0 2 0 L 13 0 C 14.105469 0 15 0.894531 15 2 L 15 15 C 15 16.105469 14.105469 17 13 17 L 2 17 C 0.894531 17 0 16.105469 0 15 Z M 0 2 " transform="matrix(1,0,0,1,339,84)"/>
</g>
</g>
<g clip-path="url(#clip130)" clip-rule="nonzero">
<path style="fill:none;stroke-width:2;stroke-linecap:butt;stroke-linejoin:miter;stroke:rgb(38.039216%,50.588235%,100%);stroke-opacity:1;stroke-miterlimit:10;" d="M 0 2 C 0 0.894531 0.894531 0 2 0 L 13 0 C 14.105469 0 15 0.894531 15 2 L 15 15 C 15 16.105469 14.105469 17 13 17 L 2 17 C 0.894531 17 0 16.105469 0 15 Z M 0 2 " transform="matrix(1,0,0,1,375,63)"/>
</g>
<path style=" stroke:none;fill-rule:nonzero;fill:rgb(38.039216%,50.588235%,100%);fill-opacity:0.490196;" d="M 375 65 C 375 63.894531 375.894531 63 377 63 L 388 63 C 389.105469 63 390 63.894531 390 65 L 390 78 C 390 79.105469 389.105469 80 388 80 L 377 80 C 375.894531 80 375 79.105469 375 78 Z M 375 65 "/>
<g clip-path="url(#clip131)" clip-rule="nonzero">
<g clip-path="url(#clip132)" clip-rule="nonzero">
<path style="fill:none;stroke-width:2;stroke-linecap:butt;stroke-linejoin:miter;stroke:rgb(38.039216%,50.588235%,100%);stroke-opacity:1;stroke-miterlimit:10;" d="M 0 2 C 0 0.894531 0.894531 0 2 0 L 13 0 C 14.105469 0 15 0.894531 15 2 L 15 15 C 15 16.105469 14.105469 17 13 17 L 2 17 C 0.894531 17 0 16.105469 0 15 Z M 0 2 " transform="matrix(1,0,0,1,375,63)"/>
</g>
</g>
<g clip-path="url(#clip133)" clip-rule="nonzero">
<path style="fill:none;stroke-width:2;stroke-linecap:butt;stroke-linejoin:miter;stroke:rgb(38.039216%,50.588235%,100%);stroke-opacity:1;stroke-miterlimit:10;" d="M 0 2 C 0 0.894531 0.894531 0 2 0 L 13 0 C 14.105469 0 15 0.894531 15 2 L 15 15 C 15 16.105469 14.105469 17 13 17 L 2 17 C 0.894531 17 0 16.105469 0 15 Z M 0 2 " transform="matrix(1,0,0,1,394,63)"/>
</g>
<path style=" stroke:none;fill-rule:nonzero;fill:rgb(38.039216%,50.588235%,100%);fill-opacity:0.490196;" d="M 394 65 C 394 63.894531 394.894531 63 396 63 L 407 63 C 408.105469 63 409 63.894531 409 65 L 409 78 C 409 79.105469 408.105469 80 407 80 L 396 80 C 394.894531 80 394 79.105469 394 78 Z M 394 65 "/>
<g clip-path="url(#clip134)" clip-rule="nonzero">
<g clip-path="url(#clip135)" clip-rule="nonzero">
<path style="fill:none;stroke-width:2;stroke-linecap:butt;stroke-linejoin:miter;stroke:rgb(38.039216%,50.588235%,100%);stroke-opacity:1;stroke-miterlimit:10;" d="M 0 2 C 0 0.894531 0.894531 0 2 0 L 13 0 C 14.105469 0 15 0.894531 15 2 L 15 15 C 15 16.105469 14.105469 17 13 17 L 2 17 C 0.894531 17 0 16.105469 0 15 Z M 0 2 " transform="matrix(1,0,0,1,394,63)"/>
</g>
</g>
<g clip-path="url(#clip136)" clip-rule="nonzero">
<path style="fill:none;stroke-width:2;stroke-linecap:butt;stroke-linejoin:miter;stroke:rgb(38.039216%,50.588235%,100%);stroke-opacity:1;stroke-miterlimit:10;" d="M 0 2 C 0 0.894531 0.894531 0 2 0 L 13 0 C 14.105469 0 15 0.894531 15 2 L 15 15 C 15 16.105469 14.105469 17 13 17 L 2 17 C 0.894531 17 0 16.105469 0 15 Z M 0 2 " transform="matrix(1,0,0,1,375,84)"/>
</g>
<path style=" stroke:none;fill-rule:nonzero;fill:rgb(38.039216%,50.588235%,100%);fill-opacity:0.490196;" d="M 375 86 C 375 84.894531 375.894531 84 377 84 L 388 84 C 389.105469 84 390 84.894531 390 86 L 390 99 C 390 100.105469 389.105469 101 388 101 L 377 101 C 375.894531 101 375 100.105469 375 99 Z M 375 86 "/>
<g clip-path="url(#clip137)" clip-rule="nonzero">
<g clip-path="url(#clip138)" clip-rule="nonzero">
<path style="fill:none;stroke-width:2;stroke-linecap:butt;stroke-linejoin:miter;stroke:rgb(38.039216%,50.588235%,100%);stroke-opacity:1;stroke-miterlimit:10;" d="M 0 2 C 0 0.894531 0.894531 0 2 0 L 13 0 C 14.105469 0 15 0.894531 15 2 L 15 15 C 15 16.105469 14.105469 17 13 17 L 2 17 C 0.894531 17 0 16.105469 0 15 Z M 0 2 " transform="matrix(1,0,0,1,375,84)"/>
</g>
</g>
<g clip-path="url(#clip139)" clip-rule="nonzero">
<path style="fill:none;stroke-width:2;stroke-linecap:butt;stroke-linejoin:miter;stroke:rgb(38.039216%,50.588235%,100%);stroke-opacity:1;stroke-miterlimit:10;" d="M 0 2 C 0 0.894531 0.894531 0 2 0 L 13 0 C 14.105469 0 15 0.894531 15 2 L 15 15 C 15 16.105469 14.105469 17 13 17 L 2 17 C 0.894531 17 0 16.105469 0 15 Z M 0 2 " transform="matrix(1,0,0,1,394,84)"/>
</g>
<path style=" stroke:none;fill-rule:nonzero;fill:rgb(38.039216%,50.588235%,100%);fill-opacity:0.490196;" d="M 394 86 C 394 84.894531 394.894531 84 396 84 L 407 84 C 408.105469 84 409 84.894531 409 86 L 409 99 C 409 100.105469 408.105469 101 407 101 L 396 101 C 394.894531 101 394 100.105469 394 99 Z M 394 86 "/>
<g clip-path="url(#clip140)" clip-rule="nonzero">
<g clip-path="url(#clip141)" clip-rule="nonzero">
<path style="fill:none;stroke-width:2;stroke-linecap:butt;stroke-linejoin:miter;stroke:rgb(38.039216%,50.588235%,100%);stroke-opacity:1;stroke-miterlimit:10;" d="M 0 2 C 0 0.894531 0.894531 0 2 0 L 13 0 C 14.105469 0 15 0.894531 15 2 L 15 15 C 15 16.105469 14.105469 17 13 17 L 2 17 C 0.894531 17 0 16.105469 0 15 Z M 0 2 " transform="matrix(1,0,0,1,394,84)"/>
</g>
</g>
<g clip-path="url(#clip142)" clip-rule="nonzero">
<path style="fill:none;stroke-width:2;stroke-linecap:butt;stroke-linejoin:miter;stroke:rgb(38.039216%,50.588235%,100%);stroke-opacity:1;stroke-miterlimit:10;" d="M 0 2 C 0 0.894531 0.894531 0 2 0 L 13 0 C 14.105469 0 15 0.894531 15 2 L 15 15 C 15 16.105469 14.105469 17 13 17 L 2 17 C 0.894531 17 0 16.105469 0 15 Z M 0 2 " transform="matrix(1,0,0,1,413,84)"/>
</g>
<path style=" stroke:none;fill-rule:nonzero;fill:rgb(38.039216%,50.588235%,100%);fill-opacity:0.490196;" d="M 413 86 C 413 84.894531 413.894531 84 415 84 L 426 84 C 427.105469 84 428 84.894531 428 86 L 428 99 C 428 100.105469 427.105469 101 426 101 L 415 101 C 413.894531 101 413 100.105469 413 99 Z M 413 86 "/>
<g clip-path="url(#clip143)" clip-rule="nonzero">
<g clip-path="url(#clip144)" clip-rule="nonzero">
<path style="fill:none;stroke-width:2;stroke-linecap:butt;stroke-linejoin:miter;stroke:rgb(38.039216%,50.588235%,100%);stroke-opacity:1;stroke-miterlimit:10;" d="M 0 2 C 0 0.894531 0.894531 0 2 0 L 13 0 C 14.105469 0 15 0.894531 15 2 L 15 15 C 15 16.105469 14.105469 17 13 17 L 2 17 C 0.894531 17 0 16.105469 0 15 Z M 0 2 " transform="matrix(1,0,0,1,413,84)"/>
</g>
</g>
<g clip-path="url(#clip145)" clip-rule="nonzero">
<path style="fill:none;stroke-width:2;stroke-linecap:butt;stroke-linejoin:miter;stroke:rgb(38.039216%,50.588235%,100%);stroke-opacity:1;stroke-miterlimit:10;" d="M 0 2 C 0 0.894531 0.894531 0 2 0 L 13 0 C 14.105469 0 15 0.894531 15 2 L 15 15 C 15 16.105469 14.105469 17 13 17 L 2 17 C 0.894531 17 0 16.105469 0 15 Z M 0 2 " transform="matrix(1,0,0,1,413,63)"/>
</g>
<path style=" stroke:none;fill-rule:nonzero;fill:rgb(38.039216%,50.588235%,100%);fill-opacity:0.490196;" d="M 413 65 C 413 63.894531 413.894531 63 415 63 L 426 63 C 427.105469 63 428 63.894531 428 65 L 428 78 C 428 79.105469 427.105469 80 426 80 L 415 80 C 413.894531 80 413 79.105469 413 78 Z M 413 65 "/>
<g clip-path="url(#clip146)" clip-rule="nonzero">
<g clip-path="url(#clip147)" clip-rule="nonzero">
<path style="fill:none;stroke-width:2;stroke-linecap:butt;stroke-linejoin:miter;stroke:rgb(38.039216%,50.588235%,100%);stroke-opacity:1;stroke-miterlimit:10;" d="M 0 2 C 0 0.894531 0.894531 0 2 0 L 13 0 C 14.105469 0 15 0.894531 15 2 L 15 15 C 15 16.105469 14.105469 17 13 17 L 2 17 C 0.894531 17 0 16.105469 0 15 Z M 0 2 " transform="matrix(1,0,0,1,413,63)"/>
</g>
</g>
<g clip-path="url(#clip148)" clip-rule="nonzero">
<path style="fill:none;stroke-width:2;stroke-linecap:butt;stroke-linejoin:miter;stroke:rgb(38.039216%,50.588235%,100%);stroke-opacity:1;stroke-miterlimit:10;" d="M 0 2 C 0 0.894531 0.894531 0 2 0 L 13 0 C 14.105469 0 15 0.894531 15 2 L 15 8 C 15 9.105469 14.105469 10 13 10 L 2 10 C 0.894531 10 0 9.105469 0 8 Z M 0 2 " transform="matrix(1,0,0,1,449,63)"/>
</g>
<path style=" stroke:none;fill-rule:nonzero;fill:rgb(38.039216%,50.588235%,100%);fill-opacity:0.490196;" d="M 449 65 C 449 63.894531 449.894531 63 451 63 L 462 63 C 463.105469 63 464 63.894531 464 65 L 464 71 C 464 72.105469 463.105469 73 462 73 L 451 73 C 449.894531 73 449 72.105469 449 71 Z M 449 65 "/>
<g clip-path="url(#clip149)" clip-rule="nonzero">
<g clip-path="url(#clip150)" clip-rule="nonzero">
<path style="fill:none;stroke-width:2;stroke-linecap:butt;stroke-linejoin:miter;stroke:rgb(38.039216%,50.588235%,100%);stroke-opacity:1;stroke-miterlimit:10;" d="M 0 2 C 0 0.894531 0.894531 0 2 0 L 13 0 C 14.105469 0 15 0.894531 15 2 L 15 8 C 15 9.105469 14.105469 10 13 10 L 2 10 C 0.894531 10 0 9.105469 0 8 Z M 0 2 " transform="matrix(1,0,0,1,449,63)"/>
</g>
</g>
<g clip-path="url(#clip151)" clip-rule="nonzero">
<path style="fill:none;stroke-width:2;stroke-linecap:butt;stroke-linejoin:miter;stroke:rgb(38.039216%,50.588235%,100%);stroke-opacity:1;stroke-miterlimit:10;" d="M 0 2 C 0 0.894531 0.894531 0 2 0 L 13 0 C 14.105469 0 15 0.894531 15 2 L 15 8 C 15 9.105469 14.105469 10 13 10 L 2 10 C 0.894531 10 0 9.105469 0 8 Z M 0 2 " transform="matrix(1,0,0,1,468,63)"/>
</g>
<path style=" stroke:none;fill-rule:nonzero;fill:rgb(38.039216%,50.588235%,100%);fill-opacity:0.490196;" d="M 468 65 C 468 63.894531 468.894531 63 470 63 L 481 63 C 482.105469 63 483 63.894531 483 65 L 483 71 C 483 72.105469 482.105469 73 481 73 L 470 73 C 468.894531 73 468 72.105469 468 71 Z M 468 65 "/>
<g clip-path="url(#clip152)" clip-rule="nonzero">
<g clip-path="url(#clip153)" clip-rule="nonzero">
<path style="fill:none;stroke-width:2;stroke-linecap:butt;stroke-linejoin:miter;stroke:rgb(38.039216%,50.588235%,100%);stroke-opacity:1;stroke-miterlimit:10;" d="M 0 2 C 0 0.894531 0.894531 0 2 0 L 13 0 C 14.105469 0 15 0.894531 15 2 L 15 8 C 15 9.105469 14.105469 10 13 10 L 2 10 C 0.894531 10 0 9.105469 0 8 Z M 0 2 " transform="matrix(1,0,0,1,468,63)"/>
</g>
</g>
<g clip-path="url(#clip154)" clip-rule="nonzero">
<path style="fill:none;stroke-width:2;stroke-linecap:butt;stroke-linejoin:miter;stroke:rgb(38.039216%,50.588235%,100%);stroke-opacity:1;stroke-miterlimit:10;" d="M 0 2 C 0 0.894531 0.894531 0 2 0 L 13 0 C 14.105469 0 15 0.894531 15 2 L 15 8 C 15 9.105469 14.105469 10 13 10 L 2 10 C 0.894531 10 0 9.105469 0 8 Z M 0 2 " transform="matrix(1,0,0,1,449,77)"/>
</g>
<path style=" stroke:none;fill-rule:nonzero;fill:rgb(38.039216%,50.588235%,100%);fill-opacity:0.490196;" d="M 449 79 C 449 77.894531 449.894531 77 451 77 L 462 77 C 463.105469 77 464 77.894531 464 79 L 464 85 C 464 86.105469 463.105469 87 462 87 L 451 87 C 449.894531 87 449 86.105469 449 85 Z M 449 79 "/>
<g clip-path="url(#clip155)" clip-rule="nonzero">
<g clip-path="url(#clip156)" clip-rule="nonzero">
<path style="fill:none;stroke-width:2;stroke-linecap:butt;stroke-linejoin:miter;stroke:rgb(38.039216%,50.588235%,100%);stroke-opacity:1;stroke-miterlimit:10;" d="M 0 2 C 0 0.894531 0.894531 0 2 0 L 13 0 C 14.105469 0 15 0.894531 15 2 L 15 8 C 15 9.105469 14.105469 10 13 10 L 2 10 C 0.894531 10 0 9.105469 0 8 Z M 0 2 " transform="matrix(1,0,0,1,449,77)"/>
</g>
</g>
<g clip-path="url(#clip157)" clip-rule="nonzero">
<path style="fill:none;stroke-width:2;stroke-linecap:butt;stroke-linejoin:miter;stroke:rgb(38.039216%,50.588235%,100%);stroke-opacity:1;stroke-miterlimit:10;" d="M 0 2 C 0 0.894531 0.894531 0 2 0 L 13 0 C 14.105469 0 15 0.894531 15 2 L 15 8 C 15 9.105469 14.105469 10 13 10 L 2 10 C 0.894531 10 0 9.105469 0 8 Z M 0 2 " transform="matrix(1,0,0,1,468,77)"/>
</g>
<path style=" stroke:none;fill-rule:nonzero;fill:rgb(38.039216%,50.588235%,100%);fill-opacity:0.490196;" d="M 468 79 C 468 77.894531 468.894531 77 470 77 L 481 77 C 482.105469 77 483 77.894531 483 79 L 483 85 C 483 86.105469 482.105469 87 481 87 L 470 87 C 468.894531 87 468 86.105469 468 85 Z M 468 79 "/>
<g clip-path="url(#clip158)" clip-rule="nonzero">
<g clip-path="url(#clip159)" clip-rule="nonzero">
<path style="fill:none;stroke-width:2;stroke-linecap:butt;stroke-linejoin:miter;stroke:rgb(38.039216%,50.588235%,100%);stroke-opacity:1;stroke-miterlimit:10;" d="M 0 2 C 0 0.894531 0.894531 0 2 0 L 13 0 C 14.105469 0 15 0.894531 15 2 L 15 8 C 15 9.105469 14.105469 10 13 10 L 2 10 C 0.894531 10 0 9.105469 0 8 Z M 0 2 " transform="matrix(1,0,0,1,468,77)"/>
</g>
</g>
<g clip-path="url(#clip160)" clip-rule="nonzero">
<path style="fill:none;stroke-width:2;stroke-linecap:butt;stroke-linejoin:miter;stroke:rgb(38.039216%,50.588235%,100%);stroke-opacity:1;stroke-miterlimit:10;" d="M 0 2 C 0 0.894531 0.894531 0 2 0 L 13 0 C 14.105469 0 15 0.894531 15 2 L 15 8 C 15 9.105469 14.105469 10 13 10 L 2 10 C 0.894531 10 0 9.105469 0 8 Z M 0 2 " transform="matrix(1,0,0,1,487,77)"/>
</g>
<path style=" stroke:none;fill-rule:nonzero;fill:rgb(38.039216%,50.588235%,100%);fill-opacity:0.490196;" d="M 487 79 C 487 77.894531 487.894531 77 489 77 L 500 77 C 501.105469 77 502 77.894531 502 79 L 502 85 C 502 86.105469 501.105469 87 500 87 L 489 87 C 487.894531 87 487 86.105469 487 85 Z M 487 79 "/>
<g clip-path="url(#clip161)" clip-rule="nonzero">
<g clip-path="url(#clip162)" clip-rule="nonzero">
<path style="fill:none;stroke-width:2;stroke-linecap:butt;stroke-linejoin:miter;stroke:rgb(38.039216%,50.588235%,100%);stroke-opacity:1;stroke-miterlimit:10;" d="M 0 2 C 0 0.894531 0.894531 0 2 0 L 13 0 C 14.105469 0 15 0.894531 15 2 L 15 8 C 15 9.105469 14.105469 10 13 10 L 2 10 C 0.894531 10 0 9.105469 0 8 Z M 0 2 " transform="matrix(1,0,0,1,487,77)"/>
</g>
</g>
<g clip-path="url(#clip163)" clip-rule="nonzero">
<path style="fill:none;stroke-width:2;stroke-linecap:butt;stroke-linejoin:miter;stroke:rgb(38.039216%,50.588235%,100%);stroke-opacity:1;stroke-miterlimit:10;" d="M 0 2 C 0 0.894531 0.894531 0 2 0 L 13 0 C 14.105469 0 15 0.894531 15 2 L 15 8 C 15 9.105469 14.105469 10 13 10 L 2 10 C 0.894531 10 0 9.105469 0 8 Z M 0 2 " transform="matrix(1,0,0,1,487,63)"/>
</g>
<path style=" stroke:none;fill-rule:nonzero;fill:rgb(38.039216%,50.588235%,100%);fill-opacity:0.490196;" d="M 487 65 C 487 63.894531 487.894531 63 489 63 L 500 63 C 501.105469 63 502 63.894531 502 65 L 502 71 C 502 72.105469 501.105469 73 500 73 L 489 73 C 487.894531 73 487 72.105469 487 71 Z M 487 65 "/>
<g clip-path="url(#clip164)" clip-rule="nonzero">
<g clip-path="url(#clip165)" clip-rule="nonzero">
<path style="fill:none;stroke-width:2;stroke-linecap:butt;stroke-linejoin:miter;stroke:rgb(38.039216%,50.588235%,100%);stroke-opacity:1;stroke-miterlimit:10;" d="M 0 2 C 0 0.894531 0.894531 0 2 0 L 13 0 C 14.105469 0 15 0.894531 15 2 L 15 8 C 15 9.105469 14.105469 10 13 10 L 2 10 C 0.894531 10 0 9.105469 0 8 Z M 0 2 " transform="matrix(1,0,0,1,487,63)"/>
</g>
</g>
<g clip-path="url(#clip166)" clip-rule="nonzero">
<path style="fill:none;stroke-width:2;stroke-linecap:butt;stroke-linejoin:miter;stroke:rgb(38.039216%,50.588235%,100%);stroke-opacity:1;stroke-miterlimit:10;" d="M 0 2 C 0 0.894531 0.894531 0 2 0 L 52 0 C 53.105469 0 54 0.894531 54 2 L 54 8 C 54 9.105469 53.105469 10 52 10 L 2 10 C 0.894531 10 0 9.105469 0 8 Z M 0 2 " transform="matrix(1,0,0,1,449,91)"/>
</g>
<path style=" stroke:none;fill-rule:nonzero;fill:rgb(38.039216%,50.588235%,100%);fill-opacity:0.490196;" d="M 449 93 C 449 91.894531 449.894531 91 451 91 L 501 91 C 502.105469 91 503 91.894531 503 93 L 503 99 C 503 100.105469 502.105469 101 501 101 L 451 101 C 449.894531 101 449 100.105469 449 99 Z M 449 93 "/>
<g clip-path="url(#clip167)" clip-rule="nonzero">
<g clip-path="url(#clip168)" clip-rule="nonzero">
<path style="fill:none;stroke-width:2;stroke-linecap:butt;stroke-linejoin:miter;stroke:rgb(38.039216%,50.588235%,100%);stroke-opacity:1;stroke-miterlimit:10;" d="M 0 2 C 0 0.894531 0.894531 0 2 0 L 52 0 C 53.105469 0 54 0.894531 54 2 L 54 8 C 54 9.105469 53.105469 10 52 10 L 2 10 C 0.894531 10 0 9.105469 0 8 Z M 0 2 " transform="matrix(1,0,0,1,449,91)"/>
</g>
</g>
</g>
</svg>
