<?xml version="1.0" encoding="UTF-8"?>
<svg xmlns="http://www.w3.org/2000/svg" xmlns:xlink="http://www.w3.org/1999/xlink" width="508pt" height="222pt" viewBox="0 0 508 222" version="1.1">
<g id="surface2">
<path style="fill:none;stroke-width:1.5;stroke-linecap:butt;stroke-linejoin:miter;stroke:rgb(0%,0%,0%);stroke-opacity:0.266667;stroke-dasharray:10,4;stroke-dashoffset:1;stroke-miterlimit:10;" d="M 0.75 0.75 L 63.25 0.75 L 63.25 47.25 L 0.75 47.25 Z M 0.75 0.75 "/>
<path style="fill:none;stroke-width:1.5;stroke-linecap:butt;stroke-linejoin:miter;stroke:rgb(0%,0%,0%);stroke-opacity:0.2;stroke-dasharray:10,4;stroke-dashoffset:1;stroke-miterlimit:10;" d="M 3 3 L 61 3 L 61 45 L 3 45 Z M 3 3 "/>
<path style="fill:none;stroke-width:1.5;stroke-linecap:butt;stroke-linejoin:miter;stroke:rgb(0%,0%,0%);stroke-opacity:0.266667;stroke-dasharray:10,4;stroke-dashoffset:1;stroke-miterlimit:10;" d="M 74.75 0.75 L 137.25 0.75 L 137.25 47.25 L 74.75 47.25 Z M 74.75 0.75 "/>
<path style="fill:none;stroke-width:1.5;stroke-linecap:butt;stroke-linejoin:miter;stroke:rgb(0%,0%,0%);stroke-opacity:0.2;stroke-dasharray:10,4;stroke-dashoffset:1;stroke-miterlimit:10;" d="M 77 3 L 135 3 L 135 45 L 77 45 Z M 77 3 "/>
<path style="fill:none;stroke-width:1.5;stroke-linecap:butt;stroke-linejoin:miter;stroke:rgb(0%,0%,0%);stroke-opacity:0.266667;stroke-dasharray:10,4;stroke-dashoffset:1;stroke-miterlimit:10;" d="M 148.75 0.75 L 211.25 0.75 L 211.25 47.25 L 148.75 47.25 Z M 148.75 0.75 "/>
<path style="fill:none;stroke-width:1.5;stroke-linecap:butt;stroke-linejoin:miter;stroke:rgb(0%,0%,0%);stroke-opacity:0.2;stroke-dasharray:10,4;stroke-dashoffset:1;stroke-miterlimit:10;" d="M 151 3 L 209 3 L 209 45 L 151 45 Z M 151 3 "/>
<path style="fill:none;stroke-width:1.5;stroke-linecap:butt;stroke-linejoin:miter;stroke:rgb(0%,0%,0%);stroke-opacity:0.266667;stroke-dasharray:10,4;stroke-dashoffset:1;stroke-miterlimit:10;" d="M 222.75 0.75 L 285.25 0.75 L 285.25 47.25 L 222.75 47.25 Z M 222.75 0.75 "/>
<path style="fill:none;stroke-width:1.5;stroke-linecap:butt;stroke-linejoin:miter;stroke:rgb(0%,0%,0%);stroke-opacity:0.2;stroke-dasharray:10,4;stroke-dashoffset:1;stroke-miterlimit:10;" d="M 225 3 L 283 3 L 283 45 L 225 45 Z M 225 3 "/>
<path style="fill:none;stroke-width:1.5;stroke-linecap:butt;stroke-linejoin:miter;stroke:rgb(0%,0%,0%);stroke-opacity:0.266667;stroke-dasharray:10,4;stroke-dashoffset:1;stroke-miterlimit:10;" d="M 296.75 0.75 L 359.25 0.75 L 359.25 47.25 L 296.75 47.25 Z M 296.75 0.75 "/>
<path style="fill:none;stroke-width:1.5;stroke-linecap:butt;stroke-linejoin:miter;stroke:rgb(0%,0%,0%);stroke-opacity:0.2;stroke-dasharray:10,4;stroke-dashoffset:1;stroke-miterlimit:10;" d="M 299 3 L 357 3 L 357 45 L 299 45 Z M 299 3 "/>
<path style="fill:none;stroke-width:1.5;stroke-linecap:butt;stroke-linejoin:miter;stroke:rgb(0%,0%,0%);stroke-opacity:0.266667;stroke-dasharray:10,4;stroke-dashoffset:1;stroke-miterlimit:10;" d="M 370.75 0.75 L 433.25 0.75 L 433.25 47.25 L 370.75 47.25 Z M 370.75 0.75 "/>
<path style="fill:none;stroke-width:1.5;stroke-linecap:butt;stroke-linejoin:miter;stroke:rgb(0%,0%,0%);stroke-opacity:0.2;stroke-dasharray:10,4;stroke-dashoffset:1;stroke-miterlimit:10;" d="M 373 3 L 431 3 L 431 45 L 373 45 Z M 373 3 "/>
<path style="fill:none;stroke-width:1.5;stroke-linecap:butt;stroke-linejoin:miter;stroke:rgb(0%,0%,0%);stroke-opacity:0.266667;stroke-dasharray:10,4;stroke-dashoffset:1;stroke-miterlimit:10;" d="M 444.75 0.75 L 507.25 0.75 L 507.25 47.25 L 444.75 47.25 Z M 444.75 0.75 "/>
<path style="fill:none;stroke-width:1.5;stroke-linecap:butt;stroke-linejoin:miter;stroke:rgb(0%,0%,0%);stroke-opacity:0.2;stroke-dasharray:10,4;stroke-dashoffset:1;stroke-miterlimit:10;" d="M 447 3 L 505 3 L 505 45 L 447 45 Z M 447 3 "/>
<path style="fill:none;stroke-width:1.5;stroke-linecap:butt;stroke-linejoin:miter;stroke:rgb(0%,0%,0%);stroke-opacity:0.266667;stroke-dasharray:10,4;stroke-dashoffset:1;stroke-miterlimit:10;" d="M 0.75 58.75 L 63.25 58.75 L 63.25 105.25 L 0.75 105.25 Z M 0.75 58.75 "/>
<path style="fill:none;stroke-width:1.5;stroke-linecap:butt;stroke-linejoin:miter;stroke:rgb(0%,0%,0%);stroke-opacity:0.2;stroke-dasharray:10,4;stroke-dashoffset:1;stroke-miterlimit:10;" d="M 3 61 L 61 61 L 61 103 L 3 103 Z M 3 61 "/>
<path style="fill:none;stroke-width:1.5;stroke-linecap:butt;stroke-linejoin:miter;stroke:rgb(0%,0%,0%);stroke-opacity:0.266667;stroke-dasharray:10,4;stroke-dashoffset:1;stroke-miterlimit:10;" d="M 74.75 58.75 L 137.25 58.75 L 137.25 105.25 L 74.75 105.25 Z M 74.75 58.75 "/>
<path style="fill:none;stroke-width:1.5;stroke-linecap:butt;stroke-linejoin:miter;stroke:rgb(0%,0%,0%);stroke-opacity:0.2;stroke-dasharray:10,4;stroke-dashoffset:1;stroke-miterlimit:10;" d="M 77 61 L 135 61 L 135 103 L 77 103 Z M 77 61 "/>
<path style="fill:none;stroke-width:1.5;stroke-linecap:butt;stroke-linejoin:miter;stroke:rgb(0%,0%,0%);stroke-opacity:0.266667;stroke-dasharray:10,4;stroke-dashoffset:1;stroke-miterlimit:10;" d="M 148.75 58.75 L 211.25 58.75 L 211.25 105.25 L 148.75 105.25 Z M 148.75 58.75 "/>
<path style="fill:none;stroke-width:1.5;stroke-linecap:butt;stroke-linejoin:miter;stroke:rgb(0%,0%,0%);stroke-opacity:0.2;stroke-dasharray:10,4;stroke-dashoffset:1;stroke-miterlimit:10;" d="M 151 61 L 209 61 L 209 103 L 151 103 Z M 151 61 "/>
<path style="fill:none;stroke-width:1.5;stroke-linecap:butt;stroke-linejoin:miter;stroke:rgb(0%,0%,0%);stroke-opacity:0.266667;stroke-dasharray:10,4;stroke-dashoffset:1;stroke-miterlimit:10;" d="M 222.75 58.75 L 285.25 58.75 L 285.25 105.25 L 222.75 105.25 Z M 222.75 58.75 "/>
<path style="fill:none;stroke-width:1.5;stroke-linecap:butt;stroke-linejoin:miter;stroke:rgb(0%,0%,0%);stroke-opacity:0.2;stroke-dasharray:10,4;stroke-dashoffset:1;stroke-miterlimit:10;" d="M 225 61 L 283 61 L 283 103 L 225 103 Z M 225 61 "/>
<path style="fill:none;stroke-width:1.5;stroke-linecap:butt;stroke-linejoin:miter;stroke:rgb(0%,0%,0%);stroke-opacity:0.266667;stroke-dasharray:10,4;stroke-dashoffset:1;stroke-miterlimit:10;" d="M 296.75 58.75 L 359.25 58.75 L 359.25 105.25 L 296.75 105.25 Z M 296.75 58.75 "/>
<path style="fill:none;stroke-width:1.5;stroke-linecap:butt;stroke-linejoin:miter;stroke:rgb(0%,0%,0%);stroke-opacity:0.2;stroke-dasharray:10,4;stroke-dashoffset:1;stroke-miterlimit:10;" d="M 299 61 L 357 61 L 357 103 L 299 103 Z M 299 61 "/>
<path style="fill:none;stroke-width:1.5;stroke-linecap:butt;stroke-linejoin:miter;stroke:rgb(0%,0%,0%);stroke-opacity:0.266667;stroke-dasharray:10,4;stroke-dashoffset:1;stroke-miterlimit:10;" d="M 370.75 58.75 L 433.25 58.75 L 433.25 105.25 L 370.75 105.25 Z M 370.75 58.75 "/>
<path style="fill:none;stroke-width:1.5;stroke-linecap:butt;stroke-linejoin:miter;stroke:rgb(0%,0%,0%);stroke-opacity:0.2;stroke-dasharray:10,4;stroke-dashoffset:1;stroke-miterlimit:10;" d="M 373 61 L 431 61 L 431 103 L 373 103 Z M 373 61 "/>
<path style="fill:none;stroke-width:1.5;stroke-linecap:butt;stroke-linejoin:miter;stroke:rgb(0%,0%,0%);stroke-opacity:0.266667;stroke-dasharray:10,4;stroke-dashoffset:1;stroke-miterlimit:10;" d="M 444.75 58.75 L 507.25 58.75 L 507.25 105.25 L 444.75 105.25 Z M 444.75 58.75 "/>
<path style="fill:none;stroke-width:1.5;stroke-linecap:butt;stroke-linejoin:miter;stroke:rgb(0%,0%,0%);stroke-opacity:0.2;stroke-dasharray:10,4;stroke-dashoffset:1;stroke-miterlimit:10;" d="M 447 61 L 505 61 L 505 103 L 447 103 Z M 447 61 "/>
<path style="fill:none;stroke-width:1.5;stroke-linecap:butt;stroke-linejoin:miter;stroke:rgb(0%,0%,0%);stroke-opacity:0.266667;stroke-dasharray:10,4;stroke-dashoffset:1;stroke-miterlimit:10;" d="M 0.75 116.75 L 63.25 116.75 L 63.25 163.25 L 0.75 163.25 Z M 0.75 116.75 "/>
<path style="fill:none;stroke-width:1.5;stroke-linecap:butt;stroke-linejoin:miter;stroke:rgb(0%,0%,0%);stroke-opacity:0.2;stroke-dasharray:10,4;stroke-dashoffset:1;stroke-miterlimit:10;" d="M 3 119 L 61 119 L 61 161 L 3 161 Z M 3 119 "/>
<path style="fill:none;stroke-width:1.5;stroke-linecap:butt;stroke-linejoin:miter;stroke:rgb(0%,0%,0%);stroke-opacity:0.266667;stroke-dasharray:10,4;stroke-dashoffset:1;stroke-miterlimit:10;" d="M 74.75 116.75 L 137.25 116.75 L 137.25 163.25 L 74.75 163.25 Z M 74.75 116.75 "/>
<path style="fill:none;stroke-width:1.5;stroke-linecap:butt;stroke-linejoin:miter;stroke:rgb(0%,0%,0%);stroke-opacity:0.2;stroke-dasharray:10,4;stroke-dashoffset:1;stroke-miterlimit:10;" d="M 77 119 L 135 119 L 135 161 L 77 161 Z M 77 119 "/>
<path style="fill:none;stroke-width:1.5;stroke-linecap:butt;stroke-linejoin:miter;stroke:rgb(0%,0%,0%);stroke-opacity:0.266667;stroke-dasharray:10,4;stroke-dashoffset:1;stroke-miterlimit:10;" d="M 148.75 116.75 L 211.25 116.75 L 211.25 163.25 L 148.75 163.25 Z M 148.75 116.75 "/>
<path style="fill:none;stroke-width:1.5;stroke-linecap:butt;stroke-linejoin:miter;stroke:rgb(0%,0%,0%);stroke-opacity:0.2;stroke-dasharray:10,4;stroke-dashoffset:1;stroke-miterlimit:10;" d="M 151 119 L 209 119 L 209 161 L 151 161 Z M 151 119 "/>
<path style="fill:none;stroke-width:1.5;stroke-linecap:butt;stroke-linejoin:miter;stroke:rgb(0%,0%,0%);stroke-opacity:0.266667;stroke-dasharray:10,4;stroke-dashoffset:1;stroke-miterlimit:10;" d="M 222.75 116.75 L 285.25 116.75 L 285.25 163.25 L 222.75 163.25 Z M 222.75 116.75 "/>
<path style="fill:none;stroke-width:1.5;stroke-linecap:butt;stroke-linejoin:miter;stroke:rgb(0%,0%,0%);stroke-opacity:0.2;stroke-dasharray:10,4;stroke-dashoffset:1;stroke-miterlimit:10;" d="M 225 119 L 283 119 L 283 161 L 225 161 Z M 225 119 "/>
<path style="fill:none;stroke-width:1.5;stroke-linecap:butt;stroke-linejoin:miter;stroke:rgb(0%,0%,0%);stroke-opacity:0.266667;stroke-dasharray:10,4;stroke-dashoffset:1;stroke-miterlimit:10;" d="M 296.75 116.75 L 359.25 116.75 L 359.25 163.25 L 296.75 163.25 Z M 296.75 116.75 "/>
<path style="fill:none;stroke-width:1.5;stroke-linecap:butt;stroke-linejoin:miter;stroke:rgb(0%,0%,0%);stroke-opacity:0.2;stroke-dasharray:10,4;stroke-dashoffset:1;stroke-miterlimit:10;" d="M 299 119 L 357 119 L 357 161 L 299 161 Z M 299 119 "/>
<path style="fill:none;stroke-width:1.5;stroke-linecap:butt;stroke-linejoin:miter;stroke:rgb(0%,0%,0%);stroke-opacity:0.266667;stroke-dasharray:10,4;stroke-dashoffset:1;stroke-miterlimit:10;" d="M 370.75 116.75 L 433.25 116.75 L 433.25 163.25 L 370.75 163.25 Z M 370.75 116.75 "/>
<path style="fill:none;stroke-width:1.5;stroke-linecap:butt;stroke-linejoin:miter;stroke:rgb(0%,0%,0%);stroke-opacity:0.2;stroke-dasharray:10,4;stroke-dashoffset:1;stroke-miterlimit:10;" d="M 373 119 L 431 119 L 431 161 L 373 161 Z M 373 119 "/>
<path style="fill:none;stroke-width:1.5;stroke-linecap:butt;stroke-linejoin:miter;stroke:rgb(0%,0%,0%);stroke-opacity:0.266667;stroke-dasharray:10,4;stroke-dashoffset:1;stroke-miterlimit:10;" d="M 444.75 116.75 L 507.25 116.75 L 507.25 163.25 L 444.75 163.25 Z M 444.75 116.75 "/>
<path style="fill:none;stroke-width:1.5;stroke-linecap:butt;stroke-linejoin:miter;stroke:rgb(0%,0%,0%);stroke-opacity:0.2;stroke-dasharray:10,4;stroke-dashoffset:1;stroke-miterlimit:10;" d="M 447 119 L 505 119 L 505 161 L 447 161 Z M 447 119 "/>
<path style="fill:none;stroke-width:1.5;stroke-linecap:butt;stroke-linejoin:miter;stroke:rgb(0%,0%,0%);stroke-opacity:0.266667;stroke-dasharray:10,4;stroke-dashoffset:1;stroke-miterlimit:10;" d="M 0.75 174.75 L 63.25 174.75 L 63.25 221.25 L 0.75 221.25 Z M 0.75 174.75 "/>
<path style="fill:none;stroke-width:1.5;stroke-linecap:butt;stroke-linejoin:miter;stroke:rgb(0%,0%,0%);stroke-opacity:0.2;stroke-dasharray:10,4;stroke-dashoffset:1;stroke-miterlimit:10;" d="M 3 177 L 61 177 L 61 219 L 3 219 Z M 3 177 "/>
<path style="fill:none;stroke-width:1.5;stroke-linecap:butt;stroke-linejoin:miter;stroke:rgb(0%,0%,0%);stroke-opacity:0.266667;stroke-dasharray:10,4;stroke-dashoffset:1;stroke-miterlimit:10;" d="M 74.75 174.75 L 137.25 174.75 L 137.25 221.25 L 74.75 221.25 Z M 74.75 174.75 "/>
<path style="fill:none;stroke-width:1.5;stroke-linecap:butt;stroke-linejoin:miter;stroke:rgb(0%,0%,0%);stroke-opacity:0.2;stroke-dasharray:10,4;stroke-dashoffset:1;stroke-miterlimit:10;" d="M 77 177 L 135 177 L 135 219 L 77 219 Z M 77 177 "/>
<path style="fill:none;stroke-width:1.5;stroke-linecap:butt;stroke-linejoin:miter;stroke:rgb(0%,0%,0%);stroke-opacity:0.266667;stroke-dasharray:10,4;stroke-dashoffset:1;stroke-miterlimit:10;" d="M 148.75 174.75 L 211.25 174.75 L 211.25 221.25 L 148.75 221.25 Z M 148.75 174.75 "/>
<path style="fill:none;stroke-width:1.5;stroke-linecap:butt;stroke-linejoin:miter;stroke:rgb(0%,0%,0%);stroke-opacity:0.2;stroke-dasharray:10,4;stroke-dashoffset:1;stroke-miterlimit:10;" d="M 151 177 L 209 177 L 209 219 L 151 219 Z M 151 177 "/>
<path style="fill:none;stroke-width:1.5;stroke-linecap:butt;stroke-linejoin:miter;stroke:rgb(0%,0%,0%);stroke-opacity:0.266667;stroke-dasharray:10,4;stroke-dashoffset:1;stroke-miterlimit:10;" d="M 222.75 174.75 L 285.25 174.75 L 285.25 221.25 L 222.75 221.25 Z M 222.75 174.75 "/>
<path style="fill:none;stroke-width:1.5;stroke-linecap:butt;stroke-linejoin:miter;stroke:rgb(0%,0%,0%);stroke-opacity:0.2;stroke-dasharray:10,4;stroke-dashoffset:1;stroke-miterlimit:10;" d="M 225 177 L 283 177 L 283 219 L 225 219 Z M 225 177 "/>
<path style="fill:none;stroke-width:1.5;stroke-linecap:butt;stroke-linejoin:miter;stroke:rgb(0%,0%,0%);stroke-opacity:0.266667;stroke-dasharray:10,4;stroke-dashoffset:1;stroke-miterlimit:10;" d="M 296.75 174.75 L 359.25 174.75 L 359.25 221.25 L 296.75 221.25 Z M 296.75 174.75 "/>
<path style="fill:none;stroke-width:1.5;stroke-linecap:butt;stroke-linejoin:miter;stroke:rgb(0%,0%,0%);stroke-opacity:0.2;stroke-dasharray:10,4;stroke-dashoffset:1;stroke-miterlimit:10;" d="M 299 177 L 357 177 L 357 219 L 299 219 Z M 299 177 "/>
<path style="fill:none;stroke-width:1.5;stroke-linecap:butt;stroke-linejoin:miter;stroke:rgb(0%,0%,0%);stroke-opacity:0.266667;stroke-dasharray:10,4;stroke-dashoffset:1;stroke-miterlimit:10;" d="M 370.75 174.75 L 433.25 174.75 L 433.25 221.25 L 370.75 221.25 Z M 370.75 174.75 "/>
<path style="fill:none;stroke-width:1.5;stroke-linecap:butt;stroke-linejoin:miter;stroke:rgb(0%,0%,0%);stroke-opacity:0.2;stroke-dasharray:10,4;stroke-dashoffset:1;stroke-miterlimit:10;" d="M 373 177 L 431 177 L 431 219 L 373 219 Z M 373 177 "/>
<path style="fill:none;stroke-width:1.5;stroke-linecap:butt;stroke-linejoin:miter;stroke:rgb(0%,0%,0%);stroke-opacity:0.266667;stroke-dasharray:10,4;stroke-dashoffset:1;stroke-miterlimit:10;" d="M 444.75 174.75 L 507.25 174.75 L 507.25 221.25 L 444.75 221.25 Z M 444.75 174.75 "/>
<path style="fill:none;stroke-width:1.5;stroke-linecap:butt;stroke-linejoin:miter;stroke:rgb(0%,0%,0%);stroke-opacity:0.2;stroke-dasharray:10,4;stroke-dashoffset:1;stroke-miterlimit:10;" d="M 447 177 L 505 177 L 505 219 L 447 219 Z M 447 177 "/>
<path style="fill:none;stroke-width:1.5;stroke-linecap:butt;stroke-linejoin:miter;stroke:rgb(38.039216%,50.588235%,100%);stroke-opacity:1;stroke-miterlimit:10;" d="M 0 2 C 0 0.894531 0.894531 0 2 0 L 53.71875 0 C 54.824219 0 55.71875 0.894531 55.71875 2 L 55.71875 37 C 55.71875 38.105469 54.824219 39 53.71875 39 L 2 39 C 0.894531 39 0 38.105469 0 37 Z M 0 2 " transform="matrix(1,0,0,1,3,3)"/>
<path style=" stroke:none;fill-rule:nonzero;fill:rgb(38.039216%,50.588235%,100%);fill-opacity:0.490196;" d="M 3 5 C 3 3.894531 3.894531 3 5 3 L 56.71875 3 C 57.824219 3 58.71875 3.894531 58.71875 5 L 58.71875 40 C 58.71875 41.105469 57.824219 42 56.71875 42 L 5 42 C 3.894531 42 3 41.105469 3 40 Z M 3 5 "/>
<path style="fill:none;stroke-width:1.5;stroke-linecap:butt;stroke-linejoin:miter;stroke:rgb(38.039216%,50.588235%,100%);stroke-opacity:1;stroke-miterlimit:10;" d="M 0 2 C 0 0.894531 0.894531 0 2 0 L 53.71875 0 C 54.824219 0 55.71875 0.894531 55.71875 2 L 55.71875 23 C 55.71875 24.105469 54.824219 25 53.71875 25 L 2 25 C 0.894531 25 0 24.105469 0 23 Z M 0 2 " transform="matrix(1,0,0,1,77,3)"/>
<path style=" stroke:none;fill-rule:nonzero;fill:rgb(38.039216%,50.588235%,100%);fill-opacity:0.490196;" d="M 77 5 C 77 3.894531 77.894531 3 79 3 L 130.71875 3 C 131.824219 3 132.71875 3.894531 132.71875 5 L 132.71875 26 C 132.71875 27.105469 131.824219 28 130.71875 28 L 79 28 C 77.894531 28 77 27.105469 77 26 Z M 77 5 "/>
<path style="fill:none;stroke-width:1.5;stroke-linecap:butt;stroke-linejoin:miter;stroke:rgb(38.039216%,50.588235%,100%);stroke-opacity:1;stroke-miterlimit:10;" d="M 0 2 C 0 0.894531 0.894531 0 2 0 L 53 0 C 54.105469 0 55 0.894531 55 2 L 55 10 C 55 11.105469 54.105469 12 53 12 L 2 12 C 0.894531 12 0 11.105469 0 10 Z M 0 2 " transform="matrix(1,0,0,1,77,30)"/>
<path style=" stroke:none;fill-rule:nonzero;fill:rgb(38.039216%,50.588235%,100%);fill-opacity:0.490196;" d="M 77 32 C 77 30.894531 77.894531 30 79 30 L 130 30 C 131.105469 30 132 30.894531 132 32 L 132 40 C 132 41.105469 131.105469 42 130 42 L 79 42 C 77.894531 42 77 41.105469 77 40 Z M 77 32 "/>
<path style="fill:none;stroke-width:1.5;stroke-linecap:butt;stroke-linejoin:miter;stroke:rgb(38.039216%,50.588235%,100%);stroke-opacity:1;stroke-miterlimit:10;" d="M 0 2 C 0 0.894531 0.894531 0 2 0 L 34 0 C 35.105469 0 36 0.894531 36 2 L 36 23 C 36 24.105469 35.105469 25 34 25 L 2 25 C 0.894531 25 0 24.105469 0 23 Z M 0 2 " transform="matrix(1,0,0,1,151,3)"/>
<path style=" stroke:none;fill-rule:nonzero;fill:rgb(38.039216%,50.588235%,100%);fill-opacity:0.490196;" d="M 151 5 C 151 3.894531 151.894531 3 153 3 L 185 3 C 186.105469 3 187 3.894531 187 5 L 187 26 C 187 27.105469 186.105469 28 185 28 L 153 28 C 151.894531 28 151 27.105469 151 26 Z M 151 5 "/>
<path style="fill:none;stroke-width:1.5;stroke-linecap:butt;stroke-linejoin:miter;stroke:rgb(38.039216%,50.588235%,100%);stroke-opacity:1;stroke-miterlimit:10;" d="M 0 2 C 0 0.894531 0.894531 0 2 0 L 34 0 C 35.105469 0 36 0.894531 36 2 L 36 10 C 36 11.105469 35.105469 12 34 12 L 2 12 C 0.894531 12 0 11.105469 0 10 Z M 0 2 " transform="matrix(1,0,0,1,151,30)"/>
<path style=" stroke:none;fill-rule:nonzero;fill:rgb(38.039216%,50.588235%,100%);fill-opacity:0.490196;" d="M 151 32 C 151 30.894531 151.894531 30 153 30 L 185 30 C 186.105469 30 187 30.894531 187 32 L 187 40 C 187 41.105469 186.105469 42 185 42 L 153 42 C 151.894531 42 151 41.105469 151 40 Z M 151 32 "/>
<path style="fill:none;stroke-width:1.5;stroke-linecap:butt;stroke-linejoin:miter;stroke:rgb(38.039216%,50.588235%,100%);stroke-opacity:1;stroke-miterlimit:10;" d="M 0 2 C 0 0.894531 0.894531 0 2 0 L 15 0 C 16.105469 0 17 0.894531 17 2 L 17 37 C 17 38.105469 16.105469 39 15 39 L 2 39 C 0.894531 39 0 38.105469 0 37 Z M 0 2 " transform="matrix(1,0,0,1,189,3)"/>
<path style=" stroke:none;fill-rule:nonzero;fill:rgb(38.039216%,50.588235%,100%);fill-opacity:0.490196;" d="M 189 5 C 189 3.894531 189.894531 3 191 3 L 204 3 C 205.105469 3 206 3.894531 206 5 L 206 40 C 206 41.105469 205.105469 42 204 42 L 191 42 C 189.894531 42 189 41.105469 189 40 Z M 189 5 "/>
<path style="fill:none;stroke-width:1.5;stroke-linecap:butt;stroke-linejoin:miter;stroke:rgb(38.039216%,50.588235%,100%);stroke-opacity:1;stroke-miterlimit:10;" d="M 0 2 C 0 0.894531 0.894531 0 2 0 L 34 0 C 35.105469 0 36 0.894531 36 2 L 36 23 C 36 24.105469 35.105469 25 34 25 L 2 25 C 0.894531 25 0 24.105469 0 23 Z M 0 2 " transform="matrix(1,0,0,1,225,3)"/>
<path style=" stroke:none;fill-rule:nonzero;fill:rgb(38.039216%,50.588235%,100%);fill-opacity:0.490196;" d="M 225 5 C 225 3.894531 225.894531 3 227 3 L 259 3 C 260.105469 3 261 3.894531 261 5 L 261 26 C 261 27.105469 260.105469 28 259 28 L 227 28 C 225.894531 28 225 27.105469 225 26 Z M 225 5 "/>
<path style="fill:none;stroke-width:1.5;stroke-linecap:butt;stroke-linejoin:miter;stroke:rgb(38.039216%,50.588235%,100%);stroke-opacity:1;stroke-miterlimit:10;" d="M 0 2 C 0 0.894531 0.894531 0 2 0 L 34 0 C 35.105469 0 36 0.894531 36 2 L 36 10 C 36 11.105469 35.105469 12 34 12 L 2 12 C 0.894531 12 0 11.105469 0 10 Z M 0 2 " transform="matrix(1,0,0,1,225,30)"/>
<path style=" stroke:none;fill-rule:nonzero;fill:rgb(38.039216%,50.588235%,100%);fill-opacity:0.490196;" d="M 225 32 C 225 30.894531 225.894531 30 227 30 L 259 30 C 260.105469 30 261 30.894531 261 32 L 261 40 C 261 41.105469 260.105469 42 259 42 L 227 42 C 225.894531 42 225 41.105469 225 40 Z M 225 32 "/>
<path style="fill:none;stroke-width:1.5;stroke-linecap:butt;stroke-linejoin:miter;stroke:rgb(38.039216%,50.588235%,100%);stroke-opacity:1;stroke-miterlimit:10;" d="M 0 2 C 0 0.894531 0.894531 0 2 0 L 15 0 C 16.105469 0 17 0.894531 17 2 L 17 23 C 17 24.105469 16.105469 25 15 25 L 2 25 C 0.894531 25 0 24.105469 0 23 Z M 0 2 " transform="matrix(1,0,0,1,263,3)"/>
<path style=" stroke:none;fill-rule:nonzero;fill:rgb(38.039216%,50.588235%,100%);fill-opacity:0.490196;" d="M 263 5 C 263 3.894531 263.894531 3 265 3 L 278 3 C 279.105469 3 280 3.894531 280 5 L 280 26 C 280 27.105469 279.105469 28 278 28 L 265 28 C 263.894531 28 263 27.105469 263 26 Z M 263 5 "/>
<path style="fill:none;stroke-width:1.5;stroke-linecap:butt;stroke-linejoin:miter;stroke:rgb(38.039216%,50.588235%,100%);stroke-opacity:1;stroke-miterlimit:10;" d="M 0 2 C 0 0.894531 0.894531 0 2 0 L 15 0 C 16.105469 0 17 0.894531 17 2 L 17 10 C 17 11.105469 16.105469 12 15 12 L 2 12 C 0.894531 12 0 11.105469 0 10 Z M 0 2 " transform="matrix(1,0,0,1,263,30)"/>
<path style=" stroke:none;fill-rule:nonzero;fill:rgb(38.039216%,50.588235%,100%);fill-opacity:0.490196;" d="M 263 32 C 263 30.894531 263.894531 30 265 30 L 278 30 C 279.105469 30 280 30.894531 280 32 L 280 40 C 280 41.105469 279.105469 42 278 42 L 265 42 C 263.894531 42 263 41.105469 263 40 Z M 263 32 "/>
<path style="fill:none;stroke-width:1.5;stroke-linecap:butt;stroke-linejoin:miter;stroke:rgb(38.039216%,50.588235%,100%);stroke-opacity:1;stroke-miterlimit:10;" d="M 0 2 C 0 0.894531 0.894531 0 2 0 L 34 0 C 35.105469 0 36 0.894531 36 2 L 36 23 C 36 24.105469 35.105469 25 34 25 L 2 25 C 0.894531 25 0 24.105469 0 23 Z M 0 2 " transform="matrix(1,0,0,1,299,3)"/>
<path style=" stroke:none;fill-rule:nonzero;fill:rgb(38.039216%,50.588235%,100%);fill-opacity:0.490196;" d="M 299 5 C 299 3.894531 299.894531 3 301 3 L 333 3 C 334.105469 3 335 3.894531 335 5 L 335 26 C 335 27.105469 334.105469 28 333 28 L 301 28 C 299.894531 28 299 27.105469 299 26 Z M 299 5 "/>
<path style="fill:none;stroke-width:1.5;stroke-linecap:butt;stroke-linejoin:miter;stroke:rgb(38.039216%,50.588235%,100%);stroke-opacity:1;stroke-miterlimit:10;" d="M 0 2 C 0 0.894531 0.894531 0 2 0 L 34 0 C 35.105469 0 36 0.894531 36 2 L 36 10 C 36 11.105469 35.105469 12 34 12 L 2 12 C 0.894531 12 0 11.105469 0 10 Z M 0 2 " transform="matrix(1,0,0,1,299,30)"/>
<path style=" stroke:none;fill-rule:nonzero;fill:rgb(38.039216%,50.588235%,100%);fill-opacity:0.490196;" d="M 299 32 C 299 30.894531 299.894531 30 301 30 L 333 30 C 334.105469 30 335 30.894531 335 32 L 335 40 C 335 41.105469 334.105469 42 333 42 L 301 42 C 299.894531 42 299 41.105469 299 40 Z M 299 32 "/>
<path style="fill:none;stroke-width:1.5;stroke-linecap:butt;stroke-linejoin:miter;stroke:rgb(38.039216%,50.588235%,100%);stroke-opacity:1;stroke-miterlimit:10;" d="M 0 2 C 0 0.894531 0.894531 0 2 0 L 15 0 C 16.105469 0 17 0.894531 17 2 L 17 9 C 17 10.105469 16.105469 11 15 11 L 2 11 C 0.894531 11 0 10.105469 0 9 Z M 0 2 " transform="matrix(1,0,0,1,337,3)"/>
<path style=" stroke:none;fill-rule:nonzero;fill:rgb(38.039216%,50.588235%,100%);fill-opacity:0.490196;" d="M 337 5 C 337 3.894531 337.894531 3 339 3 L 352 3 C 353.105469 3 354 3.894531 354 5 L 354 12 C 354 13.105469 353.105469 14 352 14 L 339 14 C 337.894531 14 337 13.105469 337 12 Z M 337 5 "/>
<path style="fill:none;stroke-width:1.5;stroke-linecap:butt;stroke-linejoin:miter;stroke:rgb(38.039216%,50.588235%,100%);stroke-opacity:1;stroke-miterlimit:10;" d="M 0 2 C 0 0.894531 0.894531 0 2 0 L 15 0 C 16.105469 0 17 0.894531 17 2 L 17 10 C 17 11.105469 16.105469 12 15 12 L 2 12 C 0.894531 12 0 11.105469 0 10 Z M 0 2 " transform="matrix(1,0,0,1,337,30)"/>
<path style=" stroke:none;fill-rule:nonzero;fill:rgb(38.039216%,50.588235%,100%);fill-opacity:0.490196;" d="M 337 32 C 337 30.894531 337.894531 30 339 30 L 352 30 C 353.105469 30 354 30.894531 354 32 L 354 40 C 354 41.105469 353.105469 42 352 42 L 339 42 C 337.894531 42 337 41.105469 337 40 Z M 337 32 "/>
<path style="fill:none;stroke-width:1.5;stroke-linecap:butt;stroke-linejoin:miter;stroke:rgb(38.039216%,50.588235%,100%);stroke-opacity:1;stroke-miterlimit:10;" d="M 0 2 C 0 0.894531 0.894531 0 2 0 L 15 0 C 16.105469 0 17 0.894531 17 2 L 17 9 C 17 10.105469 16.105469 11 15 11 L 2 11 C 0.894531 11 0 10.105469 0 9 Z M 0 2 " transform="matrix(1,0,0,1,337,16)"/>
<path style=" stroke:none;fill-rule:nonzero;fill:rgb(38.039216%,50.588235%,100%);fill-opacity:0.490196;" d="M 337 18 C 337 16.894531 337.894531 16 339 16 L 352 16 C 353.105469 16 354 16.894531 354 18 L 354 25 C 354 26.105469 353.105469 27 352 27 L 339 27 C 337.894531 27 337 26.105469 337 25 Z M 337 18 "/>
<path style="fill:none;stroke-width:1.5;stroke-linecap:butt;stroke-linejoin:miter;stroke:rgb(38.039216%,50.588235%,100%);stroke-opacity:1;stroke-miterlimit:10;" d="M 0 2 C 0 0.894531 0.894531 0 2 0 L 34 0 C 35.105469 0 36 0.894531 36 2 L 36 23 C 36 24.105469 35.105469 25 34 25 L 2 25 C 0.894531 25 0 24.105469 0 23 Z M 0 2 " transform="matrix(1,0,0,1,373,3)"/>
<path style=" stroke:none;fill-rule:nonzero;fill:rgb(38.039216%,50.588235%,100%);fill-opacity:0.490196;" d="M 373 5 C 373 3.894531 373.894531 3 375 3 L 407 3 C 408.105469 3 409 3.894531 409 5 L 409 26 C 409 27.105469 408.105469 28 407 28 L 375 28 C 373.894531 28 373 27.105469 373 26 Z M 373 5 "/>
<path style="fill:none;stroke-width:1.5;stroke-linecap:butt;stroke-linejoin:miter;stroke:rgb(38.039216%,50.588235%,100%);stroke-opacity:1;stroke-miterlimit:10;" d="M 0 2 C 0 0.894531 0.894531 0 2 0 L 15 0 C 16.105469 0 17 0.894531 17 2 L 17 10 C 17 11.105469 16.105469 12 15 12 L 2 12 C 0.894531 12 0 11.105469 0 10 Z M 0 2 " transform="matrix(1,0,0,1,373,30)"/>
<path style=" stroke:none;fill-rule:nonzero;fill:rgb(38.039216%,50.588235%,100%);fill-opacity:0.490196;" d="M 373 32 C 373 30.894531 373.894531 30 375 30 L 388 30 C 389.105469 30 390 30.894531 390 32 L 390 40 C 390 41.105469 389.105469 42 388 42 L 375 42 C 373.894531 42 373 41.105469 373 40 Z M 373 32 "/>
<path style="fill:none;stroke-width:1.5;stroke-linecap:butt;stroke-linejoin:miter;stroke:rgb(38.039216%,50.588235%,100%);stroke-opacity:1;stroke-miterlimit:10;" d="M 0 2 C 0 0.894531 0.894531 0 2 0 L 15 0 C 16.105469 0 17 0.894531 17 2 L 17 9 C 17 10.105469 16.105469 11 15 11 L 2 11 C 0.894531 11 0 10.105469 0 9 Z M 0 2 " transform="matrix(1,0,0,1,411,3)"/>
<path style=" stroke:none;fill-rule:nonzero;fill:rgb(38.039216%,50.588235%,100%);fill-opacity:0.490196;" d="M 411 5 C 411 3.894531 411.894531 3 413 3 L 426 3 C 427.105469 3 428 3.894531 428 5 L 428 12 C 428 13.105469 427.105469 14 426 14 L 413 14 C 411.894531 14 411 13.105469 411 12 Z M 411 5 "/>
<path style="fill:none;stroke-width:1.5;stroke-linecap:butt;stroke-linejoin:miter;stroke:rgb(38.039216%,50.588235%,100%);stroke-opacity:1;stroke-miterlimit:10;" d="M 0 2 C 0 0.894531 0.894531 0 2 0 L 15 0 C 16.105469 0 17 0.894531 17 2 L 17 10 C 17 11.105469 16.105469 12 15 12 L 2 12 C 0.894531 12 0 11.105469 0 10 Z M 0 2 " transform="matrix(1,0,0,1,411,30)"/>
<path style=" stroke:none;fill-rule:nonzero;fill:rgb(38.039216%,50.588235%,100%);fill-opacity:0.490196;" d="M 411 32 C 411 30.894531 411.894531 30 413 30 L 426 30 C 427.105469 30 428 30.894531 428 32 L 428 40 C 428 41.105469 427.105469 42 426 42 L 413 42 C 411.894531 42 411 41.105469 411 40 Z M 411 32 "/>
<path style="fill:none;stroke-width:1.5;stroke-linecap:butt;stroke-linejoin:miter;stroke:rgb(38.039216%,50.588235%,100%);stroke-opacity:1;stroke-miterlimit:10;" d="M 0 2 C 0 0.894531 0.894531 0 2 0 L 15 0 C 16.105469 0 17 0.894531 17 2 L 17 9 C 17 10.105469 16.105469 11 15 11 L 2 11 C 0.894531 11 0 10.105469 0 9 Z M 0 2 " transform="matrix(1,0,0,1,411,16)"/>
<path style=" stroke:none;fill-rule:nonzero;fill:rgb(38.039216%,50.588235%,100%);fill-opacity:0.490196;" d="M 411 18 C 411 16.894531 411.894531 16 413 16 L 426 16 C 427.105469 16 428 16.894531 428 18 L 428 25 C 428 26.105469 427.105469 27 426 27 L 413 27 C 411.894531 27 411 26.105469 411 25 Z M 411 18 "/>
<path style="fill:none;stroke-width:1.5;stroke-linecap:butt;stroke-linejoin:miter;stroke:rgb(38.039216%,50.588235%,100%);stroke-opacity:1;stroke-miterlimit:10;" d="M 0 2 C 0 0.894531 0.894531 0 2 0 L 15 0 C 16.105469 0 17 0.894531 17 2 L 17 10 C 17 11.105469 16.105469 12 15 12 L 2 12 C 0.894531 12 0 11.105469 0 10 Z M 0 2 " transform="matrix(1,0,0,1,392,30)"/>
<path style=" stroke:none;fill-rule:nonzero;fill:rgb(38.039216%,50.588235%,100%);fill-opacity:0.490196;" d="M 392 32 C 392 30.894531 392.894531 30 394 30 L 407 30 C 408.105469 30 409 30.894531 409 32 L 409 40 C 409 41.105469 408.105469 42 407 42 L 394 42 C 392.894531 42 392 41.105469 392 40 Z M 392 32 "/>
<path style="fill:none;stroke-width:1.5;stroke-linecap:butt;stroke-linejoin:miter;stroke:rgb(38.039216%,50.588235%,100%);stroke-opacity:1;stroke-miterlimit:10;" d="M 0 2 C 0 0.894531 0.894531 0 2 0 L 34 0 C 35.105469 0 36 0.894531 36 2 L 36 23 C 36 24.105469 35.105469 25 34 25 L 2 25 C 0.894531 25 0 24.105469 0 23 Z M 0 2 " transform="matrix(1,0,0,1,447,3)"/>
<path style=" stroke:none;fill-rule:nonzero;fill:rgb(38.039216%,50.588235%,100%);fill-opacity:0.490196;" d="M 447 5 C 447 3.894531 447.894531 3 449 3 L 481 3 C 482.105469 3 483 3.894531 483 5 L 483 26 C 483 27.105469 482.105469 28 481 28 L 449 28 C 447.894531 28 447 27.105469 447 26 Z M 447 5 "/>
<path style="fill:none;stroke-width:1.5;stroke-linecap:butt;stroke-linejoin:miter;stroke:rgb(38.039216%,50.588235%,100%);stroke-opacity:1;stroke-miterlimit:10;" d="M 0 2 C 0 0.894531 0.894531 0 2 0 L 15 0 C 16.105469 0 17 0.894531 17 2 L 17 10 C 17 11.105469 16.105469 12 15 12 L 2 12 C 0.894531 12 0 11.105469 0 10 Z M 0 2 " transform="matrix(1,0,0,1,447,30)"/>
<path style=" stroke:none;fill-rule:nonzero;fill:rgb(38.039216%,50.588235%,100%);fill-opacity:0.490196;" d="M 447 32 C 447 30.894531 447.894531 30 449 30 L 462 30 C 463.105469 30 464 30.894531 464 32 L 464 40 C 464 41.105469 463.105469 42 462 42 L 449 42 C 447.894531 42 447 41.105469 447 40 Z M 447 32 "/>
<path style="fill:none;stroke-width:1.5;stroke-linecap:butt;stroke-linejoin:miter;stroke:rgb(38.039216%,50.588235%,100%);stroke-opacity:1;stroke-miterlimit:10;" d="M 0 2 C 0 0.894531 0.894531 0 2 0 L 15 0 C 16.105469 0 17 0.894531 17 2 L 17 5 C 17 6.105469 16.105469 7 15 7 L 2 7 C 0.894531 7 0 6.105469 0 5 Z M 0 2 " transform="matrix(1,0,0,1,485,3)"/>
<path style=" stroke:none;fill-rule:nonzero;fill:rgb(38.039216%,50.588235%,100%);fill-opacity:0.490196;" d="M 485 5 C 485 3.894531 485.894531 3 487 3 L 500 3 C 501.105469 3 502 3.894531 502 5 L 502 8 C 502 9.105469 501.105469 10 500 10 L 487 10 C 485.894531 10 485 9.105469 485 8 Z M 485 5 "/>
<path style="fill:none;stroke-width:1.5;stroke-linecap:butt;stroke-linejoin:miter;stroke:rgb(38.039216%,50.588235%,100%);stroke-opacity:1;stroke-miterlimit:10;" d="M 0 2 C 0 0.894531 0.894531 0 2 0 L 15 0 C 16.105469 0 17 0.894531 17 2 L 17 10 C 17 11.105469 16.105469 12 15 12 L 2 12 C 0.894531 12 0 11.105469 0 10 Z M 0 2 " transform="matrix(1,0,0,1,485,30)"/>
<path style=" stroke:none;fill-rule:nonzero;fill:rgb(38.039216%,50.588235%,100%);fill-opacity:0.490196;" d="M 485 32 C 485 30.894531 485.894531 30 487 30 L 500 30 C 501.105469 30 502 30.894531 502 32 L 502 40 C 502 41.105469 501.105469 42 500 42 L 487 42 C 485.894531 42 485 41.105469 485 40 Z M 485 32 "/>
<path style="fill:none;stroke-width:1.5;stroke-linecap:butt;stroke-linejoin:miter;stroke:rgb(38.039216%,50.588235%,100%);stroke-opacity:1;stroke-miterlimit:10;" d="M 0 2 C 0 0.894531 0.894531 0 2 0 L 15 0 C 16.105469 0 17 0.894531 17 2 L 17 5 C 17 6.105469 16.105469 7 15 7 L 2 7 C 0.894531 7 0 6.105469 0 5 Z M 0 2 " transform="matrix(1,0,0,1,485,12)"/>
<path style=" stroke:none;fill-rule:nonzero;fill:rgb(38.039216%,50.588235%,100%);fill-opacity:0.490196;" d="M 485 14 C 485 12.894531 485.894531 12 487 12 L 500 12 C 501.105469 12 502 12.894531 502 14 L 502 17 C 502 18.105469 501.105469 19 500 19 L 487 19 C 485.894531 19 485 18.105469 485 17 Z M 485 14 "/>
<path style="fill:none;stroke-width:1.5;stroke-linecap:butt;stroke-linejoin:miter;stroke:rgb(38.039216%,50.588235%,100%);stroke-opacity:1;stroke-miterlimit:10;" d="M 0 2 C 0 0.894531 0.894531 0 2 0 L 15 0 C 16.105469 0 17 0.894531 17 2 L 17 10 C 17 11.105469 16.105469 12 15 12 L 2 12 C 0.894531 12 0 11.105469 0 10 Z M 0 2 " transform="matrix(1,0,0,1,466,30)"/>
<path style=" stroke:none;fill-rule:nonzero;fill:rgb(38.039216%,50.588235%,100%);fill-opacity:0.490196;" d="M 466 32 C 466 30.894531 466.894531 30 468 30 L 481 30 C 482.105469 30 483 30.894531 483 32 L 483 40 C 483 41.105469 482.105469 42 481 42 L 468 42 C 466.894531 42 466 41.105469 466 40 Z M 466 32 "/>
<path style="fill:none;stroke-width:1.5;stroke-linecap:butt;stroke-linejoin:miter;stroke:rgb(38.039216%,50.588235%,100%);stroke-opacity:1;stroke-miterlimit:10;" d="M 0 2 C 0 0.894531 0.894531 0 2 0 L 15 0 C 16.105469 0 17 0.894531 17 2 L 17 5 C 17 6.105469 16.105469 7 15 7 L 2 7 C 0.894531 7 0 6.105469 0 5 Z M 0 2 " transform="matrix(1,0,0,1,485,21)"/>
<path style=" stroke:none;fill-rule:nonzero;fill:rgb(38.039216%,50.588235%,100%);fill-opacity:0.490196;" d="M 485 23 C 485 21.894531 485.894531 21 487 21 L 500 21 C 501.105469 21 502 21.894531 502 23 L 502 26 C 502 27.105469 501.105469 28 500 28 L 487 28 C 485.894531 28 485 27.105469 485 26 Z M 485 23 "/>
<path style="fill:none;stroke-width:1.5;stroke-linecap:butt;stroke-linejoin:miter;stroke:rgb(38.039216%,50.588235%,100%);stroke-opacity:1;stroke-miterlimit:10;" d="M 0.00125 2 C 0.00125 0.894531 0.895781 0 2.00125 0 L 53.72 0 C 54.825469 0 55.72 0.894531 55.72 2 L 55.72 37 C 55.72 38.105469 54.825469 39 53.72 39 L 2.00125 39 C 0.895781 39 0.00125 38.105469 0.00125 37 Z M 0.00125 2 " transform="matrix(1,0,0,1,3.28,61)"/>
<path style=" stroke:none;fill-rule:nonzero;fill:rgb(38.039216%,50.588235%,100%);fill-opacity:0.490196;" d="M 3.28125 63 C 3.28125 61.894531 4.175781 61 5.28125 61 L 57 61 C 58.105469 61 59 61.894531 59 63 L 59 98 C 59 99.105469 58.105469 100 57 100 L 5.28125 100 C 4.175781 100 3.28125 99.105469 3.28125 98 Z M 3.28125 63 "/>
<path style="fill:none;stroke-width:1.5;stroke-linecap:butt;stroke-linejoin:miter;stroke:rgb(38.039216%,50.588235%,100%);stroke-opacity:1;stroke-miterlimit:10;" d="M 0.00125 2 C 0.00125 0.894531 0.895781 0 2.00125 0 L 53.72 0 C 54.825469 0 55.72 0.894531 55.72 2 L 55.72 23 C 55.72 24.105469 54.825469 25 53.72 25 L 2.00125 25 C 0.895781 25 0.00125 24.105469 0.00125 23 Z M 0.00125 2 " transform="matrix(1,0,0,1,77.28,61)"/>
<path style=" stroke:none;fill-rule:nonzero;fill:rgb(38.039216%,50.588235%,100%);fill-opacity:0.490196;" d="M 77.28125 63 C 77.28125 61.894531 78.175781 61 79.28125 61 L 131 61 C 132.105469 61 133 61.894531 133 63 L 133 84 C 133 85.105469 132.105469 86 131 86 L 79.28125 86 C 78.175781 86 77.28125 85.105469 77.28125 84 Z M 77.28125 63 "/>
<path style="fill:none;stroke-width:1.5;stroke-linecap:butt;stroke-linejoin:miter;stroke:rgb(38.039216%,50.588235%,100%);stroke-opacity:1;stroke-miterlimit:10;" d="M 0 2 C 0 0.894531 0.894531 0 2 0 L 53 0 C 54.105469 0 55 0.894531 55 2 L 55 10 C 55 11.105469 54.105469 12 53 12 L 2 12 C 0.894531 12 0 11.105469 0 10 Z M 0 2 " transform="matrix(1,0,0,1,78,88)"/>
<path style=" stroke:none;fill-rule:nonzero;fill:rgb(38.039216%,50.588235%,100%);fill-opacity:0.490196;" d="M 78 90 C 78 88.894531 78.894531 88 80 88 L 131 88 C 132.105469 88 133 88.894531 133 90 L 133 98 C 133 99.105469 132.105469 100 131 100 L 80 100 C 78.894531 100 78 99.105469 78 98 Z M 78 90 "/>
<path style="fill:none;stroke-width:1.5;stroke-linecap:butt;stroke-linejoin:miter;stroke:rgb(38.039216%,50.588235%,100%);stroke-opacity:1;stroke-miterlimit:10;" d="M 0 2 C 0 0.894531 0.894531 0 2 0 L 34 0 C 35.105469 0 36 0.894531 36 2 L 36 23 C 36 24.105469 35.105469 25 34 25 L 2 25 C 0.894531 25 0 24.105469 0 23 Z M 0 2 " transform="matrix(1,0,0,1,171,61)"/>
<path style=" stroke:none;fill-rule:nonzero;fill:rgb(38.039216%,50.588235%,100%);fill-opacity:0.490196;" d="M 171 63 C 171 61.894531 171.894531 61 173 61 L 205 61 C 206.105469 61 207 61.894531 207 63 L 207 84 C 207 85.105469 206.105469 86 205 86 L 173 86 C 171.894531 86 171 85.105469 171 84 Z M 171 63 "/>
<path style="fill:none;stroke-width:1.5;stroke-linecap:butt;stroke-linejoin:miter;stroke:rgb(38.039216%,50.588235%,100%);stroke-opacity:1;stroke-miterlimit:10;" d="M 0 2 C 0 0.894531 0.894531 0 2 0 L 34 0 C 35.105469 0 36 0.894531 36 2 L 36 10 C 36 11.105469 35.105469 12 34 12 L 2 12 C 0.894531 12 0 11.105469 0 10 Z M 0 2 " transform="matrix(1,0,0,1,171,88)"/>
<path style=" stroke:none;fill-rule:nonzero;fill:rgb(38.039216%,50.588235%,100%);fill-opacity:0.490196;" d="M 171 90 C 171 88.894531 171.894531 88 173 88 L 205 88 C 206.105469 88 207 88.894531 207 90 L 207 98 C 207 99.105469 206.105469 100 205 100 L 173 100 C 171.894531 100 171 99.105469 171 98 Z M 171 90 "/>
<path style="fill:none;stroke-width:1.5;stroke-linecap:butt;stroke-linejoin:miter;stroke:rgb(38.039216%,50.588235%,100%);stroke-opacity:1;stroke-miterlimit:10;" d="M 0 2 C 0 0.894531 0.894531 0 2 0 L 15 0 C 16.105469 0 17 0.894531 17 2 L 17 37 C 17 38.105469 16.105469 39 15 39 L 2 39 C 0.894531 39 0 38.105469 0 37 Z M 0 2 " transform="matrix(1,0,0,1,152,61)"/>
<path style=" stroke:none;fill-rule:nonzero;fill:rgb(38.039216%,50.588235%,100%);fill-opacity:0.490196;" d="M 152 63 C 152 61.894531 152.894531 61 154 61 L 167 61 C 168.105469 61 169 61.894531 169 63 L 169 98 C 169 99.105469 168.105469 100 167 100 L 154 100 C 152.894531 100 152 99.105469 152 98 Z M 152 63 "/>
<path style="fill:none;stroke-width:1.5;stroke-linecap:butt;stroke-linejoin:miter;stroke:rgb(38.039216%,50.588235%,100%);stroke-opacity:1;stroke-miterlimit:10;" d="M 0 2 C 0 0.894531 0.894531 0 2 0 L 34 0 C 35.105469 0 36 0.894531 36 2 L 36 23 C 36 24.105469 35.105469 25 34 25 L 2 25 C 0.894531 25 0 24.105469 0 23 Z M 0 2 " transform="matrix(1,0,0,1,245,61)"/>
<path style=" stroke:none;fill-rule:nonzero;fill:rgb(38.039216%,50.588235%,100%);fill-opacity:0.490196;" d="M 245 63 C 245 61.894531 245.894531 61 247 61 L 279 61 C 280.105469 61 281 61.894531 281 63 L 281 84 C 281 85.105469 280.105469 86 279 86 L 247 86 C 245.894531 86 245 85.105469 245 84 Z M 245 63 "/>
<path style="fill:none;stroke-width:1.5;stroke-linecap:butt;stroke-linejoin:miter;stroke:rgb(38.039216%,50.588235%,100%);stroke-opacity:1;stroke-miterlimit:10;" d="M 0 2 C 0 0.894531 0.894531 0 2 0 L 34 0 C 35.105469 0 36 0.894531 36 2 L 36 10 C 36 11.105469 35.105469 12 34 12 L 2 12 C 0.894531 12 0 11.105469 0 10 Z M 0 2 " transform="matrix(1,0,0,1,245,88)"/>
<path style=" stroke:none;fill-rule:nonzero;fill:rgb(38.039216%,50.588235%,100%);fill-opacity:0.490196;" d="M 245 90 C 245 88.894531 245.894531 88 247 88 L 279 88 C 280.105469 88 281 88.894531 281 90 L 281 98 C 281 99.105469 280.105469 100 279 100 L 247 100 C 245.894531 100 245 99.105469 245 98 Z M 245 90 "/>
<path style="fill:none;stroke-width:1.5;stroke-linecap:butt;stroke-linejoin:miter;stroke:rgb(38.039216%,50.588235%,100%);stroke-opacity:1;stroke-miterlimit:10;" d="M 0 2 C 0 0.894531 0.894531 0 2 0 L 15 0 C 16.105469 0 17 0.894531 17 2 L 17 23 C 17 24.105469 16.105469 25 15 25 L 2 25 C 0.894531 25 0 24.105469 0 23 Z M 0 2 " transform="matrix(1,0,0,1,226,61)"/>
<path style=" stroke:none;fill-rule:nonzero;fill:rgb(38.039216%,50.588235%,100%);fill-opacity:0.490196;" d="M 226 63 C 226 61.894531 226.894531 61 228 61 L 241 61 C 242.105469 61 243 61.894531 243 63 L 243 84 C 243 85.105469 242.105469 86 241 86 L 228 86 C 226.894531 86 226 85.105469 226 84 Z M 226 63 "/>
<path style="fill:none;stroke-width:1.5;stroke-linecap:butt;stroke-linejoin:miter;stroke:rgb(38.039216%,50.588235%,100%);stroke-opacity:1;stroke-miterlimit:10;" d="M 0 2 C 0 0.894531 0.894531 0 2 0 L 15 0 C 16.105469 0 17 0.894531 17 2 L 17 10 C 17 11.105469 16.105469 12 15 12 L 2 12 C 0.894531 12 0 11.105469 0 10 Z M 0 2 " transform="matrix(1,0,0,1,226,88)"/>
<path style=" stroke:none;fill-rule:nonzero;fill:rgb(38.039216%,50.588235%,100%);fill-opacity:0.490196;" d="M 226 90 C 226 88.894531 226.894531 88 228 88 L 241 88 C 242.105469 88 243 88.894531 243 90 L 243 98 C 243 99.105469 242.105469 100 241 100 L 228 100 C 226.894531 100 226 99.105469 226 98 Z M 226 90 "/>
<path style="fill:none;stroke-width:1.5;stroke-linecap:butt;stroke-linejoin:miter;stroke:rgb(38.039216%,50.588235%,100%);stroke-opacity:1;stroke-miterlimit:10;" d="M 0 2 C 0 0.894531 0.894531 0 2 0 L 34 0 C 35.105469 0 36 0.894531 36 2 L 36 23 C 36 24.105469 35.105469 25 34 25 L 2 25 C 0.894531 25 0 24.105469 0 23 Z M 0 2 " transform="matrix(1,0,0,1,319,61)"/>
<path style=" stroke:none;fill-rule:nonzero;fill:rgb(38.039216%,50.588235%,100%);fill-opacity:0.490196;" d="M 319 63 C 319 61.894531 319.894531 61 321 61 L 353 61 C 354.105469 61 355 61.894531 355 63 L 355 84 C 355 85.105469 354.105469 86 353 86 L 321 86 C 319.894531 86 319 85.105469 319 84 Z M 319 63 "/>
<path style="fill:none;stroke-width:1.5;stroke-linecap:butt;stroke-linejoin:miter;stroke:rgb(38.039216%,50.588235%,100%);stroke-opacity:1;stroke-miterlimit:10;" d="M 0 2 C 0 0.894531 0.894531 0 2 0 L 34 0 C 35.105469 0 36 0.894531 36 2 L 36 10 C 36 11.105469 35.105469 12 34 12 L 2 12 C 0.894531 12 0 11.105469 0 10 Z M 0 2 " transform="matrix(1,0,0,1,319,88)"/>
<path style=" stroke:none;fill-rule:nonzero;fill:rgb(38.039216%,50.588235%,100%);fill-opacity:0.490196;" d="M 319 90 C 319 88.894531 319.894531 88 321 88 L 353 88 C 354.105469 88 355 88.894531 355 90 L 355 98 C 355 99.105469 354.105469 100 353 100 L 321 100 C 319.894531 100 319 99.105469 319 98 Z M 319 90 "/>
<path style="fill:none;stroke-width:1.5;stroke-linecap:butt;stroke-linejoin:miter;stroke:rgb(38.039216%,50.588235%,100%);stroke-opacity:1;stroke-miterlimit:10;" d="M 0 2 C 0 0.894531 0.894531 0 2 0 L 15 0 C 16.105469 0 17 0.894531 17 2 L 17 9 C 17 10.105469 16.105469 11 15 11 L 2 11 C 0.894531 11 0 10.105469 0 9 Z M 0 2 " transform="matrix(1,0,0,1,300,61)"/>
<path style=" stroke:none;fill-rule:nonzero;fill:rgb(38.039216%,50.588235%,100%);fill-opacity:0.490196;" d="M 300 63 C 300 61.894531 300.894531 61 302 61 L 315 61 C 316.105469 61 317 61.894531 317 63 L 317 70 C 317 71.105469 316.105469 72 315 72 L 302 72 C 300.894531 72 300 71.105469 300 70 Z M 300 63 "/>
<path style="fill:none;stroke-width:1.5;stroke-linecap:butt;stroke-linejoin:miter;stroke:rgb(38.039216%,50.588235%,100%);stroke-opacity:1;stroke-miterlimit:10;" d="M 0 2 C 0 0.894531 0.894531 0 2 0 L 15 0 C 16.105469 0 17 0.894531 17 2 L 17 10 C 17 11.105469 16.105469 12 15 12 L 2 12 C 0.894531 12 0 11.105469 0 10 Z M 0 2 " transform="matrix(1,0,0,1,300,88)"/>
<path style=" stroke:none;fill-rule:nonzero;fill:rgb(38.039216%,50.588235%,100%);fill-opacity:0.490196;" d="M 300 90 C 300 88.894531 300.894531 88 302 88 L 315 88 C 316.105469 88 317 88.894531 317 90 L 317 98 C 317 99.105469 316.105469 100 315 100 L 302 100 C 300.894531 100 300 99.105469 300 98 Z M 300 90 "/>
<path style="fill:none;stroke-width:1.5;stroke-linecap:butt;stroke-linejoin:miter;stroke:rgb(38.039216%,50.588235%,100%);stroke-opacity:1;stroke-miterlimit:10;" d="M 0 2 C 0 0.894531 0.894531 0 2 0 L 15 0 C 16.105469 0 17 0.894531 17 2 L 17 9 C 17 10.105469 16.105469 11 15 11 L 2 11 C 0.894531 11 0 10.105469 0 9 Z M 0 2 " transform="matrix(1,0,0,1,300,74)"/>
<path style=" stroke:none;fill-rule:nonzero;fill:rgb(38.039216%,50.588235%,100%);fill-opacity:0.490196;" d="M 300 76 C 300 74.894531 300.894531 74 302 74 L 315 74 C 316.105469 74 317 74.894531 317 76 L 317 83 C 317 84.105469 316.105469 85 315 85 L 302 85 C 300.894531 85 300 84.105469 300 83 Z M 300 76 "/>
<path style="fill:none;stroke-width:1.5;stroke-linecap:butt;stroke-linejoin:miter;stroke:rgb(38.039216%,50.588235%,100%);stroke-opacity:1;stroke-miterlimit:10;" d="M 0 2 C 0 0.894531 0.894531 0 2 0 L 34 0 C 35.105469 0 36 0.894531 36 2 L 36 23 C 36 24.105469 35.105469 25 34 25 L 2 25 C 0.894531 25 0 24.105469 0 23 Z M 0 2 " transform="matrix(1,0,0,1,393,61)"/>
<path style=" stroke:none;fill-rule:nonzero;fill:rgb(38.039216%,50.588235%,100%);fill-opacity:0.490196;" d="M 393 63 C 393 61.894531 393.894531 61 395 61 L 427 61 C 428.105469 61 429 61.894531 429 63 L 429 84 C 429 85.105469 428.105469 86 427 86 L 395 86 C 393.894531 86 393 85.105469 393 84 Z M 393 63 "/>
<path style="fill:none;stroke-width:1.5;stroke-linecap:butt;stroke-linejoin:miter;stroke:rgb(38.039216%,50.588235%,100%);stroke-opacity:1;stroke-miterlimit:10;" d="M 0 2 C 0 0.894531 0.894531 0 2 0 L 15 0 C 16.105469 0 17 0.894531 17 2 L 17 10 C 17 11.105469 16.105469 12 15 12 L 2 12 C 0.894531 12 0 11.105469 0 10 Z M 0 2 " transform="matrix(1,0,0,1,412,88)"/>
<path style=" stroke:none;fill-rule:nonzero;fill:rgb(38.039216%,50.588235%,100%);fill-opacity:0.490196;" d="M 412 90 C 412 88.894531 412.894531 88 414 88 L 427 88 C 428.105469 88 429 88.894531 429 90 L 429 98 C 429 99.105469 428.105469 100 427 100 L 414 100 C 412.894531 100 412 99.105469 412 98 Z M 412 90 "/>
<path style="fill:none;stroke-width:1.5;stroke-linecap:butt;stroke-linejoin:miter;stroke:rgb(38.039216%,50.588235%,100%);stroke-opacity:1;stroke-miterlimit:10;" d="M 0 2 C 0 0.894531 0.894531 0 2 0 L 15 0 C 16.105469 0 17 0.894531 17 2 L 17 9 C 17 10.105469 16.105469 11 15 11 L 2 11 C 0.894531 11 0 10.105469 0 9 Z M 0 2 " transform="matrix(1,0,0,1,374,61)"/>
<path style=" stroke:none;fill-rule:nonzero;fill:rgb(38.039216%,50.588235%,100%);fill-opacity:0.490196;" d="M 374 63 C 374 61.894531 374.894531 61 376 61 L 389 61 C 390.105469 61 391 61.894531 391 63 L 391 70 C 391 71.105469 390.105469 72 389 72 L 376 72 C 374.894531 72 374 71.105469 374 70 Z M 374 63 "/>
<path style="fill:none;stroke-width:1.5;stroke-linecap:butt;stroke-linejoin:miter;stroke:rgb(38.039216%,50.588235%,100%);stroke-opacity:1;stroke-miterlimit:10;" d="M 0 2 C 0 0.894531 0.894531 0 2 0 L 15 0 C 16.105469 0 17 0.894531 17 2 L 17 10 C 17 11.105469 16.105469 12 15 12 L 2 12 C 0.894531 12 0 11.105469 0 10 Z M 0 2 " transform="matrix(1,0,0,1,374,88)"/>
<path style=" stroke:none;fill-rule:nonzero;fill:rgb(38.039216%,50.588235%,100%);fill-opacity:0.490196;" d="M 374 90 C 374 88.894531 374.894531 88 376 88 L 389 88 C 390.105469 88 391 88.894531 391 90 L 391 98 C 391 99.105469 390.105469 100 389 100 L 376 100 C 374.894531 100 374 99.105469 374 98 Z M 374 90 "/>
<path style="fill:none;stroke-width:1.5;stroke-linecap:butt;stroke-linejoin:miter;stroke:rgb(38.039216%,50.588235%,100%);stroke-opacity:1;stroke-miterlimit:10;" d="M 0 2 C 0 0.894531 0.894531 0 2 0 L 15 0 C 16.105469 0 17 0.894531 17 2 L 17 9 C 17 10.105469 16.105469 11 15 11 L 2 11 C 0.894531 11 0 10.105469 0 9 Z M 0 2 " transform="matrix(1,0,0,1,374,74)"/>
<path style=" stroke:none;fill-rule:nonzero;fill:rgb(38.039216%,50.588235%,100%);fill-opacity:0.490196;" d="M 374 76 C 374 74.894531 374.894531 74 376 74 L 389 74 C 390.105469 74 391 74.894531 391 76 L 391 83 C 391 84.105469 390.105469 85 389 85 L 376 85 C 374.894531 85 374 84.105469 374 83 Z M 374 76 "/>
<path style="fill:none;stroke-width:1.5;stroke-linecap:butt;stroke-linejoin:miter;stroke:rgb(38.039216%,50.588235%,100%);stroke-opacity:1;stroke-miterlimit:10;" d="M 0 2 C 0 0.894531 0.894531 0 2 0 L 15 0 C 16.105469 0 17 0.894531 17 2 L 17 10 C 17 11.105469 16.105469 12 15 12 L 2 12 C 0.894531 12 0 11.105469 0 10 Z M 0 2 " transform="matrix(1,0,0,1,393,88)"/>
<path style=" stroke:none;fill-rule:nonzero;fill:rgb(38.039216%,50.588235%,100%);fill-opacity:0.490196;" d="M 393 90 C 393 88.894531 393.894531 88 395 88 L 408 88 C 409.105469 88 410 88.894531 410 90 L 410 98 C 410 99.105469 409.105469 100 408 100 L 395 100 C 393.894531 100 393 99.105469 393 98 Z M 393 90 "/>
<path style="fill:none;stroke-width:1.5;stroke-linecap:butt;stroke-linejoin:miter;stroke:rgb(38.039216%,50.588235%,100%);stroke-opacity:1;stroke-miterlimit:10;" d="M 0 2 C 0 0.894531 0.894531 0 2 0 L 34 0 C 35.105469 0 36 0.894531 36 2 L 36 23 C 36 24.105469 35.105469 25 34 25 L 2 25 C 0.894531 25 0 24.105469 0 23 Z M 0 2 " transform="matrix(1,0,0,1,467,61)"/>
<path style=" stroke:none;fill-rule:nonzero;fill:rgb(38.039216%,50.588235%,100%);fill-opacity:0.490196;" d="M 467 63 C 467 61.894531 467.894531 61 469 61 L 501 61 C 502.105469 61 503 61.894531 503 63 L 503 84 C 503 85.105469 502.105469 86 501 86 L 469 86 C 467.894531 86 467 85.105469 467 84 Z M 467 63 "/>
<path style="fill:none;stroke-width:1.5;stroke-linecap:butt;stroke-linejoin:miter;stroke:rgb(38.039216%,50.588235%,100%);stroke-opacity:1;stroke-miterlimit:10;" d="M 0 2 C 0 0.894531 0.894531 0 2 0 L 15 0 C 16.105469 0 17 0.894531 17 2 L 17 10 C 17 11.105469 16.105469 12 15 12 L 2 12 C 0.894531 12 0 11.105469 0 10 Z M 0 2 " transform="matrix(1,0,0,1,486,88)"/>
<path style=" stroke:none;fill-rule:nonzero;fill:rgb(38.039216%,50.588235%,100%);fill-opacity:0.490196;" d="M 486 90 C 486 88.894531 486.894531 88 488 88 L 501 88 C 502.105469 88 503 88.894531 503 90 L 503 98 C 503 99.105469 502.105469 100 501 100 L 488 100 C 486.894531 100 486 99.105469 486 98 Z M 486 90 "/>
<path style="fill:none;stroke-width:1.5;stroke-linecap:butt;stroke-linejoin:miter;stroke:rgb(38.039216%,50.588235%,100%);stroke-opacity:1;stroke-miterlimit:10;" d="M 0 2 C 0 0.894531 0.894531 0 2 0 L 15 0 C 16.105469 0 17 0.894531 17 2 L 17 5 C 17 6.105469 16.105469 7 15 7 L 2 7 C 0.894531 7 0 6.105469 0 5 Z M 0 2 " transform="matrix(1,0,0,1,448,61)"/>
<path style=" stroke:none;fill-rule:nonzero;fill:rgb(38.039216%,50.588235%,100%);fill-opacity:0.490196;" d="M 448 63 C 448 61.894531 448.894531 61 450 61 L 463 61 C 464.105469 61 465 61.894531 465 63 L 465 66 C 465 67.105469 464.105469 68 463 68 L 450 68 C 448.894531 68 448 67.105469 448 66 Z M 448 63 "/>
<path style="fill:none;stroke-width:1.5;stroke-linecap:butt;stroke-linejoin:miter;stroke:rgb(38.039216%,50.588235%,100%);stroke-opacity:1;stroke-miterlimit:10;" d="M 0 2 C 0 0.894531 0.894531 0 2 0 L 15 0 C 16.105469 0 17 0.894531 17 2 L 17 10 C 17 11.105469 16.105469 12 15 12 L 2 12 C 0.894531 12 0 11.105469 0 10 Z M 0 2 " transform="matrix(1,0,0,1,448,88)"/>
<path style=" stroke:none;fill-rule:nonzero;fill:rgb(38.039216%,50.588235%,100%);fill-opacity:0.490196;" d="M 448 90 C 448 88.894531 448.894531 88 450 88 L 463 88 C 464.105469 88 465 88.894531 465 90 L 465 98 C 465 99.105469 464.105469 100 463 100 L 450 100 C 448.894531 100 448 99.105469 448 98 Z M 448 90 "/>
<path style="fill:none;stroke-width:1.5;stroke-linecap:butt;stroke-linejoin:miter;stroke:rgb(38.039216%,50.588235%,100%);stroke-opacity:1;stroke-miterlimit:10;" d="M 0 2 C 0 0.894531 0.894531 0 2 0 L 15 0 C 16.105469 0 17 0.894531 17 2 L 17 5 C 17 6.105469 16.105469 7 15 7 L 2 7 C 0.894531 7 0 6.105469 0 5 Z M 0 2 " transform="matrix(1,0,0,1,448,70)"/>
<path style=" stroke:none;fill-rule:nonzero;fill:rgb(38.039216%,50.588235%,100%);fill-opacity:0.490196;" d="M 448 72 C 448 70.894531 448.894531 70 450 70 L 463 70 C 464.105469 70 465 70.894531 465 72 L 465 75 C 465 76.105469 464.105469 77 463 77 L 450 77 C 448.894531 77 448 76.105469 448 75 Z M 448 72 "/>
<path style="fill:none;stroke-width:1.5;stroke-linecap:butt;stroke-linejoin:miter;stroke:rgb(38.039216%,50.588235%,100%);stroke-opacity:1;stroke-miterlimit:10;" d="M 0 2 C 0 0.894531 0.894531 0 2 0 L 15 0 C 16.105469 0 17 0.894531 17 2 L 17 10 C 17 11.105469 16.105469 12 15 12 L 2 12 C 0.894531 12 0 11.105469 0 10 Z M 0 2 " transform="matrix(1,0,0,1,467,88)"/>
<path style=" stroke:none;fill-rule:nonzero;fill:rgb(38.039216%,50.588235%,100%);fill-opacity:0.490196;" d="M 467 90 C 467 88.894531 467.894531 88 469 88 L 482 88 C 483.105469 88 484 88.894531 484 90 L 484 98 C 484 99.105469 483.105469 100 482 100 L 469 100 C 467.894531 100 467 99.105469 467 98 Z M 467 90 "/>
<path style="fill:none;stroke-width:1.5;stroke-linecap:butt;stroke-linejoin:miter;stroke:rgb(38.039216%,50.588235%,100%);stroke-opacity:1;stroke-miterlimit:10;" d="M 0 2 C 0 0.894531 0.894531 0 2 0 L 15 0 C 16.105469 0 17 0.894531 17 2 L 17 5 C 17 6.105469 16.105469 7 15 7 L 2 7 C 0.894531 7 0 6.105469 0 5 Z M 0 2 " transform="matrix(1,0,0,1,448,79)"/>
<path style=" stroke:none;fill-rule:nonzero;fill:rgb(38.039216%,50.588235%,100%);fill-opacity:0.490196;" d="M 448 81 C 448 79.894531 448.894531 79 450 79 L 463 79 C 464.105469 79 465 79.894531 465 81 L 465 84 C 465 85.105469 464.105469 86 463 86 L 450 86 C 448.894531 86 448 85.105469 448 84 Z M 448 81 "/>
<path style="fill:none;stroke-width:1.5;stroke-linecap:butt;stroke-linejoin:miter;stroke:rgb(38.039216%,50.588235%,100%);stroke-opacity:1;stroke-miterlimit:10;" d="M 0 2 C 0 0.894531 0.894531 0 2 0 L 53.71875 0 C 54.824219 0 55.71875 0.894531 55.71875 2 L 55.71875 37 C 55.71875 38.105469 54.824219 39 53.71875 39 L 2 39 C 0.894531 39 0 38.105469 0 37 Z M 0 2 " transform="matrix(1,0,0,1,3,120)"/>
<path style=" stroke:none;fill-rule:nonzero;fill:rgb(38.039216%,50.588235%,100%);fill-opacity:0.490196;" d="M 3 122 C 3 120.894531 3.894531 120 5 120 L 56.71875 120 C 57.824219 120 58.71875 120.894531 58.71875 122 L 58.71875 157 C 58.71875 158.105469 57.824219 159 56.71875 159 L 5 159 C 3.894531 159 3 158.105469 3 157 Z M 3 122 "/>
<path style="fill:none;stroke-width:1.5;stroke-linecap:butt;stroke-linejoin:miter;stroke:rgb(38.039216%,50.588235%,100%);stroke-opacity:1;stroke-miterlimit:10;" d="M 0 2 C 0 0.894531 0.894531 0 2 0 L 53.71875 0 C 54.824219 0 55.71875 0.894531 55.71875 2 L 55.71875 23 C 55.71875 24.105469 54.824219 25 53.71875 25 L 2 25 C 0.894531 25 0 24.105469 0 23 Z M 0 2 " transform="matrix(1,0,0,1,77,134)"/>
<path style=" stroke:none;fill-rule:nonzero;fill:rgb(38.039216%,50.588235%,100%);fill-opacity:0.490196;" d="M 77 136 C 77 134.894531 77.894531 134 79 134 L 130.71875 134 C 131.824219 134 132.71875 134.894531 132.71875 136 L 132.71875 157 C 132.71875 158.105469 131.824219 159 130.71875 159 L 79 159 C 77.894531 159 77 158.105469 77 157 Z M 77 136 "/>
<path style="fill:none;stroke-width:1.5;stroke-linecap:butt;stroke-linejoin:miter;stroke:rgb(38.039216%,50.588235%,100%);stroke-opacity:1;stroke-miterlimit:10;" d="M 0 2 C 0 0.894531 0.894531 0 2 0 L 53 0 C 54.105469 0 55 0.894531 55 2 L 55 10 C 55 11.105469 54.105469 12 53 12 L 2 12 C 0.894531 12 0 11.105469 0 10 Z M 0 2 " transform="matrix(1,0,0,1,77,120)"/>
<path style=" stroke:none;fill-rule:nonzero;fill:rgb(38.039216%,50.588235%,100%);fill-opacity:0.490196;" d="M 77 122 C 77 120.894531 77.894531 120 79 120 L 130 120 C 131.105469 120 132 120.894531 132 122 L 132 130 C 132 131.105469 131.105469 132 130 132 L 79 132 C 77.894531 132 77 131.105469 77 130 Z M 77 122 "/>
<path style="fill:none;stroke-width:1.5;stroke-linecap:butt;stroke-linejoin:miter;stroke:rgb(38.039216%,50.588235%,100%);stroke-opacity:1;stroke-miterlimit:10;" d="M 0 2 C 0 0.894531 0.894531 0 2 0 L 34 0 C 35.105469 0 36 0.894531 36 2 L 36 23 C 36 24.105469 35.105469 25 34 25 L 2 25 C 0.894531 25 0 24.105469 0 23 Z M 0 2 " transform="matrix(1,0,0,1,151,134)"/>
<path style=" stroke:none;fill-rule:nonzero;fill:rgb(38.039216%,50.588235%,100%);fill-opacity:0.490196;" d="M 151 136 C 151 134.894531 151.894531 134 153 134 L 185 134 C 186.105469 134 187 134.894531 187 136 L 187 157 C 187 158.105469 186.105469 159 185 159 L 153 159 C 151.894531 159 151 158.105469 151 157 Z M 151 136 "/>
<path style="fill:none;stroke-width:1.5;stroke-linecap:butt;stroke-linejoin:miter;stroke:rgb(38.039216%,50.588235%,100%);stroke-opacity:1;stroke-miterlimit:10;" d="M 0 2 C 0 0.894531 0.894531 0 2 0 L 34 0 C 35.105469 0 36 0.894531 36 2 L 36 10 C 36 11.105469 35.105469 12 34 12 L 2 12 C 0.894531 12 0 11.105469 0 10 Z M 0 2 " transform="matrix(1,0,0,1,151,120)"/>
<path style=" stroke:none;fill-rule:nonzero;fill:rgb(38.039216%,50.588235%,100%);fill-opacity:0.490196;" d="M 151 122 C 151 120.894531 151.894531 120 153 120 L 185 120 C 186.105469 120 187 120.894531 187 122 L 187 130 C 187 131.105469 186.105469 132 185 132 L 153 132 C 151.894531 132 151 131.105469 151 130 Z M 151 122 "/>
<path style="fill:none;stroke-width:1.5;stroke-linecap:butt;stroke-linejoin:miter;stroke:rgb(38.039216%,50.588235%,100%);stroke-opacity:1;stroke-miterlimit:10;" d="M 0 2 C 0 0.894531 0.894531 0 2 0 L 15 0 C 16.105469 0 17 0.894531 17 2 L 17 37 C 17 38.105469 16.105469 39 15 39 L 2 39 C 0.894531 39 0 38.105469 0 37 Z M 0 2 " transform="matrix(1,0,0,1,189,120)"/>
<path style=" stroke:none;fill-rule:nonzero;fill:rgb(38.039216%,50.588235%,100%);fill-opacity:0.490196;" d="M 189 122 C 189 120.894531 189.894531 120 191 120 L 204 120 C 205.105469 120 206 120.894531 206 122 L 206 157 C 206 158.105469 205.105469 159 204 159 L 191 159 C 189.894531 159 189 158.105469 189 157 Z M 189 122 "/>
<path style="fill:none;stroke-width:1.5;stroke-linecap:butt;stroke-linejoin:miter;stroke:rgb(38.039216%,50.588235%,100%);stroke-opacity:1;stroke-miterlimit:10;" d="M 0 2 C 0 0.894531 0.894531 0 2 0 L 34 0 C 35.105469 0 36 0.894531 36 2 L 36 23 C 36 24.105469 35.105469 25 34 25 L 2 25 C 0.894531 25 0 24.105469 0 23 Z M 0 2 " transform="matrix(1,0,0,1,225,134)"/>
<path style=" stroke:none;fill-rule:nonzero;fill:rgb(38.039216%,50.588235%,100%);fill-opacity:0.490196;" d="M 225 136 C 225 134.894531 225.894531 134 227 134 L 259 134 C 260.105469 134 261 134.894531 261 136 L 261 157 C 261 158.105469 260.105469 159 259 159 L 227 159 C 225.894531 159 225 158.105469 225 157 Z M 225 136 "/>
<path style="fill:none;stroke-width:1.5;stroke-linecap:butt;stroke-linejoin:miter;stroke:rgb(38.039216%,50.588235%,100%);stroke-opacity:1;stroke-miterlimit:10;" d="M 0 2 C 0 0.894531 0.894531 0 2 0 L 34 0 C 35.105469 0 36 0.894531 36 2 L 36 10 C 36 11.105469 35.105469 12 34 12 L 2 12 C 0.894531 12 0 11.105469 0 10 Z M 0 2 " transform="matrix(1,0,0,1,225,120)"/>
<path style=" stroke:none;fill-rule:nonzero;fill:rgb(38.039216%,50.588235%,100%);fill-opacity:0.490196;" d="M 225 122 C 225 120.894531 225.894531 120 227 120 L 259 120 C 260.105469 120 261 120.894531 261 122 L 261 130 C 261 131.105469 260.105469 132 259 132 L 227 132 C 225.894531 132 225 131.105469 225 130 Z M 225 122 "/>
<path style="fill:none;stroke-width:1.5;stroke-linecap:butt;stroke-linejoin:miter;stroke:rgb(38.039216%,50.588235%,100%);stroke-opacity:1;stroke-miterlimit:10;" d="M 0 2 C 0 0.894531 0.894531 0 2 0 L 15 0 C 16.105469 0 17 0.894531 17 2 L 17 23 C 17 24.105469 16.105469 25 15 25 L 2 25 C 0.894531 25 0 24.105469 0 23 Z M 0 2 " transform="matrix(1,0,0,1,263,134)"/>
<path style=" stroke:none;fill-rule:nonzero;fill:rgb(38.039216%,50.588235%,100%);fill-opacity:0.490196;" d="M 263 136 C 263 134.894531 263.894531 134 265 134 L 278 134 C 279.105469 134 280 134.894531 280 136 L 280 157 C 280 158.105469 279.105469 159 278 159 L 265 159 C 263.894531 159 263 158.105469 263 157 Z M 263 136 "/>
<path style="fill:none;stroke-width:1.5;stroke-linecap:butt;stroke-linejoin:miter;stroke:rgb(38.039216%,50.588235%,100%);stroke-opacity:1;stroke-miterlimit:10;" d="M 0 2 C 0 0.894531 0.894531 0 2 0 L 15 0 C 16.105469 0 17 0.894531 17 2 L 17 10 C 17 11.105469 16.105469 12 15 12 L 2 12 C 0.894531 12 0 11.105469 0 10 Z M 0 2 " transform="matrix(1,0,0,1,263,120)"/>
<path style=" stroke:none;fill-rule:nonzero;fill:rgb(38.039216%,50.588235%,100%);fill-opacity:0.490196;" d="M 263 122 C 263 120.894531 263.894531 120 265 120 L 278 120 C 279.105469 120 280 120.894531 280 122 L 280 130 C 280 131.105469 279.105469 132 278 132 L 265 132 C 263.894531 132 263 131.105469 263 130 Z M 263 122 "/>
<path style="fill:none;stroke-width:1.5;stroke-linecap:butt;stroke-linejoin:miter;stroke:rgb(38.039216%,50.588235%,100%);stroke-opacity:1;stroke-miterlimit:10;" d="M 0 2 C 0 0.894531 0.894531 0 2 0 L 34 0 C 35.105469 0 36 0.894531 36 2 L 36 23 C 36 24.105469 35.105469 25 34 25 L 2 25 C 0.894531 25 0 24.105469 0 23 Z M 0 2 " transform="matrix(1,0,0,1,299,134)"/>
<path style=" stroke:none;fill-rule:nonzero;fill:rgb(38.039216%,50.588235%,100%);fill-opacity:0.490196;" d="M 299 136 C 299 134.894531 299.894531 134 301 134 L 333 134 C 334.105469 134 335 134.894531 335 136 L 335 157 C 335 158.105469 334.105469 159 333 159 L 301 159 C 299.894531 159 299 158.105469 299 157 Z M 299 136 "/>
<path style="fill:none;stroke-width:1.5;stroke-linecap:butt;stroke-linejoin:miter;stroke:rgb(38.039216%,50.588235%,100%);stroke-opacity:1;stroke-miterlimit:10;" d="M 0 2 C 0 0.894531 0.894531 0 2 0 L 34 0 C 35.105469 0 36 0.894531 36 2 L 36 10 C 36 11.105469 35.105469 12 34 12 L 2 12 C 0.894531 12 0 11.105469 0 10 Z M 0 2 " transform="matrix(1,0,0,1,299,120)"/>
<path style=" stroke:none;fill-rule:nonzero;fill:rgb(38.039216%,50.588235%,100%);fill-opacity:0.490196;" d="M 299 122 C 299 120.894531 299.894531 120 301 120 L 333 120 C 334.105469 120 335 120.894531 335 122 L 335 130 C 335 131.105469 334.105469 132 333 132 L 301 132 C 299.894531 132 299 131.105469 299 130 Z M 299 122 "/>
<path style="fill:none;stroke-width:1.5;stroke-linecap:butt;stroke-linejoin:miter;stroke:rgb(38.039216%,50.588235%,100%);stroke-opacity:1;stroke-miterlimit:10;" d="M 0 2 C 0 0.894531 0.894531 0 2 0 L 15 0 C 16.105469 0 17 0.894531 17 2 L 17 9 C 17 10.105469 16.105469 11 15 11 L 2 11 C 0.894531 11 0 10.105469 0 9 Z M 0 2 " transform="matrix(1,0,0,1,337,148)"/>
<path style=" stroke:none;fill-rule:nonzero;fill:rgb(38.039216%,50.588235%,100%);fill-opacity:0.490196;" d="M 337 150 C 337 148.894531 337.894531 148 339 148 L 352 148 C 353.105469 148 354 148.894531 354 150 L 354 157 C 354 158.105469 353.105469 159 352 159 L 339 159 C 337.894531 159 337 158.105469 337 157 Z M 337 150 "/>
<path style="fill:none;stroke-width:1.5;stroke-linecap:butt;stroke-linejoin:miter;stroke:rgb(38.039216%,50.588235%,100%);stroke-opacity:1;stroke-miterlimit:10;" d="M 0 2 C 0 0.894531 0.894531 0 2 0 L 15 0 C 16.105469 0 17 0.894531 17 2 L 17 10 C 17 11.105469 16.105469 12 15 12 L 2 12 C 0.894531 12 0 11.105469 0 10 Z M 0 2 " transform="matrix(1,0,0,1,337,120)"/>
<path style=" stroke:none;fill-rule:nonzero;fill:rgb(38.039216%,50.588235%,100%);fill-opacity:0.490196;" d="M 337 122 C 337 120.894531 337.894531 120 339 120 L 352 120 C 353.105469 120 354 120.894531 354 122 L 354 130 C 354 131.105469 353.105469 132 352 132 L 339 132 C 337.894531 132 337 131.105469 337 130 Z M 337 122 "/>
<path style="fill:none;stroke-width:1.5;stroke-linecap:butt;stroke-linejoin:miter;stroke:rgb(38.039216%,50.588235%,100%);stroke-opacity:1;stroke-miterlimit:10;" d="M 0 2 C 0 0.894531 0.894531 0 2 0 L 15 0 C 16.105469 0 17 0.894531 17 2 L 17 9 C 17 10.105469 16.105469 11 15 11 L 2 11 C 0.894531 11 0 10.105469 0 9 Z M 0 2 " transform="matrix(1,0,0,1,337,135)"/>
<path style=" stroke:none;fill-rule:nonzero;fill:rgb(38.039216%,50.588235%,100%);fill-opacity:0.490196;" d="M 337 137 C 337 135.894531 337.894531 135 339 135 L 352 135 C 353.105469 135 354 135.894531 354 137 L 354 144 C 354 145.105469 353.105469 146 352 146 L 339 146 C 337.894531 146 337 145.105469 337 144 Z M 337 137 "/>
<path style="fill:none;stroke-width:1.5;stroke-linecap:butt;stroke-linejoin:miter;stroke:rgb(38.039216%,50.588235%,100%);stroke-opacity:1;stroke-miterlimit:10;" d="M 0 2 C 0 0.894531 0.894531 0 2 0 L 34 0 C 35.105469 0 36 0.894531 36 2 L 36 23 C 36 24.105469 35.105469 25 34 25 L 2 25 C 0.894531 25 0 24.105469 0 23 Z M 0 2 " transform="matrix(1,0,0,1,373,134)"/>
<path style=" stroke:none;fill-rule:nonzero;fill:rgb(38.039216%,50.588235%,100%);fill-opacity:0.490196;" d="M 373 136 C 373 134.894531 373.894531 134 375 134 L 407 134 C 408.105469 134 409 134.894531 409 136 L 409 157 C 409 158.105469 408.105469 159 407 159 L 375 159 C 373.894531 159 373 158.105469 373 157 Z M 373 136 "/>
<path style="fill:none;stroke-width:1.5;stroke-linecap:butt;stroke-linejoin:miter;stroke:rgb(38.039216%,50.588235%,100%);stroke-opacity:1;stroke-miterlimit:10;" d="M 0 2 C 0 0.894531 0.894531 0 2 0 L 15 0 C 16.105469 0 17 0.894531 17 2 L 17 10 C 17 11.105469 16.105469 12 15 12 L 2 12 C 0.894531 12 0 11.105469 0 10 Z M 0 2 " transform="matrix(1,0,0,1,373,120)"/>
<path style=" stroke:none;fill-rule:nonzero;fill:rgb(38.039216%,50.588235%,100%);fill-opacity:0.490196;" d="M 373 122 C 373 120.894531 373.894531 120 375 120 L 388 120 C 389.105469 120 390 120.894531 390 122 L 390 130 C 390 131.105469 389.105469 132 388 132 L 375 132 C 373.894531 132 373 131.105469 373 130 Z M 373 122 "/>
<path style="fill:none;stroke-width:1.5;stroke-linecap:butt;stroke-linejoin:miter;stroke:rgb(38.039216%,50.588235%,100%);stroke-opacity:1;stroke-miterlimit:10;" d="M 0 2 C 0 0.894531 0.894531 0 2 0 L 15 0 C 16.105469 0 17 0.894531 17 2 L 17 9 C 17 10.105469 16.105469 11 15 11 L 2 11 C 0.894531 11 0 10.105469 0 9 Z M 0 2 " transform="matrix(1,0,0,1,411,148)"/>
<path style=" stroke:none;fill-rule:nonzero;fill:rgb(38.039216%,50.588235%,100%);fill-opacity:0.490196;" d="M 411 150 C 411 148.894531 411.894531 148 413 148 L 426 148 C 427.105469 148 428 148.894531 428 150 L 428 157 C 428 158.105469 427.105469 159 426 159 L 413 159 C 411.894531 159 411 158.105469 411 157 Z M 411 150 "/>
<path style="fill:none;stroke-width:1.5;stroke-linecap:butt;stroke-linejoin:miter;stroke:rgb(38.039216%,50.588235%,100%);stroke-opacity:1;stroke-miterlimit:10;" d="M 0 2 C 0 0.894531 0.894531 0 2 0 L 15 0 C 16.105469 0 17 0.894531 17 2 L 17 10 C 17 11.105469 16.105469 12 15 12 L 2 12 C 0.894531 12 0 11.105469 0 10 Z M 0 2 " transform="matrix(1,0,0,1,411,120)"/>
<path style=" stroke:none;fill-rule:nonzero;fill:rgb(38.039216%,50.588235%,100%);fill-opacity:0.490196;" d="M 411 122 C 411 120.894531 411.894531 120 413 120 L 426 120 C 427.105469 120 428 120.894531 428 122 L 428 130 C 428 131.105469 427.105469 132 426 132 L 413 132 C 411.894531 132 411 131.105469 411 130 Z M 411 122 "/>
<path style="fill:none;stroke-width:1.5;stroke-linecap:butt;stroke-linejoin:miter;stroke:rgb(38.039216%,50.588235%,100%);stroke-opacity:1;stroke-miterlimit:10;" d="M 0 2 C 0 0.894531 0.894531 0 2 0 L 15 0 C 16.105469 0 17 0.894531 17 2 L 17 9 C 17 10.105469 16.105469 11 15 11 L 2 11 C 0.894531 11 0 10.105469 0 9 Z M 0 2 " transform="matrix(1,0,0,1,411,135)"/>
<path style=" stroke:none;fill-rule:nonzero;fill:rgb(38.039216%,50.588235%,100%);fill-opacity:0.490196;" d="M 411 137 C 411 135.894531 411.894531 135 413 135 L 426 135 C 427.105469 135 428 135.894531 428 137 L 428 144 C 428 145.105469 427.105469 146 426 146 L 413 146 C 411.894531 146 411 145.105469 411 144 Z M 411 137 "/>
<path style="fill:none;stroke-width:1.5;stroke-linecap:butt;stroke-linejoin:miter;stroke:rgb(38.039216%,50.588235%,100%);stroke-opacity:1;stroke-miterlimit:10;" d="M 0 2 C 0 0.894531 0.894531 0 2 0 L 15 0 C 16.105469 0 17 0.894531 17 2 L 17 10 C 17 11.105469 16.105469 12 15 12 L 2 12 C 0.894531 12 0 11.105469 0 10 Z M 0 2 " transform="matrix(1,0,0,1,392,120)"/>
<path style=" stroke:none;fill-rule:nonzero;fill:rgb(38.039216%,50.588235%,100%);fill-opacity:0.490196;" d="M 392 122 C 392 120.894531 392.894531 120 394 120 L 407 120 C 408.105469 120 409 120.894531 409 122 L 409 130 C 409 131.105469 408.105469 132 407 132 L 394 132 C 392.894531 132 392 131.105469 392 130 Z M 392 122 "/>
<path style="fill:none;stroke-width:1.5;stroke-linecap:butt;stroke-linejoin:miter;stroke:rgb(38.039216%,50.588235%,100%);stroke-opacity:1;stroke-miterlimit:10;" d="M 0 2 C 0 0.894531 0.894531 0 2 0 L 34 0 C 35.105469 0 36 0.894531 36 2 L 36 23 C 36 24.105469 35.105469 25 34 25 L 2 25 C 0.894531 25 0 24.105469 0 23 Z M 0 2 " transform="matrix(1,0,0,1,447,134)"/>
<path style=" stroke:none;fill-rule:nonzero;fill:rgb(38.039216%,50.588235%,100%);fill-opacity:0.490196;" d="M 447 136 C 447 134.894531 447.894531 134 449 134 L 481 134 C 482.105469 134 483 134.894531 483 136 L 483 157 C 483 158.105469 482.105469 159 481 159 L 449 159 C 447.894531 159 447 158.105469 447 157 Z M 447 136 "/>
<path style="fill:none;stroke-width:1.5;stroke-linecap:butt;stroke-linejoin:miter;stroke:rgb(38.039216%,50.588235%,100%);stroke-opacity:1;stroke-miterlimit:10;" d="M 0 2 C 0 0.894531 0.894531 0 2 0 L 15 0 C 16.105469 0 17 0.894531 17 2 L 17 10 C 17 11.105469 16.105469 12 15 12 L 2 12 C 0.894531 12 0 11.105469 0 10 Z M 0 2 " transform="matrix(1,0,0,1,447,120)"/>
<path style=" stroke:none;fill-rule:nonzero;fill:rgb(38.039216%,50.588235%,100%);fill-opacity:0.490196;" d="M 447 122 C 447 120.894531 447.894531 120 449 120 L 462 120 C 463.105469 120 464 120.894531 464 122 L 464 130 C 464 131.105469 463.105469 132 462 132 L 449 132 C 447.894531 132 447 131.105469 447 130 Z M 447 122 "/>
<path style="fill:none;stroke-width:1.5;stroke-linecap:butt;stroke-linejoin:miter;stroke:rgb(38.039216%,50.588235%,100%);stroke-opacity:1;stroke-miterlimit:10;" d="M 0 2 C 0 0.894531 0.894531 0 2 0 L 15 0 C 16.105469 0 17 0.894531 17 2 L 17 5 C 17 6.105469 16.105469 7 15 7 L 2 7 C 0.894531 7 0 6.105469 0 5 Z M 0 2 " transform="matrix(1,0,0,1,485,152)"/>
<path style=" stroke:none;fill-rule:nonzero;fill:rgb(38.039216%,50.588235%,100%);fill-opacity:0.490196;" d="M 485 154 C 485 152.894531 485.894531 152 487 152 L 500 152 C 501.105469 152 502 152.894531 502 154 L 502 157 C 502 158.105469 501.105469 159 500 159 L 487 159 C 485.894531 159 485 158.105469 485 157 Z M 485 154 "/>
<path style="fill:none;stroke-width:1.5;stroke-linecap:butt;stroke-linejoin:miter;stroke:rgb(38.039216%,50.588235%,100%);stroke-opacity:1;stroke-miterlimit:10;" d="M 0 2 C 0 0.894531 0.894531 0 2 0 L 15 0 C 16.105469 0 17 0.894531 17 2 L 17 10 C 17 11.105469 16.105469 12 15 12 L 2 12 C 0.894531 12 0 11.105469 0 10 Z M 0 2 " transform="matrix(1,0,0,1,485,120)"/>
<path style=" stroke:none;fill-rule:nonzero;fill:rgb(38.039216%,50.588235%,100%);fill-opacity:0.490196;" d="M 485 122 C 485 120.894531 485.894531 120 487 120 L 500 120 C 501.105469 120 502 120.894531 502 122 L 502 130 C 502 131.105469 501.105469 132 500 132 L 487 132 C 485.894531 132 485 131.105469 485 130 Z M 485 122 "/>
<path style="fill:none;stroke-width:1.5;stroke-linecap:butt;stroke-linejoin:miter;stroke:rgb(38.039216%,50.588235%,100%);stroke-opacity:1;stroke-miterlimit:10;" d="M 0 2 C 0 0.894531 0.894531 0 2 0 L 15 0 C 16.105469 0 17 0.894531 17 2 L 17 5 C 17 6.105469 16.105469 7 15 7 L 2 7 C 0.894531 7 0 6.105469 0 5 Z M 0 2 " transform="matrix(1,0,0,1,485,143)"/>
<path style=" stroke:none;fill-rule:nonzero;fill:rgb(38.039216%,50.588235%,100%);fill-opacity:0.490196;" d="M 485 145 C 485 143.894531 485.894531 143 487 143 L 500 143 C 501.105469 143 502 143.894531 502 145 L 502 148 C 502 149.105469 501.105469 150 500 150 L 487 150 C 485.894531 150 485 149.105469 485 148 Z M 485 145 "/>
<path style="fill:none;stroke-width:1.5;stroke-linecap:butt;stroke-linejoin:miter;stroke:rgb(38.039216%,50.588235%,100%);stroke-opacity:1;stroke-miterlimit:10;" d="M 0 2 C 0 0.894531 0.894531 0 2 0 L 15 0 C 16.105469 0 17 0.894531 17 2 L 17 10 C 17 11.105469 16.105469 12 15 12 L 2 12 C 0.894531 12 0 11.105469 0 10 Z M 0 2 " transform="matrix(1,0,0,1,466,120)"/>
<path style=" stroke:none;fill-rule:nonzero;fill:rgb(38.039216%,50.588235%,100%);fill-opacity:0.490196;" d="M 466 122 C 466 120.894531 466.894531 120 468 120 L 481 120 C 482.105469 120 483 120.894531 483 122 L 483 130 C 483 131.105469 482.105469 132 481 132 L 468 132 C 466.894531 132 466 131.105469 466 130 Z M 466 122 "/>
<path style="fill:none;stroke-width:1.5;stroke-linecap:butt;stroke-linejoin:miter;stroke:rgb(38.039216%,50.588235%,100%);stroke-opacity:1;stroke-miterlimit:10;" d="M 0 2 C 0 0.894531 0.894531 0 2 0 L 15 0 C 16.105469 0 17 0.894531 17 2 L 17 5 C 17 6.105469 16.105469 7 15 7 L 2 7 C 0.894531 7 0 6.105469 0 5 Z M 0 2 " transform="matrix(1,0,0,1,485,134)"/>
<path style=" stroke:none;fill-rule:nonzero;fill:rgb(38.039216%,50.588235%,100%);fill-opacity:0.490196;" d="M 485 136 C 485 134.894531 485.894531 134 487 134 L 500 134 C 501.105469 134 502 134.894531 502 136 L 502 139 C 502 140.105469 501.105469 141 500 141 L 487 141 C 485.894531 141 485 140.105469 485 139 Z M 485 136 "/>
<path style="fill:none;stroke-width:1.5;stroke-linecap:butt;stroke-linejoin:miter;stroke:rgb(38.039216%,50.588235%,100%);stroke-opacity:1;stroke-miterlimit:10;" d="M 0.00125 2 C 0.00125 0.894531 0.895781 0 2.00125 0 L 53.72 0 C 54.825469 0 55.72 0.894531 55.72 2 L 55.72 37 C 55.72 38.105469 54.825469 39 53.72 39 L 2.00125 39 C 0.895781 39 0.00125 38.105469 0.00125 37 Z M 0.00125 2 " transform="matrix(1,0,0,1,3.28,178)"/>
<path style=" stroke:none;fill-rule:nonzero;fill:rgb(38.039216%,50.588235%,100%);fill-opacity:0.490196;" d="M 3.28125 180 C 3.28125 178.894531 4.175781 178 5.28125 178 L 57 178 C 58.105469 178 59 178.894531 59 180 L 59 215 C 59 216.105469 58.105469 217 57 217 L 5.28125 217 C 4.175781 217 3.28125 216.105469 3.28125 215 Z M 3.28125 180 "/>
<path style="fill:none;stroke-width:1.5;stroke-linecap:butt;stroke-linejoin:miter;stroke:rgb(38.039216%,50.588235%,100%);stroke-opacity:1;stroke-miterlimit:10;" d="M 0.00125 2 C 0.00125 0.894531 0.895781 0 2.00125 0 L 53.72 0 C 54.825469 0 55.72 0.894531 55.72 2 L 55.72 23 C 55.72 24.105469 54.825469 25 53.72 25 L 2.00125 25 C 0.895781 25 0.00125 24.105469 0.00125 23 Z M 0.00125 2 " transform="matrix(1,0,0,1,77.28,192)"/>
<path style=" stroke:none;fill-rule:nonzero;fill:rgb(38.039216%,50.588235%,100%);fill-opacity:0.490196;" d="M 77.28125 194 C 77.28125 192.894531 78.175781 192 79.28125 192 L 131 192 C 132.105469 192 133 192.894531 133 194 L 133 215 C 133 216.105469 132.105469 217 131 217 L 79.28125 217 C 78.175781 217 77.28125 216.105469 77.28125 215 Z M 77.28125 194 "/>
<path style="fill:none;stroke-width:1.5;stroke-linecap:butt;stroke-linejoin:miter;stroke:rgb(38.039216%,50.588235%,100%);stroke-opacity:1;stroke-miterlimit:10;" d="M 0 2 C 0 0.894531 0.894531 0 2 0 L 53 0 C 54.105469 0 55 0.894531 55 2 L 55 10 C 55 11.105469 54.105469 12 53 12 L 2 12 C 0.894531 12 0 11.105469 0 10 Z M 0 2 " transform="matrix(1,0,0,1,78,178)"/>
<path style=" stroke:none;fill-rule:nonzero;fill:rgb(38.039216%,50.588235%,100%);fill-opacity:0.490196;" d="M 78 180 C 78 178.894531 78.894531 178 80 178 L 131 178 C 132.105469 178 133 178.894531 133 180 L 133 188 C 133 189.105469 132.105469 190 131 190 L 80 190 C 78.894531 190 78 189.105469 78 188 Z M 78 180 "/>
<path style="fill:none;stroke-width:1.5;stroke-linecap:butt;stroke-linejoin:miter;stroke:rgb(38.039216%,50.588235%,100%);stroke-opacity:1;stroke-miterlimit:10;" d="M 0 2 C 0 0.894531 0.894531 0 2 0 L 34 0 C 35.105469 0 36 0.894531 36 2 L 36 23 C 36 24.105469 35.105469 25 34 25 L 2 25 C 0.894531 25 0 24.105469 0 23 Z M 0 2 " transform="matrix(1,0,0,1,171,192)"/>
<path style=" stroke:none;fill-rule:nonzero;fill:rgb(38.039216%,50.588235%,100%);fill-opacity:0.490196;" d="M 171 194 C 171 192.894531 171.894531 192 173 192 L 205 192 C 206.105469 192 207 192.894531 207 194 L 207 215 C 207 216.105469 206.105469 217 205 217 L 173 217 C 171.894531 217 171 216.105469 171 215 Z M 171 194 "/>
<path style="fill:none;stroke-width:1.5;stroke-linecap:butt;stroke-linejoin:miter;stroke:rgb(38.039216%,50.588235%,100%);stroke-opacity:1;stroke-miterlimit:10;" d="M 0 2 C 0 0.894531 0.894531 0 2 0 L 34 0 C 35.105469 0 36 0.894531 36 2 L 36 10 C 36 11.105469 35.105469 12 34 12 L 2 12 C 0.894531 12 0 11.105469 0 10 Z M 0 2 " transform="matrix(1,0,0,1,171,178)"/>
<path style=" stroke:none;fill-rule:nonzero;fill:rgb(38.039216%,50.588235%,100%);fill-opacity:0.490196;" d="M 171 180 C 171 178.894531 171.894531 178 173 178 L 205 178 C 206.105469 178 207 178.894531 207 180 L 207 188 C 207 189.105469 206.105469 190 205 190 L 173 190 C 171.894531 190 171 189.105469 171 188 Z M 171 180 "/>
<path style="fill:none;stroke-width:1.5;stroke-linecap:butt;stroke-linejoin:miter;stroke:rgb(38.039216%,50.588235%,100%);stroke-opacity:1;stroke-miterlimit:10;" d="M 0 2 C 0 0.894531 0.894531 0 2 0 L 15 0 C 16.105469 0 17 0.894531 17 2 L 17 37 C 17 38.105469 16.105469 39 15 39 L 2 39 C 0.894531 39 0 38.105469 0 37 Z M 0 2 " transform="matrix(1,0,0,1,152,178)"/>
<path style=" stroke:none;fill-rule:nonzero;fill:rgb(38.039216%,50.588235%,100%);fill-opacity:0.490196;" d="M 152 180 C 152 178.894531 152.894531 178 154 178 L 167 178 C 168.105469 178 169 178.894531 169 180 L 169 215 C 169 216.105469 168.105469 217 167 217 L 154 217 C 152.894531 217 152 216.105469 152 215 Z M 152 180 "/>
<path style="fill:none;stroke-width:1.5;stroke-linecap:butt;stroke-linejoin:miter;stroke:rgb(38.039216%,50.588235%,100%);stroke-opacity:1;stroke-miterlimit:10;" d="M 0 2 C 0 0.894531 0.894531 0 2 0 L 34 0 C 35.105469 0 36 0.894531 36 2 L 36 23 C 36 24.105469 35.105469 25 34 25 L 2 25 C 0.894531 25 0 24.105469 0 23 Z M 0 2 " transform="matrix(1,0,0,1,245,192)"/>
<path style=" stroke:none;fill-rule:nonzero;fill:rgb(38.039216%,50.588235%,100%);fill-opacity:0.490196;" d="M 245 194 C 245 192.894531 245.894531 192 247 192 L 279 192 C 280.105469 192 281 192.894531 281 194 L 281 215 C 281 216.105469 280.105469 217 279 217 L 247 217 C 245.894531 217 245 216.105469 245 215 Z M 245 194 "/>
<path style="fill:none;stroke-width:1.5;stroke-linecap:butt;stroke-linejoin:miter;stroke:rgb(38.039216%,50.588235%,100%);stroke-opacity:1;stroke-miterlimit:10;" d="M 0 2 C 0 0.894531 0.894531 0 2 0 L 34 0 C 35.105469 0 36 0.894531 36 2 L 36 10 C 36 11.105469 35.105469 12 34 12 L 2 12 C 0.894531 12 0 11.105469 0 10 Z M 0 2 " transform="matrix(1,0,0,1,245,178)"/>
<path style=" stroke:none;fill-rule:nonzero;fill:rgb(38.039216%,50.588235%,100%);fill-opacity:0.490196;" d="M 245 180 C 245 178.894531 245.894531 178 247 178 L 279 178 C 280.105469 178 281 178.894531 281 180 L 281 188 C 281 189.105469 280.105469 190 279 190 L 247 190 C 245.894531 190 245 189.105469 245 188 Z M 245 180 "/>
<path style="fill:none;stroke-width:1.5;stroke-linecap:butt;stroke-linejoin:miter;stroke:rgb(38.039216%,50.588235%,100%);stroke-opacity:1;stroke-miterlimit:10;" d="M 0 2 C 0 0.894531 0.894531 0 2 0 L 15 0 C 16.105469 0 17 0.894531 17 2 L 17 23 C 17 24.105469 16.105469 25 15 25 L 2 25 C 0.894531 25 0 24.105469 0 23 Z M 0 2 " transform="matrix(1,0,0,1,226,192)"/>
<path style=" stroke:none;fill-rule:nonzero;fill:rgb(38.039216%,50.588235%,100%);fill-opacity:0.490196;" d="M 226 194 C 226 192.894531 226.894531 192 228 192 L 241 192 C 242.105469 192 243 192.894531 243 194 L 243 215 C 243 216.105469 242.105469 217 241 217 L 228 217 C 226.894531 217 226 216.105469 226 215 Z M 226 194 "/>
<path style="fill:none;stroke-width:1.5;stroke-linecap:butt;stroke-linejoin:miter;stroke:rgb(38.039216%,50.588235%,100%);stroke-opacity:1;stroke-miterlimit:10;" d="M 0 2 C 0 0.894531 0.894531 0 2 0 L 15 0 C 16.105469 0 17 0.894531 17 2 L 17 10 C 17 11.105469 16.105469 12 15 12 L 2 12 C 0.894531 12 0 11.105469 0 10 Z M 0 2 " transform="matrix(1,0,0,1,226,178)"/>
<path style=" stroke:none;fill-rule:nonzero;fill:rgb(38.039216%,50.588235%,100%);fill-opacity:0.490196;" d="M 226 180 C 226 178.894531 226.894531 178 228 178 L 241 178 C 242.105469 178 243 178.894531 243 180 L 243 188 C 243 189.105469 242.105469 190 241 190 L 228 190 C 226.894531 190 226 189.105469 226 188 Z M 226 180 "/>
<path style="fill:none;stroke-width:1.5;stroke-linecap:butt;stroke-linejoin:miter;stroke:rgb(38.039216%,50.588235%,100%);stroke-opacity:1;stroke-miterlimit:10;" d="M 0 2 C 0 0.894531 0.894531 0 2 0 L 34 0 C 35.105469 0 36 0.894531 36 2 L 36 23 C 36 24.105469 35.105469 25 34 25 L 2 25 C 0.894531 25 0 24.105469 0 23 Z M 0 2 " transform="matrix(1,0,0,1,319,192)"/>
<path style=" stroke:none;fill-rule:nonzero;fill:rgb(38.039216%,50.588235%,100%);fill-opacity:0.490196;" d="M 319 194 C 319 192.894531 319.894531 192 321 192 L 353 192 C 354.105469 192 355 192.894531 355 194 L 355 215 C 355 216.105469 354.105469 217 353 217 L 321 217 C 319.894531 217 319 216.105469 319 215 Z M 319 194 "/>
<path style="fill:none;stroke-width:1.5;stroke-linecap:butt;stroke-linejoin:miter;stroke:rgb(38.039216%,50.588235%,100%);stroke-opacity:1;stroke-miterlimit:10;" d="M 0 2 C 0 0.894531 0.894531 0 2 0 L 34 0 C 35.105469 0 36 0.894531 36 2 L 36 10 C 36 11.105469 35.105469 12 34 12 L 2 12 C 0.894531 12 0 11.105469 0 10 Z M 0 2 " transform="matrix(1,0,0,1,319,178)"/>
<path style=" stroke:none;fill-rule:nonzero;fill:rgb(38.039216%,50.588235%,100%);fill-opacity:0.490196;" d="M 319 180 C 319 178.894531 319.894531 178 321 178 L 353 178 C 354.105469 178 355 178.894531 355 180 L 355 188 C 355 189.105469 354.105469 190 353 190 L 321 190 C 319.894531 190 319 189.105469 319 188 Z M 319 180 "/>
<path style="fill:none;stroke-width:1.5;stroke-linecap:butt;stroke-linejoin:miter;stroke:rgb(38.039216%,50.588235%,100%);stroke-opacity:1;stroke-miterlimit:10;" d="M 0 2 C 0 0.894531 0.894531 0 2 0 L 15 0 C 16.105469 0 17 0.894531 17 2 L 17 9 C 17 10.105469 16.105469 11 15 11 L 2 11 C 0.894531 11 0 10.105469 0 9 Z M 0 2 " transform="matrix(1,0,0,1,300,206)"/>
<path style=" stroke:none;fill-rule:nonzero;fill:rgb(38.039216%,50.588235%,100%);fill-opacity:0.490196;" d="M 300 208 C 300 206.894531 300.894531 206 302 206 L 315 206 C 316.105469 206 317 206.894531 317 208 L 317 215 C 317 216.105469 316.105469 217 315 217 L 302 217 C 300.894531 217 300 216.105469 300 215 Z M 300 208 "/>
<path style="fill:none;stroke-width:1.5;stroke-linecap:butt;stroke-linejoin:miter;stroke:rgb(38.039216%,50.588235%,100%);stroke-opacity:1;stroke-miterlimit:10;" d="M 0 2 C 0 0.894531 0.894531 0 2 0 L 15 0 C 16.105469 0 17 0.894531 17 2 L 17 10 C 17 11.105469 16.105469 12 15 12 L 2 12 C 0.894531 12 0 11.105469 0 10 Z M 0 2 " transform="matrix(1,0,0,1,300,178)"/>
<path style=" stroke:none;fill-rule:nonzero;fill:rgb(38.039216%,50.588235%,100%);fill-opacity:0.490196;" d="M 300 180 C 300 178.894531 300.894531 178 302 178 L 315 178 C 316.105469 178 317 178.894531 317 180 L 317 188 C 317 189.105469 316.105469 190 315 190 L 302 190 C 300.894531 190 300 189.105469 300 188 Z M 300 180 "/>
<path style="fill:none;stroke-width:1.5;stroke-linecap:butt;stroke-linejoin:miter;stroke:rgb(38.039216%,50.588235%,100%);stroke-opacity:1;stroke-miterlimit:10;" d="M 0 2 C 0 0.894531 0.894531 0 2 0 L 15 0 C 16.105469 0 17 0.894531 17 2 L 17 9 C 17 10.105469 16.105469 11 15 11 L 2 11 C 0.894531 11 0 10.105469 0 9 Z M 0 2 " transform="matrix(1,0,0,1,300,193)"/>
<path style=" stroke:none;fill-rule:nonzero;fill:rgb(38.039216%,50.588235%,100%);fill-opacity:0.490196;" d="M 300 195 C 300 193.894531 300.894531 193 302 193 L 315 193 C 316.105469 193 317 193.894531 317 195 L 317 202 C 317 203.105469 316.105469 204 315 204 L 302 204 C 300.894531 204 300 203.105469 300 202 Z M 300 195 "/>
<path style="fill:none;stroke-width:1.5;stroke-linecap:butt;stroke-linejoin:miter;stroke:rgb(38.039216%,50.588235%,100%);stroke-opacity:1;stroke-miterlimit:10;" d="M 0 2 C 0 0.894531 0.894531 0 2 0 L 34 0 C 35.105469 0 36 0.894531 36 2 L 36 23 C 36 24.105469 35.105469 25 34 25 L 2 25 C 0.894531 25 0 24.105469 0 23 Z M 0 2 " transform="matrix(1,0,0,1,393,192)"/>
<path style=" stroke:none;fill-rule:nonzero;fill:rgb(38.039216%,50.588235%,100%);fill-opacity:0.490196;" d="M 393 194 C 393 192.894531 393.894531 192 395 192 L 427 192 C 428.105469 192 429 192.894531 429 194 L 429 215 C 429 216.105469 428.105469 217 427 217 L 395 217 C 393.894531 217 393 216.105469 393 215 Z M 393 194 "/>
<path style="fill:none;stroke-width:1.5;stroke-linecap:butt;stroke-linejoin:miter;stroke:rgb(38.039216%,50.588235%,100%);stroke-opacity:1;stroke-miterlimit:10;" d="M 0 2 C 0 0.894531 0.894531 0 2 0 L 15 0 C 16.105469 0 17 0.894531 17 2 L 17 10 C 17 11.105469 16.105469 12 15 12 L 2 12 C 0.894531 12 0 11.105469 0 10 Z M 0 2 " transform="matrix(1,0,0,1,412,178)"/>
<path style=" stroke:none;fill-rule:nonzero;fill:rgb(38.039216%,50.588235%,100%);fill-opacity:0.490196;" d="M 412 180 C 412 178.894531 412.894531 178 414 178 L 427 178 C 428.105469 178 429 178.894531 429 180 L 429 188 C 429 189.105469 428.105469 190 427 190 L 414 190 C 412.894531 190 412 189.105469 412 188 Z M 412 180 "/>
<path style="fill:none;stroke-width:1.5;stroke-linecap:butt;stroke-linejoin:miter;stroke:rgb(38.039216%,50.588235%,100%);stroke-opacity:1;stroke-miterlimit:10;" d="M 0 2 C 0 0.894531 0.894531 0 2 0 L 15 0 C 16.105469 0 17 0.894531 17 2 L 17 9 C 17 10.105469 16.105469 11 15 11 L 2 11 C 0.894531 11 0 10.105469 0 9 Z M 0 2 " transform="matrix(1,0,0,1,374,206)"/>
<path style=" stroke:none;fill-rule:nonzero;fill:rgb(38.039216%,50.588235%,100%);fill-opacity:0.490196;" d="M 374 208 C 374 206.894531 374.894531 206 376 206 L 389 206 C 390.105469 206 391 206.894531 391 208 L 391 215 C 391 216.105469 390.105469 217 389 217 L 376 217 C 374.894531 217 374 216.105469 374 215 Z M 374 208 "/>
<path style="fill:none;stroke-width:1.5;stroke-linecap:butt;stroke-linejoin:miter;stroke:rgb(38.039216%,50.588235%,100%);stroke-opacity:1;stroke-miterlimit:10;" d="M 0 2 C 0 0.894531 0.894531 0 2 0 L 15 0 C 16.105469 0 17 0.894531 17 2 L 17 10 C 17 11.105469 16.105469 12 15 12 L 2 12 C 0.894531 12 0 11.105469 0 10 Z M 0 2 " transform="matrix(1,0,0,1,374,178)"/>
<path style=" stroke:none;fill-rule:nonzero;fill:rgb(38.039216%,50.588235%,100%);fill-opacity:0.490196;" d="M 374 180 C 374 178.894531 374.894531 178 376 178 L 389 178 C 390.105469 178 391 178.894531 391 180 L 391 188 C 391 189.105469 390.105469 190 389 190 L 376 190 C 374.894531 190 374 189.105469 374 188 Z M 374 180 "/>
<path style="fill:none;stroke-width:1.5;stroke-linecap:butt;stroke-linejoin:miter;stroke:rgb(38.039216%,50.588235%,100%);stroke-opacity:1;stroke-miterlimit:10;" d="M 0 2 C 0 0.894531 0.894531 0 2 0 L 15 0 C 16.105469 0 17 0.894531 17 2 L 17 9 C 17 10.105469 16.105469 11 15 11 L 2 11 C 0.894531 11 0 10.105469 0 9 Z M 0 2 " transform="matrix(1,0,0,1,374,193)"/>
<path style=" stroke:none;fill-rule:nonzero;fill:rgb(38.039216%,50.588235%,100%);fill-opacity:0.490196;" d="M 374 195 C 374 193.894531 374.894531 193 376 193 L 389 193 C 390.105469 193 391 193.894531 391 195 L 391 202 C 391 203.105469 390.105469 204 389 204 L 376 204 C 374.894531 204 374 203.105469 374 202 Z M 374 195 "/>
<path style="fill:none;stroke-width:1.5;stroke-linecap:butt;stroke-linejoin:miter;stroke:rgb(38.039216%,50.588235%,100%);stroke-opacity:1;stroke-miterlimit:10;" d="M 0 2 C 0 0.894531 0.894531 0 2 0 L 15 0 C 16.105469 0 17 0.894531 17 2 L 17 10 C 17 11.105469 16.105469 12 15 12 L 2 12 C 0.894531 12 0 11.105469 0 10 Z M 0 2 " transform="matrix(1,0,0,1,393,178)"/>
<path style=" stroke:none;fill-rule:nonzero;fill:rgb(38.039216%,50.588235%,100%);fill-opacity:0.490196;" d="M 393 180 C 393 178.894531 393.894531 178 395 178 L 408 178 C 409.105469 178 410 178.894531 410 180 L 410 188 C 410 189.105469 409.105469 190 408 190 L 395 190 C 393.894531 190 393 189.105469 393 188 Z M 393 180 "/>
<path style="fill:none;stroke-width:1.5;stroke-linecap:butt;stroke-linejoin:miter;stroke:rgb(38.039216%,50.588235%,100%);stroke-opacity:1;stroke-miterlimit:10;" d="M 0 2 C 0 0.894531 0.894531 0 2 0 L 34 0 C 35.105469 0 36 0.894531 36 2 L 36 23 C 36 24.105469 35.105469 25 34 25 L 2 25 C 0.894531 25 0 24.105469 0 23 Z M 0 2 " transform="matrix(1,0,0,1,467,192)"/>
<path style=" stroke:none;fill-rule:nonzero;fill:rgb(38.039216%,50.588235%,100%);fill-opacity:0.490196;" d="M 467 194 C 467 192.894531 467.894531 192 469 192 L 501 192 C 502.105469 192 503 192.894531 503 194 L 503 215 C 503 216.105469 502.105469 217 501 217 L 469 217 C 467.894531 217 467 216.105469 467 215 Z M 467 194 "/>
<path style="fill:none;stroke-width:1.5;stroke-linecap:butt;stroke-linejoin:miter;stroke:rgb(38.039216%,50.588235%,100%);stroke-opacity:1;stroke-miterlimit:10;" d="M 0 2 C 0 0.894531 0.894531 0 2 0 L 15 0 C 16.105469 0 17 0.894531 17 2 L 17 10 C 17 11.105469 16.105469 12 15 12 L 2 12 C 0.894531 12 0 11.105469 0 10 Z M 0 2 " transform="matrix(1,0,0,1,486,178)"/>
<path style=" stroke:none;fill-rule:nonzero;fill:rgb(38.039216%,50.588235%,100%);fill-opacity:0.490196;" d="M 486 180 C 486 178.894531 486.894531 178 488 178 L 501 178 C 502.105469 178 503 178.894531 503 180 L 503 188 C 503 189.105469 502.105469 190 501 190 L 488 190 C 486.894531 190 486 189.105469 486 188 Z M 486 180 "/>
<path style="fill:none;stroke-width:1.5;stroke-linecap:butt;stroke-linejoin:miter;stroke:rgb(38.039216%,50.588235%,100%);stroke-opacity:1;stroke-miterlimit:10;" d="M 0 2 C 0 0.894531 0.894531 0 2 0 L 15 0 C 16.105469 0 17 0.894531 17 2 L 17 5 C 17 6.105469 16.105469 7 15 7 L 2 7 C 0.894531 7 0 6.105469 0 5 Z M 0 2 " transform="matrix(1,0,0,1,448,210)"/>
<path style=" stroke:none;fill-rule:nonzero;fill:rgb(38.039216%,50.588235%,100%);fill-opacity:0.490196;" d="M 448 212 C 448 210.894531 448.894531 210 450 210 L 463 210 C 464.105469 210 465 210.894531 465 212 L 465 215 C 465 216.105469 464.105469 217 463 217 L 450 217 C 448.894531 217 448 216.105469 448 215 Z M 448 212 "/>
<path style="fill:none;stroke-width:1.5;stroke-linecap:butt;stroke-linejoin:miter;stroke:rgb(38.039216%,50.588235%,100%);stroke-opacity:1;stroke-miterlimit:10;" d="M 0 2 C 0 0.894531 0.894531 0 2 0 L 15 0 C 16.105469 0 17 0.894531 17 2 L 17 10 C 17 11.105469 16.105469 12 15 12 L 2 12 C 0.894531 12 0 11.105469 0 10 Z M 0 2 " transform="matrix(1,0,0,1,448,178)"/>
<path style=" stroke:none;fill-rule:nonzero;fill:rgb(38.039216%,50.588235%,100%);fill-opacity:0.490196;" d="M 448 180 C 448 178.894531 448.894531 178 450 178 L 463 178 C 464.105469 178 465 178.894531 465 180 L 465 188 C 465 189.105469 464.105469 190 463 190 L 450 190 C 448.894531 190 448 189.105469 448 188 Z M 448 180 "/>
<path style="fill:none;stroke-width:1.5;stroke-linecap:butt;stroke-linejoin:miter;stroke:rgb(38.039216%,50.588235%,100%);stroke-opacity:1;stroke-miterlimit:10;" d="M 0 2 C 0 0.894531 0.894531 0 2 0 L 15 0 C 16.105469 0 17 0.894531 17 2 L 17 5 C 17 6.105469 16.105469 7 15 7 L 2 7 C 0.894531 7 0 6.105469 0 5 Z M 0 2 " transform="matrix(1,0,0,1,448,201)"/>
<path style=" stroke:none;fill-rule:nonzero;fill:rgb(38.039216%,50.588235%,100%);fill-opacity:0.490196;" d="M 448 203 C 448 201.894531 448.894531 201 450 201 L 463 201 C 464.105469 201 465 201.894531 465 203 L 465 206 C 465 207.105469 464.105469 208 463 208 L 450 208 C 448.894531 208 448 207.105469 448 206 Z M 448 203 "/>
<path style="fill:none;stroke-width:1.5;stroke-linecap:butt;stroke-linejoin:miter;stroke:rgb(38.039216%,50.588235%,100%);stroke-opacity:1;stroke-miterlimit:10;" d="M 0 2 C 0 0.894531 0.894531 0 2 0 L 15 0 C 16.105469 0 17 0.894531 17 2 L 17 10 C 17 11.105469 16.105469 12 15 12 L 2 12 C 0.894531 12 0 11.105469 0 10 Z M 0 2 " transform="matrix(1,0,0,1,467,178)"/>
<path style=" stroke:none;fill-rule:nonzero;fill:rgb(38.039216%,50.588235%,100%);fill-opacity:0.490196;" d="M 467 180 C 467 178.894531 467.894531 178 469 178 L 482 178 C 483.105469 178 484 178.894531 484 180 L 484 188 C 484 189.105469 483.105469 190 482 190 L 469 190 C 467.894531 190 467 189.105469 467 188 Z M 467 180 "/>
<path style="fill:none;stroke-width:1.5;stroke-linecap:butt;stroke-linejoin:miter;stroke:rgb(38.039216%,50.588235%,100%);stroke-opacity:1;stroke-miterlimit:10;" d="M 0 2 C 0 0.894531 0.894531 0 2 0 L 15 0 C 16.105469 0 17 0.894531 17 2 L 17 5 C 17 6.105469 16.105469 7 15 7 L 2 7 C 0.894531 7 0 6.105469 0 5 Z M 0 2 " transform="matrix(1,0,0,1,448,192)"/>
<path style=" stroke:none;fill-rule:nonzero;fill:rgb(38.039216%,50.588235%,100%);fill-opacity:0.490196;" d="M 448 194 C 448 192.894531 448.894531 192 450 192 L 463 192 C 464.105469 192 465 192.894531 465 194 L 465 197 C 465 198.105469 464.105469 199 463 199 L 450 199 C 448.894531 199 448 198.105469 448 197 Z M 448 194 "/>
</g>
</svg>
