<?xml version="1.0" encoding="UTF-8"?>
<svg xmlns="http://www.w3.org/2000/svg" xmlns:xlink="http://www.w3.org/1999/xlink" width="542pt" height="96pt" viewBox="0 0 542 96" version="1.1">
<defs>
<clipPath id="clip1">
  <path d="M 13 13 L 79 13 L 79 58 L 13 58 Z M 13 13 "/>
</clipPath>
<clipPath id="clip2">
  <path d="M 13 18 C 13 15.238281 15.238281 13 18 13 L 74 13 C 76.761719 13 79 15.238281 79 18 L 79 53 C 79 55.761719 76.761719 58 74 58 L 18 58 C 15.238281 58 13 55.761719 13 53 Z M 13 18 "/>
</clipPath>
<clipPath id="clip3">
  <path d="M 13 60 L 79 60 L 79 82 L 13 82 Z M 13 60 "/>
</clipPath>
<clipPath id="clip4">
  <path d="M 13 65 C 13 62.238281 15.238281 60 18 60 L 74 60 C 76.761719 60 79 62.238281 79 65 L 79 77 C 79 79.761719 76.761719 82 74 82 L 18 82 C 15.238281 82 13 79.761719 13 77 Z M 13 65 "/>
</clipPath>
<clipPath id="clip5">
  <path d="M 81 13 L 114 13 L 114 58 L 81 58 Z M 81 13 "/>
</clipPath>
<clipPath id="clip6">
  <path d="M 81 18 C 81 15.238281 83.238281 13 86 13 L 109 13 C 111.761719 13 114 15.238281 114 18 L 114 53 C 114 55.761719 111.761719 58 109 58 L 86 58 C 83.238281 58 81 55.761719 81 53 Z M 81 18 "/>
</clipPath>
<clipPath id="clip7">
  <path d="M 81 60 L 114 60 L 114 82 L 81 82 Z M 81 60 "/>
</clipPath>
<clipPath id="clip8">
  <path d="M 81 65 C 81 62.238281 83.238281 60 86 60 L 109 60 C 111.761719 60 114 62.238281 114 65 L 114 77 C 114 79.761719 111.761719 82 109 82 L 86 82 C 83.238281 82 81 79.761719 81 77 Z M 81 65 "/>
</clipPath>
<clipPath id="clip9">
  <path d="M 153 15 L 217 15 L 217 57 L 153 57 Z M 153 15 "/>
</clipPath>
<clipPath id="clip10">
  <path d="M 153 20 C 153 17.238281 155.238281 15 158 15 L 212 15 C 214.761719 15 217 17.238281 217 20 L 217 52 C 217 54.761719 214.761719 57 212 57 L 158 57 C 155.238281 57 153 54.761719 153 52 Z M 153 20 "/>
</clipPath>
<clipPath id="clip11">
  <path d="M 153 59 L 217 59 L 217 80 L 153 80 Z M 153 59 "/>
</clipPath>
<clipPath id="clip12">
  <path d="M 153 64 C 153 61.238281 155.238281 59 158 59 L 212 59 C 214.761719 59 217 61.238281 217 64 L 217 75 C 217 77.761719 214.761719 80 212 80 L 158 80 C 155.238281 80 153 77.761719 153 75 Z M 153 64 "/>
</clipPath>
<clipPath id="clip13">
  <path d="M 219 15 L 251 15 L 251 57 L 219 57 Z M 219 15 "/>
</clipPath>
<clipPath id="clip14">
  <path d="M 219 20 C 219 17.238281 221.238281 15 224 15 L 246 15 C 248.761719 15 251 17.238281 251 20 L 251 52 C 251 54.761719 248.761719 57 246 57 L 224 57 C 221.238281 57 219 54.761719 219 52 Z M 219 20 "/>
</clipPath>
<clipPath id="clip15">
  <path d="M 219 59 L 251 59 L 251 80 L 219 80 Z M 219 59 "/>
</clipPath>
<clipPath id="clip16">
  <path d="M 219 64 C 219 61.238281 221.238281 59 224 59 L 246 59 C 248.761719 59 251 61.238281 251 64 L 251 75 C 251 77.761719 248.761719 80 246 80 L 224 80 C 221.238281 80 219 77.761719 219 75 Z M 219 64 "/>
</clipPath>
<clipPath id="clip17">
  <path d="M 293 17 L 354 17 L 354 57 L 293 57 Z M 293 17 "/>
</clipPath>
<clipPath id="clip18">
  <path d="M 293 22 C 293 19.238281 295.238281 17 298 17 L 349 17 C 351.761719 17 354 19.238281 354 22 L 354 52 C 354 54.761719 351.761719 57 349 57 L 298 57 C 295.238281 57 293 54.761719 293 52 Z M 293 22 "/>
</clipPath>
<clipPath id="clip19">
  <path d="M 293 59 L 354 59 L 354 78 L 293 78 Z M 293 59 "/>
</clipPath>
<clipPath id="clip20">
  <path d="M 293 64 C 293 61.238281 295.238281 59 298 59 L 349 59 C 351.761719 59 354 61.238281 354 64 L 354 73 C 354 75.761719 351.761719 78 349 78 L 298 78 C 295.238281 78 293 75.761719 293 73 Z M 293 64 "/>
</clipPath>
<clipPath id="clip21">
  <path d="M 356 17 L 386 17 L 386 57 L 356 57 Z M 356 17 "/>
</clipPath>
<clipPath id="clip22">
  <path d="M 356 22 C 356 19.238281 358.238281 17 361 17 L 381 17 C 383.761719 17 386 19.238281 386 22 L 386 52 C 386 54.761719 383.761719 57 381 57 L 361 57 C 358.238281 57 356 54.761719 356 52 Z M 356 22 "/>
</clipPath>
<clipPath id="clip23">
  <path d="M 356 59 L 386 59 L 386 78 L 356 78 Z M 356 59 "/>
</clipPath>
<clipPath id="clip24">
  <path d="M 356 64 C 356 61.238281 358.238281 59 361 59 L 381 59 C 383.761719 59 386 61.238281 386 64 L 386 73 C 386 75.761719 383.761719 78 381 78 L 361 78 C 358.238281 78 356 75.761719 356 73 Z M 356 64 "/>
</clipPath>
<clipPath id="clip25">
  <path d="M 433 19 L 491 19 L 491 56 L 433 56 Z M 433 19 "/>
</clipPath>
<clipPath id="clip26">
  <path d="M 433 24 C 433 21.238281 435.238281 19 438 19 L 486 19 C 488.761719 19 491 21.238281 491 24 L 491 51 C 491 53.761719 488.761719 56 486 56 L 438 56 C 435.238281 56 433 53.761719 433 51 Z M 433 24 "/>
</clipPath>
<clipPath id="clip27">
  <path d="M 433 58 L 491 58 L 491 76 L 433 76 Z M 433 58 "/>
</clipPath>
<clipPath id="clip28">
  <path d="M 433 63 C 433 60.238281 435.238281 58 438 58 L 486 58 C 488.761719 58 491 60.238281 491 63 L 491 71 C 491 73.761719 488.761719 76 486 76 L 438 76 C 435.238281 76 433 73.761719 433 71 Z M 433 63 "/>
</clipPath>
<clipPath id="clip29">
  <path d="M 493 19 L 522 19 L 522 56 L 493 56 Z M 493 19 "/>
</clipPath>
<clipPath id="clip30">
  <path d="M 493 24 C 493 21.238281 495.238281 19 498 19 L 517 19 C 519.761719 19 522 21.238281 522 24 L 522 51 C 522 53.761719 519.761719 56 517 56 L 498 56 C 495.238281 56 493 53.761719 493 51 Z M 493 24 "/>
</clipPath>
<clipPath id="clip31">
  <path d="M 493 58 L 522 58 L 522 76 L 493 76 Z M 493 58 "/>
</clipPath>
<clipPath id="clip32">
  <path d="M 493 63 C 493 60.238281 495.238281 58 498 58 L 517 58 C 519.761719 58 522 60.238281 522 63 L 522 71 C 522 73.761719 519.761719 76 517 76 L 498 76 C 495.238281 76 493 73.761719 493 71 Z M 493 63 "/>
</clipPath>
</defs>
<g id="surface2">
<path style="fill:none;stroke-width:1.5;stroke-linecap:butt;stroke-linejoin:miter;stroke:rgb(0%,0%,0%);stroke-opacity:0.266667;stroke-dasharray:10,4;stroke-dashoffset:1;stroke-miterlimit:10;" d="M 0.75 0.75 L 127.25 0.75 L 127.25 95.25 L 0.75 95.25 Z M 0.75 0.75 "/>
<path style="fill:none;stroke-width:1.5;stroke-linecap:butt;stroke-linejoin:miter;stroke:rgb(0%,0%,0%);stroke-opacity:0.2;stroke-dasharray:10,4;stroke-dashoffset:1;stroke-miterlimit:10;" d="M 10 10 L 118 10 L 118 86 L 10 86 Z M 10 10 "/>
<path style="fill:none;stroke-width:1.5;stroke-linecap:butt;stroke-linejoin:miter;stroke:rgb(0%,0%,0%);stroke-opacity:0.266667;stroke-dasharray:10,4;stroke-dashoffset:1;stroke-miterlimit:10;" d="M 138.75 0.75 L 265.25 0.75 L 265.25 95.25 L 138.75 95.25 Z M 138.75 0.75 "/>
<path style="fill:none;stroke-width:1.5;stroke-linecap:butt;stroke-linejoin:miter;stroke:rgb(0%,0%,0%);stroke-opacity:0.2;stroke-dasharray:10,4;stroke-dashoffset:1;stroke-miterlimit:10;" d="M 148 10 L 256 10 L 256 86 L 148 86 Z M 148 10 "/>
<path style="fill:none;stroke-width:1.5;stroke-linecap:butt;stroke-linejoin:miter;stroke:rgb(0%,0%,0%);stroke-opacity:0.266667;stroke-dasharray:10,4;stroke-dashoffset:1;stroke-miterlimit:10;" d="M 276.75 0.75 L 403.25 0.75 L 403.25 95.25 L 276.75 95.25 Z M 276.75 0.75 "/>
<path style="fill:none;stroke-width:1.5;stroke-linecap:butt;stroke-linejoin:miter;stroke:rgb(0%,0%,0%);stroke-opacity:0.2;stroke-dasharray:10,4;stroke-dashoffset:1;stroke-miterlimit:10;" d="M 286 10 L 394 10 L 394 86 L 286 86 Z M 286 10 "/>
<path style="fill:none;stroke-width:1.5;stroke-linecap:butt;stroke-linejoin:miter;stroke:rgb(0%,0%,0%);stroke-opacity:0.266667;stroke-dasharray:10,4;stroke-dashoffset:1;stroke-miterlimit:10;" d="M 414.75 0.75 L 541.25 0.75 L 541.25 95.25 L 414.75 95.25 Z M 414.75 0.75 "/>
<path style="fill:none;stroke-width:1.5;stroke-linecap:butt;stroke-linejoin:miter;stroke:rgb(0%,0%,0%);stroke-opacity:0.2;stroke-dasharray:10,4;stroke-dashoffset:1;stroke-miterlimit:10;" d="M 424 10 L 532 10 L 532 86 L 424 86 Z M 424 10 "/>
<g clip-path="url(#clip1)" clip-rule="nonzero">
<g clip-path="url(#clip2)" clip-rule="nonzero">
<rect x="0" y="0" width="542" height="96" style="fill:rgb(38.039216%,50.588235%,100%);fill-opacity:0.490196;stroke:none;"/>
<path style="fill:none;stroke-width:2;stroke-linecap:butt;stroke-linejoin:miter;stroke:rgb(38.039216%,50.588235%,100%);stroke-opacity:1;stroke-miterlimit:10;" d="M 1 6 C 1 3.238281 3.238281 1 6 1 L 62 1 C 64.761719 1 67 3.238281 67 6 L 67 41 C 67 43.761719 64.761719 46 62 46 L 6 46 C 3.238281 46 1 43.761719 1 41 Z M 1 6 " transform="matrix(1,0,0,1,12,12)"/>
</g>
</g>
<g clip-path="url(#clip3)" clip-rule="nonzero">
<g clip-path="url(#clip4)" clip-rule="nonzero">
<rect x="0" y="0" width="542" height="96" style="fill:rgb(38.039216%,50.588235%,100%);fill-opacity:0.490196;stroke:none;"/>
<path style="fill:none;stroke-width:2;stroke-linecap:butt;stroke-linejoin:miter;stroke:rgb(38.039216%,50.588235%,100%);stroke-opacity:1;stroke-miterlimit:10;" d="M 1 6 C 1 3.238281 3.238281 1 6 1 L 62 1 C 64.761719 1 67 3.238281 67 6 L 67 18 C 67 20.761719 64.761719 23 62 23 L 6 23 C 3.238281 23 1 20.761719 1 18 Z M 1 6 " transform="matrix(1,0,0,1,12,59)"/>
</g>
</g>
<g clip-path="url(#clip5)" clip-rule="nonzero">
<g clip-path="url(#clip6)" clip-rule="nonzero">
<rect x="0" y="0" width="542" height="96" style="fill:rgb(38.039216%,50.588235%,100%);fill-opacity:0.490196;stroke:none;"/>
<path style="fill:none;stroke-width:2;stroke-linecap:butt;stroke-linejoin:miter;stroke:rgb(38.039216%,50.588235%,100%);stroke-opacity:1;stroke-miterlimit:10;" d="M 1 6 C 1 3.238281 3.238281 1 6 1 L 29 1 C 31.761719 1 34 3.238281 34 6 L 34 41 C 34 43.761719 31.761719 46 29 46 L 6 46 C 3.238281 46 1 43.761719 1 41 Z M 1 6 " transform="matrix(1,0,0,1,80,12)"/>
</g>
</g>
<g clip-path="url(#clip7)" clip-rule="nonzero">
<g clip-path="url(#clip8)" clip-rule="nonzero">
<rect x="0" y="0" width="542" height="96" style="fill:rgb(38.039216%,50.588235%,100%);fill-opacity:0.490196;stroke:none;"/>
<path style="fill:none;stroke-width:2;stroke-linecap:butt;stroke-linejoin:miter;stroke:rgb(38.039216%,50.588235%,100%);stroke-opacity:1;stroke-miterlimit:10;" d="M 1 6 C 1 3.238281 3.238281 1 6 1 L 29 1 C 31.761719 1 34 3.238281 34 6 L 34 18 C 34 20.761719 31.761719 23 29 23 L 6 23 C 3.238281 23 1 20.761719 1 18 Z M 1 6 " transform="matrix(1,0,0,1,80,59)"/>
</g>
</g>
<g clip-path="url(#clip9)" clip-rule="nonzero">
<g clip-path="url(#clip10)" clip-rule="nonzero">
<rect x="0" y="0" width="542" height="96" style="fill:rgb(38.039216%,50.588235%,100%);fill-opacity:0.490196;stroke:none;"/>
<path style="fill:none;stroke-width:2;stroke-linecap:butt;stroke-linejoin:miter;stroke:rgb(38.039216%,50.588235%,100%);stroke-opacity:1;stroke-miterlimit:10;" d="M 1 6 C 1 3.238281 3.238281 1 6 1 L 60 1 C 62.761719 1 65 3.238281 65 6 L 65 38 C 65 40.761719 62.761719 43 60 43 L 6 43 C 3.238281 43 1 40.761719 1 38 Z M 1 6 " transform="matrix(1,0,0,1,152,14)"/>
</g>
</g>
<g clip-path="url(#clip11)" clip-rule="nonzero">
<g clip-path="url(#clip12)" clip-rule="nonzero">
<rect x="0" y="0" width="542" height="96" style="fill:rgb(38.039216%,50.588235%,100%);fill-opacity:0.490196;stroke:none;"/>
<path style="fill:none;stroke-width:2;stroke-linecap:butt;stroke-linejoin:miter;stroke:rgb(38.039216%,50.588235%,100%);stroke-opacity:1;stroke-miterlimit:10;" d="M 1 6 C 1 3.238281 3.238281 1 6 1 L 60 1 C 62.761719 1 65 3.238281 65 6 L 65 17 C 65 19.761719 62.761719 22 60 22 L 6 22 C 3.238281 22 1 19.761719 1 17 Z M 1 6 " transform="matrix(1,0,0,1,152,58)"/>
</g>
</g>
<g clip-path="url(#clip13)" clip-rule="nonzero">
<g clip-path="url(#clip14)" clip-rule="nonzero">
<rect x="0" y="0" width="542" height="96" style="fill:rgb(38.039216%,50.588235%,100%);fill-opacity:0.490196;stroke:none;"/>
<path style="fill:none;stroke-width:2;stroke-linecap:butt;stroke-linejoin:miter;stroke:rgb(38.039216%,50.588235%,100%);stroke-opacity:1;stroke-miterlimit:10;" d="M 1 6 C 1 3.238281 3.238281 1 6 1 L 28 1 C 30.761719 1 33 3.238281 33 6 L 33 38 C 33 40.761719 30.761719 43 28 43 L 6 43 C 3.238281 43 1 40.761719 1 38 Z M 1 6 " transform="matrix(1,0,0,1,218,14)"/>
</g>
</g>
<g clip-path="url(#clip15)" clip-rule="nonzero">
<g clip-path="url(#clip16)" clip-rule="nonzero">
<rect x="0" y="0" width="542" height="96" style="fill:rgb(38.039216%,50.588235%,100%);fill-opacity:0.490196;stroke:none;"/>
<path style="fill:none;stroke-width:2;stroke-linecap:butt;stroke-linejoin:miter;stroke:rgb(38.039216%,50.588235%,100%);stroke-opacity:1;stroke-miterlimit:10;" d="M 1 6 C 1 3.238281 3.238281 1 6 1 L 28 1 C 30.761719 1 33 3.238281 33 6 L 33 17 C 33 19.761719 30.761719 22 28 22 L 6 22 C 3.238281 22 1 19.761719 1 17 Z M 1 6 " transform="matrix(1,0,0,1,218,58)"/>
</g>
</g>
<g clip-path="url(#clip17)" clip-rule="nonzero">
<g clip-path="url(#clip18)" clip-rule="nonzero">
<rect x="0" y="0" width="542" height="96" style="fill:rgb(38.039216%,50.588235%,100%);fill-opacity:0.490196;stroke:none;"/>
<path style="fill:none;stroke-width:2;stroke-linecap:butt;stroke-linejoin:miter;stroke:rgb(38.039216%,50.588235%,100%);stroke-opacity:1;stroke-miterlimit:10;" d="M 1 6 C 1 3.238281 3.238281 1 6 1 L 57 1 C 59.761719 1 62 3.238281 62 6 L 62 36 C 62 38.761719 59.761719 41 57 41 L 6 41 C 3.238281 41 1 38.761719 1 36 Z M 1 6 " transform="matrix(1,0,0,1,292,16)"/>
</g>
</g>
<g clip-path="url(#clip19)" clip-rule="nonzero">
<g clip-path="url(#clip20)" clip-rule="nonzero">
<rect x="0" y="0" width="542" height="96" style="fill:rgb(38.039216%,50.588235%,100%);fill-opacity:0.490196;stroke:none;"/>
<path style="fill:none;stroke-width:2;stroke-linecap:butt;stroke-linejoin:miter;stroke:rgb(38.039216%,50.588235%,100%);stroke-opacity:1;stroke-miterlimit:10;" d="M 1 6 C 1 3.238281 3.238281 1 6 1 L 57 1 C 59.761719 1 62 3.238281 62 6 L 62 15 C 62 17.761719 59.761719 20 57 20 L 6 20 C 3.238281 20 1 17.761719 1 15 Z M 1 6 " transform="matrix(1,0,0,1,292,58)"/>
</g>
</g>
<g clip-path="url(#clip21)" clip-rule="nonzero">
<g clip-path="url(#clip22)" clip-rule="nonzero">
<rect x="0" y="0" width="542" height="96" style="fill:rgb(38.039216%,50.588235%,100%);fill-opacity:0.490196;stroke:none;"/>
<path style="fill:none;stroke-width:2;stroke-linecap:butt;stroke-linejoin:miter;stroke:rgb(38.039216%,50.588235%,100%);stroke-opacity:1;stroke-miterlimit:10;" d="M 1 6 C 1 3.238281 3.238281 1 6 1 L 26 1 C 28.761719 1 31 3.238281 31 6 L 31 36 C 31 38.761719 28.761719 41 26 41 L 6 41 C 3.238281 41 1 38.761719 1 36 Z M 1 6 " transform="matrix(1,0,0,1,355,16)"/>
</g>
</g>
<g clip-path="url(#clip23)" clip-rule="nonzero">
<g clip-path="url(#clip24)" clip-rule="nonzero">
<rect x="0" y="0" width="542" height="96" style="fill:rgb(38.039216%,50.588235%,100%);fill-opacity:0.490196;stroke:none;"/>
<path style="fill:none;stroke-width:2;stroke-linecap:butt;stroke-linejoin:miter;stroke:rgb(38.039216%,50.588235%,100%);stroke-opacity:1;stroke-miterlimit:10;" d="M 1 6 C 1 3.238281 3.238281 1 6 1 L 26 1 C 28.761719 1 31 3.238281 31 6 L 31 15 C 31 17.761719 28.761719 20 26 20 L 6 20 C 3.238281 20 1 17.761719 1 15 Z M 1 6 " transform="matrix(1,0,0,1,355,58)"/>
</g>
</g>
<g clip-path="url(#clip25)" clip-rule="nonzero">
<g clip-path="url(#clip26)" clip-rule="nonzero">
<rect x="0" y="0" width="542" height="96" style="fill:rgb(38.039216%,50.588235%,100%);fill-opacity:0.490196;stroke:none;"/>
<path style="fill:none;stroke-width:2;stroke-linecap:butt;stroke-linejoin:miter;stroke:rgb(38.039216%,50.588235%,100%);stroke-opacity:1;stroke-miterlimit:10;" d="M 1 6 C 1 3.238281 3.238281 1 6 1 L 54 1 C 56.761719 1 59 3.238281 59 6 L 59 33 C 59 35.761719 56.761719 38 54 38 L 6 38 C 3.238281 38 1 35.761719 1 33 Z M 1 6 " transform="matrix(1,0,0,1,432,18)"/>
</g>
</g>
<g clip-path="url(#clip27)" clip-rule="nonzero">
<g clip-path="url(#clip28)" clip-rule="nonzero">
<rect x="0" y="0" width="542" height="96" style="fill:rgb(38.039216%,50.588235%,100%);fill-opacity:0.490196;stroke:none;"/>
<path style="fill:none;stroke-width:2;stroke-linecap:butt;stroke-linejoin:miter;stroke:rgb(38.039216%,50.588235%,100%);stroke-opacity:1;stroke-miterlimit:10;" d="M 1 6 C 1 3.238281 3.238281 1 6 1 L 54 1 C 56.761719 1 59 3.238281 59 6 L 59 14 C 59 16.761719 56.761719 19 54 19 L 6 19 C 3.238281 19 1 16.761719 1 14 Z M 1 6 " transform="matrix(1,0,0,1,432,57)"/>
</g>
</g>
<g clip-path="url(#clip29)" clip-rule="nonzero">
<g clip-path="url(#clip30)" clip-rule="nonzero">
<rect x="0" y="0" width="542" height="96" style="fill:rgb(38.039216%,50.588235%,100%);fill-opacity:0.490196;stroke:none;"/>
<path style="fill:none;stroke-width:2;stroke-linecap:butt;stroke-linejoin:miter;stroke:rgb(38.039216%,50.588235%,100%);stroke-opacity:1;stroke-miterlimit:10;" d="M 1 6 C 1 3.238281 3.238281 1 6 1 L 25 1 C 27.761719 1 30 3.238281 30 6 L 30 33 C 30 35.761719 27.761719 38 25 38 L 6 38 C 3.238281 38 1 35.761719 1 33 Z M 1 6 " transform="matrix(1,0,0,1,492,18)"/>
</g>
</g>
<g clip-path="url(#clip31)" clip-rule="nonzero">
<g clip-path="url(#clip32)" clip-rule="nonzero">
<rect x="0" y="0" width="542" height="96" style="fill:rgb(38.039216%,50.588235%,100%);fill-opacity:0.490196;stroke:none;"/>
<path style="fill:none;stroke-width:2;stroke-linecap:butt;stroke-linejoin:miter;stroke:rgb(38.039216%,50.588235%,100%);stroke-opacity:1;stroke-miterlimit:10;" d="M 1 6 C 1 3.238281 3.238281 1 6 1 L 25 1 C 27.761719 1 30 3.238281 30 6 L 30 14 C 30 16.761719 27.761719 19 25 19 L 6 19 C 3.238281 19 1 16.761719 1 14 Z M 1 6 " transform="matrix(1,0,0,1,492,57)"/>
</g>
</g>
</g>
</svg>
