<?xml version="1.0" encoding="UTF-8"?>
<svg xmlns="http://www.w3.org/2000/svg" xmlns:xlink="http://www.w3.org/1999/xlink" width="286pt" height="222pt" viewBox="0 0 286 222" version="1.1">
<defs>
<clipPath id="clip1">
  <path d="M 4 4 L 60 4 L 60 44 L 4 44 Z M 4 4 "/>
</clipPath>
<clipPath id="clip2">
  <path d="M 4 6 C 4 4.894531 4.894531 4 6 4 L 58 4 C 59.105469 4 60 4.894531 60 6 L 60 42 C 60 43.105469 59.105469 44 58 44 L 6 44 C 4.894531 44 4 43.105469 4 42 Z M 4 6 "/>
</clipPath>
<clipPath id="clip3">
  <path d="M 107 4 L 134 4 L 134 44 L 107 44 Z M 107 4 "/>
</clipPath>
<clipPath id="clip4">
  <path d="M 107 6 C 107 4.894531 107.894531 4 109 4 L 132 4 C 133.105469 4 134 4.894531 134 6 L 134 42 C 134 43.105469 133.105469 44 132 44 L 109 44 C 107.894531 44 107 43.105469 107 42 Z M 107 6 "/>
</clipPath>
<clipPath id="clip5">
  <path d="M 78 4 L 105 4 L 105 44 L 78 44 Z M 78 4 "/>
</clipPath>
<clipPath id="clip6">
  <path d="M 78 6 C 78 4.894531 78.894531 4 80 4 L 103 4 C 104.105469 4 105 4.894531 105 6 L 105 42 C 105 43.105469 104.105469 44 103 44 L 80 44 C 78.894531 44 78 43.105469 78 42 Z M 78 6 "/>
</clipPath>
<clipPath id="clip7">
  <path d="M 181 25 L 208 25 L 208 44 L 181 44 Z M 181 25 "/>
</clipPath>
<clipPath id="clip8">
  <path d="M 181 27 C 181 25.894531 181.894531 25 183 25 L 206 25 C 207.105469 25 208 25.894531 208 27 L 208 42 C 208 43.105469 207.105469 44 206 44 L 183 44 C 181.894531 44 181 43.105469 181 42 Z M 181 27 "/>
</clipPath>
<clipPath id="clip9">
  <path d="M 181 4 L 208 4 L 208 23 L 181 23 Z M 181 4 "/>
</clipPath>
<clipPath id="clip10">
  <path d="M 181 6 C 181 4.894531 181.894531 4 183 4 L 206 4 C 207.105469 4 208 4.894531 208 6 L 208 21 C 208 22.105469 207.105469 23 206 23 L 183 23 C 181.894531 23 181 22.105469 181 21 Z M 181 6 "/>
</clipPath>
<clipPath id="clip11">
  <path d="M 152 4 L 179 4 L 179 44 L 152 44 Z M 152 4 "/>
</clipPath>
<clipPath id="clip12">
  <path d="M 152 6 C 152 4.894531 152.894531 4 154 4 L 177 4 C 178.105469 4 179 4.894531 179 6 L 179 42 C 179 43.105469 178.105469 44 177 44 L 154 44 C 152.894531 44 152 43.105469 152 42 Z M 152 6 "/>
</clipPath>
<clipPath id="clip13">
  <path d="M 255 32 L 282 32 L 282 44 L 255 44 Z M 255 32 "/>
</clipPath>
<clipPath id="clip14">
  <path d="M 255 34 C 255 32.894531 255.894531 32 257 32 L 280 32 C 281.105469 32 282 32.894531 282 34 L 282 42 C 282 43.105469 281.105469 44 280 44 L 257 44 C 255.894531 44 255 43.105469 255 42 Z M 255 34 "/>
</clipPath>
<clipPath id="clip15">
  <path d="M 255 18 L 282 18 L 282 30 L 255 30 Z M 255 18 "/>
</clipPath>
<clipPath id="clip16">
  <path d="M 255 20 C 255 18.894531 255.894531 18 257 18 L 280 18 C 281.105469 18 282 18.894531 282 20 L 282 28 C 282 29.105469 281.105469 30 280 30 L 257 30 C 255.894531 30 255 29.105469 255 28 Z M 255 20 "/>
</clipPath>
<clipPath id="clip17">
  <path d="M 255 4 L 282 4 L 282 16 L 255 16 Z M 255 4 "/>
</clipPath>
<clipPath id="clip18">
  <path d="M 255 6 C 255 4.894531 255.894531 4 257 4 L 280 4 C 281.105469 4 282 4.894531 282 6 L 282 14 C 282 15.105469 281.105469 16 280 16 L 257 16 C 255.894531 16 255 15.105469 255 14 Z M 255 6 "/>
</clipPath>
<clipPath id="clip19">
  <path d="M 226 4 L 253 4 L 253 44 L 226 44 Z M 226 4 "/>
</clipPath>
<clipPath id="clip20">
  <path d="M 226 6 C 226 4.894531 226.894531 4 228 4 L 251 4 C 252.105469 4 253 4.894531 253 6 L 253 42 C 253 43.105469 252.105469 44 251 44 L 228 44 C 226.894531 44 226 43.105469 226 42 Z M 226 6 "/>
</clipPath>
<clipPath id="clip21">
  <path d="M 4 62 L 60 62 L 60 102 L 4 102 Z M 4 62 "/>
</clipPath>
<clipPath id="clip22">
  <path d="M 4 64 C 4 62.894531 4.894531 62 6 62 L 58 62 C 59.105469 62 60 62.894531 60 64 L 60 100 C 60 101.105469 59.105469 102 58 102 L 6 102 C 4.894531 102 4 101.105469 4 100 Z M 4 64 "/>
</clipPath>
<clipPath id="clip23">
  <path d="M 78 62 L 134 62 L 134 81 L 78 81 Z M 78 62 "/>
</clipPath>
<clipPath id="clip24">
  <path d="M 78 64 C 78 62.894531 78.894531 62 80 62 L 132 62 C 133.105469 62 134 62.894531 134 64 L 134 79 C 134 80.105469 133.105469 81 132 81 L 80 81 C 78.894531 81 78 80.105469 78 79 Z M 78 64 "/>
</clipPath>
<clipPath id="clip25">
  <path d="M 78 83 L 134 83 L 134 102 L 78 102 Z M 78 83 "/>
</clipPath>
<clipPath id="clip26">
  <path d="M 78 85 C 78 83.894531 78.894531 83 80 83 L 132 83 C 133.105469 83 134 83.894531 134 85 L 134 100 C 134 101.105469 133.105469 102 132 102 L 80 102 C 78.894531 102 78 101.105469 78 100 Z M 78 85 "/>
</clipPath>
<clipPath id="clip27">
  <path d="M 152 62 L 179 62 L 179 81 L 152 81 Z M 152 62 "/>
</clipPath>
<clipPath id="clip28">
  <path d="M 152 64 C 152 62.894531 152.894531 62 154 62 L 177 62 C 178.105469 62 179 62.894531 179 64 L 179 79 C 179 80.105469 178.105469 81 177 81 L 154 81 C 152.894531 81 152 80.105469 152 79 Z M 152 64 "/>
</clipPath>
<clipPath id="clip29">
  <path d="M 152 83 L 179 83 L 179 102 L 152 102 Z M 152 83 "/>
</clipPath>
<clipPath id="clip30">
  <path d="M 152 85 C 152 83.894531 152.894531 83 154 83 L 177 83 C 178.105469 83 179 83.894531 179 85 L 179 100 C 179 101.105469 178.105469 102 177 102 L 154 102 C 152.894531 102 152 101.105469 152 100 Z M 152 85 "/>
</clipPath>
<clipPath id="clip31">
  <path d="M 181 62 L 208 62 L 208 102 L 181 102 Z M 181 62 "/>
</clipPath>
<clipPath id="clip32">
  <path d="M 181 64 C 181 62.894531 181.894531 62 183 62 L 206 62 C 207.105469 62 208 62.894531 208 64 L 208 100 C 208 101.105469 207.105469 102 206 102 L 183 102 C 181.894531 102 181 101.105469 181 100 Z M 181 64 "/>
</clipPath>
<clipPath id="clip33">
  <path d="M 226 76 L 253 76 L 253 88 L 226 88 Z M 226 76 "/>
</clipPath>
<clipPath id="clip34">
  <path d="M 226 78 C 226 76.894531 226.894531 76 228 76 L 251 76 C 252.105469 76 253 76.894531 253 78 L 253 86 C 253 87.105469 252.105469 88 251 88 L 228 88 C 226.894531 88 226 87.105469 226 86 Z M 226 78 "/>
</clipPath>
<clipPath id="clip35">
  <path d="M 226 90 L 253 90 L 253 102 L 226 102 Z M 226 90 "/>
</clipPath>
<clipPath id="clip36">
  <path d="M 226 92 C 226 90.894531 226.894531 90 228 90 L 251 90 C 252.105469 90 253 90.894531 253 92 L 253 100 C 253 101.105469 252.105469 102 251 102 L 228 102 C 226.894531 102 226 101.105469 226 100 Z M 226 92 "/>
</clipPath>
<clipPath id="clip37">
  <path d="M 226 62 L 253 62 L 253 74 L 226 74 Z M 226 62 "/>
</clipPath>
<clipPath id="clip38">
  <path d="M 226 64 C 226 62.894531 226.894531 62 228 62 L 251 62 C 252.105469 62 253 62.894531 253 64 L 253 72 C 253 73.105469 252.105469 74 251 74 L 228 74 C 226.894531 74 226 73.105469 226 72 Z M 226 64 "/>
</clipPath>
<clipPath id="clip39">
  <path d="M 255 62 L 282 62 L 282 102 L 255 102 Z M 255 62 "/>
</clipPath>
<clipPath id="clip40">
  <path d="M 255 64 C 255 62.894531 255.894531 62 257 62 L 280 62 C 281.105469 62 282 62.894531 282 64 L 282 100 C 282 101.105469 281.105469 102 280 102 L 257 102 C 255.894531 102 255 101.105469 255 100 Z M 255 64 "/>
</clipPath>
<clipPath id="clip41">
  <path d="M 4 120 L 60 120 L 60 160 L 4 160 Z M 4 120 "/>
</clipPath>
<clipPath id="clip42">
  <path d="M 4 122 C 4 120.894531 4.894531 120 6 120 L 58 120 C 59.105469 120 60 120.894531 60 122 L 60 158 C 60 159.105469 59.105469 160 58 160 L 6 160 C 4.894531 160 4 159.105469 4 158 Z M 4 122 "/>
</clipPath>
<clipPath id="clip43">
  <path d="M 78 120 L 105 120 L 105 160 L 78 160 Z M 78 120 "/>
</clipPath>
<clipPath id="clip44">
  <path d="M 78 122 C 78 120.894531 78.894531 120 80 120 L 103 120 C 104.105469 120 105 120.894531 105 122 L 105 158 C 105 159.105469 104.105469 160 103 160 L 80 160 C 78.894531 160 78 159.105469 78 158 Z M 78 122 "/>
</clipPath>
<clipPath id="clip45">
  <path d="M 107 120 L 134 120 L 134 160 L 107 160 Z M 107 120 "/>
</clipPath>
<clipPath id="clip46">
  <path d="M 107 122 C 107 120.894531 107.894531 120 109 120 L 132 120 C 133.105469 120 134 120.894531 134 122 L 134 158 C 134 159.105469 133.105469 160 132 160 L 109 160 C 107.894531 160 107 159.105469 107 158 Z M 107 122 "/>
</clipPath>
<clipPath id="clip47">
  <path d="M 152 120 L 179 120 L 179 139 L 152 139 Z M 152 120 "/>
</clipPath>
<clipPath id="clip48">
  <path d="M 152 122 C 152 120.894531 152.894531 120 154 120 L 177 120 C 178.105469 120 179 120.894531 179 122 L 179 137 C 179 138.105469 178.105469 139 177 139 L 154 139 C 152.894531 139 152 138.105469 152 137 Z M 152 122 "/>
</clipPath>
<clipPath id="clip49">
  <path d="M 181 120 L 208 120 L 208 139 L 181 139 Z M 181 120 "/>
</clipPath>
<clipPath id="clip50">
  <path d="M 181 122 C 181 120.894531 181.894531 120 183 120 L 206 120 C 207.105469 120 208 120.894531 208 122 L 208 137 C 208 138.105469 207.105469 139 206 139 L 183 139 C 181.894531 139 181 138.105469 181 137 Z M 181 122 "/>
</clipPath>
<clipPath id="clip51">
  <path d="M 152 141 L 208 141 L 208 160 L 152 160 Z M 152 141 "/>
</clipPath>
<clipPath id="clip52">
  <path d="M 152 143 C 152 141.894531 152.894531 141 154 141 L 206 141 C 207.105469 141 208 141.894531 208 143 L 208 158 C 208 159.105469 207.105469 160 206 160 L 154 160 C 152.894531 160 152 159.105469 152 158 Z M 152 143 "/>
</clipPath>
<clipPath id="clip53">
  <path d="M 245 120 L 262 120 L 262 139 L 245 139 Z M 245 120 "/>
</clipPath>
<clipPath id="clip54">
  <path d="M 245 122 C 245 120.894531 245.894531 120 247 120 L 260 120 C 261.105469 120 262 120.894531 262 122 L 262 137 C 262 138.105469 261.105469 139 260 139 L 247 139 C 245.894531 139 245 138.105469 245 137 Z M 245 122 "/>
</clipPath>
<clipPath id="clip55">
  <path d="M 264 120 L 281 120 L 281 139 L 264 139 Z M 264 120 "/>
</clipPath>
<clipPath id="clip56">
  <path d="M 264 122 C 264 120.894531 264.894531 120 266 120 L 279 120 C 280.105469 120 281 120.894531 281 122 L 281 137 C 281 138.105469 280.105469 139 279 139 L 266 139 C 264.894531 139 264 138.105469 264 137 Z M 264 122 "/>
</clipPath>
<clipPath id="clip57">
  <path d="M 226 120 L 243 120 L 243 139 L 226 139 Z M 226 120 "/>
</clipPath>
<clipPath id="clip58">
  <path d="M 226 122 C 226 120.894531 226.894531 120 228 120 L 241 120 C 242.105469 120 243 120.894531 243 122 L 243 137 C 243 138.105469 242.105469 139 241 139 L 228 139 C 226.894531 139 226 138.105469 226 137 Z M 226 122 "/>
</clipPath>
<clipPath id="clip59">
  <path d="M 226 141 L 282 141 L 282 160 L 226 160 Z M 226 141 "/>
</clipPath>
<clipPath id="clip60">
  <path d="M 226 143 C 226 141.894531 226.894531 141 228 141 L 280 141 C 281.105469 141 282 141.894531 282 143 L 282 158 C 282 159.105469 281.105469 160 280 160 L 228 160 C 226.894531 160 226 159.105469 226 158 Z M 226 143 "/>
</clipPath>
<clipPath id="clip61">
  <path d="M 4 178 L 60 178 L 60 218 L 4 218 Z M 4 178 "/>
</clipPath>
<clipPath id="clip62">
  <path d="M 4 180 C 4 178.894531 4.894531 178 6 178 L 58 178 C 59.105469 178 60 178.894531 60 180 L 60 216 C 60 217.105469 59.105469 218 58 218 L 6 218 C 4.894531 218 4 217.105469 4 216 Z M 4 180 "/>
</clipPath>
<clipPath id="clip63">
  <path d="M 78 199 L 134 199 L 134 218 L 78 218 Z M 78 199 "/>
</clipPath>
<clipPath id="clip64">
  <path d="M 78 201 C 78 199.894531 78.894531 199 80 199 L 132 199 C 133.105469 199 134 199.894531 134 201 L 134 216 C 134 217.105469 133.105469 218 132 218 L 80 218 C 78.894531 218 78 217.105469 78 216 Z M 78 201 "/>
</clipPath>
<clipPath id="clip65">
  <path d="M 78 178 L 134 178 L 134 197 L 78 197 Z M 78 178 "/>
</clipPath>
<clipPath id="clip66">
  <path d="M 78 180 C 78 178.894531 78.894531 178 80 178 L 132 178 C 133.105469 178 134 178.894531 134 180 L 134 195 C 134 196.105469 133.105469 197 132 197 L 80 197 C 78.894531 197 78 196.105469 78 195 Z M 78 180 "/>
</clipPath>
<clipPath id="clip67">
  <path d="M 181 199 L 208 199 L 208 218 L 181 218 Z M 181 199 "/>
</clipPath>
<clipPath id="clip68">
  <path d="M 181 201 C 181 199.894531 181.894531 199 183 199 L 206 199 C 207.105469 199 208 199.894531 208 201 L 208 216 C 208 217.105469 207.105469 218 206 218 L 183 218 C 181.894531 218 181 217.105469 181 216 Z M 181 201 "/>
</clipPath>
<clipPath id="clip69">
  <path d="M 152 199 L 179 199 L 179 218 L 152 218 Z M 152 199 "/>
</clipPath>
<clipPath id="clip70">
  <path d="M 152 201 C 152 199.894531 152.894531 199 154 199 L 177 199 C 178.105469 199 179 199.894531 179 201 L 179 216 C 179 217.105469 178.105469 218 177 218 L 154 218 C 152.894531 218 152 217.105469 152 216 Z M 152 201 "/>
</clipPath>
<clipPath id="clip71">
  <path d="M 152 178 L 208 178 L 208 197 L 152 197 Z M 152 178 "/>
</clipPath>
<clipPath id="clip72">
  <path d="M 152 180 C 152 178.894531 152.894531 178 154 178 L 206 178 C 207.105469 178 208 178.894531 208 180 L 208 195 C 208 196.105469 207.105469 197 206 197 L 154 197 C 152.894531 197 152 196.105469 152 195 Z M 152 180 "/>
</clipPath>
<clipPath id="clip73">
  <path d="M 264 199 L 281 199 L 281 218 L 264 218 Z M 264 199 "/>
</clipPath>
<clipPath id="clip74">
  <path d="M 264 201 C 264 199.894531 264.894531 199 266 199 L 279 199 C 280.105469 199 281 199.894531 281 201 L 281 216 C 281 217.105469 280.105469 218 279 218 L 266 218 C 264.894531 218 264 217.105469 264 216 Z M 264 201 "/>
</clipPath>
<clipPath id="clip75">
  <path d="M 245 199 L 262 199 L 262 218 L 245 218 Z M 245 199 "/>
</clipPath>
<clipPath id="clip76">
  <path d="M 245 201 C 245 199.894531 245.894531 199 247 199 L 260 199 C 261.105469 199 262 199.894531 262 201 L 262 216 C 262 217.105469 261.105469 218 260 218 L 247 218 C 245.894531 218 245 217.105469 245 216 Z M 245 201 "/>
</clipPath>
<clipPath id="clip77">
  <path d="M 226 199 L 243 199 L 243 218 L 226 218 Z M 226 199 "/>
</clipPath>
<clipPath id="clip78">
  <path d="M 226 201 C 226 199.894531 226.894531 199 228 199 L 241 199 C 242.105469 199 243 199.894531 243 201 L 243 216 C 243 217.105469 242.105469 218 241 218 L 228 218 C 226.894531 218 226 217.105469 226 216 Z M 226 201 "/>
</clipPath>
<clipPath id="clip79">
  <path d="M 226 178 L 282 178 L 282 197 L 226 197 Z M 226 178 "/>
</clipPath>
<clipPath id="clip80">
  <path d="M 226 180 C 226 178.894531 226.894531 178 228 178 L 280 178 C 281.105469 178 282 178.894531 282 180 L 282 195 C 282 196.105469 281.105469 197 280 197 L 228 197 C 226.894531 197 226 196.105469 226 195 Z M 226 180 "/>
</clipPath>
</defs>
<g id="surface2">
<path style="fill:none;stroke-width:1.5;stroke-linecap:butt;stroke-linejoin:miter;stroke:rgb(0%,0%,0%);stroke-opacity:0.266667;stroke-dasharray:10,4;stroke-dashoffset:1;stroke-miterlimit:10;" d="M 0.75 0.75 L 63.25 0.75 L 63.25 47.25 L 0.75 47.25 Z M 0.75 0.75 "/>
<path style="fill:none;stroke-width:1.5;stroke-linecap:butt;stroke-linejoin:miter;stroke:rgb(0%,0%,0%);stroke-opacity:0.2;stroke-dasharray:10,4;stroke-dashoffset:1;stroke-miterlimit:10;" d="M 3 3 L 61 3 L 61 45 L 3 45 Z M 3 3 "/>
<path style="fill:none;stroke-width:1.5;stroke-linecap:butt;stroke-linejoin:miter;stroke:rgb(0%,0%,0%);stroke-opacity:0.266667;stroke-dasharray:10,4;stroke-dashoffset:1;stroke-miterlimit:10;" d="M 74.75 0.75 L 137.25 0.75 L 137.25 47.25 L 74.75 47.25 Z M 74.75 0.75 "/>
<path style="fill:none;stroke-width:1.5;stroke-linecap:butt;stroke-linejoin:miter;stroke:rgb(0%,0%,0%);stroke-opacity:0.2;stroke-dasharray:10,4;stroke-dashoffset:1;stroke-miterlimit:10;" d="M 77 3 L 135 3 L 135 45 L 77 45 Z M 77 3 "/>
<path style="fill:none;stroke-width:1.5;stroke-linecap:butt;stroke-linejoin:miter;stroke:rgb(0%,0%,0%);stroke-opacity:0.266667;stroke-dasharray:10,4;stroke-dashoffset:1;stroke-miterlimit:10;" d="M 148.75 0.75 L 211.25 0.75 L 211.25 47.25 L 148.75 47.25 Z M 148.75 0.75 "/>
<path style="fill:none;stroke-width:1.5;stroke-linecap:butt;stroke-linejoin:miter;stroke:rgb(0%,0%,0%);stroke-opacity:0.2;stroke-dasharray:10,4;stroke-dashoffset:1;stroke-miterlimit:10;" d="M 151 3 L 209 3 L 209 45 L 151 45 Z M 151 3 "/>
<path style="fill:none;stroke-width:1.5;stroke-linecap:butt;stroke-linejoin:miter;stroke:rgb(0%,0%,0%);stroke-opacity:0.266667;stroke-dasharray:10,4;stroke-dashoffset:1;stroke-miterlimit:10;" d="M 222.75 0.75 L 285.25 0.75 L 285.25 47.25 L 222.75 47.25 Z M 222.75 0.75 "/>
<path style="fill:none;stroke-width:1.5;stroke-linecap:butt;stroke-linejoin:miter;stroke:rgb(0%,0%,0%);stroke-opacity:0.2;stroke-dasharray:10,4;stroke-dashoffset:1;stroke-miterlimit:10;" d="M 225 3 L 283 3 L 283 45 L 225 45 Z M 225 3 "/>
<path style="fill:none;stroke-width:1.5;stroke-linecap:butt;stroke-linejoin:miter;stroke:rgb(0%,0%,0%);stroke-opacity:0.266667;stroke-dasharray:10,4;stroke-dashoffset:1;stroke-miterlimit:10;" d="M 0.75 58.75 L 63.25 58.75 L 63.25 105.25 L 0.75 105.25 Z M 0.75 58.75 "/>
<path style="fill:none;stroke-width:1.5;stroke-linecap:butt;stroke-linejoin:miter;stroke:rgb(0%,0%,0%);stroke-opacity:0.2;stroke-dasharray:10,4;stroke-dashoffset:1;stroke-miterlimit:10;" d="M 3 61 L 61 61 L 61 103 L 3 103 Z M 3 61 "/>
<path style="fill:none;stroke-width:1.5;stroke-linecap:butt;stroke-linejoin:miter;stroke:rgb(0%,0%,0%);stroke-opacity:0.266667;stroke-dasharray:10,4;stroke-dashoffset:1;stroke-miterlimit:10;" d="M 74.75 58.75 L 137.25 58.75 L 137.25 105.25 L 74.75 105.25 Z M 74.75 58.75 "/>
<path style="fill:none;stroke-width:1.5;stroke-linecap:butt;stroke-linejoin:miter;stroke:rgb(0%,0%,0%);stroke-opacity:0.2;stroke-dasharray:10,4;stroke-dashoffset:1;stroke-miterlimit:10;" d="M 77 61 L 135 61 L 135 103 L 77 103 Z M 77 61 "/>
<path style="fill:none;stroke-width:1.5;stroke-linecap:butt;stroke-linejoin:miter;stroke:rgb(0%,0%,0%);stroke-opacity:0.266667;stroke-dasharray:10,4;stroke-dashoffset:1;stroke-miterlimit:10;" d="M 148.75 58.75 L 211.25 58.75 L 211.25 105.25 L 148.75 105.25 Z M 148.75 58.75 "/>
<path style="fill:none;stroke-width:1.5;stroke-linecap:butt;stroke-linejoin:miter;stroke:rgb(0%,0%,0%);stroke-opacity:0.2;stroke-dasharray:10,4;stroke-dashoffset:1;stroke-miterlimit:10;" d="M 151 61 L 209 61 L 209 103 L 151 103 Z M 151 61 "/>
<path style="fill:none;stroke-width:1.5;stroke-linecap:butt;stroke-linejoin:miter;stroke:rgb(0%,0%,0%);stroke-opacity:0.266667;stroke-dasharray:10,4;stroke-dashoffset:1;stroke-miterlimit:10;" d="M 222.75 58.75 L 285.25 58.75 L 285.25 105.25 L 222.75 105.25 Z M 222.75 58.75 "/>
<path style="fill:none;stroke-width:1.5;stroke-linecap:butt;stroke-linejoin:miter;stroke:rgb(0%,0%,0%);stroke-opacity:0.2;stroke-dasharray:10,4;stroke-dashoffset:1;stroke-miterlimit:10;" d="M 225 61 L 283 61 L 283 103 L 225 103 Z M 225 61 "/>
<path style="fill:none;stroke-width:1.5;stroke-linecap:butt;stroke-linejoin:miter;stroke:rgb(0%,0%,0%);stroke-opacity:0.266667;stroke-dasharray:10,4;stroke-dashoffset:1;stroke-miterlimit:10;" d="M 0.75 116.75 L 63.25 116.75 L 63.25 163.25 L 0.75 163.25 Z M 0.75 116.75 "/>
<path style="fill:none;stroke-width:1.5;stroke-linecap:butt;stroke-linejoin:miter;stroke:rgb(0%,0%,0%);stroke-opacity:0.2;stroke-dasharray:10,4;stroke-dashoffset:1;stroke-miterlimit:10;" d="M 3 119 L 61 119 L 61 161 L 3 161 Z M 3 119 "/>
<path style="fill:none;stroke-width:1.5;stroke-linecap:butt;stroke-linejoin:miter;stroke:rgb(0%,0%,0%);stroke-opacity:0.266667;stroke-dasharray:10,4;stroke-dashoffset:1;stroke-miterlimit:10;" d="M 74.75 116.75 L 137.25 116.75 L 137.25 163.25 L 74.75 163.25 Z M 74.75 116.75 "/>
<path style="fill:none;stroke-width:1.5;stroke-linecap:butt;stroke-linejoin:miter;stroke:rgb(0%,0%,0%);stroke-opacity:0.2;stroke-dasharray:10,4;stroke-dashoffset:1;stroke-miterlimit:10;" d="M 77 119 L 135 119 L 135 161 L 77 161 Z M 77 119 "/>
<path style="fill:none;stroke-width:1.5;stroke-linecap:butt;stroke-linejoin:miter;stroke:rgb(0%,0%,0%);stroke-opacity:0.266667;stroke-dasharray:10,4;stroke-dashoffset:1;stroke-miterlimit:10;" d="M 148.75 116.75 L 211.25 116.75 L 211.25 163.25 L 148.75 163.25 Z M 148.75 116.75 "/>
<path style="fill:none;stroke-width:1.5;stroke-linecap:butt;stroke-linejoin:miter;stroke:rgb(0%,0%,0%);stroke-opacity:0.2;stroke-dasharray:10,4;stroke-dashoffset:1;stroke-miterlimit:10;" d="M 151 119 L 209 119 L 209 161 L 151 161 Z M 151 119 "/>
<path style="fill:none;stroke-width:1.5;stroke-linecap:butt;stroke-linejoin:miter;stroke:rgb(0%,0%,0%);stroke-opacity:0.266667;stroke-dasharray:10,4;stroke-dashoffset:1;stroke-miterlimit:10;" d="M 222.75 116.75 L 285.25 116.75 L 285.25 163.25 L 222.75 163.25 Z M 222.75 116.75 "/>
<path style="fill:none;stroke-width:1.5;stroke-linecap:butt;stroke-linejoin:miter;stroke:rgb(0%,0%,0%);stroke-opacity:0.2;stroke-dasharray:10,4;stroke-dashoffset:1;stroke-miterlimit:10;" d="M 225 119 L 283 119 L 283 161 L 225 161 Z M 225 119 "/>
<path style="fill:none;stroke-width:1.5;stroke-linecap:butt;stroke-linejoin:miter;stroke:rgb(0%,0%,0%);stroke-opacity:0.266667;stroke-dasharray:10,4;stroke-dashoffset:1;stroke-miterlimit:10;" d="M 0.75 174.75 L 63.25 174.75 L 63.25 221.25 L 0.75 221.25 Z M 0.75 174.75 "/>
<path style="fill:none;stroke-width:1.5;stroke-linecap:butt;stroke-linejoin:miter;stroke:rgb(0%,0%,0%);stroke-opacity:0.2;stroke-dasharray:10,4;stroke-dashoffset:1;stroke-miterlimit:10;" d="M 3 177 L 61 177 L 61 219 L 3 219 Z M 3 177 "/>
<path style="fill:none;stroke-width:1.5;stroke-linecap:butt;stroke-linejoin:miter;stroke:rgb(0%,0%,0%);stroke-opacity:0.266667;stroke-dasharray:10,4;stroke-dashoffset:1;stroke-miterlimit:10;" d="M 74.75 174.75 L 137.25 174.75 L 137.25 221.25 L 74.75 221.25 Z M 74.75 174.75 "/>
<path style="fill:none;stroke-width:1.5;stroke-linecap:butt;stroke-linejoin:miter;stroke:rgb(0%,0%,0%);stroke-opacity:0.2;stroke-dasharray:10,4;stroke-dashoffset:1;stroke-miterlimit:10;" d="M 77 177 L 135 177 L 135 219 L 77 219 Z M 77 177 "/>
<path style="fill:none;stroke-width:1.5;stroke-linecap:butt;stroke-linejoin:miter;stroke:rgb(0%,0%,0%);stroke-opacity:0.266667;stroke-dasharray:10,4;stroke-dashoffset:1;stroke-miterlimit:10;" d="M 148.75 174.75 L 211.25 174.75 L 211.25 221.25 L 148.75 221.25 Z M 148.75 174.75 "/>
<path style="fill:none;stroke-width:1.5;stroke-linecap:butt;stroke-linejoin:miter;stroke:rgb(0%,0%,0%);stroke-opacity:0.2;stroke-dasharray:10,4;stroke-dashoffset:1;stroke-miterlimit:10;" d="M 151 177 L 209 177 L 209 219 L 151 219 Z M 151 177 "/>
<path style="fill:none;stroke-width:1.5;stroke-linecap:butt;stroke-linejoin:miter;stroke:rgb(0%,0%,0%);stroke-opacity:0.266667;stroke-dasharray:10,4;stroke-dashoffset:1;stroke-miterlimit:10;" d="M 222.75 174.75 L 285.25 174.75 L 285.25 221.25 L 222.75 221.25 Z M 222.75 174.75 "/>
<path style="fill:none;stroke-width:1.5;stroke-linecap:butt;stroke-linejoin:miter;stroke:rgb(0%,0%,0%);stroke-opacity:0.2;stroke-dasharray:10,4;stroke-dashoffset:1;stroke-miterlimit:10;" d="M 225 177 L 283 177 L 283 219 L 225 219 Z M 225 177 "/>
<g clip-path="url(#clip1)" clip-rule="nonzero">
<g clip-path="url(#clip2)" clip-rule="nonzero">
<rect x="0" y="0" width="286" height="222" style="fill:rgb(38.039216%,50.588235%,100%);fill-opacity:0.490196;stroke:none;"/>
<path style="fill:none;stroke-width:2;stroke-linecap:butt;stroke-linejoin:miter;stroke:rgb(38.039216%,50.588235%,100%);stroke-opacity:1;stroke-miterlimit:10;" d="M 1 3 C 1 1.894531 1.894531 1 3 1 L 55 1 C 56.105469 1 57 1.894531 57 3 L 57 39 C 57 40.105469 56.105469 41 55 41 L 3 41 C 1.894531 41 1 40.105469 1 39 Z M 1 3 " transform="matrix(1,0,0,1,3,3)"/>
</g>
</g>
<g clip-path="url(#clip3)" clip-rule="nonzero">
<g clip-path="url(#clip4)" clip-rule="nonzero">
<rect x="0" y="0" width="286" height="222" style="fill:rgb(38.039216%,50.588235%,100%);fill-opacity:0.490196;stroke:none;"/>
<path style="fill:none;stroke-width:2;stroke-linecap:butt;stroke-linejoin:miter;stroke:rgb(38.039216%,50.588235%,100%);stroke-opacity:1;stroke-miterlimit:10;" d="M 1 3 C 1 1.894531 1.894531 1 3 1 L 26 1 C 27.105469 1 28 1.894531 28 3 L 28 39 C 28 40.105469 27.105469 41 26 41 L 3 41 C 1.894531 41 1 40.105469 1 39 Z M 1 3 " transform="matrix(1,0,0,1,106,3)"/>
</g>
</g>
<g clip-path="url(#clip5)" clip-rule="nonzero">
<g clip-path="url(#clip6)" clip-rule="nonzero">
<rect x="0" y="0" width="286" height="222" style="fill:rgb(38.039216%,50.588235%,100%);fill-opacity:0.490196;stroke:none;"/>
<path style="fill:none;stroke-width:2;stroke-linecap:butt;stroke-linejoin:miter;stroke:rgb(38.039216%,50.588235%,100%);stroke-opacity:1;stroke-miterlimit:10;" d="M 1 3 C 1 1.894531 1.894531 1 3 1 L 26 1 C 27.105469 1 28 1.894531 28 3 L 28 39 C 28 40.105469 27.105469 41 26 41 L 3 41 C 1.894531 41 1 40.105469 1 39 Z M 1 3 " transform="matrix(1,0,0,1,77,3)"/>
</g>
</g>
<g clip-path="url(#clip7)" clip-rule="nonzero">
<g clip-path="url(#clip8)" clip-rule="nonzero">
<rect x="0" y="0" width="286" height="222" style="fill:rgb(38.039216%,50.588235%,100%);fill-opacity:0.490196;stroke:none;"/>
<path style="fill:none;stroke-width:2;stroke-linecap:butt;stroke-linejoin:miter;stroke:rgb(38.039216%,50.588235%,100%);stroke-opacity:1;stroke-miterlimit:10;" d="M 1 3 C 1 1.894531 1.894531 1 3 1 L 26 1 C 27.105469 1 28 1.894531 28 3 L 28 18 C 28 19.105469 27.105469 20 26 20 L 3 20 C 1.894531 20 1 19.105469 1 18 Z M 1 3 " transform="matrix(1,0,0,1,180,24)"/>
</g>
</g>
<g clip-path="url(#clip9)" clip-rule="nonzero">
<g clip-path="url(#clip10)" clip-rule="nonzero">
<rect x="0" y="0" width="286" height="222" style="fill:rgb(38.039216%,50.588235%,100%);fill-opacity:0.490196;stroke:none;"/>
<path style="fill:none;stroke-width:2;stroke-linecap:butt;stroke-linejoin:miter;stroke:rgb(38.039216%,50.588235%,100%);stroke-opacity:1;stroke-miterlimit:10;" d="M 1 3 C 1 1.894531 1.894531 1 3 1 L 26 1 C 27.105469 1 28 1.894531 28 3 L 28 18 C 28 19.105469 27.105469 20 26 20 L 3 20 C 1.894531 20 1 19.105469 1 18 Z M 1 3 " transform="matrix(1,0,0,1,180,3)"/>
</g>
</g>
<g clip-path="url(#clip11)" clip-rule="nonzero">
<g clip-path="url(#clip12)" clip-rule="nonzero">
<rect x="0" y="0" width="286" height="222" style="fill:rgb(38.039216%,50.588235%,100%);fill-opacity:0.490196;stroke:none;"/>
<path style="fill:none;stroke-width:2;stroke-linecap:butt;stroke-linejoin:miter;stroke:rgb(38.039216%,50.588235%,100%);stroke-opacity:1;stroke-miterlimit:10;" d="M 1 3 C 1 1.894531 1.894531 1 3 1 L 26 1 C 27.105469 1 28 1.894531 28 3 L 28 39 C 28 40.105469 27.105469 41 26 41 L 3 41 C 1.894531 41 1 40.105469 1 39 Z M 1 3 " transform="matrix(1,0,0,1,151,3)"/>
</g>
</g>
<g clip-path="url(#clip13)" clip-rule="nonzero">
<g clip-path="url(#clip14)" clip-rule="nonzero">
<rect x="0" y="0" width="286" height="222" style="fill:rgb(38.039216%,50.588235%,100%);fill-opacity:0.490196;stroke:none;"/>
<path style="fill:none;stroke-width:2;stroke-linecap:butt;stroke-linejoin:miter;stroke:rgb(38.039216%,50.588235%,100%);stroke-opacity:1;stroke-miterlimit:10;" d="M 1 3 C 1 1.894531 1.894531 1 3 1 L 26 1 C 27.105469 1 28 1.894531 28 3 L 28 11 C 28 12.105469 27.105469 13 26 13 L 3 13 C 1.894531 13 1 12.105469 1 11 Z M 1 3 " transform="matrix(1,0,0,1,254,31)"/>
</g>
</g>
<g clip-path="url(#clip15)" clip-rule="nonzero">
<g clip-path="url(#clip16)" clip-rule="nonzero">
<rect x="0" y="0" width="286" height="222" style="fill:rgb(38.039216%,50.588235%,100%);fill-opacity:0.490196;stroke:none;"/>
<path style="fill:none;stroke-width:2;stroke-linecap:butt;stroke-linejoin:miter;stroke:rgb(38.039216%,50.588235%,100%);stroke-opacity:1;stroke-miterlimit:10;" d="M 1 3 C 1 1.894531 1.894531 1 3 1 L 26 1 C 27.105469 1 28 1.894531 28 3 L 28 11 C 28 12.105469 27.105469 13 26 13 L 3 13 C 1.894531 13 1 12.105469 1 11 Z M 1 3 " transform="matrix(1,0,0,1,254,17)"/>
</g>
</g>
<g clip-path="url(#clip17)" clip-rule="nonzero">
<g clip-path="url(#clip18)" clip-rule="nonzero">
<rect x="0" y="0" width="286" height="222" style="fill:rgb(38.039216%,50.588235%,100%);fill-opacity:0.490196;stroke:none;"/>
<path style="fill:none;stroke-width:2;stroke-linecap:butt;stroke-linejoin:miter;stroke:rgb(38.039216%,50.588235%,100%);stroke-opacity:1;stroke-miterlimit:10;" d="M 1 3 C 1 1.894531 1.894531 1 3 1 L 26 1 C 27.105469 1 28 1.894531 28 3 L 28 11 C 28 12.105469 27.105469 13 26 13 L 3 13 C 1.894531 13 1 12.105469 1 11 Z M 1 3 " transform="matrix(1,0,0,1,254,3)"/>
</g>
</g>
<g clip-path="url(#clip19)" clip-rule="nonzero">
<g clip-path="url(#clip20)" clip-rule="nonzero">
<rect x="0" y="0" width="286" height="222" style="fill:rgb(38.039216%,50.588235%,100%);fill-opacity:0.490196;stroke:none;"/>
<path style="fill:none;stroke-width:2;stroke-linecap:butt;stroke-linejoin:miter;stroke:rgb(38.039216%,50.588235%,100%);stroke-opacity:1;stroke-miterlimit:10;" d="M 1 3 C 1 1.894531 1.894531 1 3 1 L 26 1 C 27.105469 1 28 1.894531 28 3 L 28 39 C 28 40.105469 27.105469 41 26 41 L 3 41 C 1.894531 41 1 40.105469 1 39 Z M 1 3 " transform="matrix(1,0,0,1,225,3)"/>
</g>
</g>
<g clip-path="url(#clip21)" clip-rule="nonzero">
<g clip-path="url(#clip22)" clip-rule="nonzero">
<rect x="0" y="0" width="286" height="222" style="fill:rgb(38.039216%,50.588235%,100%);fill-opacity:0.490196;stroke:none;"/>
<path style="fill:none;stroke-width:2;stroke-linecap:butt;stroke-linejoin:miter;stroke:rgb(38.039216%,50.588235%,100%);stroke-opacity:1;stroke-miterlimit:10;" d="M 1 3 C 1 1.894531 1.894531 1 3 1 L 55 1 C 56.105469 1 57 1.894531 57 3 L 57 39 C 57 40.105469 56.105469 41 55 41 L 3 41 C 1.894531 41 1 40.105469 1 39 Z M 1 3 " transform="matrix(1,0,0,1,3,61)"/>
</g>
</g>
<g clip-path="url(#clip23)" clip-rule="nonzero">
<g clip-path="url(#clip24)" clip-rule="nonzero">
<rect x="0" y="0" width="286" height="222" style="fill:rgb(38.039216%,50.588235%,100%);fill-opacity:0.490196;stroke:none;"/>
<path style="fill:none;stroke-width:2;stroke-linecap:butt;stroke-linejoin:miter;stroke:rgb(38.039216%,50.588235%,100%);stroke-opacity:1;stroke-miterlimit:10;" d="M 1 3 C 1 1.894531 1.894531 1 3 1 L 55 1 C 56.105469 1 57 1.894531 57 3 L 57 18 C 57 19.105469 56.105469 20 55 20 L 3 20 C 1.894531 20 1 19.105469 1 18 Z M 1 3 " transform="matrix(1,0,0,1,77,61)"/>
</g>
</g>
<g clip-path="url(#clip25)" clip-rule="nonzero">
<g clip-path="url(#clip26)" clip-rule="nonzero">
<rect x="0" y="0" width="286" height="222" style="fill:rgb(38.039216%,50.588235%,100%);fill-opacity:0.490196;stroke:none;"/>
<path style="fill:none;stroke-width:2;stroke-linecap:butt;stroke-linejoin:miter;stroke:rgb(38.039216%,50.588235%,100%);stroke-opacity:1;stroke-miterlimit:10;" d="M 1 3 C 1 1.894531 1.894531 1 3 1 L 55 1 C 56.105469 1 57 1.894531 57 3 L 57 18 C 57 19.105469 56.105469 20 55 20 L 3 20 C 1.894531 20 1 19.105469 1 18 Z M 1 3 " transform="matrix(1,0,0,1,77,82)"/>
</g>
</g>
<g clip-path="url(#clip27)" clip-rule="nonzero">
<g clip-path="url(#clip28)" clip-rule="nonzero">
<rect x="0" y="0" width="286" height="222" style="fill:rgb(38.039216%,50.588235%,100%);fill-opacity:0.490196;stroke:none;"/>
<path style="fill:none;stroke-width:2;stroke-linecap:butt;stroke-linejoin:miter;stroke:rgb(38.039216%,50.588235%,100%);stroke-opacity:1;stroke-miterlimit:10;" d="M 1 3 C 1 1.894531 1.894531 1 3 1 L 26 1 C 27.105469 1 28 1.894531 28 3 L 28 18 C 28 19.105469 27.105469 20 26 20 L 3 20 C 1.894531 20 1 19.105469 1 18 Z M 1 3 " transform="matrix(1,0,0,1,151,61)"/>
</g>
</g>
<g clip-path="url(#clip29)" clip-rule="nonzero">
<g clip-path="url(#clip30)" clip-rule="nonzero">
<rect x="0" y="0" width="286" height="222" style="fill:rgb(38.039216%,50.588235%,100%);fill-opacity:0.490196;stroke:none;"/>
<path style="fill:none;stroke-width:2;stroke-linecap:butt;stroke-linejoin:miter;stroke:rgb(38.039216%,50.588235%,100%);stroke-opacity:1;stroke-miterlimit:10;" d="M 1 3 C 1 1.894531 1.894531 1 3 1 L 26 1 C 27.105469 1 28 1.894531 28 3 L 28 18 C 28 19.105469 27.105469 20 26 20 L 3 20 C 1.894531 20 1 19.105469 1 18 Z M 1 3 " transform="matrix(1,0,0,1,151,82)"/>
</g>
</g>
<g clip-path="url(#clip31)" clip-rule="nonzero">
<g clip-path="url(#clip32)" clip-rule="nonzero">
<rect x="0" y="0" width="286" height="222" style="fill:rgb(38.039216%,50.588235%,100%);fill-opacity:0.490196;stroke:none;"/>
<path style="fill:none;stroke-width:2;stroke-linecap:butt;stroke-linejoin:miter;stroke:rgb(38.039216%,50.588235%,100%);stroke-opacity:1;stroke-miterlimit:10;" d="M 1 3 C 1 1.894531 1.894531 1 3 1 L 26 1 C 27.105469 1 28 1.894531 28 3 L 28 39 C 28 40.105469 27.105469 41 26 41 L 3 41 C 1.894531 41 1 40.105469 1 39 Z M 1 3 " transform="matrix(1,0,0,1,180,61)"/>
</g>
</g>
<g clip-path="url(#clip33)" clip-rule="nonzero">
<g clip-path="url(#clip34)" clip-rule="nonzero">
<rect x="0" y="0" width="286" height="222" style="fill:rgb(38.039216%,50.588235%,100%);fill-opacity:0.490196;stroke:none;"/>
<path style="fill:none;stroke-width:2;stroke-linecap:butt;stroke-linejoin:miter;stroke:rgb(38.039216%,50.588235%,100%);stroke-opacity:1;stroke-miterlimit:10;" d="M 1 3 C 1 1.894531 1.894531 1 3 1 L 26 1 C 27.105469 1 28 1.894531 28 3 L 28 11 C 28 12.105469 27.105469 13 26 13 L 3 13 C 1.894531 13 1 12.105469 1 11 Z M 1 3 " transform="matrix(1,0,0,1,225,75)"/>
</g>
</g>
<g clip-path="url(#clip35)" clip-rule="nonzero">
<g clip-path="url(#clip36)" clip-rule="nonzero">
<rect x="0" y="0" width="286" height="222" style="fill:rgb(38.039216%,50.588235%,100%);fill-opacity:0.490196;stroke:none;"/>
<path style="fill:none;stroke-width:2;stroke-linecap:butt;stroke-linejoin:miter;stroke:rgb(38.039216%,50.588235%,100%);stroke-opacity:1;stroke-miterlimit:10;" d="M 1 3 C 1 1.894531 1.894531 1 3 1 L 26 1 C 27.105469 1 28 1.894531 28 3 L 28 11 C 28 12.105469 27.105469 13 26 13 L 3 13 C 1.894531 13 1 12.105469 1 11 Z M 1 3 " transform="matrix(1,0,0,1,225,89)"/>
</g>
</g>
<g clip-path="url(#clip37)" clip-rule="nonzero">
<g clip-path="url(#clip38)" clip-rule="nonzero">
<rect x="0" y="0" width="286" height="222" style="fill:rgb(38.039216%,50.588235%,100%);fill-opacity:0.490196;stroke:none;"/>
<path style="fill:none;stroke-width:2;stroke-linecap:butt;stroke-linejoin:miter;stroke:rgb(38.039216%,50.588235%,100%);stroke-opacity:1;stroke-miterlimit:10;" d="M 1 3 C 1 1.894531 1.894531 1 3 1 L 26 1 C 27.105469 1 28 1.894531 28 3 L 28 11 C 28 12.105469 27.105469 13 26 13 L 3 13 C 1.894531 13 1 12.105469 1 11 Z M 1 3 " transform="matrix(1,0,0,1,225,61)"/>
</g>
</g>
<g clip-path="url(#clip39)" clip-rule="nonzero">
<g clip-path="url(#clip40)" clip-rule="nonzero">
<rect x="0" y="0" width="286" height="222" style="fill:rgb(38.039216%,50.588235%,100%);fill-opacity:0.490196;stroke:none;"/>
<path style="fill:none;stroke-width:2;stroke-linecap:butt;stroke-linejoin:miter;stroke:rgb(38.039216%,50.588235%,100%);stroke-opacity:1;stroke-miterlimit:10;" d="M 1 3 C 1 1.894531 1.894531 1 3 1 L 26 1 C 27.105469 1 28 1.894531 28 3 L 28 39 C 28 40.105469 27.105469 41 26 41 L 3 41 C 1.894531 41 1 40.105469 1 39 Z M 1 3 " transform="matrix(1,0,0,1,254,61)"/>
</g>
</g>
<g clip-path="url(#clip41)" clip-rule="nonzero">
<g clip-path="url(#clip42)" clip-rule="nonzero">
<rect x="0" y="0" width="286" height="222" style="fill:rgb(38.039216%,50.588235%,100%);fill-opacity:0.490196;stroke:none;"/>
<path style="fill:none;stroke-width:2;stroke-linecap:butt;stroke-linejoin:miter;stroke:rgb(38.039216%,50.588235%,100%);stroke-opacity:1;stroke-miterlimit:10;" d="M 1 3 C 1 1.894531 1.894531 1 3 1 L 55 1 C 56.105469 1 57 1.894531 57 3 L 57 39 C 57 40.105469 56.105469 41 55 41 L 3 41 C 1.894531 41 1 40.105469 1 39 Z M 1 3 " transform="matrix(1,0,0,1,3,119)"/>
</g>
</g>
<g clip-path="url(#clip43)" clip-rule="nonzero">
<g clip-path="url(#clip44)" clip-rule="nonzero">
<rect x="0" y="0" width="286" height="222" style="fill:rgb(38.039216%,50.588235%,100%);fill-opacity:0.490196;stroke:none;"/>
<path style="fill:none;stroke-width:2;stroke-linecap:butt;stroke-linejoin:miter;stroke:rgb(38.039216%,50.588235%,100%);stroke-opacity:1;stroke-miterlimit:10;" d="M 1 3 C 1 1.894531 1.894531 1 3 1 L 26 1 C 27.105469 1 28 1.894531 28 3 L 28 39 C 28 40.105469 27.105469 41 26 41 L 3 41 C 1.894531 41 1 40.105469 1 39 Z M 1 3 " transform="matrix(1,0,0,1,77,119)"/>
</g>
</g>
<g clip-path="url(#clip45)" clip-rule="nonzero">
<g clip-path="url(#clip46)" clip-rule="nonzero">
<rect x="0" y="0" width="286" height="222" style="fill:rgb(38.039216%,50.588235%,100%);fill-opacity:0.490196;stroke:none;"/>
<path style="fill:none;stroke-width:2;stroke-linecap:butt;stroke-linejoin:miter;stroke:rgb(38.039216%,50.588235%,100%);stroke-opacity:1;stroke-miterlimit:10;" d="M 1 3 C 1 1.894531 1.894531 1 3 1 L 26 1 C 27.105469 1 28 1.894531 28 3 L 28 39 C 28 40.105469 27.105469 41 26 41 L 3 41 C 1.894531 41 1 40.105469 1 39 Z M 1 3 " transform="matrix(1,0,0,1,106,119)"/>
</g>
</g>
<g clip-path="url(#clip47)" clip-rule="nonzero">
<g clip-path="url(#clip48)" clip-rule="nonzero">
<rect x="0" y="0" width="286" height="222" style="fill:rgb(38.039216%,50.588235%,100%);fill-opacity:0.490196;stroke:none;"/>
<path style="fill:none;stroke-width:2;stroke-linecap:butt;stroke-linejoin:miter;stroke:rgb(38.039216%,50.588235%,100%);stroke-opacity:1;stroke-miterlimit:10;" d="M 1 3 C 1 1.894531 1.894531 1 3 1 L 26 1 C 27.105469 1 28 1.894531 28 3 L 28 18 C 28 19.105469 27.105469 20 26 20 L 3 20 C 1.894531 20 1 19.105469 1 18 Z M 1 3 " transform="matrix(1,0,0,1,151,119)"/>
</g>
</g>
<g clip-path="url(#clip49)" clip-rule="nonzero">
<g clip-path="url(#clip50)" clip-rule="nonzero">
<rect x="0" y="0" width="286" height="222" style="fill:rgb(38.039216%,50.588235%,100%);fill-opacity:0.490196;stroke:none;"/>
<path style="fill:none;stroke-width:2;stroke-linecap:butt;stroke-linejoin:miter;stroke:rgb(38.039216%,50.588235%,100%);stroke-opacity:1;stroke-miterlimit:10;" d="M 1 3 C 1 1.894531 1.894531 1 3 1 L 26 1 C 27.105469 1 28 1.894531 28 3 L 28 18 C 28 19.105469 27.105469 20 26 20 L 3 20 C 1.894531 20 1 19.105469 1 18 Z M 1 3 " transform="matrix(1,0,0,1,180,119)"/>
</g>
</g>
<g clip-path="url(#clip51)" clip-rule="nonzero">
<g clip-path="url(#clip52)" clip-rule="nonzero">
<rect x="0" y="0" width="286" height="222" style="fill:rgb(38.039216%,50.588235%,100%);fill-opacity:0.490196;stroke:none;"/>
<path style="fill:none;stroke-width:2;stroke-linecap:butt;stroke-linejoin:miter;stroke:rgb(38.039216%,50.588235%,100%);stroke-opacity:1;stroke-miterlimit:10;" d="M 1 3 C 1 1.894531 1.894531 1 3 1 L 55 1 C 56.105469 1 57 1.894531 57 3 L 57 18 C 57 19.105469 56.105469 20 55 20 L 3 20 C 1.894531 20 1 19.105469 1 18 Z M 1 3 " transform="matrix(1,0,0,1,151,140)"/>
</g>
</g>
<g clip-path="url(#clip53)" clip-rule="nonzero">
<g clip-path="url(#clip54)" clip-rule="nonzero">
<rect x="0" y="0" width="286" height="222" style="fill:rgb(38.039216%,50.588235%,100%);fill-opacity:0.490196;stroke:none;"/>
<path style="fill:none;stroke-width:2;stroke-linecap:butt;stroke-linejoin:miter;stroke:rgb(38.039216%,50.588235%,100%);stroke-opacity:1;stroke-miterlimit:10;" d="M 1 3 C 1 1.894531 1.894531 1 3 1 L 16 1 C 17.105469 1 18 1.894531 18 3 L 18 18 C 18 19.105469 17.105469 20 16 20 L 3 20 C 1.894531 20 1 19.105469 1 18 Z M 1 3 " transform="matrix(1,0,0,1,244,119)"/>
</g>
</g>
<g clip-path="url(#clip55)" clip-rule="nonzero">
<g clip-path="url(#clip56)" clip-rule="nonzero">
<rect x="0" y="0" width="286" height="222" style="fill:rgb(38.039216%,50.588235%,100%);fill-opacity:0.490196;stroke:none;"/>
<path style="fill:none;stroke-width:2;stroke-linecap:butt;stroke-linejoin:miter;stroke:rgb(38.039216%,50.588235%,100%);stroke-opacity:1;stroke-miterlimit:10;" d="M 1 3 C 1 1.894531 1.894531 1 3 1 L 16 1 C 17.105469 1 18 1.894531 18 3 L 18 18 C 18 19.105469 17.105469 20 16 20 L 3 20 C 1.894531 20 1 19.105469 1 18 Z M 1 3 " transform="matrix(1,0,0,1,263,119)"/>
</g>
</g>
<g clip-path="url(#clip57)" clip-rule="nonzero">
<g clip-path="url(#clip58)" clip-rule="nonzero">
<rect x="0" y="0" width="286" height="222" style="fill:rgb(38.039216%,50.588235%,100%);fill-opacity:0.490196;stroke:none;"/>
<path style="fill:none;stroke-width:2;stroke-linecap:butt;stroke-linejoin:miter;stroke:rgb(38.039216%,50.588235%,100%);stroke-opacity:1;stroke-miterlimit:10;" d="M 1 3 C 1 1.894531 1.894531 1 3 1 L 16 1 C 17.105469 1 18 1.894531 18 3 L 18 18 C 18 19.105469 17.105469 20 16 20 L 3 20 C 1.894531 20 1 19.105469 1 18 Z M 1 3 " transform="matrix(1,0,0,1,225,119)"/>
</g>
</g>
<g clip-path="url(#clip59)" clip-rule="nonzero">
<g clip-path="url(#clip60)" clip-rule="nonzero">
<rect x="0" y="0" width="286" height="222" style="fill:rgb(38.039216%,50.588235%,100%);fill-opacity:0.490196;stroke:none;"/>
<path style="fill:none;stroke-width:2;stroke-linecap:butt;stroke-linejoin:miter;stroke:rgb(38.039216%,50.588235%,100%);stroke-opacity:1;stroke-miterlimit:10;" d="M 1 3 C 1 1.894531 1.894531 1 3 1 L 55 1 C 56.105469 1 57 1.894531 57 3 L 57 18 C 57 19.105469 56.105469 20 55 20 L 3 20 C 1.894531 20 1 19.105469 1 18 Z M 1 3 " transform="matrix(1,0,0,1,225,140)"/>
</g>
</g>
<g clip-path="url(#clip61)" clip-rule="nonzero">
<g clip-path="url(#clip62)" clip-rule="nonzero">
<rect x="0" y="0" width="286" height="222" style="fill:rgb(38.039216%,50.588235%,100%);fill-opacity:0.490196;stroke:none;"/>
<path style="fill:none;stroke-width:2;stroke-linecap:butt;stroke-linejoin:miter;stroke:rgb(38.039216%,50.588235%,100%);stroke-opacity:1;stroke-miterlimit:10;" d="M 1 3 C 1 1.894531 1.894531 1 3 1 L 55 1 C 56.105469 1 57 1.894531 57 3 L 57 39 C 57 40.105469 56.105469 41 55 41 L 3 41 C 1.894531 41 1 40.105469 1 39 Z M 1 3 " transform="matrix(1,0,0,1,3,177)"/>
</g>
</g>
<g clip-path="url(#clip63)" clip-rule="nonzero">
<g clip-path="url(#clip64)" clip-rule="nonzero">
<rect x="0" y="0" width="286" height="222" style="fill:rgb(38.039216%,50.588235%,100%);fill-opacity:0.490196;stroke:none;"/>
<path style="fill:none;stroke-width:2;stroke-linecap:butt;stroke-linejoin:miter;stroke:rgb(38.039216%,50.588235%,100%);stroke-opacity:1;stroke-miterlimit:10;" d="M 1 3 C 1 1.894531 1.894531 1 3 1 L 55 1 C 56.105469 1 57 1.894531 57 3 L 57 18 C 57 19.105469 56.105469 20 55 20 L 3 20 C 1.894531 20 1 19.105469 1 18 Z M 1 3 " transform="matrix(1,0,0,1,77,198)"/>
</g>
</g>
<g clip-path="url(#clip65)" clip-rule="nonzero">
<g clip-path="url(#clip66)" clip-rule="nonzero">
<rect x="0" y="0" width="286" height="222" style="fill:rgb(38.039216%,50.588235%,100%);fill-opacity:0.490196;stroke:none;"/>
<path style="fill:none;stroke-width:2;stroke-linecap:butt;stroke-linejoin:miter;stroke:rgb(38.039216%,50.588235%,100%);stroke-opacity:1;stroke-miterlimit:10;" d="M 1 3 C 1 1.894531 1.894531 1 3 1 L 55 1 C 56.105469 1 57 1.894531 57 3 L 57 18 C 57 19.105469 56.105469 20 55 20 L 3 20 C 1.894531 20 1 19.105469 1 18 Z M 1 3 " transform="matrix(1,0,0,1,77,177)"/>
</g>
</g>
<g clip-path="url(#clip67)" clip-rule="nonzero">
<g clip-path="url(#clip68)" clip-rule="nonzero">
<rect x="0" y="0" width="286" height="222" style="fill:rgb(38.039216%,50.588235%,100%);fill-opacity:0.490196;stroke:none;"/>
<path style="fill:none;stroke-width:2;stroke-linecap:butt;stroke-linejoin:miter;stroke:rgb(38.039216%,50.588235%,100%);stroke-opacity:1;stroke-miterlimit:10;" d="M 1 3 C 1 1.894531 1.894531 1 3 1 L 26 1 C 27.105469 1 28 1.894531 28 3 L 28 18 C 28 19.105469 27.105469 20 26 20 L 3 20 C 1.894531 20 1 19.105469 1 18 Z M 1 3 " transform="matrix(1,0,0,1,180,198)"/>
</g>
</g>
<g clip-path="url(#clip69)" clip-rule="nonzero">
<g clip-path="url(#clip70)" clip-rule="nonzero">
<rect x="0" y="0" width="286" height="222" style="fill:rgb(38.039216%,50.588235%,100%);fill-opacity:0.490196;stroke:none;"/>
<path style="fill:none;stroke-width:2;stroke-linecap:butt;stroke-linejoin:miter;stroke:rgb(38.039216%,50.588235%,100%);stroke-opacity:1;stroke-miterlimit:10;" d="M 1 3 C 1 1.894531 1.894531 1 3 1 L 26 1 C 27.105469 1 28 1.894531 28 3 L 28 18 C 28 19.105469 27.105469 20 26 20 L 3 20 C 1.894531 20 1 19.105469 1 18 Z M 1 3 " transform="matrix(1,0,0,1,151,198)"/>
</g>
</g>
<g clip-path="url(#clip71)" clip-rule="nonzero">
<g clip-path="url(#clip72)" clip-rule="nonzero">
<rect x="0" y="0" width="286" height="222" style="fill:rgb(38.039216%,50.588235%,100%);fill-opacity:0.490196;stroke:none;"/>
<path style="fill:none;stroke-width:2;stroke-linecap:butt;stroke-linejoin:miter;stroke:rgb(38.039216%,50.588235%,100%);stroke-opacity:1;stroke-miterlimit:10;" d="M 1 3 C 1 1.894531 1.894531 1 3 1 L 55 1 C 56.105469 1 57 1.894531 57 3 L 57 18 C 57 19.105469 56.105469 20 55 20 L 3 20 C 1.894531 20 1 19.105469 1 18 Z M 1 3 " transform="matrix(1,0,0,1,151,177)"/>
</g>
</g>
<g clip-path="url(#clip73)" clip-rule="nonzero">
<g clip-path="url(#clip74)" clip-rule="nonzero">
<rect x="0" y="0" width="286" height="222" style="fill:rgb(38.039216%,50.588235%,100%);fill-opacity:0.490196;stroke:none;"/>
<path style="fill:none;stroke-width:2;stroke-linecap:butt;stroke-linejoin:miter;stroke:rgb(38.039216%,50.588235%,100%);stroke-opacity:1;stroke-miterlimit:10;" d="M 1 3 C 1 1.894531 1.894531 1 3 1 L 16 1 C 17.105469 1 18 1.894531 18 3 L 18 18 C 18 19.105469 17.105469 20 16 20 L 3 20 C 1.894531 20 1 19.105469 1 18 Z M 1 3 " transform="matrix(1,0,0,1,263,198)"/>
</g>
</g>
<g clip-path="url(#clip75)" clip-rule="nonzero">
<g clip-path="url(#clip76)" clip-rule="nonzero">
<rect x="0" y="0" width="286" height="222" style="fill:rgb(38.039216%,50.588235%,100%);fill-opacity:0.490196;stroke:none;"/>
<path style="fill:none;stroke-width:2;stroke-linecap:butt;stroke-linejoin:miter;stroke:rgb(38.039216%,50.588235%,100%);stroke-opacity:1;stroke-miterlimit:10;" d="M 1 3 C 1 1.894531 1.894531 1 3 1 L 16 1 C 17.105469 1 18 1.894531 18 3 L 18 18 C 18 19.105469 17.105469 20 16 20 L 3 20 C 1.894531 20 1 19.105469 1 18 Z M 1 3 " transform="matrix(1,0,0,1,244,198)"/>
</g>
</g>
<g clip-path="url(#clip77)" clip-rule="nonzero">
<g clip-path="url(#clip78)" clip-rule="nonzero">
<rect x="0" y="0" width="286" height="222" style="fill:rgb(38.039216%,50.588235%,100%);fill-opacity:0.490196;stroke:none;"/>
<path style="fill:none;stroke-width:2;stroke-linecap:butt;stroke-linejoin:miter;stroke:rgb(38.039216%,50.588235%,100%);stroke-opacity:1;stroke-miterlimit:10;" d="M 1 3 C 1 1.894531 1.894531 1 3 1 L 16 1 C 17.105469 1 18 1.894531 18 3 L 18 18 C 18 19.105469 17.105469 20 16 20 L 3 20 C 1.894531 20 1 19.105469 1 18 Z M 1 3 " transform="matrix(1,0,0,1,225,198)"/>
</g>
</g>
<g clip-path="url(#clip79)" clip-rule="nonzero">
<g clip-path="url(#clip80)" clip-rule="nonzero">
<rect x="0" y="0" width="286" height="222" style="fill:rgb(38.039216%,50.588235%,100%);fill-opacity:0.490196;stroke:none;"/>
<path style="fill:none;stroke-width:2;stroke-linecap:butt;stroke-linejoin:miter;stroke:rgb(38.039216%,50.588235%,100%);stroke-opacity:1;stroke-miterlimit:10;" d="M 1 3 C 1 1.894531 1.894531 1 3 1 L 55 1 C 56.105469 1 57 1.894531 57 3 L 57 18 C 57 19.105469 56.105469 20 55 20 L 3 20 C 1.894531 20 1 19.105469 1 18 Z M 1 3 " transform="matrix(1,0,0,1,225,177)"/>
</g>
</g>
</g>
</svg>
