<?xml version="1.0" encoding="UTF-8"?>
<svg xmlns="http://www.w3.org/2000/svg" xmlns:xlink="http://www.w3.org/1999/xlink" width="160pt" height="200pt" viewBox="0 0 160 200" version="1.1">
<g id="surface2">
<path style="fill:none;stroke-width:2;stroke-linecap:butt;stroke-linejoin:miter;stroke:rgb(0%,0%,0%);stroke-opacity:1;stroke-miterlimit:10;" d="M 70 40 L 70 26.667969 M 90 26.667969 L 90 40 " transform="matrix(1,0,0,1,3,3)"/>
<path style="fill:none;stroke-width:2;stroke-linecap:butt;stroke-linejoin:miter;stroke:rgb(0%,0%,0%);stroke-opacity:1;stroke-miterlimit:10;" d="M 0 2.001302 C 0 0.895833 0.894531 0.00130208 2 0.00130208 L 28 0.00130208 C 29.105469 0.00130208 30 0.895833 30 2.001302 C 30 3.102865 29.105469 4.001302 28 4.001302 L 2 4.001302 C 0.894531 4.001302 0 3.102865 0 2.001302 Z M 0 2.001302 " transform="matrix(1,0,0,1,68,25.666667)"/>
<path style="fill:none;stroke-width:2;stroke-linecap:butt;stroke-linejoin:miter;stroke:rgb(0%,0%,0%);stroke-opacity:1;stroke-miterlimit:10;" d="M 156 76 C 156 117.972656 121.972656 152 80 152 C 38.027344 152 4 117.972656 4 76 C 4 34.027344 38.027344 0 80 0 C 121.972656 0 156 34.027344 156 76 " transform="matrix(1,0,0,1,3,43)"/>
<path style=" stroke:none;fill-rule:nonzero;fill:rgb(0%,0%,0%);fill-opacity:1;" d="M 87 119 C 87 124.332031 79 124.332031 79 119 C 79 113.667969 87 113.667969 87 119 "/>
<path style="fill:none;stroke-width:2;stroke-linecap:butt;stroke-linejoin:miter;stroke:rgb(0%,0%,0%);stroke-opacity:1;stroke-miterlimit:10;" d="M 80 76 L 10 76 " transform="matrix(1,0,0,1,3,43)"/>
<path style="fill:none;stroke-width:2;stroke-linecap:butt;stroke-linejoin:miter;stroke:rgb(0%,0%,0%);stroke-opacity:1;stroke-miterlimit:10;" d="M 80 0 L 80 10 " transform="matrix(1,0,0,1,3,43)"/>
<path style="fill:none;stroke-width:2;stroke-linecap:butt;stroke-linejoin:miter;stroke:rgb(0%,0%,0%);stroke-opacity:1;stroke-miterlimit:10;" d="M 146 80 L 160 80 " transform="matrix(1,0,0,1,3,43)"/>
<path style="fill:none;stroke-width:2;stroke-linecap:butt;stroke-linejoin:miter;stroke:rgb(0%,0%,0%);stroke-opacity:1;stroke-miterlimit:10;" d="M 4 80 L 14 80 " transform="matrix(1,0,0,1,3,43)"/>
<path style="fill:none;stroke-width:2;stroke-linecap:butt;stroke-linejoin:miter;stroke:rgb(0%,0%,0%);stroke-opacity:1;stroke-miterlimit:10;" d="M 80 156 L 80 146 " transform="matrix(1,0,0,1,3,43)"/>
</g>
</svg>
