<?xml version="1.0" encoding="UTF-8"?>
<svg xmlns="http://www.w3.org/2000/svg" xmlns:xlink="http://www.w3.org/1999/xlink" width="360pt" height="48pt" viewBox="0 0 360 48" version="1.1">
<defs>
<clipPath id="clip1">
  <path d="M 4 4 L 60 4 L 60 44 L 4 44 Z M 4 4 "/>
</clipPath>
<clipPath id="clip2">
  <path d="M 4 6 C 4 4.894531 4.894531 4 6 4 L 57.667969 4 C 58.769531 4 59.667969 4.894531 59.667969 6 L 59.667969 42 C 59.667969 43.105469 58.769531 44 57.667969 44 L 6 44 C 4.894531 44 4 43.105469 4 42 Z M 4 6 "/>
</clipPath>
<clipPath id="clip3">
  <path d="M 78 4 L 105 4 L 105 44 L 78 44 Z M 78 4 "/>
</clipPath>
<clipPath id="clip4">
  <path d="M 78 6 C 78 4.894531 78.894531 4 80 4 L 102.667969 4 C 103.769531 4 104.667969 4.894531 104.667969 6 L 104.667969 42 C 104.667969 43.105469 103.769531 44 102.667969 44 L 80 44 C 78.894531 44 78 43.105469 78 42 Z M 78 6 "/>
</clipPath>
<clipPath id="clip5">
  <path d="M 106 4 L 134 4 L 134 44 L 106 44 Z M 106 4 "/>
</clipPath>
<clipPath id="clip6">
  <path d="M 106.667969 6 C 106.667969 4.894531 107.5625 4 108.667969 4 L 131.332031 4 C 132.4375 4 133.332031 4.894531 133.332031 6 L 133.332031 42 C 133.332031 43.105469 132.4375 44 131.332031 44 L 108.667969 44 C 107.5625 44 106.667969 43.105469 106.667969 42 Z M 106.667969 6 "/>
</clipPath>
<clipPath id="clip7">
  <path d="M 152 4 L 179 4 L 179 44 L 152 44 Z M 152 4 "/>
</clipPath>
<clipPath id="clip8">
  <path d="M 152 6 C 152 4.894531 152.894531 4 154 4 L 176.667969 4 C 177.769531 4 178.667969 4.894531 178.667969 6 L 178.667969 42 C 178.667969 43.105469 177.769531 44 176.667969 44 L 154 44 C 152.894531 44 152 43.105469 152 42 Z M 152 6 "/>
</clipPath>
<clipPath id="clip9">
  <path d="M 180 4 L 208 4 L 208 23 L 180 23 Z M 180 4 "/>
</clipPath>
<clipPath id="clip10">
  <path d="M 180.667969 6 C 180.667969 4.894531 181.5625 4 182.667969 4 L 205.332031 4 C 206.4375 4 207.332031 4.894531 207.332031 6 L 207.332031 21 C 207.332031 22.105469 206.4375 23 205.332031 23 L 182.667969 23 C 181.5625 23 180.667969 22.105469 180.667969 21 Z M 180.667969 6 "/>
</clipPath>
<clipPath id="clip11">
  <path d="M 180 25 L 208 25 L 208 44 L 180 44 Z M 180 25 "/>
</clipPath>
<clipPath id="clip12">
  <path d="M 180.667969 27 C 180.667969 25.894531 181.5625 25 182.667969 25 L 205.332031 25 C 206.4375 25 207.332031 25.894531 207.332031 27 L 207.332031 42 C 207.332031 43.105469 206.4375 44 205.332031 44 L 182.667969 44 C 181.5625 44 180.667969 43.105469 180.667969 42 Z M 180.667969 27 "/>
</clipPath>
<clipPath id="clip13">
  <path d="M 226 4 L 243 4 L 243 44 L 226 44 Z M 226 4 "/>
</clipPath>
<clipPath id="clip14">
  <path d="M 226 6 C 226 4.894531 226.894531 4 228 4 L 241 4 C 242.105469 4 243 4.894531 243 6 L 243 42 C 243 43.105469 242.105469 44 241 44 L 228 44 C 226.894531 44 226 43.105469 226 42 Z M 226 6 "/>
</clipPath>
<clipPath id="clip15">
  <path d="M 245 4 L 262 4 L 262 23 L 245 23 Z M 245 4 "/>
</clipPath>
<clipPath id="clip16">
  <path d="M 245 6 C 245 4.894531 245.894531 4 247 4 L 260 4 C 261.105469 4 262 4.894531 262 6 L 262 21 C 262 22.105469 261.105469 23 260 23 L 247 23 C 245.894531 23 245 22.105469 245 21 Z M 245 6 "/>
</clipPath>
<clipPath id="clip17">
  <path d="M 245 25 L 262 25 L 262 44 L 245 44 Z M 245 25 "/>
</clipPath>
<clipPath id="clip18">
  <path d="M 245 27 C 245 25.894531 245.894531 25 247 25 L 260 25 C 261.105469 25 262 25.894531 262 27 L 262 42 C 262 43.105469 261.105469 44 260 44 L 247 44 C 245.894531 44 245 43.105469 245 42 Z M 245 27 "/>
</clipPath>
<clipPath id="clip19">
  <path d="M 264 4 L 281 4 L 281 44 L 264 44 Z M 264 4 "/>
</clipPath>
<clipPath id="clip20">
  <path d="M 264 6 C 264 4.894531 264.894531 4 266 4 L 279 4 C 280.105469 4 281 4.894531 281 6 L 281 42 C 281 43.105469 280.105469 44 279 44 L 266 44 C 264.894531 44 264 43.105469 264 42 Z M 264 6 "/>
</clipPath>
<clipPath id="clip21">
  <path d="M 300 4 L 317 4 L 317 44 L 300 44 Z M 300 4 "/>
</clipPath>
<clipPath id="clip22">
  <path d="M 300 6 C 300 4.894531 300.894531 4 302 4 L 315 4 C 316.105469 4 317 4.894531 317 6 L 317 42 C 317 43.105469 316.105469 44 315 44 L 302 44 C 300.894531 44 300 43.105469 300 42 Z M 300 6 "/>
</clipPath>
<clipPath id="clip23">
  <path d="M 319 4 L 336 4 L 336 23 L 319 23 Z M 319 4 "/>
</clipPath>
<clipPath id="clip24">
  <path d="M 319 6 C 319 4.894531 319.894531 4 321 4 L 334 4 C 335.105469 4 336 4.894531 336 6 L 336 21 C 336 22.105469 335.105469 23 334 23 L 321 23 C 319.894531 23 319 22.105469 319 21 Z M 319 6 "/>
</clipPath>
<clipPath id="clip25">
  <path d="M 319 25 L 336 25 L 336 44 L 319 44 Z M 319 25 "/>
</clipPath>
<clipPath id="clip26">
  <path d="M 319 27 C 319 25.894531 319.894531 25 321 25 L 334 25 C 335.105469 25 336 25.894531 336 27 L 336 42 C 336 43.105469 335.105469 44 334 44 L 321 44 C 319.894531 44 319 43.105469 319 42 Z M 319 27 "/>
</clipPath>
<clipPath id="clip27">
  <path d="M 338 4 L 355 4 L 355 23 L 338 23 Z M 338 4 "/>
</clipPath>
<clipPath id="clip28">
  <path d="M 338 6 C 338 4.894531 338.894531 4 340 4 L 353 4 C 354.105469 4 355 4.894531 355 6 L 355 21 C 355 22.105469 354.105469 23 353 23 L 340 23 C 338.894531 23 338 22.105469 338 21 Z M 338 6 "/>
</clipPath>
<clipPath id="clip29">
  <path d="M 338 25 L 355 25 L 355 44 L 338 44 Z M 338 25 "/>
</clipPath>
<clipPath id="clip30">
  <path d="M 338 27 C 338 25.894531 338.894531 25 340 25 L 353 25 C 354.105469 25 355 25.894531 355 27 L 355 42 C 355 43.105469 354.105469 44 353 44 L 340 44 C 338.894531 44 338 43.105469 338 42 Z M 338 27 "/>
</clipPath>
</defs>
<g id="surface2">
<path style="fill:none;stroke-width:1.5;stroke-linecap:butt;stroke-linejoin:miter;stroke:rgb(0%,0%,0%);stroke-opacity:0.266667;stroke-dasharray:10,4;stroke-dashoffset:1;stroke-miterlimit:10;" d="M 0.75 0.75 L 63.25 0.75 L 63.25 47.25 L 0.75 47.25 Z M 0.75 0.75 "/>
<path style="fill:none;stroke-width:1.5;stroke-linecap:butt;stroke-linejoin:miter;stroke:rgb(0%,0%,0%);stroke-opacity:0.2;stroke-dasharray:10,4;stroke-dashoffset:1;stroke-miterlimit:10;" d="M 3 3 L 61 3 L 61 45 L 3 45 Z M 3 3 "/>
<path style="fill:none;stroke-width:1.5;stroke-linecap:butt;stroke-linejoin:miter;stroke:rgb(0%,0%,0%);stroke-opacity:0.266667;stroke-dasharray:10,4;stroke-dashoffset:1;stroke-miterlimit:10;" d="M 74.75 0.75 L 137.25 0.75 L 137.25 47.25 L 74.75 47.25 Z M 74.75 0.75 "/>
<path style="fill:none;stroke-width:1.5;stroke-linecap:butt;stroke-linejoin:miter;stroke:rgb(0%,0%,0%);stroke-opacity:0.2;stroke-dasharray:10,4;stroke-dashoffset:1;stroke-miterlimit:10;" d="M 77 3 L 135 3 L 135 45 L 77 45 Z M 77 3 "/>
<path style="fill:none;stroke-width:1.5;stroke-linecap:butt;stroke-linejoin:miter;stroke:rgb(0%,0%,0%);stroke-opacity:0.266667;stroke-dasharray:10,4;stroke-dashoffset:1;stroke-miterlimit:10;" d="M 148.75 0.75 L 211.25 0.75 L 211.25 47.25 L 148.75 47.25 Z M 148.75 0.75 "/>
<path style="fill:none;stroke-width:1.5;stroke-linecap:butt;stroke-linejoin:miter;stroke:rgb(0%,0%,0%);stroke-opacity:0.2;stroke-dasharray:10,4;stroke-dashoffset:1;stroke-miterlimit:10;" d="M 151 3 L 209 3 L 209 45 L 151 45 Z M 151 3 "/>
<path style="fill:none;stroke-width:1.5;stroke-linecap:butt;stroke-linejoin:miter;stroke:rgb(0%,0%,0%);stroke-opacity:0.266667;stroke-dasharray:10,4;stroke-dashoffset:1;stroke-miterlimit:10;" d="M 222.75 0.75 L 285.25 0.75 L 285.25 47.25 L 222.75 47.25 Z M 222.75 0.75 "/>
<path style="fill:none;stroke-width:1.5;stroke-linecap:butt;stroke-linejoin:miter;stroke:rgb(0%,0%,0%);stroke-opacity:0.2;stroke-dasharray:10,4;stroke-dashoffset:1;stroke-miterlimit:10;" d="M 225 3 L 283 3 L 283 45 L 225 45 Z M 225 3 "/>
<path style="fill:none;stroke-width:1.5;stroke-linecap:butt;stroke-linejoin:miter;stroke:rgb(0%,0%,0%);stroke-opacity:0.266667;stroke-dasharray:10,4;stroke-dashoffset:1;stroke-miterlimit:10;" d="M 296.75 0.75 L 359.25 0.75 L 359.25 47.25 L 296.75 47.25 Z M 296.75 0.75 "/>
<path style="fill:none;stroke-width:1.5;stroke-linecap:butt;stroke-linejoin:miter;stroke:rgb(0%,0%,0%);stroke-opacity:0.2;stroke-dasharray:10,4;stroke-dashoffset:1;stroke-miterlimit:10;" d="M 299 3 L 357 3 L 357 45 L 299 45 Z M 299 3 "/>
<g clip-path="url(#clip1)" clip-rule="nonzero">
<g clip-path="url(#clip2)" clip-rule="nonzero">
<rect x="0" y="0" width="360" height="48" style="fill:rgb(38.039216%,50.588235%,100%);fill-opacity:0.494118;stroke:none;"/>
<path style="fill:none;stroke-width:2;stroke-linecap:butt;stroke-linejoin:miter;stroke:rgb(38.039216%,50.588235%,99.607843%);stroke-opacity:1;stroke-miterlimit:10;" d="M 1 3 C 1 1.894531 1.894531 1 3 1 L 54.667969 1 C 55.769531 1 56.667969 1.894531 56.667969 3 L 56.667969 39 C 56.667969 40.105469 55.769531 41 54.667969 41 L 3 41 C 1.894531 41 1 40.105469 1 39 Z M 1 3 " transform="matrix(1,0,0,1,3,3)"/>
</g>
</g>
<g clip-path="url(#clip3)" clip-rule="nonzero">
<g clip-path="url(#clip4)" clip-rule="nonzero">
<rect x="0" y="0" width="360" height="48" style="fill:rgb(38.039216%,50.588235%,100%);fill-opacity:0.494118;stroke:none;"/>
<path style="fill:none;stroke-width:2;stroke-linecap:butt;stroke-linejoin:miter;stroke:rgb(38.039216%,50.588235%,99.607843%);stroke-opacity:1;stroke-miterlimit:10;" d="M 1 3 C 1 1.894531 1.894531 1 3 1 L 25.667969 1 C 26.769531 1 27.667969 1.894531 27.667969 3 L 27.667969 39 C 27.667969 40.105469 26.769531 41 25.667969 41 L 3 41 C 1.894531 41 1 40.105469 1 39 Z M 1 3 " transform="matrix(1,0,0,1,77,3)"/>
</g>
</g>
<g clip-path="url(#clip5)" clip-rule="nonzero">
<g clip-path="url(#clip6)" clip-rule="nonzero">
<rect x="0" y="0" width="360" height="48" style="fill:rgb(38.039216%,50.588235%,100%);fill-opacity:0.494118;stroke:none;"/>
<path style="fill:none;stroke-width:2;stroke-linecap:butt;stroke-linejoin:miter;stroke:rgb(38.039216%,50.588235%,99.607843%);stroke-opacity:1;stroke-miterlimit:10;" d="M 1.001302 3 C 1.001302 1.894531 1.895833 1 3.001302 1 L 25.665365 1 C 26.770833 1 27.665365 1.894531 27.665365 3 L 27.665365 39 C 27.665365 40.105469 26.770833 41 25.665365 41 L 3.001302 41 C 1.895833 41 1.001302 40.105469 1.001302 39 Z M 1.001302 3 " transform="matrix(1,0,0,1,105.666667,3)"/>
</g>
</g>
<g clip-path="url(#clip7)" clip-rule="nonzero">
<g clip-path="url(#clip8)" clip-rule="nonzero">
<rect x="0" y="0" width="360" height="48" style="fill:rgb(38.039216%,50.588235%,100%);fill-opacity:0.494118;stroke:none;"/>
<path style="fill:none;stroke-width:2;stroke-linecap:butt;stroke-linejoin:miter;stroke:rgb(38.039216%,50.588235%,99.607843%);stroke-opacity:1;stroke-miterlimit:10;" d="M 1 3 C 1 1.894531 1.894531 1 3 1 L 25.667969 1 C 26.769531 1 27.667969 1.894531 27.667969 3 L 27.667969 39 C 27.667969 40.105469 26.769531 41 25.667969 41 L 3 41 C 1.894531 41 1 40.105469 1 39 Z M 1 3 " transform="matrix(1,0,0,1,151,3)"/>
</g>
</g>
<g clip-path="url(#clip9)" clip-rule="nonzero">
<g clip-path="url(#clip10)" clip-rule="nonzero">
<rect x="0" y="0" width="360" height="48" style="fill:rgb(38.039216%,50.588235%,100%);fill-opacity:0.494118;stroke:none;"/>
<path style="fill:none;stroke-width:2;stroke-linecap:butt;stroke-linejoin:miter;stroke:rgb(38.039216%,50.588235%,99.607843%);stroke-opacity:1;stroke-miterlimit:10;" d="M 1.001302 3 C 1.001302 1.894531 1.895833 1 3.001302 1 L 25.665365 1 C 26.770833 1 27.665365 1.894531 27.665365 3 L 27.665365 18 C 27.665365 19.105469 26.770833 20 25.665365 20 L 3.001302 20 C 1.895833 20 1.001302 19.105469 1.001302 18 Z M 1.001302 3 " transform="matrix(1,0,0,1,179.666667,3)"/>
</g>
</g>
<g clip-path="url(#clip11)" clip-rule="nonzero">
<g clip-path="url(#clip12)" clip-rule="nonzero">
<rect x="0" y="0" width="360" height="48" style="fill:rgb(38.039216%,50.588235%,100%);fill-opacity:0.494118;stroke:none;"/>
<path style="fill:none;stroke-width:2;stroke-linecap:butt;stroke-linejoin:miter;stroke:rgb(38.039216%,50.588235%,99.607843%);stroke-opacity:1;stroke-miterlimit:10;" d="M 1.001302 3 C 1.001302 1.894531 1.895833 1 3.001302 1 L 25.665365 1 C 26.770833 1 27.665365 1.894531 27.665365 3 L 27.665365 18 C 27.665365 19.105469 26.770833 20 25.665365 20 L 3.001302 20 C 1.895833 20 1.001302 19.105469 1.001302 18 Z M 1.001302 3 " transform="matrix(1,0,0,1,179.666667,24)"/>
</g>
</g>
<g clip-path="url(#clip13)" clip-rule="nonzero">
<g clip-path="url(#clip14)" clip-rule="nonzero">
<rect x="0" y="0" width="360" height="48" style="fill:rgb(38.039216%,50.588235%,100%);fill-opacity:0.494118;stroke:none;"/>
<path style="fill:none;stroke-width:2;stroke-linecap:butt;stroke-linejoin:miter;stroke:rgb(38.039216%,50.588235%,99.607843%);stroke-opacity:1;stroke-miterlimit:10;" d="M 1 3 C 1 1.894531 1.894531 1 3 1 L 16 1 C 17.105469 1 18 1.894531 18 3 L 18 39 C 18 40.105469 17.105469 41 16 41 L 3 41 C 1.894531 41 1 40.105469 1 39 Z M 1 3 " transform="matrix(1,0,0,1,225,3)"/>
</g>
</g>
<g clip-path="url(#clip15)" clip-rule="nonzero">
<g clip-path="url(#clip16)" clip-rule="nonzero">
<rect x="0" y="0" width="360" height="48" style="fill:rgb(38.039216%,50.588235%,100%);fill-opacity:0.494118;stroke:none;"/>
<path style="fill:none;stroke-width:2;stroke-linecap:butt;stroke-linejoin:miter;stroke:rgb(38.039216%,50.588235%,99.607843%);stroke-opacity:1;stroke-miterlimit:10;" d="M 1 3 C 1 1.894531 1.894531 1 3 1 L 16 1 C 17.105469 1 18 1.894531 18 3 L 18 18 C 18 19.105469 17.105469 20 16 20 L 3 20 C 1.894531 20 1 19.105469 1 18 Z M 1 3 " transform="matrix(1,0,0,1,244,3)"/>
</g>
</g>
<g clip-path="url(#clip17)" clip-rule="nonzero">
<g clip-path="url(#clip18)" clip-rule="nonzero">
<rect x="0" y="0" width="360" height="48" style="fill:rgb(38.039216%,50.588235%,100%);fill-opacity:0.494118;stroke:none;"/>
<path style="fill:none;stroke-width:2;stroke-linecap:butt;stroke-linejoin:miter;stroke:rgb(38.039216%,50.588235%,99.607843%);stroke-opacity:1;stroke-miterlimit:10;" d="M 1 3 C 1 1.894531 1.894531 1 3 1 L 16 1 C 17.105469 1 18 1.894531 18 3 L 18 18 C 18 19.105469 17.105469 20 16 20 L 3 20 C 1.894531 20 1 19.105469 1 18 Z M 1 3 " transform="matrix(1,0,0,1,244,24)"/>
</g>
</g>
<g clip-path="url(#clip19)" clip-rule="nonzero">
<g clip-path="url(#clip20)" clip-rule="nonzero">
<rect x="0" y="0" width="360" height="48" style="fill:rgb(38.039216%,50.588235%,100%);fill-opacity:0.494118;stroke:none;"/>
<path style="fill:none;stroke-width:2;stroke-linecap:butt;stroke-linejoin:miter;stroke:rgb(38.039216%,50.588235%,99.607843%);stroke-opacity:1;stroke-miterlimit:10;" d="M 1 3 C 1 1.894531 1.894531 1 3 1 L 16 1 C 17.105469 1 18 1.894531 18 3 L 18 39 C 18 40.105469 17.105469 41 16 41 L 3 41 C 1.894531 41 1 40.105469 1 39 Z M 1 3 " transform="matrix(1,0,0,1,263,3)"/>
</g>
</g>
<g clip-path="url(#clip21)" clip-rule="nonzero">
<g clip-path="url(#clip22)" clip-rule="nonzero">
<rect x="0" y="0" width="360" height="48" style="fill:rgb(38.039216%,50.588235%,100%);fill-opacity:0.494118;stroke:none;"/>
<path style="fill:none;stroke-width:2;stroke-linecap:butt;stroke-linejoin:miter;stroke:rgb(38.039216%,50.588235%,99.607843%);stroke-opacity:1;stroke-miterlimit:10;" d="M 1 3 C 1 1.894531 1.894531 1 3 1 L 16 1 C 17.105469 1 18 1.894531 18 3 L 18 39 C 18 40.105469 17.105469 41 16 41 L 3 41 C 1.894531 41 1 40.105469 1 39 Z M 1 3 " transform="matrix(1,0,0,1,299,3)"/>
</g>
</g>
<g clip-path="url(#clip23)" clip-rule="nonzero">
<g clip-path="url(#clip24)" clip-rule="nonzero">
<rect x="0" y="0" width="360" height="48" style="fill:rgb(38.039216%,50.588235%,100%);fill-opacity:0.494118;stroke:none;"/>
<path style="fill:none;stroke-width:2;stroke-linecap:butt;stroke-linejoin:miter;stroke:rgb(38.039216%,50.588235%,99.607843%);stroke-opacity:1;stroke-miterlimit:10;" d="M 1 3 C 1 1.894531 1.894531 1 3 1 L 16 1 C 17.105469 1 18 1.894531 18 3 L 18 18 C 18 19.105469 17.105469 20 16 20 L 3 20 C 1.894531 20 1 19.105469 1 18 Z M 1 3 " transform="matrix(1,0,0,1,318,3)"/>
</g>
</g>
<g clip-path="url(#clip25)" clip-rule="nonzero">
<g clip-path="url(#clip26)" clip-rule="nonzero">
<rect x="0" y="0" width="360" height="48" style="fill:rgb(38.039216%,50.588235%,100%);fill-opacity:0.494118;stroke:none;"/>
<path style="fill:none;stroke-width:2;stroke-linecap:butt;stroke-linejoin:miter;stroke:rgb(38.039216%,50.588235%,99.607843%);stroke-opacity:1;stroke-miterlimit:10;" d="M 1 3 C 1 1.894531 1.894531 1 3 1 L 16 1 C 17.105469 1 18 1.894531 18 3 L 18 18 C 18 19.105469 17.105469 20 16 20 L 3 20 C 1.894531 20 1 19.105469 1 18 Z M 1 3 " transform="matrix(1,0,0,1,318,24)"/>
</g>
</g>
<g clip-path="url(#clip27)" clip-rule="nonzero">
<g clip-path="url(#clip28)" clip-rule="nonzero">
<rect x="0" y="0" width="360" height="48" style="fill:rgb(38.039216%,50.588235%,100%);fill-opacity:0.494118;stroke:none;"/>
<path style="fill:none;stroke-width:2;stroke-linecap:butt;stroke-linejoin:miter;stroke:rgb(38.039216%,50.588235%,99.607843%);stroke-opacity:1;stroke-miterlimit:10;" d="M 1 3 C 1 1.894531 1.894531 1 3 1 L 16 1 C 17.105469 1 18 1.894531 18 3 L 18 18 C 18 19.105469 17.105469 20 16 20 L 3 20 C 1.894531 20 1 19.105469 1 18 Z M 1 3 " transform="matrix(1,0,0,1,337,3)"/>
</g>
</g>
<g clip-path="url(#clip29)" clip-rule="nonzero">
<g clip-path="url(#clip30)" clip-rule="nonzero">
<rect x="0" y="0" width="360" height="48" style="fill:rgb(38.039216%,50.588235%,100%);fill-opacity:0.494118;stroke:none;"/>
<path style="fill:none;stroke-width:2;stroke-linecap:butt;stroke-linejoin:miter;stroke:rgb(38.039216%,50.588235%,99.607843%);stroke-opacity:1;stroke-miterlimit:10;" d="M 1 3 C 1 1.894531 1.894531 1 3 1 L 16 1 C 17.105469 1 18 1.894531 18 3 L 18 18 C 18 19.105469 17.105469 20 16 20 L 3 20 C 1.894531 20 1 19.105469 1 18 Z M 1 3 " transform="matrix(1,0,0,1,337,24)"/>
</g>
</g>
</g>
</svg>
